%TF.GenerationSoftware,KiCad,Pcbnew,5.1.10-6.fc33*%
%TF.CreationDate,2021-10-21T00:53:11-07:00*%
%TF.ProjectId,esp32_7seg_alarm_clock_controller,65737033-325f-4377-9365-675f616c6172,rev?*%
%TF.SameCoordinates,Original*%
%TF.FileFunction,Soldermask,Top*%
%TF.FilePolarity,Negative*%
%FSLAX46Y46*%
G04 Gerber Fmt 4.6, Leading zero omitted, Abs format (unit mm)*
G04 Created by KiCad (PCBNEW 5.1.10-6.fc33) date 2021-10-21 00:53:11*
%MOMM*%
%LPD*%
G01*
G04 APERTURE LIST*
%ADD10C,3.300000*%
%ADD11C,3.100000*%
%ADD12C,9.100000*%
%ADD13O,1.800000X1.800000*%
%ADD14C,2.700000*%
G04 APERTURE END LIST*
D10*
%TO.C,M4*%
X170000000Y-125000000D03*
%TD*%
%TO.C,M3*%
X105000000Y-125000000D03*
%TD*%
%TO.C,M2*%
X170000000Y-105000000D03*
%TD*%
%TO.C,M1*%
X105000000Y-105000000D03*
%TD*%
D11*
%TO.C,BT1*%
X158100000Y-106750000D03*
X144900000Y-106750000D03*
D12*
X151500000Y-106750000D03*
%TD*%
%TO.C,C1*%
G36*
G01*
X109720000Y-122510000D02*
X109330000Y-122510000D01*
G75*
G02*
X109165000Y-122345000I0J165000D01*
G01*
X109165000Y-122015000D01*
G75*
G02*
X109330000Y-121850000I165000J0D01*
G01*
X109720000Y-121850000D01*
G75*
G02*
X109885000Y-122015000I0J-165000D01*
G01*
X109885000Y-122345000D01*
G75*
G02*
X109720000Y-122510000I-165000J0D01*
G01*
G37*
G36*
G01*
X109720000Y-121550000D02*
X109330000Y-121550000D01*
G75*
G02*
X109165000Y-121385000I0J165000D01*
G01*
X109165000Y-121055000D01*
G75*
G02*
X109330000Y-120890000I165000J0D01*
G01*
X109720000Y-120890000D01*
G75*
G02*
X109885000Y-121055000I0J-165000D01*
G01*
X109885000Y-121385000D01*
G75*
G02*
X109720000Y-121550000I-165000J0D01*
G01*
G37*
%TD*%
%TO.C,C2*%
G36*
G01*
X137375000Y-113645000D02*
X137375000Y-113255000D01*
G75*
G02*
X137540000Y-113090000I165000J0D01*
G01*
X137870000Y-113090000D01*
G75*
G02*
X138035000Y-113255000I0J-165000D01*
G01*
X138035000Y-113645000D01*
G75*
G02*
X137870000Y-113810000I-165000J0D01*
G01*
X137540000Y-113810000D01*
G75*
G02*
X137375000Y-113645000I0J165000D01*
G01*
G37*
G36*
G01*
X136415000Y-113645000D02*
X136415000Y-113255000D01*
G75*
G02*
X136580000Y-113090000I165000J0D01*
G01*
X136910000Y-113090000D01*
G75*
G02*
X137075000Y-113255000I0J-165000D01*
G01*
X137075000Y-113645000D01*
G75*
G02*
X136910000Y-113810000I-165000J0D01*
G01*
X136580000Y-113810000D01*
G75*
G02*
X136415000Y-113645000I0J165000D01*
G01*
G37*
%TD*%
%TO.C,C3*%
G36*
G01*
X109035000Y-101455000D02*
X109035000Y-101845000D01*
G75*
G02*
X108870000Y-102010000I-165000J0D01*
G01*
X108540000Y-102010000D01*
G75*
G02*
X108375000Y-101845000I0J165000D01*
G01*
X108375000Y-101455000D01*
G75*
G02*
X108540000Y-101290000I165000J0D01*
G01*
X108870000Y-101290000D01*
G75*
G02*
X109035000Y-101455000I0J-165000D01*
G01*
G37*
G36*
G01*
X108075000Y-101455000D02*
X108075000Y-101845000D01*
G75*
G02*
X107910000Y-102010000I-165000J0D01*
G01*
X107580000Y-102010000D01*
G75*
G02*
X107415000Y-101845000I0J165000D01*
G01*
X107415000Y-101455000D01*
G75*
G02*
X107580000Y-101290000I165000J0D01*
G01*
X107910000Y-101290000D01*
G75*
G02*
X108075000Y-101455000I0J-165000D01*
G01*
G37*
%TD*%
%TO.C,C4*%
G36*
G01*
X149300000Y-118325000D02*
X148300000Y-118325000D01*
G75*
G02*
X148025000Y-118050000I0J275000D01*
G01*
X148025000Y-117500000D01*
G75*
G02*
X148300000Y-117225000I275000J0D01*
G01*
X149300000Y-117225000D01*
G75*
G02*
X149575000Y-117500000I0J-275000D01*
G01*
X149575000Y-118050000D01*
G75*
G02*
X149300000Y-118325000I-275000J0D01*
G01*
G37*
G36*
G01*
X149300000Y-120225000D02*
X148300000Y-120225000D01*
G75*
G02*
X148025000Y-119950000I0J275000D01*
G01*
X148025000Y-119400000D01*
G75*
G02*
X148300000Y-119125000I275000J0D01*
G01*
X149300000Y-119125000D01*
G75*
G02*
X149575000Y-119400000I0J-275000D01*
G01*
X149575000Y-119950000D01*
G75*
G02*
X149300000Y-120225000I-275000J0D01*
G01*
G37*
%TD*%
%TO.C,C5*%
G36*
G01*
X156525000Y-124625000D02*
X155525000Y-124625000D01*
G75*
G02*
X155250000Y-124350000I0J275000D01*
G01*
X155250000Y-123800000D01*
G75*
G02*
X155525000Y-123525000I275000J0D01*
G01*
X156525000Y-123525000D01*
G75*
G02*
X156800000Y-123800000I0J-275000D01*
G01*
X156800000Y-124350000D01*
G75*
G02*
X156525000Y-124625000I-275000J0D01*
G01*
G37*
G36*
G01*
X156525000Y-122725000D02*
X155525000Y-122725000D01*
G75*
G02*
X155250000Y-122450000I0J275000D01*
G01*
X155250000Y-121900000D01*
G75*
G02*
X155525000Y-121625000I275000J0D01*
G01*
X156525000Y-121625000D01*
G75*
G02*
X156800000Y-121900000I0J-275000D01*
G01*
X156800000Y-122450000D01*
G75*
G02*
X156525000Y-122725000I-275000J0D01*
G01*
G37*
%TD*%
%TO.C,D1*%
G36*
G01*
X129956250Y-128800000D02*
X128993750Y-128800000D01*
G75*
G02*
X128725000Y-128531250I0J268750D01*
G01*
X128725000Y-127993750D01*
G75*
G02*
X128993750Y-127725000I268750J0D01*
G01*
X129956250Y-127725000D01*
G75*
G02*
X130225000Y-127993750I0J-268750D01*
G01*
X130225000Y-128531250D01*
G75*
G02*
X129956250Y-128800000I-268750J0D01*
G01*
G37*
G36*
G01*
X129956250Y-126925000D02*
X128993750Y-126925000D01*
G75*
G02*
X128725000Y-126656250I0J268750D01*
G01*
X128725000Y-126118750D01*
G75*
G02*
X128993750Y-125850000I268750J0D01*
G01*
X129956250Y-125850000D01*
G75*
G02*
X130225000Y-126118750I0J-268750D01*
G01*
X130225000Y-126656250D01*
G75*
G02*
X129956250Y-126925000I-268750J0D01*
G01*
G37*
%TD*%
%TO.C,J1*%
G36*
G01*
X124150000Y-122100000D02*
X125850000Y-122100000D01*
G75*
G02*
X125900000Y-122150000I0J-50000D01*
G01*
X125900000Y-123850000D01*
G75*
G02*
X125850000Y-123900000I-50000J0D01*
G01*
X124150000Y-123900000D01*
G75*
G02*
X124100000Y-123850000I0J50000D01*
G01*
X124100000Y-122150000D01*
G75*
G02*
X124150000Y-122100000I50000J0D01*
G01*
G37*
D13*
X122460000Y-123000000D03*
X119920000Y-123000000D03*
X117380000Y-123000000D03*
X114840000Y-123000000D03*
X112300000Y-123000000D03*
%TD*%
%TO.C,J2*%
G36*
G01*
X162300000Y-116350000D02*
X159700000Y-116350000D01*
G75*
G02*
X159650000Y-116300000I0J50000D01*
G01*
X159650000Y-113700000D01*
G75*
G02*
X159700000Y-113650000I50000J0D01*
G01*
X162300000Y-113650000D01*
G75*
G02*
X162350000Y-113700000I0J-50000D01*
G01*
X162350000Y-116300000D01*
G75*
G02*
X162300000Y-116350000I-50000J0D01*
G01*
G37*
D14*
X167000000Y-115000000D03*
X164000000Y-110300000D03*
%TD*%
%TO.C,J3*%
G36*
G01*
X134850000Y-123900000D02*
X133150000Y-123900000D01*
G75*
G02*
X133100000Y-123850000I0J50000D01*
G01*
X133100000Y-122150000D01*
G75*
G02*
X133150000Y-122100000I50000J0D01*
G01*
X134850000Y-122100000D01*
G75*
G02*
X134900000Y-122150000I0J-50000D01*
G01*
X134900000Y-123850000D01*
G75*
G02*
X134850000Y-123900000I-50000J0D01*
G01*
G37*
D13*
X136540000Y-123000000D03*
X139080000Y-123000000D03*
X141620000Y-123000000D03*
%TD*%
%TO.C,L1*%
G36*
G01*
X150325000Y-128025000D02*
X150325000Y-124625000D01*
G75*
G02*
X150375000Y-124575000I50000J0D01*
G01*
X151675000Y-124575000D01*
G75*
G02*
X151725000Y-124625000I0J-50000D01*
G01*
X151725000Y-128025000D01*
G75*
G02*
X151675000Y-128075000I-50000J0D01*
G01*
X150375000Y-128075000D01*
G75*
G02*
X150325000Y-128025000I0J50000D01*
G01*
G37*
G36*
G01*
X152425000Y-128025000D02*
X152425000Y-124625000D01*
G75*
G02*
X152475000Y-124575000I50000J0D01*
G01*
X153775000Y-124575000D01*
G75*
G02*
X153825000Y-124625000I0J-50000D01*
G01*
X153825000Y-128025000D01*
G75*
G02*
X153775000Y-128075000I-50000J0D01*
G01*
X152475000Y-128075000D01*
G75*
G02*
X152425000Y-128025000I0J50000D01*
G01*
G37*
%TD*%
%TO.C,Q1*%
G36*
G01*
X133900000Y-117000000D02*
X133900000Y-116200000D01*
G75*
G02*
X133950000Y-116150000I50000J0D01*
G01*
X134850000Y-116150000D01*
G75*
G02*
X134900000Y-116200000I0J-50000D01*
G01*
X134900000Y-117000000D01*
G75*
G02*
X134850000Y-117050000I-50000J0D01*
G01*
X133950000Y-117050000D01*
G75*
G02*
X133900000Y-117000000I0J50000D01*
G01*
G37*
G36*
G01*
X131900000Y-117950000D02*
X131900000Y-117150000D01*
G75*
G02*
X131950000Y-117100000I50000J0D01*
G01*
X132850000Y-117100000D01*
G75*
G02*
X132900000Y-117150000I0J-50000D01*
G01*
X132900000Y-117950000D01*
G75*
G02*
X132850000Y-118000000I-50000J0D01*
G01*
X131950000Y-118000000D01*
G75*
G02*
X131900000Y-117950000I0J50000D01*
G01*
G37*
G36*
G01*
X131900000Y-116050000D02*
X131900000Y-115250000D01*
G75*
G02*
X131950000Y-115200000I50000J0D01*
G01*
X132850000Y-115200000D01*
G75*
G02*
X132900000Y-115250000I0J-50000D01*
G01*
X132900000Y-116050000D01*
G75*
G02*
X132850000Y-116100000I-50000J0D01*
G01*
X131950000Y-116100000D01*
G75*
G02*
X131900000Y-116050000I0J50000D01*
G01*
G37*
%TD*%
%TO.C,Q2*%
G36*
G01*
X139700000Y-117850000D02*
X139700000Y-118650000D01*
G75*
G02*
X139650000Y-118700000I-50000J0D01*
G01*
X138750000Y-118700000D01*
G75*
G02*
X138700000Y-118650000I0J50000D01*
G01*
X138700000Y-117850000D01*
G75*
G02*
X138750000Y-117800000I50000J0D01*
G01*
X139650000Y-117800000D01*
G75*
G02*
X139700000Y-117850000I0J-50000D01*
G01*
G37*
G36*
G01*
X139700000Y-115950000D02*
X139700000Y-116750000D01*
G75*
G02*
X139650000Y-116800000I-50000J0D01*
G01*
X138750000Y-116800000D01*
G75*
G02*
X138700000Y-116750000I0J50000D01*
G01*
X138700000Y-115950000D01*
G75*
G02*
X138750000Y-115900000I50000J0D01*
G01*
X139650000Y-115900000D01*
G75*
G02*
X139700000Y-115950000I0J-50000D01*
G01*
G37*
G36*
G01*
X137700000Y-116900000D02*
X137700000Y-117700000D01*
G75*
G02*
X137650000Y-117750000I-50000J0D01*
G01*
X136750000Y-117750000D01*
G75*
G02*
X136700000Y-117700000I0J50000D01*
G01*
X136700000Y-116900000D01*
G75*
G02*
X136750000Y-116850000I50000J0D01*
G01*
X137650000Y-116850000D01*
G75*
G02*
X137700000Y-116900000I0J-50000D01*
G01*
G37*
%TD*%
%TO.C,R1*%
G36*
G01*
X108410000Y-122505000D02*
X107990000Y-122505000D01*
G75*
G02*
X107830000Y-122345000I0J160000D01*
G01*
X107830000Y-122025000D01*
G75*
G02*
X107990000Y-121865000I160000J0D01*
G01*
X108410000Y-121865000D01*
G75*
G02*
X108570000Y-122025000I0J-160000D01*
G01*
X108570000Y-122345000D01*
G75*
G02*
X108410000Y-122505000I-160000J0D01*
G01*
G37*
G36*
G01*
X108410000Y-121485000D02*
X107990000Y-121485000D01*
G75*
G02*
X107830000Y-121325000I0J160000D01*
G01*
X107830000Y-121005000D01*
G75*
G02*
X107990000Y-120845000I160000J0D01*
G01*
X108410000Y-120845000D01*
G75*
G02*
X108570000Y-121005000I0J-160000D01*
G01*
X108570000Y-121325000D01*
G75*
G02*
X108410000Y-121485000I-160000J0D01*
G01*
G37*
%TD*%
%TO.C,R2*%
G36*
G01*
X129800000Y-124750000D02*
X129200000Y-124750000D01*
G75*
G02*
X128975000Y-124525000I0J225000D01*
G01*
X128975000Y-124075000D01*
G75*
G02*
X129200000Y-123850000I225000J0D01*
G01*
X129800000Y-123850000D01*
G75*
G02*
X130025000Y-124075000I0J-225000D01*
G01*
X130025000Y-124525000D01*
G75*
G02*
X129800000Y-124750000I-225000J0D01*
G01*
G37*
G36*
G01*
X129800000Y-123100000D02*
X129200000Y-123100000D01*
G75*
G02*
X128975000Y-122875000I0J225000D01*
G01*
X128975000Y-122425000D01*
G75*
G02*
X129200000Y-122200000I225000J0D01*
G01*
X129800000Y-122200000D01*
G75*
G02*
X130025000Y-122425000I0J-225000D01*
G01*
X130025000Y-122875000D01*
G75*
G02*
X129800000Y-123100000I-225000J0D01*
G01*
G37*
%TD*%
%TO.C,R3*%
G36*
G01*
X130715000Y-116335000D02*
X131135000Y-116335000D01*
G75*
G02*
X131295000Y-116495000I0J-160000D01*
G01*
X131295000Y-116815000D01*
G75*
G02*
X131135000Y-116975000I-160000J0D01*
G01*
X130715000Y-116975000D01*
G75*
G02*
X130555000Y-116815000I0J160000D01*
G01*
X130555000Y-116495000D01*
G75*
G02*
X130715000Y-116335000I160000J0D01*
G01*
G37*
G36*
G01*
X130715000Y-117355000D02*
X131135000Y-117355000D01*
G75*
G02*
X131295000Y-117515000I0J-160000D01*
G01*
X131295000Y-117835000D01*
G75*
G02*
X131135000Y-117995000I-160000J0D01*
G01*
X130715000Y-117995000D01*
G75*
G02*
X130555000Y-117835000I0J160000D01*
G01*
X130555000Y-117515000D01*
G75*
G02*
X130715000Y-117355000I160000J0D01*
G01*
G37*
%TD*%
%TO.C,R4*%
G36*
G01*
X140935000Y-117935000D02*
X140515000Y-117935000D01*
G75*
G02*
X140355000Y-117775000I0J160000D01*
G01*
X140355000Y-117455000D01*
G75*
G02*
X140515000Y-117295000I160000J0D01*
G01*
X140935000Y-117295000D01*
G75*
G02*
X141095000Y-117455000I0J-160000D01*
G01*
X141095000Y-117775000D01*
G75*
G02*
X140935000Y-117935000I-160000J0D01*
G01*
G37*
G36*
G01*
X140935000Y-118955000D02*
X140515000Y-118955000D01*
G75*
G02*
X140355000Y-118795000I0J160000D01*
G01*
X140355000Y-118475000D01*
G75*
G02*
X140515000Y-118315000I160000J0D01*
G01*
X140935000Y-118315000D01*
G75*
G02*
X141095000Y-118475000I0J-160000D01*
G01*
X141095000Y-118795000D01*
G75*
G02*
X140935000Y-118955000I-160000J0D01*
G01*
G37*
%TD*%
%TO.C,R5*%
G36*
G01*
X133860000Y-119040000D02*
X133860000Y-119460000D01*
G75*
G02*
X133700000Y-119620000I-160000J0D01*
G01*
X133380000Y-119620000D01*
G75*
G02*
X133220000Y-119460000I0J160000D01*
G01*
X133220000Y-119040000D01*
G75*
G02*
X133380000Y-118880000I160000J0D01*
G01*
X133700000Y-118880000D01*
G75*
G02*
X133860000Y-119040000I0J-160000D01*
G01*
G37*
G36*
G01*
X134880000Y-119040000D02*
X134880000Y-119460000D01*
G75*
G02*
X134720000Y-119620000I-160000J0D01*
G01*
X134400000Y-119620000D01*
G75*
G02*
X134240000Y-119460000I0J160000D01*
G01*
X134240000Y-119040000D01*
G75*
G02*
X134400000Y-118880000I160000J0D01*
G01*
X134720000Y-118880000D01*
G75*
G02*
X134880000Y-119040000I0J-160000D01*
G01*
G37*
%TD*%
%TO.C,R6*%
G36*
G01*
X136085000Y-119630000D02*
X135665000Y-119630000D01*
G75*
G02*
X135505000Y-119470000I0J160000D01*
G01*
X135505000Y-119150000D01*
G75*
G02*
X135665000Y-118990000I160000J0D01*
G01*
X136085000Y-118990000D01*
G75*
G02*
X136245000Y-119150000I0J-160000D01*
G01*
X136245000Y-119470000D01*
G75*
G02*
X136085000Y-119630000I-160000J0D01*
G01*
G37*
G36*
G01*
X136085000Y-118610000D02*
X135665000Y-118610000D01*
G75*
G02*
X135505000Y-118450000I0J160000D01*
G01*
X135505000Y-118130000D01*
G75*
G02*
X135665000Y-117970000I160000J0D01*
G01*
X136085000Y-117970000D01*
G75*
G02*
X136245000Y-118130000I0J-160000D01*
G01*
X136245000Y-118450000D01*
G75*
G02*
X136085000Y-118610000I-160000J0D01*
G01*
G37*
%TD*%
%TO.C,SW1*%
G36*
G01*
X100550000Y-114200000D02*
X100550000Y-112800000D01*
G75*
G02*
X100600000Y-112750000I50000J0D01*
G01*
X102200000Y-112750000D01*
G75*
G02*
X102250000Y-112800000I0J-50000D01*
G01*
X102250000Y-114200000D01*
G75*
G02*
X102200000Y-114250000I-50000J0D01*
G01*
X100600000Y-114250000D01*
G75*
G02*
X100550000Y-114200000I0J50000D01*
G01*
G37*
G36*
G01*
X107750000Y-114200000D02*
X107750000Y-112800000D01*
G75*
G02*
X107800000Y-112750000I50000J0D01*
G01*
X109400000Y-112750000D01*
G75*
G02*
X109450000Y-112800000I0J-50000D01*
G01*
X109450000Y-114200000D01*
G75*
G02*
X109400000Y-114250000I-50000J0D01*
G01*
X107800000Y-114250000D01*
G75*
G02*
X107750000Y-114200000I0J50000D01*
G01*
G37*
G36*
G01*
X100550000Y-111200000D02*
X100550000Y-109800000D01*
G75*
G02*
X100600000Y-109750000I50000J0D01*
G01*
X102200000Y-109750000D01*
G75*
G02*
X102250000Y-109800000I0J-50000D01*
G01*
X102250000Y-111200000D01*
G75*
G02*
X102200000Y-111250000I-50000J0D01*
G01*
X100600000Y-111250000D01*
G75*
G02*
X100550000Y-111200000I0J50000D01*
G01*
G37*
G36*
G01*
X107750000Y-111200000D02*
X107750000Y-109800000D01*
G75*
G02*
X107800000Y-109750000I50000J0D01*
G01*
X109400000Y-109750000D01*
G75*
G02*
X109450000Y-109800000I0J-50000D01*
G01*
X109450000Y-111200000D01*
G75*
G02*
X109400000Y-111250000I-50000J0D01*
G01*
X107800000Y-111250000D01*
G75*
G02*
X107750000Y-111200000I0J50000D01*
G01*
G37*
%TD*%
%TO.C,SW2*%
G36*
G01*
X107750000Y-117200000D02*
X107750000Y-115800000D01*
G75*
G02*
X107800000Y-115750000I50000J0D01*
G01*
X109400000Y-115750000D01*
G75*
G02*
X109450000Y-115800000I0J-50000D01*
G01*
X109450000Y-117200000D01*
G75*
G02*
X109400000Y-117250000I-50000J0D01*
G01*
X107800000Y-117250000D01*
G75*
G02*
X107750000Y-117200000I0J50000D01*
G01*
G37*
G36*
G01*
X100550000Y-117200000D02*
X100550000Y-115800000D01*
G75*
G02*
X100600000Y-115750000I50000J0D01*
G01*
X102200000Y-115750000D01*
G75*
G02*
X102250000Y-115800000I0J-50000D01*
G01*
X102250000Y-117200000D01*
G75*
G02*
X102200000Y-117250000I-50000J0D01*
G01*
X100600000Y-117250000D01*
G75*
G02*
X100550000Y-117200000I0J50000D01*
G01*
G37*
G36*
G01*
X107750000Y-120200000D02*
X107750000Y-118800000D01*
G75*
G02*
X107800000Y-118750000I50000J0D01*
G01*
X109400000Y-118750000D01*
G75*
G02*
X109450000Y-118800000I0J-50000D01*
G01*
X109450000Y-120200000D01*
G75*
G02*
X109400000Y-120250000I-50000J0D01*
G01*
X107800000Y-120250000D01*
G75*
G02*
X107750000Y-120200000I0J50000D01*
G01*
G37*
G36*
G01*
X100550000Y-120200000D02*
X100550000Y-118800000D01*
G75*
G02*
X100600000Y-118750000I50000J0D01*
G01*
X102200000Y-118750000D01*
G75*
G02*
X102250000Y-118800000I0J-50000D01*
G01*
X102250000Y-120200000D01*
G75*
G02*
X102200000Y-120250000I-50000J0D01*
G01*
X100600000Y-120250000D01*
G75*
G02*
X100550000Y-120200000I0J50000D01*
G01*
G37*
%TD*%
%TO.C,U1*%
G36*
G01*
X132730000Y-112225000D02*
X132380000Y-112225000D01*
G75*
G02*
X132205000Y-112050000I0J175000D01*
G01*
X132205000Y-110250000D01*
G75*
G02*
X132380000Y-110075000I175000J0D01*
G01*
X132730000Y-110075000D01*
G75*
G02*
X132905000Y-110250000I0J-175000D01*
G01*
X132905000Y-112050000D01*
G75*
G02*
X132730000Y-112225000I-175000J0D01*
G01*
G37*
G36*
G01*
X134000000Y-112225000D02*
X133650000Y-112225000D01*
G75*
G02*
X133475000Y-112050000I0J175000D01*
G01*
X133475000Y-110250000D01*
G75*
G02*
X133650000Y-110075000I175000J0D01*
G01*
X134000000Y-110075000D01*
G75*
G02*
X134175000Y-110250000I0J-175000D01*
G01*
X134175000Y-112050000D01*
G75*
G02*
X134000000Y-112225000I-175000J0D01*
G01*
G37*
G36*
G01*
X135270000Y-112225000D02*
X134920000Y-112225000D01*
G75*
G02*
X134745000Y-112050000I0J175000D01*
G01*
X134745000Y-110250000D01*
G75*
G02*
X134920000Y-110075000I175000J0D01*
G01*
X135270000Y-110075000D01*
G75*
G02*
X135445000Y-110250000I0J-175000D01*
G01*
X135445000Y-112050000D01*
G75*
G02*
X135270000Y-112225000I-175000J0D01*
G01*
G37*
G36*
G01*
X136540000Y-112225000D02*
X136190000Y-112225000D01*
G75*
G02*
X136015000Y-112050000I0J175000D01*
G01*
X136015000Y-110250000D01*
G75*
G02*
X136190000Y-110075000I175000J0D01*
G01*
X136540000Y-110075000D01*
G75*
G02*
X136715000Y-110250000I0J-175000D01*
G01*
X136715000Y-112050000D01*
G75*
G02*
X136540000Y-112225000I-175000J0D01*
G01*
G37*
G36*
G01*
X137810000Y-112225000D02*
X137460000Y-112225000D01*
G75*
G02*
X137285000Y-112050000I0J175000D01*
G01*
X137285000Y-110250000D01*
G75*
G02*
X137460000Y-110075000I175000J0D01*
G01*
X137810000Y-110075000D01*
G75*
G02*
X137985000Y-110250000I0J-175000D01*
G01*
X137985000Y-112050000D01*
G75*
G02*
X137810000Y-112225000I-175000J0D01*
G01*
G37*
G36*
G01*
X139080000Y-112225000D02*
X138730000Y-112225000D01*
G75*
G02*
X138555000Y-112050000I0J175000D01*
G01*
X138555000Y-110250000D01*
G75*
G02*
X138730000Y-110075000I175000J0D01*
G01*
X139080000Y-110075000D01*
G75*
G02*
X139255000Y-110250000I0J-175000D01*
G01*
X139255000Y-112050000D01*
G75*
G02*
X139080000Y-112225000I-175000J0D01*
G01*
G37*
G36*
G01*
X140350000Y-112225000D02*
X140000000Y-112225000D01*
G75*
G02*
X139825000Y-112050000I0J175000D01*
G01*
X139825000Y-110250000D01*
G75*
G02*
X140000000Y-110075000I175000J0D01*
G01*
X140350000Y-110075000D01*
G75*
G02*
X140525000Y-110250000I0J-175000D01*
G01*
X140525000Y-112050000D01*
G75*
G02*
X140350000Y-112225000I-175000J0D01*
G01*
G37*
G36*
G01*
X141620000Y-112225000D02*
X141270000Y-112225000D01*
G75*
G02*
X141095000Y-112050000I0J175000D01*
G01*
X141095000Y-110250000D01*
G75*
G02*
X141270000Y-110075000I175000J0D01*
G01*
X141620000Y-110075000D01*
G75*
G02*
X141795000Y-110250000I0J-175000D01*
G01*
X141795000Y-112050000D01*
G75*
G02*
X141620000Y-112225000I-175000J0D01*
G01*
G37*
G36*
G01*
X141620000Y-102925000D02*
X141270000Y-102925000D01*
G75*
G02*
X141095000Y-102750000I0J175000D01*
G01*
X141095000Y-100950000D01*
G75*
G02*
X141270000Y-100775000I175000J0D01*
G01*
X141620000Y-100775000D01*
G75*
G02*
X141795000Y-100950000I0J-175000D01*
G01*
X141795000Y-102750000D01*
G75*
G02*
X141620000Y-102925000I-175000J0D01*
G01*
G37*
G36*
G01*
X140350000Y-102925000D02*
X140000000Y-102925000D01*
G75*
G02*
X139825000Y-102750000I0J175000D01*
G01*
X139825000Y-100950000D01*
G75*
G02*
X140000000Y-100775000I175000J0D01*
G01*
X140350000Y-100775000D01*
G75*
G02*
X140525000Y-100950000I0J-175000D01*
G01*
X140525000Y-102750000D01*
G75*
G02*
X140350000Y-102925000I-175000J0D01*
G01*
G37*
G36*
G01*
X139080000Y-102925000D02*
X138730000Y-102925000D01*
G75*
G02*
X138555000Y-102750000I0J175000D01*
G01*
X138555000Y-100950000D01*
G75*
G02*
X138730000Y-100775000I175000J0D01*
G01*
X139080000Y-100775000D01*
G75*
G02*
X139255000Y-100950000I0J-175000D01*
G01*
X139255000Y-102750000D01*
G75*
G02*
X139080000Y-102925000I-175000J0D01*
G01*
G37*
G36*
G01*
X137810000Y-102925000D02*
X137460000Y-102925000D01*
G75*
G02*
X137285000Y-102750000I0J175000D01*
G01*
X137285000Y-100950000D01*
G75*
G02*
X137460000Y-100775000I175000J0D01*
G01*
X137810000Y-100775000D01*
G75*
G02*
X137985000Y-100950000I0J-175000D01*
G01*
X137985000Y-102750000D01*
G75*
G02*
X137810000Y-102925000I-175000J0D01*
G01*
G37*
G36*
G01*
X136540000Y-102925000D02*
X136190000Y-102925000D01*
G75*
G02*
X136015000Y-102750000I0J175000D01*
G01*
X136015000Y-100950000D01*
G75*
G02*
X136190000Y-100775000I175000J0D01*
G01*
X136540000Y-100775000D01*
G75*
G02*
X136715000Y-100950000I0J-175000D01*
G01*
X136715000Y-102750000D01*
G75*
G02*
X136540000Y-102925000I-175000J0D01*
G01*
G37*
G36*
G01*
X135270000Y-102925000D02*
X134920000Y-102925000D01*
G75*
G02*
X134745000Y-102750000I0J175000D01*
G01*
X134745000Y-100950000D01*
G75*
G02*
X134920000Y-100775000I175000J0D01*
G01*
X135270000Y-100775000D01*
G75*
G02*
X135445000Y-100950000I0J-175000D01*
G01*
X135445000Y-102750000D01*
G75*
G02*
X135270000Y-102925000I-175000J0D01*
G01*
G37*
G36*
G01*
X134000000Y-102925000D02*
X133650000Y-102925000D01*
G75*
G02*
X133475000Y-102750000I0J175000D01*
G01*
X133475000Y-100950000D01*
G75*
G02*
X133650000Y-100775000I175000J0D01*
G01*
X134000000Y-100775000D01*
G75*
G02*
X134175000Y-100950000I0J-175000D01*
G01*
X134175000Y-102750000D01*
G75*
G02*
X134000000Y-102925000I-175000J0D01*
G01*
G37*
G36*
G01*
X132730000Y-102925000D02*
X132380000Y-102925000D01*
G75*
G02*
X132205000Y-102750000I0J175000D01*
G01*
X132205000Y-100950000D01*
G75*
G02*
X132380000Y-100775000I175000J0D01*
G01*
X132730000Y-100775000D01*
G75*
G02*
X132905000Y-100950000I0J-175000D01*
G01*
X132905000Y-102750000D01*
G75*
G02*
X132730000Y-102925000I-175000J0D01*
G01*
G37*
%TD*%
%TO.C,U2*%
G36*
G01*
X116450000Y-111745000D02*
X116450000Y-106745000D01*
G75*
G02*
X116500000Y-106695000I50000J0D01*
G01*
X121500000Y-106695000D01*
G75*
G02*
X121550000Y-106745000I0J-50000D01*
G01*
X121550000Y-111745000D01*
G75*
G02*
X121500000Y-111795000I-50000J0D01*
G01*
X116500000Y-111795000D01*
G75*
G02*
X116450000Y-111745000I0J50000D01*
G01*
G37*
G36*
G01*
X110450000Y-102195000D02*
X110450000Y-101295000D01*
G75*
G02*
X110500000Y-101245000I50000J0D01*
G01*
X112500000Y-101245000D01*
G75*
G02*
X112550000Y-101295000I0J-50000D01*
G01*
X112550000Y-102195000D01*
G75*
G02*
X112500000Y-102245000I-50000J0D01*
G01*
X110500000Y-102245000D01*
G75*
G02*
X110450000Y-102195000I0J50000D01*
G01*
G37*
G36*
G01*
X110450000Y-103465000D02*
X110450000Y-102565000D01*
G75*
G02*
X110500000Y-102515000I50000J0D01*
G01*
X112500000Y-102515000D01*
G75*
G02*
X112550000Y-102565000I0J-50000D01*
G01*
X112550000Y-103465000D01*
G75*
G02*
X112500000Y-103515000I-50000J0D01*
G01*
X110500000Y-103515000D01*
G75*
G02*
X110450000Y-103465000I0J50000D01*
G01*
G37*
G36*
G01*
X110450000Y-104735000D02*
X110450000Y-103835000D01*
G75*
G02*
X110500000Y-103785000I50000J0D01*
G01*
X112500000Y-103785000D01*
G75*
G02*
X112550000Y-103835000I0J-50000D01*
G01*
X112550000Y-104735000D01*
G75*
G02*
X112500000Y-104785000I-50000J0D01*
G01*
X110500000Y-104785000D01*
G75*
G02*
X110450000Y-104735000I0J50000D01*
G01*
G37*
G36*
G01*
X110450000Y-106005000D02*
X110450000Y-105105000D01*
G75*
G02*
X110500000Y-105055000I50000J0D01*
G01*
X112500000Y-105055000D01*
G75*
G02*
X112550000Y-105105000I0J-50000D01*
G01*
X112550000Y-106005000D01*
G75*
G02*
X112500000Y-106055000I-50000J0D01*
G01*
X110500000Y-106055000D01*
G75*
G02*
X110450000Y-106005000I0J50000D01*
G01*
G37*
G36*
G01*
X110450000Y-107275000D02*
X110450000Y-106375000D01*
G75*
G02*
X110500000Y-106325000I50000J0D01*
G01*
X112500000Y-106325000D01*
G75*
G02*
X112550000Y-106375000I0J-50000D01*
G01*
X112550000Y-107275000D01*
G75*
G02*
X112500000Y-107325000I-50000J0D01*
G01*
X110500000Y-107325000D01*
G75*
G02*
X110450000Y-107275000I0J50000D01*
G01*
G37*
G36*
G01*
X110450000Y-108545000D02*
X110450000Y-107645000D01*
G75*
G02*
X110500000Y-107595000I50000J0D01*
G01*
X112500000Y-107595000D01*
G75*
G02*
X112550000Y-107645000I0J-50000D01*
G01*
X112550000Y-108545000D01*
G75*
G02*
X112500000Y-108595000I-50000J0D01*
G01*
X110500000Y-108595000D01*
G75*
G02*
X110450000Y-108545000I0J50000D01*
G01*
G37*
G36*
G01*
X110450000Y-109815000D02*
X110450000Y-108915000D01*
G75*
G02*
X110500000Y-108865000I50000J0D01*
G01*
X112500000Y-108865000D01*
G75*
G02*
X112550000Y-108915000I0J-50000D01*
G01*
X112550000Y-109815000D01*
G75*
G02*
X112500000Y-109865000I-50000J0D01*
G01*
X110500000Y-109865000D01*
G75*
G02*
X110450000Y-109815000I0J50000D01*
G01*
G37*
G36*
G01*
X110450000Y-111085000D02*
X110450000Y-110185000D01*
G75*
G02*
X110500000Y-110135000I50000J0D01*
G01*
X112500000Y-110135000D01*
G75*
G02*
X112550000Y-110185000I0J-50000D01*
G01*
X112550000Y-111085000D01*
G75*
G02*
X112500000Y-111135000I-50000J0D01*
G01*
X110500000Y-111135000D01*
G75*
G02*
X110450000Y-111085000I0J50000D01*
G01*
G37*
G36*
G01*
X110450000Y-112355000D02*
X110450000Y-111455000D01*
G75*
G02*
X110500000Y-111405000I50000J0D01*
G01*
X112500000Y-111405000D01*
G75*
G02*
X112550000Y-111455000I0J-50000D01*
G01*
X112550000Y-112355000D01*
G75*
G02*
X112500000Y-112405000I-50000J0D01*
G01*
X110500000Y-112405000D01*
G75*
G02*
X110450000Y-112355000I0J50000D01*
G01*
G37*
G36*
G01*
X110450000Y-113625000D02*
X110450000Y-112725000D01*
G75*
G02*
X110500000Y-112675000I50000J0D01*
G01*
X112500000Y-112675000D01*
G75*
G02*
X112550000Y-112725000I0J-50000D01*
G01*
X112550000Y-113625000D01*
G75*
G02*
X112500000Y-113675000I-50000J0D01*
G01*
X110500000Y-113675000D01*
G75*
G02*
X110450000Y-113625000I0J50000D01*
G01*
G37*
G36*
G01*
X110450000Y-114895000D02*
X110450000Y-113995000D01*
G75*
G02*
X110500000Y-113945000I50000J0D01*
G01*
X112500000Y-113945000D01*
G75*
G02*
X112550000Y-113995000I0J-50000D01*
G01*
X112550000Y-114895000D01*
G75*
G02*
X112500000Y-114945000I-50000J0D01*
G01*
X110500000Y-114945000D01*
G75*
G02*
X110450000Y-114895000I0J50000D01*
G01*
G37*
G36*
G01*
X110450000Y-116165000D02*
X110450000Y-115265000D01*
G75*
G02*
X110500000Y-115215000I50000J0D01*
G01*
X112500000Y-115215000D01*
G75*
G02*
X112550000Y-115265000I0J-50000D01*
G01*
X112550000Y-116165000D01*
G75*
G02*
X112500000Y-116215000I-50000J0D01*
G01*
X110500000Y-116215000D01*
G75*
G02*
X110450000Y-116165000I0J50000D01*
G01*
G37*
G36*
G01*
X110450000Y-117435000D02*
X110450000Y-116535000D01*
G75*
G02*
X110500000Y-116485000I50000J0D01*
G01*
X112500000Y-116485000D01*
G75*
G02*
X112550000Y-116535000I0J-50000D01*
G01*
X112550000Y-117435000D01*
G75*
G02*
X112500000Y-117485000I-50000J0D01*
G01*
X110500000Y-117485000D01*
G75*
G02*
X110450000Y-117435000I0J50000D01*
G01*
G37*
G36*
G01*
X110450000Y-118705000D02*
X110450000Y-117805000D01*
G75*
G02*
X110500000Y-117755000I50000J0D01*
G01*
X112500000Y-117755000D01*
G75*
G02*
X112550000Y-117805000I0J-50000D01*
G01*
X112550000Y-118705000D01*
G75*
G02*
X112500000Y-118755000I-50000J0D01*
G01*
X110500000Y-118755000D01*
G75*
G02*
X110450000Y-118705000I0J50000D01*
G01*
G37*
G36*
G01*
X114735000Y-120305000D02*
X113835000Y-120305000D01*
G75*
G02*
X113785000Y-120255000I0J50000D01*
G01*
X113785000Y-118255000D01*
G75*
G02*
X113835000Y-118205000I50000J0D01*
G01*
X114735000Y-118205000D01*
G75*
G02*
X114785000Y-118255000I0J-50000D01*
G01*
X114785000Y-120255000D01*
G75*
G02*
X114735000Y-120305000I-50000J0D01*
G01*
G37*
G36*
G01*
X116005000Y-120305000D02*
X115105000Y-120305000D01*
G75*
G02*
X115055000Y-120255000I0J50000D01*
G01*
X115055000Y-118255000D01*
G75*
G02*
X115105000Y-118205000I50000J0D01*
G01*
X116005000Y-118205000D01*
G75*
G02*
X116055000Y-118255000I0J-50000D01*
G01*
X116055000Y-120255000D01*
G75*
G02*
X116005000Y-120305000I-50000J0D01*
G01*
G37*
G36*
G01*
X117275000Y-120305000D02*
X116375000Y-120305000D01*
G75*
G02*
X116325000Y-120255000I0J50000D01*
G01*
X116325000Y-118255000D01*
G75*
G02*
X116375000Y-118205000I50000J0D01*
G01*
X117275000Y-118205000D01*
G75*
G02*
X117325000Y-118255000I0J-50000D01*
G01*
X117325000Y-120255000D01*
G75*
G02*
X117275000Y-120305000I-50000J0D01*
G01*
G37*
G36*
G01*
X118545000Y-120305000D02*
X117645000Y-120305000D01*
G75*
G02*
X117595000Y-120255000I0J50000D01*
G01*
X117595000Y-118255000D01*
G75*
G02*
X117645000Y-118205000I50000J0D01*
G01*
X118545000Y-118205000D01*
G75*
G02*
X118595000Y-118255000I0J-50000D01*
G01*
X118595000Y-120255000D01*
G75*
G02*
X118545000Y-120305000I-50000J0D01*
G01*
G37*
G36*
G01*
X119815000Y-120305000D02*
X118915000Y-120305000D01*
G75*
G02*
X118865000Y-120255000I0J50000D01*
G01*
X118865000Y-118255000D01*
G75*
G02*
X118915000Y-118205000I50000J0D01*
G01*
X119815000Y-118205000D01*
G75*
G02*
X119865000Y-118255000I0J-50000D01*
G01*
X119865000Y-120255000D01*
G75*
G02*
X119815000Y-120305000I-50000J0D01*
G01*
G37*
G36*
G01*
X121085000Y-120305000D02*
X120185000Y-120305000D01*
G75*
G02*
X120135000Y-120255000I0J50000D01*
G01*
X120135000Y-118255000D01*
G75*
G02*
X120185000Y-118205000I50000J0D01*
G01*
X121085000Y-118205000D01*
G75*
G02*
X121135000Y-118255000I0J-50000D01*
G01*
X121135000Y-120255000D01*
G75*
G02*
X121085000Y-120305000I-50000J0D01*
G01*
G37*
G36*
G01*
X122355000Y-120305000D02*
X121455000Y-120305000D01*
G75*
G02*
X121405000Y-120255000I0J50000D01*
G01*
X121405000Y-118255000D01*
G75*
G02*
X121455000Y-118205000I50000J0D01*
G01*
X122355000Y-118205000D01*
G75*
G02*
X122405000Y-118255000I0J-50000D01*
G01*
X122405000Y-120255000D01*
G75*
G02*
X122355000Y-120305000I-50000J0D01*
G01*
G37*
G36*
G01*
X123625000Y-120305000D02*
X122725000Y-120305000D01*
G75*
G02*
X122675000Y-120255000I0J50000D01*
G01*
X122675000Y-118255000D01*
G75*
G02*
X122725000Y-118205000I50000J0D01*
G01*
X123625000Y-118205000D01*
G75*
G02*
X123675000Y-118255000I0J-50000D01*
G01*
X123675000Y-120255000D01*
G75*
G02*
X123625000Y-120305000I-50000J0D01*
G01*
G37*
G36*
G01*
X124895000Y-120305000D02*
X123995000Y-120305000D01*
G75*
G02*
X123945000Y-120255000I0J50000D01*
G01*
X123945000Y-118255000D01*
G75*
G02*
X123995000Y-118205000I50000J0D01*
G01*
X124895000Y-118205000D01*
G75*
G02*
X124945000Y-118255000I0J-50000D01*
G01*
X124945000Y-120255000D01*
G75*
G02*
X124895000Y-120305000I-50000J0D01*
G01*
G37*
G36*
G01*
X126165000Y-120305000D02*
X125265000Y-120305000D01*
G75*
G02*
X125215000Y-120255000I0J50000D01*
G01*
X125215000Y-118255000D01*
G75*
G02*
X125265000Y-118205000I50000J0D01*
G01*
X126165000Y-118205000D01*
G75*
G02*
X126215000Y-118255000I0J-50000D01*
G01*
X126215000Y-120255000D01*
G75*
G02*
X126165000Y-120305000I-50000J0D01*
G01*
G37*
G36*
G01*
X127450000Y-118705000D02*
X127450000Y-117805000D01*
G75*
G02*
X127500000Y-117755000I50000J0D01*
G01*
X129500000Y-117755000D01*
G75*
G02*
X129550000Y-117805000I0J-50000D01*
G01*
X129550000Y-118705000D01*
G75*
G02*
X129500000Y-118755000I-50000J0D01*
G01*
X127500000Y-118755000D01*
G75*
G02*
X127450000Y-118705000I0J50000D01*
G01*
G37*
G36*
G01*
X127450000Y-117435000D02*
X127450000Y-116535000D01*
G75*
G02*
X127500000Y-116485000I50000J0D01*
G01*
X129500000Y-116485000D01*
G75*
G02*
X129550000Y-116535000I0J-50000D01*
G01*
X129550000Y-117435000D01*
G75*
G02*
X129500000Y-117485000I-50000J0D01*
G01*
X127500000Y-117485000D01*
G75*
G02*
X127450000Y-117435000I0J50000D01*
G01*
G37*
G36*
G01*
X127450000Y-116165000D02*
X127450000Y-115265000D01*
G75*
G02*
X127500000Y-115215000I50000J0D01*
G01*
X129500000Y-115215000D01*
G75*
G02*
X129550000Y-115265000I0J-50000D01*
G01*
X129550000Y-116165000D01*
G75*
G02*
X129500000Y-116215000I-50000J0D01*
G01*
X127500000Y-116215000D01*
G75*
G02*
X127450000Y-116165000I0J50000D01*
G01*
G37*
G36*
G01*
X127450000Y-114895000D02*
X127450000Y-113995000D01*
G75*
G02*
X127500000Y-113945000I50000J0D01*
G01*
X129500000Y-113945000D01*
G75*
G02*
X129550000Y-113995000I0J-50000D01*
G01*
X129550000Y-114895000D01*
G75*
G02*
X129500000Y-114945000I-50000J0D01*
G01*
X127500000Y-114945000D01*
G75*
G02*
X127450000Y-114895000I0J50000D01*
G01*
G37*
G36*
G01*
X127450000Y-113625000D02*
X127450000Y-112725000D01*
G75*
G02*
X127500000Y-112675000I50000J0D01*
G01*
X129500000Y-112675000D01*
G75*
G02*
X129550000Y-112725000I0J-50000D01*
G01*
X129550000Y-113625000D01*
G75*
G02*
X129500000Y-113675000I-50000J0D01*
G01*
X127500000Y-113675000D01*
G75*
G02*
X127450000Y-113625000I0J50000D01*
G01*
G37*
G36*
G01*
X127450000Y-112355000D02*
X127450000Y-111455000D01*
G75*
G02*
X127500000Y-111405000I50000J0D01*
G01*
X129500000Y-111405000D01*
G75*
G02*
X129550000Y-111455000I0J-50000D01*
G01*
X129550000Y-112355000D01*
G75*
G02*
X129500000Y-112405000I-50000J0D01*
G01*
X127500000Y-112405000D01*
G75*
G02*
X127450000Y-112355000I0J50000D01*
G01*
G37*
G36*
G01*
X127450000Y-111085000D02*
X127450000Y-110185000D01*
G75*
G02*
X127500000Y-110135000I50000J0D01*
G01*
X129500000Y-110135000D01*
G75*
G02*
X129550000Y-110185000I0J-50000D01*
G01*
X129550000Y-111085000D01*
G75*
G02*
X129500000Y-111135000I-50000J0D01*
G01*
X127500000Y-111135000D01*
G75*
G02*
X127450000Y-111085000I0J50000D01*
G01*
G37*
G36*
G01*
X127450000Y-109815000D02*
X127450000Y-108915000D01*
G75*
G02*
X127500000Y-108865000I50000J0D01*
G01*
X129500000Y-108865000D01*
G75*
G02*
X129550000Y-108915000I0J-50000D01*
G01*
X129550000Y-109815000D01*
G75*
G02*
X129500000Y-109865000I-50000J0D01*
G01*
X127500000Y-109865000D01*
G75*
G02*
X127450000Y-109815000I0J50000D01*
G01*
G37*
G36*
G01*
X127450000Y-108545000D02*
X127450000Y-107645000D01*
G75*
G02*
X127500000Y-107595000I50000J0D01*
G01*
X129500000Y-107595000D01*
G75*
G02*
X129550000Y-107645000I0J-50000D01*
G01*
X129550000Y-108545000D01*
G75*
G02*
X129500000Y-108595000I-50000J0D01*
G01*
X127500000Y-108595000D01*
G75*
G02*
X127450000Y-108545000I0J50000D01*
G01*
G37*
G36*
G01*
X127450000Y-107275000D02*
X127450000Y-106375000D01*
G75*
G02*
X127500000Y-106325000I50000J0D01*
G01*
X129500000Y-106325000D01*
G75*
G02*
X129550000Y-106375000I0J-50000D01*
G01*
X129550000Y-107275000D01*
G75*
G02*
X129500000Y-107325000I-50000J0D01*
G01*
X127500000Y-107325000D01*
G75*
G02*
X127450000Y-107275000I0J50000D01*
G01*
G37*
G36*
G01*
X127450000Y-106005000D02*
X127450000Y-105105000D01*
G75*
G02*
X127500000Y-105055000I50000J0D01*
G01*
X129500000Y-105055000D01*
G75*
G02*
X129550000Y-105105000I0J-50000D01*
G01*
X129550000Y-106005000D01*
G75*
G02*
X129500000Y-106055000I-50000J0D01*
G01*
X127500000Y-106055000D01*
G75*
G02*
X127450000Y-106005000I0J50000D01*
G01*
G37*
G36*
G01*
X127450000Y-104735000D02*
X127450000Y-103835000D01*
G75*
G02*
X127500000Y-103785000I50000J0D01*
G01*
X129500000Y-103785000D01*
G75*
G02*
X129550000Y-103835000I0J-50000D01*
G01*
X129550000Y-104735000D01*
G75*
G02*
X129500000Y-104785000I-50000J0D01*
G01*
X127500000Y-104785000D01*
G75*
G02*
X127450000Y-104735000I0J50000D01*
G01*
G37*
G36*
G01*
X127450000Y-103465000D02*
X127450000Y-102565000D01*
G75*
G02*
X127500000Y-102515000I50000J0D01*
G01*
X129500000Y-102515000D01*
G75*
G02*
X129550000Y-102565000I0J-50000D01*
G01*
X129550000Y-103465000D01*
G75*
G02*
X129500000Y-103515000I-50000J0D01*
G01*
X127500000Y-103515000D01*
G75*
G02*
X127450000Y-103465000I0J50000D01*
G01*
G37*
G36*
G01*
X127450000Y-102195000D02*
X127450000Y-101295000D01*
G75*
G02*
X127500000Y-101245000I50000J0D01*
G01*
X129500000Y-101245000D01*
G75*
G02*
X129550000Y-101295000I0J-50000D01*
G01*
X129550000Y-102195000D01*
G75*
G02*
X129500000Y-102245000I-50000J0D01*
G01*
X127500000Y-102245000D01*
G75*
G02*
X127450000Y-102195000I0J50000D01*
G01*
G37*
%TD*%
%TO.C,U3*%
G36*
G01*
X153875000Y-122375000D02*
X153875000Y-122525000D01*
G75*
G02*
X153800000Y-122600000I-75000J0D01*
G01*
X153050000Y-122600000D01*
G75*
G02*
X152975000Y-122525000I0J75000D01*
G01*
X152975000Y-122375000D01*
G75*
G02*
X153050000Y-122300000I75000J0D01*
G01*
X153800000Y-122300000D01*
G75*
G02*
X153875000Y-122375000I0J-75000D01*
G01*
G37*
G36*
G01*
X153875000Y-121925000D02*
X153875000Y-122075000D01*
G75*
G02*
X153800000Y-122150000I-75000J0D01*
G01*
X153050000Y-122150000D01*
G75*
G02*
X152975000Y-122075000I0J75000D01*
G01*
X152975000Y-121925000D01*
G75*
G02*
X153050000Y-121850000I75000J0D01*
G01*
X153800000Y-121850000D01*
G75*
G02*
X153875000Y-121925000I0J-75000D01*
G01*
G37*
G36*
G01*
X153875000Y-121475000D02*
X153875000Y-121625000D01*
G75*
G02*
X153800000Y-121700000I-75000J0D01*
G01*
X153050000Y-121700000D01*
G75*
G02*
X152975000Y-121625000I0J75000D01*
G01*
X152975000Y-121475000D01*
G75*
G02*
X153050000Y-121400000I75000J0D01*
G01*
X153800000Y-121400000D01*
G75*
G02*
X153875000Y-121475000I0J-75000D01*
G01*
G37*
G36*
G01*
X153875000Y-121025000D02*
X153875000Y-121175000D01*
G75*
G02*
X153800000Y-121250000I-75000J0D01*
G01*
X153050000Y-121250000D01*
G75*
G02*
X152975000Y-121175000I0J75000D01*
G01*
X152975000Y-121025000D01*
G75*
G02*
X153050000Y-120950000I75000J0D01*
G01*
X153800000Y-120950000D01*
G75*
G02*
X153875000Y-121025000I0J-75000D01*
G01*
G37*
G36*
G01*
X153875000Y-120575000D02*
X153875000Y-120725000D01*
G75*
G02*
X153800000Y-120800000I-75000J0D01*
G01*
X153050000Y-120800000D01*
G75*
G02*
X152975000Y-120725000I0J75000D01*
G01*
X152975000Y-120575000D01*
G75*
G02*
X153050000Y-120500000I75000J0D01*
G01*
X153800000Y-120500000D01*
G75*
G02*
X153875000Y-120575000I0J-75000D01*
G01*
G37*
G36*
G01*
X153875000Y-120125000D02*
X153875000Y-120275000D01*
G75*
G02*
X153800000Y-120350000I-75000J0D01*
G01*
X153050000Y-120350000D01*
G75*
G02*
X152975000Y-120275000I0J75000D01*
G01*
X152975000Y-120125000D01*
G75*
G02*
X153050000Y-120050000I75000J0D01*
G01*
X153800000Y-120050000D01*
G75*
G02*
X153875000Y-120125000I0J-75000D01*
G01*
G37*
G36*
G01*
X150975000Y-120125000D02*
X150975000Y-120275000D01*
G75*
G02*
X150900000Y-120350000I-75000J0D01*
G01*
X150150000Y-120350000D01*
G75*
G02*
X150075000Y-120275000I0J75000D01*
G01*
X150075000Y-120125000D01*
G75*
G02*
X150150000Y-120050000I75000J0D01*
G01*
X150900000Y-120050000D01*
G75*
G02*
X150975000Y-120125000I0J-75000D01*
G01*
G37*
G36*
G01*
X150975000Y-120575000D02*
X150975000Y-120725000D01*
G75*
G02*
X150900000Y-120800000I-75000J0D01*
G01*
X150150000Y-120800000D01*
G75*
G02*
X150075000Y-120725000I0J75000D01*
G01*
X150075000Y-120575000D01*
G75*
G02*
X150150000Y-120500000I75000J0D01*
G01*
X150900000Y-120500000D01*
G75*
G02*
X150975000Y-120575000I0J-75000D01*
G01*
G37*
G36*
G01*
X150975000Y-121025000D02*
X150975000Y-121175000D01*
G75*
G02*
X150900000Y-121250000I-75000J0D01*
G01*
X150150000Y-121250000D01*
G75*
G02*
X150075000Y-121175000I0J75000D01*
G01*
X150075000Y-121025000D01*
G75*
G02*
X150150000Y-120950000I75000J0D01*
G01*
X150900000Y-120950000D01*
G75*
G02*
X150975000Y-121025000I0J-75000D01*
G01*
G37*
G36*
G01*
X150975000Y-121475000D02*
X150975000Y-121625000D01*
G75*
G02*
X150900000Y-121700000I-75000J0D01*
G01*
X150150000Y-121700000D01*
G75*
G02*
X150075000Y-121625000I0J75000D01*
G01*
X150075000Y-121475000D01*
G75*
G02*
X150150000Y-121400000I75000J0D01*
G01*
X150900000Y-121400000D01*
G75*
G02*
X150975000Y-121475000I0J-75000D01*
G01*
G37*
G36*
G01*
X150975000Y-121925000D02*
X150975000Y-122075000D01*
G75*
G02*
X150900000Y-122150000I-75000J0D01*
G01*
X150150000Y-122150000D01*
G75*
G02*
X150075000Y-122075000I0J75000D01*
G01*
X150075000Y-121925000D01*
G75*
G02*
X150150000Y-121850000I75000J0D01*
G01*
X150900000Y-121850000D01*
G75*
G02*
X150975000Y-121925000I0J-75000D01*
G01*
G37*
G36*
G01*
X150975000Y-122375000D02*
X150975000Y-122525000D01*
G75*
G02*
X150900000Y-122600000I-75000J0D01*
G01*
X150150000Y-122600000D01*
G75*
G02*
X150075000Y-122525000I0J75000D01*
G01*
X150075000Y-122375000D01*
G75*
G02*
X150150000Y-122300000I75000J0D01*
G01*
X150900000Y-122300000D01*
G75*
G02*
X150975000Y-122375000I0J-75000D01*
G01*
G37*
G36*
G01*
X152875000Y-120075000D02*
X152875000Y-122575000D01*
G75*
G02*
X152825000Y-122625000I-50000J0D01*
G01*
X151125000Y-122625000D01*
G75*
G02*
X151075000Y-122575000I0J50000D01*
G01*
X151075000Y-120075000D01*
G75*
G02*
X151125000Y-120025000I50000J0D01*
G01*
X152825000Y-120025000D01*
G75*
G02*
X152875000Y-120075000I0J-50000D01*
G01*
G37*
%TD*%
M02*
