M48
; DRILL file {KiCad 5.1.10-6.fc33} date Thu Oct 21 00:54:04 2021
; FORMAT={-:-/ absolute / inch / decimal}
; #@! TF.CreationDate,2021-10-21T00:54:04-07:00
; #@! TF.GenerationSoftware,Kicad,Pcbnew,5.1.10-6.fc33
FMAT,2
INCH
T1C0.0157
T2C0.0394
T3C0.0630
T4C0.0748
T5C0.1260
%
G90
G05
T1
X4.0965Y-4.378
X4.1014Y-4.5866
X4.2156Y-4.5295
X4.2303Y-4.5866
X4.2657Y-4.8612
X4.2805Y-4.2638
X4.2844Y-4.0551
X4.3671Y-4.9242
X4.4705Y-4.6004
X4.5394Y-4.3012
X4.9183Y-4.563
X4.9339Y-4.1359
X4.9587Y-4.2766
X4.9606Y-4.2195
X5.3406Y-4.5472
X5.3652Y-4.5059
X6.0344Y-4.872
T2
X4.4213Y-4.8425
X4.5213Y-4.8425
X4.6213Y-4.8425
X4.7213Y-4.8425
X4.8213Y-4.8425
X4.9213Y-4.8425
X5.2756Y-4.8425
X5.3756Y-4.8425
X5.4756Y-4.8425
X5.5756Y-4.8425
T3
X6.3386Y-4.5276
X6.4567Y-4.3425
X6.5748Y-4.5276
T4
X5.7047Y-4.2028
X6.2244Y-4.2028
T5
X4.1339Y-4.1339
X4.1339Y-4.9213
X6.6929Y-4.1339
X6.6929Y-4.9213
T0
M30
