G04 #@! TF.GenerationSoftware,KiCad,Pcbnew,5.1.5-1.fc31*
G04 #@! TF.CreationDate,2020-05-15T22:23:36-07:00*
G04 #@! TF.ProjectId,apa102_7seg_digit_colon,61706131-3032-45f3-9773-65675f646967,rev?*
G04 #@! TF.SameCoordinates,Original*
G04 #@! TF.FileFunction,Copper,L2,Bot*
G04 #@! TF.FilePolarity,Positive*
%FSLAX46Y46*%
G04 Gerber Fmt 4.6, Leading zero omitted, Abs format (unit mm)*
G04 Created by KiCad (PCBNEW 5.1.5-1.fc31) date 2020-05-15 22:23:36*
%MOMM*%
%LPD*%
G04 APERTURE LIST*
%ADD10R,1.700000X1.700000*%
%ADD11O,1.700000X1.700000*%
%ADD12C,5.500000*%
%ADD13C,2.500000*%
%ADD14C,1.000000*%
%ADD15C,0.254000*%
G04 APERTURE END LIST*
D10*
X150870000Y-94570000D03*
D11*
X148330000Y-94570000D03*
X150870000Y-92030000D03*
X148330000Y-92030000D03*
D12*
X149610000Y-75510000D03*
X149610000Y-100060000D03*
D11*
X150880000Y-83570000D03*
X148340000Y-83570000D03*
X150880000Y-81030000D03*
D10*
X148340000Y-81030000D03*
D13*
X146656000Y-78740000D03*
D14*
X149890001Y-79479999D02*
X151869999Y-79479999D01*
X148340000Y-81030000D02*
X149890001Y-79479999D01*
X151869999Y-79479999D02*
X151892000Y-79502000D01*
X151892000Y-79502000D02*
X153305989Y-79502000D01*
X153305989Y-79502000D02*
X153305989Y-94488000D01*
X153223989Y-94570000D02*
X150870000Y-94570000D01*
X153305989Y-94488000D02*
X153223989Y-94570000D01*
X146656000Y-78740000D02*
X145906010Y-79489990D01*
X145906010Y-92146010D02*
X148330000Y-94570000D01*
X145906010Y-79489990D02*
X145906010Y-92146010D01*
D15*
G36*
X153371000Y-73940448D02*
G01*
X153370999Y-101651553D01*
X149606000Y-105416553D01*
X145841000Y-101651555D01*
X145841000Y-99726607D01*
X146225000Y-99726607D01*
X146225000Y-100393393D01*
X146355083Y-101047368D01*
X146610252Y-101663399D01*
X146980698Y-102217812D01*
X147452188Y-102689302D01*
X148006601Y-103059748D01*
X148622632Y-103314917D01*
X149276607Y-103445000D01*
X149943393Y-103445000D01*
X150597368Y-103314917D01*
X151213399Y-103059748D01*
X151767812Y-102689302D01*
X152239302Y-102217812D01*
X152609748Y-101663399D01*
X152864917Y-101047368D01*
X152995000Y-100393393D01*
X152995000Y-99726607D01*
X152864917Y-99072632D01*
X152609748Y-98456601D01*
X152239302Y-97902188D01*
X151767812Y-97430698D01*
X151213399Y-97060252D01*
X150597368Y-96805083D01*
X149943393Y-96675000D01*
X149276607Y-96675000D01*
X148622632Y-96805083D01*
X148006601Y-97060252D01*
X147452188Y-97430698D01*
X146980698Y-97902188D01*
X146610252Y-98456601D01*
X146355083Y-99072632D01*
X146225000Y-99726607D01*
X145841000Y-99726607D01*
X145841000Y-93686132D01*
X146845000Y-94690132D01*
X146845000Y-94716260D01*
X146902068Y-95003158D01*
X147014010Y-95273411D01*
X147176525Y-95516632D01*
X147383368Y-95723475D01*
X147626589Y-95885990D01*
X147896842Y-95997932D01*
X148183740Y-96055000D01*
X148476260Y-96055000D01*
X148763158Y-95997932D01*
X149033411Y-95885990D01*
X149276632Y-95723475D01*
X149408487Y-95591620D01*
X149430498Y-95664180D01*
X149489463Y-95774494D01*
X149568815Y-95871185D01*
X149665506Y-95950537D01*
X149775820Y-96009502D01*
X149895518Y-96045812D01*
X150020000Y-96058072D01*
X150584250Y-96055000D01*
X150743000Y-95896250D01*
X150743000Y-94697000D01*
X150997000Y-94697000D01*
X150997000Y-95896250D01*
X151155750Y-96055000D01*
X151720000Y-96058072D01*
X151844482Y-96045812D01*
X151964180Y-96009502D01*
X152074494Y-95950537D01*
X152171185Y-95871185D01*
X152250537Y-95774494D01*
X152309502Y-95664180D01*
X152345812Y-95544482D01*
X152358072Y-95420000D01*
X152355000Y-94855750D01*
X152196250Y-94697000D01*
X150997000Y-94697000D01*
X150743000Y-94697000D01*
X150723000Y-94697000D01*
X150723000Y-94443000D01*
X150743000Y-94443000D01*
X150743000Y-94423000D01*
X150997000Y-94423000D01*
X150997000Y-94443000D01*
X152196250Y-94443000D01*
X152355000Y-94284250D01*
X152358072Y-93720000D01*
X152345812Y-93595518D01*
X152309502Y-93475820D01*
X152250537Y-93365506D01*
X152171185Y-93268815D01*
X152074494Y-93189463D01*
X151964180Y-93130498D01*
X151891620Y-93108487D01*
X152023475Y-92976632D01*
X152185990Y-92733411D01*
X152297932Y-92463158D01*
X152355000Y-92176260D01*
X152355000Y-91883740D01*
X152297932Y-91596842D01*
X152185990Y-91326589D01*
X152023475Y-91083368D01*
X151816632Y-90876525D01*
X151573411Y-90714010D01*
X151303158Y-90602068D01*
X151016260Y-90545000D01*
X150723740Y-90545000D01*
X150436842Y-90602068D01*
X150166589Y-90714010D01*
X149923368Y-90876525D01*
X149716525Y-91083368D01*
X149600000Y-91257760D01*
X149483475Y-91083368D01*
X149276632Y-90876525D01*
X149033411Y-90714010D01*
X148763158Y-90602068D01*
X148476260Y-90545000D01*
X148183740Y-90545000D01*
X147896842Y-90602068D01*
X147626589Y-90714010D01*
X147383368Y-90876525D01*
X147176525Y-91083368D01*
X147041010Y-91286181D01*
X147041010Y-84298853D01*
X147186525Y-84516632D01*
X147393368Y-84723475D01*
X147636589Y-84885990D01*
X147906842Y-84997932D01*
X148193740Y-85055000D01*
X148486260Y-85055000D01*
X148773158Y-84997932D01*
X149043411Y-84885990D01*
X149286632Y-84723475D01*
X149493475Y-84516632D01*
X149610000Y-84342240D01*
X149726525Y-84516632D01*
X149933368Y-84723475D01*
X150176589Y-84885990D01*
X150446842Y-84997932D01*
X150733740Y-85055000D01*
X151026260Y-85055000D01*
X151313158Y-84997932D01*
X151583411Y-84885990D01*
X151826632Y-84723475D01*
X152033475Y-84516632D01*
X152195990Y-84273411D01*
X152307932Y-84003158D01*
X152365000Y-83716260D01*
X152365000Y-83423740D01*
X152307932Y-83136842D01*
X152195990Y-82866589D01*
X152033475Y-82623368D01*
X151826632Y-82416525D01*
X151652240Y-82300000D01*
X151826632Y-82183475D01*
X152033475Y-81976632D01*
X152195990Y-81733411D01*
X152307932Y-81463158D01*
X152365000Y-81176260D01*
X152365000Y-80883740D01*
X152307932Y-80596842D01*
X152195990Y-80326589D01*
X152033475Y-80083368D01*
X151826632Y-79876525D01*
X151583411Y-79714010D01*
X151313158Y-79602068D01*
X151026260Y-79545000D01*
X150733740Y-79545000D01*
X150446842Y-79602068D01*
X150176589Y-79714010D01*
X149933368Y-79876525D01*
X149801513Y-80008380D01*
X149779502Y-79935820D01*
X149720537Y-79825506D01*
X149641185Y-79728815D01*
X149544494Y-79649463D01*
X149434180Y-79590498D01*
X149314482Y-79554188D01*
X149190000Y-79541928D01*
X148625750Y-79545000D01*
X148467002Y-79703748D01*
X148467002Y-79545000D01*
X148362868Y-79545000D01*
X148468561Y-79289834D01*
X148541000Y-78925656D01*
X148541000Y-78731104D01*
X148622632Y-78764917D01*
X149276607Y-78895000D01*
X149943393Y-78895000D01*
X150597368Y-78764917D01*
X151213399Y-78509748D01*
X151767812Y-78139302D01*
X152239302Y-77667812D01*
X152609748Y-77113399D01*
X152864917Y-76497368D01*
X152995000Y-75843393D01*
X152995000Y-75176607D01*
X152864917Y-74522632D01*
X152609748Y-73906601D01*
X152239302Y-73352188D01*
X151767812Y-72880698D01*
X151213399Y-72510252D01*
X150597368Y-72255083D01*
X149943393Y-72125000D01*
X149276607Y-72125000D01*
X148622632Y-72255083D01*
X148006601Y-72510252D01*
X147452188Y-72880698D01*
X146980698Y-73352188D01*
X146610252Y-73906601D01*
X146355083Y-74522632D01*
X146225000Y-75176607D01*
X146225000Y-75843393D01*
X146355083Y-76497368D01*
X146503219Y-76855000D01*
X146470344Y-76855000D01*
X146106166Y-76927439D01*
X145841000Y-77037274D01*
X145841000Y-73940446D01*
X149606000Y-70175447D01*
X153371000Y-73940448D01*
G37*
X153371000Y-73940448D02*
X153370999Y-101651553D01*
X149606000Y-105416553D01*
X145841000Y-101651555D01*
X145841000Y-99726607D01*
X146225000Y-99726607D01*
X146225000Y-100393393D01*
X146355083Y-101047368D01*
X146610252Y-101663399D01*
X146980698Y-102217812D01*
X147452188Y-102689302D01*
X148006601Y-103059748D01*
X148622632Y-103314917D01*
X149276607Y-103445000D01*
X149943393Y-103445000D01*
X150597368Y-103314917D01*
X151213399Y-103059748D01*
X151767812Y-102689302D01*
X152239302Y-102217812D01*
X152609748Y-101663399D01*
X152864917Y-101047368D01*
X152995000Y-100393393D01*
X152995000Y-99726607D01*
X152864917Y-99072632D01*
X152609748Y-98456601D01*
X152239302Y-97902188D01*
X151767812Y-97430698D01*
X151213399Y-97060252D01*
X150597368Y-96805083D01*
X149943393Y-96675000D01*
X149276607Y-96675000D01*
X148622632Y-96805083D01*
X148006601Y-97060252D01*
X147452188Y-97430698D01*
X146980698Y-97902188D01*
X146610252Y-98456601D01*
X146355083Y-99072632D01*
X146225000Y-99726607D01*
X145841000Y-99726607D01*
X145841000Y-93686132D01*
X146845000Y-94690132D01*
X146845000Y-94716260D01*
X146902068Y-95003158D01*
X147014010Y-95273411D01*
X147176525Y-95516632D01*
X147383368Y-95723475D01*
X147626589Y-95885990D01*
X147896842Y-95997932D01*
X148183740Y-96055000D01*
X148476260Y-96055000D01*
X148763158Y-95997932D01*
X149033411Y-95885990D01*
X149276632Y-95723475D01*
X149408487Y-95591620D01*
X149430498Y-95664180D01*
X149489463Y-95774494D01*
X149568815Y-95871185D01*
X149665506Y-95950537D01*
X149775820Y-96009502D01*
X149895518Y-96045812D01*
X150020000Y-96058072D01*
X150584250Y-96055000D01*
X150743000Y-95896250D01*
X150743000Y-94697000D01*
X150997000Y-94697000D01*
X150997000Y-95896250D01*
X151155750Y-96055000D01*
X151720000Y-96058072D01*
X151844482Y-96045812D01*
X151964180Y-96009502D01*
X152074494Y-95950537D01*
X152171185Y-95871185D01*
X152250537Y-95774494D01*
X152309502Y-95664180D01*
X152345812Y-95544482D01*
X152358072Y-95420000D01*
X152355000Y-94855750D01*
X152196250Y-94697000D01*
X150997000Y-94697000D01*
X150743000Y-94697000D01*
X150723000Y-94697000D01*
X150723000Y-94443000D01*
X150743000Y-94443000D01*
X150743000Y-94423000D01*
X150997000Y-94423000D01*
X150997000Y-94443000D01*
X152196250Y-94443000D01*
X152355000Y-94284250D01*
X152358072Y-93720000D01*
X152345812Y-93595518D01*
X152309502Y-93475820D01*
X152250537Y-93365506D01*
X152171185Y-93268815D01*
X152074494Y-93189463D01*
X151964180Y-93130498D01*
X151891620Y-93108487D01*
X152023475Y-92976632D01*
X152185990Y-92733411D01*
X152297932Y-92463158D01*
X152355000Y-92176260D01*
X152355000Y-91883740D01*
X152297932Y-91596842D01*
X152185990Y-91326589D01*
X152023475Y-91083368D01*
X151816632Y-90876525D01*
X151573411Y-90714010D01*
X151303158Y-90602068D01*
X151016260Y-90545000D01*
X150723740Y-90545000D01*
X150436842Y-90602068D01*
X150166589Y-90714010D01*
X149923368Y-90876525D01*
X149716525Y-91083368D01*
X149600000Y-91257760D01*
X149483475Y-91083368D01*
X149276632Y-90876525D01*
X149033411Y-90714010D01*
X148763158Y-90602068D01*
X148476260Y-90545000D01*
X148183740Y-90545000D01*
X147896842Y-90602068D01*
X147626589Y-90714010D01*
X147383368Y-90876525D01*
X147176525Y-91083368D01*
X147041010Y-91286181D01*
X147041010Y-84298853D01*
X147186525Y-84516632D01*
X147393368Y-84723475D01*
X147636589Y-84885990D01*
X147906842Y-84997932D01*
X148193740Y-85055000D01*
X148486260Y-85055000D01*
X148773158Y-84997932D01*
X149043411Y-84885990D01*
X149286632Y-84723475D01*
X149493475Y-84516632D01*
X149610000Y-84342240D01*
X149726525Y-84516632D01*
X149933368Y-84723475D01*
X150176589Y-84885990D01*
X150446842Y-84997932D01*
X150733740Y-85055000D01*
X151026260Y-85055000D01*
X151313158Y-84997932D01*
X151583411Y-84885990D01*
X151826632Y-84723475D01*
X152033475Y-84516632D01*
X152195990Y-84273411D01*
X152307932Y-84003158D01*
X152365000Y-83716260D01*
X152365000Y-83423740D01*
X152307932Y-83136842D01*
X152195990Y-82866589D01*
X152033475Y-82623368D01*
X151826632Y-82416525D01*
X151652240Y-82300000D01*
X151826632Y-82183475D01*
X152033475Y-81976632D01*
X152195990Y-81733411D01*
X152307932Y-81463158D01*
X152365000Y-81176260D01*
X152365000Y-80883740D01*
X152307932Y-80596842D01*
X152195990Y-80326589D01*
X152033475Y-80083368D01*
X151826632Y-79876525D01*
X151583411Y-79714010D01*
X151313158Y-79602068D01*
X151026260Y-79545000D01*
X150733740Y-79545000D01*
X150446842Y-79602068D01*
X150176589Y-79714010D01*
X149933368Y-79876525D01*
X149801513Y-80008380D01*
X149779502Y-79935820D01*
X149720537Y-79825506D01*
X149641185Y-79728815D01*
X149544494Y-79649463D01*
X149434180Y-79590498D01*
X149314482Y-79554188D01*
X149190000Y-79541928D01*
X148625750Y-79545000D01*
X148467002Y-79703748D01*
X148467002Y-79545000D01*
X148362868Y-79545000D01*
X148468561Y-79289834D01*
X148541000Y-78925656D01*
X148541000Y-78731104D01*
X148622632Y-78764917D01*
X149276607Y-78895000D01*
X149943393Y-78895000D01*
X150597368Y-78764917D01*
X151213399Y-78509748D01*
X151767812Y-78139302D01*
X152239302Y-77667812D01*
X152609748Y-77113399D01*
X152864917Y-76497368D01*
X152995000Y-75843393D01*
X152995000Y-75176607D01*
X152864917Y-74522632D01*
X152609748Y-73906601D01*
X152239302Y-73352188D01*
X151767812Y-72880698D01*
X151213399Y-72510252D01*
X150597368Y-72255083D01*
X149943393Y-72125000D01*
X149276607Y-72125000D01*
X148622632Y-72255083D01*
X148006601Y-72510252D01*
X147452188Y-72880698D01*
X146980698Y-73352188D01*
X146610252Y-73906601D01*
X146355083Y-74522632D01*
X146225000Y-75176607D01*
X146225000Y-75843393D01*
X146355083Y-76497368D01*
X146503219Y-76855000D01*
X146470344Y-76855000D01*
X146106166Y-76927439D01*
X145841000Y-77037274D01*
X145841000Y-73940446D01*
X149606000Y-70175447D01*
X153371000Y-73940448D01*
G36*
X148467000Y-80903000D02*
G01*
X148487000Y-80903000D01*
X148487000Y-81157000D01*
X148467000Y-81157000D01*
X148467000Y-81177000D01*
X148213000Y-81177000D01*
X148213000Y-81157000D01*
X148193000Y-81157000D01*
X148193000Y-80903000D01*
X148213000Y-80903000D01*
X148213000Y-80883000D01*
X148467000Y-80883000D01*
X148467000Y-80903000D01*
G37*
X148467000Y-80903000D02*
X148487000Y-80903000D01*
X148487000Y-81157000D01*
X148467000Y-81157000D01*
X148467000Y-81177000D01*
X148213000Y-81177000D01*
X148213000Y-81157000D01*
X148193000Y-81157000D01*
X148193000Y-80903000D01*
X148213000Y-80903000D01*
X148213000Y-80883000D01*
X148467000Y-80883000D01*
X148467000Y-80903000D01*
M02*
