G04 #@! TF.GenerationSoftware,KiCad,Pcbnew,5.1.5-1.fc31*
G04 #@! TF.CreationDate,2020-05-15T22:23:36-07:00*
G04 #@! TF.ProjectId,apa102_7seg_digit_colon,61706131-3032-45f3-9773-65675f646967,rev?*
G04 #@! TF.SameCoordinates,Original*
G04 #@! TF.FileFunction,Legend,Top*
G04 #@! TF.FilePolarity,Positive*
%FSLAX46Y46*%
G04 Gerber Fmt 4.6, Leading zero omitted, Abs format (unit mm)*
G04 Created by KiCad (PCBNEW 5.1.5-1.fc31) date 2020-05-15 22:23:36*
%MOMM*%
%LPD*%
G04 APERTURE LIST*
%ADD10C,0.100000*%
%ADD11C,0.120000*%
%ADD12C,0.150000*%
G04 APERTURE END LIST*
D10*
X152330952Y-96700000D02*
X152283333Y-96676190D01*
X152211904Y-96676190D01*
X152140476Y-96700000D01*
X152092857Y-96747619D01*
X152069047Y-96795238D01*
X152045238Y-96890476D01*
X152045238Y-96961904D01*
X152069047Y-97057142D01*
X152092857Y-97104761D01*
X152140476Y-97152380D01*
X152211904Y-97176190D01*
X152259523Y-97176190D01*
X152330952Y-97152380D01*
X152354761Y-97128571D01*
X152354761Y-96961904D01*
X152259523Y-96961904D01*
X152119047Y-89966190D02*
X152119047Y-89466190D01*
X152238095Y-89466190D01*
X152309523Y-89490000D01*
X152357142Y-89537619D01*
X152380952Y-89585238D01*
X152404761Y-89680476D01*
X152404761Y-89751904D01*
X152380952Y-89847142D01*
X152357142Y-89894761D01*
X152309523Y-89942380D01*
X152238095Y-89966190D01*
X152119047Y-89966190D01*
X145763333Y-94286190D02*
X145930000Y-94786190D01*
X146096666Y-94286190D01*
X146034761Y-92278571D02*
X146010952Y-92302380D01*
X145939523Y-92326190D01*
X145891904Y-92326190D01*
X145820476Y-92302380D01*
X145772857Y-92254761D01*
X145749047Y-92207142D01*
X145725238Y-92111904D01*
X145725238Y-92040476D01*
X145749047Y-91945238D01*
X145772857Y-91897619D01*
X145820476Y-91850000D01*
X145891904Y-91826190D01*
X145939523Y-91826190D01*
X146010952Y-91850000D01*
X146034761Y-91873809D01*
X147170952Y-78540000D02*
X147123333Y-78516190D01*
X147051904Y-78516190D01*
X146980476Y-78540000D01*
X146932857Y-78587619D01*
X146909047Y-78635238D01*
X146885238Y-78730476D01*
X146885238Y-78801904D01*
X146909047Y-78897142D01*
X146932857Y-78944761D01*
X146980476Y-78992380D01*
X147051904Y-79016190D01*
X147099523Y-79016190D01*
X147170952Y-78992380D01*
X147194761Y-78968571D01*
X147194761Y-78801904D01*
X147099523Y-78801904D01*
X147184761Y-86048571D02*
X147160952Y-86072380D01*
X147089523Y-86096190D01*
X147041904Y-86096190D01*
X146970476Y-86072380D01*
X146922857Y-86024761D01*
X146899047Y-85977142D01*
X146875238Y-85881904D01*
X146875238Y-85810476D01*
X146899047Y-85715238D01*
X146922857Y-85667619D01*
X146970476Y-85620000D01*
X147041904Y-85596190D01*
X147089523Y-85596190D01*
X147160952Y-85620000D01*
X147184761Y-85643809D01*
X153183333Y-80796190D02*
X153350000Y-81296190D01*
X153516666Y-80796190D01*
X153219047Y-83836190D02*
X153219047Y-83336190D01*
X153338095Y-83336190D01*
X153409523Y-83360000D01*
X153457142Y-83407619D01*
X153480952Y-83455238D01*
X153504761Y-83550476D01*
X153504761Y-83621904D01*
X153480952Y-83717142D01*
X153457142Y-83764761D01*
X153409523Y-83812380D01*
X153338095Y-83836190D01*
X153219047Y-83836190D01*
D11*
X152200000Y-90700000D02*
X147000000Y-90700000D01*
X152200000Y-93300000D02*
X152200000Y-90700000D01*
X147000000Y-95900000D02*
X147000000Y-90700000D01*
X152200000Y-93300000D02*
X149600000Y-93300000D01*
X149600000Y-93300000D02*
X149600000Y-95900000D01*
X149600000Y-95900000D02*
X147000000Y-95900000D01*
X152200000Y-94570000D02*
X152200000Y-95900000D01*
X152200000Y-95900000D02*
X150870000Y-95900000D01*
X151040000Y-89050000D02*
X151040000Y-88350000D01*
X147010000Y-79700000D02*
X148340000Y-79700000D01*
X147010000Y-81030000D02*
X147010000Y-79700000D01*
X149610000Y-79700000D02*
X152210000Y-79700000D01*
X149610000Y-82300000D02*
X149610000Y-79700000D01*
X147010000Y-82300000D02*
X149610000Y-82300000D01*
X152210000Y-79700000D02*
X152210000Y-84900000D01*
X147010000Y-82300000D02*
X147010000Y-84900000D01*
X147010000Y-84900000D02*
X152210000Y-84900000D01*
D12*
X152822380Y-97614285D02*
X153536666Y-97614285D01*
X153679523Y-97661904D01*
X153774761Y-97757142D01*
X153822380Y-97900000D01*
X153822380Y-97995238D01*
X152917619Y-97185714D02*
X152870000Y-97138095D01*
X152822380Y-97042857D01*
X152822380Y-96804761D01*
X152870000Y-96709523D01*
X152917619Y-96661904D01*
X153012857Y-96614285D01*
X153108095Y-96614285D01*
X153250952Y-96661904D01*
X153822380Y-97233333D01*
X153822380Y-96614285D01*
X153441428Y-96185714D02*
X153441428Y-95423809D01*
X153774761Y-94995238D02*
X153822380Y-94852380D01*
X153822380Y-94614285D01*
X153774761Y-94519047D01*
X153727142Y-94471428D01*
X153631904Y-94423809D01*
X153536666Y-94423809D01*
X153441428Y-94471428D01*
X153393809Y-94519047D01*
X153346190Y-94614285D01*
X153298571Y-94804761D01*
X153250952Y-94900000D01*
X153203333Y-94947619D01*
X153108095Y-94995238D01*
X153012857Y-94995238D01*
X152917619Y-94947619D01*
X152870000Y-94900000D01*
X152822380Y-94804761D01*
X152822380Y-94566666D01*
X152870000Y-94423809D01*
X153822380Y-93995238D02*
X152822380Y-93995238D01*
X152822380Y-93614285D01*
X152870000Y-93519047D01*
X152917619Y-93471428D01*
X153012857Y-93423809D01*
X153155714Y-93423809D01*
X153250952Y-93471428D01*
X153298571Y-93519047D01*
X153346190Y-93614285D01*
X153346190Y-93995238D01*
X153822380Y-92995238D02*
X152822380Y-92995238D01*
X153441428Y-92519047D02*
X153441428Y-91757142D01*
X152822380Y-91090476D02*
X152822380Y-90900000D01*
X152870000Y-90804761D01*
X152965238Y-90709523D01*
X153155714Y-90661904D01*
X153489047Y-90661904D01*
X153679523Y-90709523D01*
X153774761Y-90804761D01*
X153822380Y-90900000D01*
X153822380Y-91090476D01*
X153774761Y-91185714D01*
X153679523Y-91280952D01*
X153489047Y-91328571D01*
X153155714Y-91328571D01*
X152965238Y-91280952D01*
X152870000Y-91185714D01*
X152822380Y-91090476D01*
X152822380Y-90233333D02*
X153631904Y-90233333D01*
X153727142Y-90185714D01*
X153774761Y-90138095D01*
X153822380Y-90042857D01*
X153822380Y-89852380D01*
X153774761Y-89757142D01*
X153727142Y-89709523D01*
X153631904Y-89661904D01*
X152822380Y-89661904D01*
X152822380Y-89328571D02*
X152822380Y-88757142D01*
X153822380Y-89042857D02*
X152822380Y-89042857D01*
X152572380Y-87678095D02*
X151572380Y-87678095D01*
X151572380Y-87440000D01*
X151620000Y-87297142D01*
X151715238Y-87201904D01*
X151810476Y-87154285D01*
X152000952Y-87106666D01*
X152143809Y-87106666D01*
X152334285Y-87154285D01*
X152429523Y-87201904D01*
X152524761Y-87297142D01*
X152572380Y-87440000D01*
X152572380Y-87678095D01*
X152572380Y-86154285D02*
X152572380Y-86725714D01*
X152572380Y-86440000D02*
X151572380Y-86440000D01*
X151715238Y-86535238D01*
X151810476Y-86630476D01*
X151858095Y-86725714D01*
D10*
X149011428Y-89378571D02*
X149011428Y-89721428D01*
X149011428Y-89550000D02*
X148411428Y-89550000D01*
X148497142Y-89607142D01*
X148554285Y-89664285D01*
X148582857Y-89721428D01*
D12*
X145382380Y-85557619D02*
X146096666Y-85557619D01*
X146239523Y-85605238D01*
X146334761Y-85700476D01*
X146382380Y-85843333D01*
X146382380Y-85938571D01*
X146382380Y-84557619D02*
X146382380Y-85129047D01*
X146382380Y-84843333D02*
X145382380Y-84843333D01*
X145525238Y-84938571D01*
X145620476Y-85033809D01*
X145668095Y-85129047D01*
X146001428Y-84129047D02*
X146001428Y-83367142D01*
X146334761Y-82938571D02*
X146382380Y-82795714D01*
X146382380Y-82557619D01*
X146334761Y-82462380D01*
X146287142Y-82414761D01*
X146191904Y-82367142D01*
X146096666Y-82367142D01*
X146001428Y-82414761D01*
X145953809Y-82462380D01*
X145906190Y-82557619D01*
X145858571Y-82748095D01*
X145810952Y-82843333D01*
X145763333Y-82890952D01*
X145668095Y-82938571D01*
X145572857Y-82938571D01*
X145477619Y-82890952D01*
X145430000Y-82843333D01*
X145382380Y-82748095D01*
X145382380Y-82510000D01*
X145430000Y-82367142D01*
X146382380Y-81938571D02*
X145382380Y-81938571D01*
X145382380Y-81557619D01*
X145430000Y-81462380D01*
X145477619Y-81414761D01*
X145572857Y-81367142D01*
X145715714Y-81367142D01*
X145810952Y-81414761D01*
X145858571Y-81462380D01*
X145906190Y-81557619D01*
X145906190Y-81938571D01*
X146382380Y-80938571D02*
X145382380Y-80938571D01*
X146001428Y-80462380D02*
X146001428Y-79700476D01*
X146382380Y-79224285D02*
X145382380Y-79224285D01*
X146382380Y-78748095D02*
X145382380Y-78748095D01*
X146382380Y-78176666D01*
X145382380Y-78176666D01*
M02*
