M48
; DRILL file {KiCad 5.1.5-1.fc31} date Tue Feb 18 03:09:06 2020
; FORMAT={-:-/ absolute / inch / decimal}
; #@! TF.CreationDate,2020-02-18T03:09:06-08:00
; #@! TF.GenerationSoftware,Kicad,Pcbnew,5.1.5-1.fc31
FMAT,2
INCH
T1C0.0200
T2C0.0394
T3C0.0500
T4C0.1260
%
G90
G05
T1
X6.25Y-3.75
X6.3Y-3.8
T2
X4.6647Y-3.6508
X4.6647Y-3.7508
X4.6647Y-3.8508
X4.6647Y-3.9508
X6.7753Y-3.6499
X6.7753Y-3.7499
X6.7753Y-3.8499
X6.7753Y-3.9499
T3
X5.05Y-2.75
X5.05Y-3.15
X5.05Y-3.55
X5.05Y-4.35
X5.05Y-4.7
X5.0532Y-3.4169
X5.1Y-5.05
X5.1808Y-2.4361
X5.2543Y-3.8957
X5.45Y-5.25
X5.55Y-3.9232
X5.6Y-2.3232
X5.8Y-5.25
X5.95Y-3.9
X6.0Y-2.3232
X6.1561Y-5.25
X6.3Y-3.6
X6.4Y-2.55
X6.4Y-2.9
X6.4Y-3.25
X6.4Y-3.5
X6.4Y-4.15
X6.4Y-4.5
X6.4Y-4.85
T4
X6.6893Y-5.5562
X6.6843Y-2.039
X4.752Y-5.5584
X4.7543Y-2.0445
T0
M30
