G04 #@! TF.GenerationSoftware,KiCad,Pcbnew,5.1.5-1.fc31*
G04 #@! TF.CreationDate,2020-02-18T03:07:30-08:00*
G04 #@! TF.ProjectId,apa102_7seg_digit,61706131-3032-45f3-9773-65675f646967,rev?*
G04 #@! TF.SameCoordinates,Original*
G04 #@! TF.FileFunction,Soldermask,Top*
G04 #@! TF.FilePolarity,Negative*
%FSLAX46Y46*%
G04 Gerber Fmt 4.6, Leading zero omitted, Abs format (unit mm)*
G04 Created by KiCad (PCBNEW 5.1.5-1.fc31) date 2020-02-18 03:07:30*
%MOMM*%
%LPD*%
G04 APERTURE LIST*
%ADD10C,5.601600*%
%ADD11R,1.581600X0.601600*%
%ADD12R,1.101600X0.601600*%
%ADD13R,0.601600X0.901600*%
%ADD14R,0.401600X0.901600*%
%ADD15R,0.901600X0.601600*%
%ADD16R,0.901600X0.401600*%
%ADD17R,0.601600X1.101600*%
%ADD18R,0.601600X1.581600*%
%ADD19O,1.801600X1.801600*%
%ADD20R,1.801600X1.801600*%
G04 APERTURE END LIST*
D10*
X169908037Y-141127852D03*
X120699951Y-141182669D03*
X120759647Y-51930503D03*
X169780779Y-51791620D03*
D11*
X166078649Y-76371005D03*
D12*
X164658649Y-76371005D03*
D13*
X164588649Y-75521005D03*
X166388649Y-75521005D03*
D14*
X165488649Y-75521005D03*
D13*
X166388649Y-77221005D03*
D14*
X165488649Y-77221005D03*
D13*
X164588649Y-77221005D03*
D11*
X124584751Y-67040545D03*
D12*
X126004751Y-67040545D03*
D13*
X126074751Y-67890545D03*
X124274751Y-67890545D03*
D14*
X125174751Y-67890545D03*
D13*
X124274751Y-66190545D03*
D14*
X125174751Y-66190545D03*
D13*
X126074751Y-66190545D03*
X126070776Y-75516255D03*
D14*
X125170776Y-75516255D03*
D13*
X124270776Y-75516255D03*
D14*
X125170776Y-77216255D03*
D13*
X124270776Y-77216255D03*
X126070776Y-77216255D03*
D12*
X126000776Y-76366255D03*
D11*
X124580776Y-76366255D03*
X124584075Y-85705620D03*
D12*
X126004075Y-85705620D03*
D13*
X126074075Y-86555620D03*
X124274075Y-86555620D03*
D14*
X125174075Y-86555620D03*
D13*
X124274075Y-84855620D03*
D14*
X125174075Y-84855620D03*
D13*
X126074075Y-84855620D03*
X126066613Y-106514227D03*
D14*
X125166613Y-106514227D03*
D13*
X124266613Y-106514227D03*
D14*
X125166613Y-108214227D03*
D13*
X124266613Y-108214227D03*
X126066613Y-108214227D03*
D12*
X125996613Y-107364227D03*
D11*
X124576613Y-107364227D03*
X124590089Y-116685579D03*
D12*
X126010089Y-116685579D03*
D13*
X126080089Y-117535579D03*
X124280089Y-117535579D03*
D14*
X125180089Y-117535579D03*
D13*
X124280089Y-115835579D03*
D14*
X125180089Y-115835579D03*
D13*
X126080089Y-115835579D03*
X126070344Y-125171020D03*
D14*
X125170344Y-125171020D03*
D13*
X124270344Y-125171020D03*
D14*
X125170344Y-126871020D03*
D13*
X124270344Y-126871020D03*
X126070344Y-126871020D03*
D12*
X126000344Y-126021020D03*
D11*
X124580344Y-126021020D03*
D15*
X136853941Y-57096988D03*
D16*
X136853941Y-56196988D03*
D15*
X136853941Y-55296988D03*
D16*
X135153941Y-56196988D03*
D15*
X135153941Y-55296988D03*
X135153941Y-57096988D03*
D17*
X136003941Y-57026988D03*
D18*
X136003941Y-55606988D03*
X135990683Y-95939327D03*
D17*
X135990683Y-97359327D03*
D15*
X135140683Y-97429327D03*
X135140683Y-95629327D03*
D16*
X135140683Y-96529327D03*
D15*
X136840683Y-95629327D03*
D16*
X136840683Y-96529327D03*
D15*
X136840683Y-97429327D03*
D18*
X135992115Y-137436518D03*
D17*
X135992115Y-136016518D03*
D15*
X136842115Y-135946518D03*
X136842115Y-137746518D03*
D16*
X136842115Y-136846518D03*
D15*
X135142115Y-137746518D03*
D16*
X135142115Y-136846518D03*
D15*
X135142115Y-135946518D03*
X146188118Y-57121980D03*
D16*
X146188118Y-56221980D03*
D15*
X146188118Y-55321980D03*
D16*
X144488118Y-56221980D03*
D15*
X144488118Y-55321980D03*
X144488118Y-57121980D03*
D17*
X145338118Y-57051980D03*
D18*
X145338118Y-55631980D03*
D15*
X146172448Y-97446117D03*
D16*
X146172448Y-96546117D03*
D15*
X146172448Y-95646117D03*
D16*
X144472448Y-96546117D03*
D15*
X144472448Y-95646117D03*
X144472448Y-97446117D03*
D17*
X145322448Y-97376117D03*
D18*
X145322448Y-95956117D03*
D15*
X144475557Y-135953695D03*
D16*
X144475557Y-136853695D03*
D15*
X144475557Y-137753695D03*
D16*
X146175557Y-136853695D03*
D15*
X146175557Y-137753695D03*
X146175557Y-135953695D03*
D17*
X145325557Y-136023695D03*
D18*
X145325557Y-137443695D03*
X154671419Y-55632017D03*
D17*
X154671419Y-57052017D03*
D15*
X153821419Y-57122017D03*
X153821419Y-55322017D03*
D16*
X153821419Y-56222017D03*
D15*
X155521419Y-55322017D03*
D16*
X155521419Y-56222017D03*
D15*
X155521419Y-57122017D03*
D18*
X154671419Y-95939327D03*
D17*
X154671419Y-97359327D03*
D15*
X153821419Y-97429327D03*
X153821419Y-95629327D03*
D16*
X153821419Y-96529327D03*
D15*
X155521419Y-95629327D03*
D16*
X155521419Y-96529327D03*
D15*
X155521419Y-97429327D03*
D18*
X154665992Y-137430966D03*
D17*
X154665992Y-136010966D03*
D15*
X155515992Y-135940966D03*
X155515992Y-137740966D03*
D16*
X155515992Y-136840966D03*
D15*
X153815992Y-137740966D03*
D16*
X153815992Y-136840966D03*
D15*
X153815992Y-135940966D03*
D13*
X164600907Y-67875247D03*
D14*
X165500907Y-67875247D03*
D13*
X166400907Y-67875247D03*
D14*
X165500907Y-66175247D03*
D13*
X166400907Y-66175247D03*
X164600907Y-66175247D03*
D12*
X164670907Y-67025247D03*
D11*
X166090907Y-67025247D03*
D13*
X164590097Y-86553959D03*
D14*
X165490097Y-86553959D03*
D13*
X166390097Y-86553959D03*
D14*
X165490097Y-84853959D03*
D13*
X166390097Y-84853959D03*
X164590097Y-84853959D03*
D12*
X164660097Y-85703959D03*
D11*
X166080097Y-85703959D03*
D13*
X164591758Y-108212779D03*
D14*
X165491758Y-108212779D03*
D13*
X166391758Y-108212779D03*
D14*
X165491758Y-106512779D03*
D13*
X166391758Y-106512779D03*
X164591758Y-106512779D03*
D12*
X164661758Y-107362779D03*
D11*
X166081758Y-107362779D03*
X166075744Y-116679565D03*
D12*
X164655744Y-116679565D03*
D13*
X164585744Y-115829565D03*
X166385744Y-115829565D03*
D14*
X165485744Y-115829565D03*
D13*
X166385744Y-117529565D03*
D14*
X165485744Y-117529565D03*
D13*
X164585744Y-117529565D03*
X164588659Y-126875423D03*
D14*
X165488659Y-126875423D03*
D13*
X166388659Y-126875423D03*
D14*
X165488659Y-125175423D03*
D13*
X166388659Y-125175423D03*
X164588659Y-125175423D03*
D12*
X164658659Y-126025423D03*
D11*
X166078659Y-126025423D03*
D19*
X118482760Y-92731490D03*
X118482760Y-95271490D03*
X118482760Y-97811490D03*
D20*
X118482760Y-100351490D03*
X172092220Y-92708431D03*
D19*
X172092220Y-95248431D03*
X172092220Y-97788431D03*
X172092220Y-100328431D03*
M02*
