G04 #@! TF.GenerationSoftware,KiCad,Pcbnew,5.1.5-1.fc31*
G04 #@! TF.CreationDate,2020-02-18T03:07:30-08:00*
G04 #@! TF.ProjectId,apa102_7seg_digit,61706131-3032-45f3-9773-65675f646967,rev?*
G04 #@! TF.SameCoordinates,Original*
G04 #@! TF.FileFunction,Copper,L1,Top*
G04 #@! TF.FilePolarity,Positive*
%FSLAX46Y46*%
G04 Gerber Fmt 4.6, Leading zero omitted, Abs format (unit mm)*
G04 Created by KiCad (PCBNEW 5.1.5-1.fc31) date 2020-02-18 03:07:30*
%MOMM*%
%LPD*%
G04 APERTURE LIST*
%ADD10C,5.500000*%
%ADD11R,1.480000X0.500000*%
%ADD12R,1.000000X0.500000*%
%ADD13R,0.500000X0.800000*%
%ADD14R,0.300000X0.800000*%
%ADD15R,0.800000X0.500000*%
%ADD16R,0.800000X0.300000*%
%ADD17R,0.500000X1.000000*%
%ADD18R,0.500000X1.480000*%
%ADD19O,1.700000X1.700000*%
%ADD20R,1.700000X1.700000*%
%ADD21C,2.500000*%
%ADD22C,1.000000*%
%ADD23C,0.750000*%
%ADD24C,0.500000*%
%ADD25C,1.000000*%
%ADD26C,2.000000*%
%ADD27C,0.254000*%
G04 APERTURE END LIST*
D10*
X169908037Y-141127852D03*
X120699951Y-141182669D03*
X120759647Y-51930503D03*
X169780779Y-51791620D03*
D11*
X166078649Y-76371005D03*
D12*
X164658649Y-76371005D03*
D13*
X164588649Y-75521005D03*
X166388649Y-75521005D03*
D14*
X165488649Y-75521005D03*
D13*
X166388649Y-77221005D03*
D14*
X165488649Y-77221005D03*
D13*
X164588649Y-77221005D03*
D11*
X124584751Y-67040545D03*
D12*
X126004751Y-67040545D03*
D13*
X126074751Y-67890545D03*
X124274751Y-67890545D03*
D14*
X125174751Y-67890545D03*
D13*
X124274751Y-66190545D03*
D14*
X125174751Y-66190545D03*
D13*
X126074751Y-66190545D03*
X126070776Y-75516255D03*
D14*
X125170776Y-75516255D03*
D13*
X124270776Y-75516255D03*
D14*
X125170776Y-77216255D03*
D13*
X124270776Y-77216255D03*
X126070776Y-77216255D03*
D12*
X126000776Y-76366255D03*
D11*
X124580776Y-76366255D03*
X124584075Y-85705620D03*
D12*
X126004075Y-85705620D03*
D13*
X126074075Y-86555620D03*
X124274075Y-86555620D03*
D14*
X125174075Y-86555620D03*
D13*
X124274075Y-84855620D03*
D14*
X125174075Y-84855620D03*
D13*
X126074075Y-84855620D03*
X126066613Y-106514227D03*
D14*
X125166613Y-106514227D03*
D13*
X124266613Y-106514227D03*
D14*
X125166613Y-108214227D03*
D13*
X124266613Y-108214227D03*
X126066613Y-108214227D03*
D12*
X125996613Y-107364227D03*
D11*
X124576613Y-107364227D03*
X124590089Y-116685579D03*
D12*
X126010089Y-116685579D03*
D13*
X126080089Y-117535579D03*
X124280089Y-117535579D03*
D14*
X125180089Y-117535579D03*
D13*
X124280089Y-115835579D03*
D14*
X125180089Y-115835579D03*
D13*
X126080089Y-115835579D03*
X126070344Y-125171020D03*
D14*
X125170344Y-125171020D03*
D13*
X124270344Y-125171020D03*
D14*
X125170344Y-126871020D03*
D13*
X124270344Y-126871020D03*
X126070344Y-126871020D03*
D12*
X126000344Y-126021020D03*
D11*
X124580344Y-126021020D03*
D15*
X136853941Y-57096988D03*
D16*
X136853941Y-56196988D03*
D15*
X136853941Y-55296988D03*
D16*
X135153941Y-56196988D03*
D15*
X135153941Y-55296988D03*
X135153941Y-57096988D03*
D17*
X136003941Y-57026988D03*
D18*
X136003941Y-55606988D03*
X135990683Y-95939327D03*
D17*
X135990683Y-97359327D03*
D15*
X135140683Y-97429327D03*
X135140683Y-95629327D03*
D16*
X135140683Y-96529327D03*
D15*
X136840683Y-95629327D03*
D16*
X136840683Y-96529327D03*
D15*
X136840683Y-97429327D03*
D18*
X135992115Y-137436518D03*
D17*
X135992115Y-136016518D03*
D15*
X136842115Y-135946518D03*
X136842115Y-137746518D03*
D16*
X136842115Y-136846518D03*
D15*
X135142115Y-137746518D03*
D16*
X135142115Y-136846518D03*
D15*
X135142115Y-135946518D03*
X146188118Y-57121980D03*
D16*
X146188118Y-56221980D03*
D15*
X146188118Y-55321980D03*
D16*
X144488118Y-56221980D03*
D15*
X144488118Y-55321980D03*
X144488118Y-57121980D03*
D17*
X145338118Y-57051980D03*
D18*
X145338118Y-55631980D03*
D15*
X146172448Y-97446117D03*
D16*
X146172448Y-96546117D03*
D15*
X146172448Y-95646117D03*
D16*
X144472448Y-96546117D03*
D15*
X144472448Y-95646117D03*
X144472448Y-97446117D03*
D17*
X145322448Y-97376117D03*
D18*
X145322448Y-95956117D03*
D15*
X144475557Y-135953695D03*
D16*
X144475557Y-136853695D03*
D15*
X144475557Y-137753695D03*
D16*
X146175557Y-136853695D03*
D15*
X146175557Y-137753695D03*
X146175557Y-135953695D03*
D17*
X145325557Y-136023695D03*
D18*
X145325557Y-137443695D03*
X154671419Y-55632017D03*
D17*
X154671419Y-57052017D03*
D15*
X153821419Y-57122017D03*
X153821419Y-55322017D03*
D16*
X153821419Y-56222017D03*
D15*
X155521419Y-55322017D03*
D16*
X155521419Y-56222017D03*
D15*
X155521419Y-57122017D03*
D18*
X154671419Y-95939327D03*
D17*
X154671419Y-97359327D03*
D15*
X153821419Y-97429327D03*
X153821419Y-95629327D03*
D16*
X153821419Y-96529327D03*
D15*
X155521419Y-95629327D03*
D16*
X155521419Y-96529327D03*
D15*
X155521419Y-97429327D03*
D18*
X154665992Y-137430966D03*
D17*
X154665992Y-136010966D03*
D15*
X155515992Y-135940966D03*
X155515992Y-137740966D03*
D16*
X155515992Y-136840966D03*
D15*
X153815992Y-137740966D03*
D16*
X153815992Y-136840966D03*
D15*
X153815992Y-135940966D03*
D13*
X164600907Y-67875247D03*
D14*
X165500907Y-67875247D03*
D13*
X166400907Y-67875247D03*
D14*
X165500907Y-66175247D03*
D13*
X166400907Y-66175247D03*
X164600907Y-66175247D03*
D12*
X164670907Y-67025247D03*
D11*
X166090907Y-67025247D03*
D13*
X164590097Y-86553959D03*
D14*
X165490097Y-86553959D03*
D13*
X166390097Y-86553959D03*
D14*
X165490097Y-84853959D03*
D13*
X166390097Y-84853959D03*
X164590097Y-84853959D03*
D12*
X164660097Y-85703959D03*
D11*
X166080097Y-85703959D03*
D13*
X164591758Y-108212779D03*
D14*
X165491758Y-108212779D03*
D13*
X166391758Y-108212779D03*
D14*
X165491758Y-106512779D03*
D13*
X166391758Y-106512779D03*
X164591758Y-106512779D03*
D12*
X164661758Y-107362779D03*
D11*
X166081758Y-107362779D03*
X166075744Y-116679565D03*
D12*
X164655744Y-116679565D03*
D13*
X164585744Y-115829565D03*
X166385744Y-115829565D03*
D14*
X165485744Y-115829565D03*
D13*
X166385744Y-117529565D03*
D14*
X165485744Y-117529565D03*
D13*
X164585744Y-117529565D03*
X164588659Y-126875423D03*
D14*
X165488659Y-126875423D03*
D13*
X166388659Y-126875423D03*
D14*
X165488659Y-125175423D03*
D13*
X166388659Y-125175423D03*
X164588659Y-125175423D03*
D12*
X164658659Y-126025423D03*
D11*
X166078659Y-126025423D03*
D19*
X118482760Y-92731490D03*
X118482760Y-95271490D03*
X118482760Y-97811490D03*
D20*
X118482760Y-100351490D03*
X172092220Y-92708431D03*
D19*
X172092220Y-95248431D03*
X172092220Y-97788431D03*
X172092220Y-100328431D03*
D21*
X128270000Y-110490000D03*
X128270000Y-119380000D03*
X129540000Y-128270000D03*
X138430000Y-133350000D03*
X147320000Y-133350000D03*
X156365992Y-133350000D03*
X162560000Y-123190000D03*
X162560000Y-114300000D03*
X162560000Y-105410000D03*
X151130000Y-99060000D03*
X140970488Y-99650000D03*
X133458859Y-98951141D03*
X162560000Y-88900000D03*
X152400000Y-59010000D03*
X142240000Y-59010000D03*
X162560000Y-64770000D03*
X162560000Y-73660000D03*
X162560000Y-82550000D03*
X128270000Y-69850000D03*
X128270000Y-80010000D03*
X128351930Y-86790000D03*
X131592082Y-61877918D03*
X160020000Y-91440000D03*
X128270000Y-90170000D03*
D22*
X158750000Y-95250000D03*
X160020000Y-96520000D03*
D23*
X129593012Y-57096988D02*
X135153941Y-57096988D01*
X118482760Y-100351490D02*
X120082760Y-100351490D01*
X120082760Y-100351490D02*
X123190000Y-97244250D01*
D24*
X123190000Y-67195296D02*
X123190000Y-67310000D01*
X123344751Y-67040545D02*
X123190000Y-67195296D01*
X124584751Y-67040545D02*
X123344751Y-67040545D01*
D23*
X123190000Y-67310000D02*
X123190000Y-63500000D01*
D24*
X123344075Y-85705620D02*
X123190000Y-85551545D01*
D23*
X123190000Y-97244250D02*
X123190000Y-85090000D01*
D24*
X123190000Y-85551545D02*
X123190000Y-85090000D01*
X124584075Y-85705620D02*
X123344075Y-85705620D01*
D23*
X167640000Y-104780651D02*
X172092220Y-100328431D01*
X120082760Y-101032760D02*
X123190000Y-104140000D01*
X157331304Y-138578696D02*
X167640000Y-128270000D01*
X120082760Y-100351490D02*
X120082760Y-101032760D01*
X123190000Y-128270000D02*
X133498696Y-138578696D01*
D24*
X123336613Y-107364227D02*
X123190000Y-107217614D01*
X123190000Y-107217614D02*
X123190000Y-106680000D01*
X124576613Y-107364227D02*
X123336613Y-107364227D01*
D23*
X123190000Y-104140000D02*
X123190000Y-106680000D01*
D24*
X124590089Y-116685579D02*
X123344421Y-116685579D01*
X123344421Y-116685579D02*
X123190000Y-116840000D01*
D23*
X123190000Y-106680000D02*
X123190000Y-116840000D01*
D24*
X123340344Y-126021020D02*
X123190000Y-125870676D01*
X123190000Y-125870676D02*
X123190000Y-125730000D01*
X124580344Y-126021020D02*
X123340344Y-126021020D01*
D23*
X123190000Y-116840000D02*
X123190000Y-125730000D01*
X123190000Y-125730000D02*
X123190000Y-128270000D01*
D24*
X135992115Y-137436518D02*
X135992115Y-138327885D01*
X154665992Y-138453384D02*
X154791304Y-138578696D01*
X154665992Y-137430966D02*
X154665992Y-138453384D01*
D23*
X154791304Y-138578696D02*
X157331304Y-138578696D01*
D24*
X145325558Y-138363696D02*
X145110558Y-138578696D01*
X145110558Y-138578696D02*
X144928696Y-138578696D01*
X145325557Y-137443695D02*
X145325558Y-138363696D01*
D23*
X133498696Y-138578696D02*
X144928696Y-138578696D01*
X144928696Y-138578696D02*
X154791304Y-138578696D01*
D24*
X167344577Y-126025423D02*
X167640000Y-125730000D01*
D23*
X167640000Y-128270000D02*
X167640000Y-125730000D01*
D24*
X166078659Y-126025423D02*
X167344577Y-126025423D01*
X166075744Y-116679565D02*
X167479565Y-116679565D01*
X167479565Y-116679565D02*
X167640000Y-116840000D01*
D23*
X167640000Y-125730000D02*
X167640000Y-116840000D01*
D24*
X167640000Y-107044537D02*
X167640000Y-106680000D01*
X167321758Y-107362779D02*
X167640000Y-107044537D01*
X166081758Y-107362779D02*
X167321758Y-107362779D01*
D23*
X167640000Y-116840000D02*
X167640000Y-106680000D01*
X167640000Y-106680000D02*
X167640000Y-104780651D01*
X167640000Y-64770000D02*
X156210000Y-53340000D01*
X135890000Y-54471987D02*
X135993940Y-54471987D01*
X135890000Y-53340000D02*
X135890000Y-54471987D01*
D24*
X136003941Y-54585928D02*
X135890000Y-54471987D01*
X136003941Y-55606988D02*
X136003941Y-54585928D01*
X144780000Y-54153862D02*
X144780000Y-53340000D01*
X145338117Y-54711979D02*
X144780000Y-54153862D01*
X145338118Y-55631980D02*
X145338117Y-54711979D01*
D23*
X144780000Y-53340000D02*
X135890000Y-53340000D01*
D24*
X154671419Y-55632017D02*
X154671419Y-53608581D01*
D23*
X156210000Y-53340000D02*
X154940000Y-53340000D01*
D24*
X154671419Y-53608581D02*
X154940000Y-53340000D01*
D23*
X154940000Y-53340000D02*
X144780000Y-53340000D01*
D24*
X167355247Y-67025247D02*
X167640000Y-67310000D01*
X166090907Y-67025247D02*
X167355247Y-67025247D01*
D23*
X167640000Y-67310000D02*
X167640000Y-64770000D01*
D25*
X123190000Y-97244250D02*
X123190000Y-104140000D01*
X125730000Y-60960000D02*
X129613516Y-60960000D01*
D23*
X125730000Y-60960000D02*
X129593012Y-57096988D01*
X123190000Y-63500000D02*
X125730000Y-60960000D01*
D25*
X134620000Y-65966484D02*
X134620000Y-92710000D01*
X134620000Y-92710000D02*
X135890000Y-93980000D01*
X152712092Y-93980000D02*
X154940000Y-93980000D01*
D24*
X154671419Y-94248581D02*
X154940000Y-93980000D01*
X154671419Y-95939327D02*
X154671419Y-94248581D01*
X145322448Y-94522448D02*
X144780000Y-93980000D01*
D25*
X135890000Y-93980000D02*
X144780000Y-93980000D01*
D24*
X145322448Y-95956117D02*
X145322448Y-94522448D01*
D25*
X144780000Y-93980000D02*
X152712092Y-93980000D01*
D24*
X135990683Y-94080683D02*
X135890000Y-93980000D01*
X135990683Y-95939327D02*
X135990683Y-94080683D01*
X123340776Y-76366255D02*
X123190000Y-76215479D01*
X123190000Y-76215479D02*
X123190000Y-76200000D01*
X124580776Y-76366255D02*
X123340776Y-76366255D01*
D23*
X123190000Y-85090000D02*
X123190000Y-76200000D01*
X123190000Y-76200000D02*
X123190000Y-67310000D01*
X126066613Y-108286613D02*
X128270000Y-110490000D01*
X126066613Y-108214227D02*
X126066613Y-108286613D01*
X126080089Y-117535579D02*
X126425579Y-117535579D01*
X126425579Y-117535579D02*
X128270000Y-119380000D01*
X128141020Y-126871020D02*
X129540000Y-128270000D01*
X126070344Y-126871020D02*
X128141020Y-126871020D01*
X136842115Y-135946518D02*
X136842115Y-134937885D01*
X136842115Y-134937885D02*
X138430000Y-133350000D01*
X146175557Y-134494443D02*
X147320000Y-133350000D01*
X146175557Y-135953695D02*
X146175557Y-134494443D01*
X155515992Y-135940966D02*
X155515992Y-134200000D01*
X155515992Y-134200000D02*
X156365992Y-133350000D01*
X164545423Y-125175423D02*
X162560000Y-123190000D01*
X164588659Y-125175423D02*
X164545423Y-125175423D01*
X164089565Y-115829565D02*
X162560000Y-114300000D01*
X164585744Y-115829565D02*
X164089565Y-115829565D01*
X164591758Y-106512779D02*
X163662779Y-106512779D01*
X163662779Y-106512779D02*
X162560000Y-105410000D01*
X153821419Y-97429327D02*
X152760673Y-97429327D01*
X152760673Y-97429327D02*
X151130000Y-99060000D01*
X144472448Y-97446117D02*
X143174371Y-97446117D01*
X143174371Y-97446117D02*
X140970488Y-99650000D01*
X135140683Y-97429327D02*
X134980673Y-97429327D01*
X134980673Y-97429327D02*
X133458859Y-98951141D01*
D26*
X170890139Y-100328431D02*
X168910000Y-98348292D01*
X172092220Y-100328431D02*
X170890139Y-100328431D01*
X168910000Y-64770000D02*
X156210000Y-52070000D01*
X137160000Y-52070000D02*
X135890000Y-53340000D01*
X156210000Y-52070000D02*
X137160000Y-52070000D01*
X121332760Y-100351490D02*
X118482760Y-100351490D01*
X121920000Y-100938730D02*
X121332760Y-100351490D01*
X168910000Y-98348292D02*
X168910000Y-128270000D01*
X133350000Y-139700000D02*
X121920000Y-128270000D01*
X168910000Y-128270000D02*
X157480000Y-139700000D01*
X157480000Y-139700000D02*
X133350000Y-139700000D01*
X121920000Y-128270000D02*
X121920000Y-100938730D01*
D24*
X167320097Y-85703959D02*
X167976138Y-86360000D01*
D26*
X168910000Y-98348292D02*
X168910000Y-86360000D01*
D24*
X167976138Y-86360000D02*
X168910000Y-86360000D01*
X166080097Y-85703959D02*
X167320097Y-85703959D01*
X167811005Y-76371005D02*
X168910000Y-77470000D01*
X166078649Y-76371005D02*
X167811005Y-76371005D01*
D26*
X168910000Y-86360000D02*
X168910000Y-77470000D01*
X168910000Y-77470000D02*
X168910000Y-68580000D01*
D24*
X167640000Y-67310000D02*
X168910000Y-68580000D01*
D26*
X168910000Y-68580000D02*
X168910000Y-64770000D01*
D24*
X136003941Y-53453941D02*
X135890000Y-53340000D01*
X136003941Y-55606988D02*
X136003941Y-53453941D01*
X153821419Y-57122017D02*
X153821419Y-57588581D01*
X153821419Y-57588581D02*
X152400000Y-59010000D01*
X144488118Y-57121980D02*
X144128020Y-57121980D01*
X144128020Y-57121980D02*
X142240000Y-59010000D01*
X164600907Y-66175247D02*
X163965247Y-66175247D01*
X163965247Y-66175247D02*
X162560000Y-64770000D01*
X164421005Y-75521005D02*
X162560000Y-73660000D01*
X164588649Y-75521005D02*
X164421005Y-75521005D01*
X164590097Y-84580097D02*
X162560000Y-82550000D01*
X164590097Y-84853959D02*
X164590097Y-84580097D01*
X126310545Y-67890545D02*
X128270000Y-69850000D01*
X126074751Y-67890545D02*
X126310545Y-67890545D01*
X126070776Y-77216255D02*
X126070776Y-77810776D01*
X126070776Y-77810776D02*
X128270000Y-80010000D01*
X126074075Y-86555620D02*
X128117550Y-86555620D01*
X128117550Y-86555620D02*
X128351930Y-86790000D01*
X131276758Y-62193242D02*
X131592082Y-61877918D01*
D25*
X130846758Y-62193242D02*
X134620000Y-65966484D01*
D24*
X130846758Y-62193242D02*
X131276758Y-62193242D01*
D25*
X129613516Y-60960000D02*
X130846758Y-62193242D01*
X154940000Y-93980000D02*
X162560000Y-93980000D01*
D26*
X162560000Y-105410000D02*
X162560000Y-93980000D01*
X162560000Y-93980000D02*
X162560000Y-88900000D01*
D25*
X160020000Y-67310000D02*
X160020000Y-64770000D01*
X160020000Y-64770000D02*
X156210000Y-60960000D01*
X135890000Y-60960000D02*
X136253942Y-60596058D01*
D24*
X136073941Y-57096988D02*
X136003941Y-57026988D01*
X136853941Y-57096988D02*
X136073941Y-57096988D01*
X136003941Y-60346057D02*
X136253942Y-60596058D01*
X136003941Y-57026988D02*
X136003941Y-60346057D01*
X146118118Y-57051980D02*
X146188118Y-57121980D01*
X145338118Y-57051980D02*
X146118118Y-57051980D01*
X146050000Y-58763862D02*
X146050000Y-60960000D01*
X145338118Y-57051980D02*
X145338118Y-58051980D01*
D25*
X156210000Y-60960000D02*
X146050000Y-60960000D01*
D24*
X145338118Y-58051980D02*
X146050000Y-58763862D01*
D25*
X146050000Y-60960000D02*
X135890000Y-60960000D01*
D24*
X155451419Y-57052017D02*
X155521419Y-57122017D01*
X154671419Y-57052017D02*
X155451419Y-57052017D01*
X154671419Y-59421419D02*
X156210000Y-60960000D01*
X154671419Y-57052017D02*
X154671419Y-59421419D01*
X164600907Y-67095247D02*
X164670907Y-67025247D01*
X164600907Y-67875247D02*
X164600907Y-67095247D01*
X160304753Y-67025247D02*
X160020000Y-67310000D01*
X164670907Y-67025247D02*
X160304753Y-67025247D01*
X164588649Y-76441005D02*
X164658649Y-76371005D01*
X164588649Y-77221005D02*
X164588649Y-76441005D01*
X160191005Y-76371005D02*
X160020000Y-76200000D01*
X164658649Y-76371005D02*
X160191005Y-76371005D01*
D25*
X160020000Y-76200000D02*
X160020000Y-67310000D01*
D24*
X164590097Y-85773959D02*
X164660097Y-85703959D01*
X164590097Y-86553959D02*
X164590097Y-85773959D01*
X163324056Y-86360000D02*
X160020000Y-86360000D01*
X163980096Y-85703960D02*
X163324056Y-86360000D01*
X164660097Y-85703959D02*
X163980096Y-85703960D01*
D25*
X160020000Y-91440000D02*
X160020000Y-86360000D01*
X160020000Y-86360000D02*
X160020000Y-76200000D01*
X128270000Y-90170000D02*
X130810000Y-87630000D01*
X130810000Y-68580000D02*
X129540000Y-67310000D01*
D24*
X126074751Y-66970545D02*
X126004751Y-67040545D01*
X126074751Y-66190545D02*
X126074751Y-66970545D01*
X129270545Y-67040545D02*
X129540000Y-67310000D01*
X126004751Y-67040545D02*
X129270545Y-67040545D01*
X126000776Y-75586255D02*
X126070776Y-75516255D01*
X126000776Y-76366255D02*
X126000776Y-75586255D01*
X130643745Y-76366255D02*
X130810000Y-76200000D01*
X126000776Y-76366255D02*
X130643745Y-76366255D01*
D25*
X130810000Y-76200000D02*
X130810000Y-68580000D01*
D24*
X126004075Y-84925620D02*
X126074075Y-84855620D01*
X126004075Y-85705620D02*
X126004075Y-84925620D01*
X126684076Y-85705619D02*
X127299695Y-85090000D01*
X126004075Y-85705620D02*
X126684076Y-85705619D01*
D25*
X130810000Y-87630000D02*
X130810000Y-85090000D01*
D24*
X127299695Y-85090000D02*
X130810000Y-85090000D01*
D25*
X130810000Y-85090000D02*
X130810000Y-76200000D01*
X128270000Y-90170000D02*
X128270000Y-96520000D01*
X128270000Y-96520000D02*
X132080000Y-100330000D01*
X132080000Y-125730000D02*
X132080000Y-128270000D01*
X132080000Y-128270000D02*
X134620000Y-130810000D01*
X156210000Y-130810000D02*
X160020000Y-127000000D01*
X160020000Y-107950000D02*
X160020000Y-102870000D01*
X160020000Y-102870000D02*
X158750000Y-101600000D01*
D24*
X136060683Y-97429327D02*
X135990683Y-97359327D01*
X136840683Y-97429327D02*
X136060683Y-97429327D01*
X135990683Y-101499317D02*
X135890000Y-101600000D01*
X135990683Y-97359327D02*
X135990683Y-101499317D01*
D26*
X135890000Y-101600000D02*
X133350000Y-101600000D01*
D24*
X145392448Y-97446117D02*
X145322448Y-97376117D01*
X146172448Y-97446117D02*
X145392448Y-97446117D01*
X145322448Y-100872448D02*
X146050000Y-101600000D01*
X145322448Y-97376117D02*
X145322448Y-100872448D01*
D25*
X146050000Y-101600000D02*
X135890000Y-101600000D01*
D24*
X154741419Y-97429327D02*
X154671419Y-97359327D01*
X155521419Y-97429327D02*
X154741419Y-97429327D01*
X154671419Y-101331419D02*
X154940000Y-101600000D01*
X154671419Y-97359327D02*
X154671419Y-101331419D01*
D25*
X158750000Y-101600000D02*
X154940000Y-101600000D01*
X154940000Y-101600000D02*
X146050000Y-101600000D01*
D24*
X164591758Y-107432779D02*
X164661758Y-107362779D01*
X164591758Y-108212779D02*
X164591758Y-107432779D01*
X163394537Y-107950000D02*
X160020000Y-107950000D01*
X163981757Y-107362780D02*
X163394537Y-107950000D01*
X164661758Y-107362779D02*
X163981757Y-107362780D01*
X164585744Y-116749565D02*
X164655744Y-116679565D01*
X164585744Y-117529565D02*
X164585744Y-116749565D01*
X160180435Y-116679565D02*
X160020000Y-116840000D01*
X164655744Y-116679565D02*
X160180435Y-116679565D01*
D25*
X160020000Y-127000000D02*
X160020000Y-116840000D01*
X160020000Y-116840000D02*
X160020000Y-107950000D01*
D24*
X164658659Y-126805423D02*
X164588659Y-126875423D01*
X164658659Y-126025423D02*
X164658659Y-126805423D01*
X163838659Y-126875423D02*
X163714082Y-127000000D01*
X163714082Y-127000000D02*
X160020000Y-127000000D01*
X164588659Y-126875423D02*
X163838659Y-126875423D01*
X154595992Y-135940966D02*
X154665992Y-136010966D01*
X153815992Y-135940966D02*
X154595992Y-135940966D01*
X154665992Y-132354008D02*
X156210000Y-130810000D01*
X154665992Y-136010966D02*
X154665992Y-132354008D01*
X145255557Y-135953695D02*
X145325557Y-136023695D01*
X144475557Y-135953695D02*
X145255557Y-135953695D01*
X144780000Y-134478138D02*
X144780000Y-130810000D01*
X145325557Y-136023695D02*
X145325557Y-135023695D01*
D25*
X134620000Y-130810000D02*
X144780000Y-130810000D01*
D24*
X145325557Y-135023695D02*
X144780000Y-134478138D01*
D25*
X144780000Y-130810000D02*
X156210000Y-130810000D01*
D24*
X135142115Y-135946518D02*
X135833482Y-135946518D01*
X135903482Y-136016518D02*
X135992115Y-136016518D01*
X135833482Y-135946518D02*
X135903482Y-136016518D01*
X135992115Y-132182115D02*
X134620000Y-130810000D01*
X135992115Y-136016518D02*
X135992115Y-132182115D01*
X126070344Y-125951020D02*
X126000344Y-126021020D01*
X126070344Y-125171020D02*
X126070344Y-125951020D01*
X129831020Y-126021020D02*
X132080000Y-128270000D01*
X126000344Y-126021020D02*
X129831020Y-126021020D01*
X126010089Y-115905579D02*
X126080089Y-115835579D01*
X126010089Y-116685579D02*
X126010089Y-115905579D01*
X126080089Y-115835579D02*
X126830089Y-115835579D01*
X127834510Y-116840000D02*
X132080000Y-116840000D01*
X126830089Y-115835579D02*
X127834510Y-116840000D01*
D25*
X132080000Y-116840000D02*
X132080000Y-125730000D01*
D24*
X125996613Y-106584227D02*
X126066613Y-106514227D01*
X125996613Y-107364227D02*
X125996613Y-106584227D01*
X127582386Y-107950000D02*
X132080000Y-107950000D01*
X125996613Y-107364227D02*
X126996613Y-107364227D01*
X126996613Y-107364227D02*
X127582386Y-107950000D01*
D25*
X132080000Y-107950000D02*
X132080000Y-116840000D01*
X133350000Y-101600000D02*
X132080000Y-100330000D01*
X133350000Y-101600000D02*
X132080000Y-101600000D01*
X132080000Y-100330000D02*
X132080000Y-101600000D01*
D26*
X134620000Y-102870000D02*
X158750000Y-102870000D01*
X158750000Y-102870000D02*
X158750000Y-125730000D01*
X158750000Y-127339990D02*
X156549990Y-129540000D01*
X158750000Y-125730000D02*
X158750000Y-127339990D01*
X156549990Y-129540000D02*
X134620000Y-129540000D01*
X134620000Y-129540000D02*
X133350000Y-128270000D01*
X133350000Y-128270000D02*
X133350000Y-104140000D01*
X132080000Y-102870000D02*
X133350000Y-102870000D01*
X133350000Y-102870000D02*
X133985000Y-102235000D01*
D25*
X132080000Y-102870000D02*
X132080000Y-107950000D01*
D26*
X133350000Y-101600000D02*
X133985000Y-102235000D01*
D25*
X132080000Y-101600000D02*
X132080000Y-102870000D01*
D26*
X133985000Y-102235000D02*
X134620000Y-102870000D01*
D24*
X124274751Y-75512280D02*
X124270776Y-75516255D01*
X124274751Y-67890545D02*
X124274751Y-75512280D01*
X125174751Y-75512280D02*
X125170776Y-75516255D01*
X125174751Y-67890545D02*
X125174751Y-75512280D01*
X134999327Y-95629327D02*
X135140683Y-95629327D01*
X133350000Y-93980000D02*
X134999327Y-95629327D01*
X124274751Y-66190545D02*
X124274751Y-63965286D01*
X126010037Y-62230000D02*
X129540000Y-62230000D01*
X124274751Y-63965286D02*
X126010037Y-62230000D01*
X129540000Y-62230000D02*
X133350000Y-66040000D01*
X133350000Y-66040000D02*
X133350000Y-93980000D01*
X125174751Y-65290545D02*
X125178424Y-65286872D01*
X125174751Y-66190545D02*
X125174751Y-65290545D01*
X125178424Y-65286872D02*
X125178424Y-64051576D01*
X125178424Y-64051576D02*
X125730000Y-63500000D01*
X125730000Y-63500000D02*
X129540000Y-63500000D01*
X129540000Y-63500000D02*
X132080000Y-66040000D01*
X134240683Y-96529327D02*
X135140683Y-96529327D01*
X132080000Y-94368644D02*
X134240683Y-96529327D01*
X132080000Y-66040000D02*
X132080000Y-94368644D01*
X125170776Y-84852321D02*
X125174075Y-84855620D01*
X125170776Y-77216255D02*
X125170776Y-84852321D01*
X124270776Y-84852321D02*
X124274075Y-84855620D01*
X124270776Y-77216255D02*
X124270776Y-84852321D01*
X124274075Y-106506765D02*
X124266613Y-106514227D01*
X124274075Y-86555620D02*
X124274075Y-106506765D01*
X125174075Y-106506765D02*
X125166613Y-106514227D01*
X125174075Y-86555620D02*
X125174075Y-106506765D01*
X125166613Y-115822103D02*
X125180089Y-115835579D01*
X125166613Y-108214227D02*
X125166613Y-115822103D01*
X124266613Y-115822103D02*
X124280089Y-115835579D01*
X124266613Y-108214227D02*
X124266613Y-115822103D01*
X124280089Y-125161275D02*
X124270344Y-125171020D01*
X124280089Y-117535579D02*
X124280089Y-125161275D01*
X125170344Y-117545324D02*
X125180089Y-117535579D01*
X125170344Y-125171020D02*
X125170344Y-117545324D01*
X125170344Y-127771020D02*
X125170344Y-126871020D01*
X125170344Y-127774747D02*
X125170344Y-127771020D01*
X134242115Y-136846518D02*
X125170344Y-127774747D01*
X135142115Y-136846518D02*
X134242115Y-136846518D01*
X134242115Y-137746518D02*
X135142115Y-137746518D01*
X124270344Y-127864710D02*
X134152152Y-137746518D01*
X134152152Y-137746518D02*
X134242115Y-137746518D01*
X124270344Y-126871020D02*
X124270344Y-127864710D01*
X144463126Y-56196988D02*
X144488118Y-56221980D01*
X136853941Y-56196988D02*
X144463126Y-56196988D01*
X144463126Y-55296988D02*
X144488118Y-55321980D01*
X136853941Y-55296988D02*
X144463126Y-55296988D01*
X135153941Y-56196988D02*
X127953012Y-56196988D01*
X127953012Y-56196988D02*
X121920000Y-62230000D01*
X121920000Y-94374250D02*
X118482760Y-97811490D01*
X121920000Y-62230000D02*
X121920000Y-94374250D01*
X135153941Y-55296988D02*
X127583012Y-55296988D01*
X127583012Y-55296988D02*
X120650000Y-62230000D01*
X120650000Y-93104250D02*
X118482760Y-95271490D01*
X120650000Y-62230000D02*
X120650000Y-93104250D01*
X144455658Y-95629327D02*
X144472448Y-95646117D01*
X136840683Y-95629327D02*
X144455658Y-95629327D01*
X136857473Y-96546117D02*
X136840683Y-96529327D01*
X144472448Y-96546117D02*
X136857473Y-96546117D01*
X136849292Y-137753695D02*
X136842115Y-137746518D01*
X144475557Y-137753695D02*
X136849292Y-137753695D01*
X136849292Y-136853695D02*
X136842115Y-136846518D01*
X144475557Y-136853695D02*
X136849292Y-136853695D01*
X153821382Y-56221980D02*
X153821419Y-56222017D01*
X146188118Y-56221980D02*
X153821382Y-56221980D01*
X153821382Y-55321980D02*
X153821419Y-55322017D01*
X146188118Y-55321980D02*
X153821382Y-55321980D01*
X153804629Y-96546117D02*
X153821419Y-96529327D01*
X146172448Y-96546117D02*
X153804629Y-96546117D01*
X153804629Y-95646117D02*
X153821419Y-95629327D01*
X146172448Y-95646117D02*
X153804629Y-95646117D01*
X146188286Y-136840966D02*
X146175557Y-136853695D01*
X153815992Y-136840966D02*
X146188286Y-136840966D01*
X146188286Y-137740966D02*
X146175557Y-137753695D01*
X153815992Y-137740966D02*
X146188286Y-137740966D01*
X166400907Y-65275247D02*
X166400907Y-66175247D01*
X166400907Y-65185284D02*
X166400907Y-65275247D01*
X156537640Y-55322017D02*
X166400907Y-65185284D01*
X155521419Y-55322017D02*
X156537640Y-55322017D01*
X165500907Y-65275247D02*
X165500907Y-66175247D01*
X156447677Y-56222017D02*
X165500907Y-65275247D01*
X155521419Y-56222017D02*
X156447677Y-56222017D01*
X155521419Y-95629327D02*
X158370673Y-95629327D01*
X158370673Y-95629327D02*
X158750000Y-95250000D01*
X155521419Y-96529327D02*
X160010673Y-96529327D01*
X160010673Y-96529327D02*
X160020000Y-96520000D01*
X166388659Y-127865386D02*
X156513079Y-137740966D01*
X156415992Y-137740966D02*
X155515992Y-137740966D01*
X156513079Y-137740966D02*
X156415992Y-137740966D01*
X166388659Y-126875423D02*
X166388659Y-127865386D01*
X156415992Y-136840966D02*
X155515992Y-136840966D01*
X156423116Y-136840966D02*
X156415992Y-136840966D01*
X165488659Y-127775423D02*
X156423116Y-136840966D01*
X165488659Y-126875423D02*
X165488659Y-127775423D01*
X165500907Y-75508747D02*
X165488649Y-75521005D01*
X165500907Y-67875247D02*
X165500907Y-75508747D01*
X166400907Y-75508747D02*
X166388649Y-75521005D01*
X166400907Y-67875247D02*
X166400907Y-75508747D01*
X166388649Y-84852511D02*
X166390097Y-84853959D01*
X166388649Y-77221005D02*
X166388649Y-84852511D01*
X165488649Y-84852511D02*
X165490097Y-84853959D01*
X165488649Y-77221005D02*
X165488649Y-84852511D01*
X165491758Y-105612779D02*
X165491758Y-106512779D01*
X165490097Y-87453959D02*
X165491758Y-87455620D01*
X165491758Y-87455620D02*
X165491758Y-105612779D01*
X165490097Y-86553959D02*
X165490097Y-87453959D01*
X166390097Y-106511118D02*
X166391758Y-106512779D01*
X166390097Y-86553959D02*
X166390097Y-106511118D01*
X165491758Y-115823551D02*
X165485744Y-115829565D01*
X165491758Y-108212779D02*
X165491758Y-115823551D01*
X166391758Y-115823551D02*
X166385744Y-115829565D01*
X166391758Y-108212779D02*
X166391758Y-115823551D01*
X166385744Y-125172508D02*
X166388659Y-125175423D01*
X166385744Y-117529565D02*
X166385744Y-125172508D01*
X165485744Y-125172508D02*
X165488659Y-125175423D01*
X165485744Y-117529565D02*
X165485744Y-125172508D01*
D27*
G36*
X158623000Y-126932032D02*
G01*
X154901548Y-129413000D01*
X134672606Y-129413000D01*
X133477000Y-128217394D01*
X133477000Y-102997000D01*
X158623000Y-102997000D01*
X158623000Y-126932032D01*
G37*
X158623000Y-126932032D02*
X154901548Y-129413000D01*
X134672606Y-129413000D01*
X133477000Y-128217394D01*
X133477000Y-102997000D01*
X158623000Y-102997000D01*
X158623000Y-126932032D01*
G36*
X170629049Y-47512889D02*
G01*
X171367724Y-47710816D01*
X172060814Y-48034009D01*
X172682760Y-48469500D01*
X173863000Y-50829980D01*
X173863000Y-142210020D01*
X172669789Y-144596442D01*
X172060814Y-145022851D01*
X171367724Y-145346044D01*
X170629049Y-145543971D01*
X169835130Y-145613430D01*
X158449585Y-145613430D01*
X118189417Y-144654855D01*
X116966578Y-142209176D01*
X116947425Y-140849276D01*
X117314951Y-140849276D01*
X117314951Y-141516062D01*
X117445034Y-142170037D01*
X117700203Y-142786068D01*
X118070649Y-143340481D01*
X118542139Y-143811971D01*
X119096552Y-144182417D01*
X119712583Y-144437586D01*
X120366558Y-144567669D01*
X121033344Y-144567669D01*
X121687319Y-144437586D01*
X122303350Y-144182417D01*
X122857763Y-143811971D01*
X123329253Y-143340481D01*
X123699699Y-142786068D01*
X123954868Y-142170037D01*
X124084951Y-141516062D01*
X124084951Y-140849276D01*
X124074048Y-140794459D01*
X166523037Y-140794459D01*
X166523037Y-141461245D01*
X166653120Y-142115220D01*
X166908289Y-142731251D01*
X167278735Y-143285664D01*
X167750225Y-143757154D01*
X168304638Y-144127600D01*
X168920669Y-144382769D01*
X169574644Y-144512852D01*
X170241430Y-144512852D01*
X170895405Y-144382769D01*
X171511436Y-144127600D01*
X172065849Y-143757154D01*
X172537339Y-143285664D01*
X172907785Y-142731251D01*
X173162954Y-142115220D01*
X173293037Y-141461245D01*
X173293037Y-140794459D01*
X173162954Y-140140484D01*
X172907785Y-139524453D01*
X172537339Y-138970040D01*
X172065849Y-138498550D01*
X171511436Y-138128104D01*
X170895405Y-137872935D01*
X170241430Y-137742852D01*
X169574644Y-137742852D01*
X168920669Y-137872935D01*
X168304638Y-138128104D01*
X167750225Y-138498550D01*
X167278735Y-138970040D01*
X166908289Y-139524453D01*
X166653120Y-140140484D01*
X166523037Y-140794459D01*
X124074048Y-140794459D01*
X123954868Y-140195301D01*
X123699699Y-139579270D01*
X123329253Y-139024857D01*
X122857763Y-138553367D01*
X122303350Y-138182921D01*
X121687319Y-137927752D01*
X121033344Y-137797669D01*
X120366558Y-137797669D01*
X119712583Y-137927752D01*
X119096552Y-138182921D01*
X118542139Y-138553367D01*
X118070649Y-139024857D01*
X117700203Y-139579270D01*
X117445034Y-140195301D01*
X117314951Y-140849276D01*
X116947425Y-140849276D01*
X116407220Y-102494742D01*
X116407220Y-101201490D01*
X116994688Y-101201490D01*
X117006948Y-101325972D01*
X117043258Y-101445670D01*
X117102223Y-101555984D01*
X117181575Y-101652675D01*
X117278266Y-101732027D01*
X117388580Y-101790992D01*
X117508278Y-101827302D01*
X117632760Y-101839562D01*
X118197010Y-101836490D01*
X118355760Y-101677740D01*
X118355760Y-100478490D01*
X118609760Y-100478490D01*
X118609760Y-101677740D01*
X118768510Y-101836490D01*
X119332760Y-101839562D01*
X119457242Y-101827302D01*
X119576940Y-101790992D01*
X119687254Y-101732027D01*
X119783945Y-101652675D01*
X119863297Y-101555984D01*
X119922262Y-101445670D01*
X119958572Y-101325972D01*
X119970832Y-101201490D01*
X119967760Y-100637240D01*
X119809010Y-100478490D01*
X118609760Y-100478490D01*
X118355760Y-100478490D01*
X117156510Y-100478490D01*
X116997760Y-100637240D01*
X116994688Y-101201490D01*
X116407220Y-101201490D01*
X116407220Y-99501490D01*
X116994688Y-99501490D01*
X116997760Y-100065740D01*
X117156510Y-100224490D01*
X118355760Y-100224490D01*
X118355760Y-100204490D01*
X118609760Y-100204490D01*
X118609760Y-100224490D01*
X119809010Y-100224490D01*
X119967760Y-100065740D01*
X119970832Y-99501490D01*
X119958572Y-99377008D01*
X119922262Y-99257310D01*
X119863297Y-99146996D01*
X119783945Y-99050305D01*
X119687254Y-98970953D01*
X119576940Y-98911988D01*
X119504380Y-98889977D01*
X119636235Y-98758122D01*
X119798750Y-98514901D01*
X119910692Y-98244648D01*
X119967760Y-97957750D01*
X119967760Y-97665230D01*
X119953299Y-97592529D01*
X122515049Y-95030780D01*
X122548817Y-95003067D01*
X122581134Y-94963690D01*
X122659410Y-94868310D01*
X122659411Y-94868309D01*
X122741589Y-94714563D01*
X122792195Y-94547740D01*
X122805000Y-94417727D01*
X122805000Y-94417717D01*
X122809281Y-94374251D01*
X122805000Y-94330785D01*
X122805000Y-62596578D01*
X128319591Y-57081988D01*
X135115869Y-57081988D01*
X135115869Y-57243988D01*
X135026941Y-57243988D01*
X135026941Y-57219988D01*
X134277691Y-57219988D01*
X134118941Y-57378738D01*
X134131036Y-57485282D01*
X134169985Y-57604148D01*
X134231375Y-57713131D01*
X134312847Y-57808043D01*
X134411269Y-57885237D01*
X134522861Y-57941747D01*
X134643333Y-57975400D01*
X134768055Y-57984904D01*
X134868191Y-57981988D01*
X135026939Y-57823240D01*
X135026939Y-57981988D01*
X135118941Y-57981988D01*
X135118942Y-60124506D01*
X135083551Y-60153551D01*
X134941716Y-60326377D01*
X134836324Y-60523553D01*
X134771423Y-60737501D01*
X134749509Y-60960000D01*
X134771423Y-61182499D01*
X134836324Y-61396447D01*
X134941716Y-61593623D01*
X135083551Y-61766449D01*
X135256377Y-61908284D01*
X135453553Y-62013676D01*
X135667501Y-62078577D01*
X135834248Y-62095000D01*
X135834249Y-62095000D01*
X135890000Y-62100491D01*
X135945751Y-62095000D01*
X155739869Y-62095000D01*
X158885001Y-65240134D01*
X158885000Y-67365751D01*
X158885001Y-67365761D01*
X158885000Y-76255751D01*
X158885001Y-76255761D01*
X158885000Y-86415751D01*
X158885001Y-86415761D01*
X158885000Y-89931312D01*
X158818382Y-89975825D01*
X158555825Y-90238382D01*
X158349534Y-90547118D01*
X158207439Y-90890166D01*
X158135000Y-91254344D01*
X158135000Y-91625656D01*
X158207439Y-91989834D01*
X158349534Y-92332882D01*
X158555825Y-92641618D01*
X158818382Y-92904175D01*
X159127118Y-93110466D01*
X159470166Y-93252561D01*
X159834344Y-93325000D01*
X160205656Y-93325000D01*
X160569834Y-93252561D01*
X160912882Y-93110466D01*
X161221618Y-92904175D01*
X161484175Y-92641618D01*
X161690466Y-92332882D01*
X161832561Y-91989834D01*
X161905000Y-91625656D01*
X161905000Y-91254344D01*
X161832561Y-90890166D01*
X161690466Y-90547118D01*
X161484175Y-90238382D01*
X161221618Y-89975825D01*
X161155000Y-89931312D01*
X161155000Y-87245000D01*
X163280587Y-87245000D01*
X163324056Y-87249281D01*
X163367525Y-87245000D01*
X163367533Y-87245000D01*
X163497546Y-87232195D01*
X163664369Y-87181589D01*
X163734245Y-87144240D01*
X163750595Y-87198139D01*
X163809560Y-87308453D01*
X163888912Y-87405144D01*
X163985603Y-87484496D01*
X164095917Y-87543461D01*
X164215615Y-87579771D01*
X164340097Y-87592031D01*
X164606758Y-87592031D01*
X164606759Y-105569293D01*
X164606758Y-105569303D01*
X164606758Y-106474707D01*
X164161758Y-106474707D01*
X164130551Y-106477780D01*
X164025230Y-106477781D01*
X163981756Y-106473499D01*
X163938279Y-106477781D01*
X163845011Y-106486967D01*
X163808266Y-106490586D01*
X163641443Y-106541192D01*
X163487697Y-106623370D01*
X163386713Y-106706247D01*
X163352940Y-106733964D01*
X163325229Y-106767730D01*
X163027959Y-107065000D01*
X161155000Y-107065000D01*
X161155000Y-106126893D01*
X163703842Y-106126893D01*
X163706758Y-106227029D01*
X163865508Y-106385779D01*
X164468758Y-106385779D01*
X164468758Y-105636529D01*
X164310008Y-105477779D01*
X164203464Y-105489874D01*
X164084598Y-105528823D01*
X163975615Y-105590213D01*
X163880703Y-105671685D01*
X163803509Y-105770107D01*
X163746999Y-105881699D01*
X163713346Y-106002171D01*
X163703842Y-106126893D01*
X161155000Y-106126893D01*
X161155000Y-102925743D01*
X161160490Y-102869999D01*
X161155000Y-102814255D01*
X161155000Y-102814248D01*
X161138577Y-102647501D01*
X161073676Y-102433553D01*
X160968284Y-102236377D01*
X160826449Y-102063551D01*
X160783140Y-102028008D01*
X159591996Y-100836865D01*
X159556449Y-100793551D01*
X159383623Y-100651716D01*
X159186447Y-100546324D01*
X158972499Y-100481423D01*
X158805752Y-100465000D01*
X158805751Y-100465000D01*
X158750000Y-100459509D01*
X158694249Y-100465000D01*
X155556419Y-100465000D01*
X155556419Y-98317399D01*
X155921419Y-98317399D01*
X156045901Y-98305139D01*
X156165599Y-98268829D01*
X156275913Y-98209864D01*
X156372604Y-98130512D01*
X156451956Y-98033821D01*
X156510921Y-97923507D01*
X156547231Y-97803809D01*
X156559491Y-97679327D01*
X156559491Y-97414327D01*
X159315509Y-97414327D01*
X159482376Y-97525824D01*
X159688933Y-97611383D01*
X159908212Y-97655000D01*
X160131788Y-97655000D01*
X160351067Y-97611383D01*
X160557624Y-97525824D01*
X160743520Y-97401612D01*
X160901612Y-97243520D01*
X161025824Y-97057624D01*
X161111383Y-96851067D01*
X161155000Y-96631788D01*
X161155000Y-96408212D01*
X161111383Y-96188933D01*
X161025824Y-95982376D01*
X160901612Y-95796480D01*
X160743520Y-95638388D01*
X160557624Y-95514176D01*
X160351067Y-95428617D01*
X160131788Y-95385000D01*
X159908212Y-95385000D01*
X159879236Y-95390764D01*
X159885000Y-95361788D01*
X159885000Y-95138212D01*
X159841383Y-94918933D01*
X159755824Y-94712376D01*
X159631612Y-94526480D01*
X159473520Y-94368388D01*
X159287624Y-94244176D01*
X159081067Y-94158617D01*
X158861788Y-94115000D01*
X158638212Y-94115000D01*
X158418933Y-94158617D01*
X158212376Y-94244176D01*
X158026480Y-94368388D01*
X157868388Y-94526480D01*
X157744176Y-94712376D01*
X157730941Y-94744327D01*
X155952611Y-94744327D01*
X155921419Y-94741255D01*
X155363122Y-94741255D01*
X155283836Y-94674170D01*
X155174420Y-94613557D01*
X155055280Y-94575454D01*
X154953169Y-94564327D01*
X154794419Y-94723077D01*
X154794419Y-94834094D01*
X154766925Y-94848790D01*
X154671419Y-94927169D01*
X154575913Y-94848790D01*
X154548419Y-94834094D01*
X154548419Y-94723077D01*
X154389669Y-94564327D01*
X154287558Y-94575454D01*
X154168418Y-94613557D01*
X154059002Y-94674170D01*
X153979716Y-94741255D01*
X153833695Y-94741255D01*
X153821419Y-94740046D01*
X153809143Y-94741255D01*
X153421419Y-94741255D01*
X153296937Y-94753515D01*
X153271877Y-94761117D01*
X146603640Y-94761117D01*
X146572448Y-94758045D01*
X146014151Y-94758045D01*
X145934865Y-94690960D01*
X145825449Y-94630347D01*
X145706309Y-94592244D01*
X145604198Y-94581117D01*
X145445448Y-94739867D01*
X145445448Y-94850884D01*
X145417954Y-94865580D01*
X145322448Y-94943959D01*
X145226942Y-94865580D01*
X145199448Y-94850884D01*
X145199448Y-94739867D01*
X145040698Y-94581117D01*
X144938587Y-94592244D01*
X144819447Y-94630347D01*
X144710031Y-94690960D01*
X144631118Y-94757729D01*
X144629148Y-94757132D01*
X144499135Y-94744327D01*
X144499127Y-94744327D01*
X144455658Y-94740046D01*
X144412189Y-94744327D01*
X137271875Y-94744327D01*
X137240683Y-94741255D01*
X136682386Y-94741255D01*
X136603100Y-94674170D01*
X136493684Y-94613557D01*
X136374544Y-94575454D01*
X136272433Y-94564327D01*
X136113683Y-94723077D01*
X136113683Y-94834094D01*
X136086189Y-94848790D01*
X135990683Y-94927169D01*
X135895177Y-94848790D01*
X135867683Y-94834094D01*
X135867683Y-94723077D01*
X135708933Y-94564327D01*
X135606822Y-94575454D01*
X135487682Y-94613557D01*
X135378266Y-94674170D01*
X135333568Y-94711989D01*
X134235000Y-93613422D01*
X134235000Y-66083469D01*
X134239281Y-66040000D01*
X134235000Y-65996531D01*
X134235000Y-65996523D01*
X134222195Y-65866510D01*
X134197349Y-65784604D01*
X134171589Y-65699686D01*
X134089411Y-65545941D01*
X134006532Y-65444953D01*
X134006530Y-65444951D01*
X133978817Y-65411183D01*
X133945050Y-65383471D01*
X130196532Y-61634954D01*
X130168817Y-61601183D01*
X130034059Y-61490589D01*
X129880313Y-61408411D01*
X129713490Y-61357805D01*
X129583477Y-61345000D01*
X129583469Y-61345000D01*
X129540000Y-61340719D01*
X129496531Y-61345000D01*
X126053506Y-61345000D01*
X126010037Y-61340719D01*
X125966568Y-61345000D01*
X125966560Y-61345000D01*
X125851343Y-61356348D01*
X125836546Y-61357805D01*
X125785940Y-61373157D01*
X125669724Y-61408411D01*
X125515978Y-61490589D01*
X125515976Y-61490590D01*
X125515977Y-61490590D01*
X125414990Y-61573468D01*
X125414988Y-61573470D01*
X125381220Y-61601183D01*
X125353507Y-61634951D01*
X123679702Y-63308757D01*
X123645935Y-63336469D01*
X123618222Y-63370237D01*
X123618219Y-63370240D01*
X123535341Y-63471227D01*
X123453163Y-63624973D01*
X123402556Y-63791796D01*
X123385470Y-63965286D01*
X123389752Y-64008765D01*
X123389751Y-65759351D01*
X123386679Y-65790545D01*
X123386679Y-66348842D01*
X123319594Y-66428128D01*
X123258981Y-66537544D01*
X123220878Y-66656684D01*
X123209751Y-66758795D01*
X123368501Y-66917545D01*
X123479518Y-66917545D01*
X123494214Y-66945039D01*
X123572593Y-67040545D01*
X123494214Y-67136051D01*
X123479518Y-67163545D01*
X123368501Y-67163545D01*
X123209751Y-67322295D01*
X123220878Y-67424406D01*
X123258981Y-67543546D01*
X123319594Y-67652962D01*
X123386679Y-67732248D01*
X123386679Y-68290545D01*
X123389751Y-68321737D01*
X123389752Y-75044694D01*
X123382704Y-75116255D01*
X123382704Y-75503979D01*
X123381495Y-75516255D01*
X123382704Y-75528531D01*
X123382704Y-75674552D01*
X123315619Y-75753838D01*
X123255006Y-75863254D01*
X123216903Y-75982394D01*
X123205776Y-76084505D01*
X123364526Y-76243255D01*
X123475543Y-76243255D01*
X123490239Y-76270749D01*
X123568618Y-76366255D01*
X123490239Y-76461761D01*
X123475543Y-76489255D01*
X123364526Y-76489255D01*
X123205776Y-76648005D01*
X123216903Y-76750116D01*
X123255006Y-76869256D01*
X123315619Y-76978672D01*
X123382704Y-77057958D01*
X123382704Y-77616255D01*
X123385776Y-77647447D01*
X123385777Y-84808842D01*
X123381495Y-84852321D01*
X123386003Y-84898095D01*
X123386003Y-85013917D01*
X123318918Y-85093203D01*
X123258305Y-85202619D01*
X123220202Y-85321759D01*
X123209075Y-85423870D01*
X123367825Y-85582620D01*
X123478842Y-85582620D01*
X123493538Y-85610114D01*
X123571917Y-85705620D01*
X123493538Y-85801126D01*
X123478842Y-85828620D01*
X123367825Y-85828620D01*
X123209075Y-85987370D01*
X123220202Y-86089481D01*
X123258305Y-86208621D01*
X123318918Y-86318037D01*
X123386003Y-86397323D01*
X123386003Y-86955620D01*
X123389075Y-86986812D01*
X123389076Y-106007260D01*
X123378541Y-106114227D01*
X123378541Y-106501951D01*
X123377332Y-106514227D01*
X123378541Y-106526503D01*
X123378541Y-106672524D01*
X123311456Y-106751810D01*
X123250843Y-106861226D01*
X123212740Y-106980366D01*
X123201613Y-107082477D01*
X123360363Y-107241227D01*
X123471380Y-107241227D01*
X123486076Y-107268721D01*
X123564455Y-107364227D01*
X123486076Y-107459733D01*
X123471380Y-107487227D01*
X123360363Y-107487227D01*
X123201613Y-107645977D01*
X123212740Y-107748088D01*
X123250843Y-107867228D01*
X123311456Y-107976644D01*
X123378541Y-108055930D01*
X123378541Y-108614227D01*
X123381613Y-108645419D01*
X123381614Y-115778624D01*
X123377332Y-115822103D01*
X123392017Y-115971213D01*
X123392017Y-115993876D01*
X123324932Y-116073162D01*
X123264319Y-116182578D01*
X123226216Y-116301718D01*
X123215089Y-116403829D01*
X123373839Y-116562579D01*
X123484856Y-116562579D01*
X123499552Y-116590073D01*
X123577931Y-116685579D01*
X123499552Y-116781085D01*
X123484856Y-116808579D01*
X123373839Y-116808579D01*
X123215089Y-116967329D01*
X123226216Y-117069440D01*
X123264319Y-117188580D01*
X123324932Y-117297996D01*
X123392017Y-117377282D01*
X123392017Y-117935579D01*
X123395089Y-117966771D01*
X123395090Y-124644699D01*
X123394532Y-124646538D01*
X123382272Y-124771020D01*
X123382272Y-125158744D01*
X123381063Y-125171020D01*
X123382272Y-125183296D01*
X123382272Y-125329317D01*
X123315187Y-125408603D01*
X123254574Y-125518019D01*
X123216471Y-125637159D01*
X123205344Y-125739270D01*
X123364094Y-125898020D01*
X123475111Y-125898020D01*
X123489807Y-125925514D01*
X123568186Y-126021020D01*
X123489807Y-126116526D01*
X123475111Y-126144020D01*
X123364094Y-126144020D01*
X123205344Y-126302770D01*
X123216471Y-126404881D01*
X123254574Y-126524021D01*
X123315187Y-126633437D01*
X123382272Y-126712723D01*
X123382272Y-127271020D01*
X123385344Y-127302216D01*
X123385345Y-127821232D01*
X123381063Y-127864710D01*
X123398149Y-128038200D01*
X123448756Y-128205023D01*
X123530934Y-128358769D01*
X123613812Y-128459756D01*
X123613815Y-128459759D01*
X123641528Y-128493527D01*
X123675296Y-128521240D01*
X133495622Y-138341567D01*
X133523335Y-138375335D01*
X133557103Y-138403048D01*
X133557105Y-138403050D01*
X133567794Y-138411822D01*
X133658093Y-138485929D01*
X133811839Y-138568107D01*
X133978662Y-138618713D01*
X134108675Y-138631518D01*
X134108683Y-138631518D01*
X134152152Y-138635799D01*
X134195621Y-138631518D01*
X134710923Y-138631518D01*
X134742115Y-138634590D01*
X135300412Y-138634590D01*
X135379698Y-138701675D01*
X135489114Y-138762288D01*
X135608254Y-138800391D01*
X135710365Y-138811518D01*
X135869115Y-138652768D01*
X135869115Y-138541751D01*
X135896609Y-138527055D01*
X135992115Y-138448676D01*
X136087621Y-138527055D01*
X136115115Y-138541751D01*
X136115115Y-138652768D01*
X136273865Y-138811518D01*
X136375976Y-138800391D01*
X136495116Y-138762288D01*
X136604532Y-138701675D01*
X136683818Y-138634590D01*
X136764136Y-138634590D01*
X136805815Y-138638695D01*
X136805823Y-138638695D01*
X136849292Y-138642976D01*
X136892761Y-138638695D01*
X144044365Y-138638695D01*
X144075557Y-138641767D01*
X144633854Y-138641767D01*
X144713140Y-138708852D01*
X144822556Y-138769465D01*
X144941696Y-138807568D01*
X145043807Y-138818695D01*
X145202557Y-138659945D01*
X145202557Y-138548928D01*
X145230051Y-138534232D01*
X145325557Y-138455853D01*
X145421063Y-138534232D01*
X145448557Y-138548928D01*
X145448557Y-138659945D01*
X145607307Y-138818695D01*
X145709418Y-138807568D01*
X145828558Y-138769465D01*
X145937974Y-138708852D01*
X146017260Y-138641767D01*
X146163281Y-138641767D01*
X146175557Y-138642976D01*
X146187833Y-138641767D01*
X146575557Y-138641767D01*
X146700039Y-138629507D01*
X146711712Y-138625966D01*
X153384800Y-138625966D01*
X153415992Y-138629038D01*
X153974289Y-138629038D01*
X154053575Y-138696123D01*
X154162991Y-138756736D01*
X154282131Y-138794839D01*
X154384242Y-138805966D01*
X154542992Y-138647216D01*
X154542992Y-138536199D01*
X154570486Y-138521503D01*
X154665992Y-138443124D01*
X154761498Y-138521503D01*
X154788992Y-138536199D01*
X154788992Y-138647216D01*
X154947742Y-138805966D01*
X155049853Y-138794839D01*
X155168993Y-138756736D01*
X155278409Y-138696123D01*
X155357695Y-138629038D01*
X155915992Y-138629038D01*
X155947184Y-138625966D01*
X156469610Y-138625966D01*
X156513079Y-138630247D01*
X156556548Y-138625966D01*
X156556556Y-138625966D01*
X156686569Y-138613161D01*
X156853392Y-138562555D01*
X157007138Y-138480377D01*
X157141896Y-138369783D01*
X157169613Y-138336010D01*
X166983708Y-128521916D01*
X167017476Y-128494203D01*
X167045747Y-128459756D01*
X167119022Y-128370470D01*
X167128070Y-128359445D01*
X167210248Y-128205699D01*
X167260854Y-128038876D01*
X167273659Y-127908863D01*
X167273659Y-127908853D01*
X167277940Y-127865387D01*
X167273659Y-127821921D01*
X167273659Y-127306615D01*
X167276731Y-127275423D01*
X167276731Y-126717126D01*
X167343816Y-126637840D01*
X167404429Y-126528424D01*
X167442532Y-126409284D01*
X167453659Y-126307173D01*
X167294909Y-126148423D01*
X167183892Y-126148423D01*
X167169196Y-126120929D01*
X167090817Y-126025423D01*
X167169196Y-125929917D01*
X167183892Y-125902423D01*
X167294909Y-125902423D01*
X167453659Y-125743673D01*
X167442532Y-125641562D01*
X167404429Y-125522422D01*
X167343816Y-125413006D01*
X167276731Y-125333720D01*
X167276731Y-125187697D01*
X167277940Y-125175422D01*
X167276731Y-125163147D01*
X167276731Y-124775423D01*
X167270744Y-124714634D01*
X167270744Y-117960757D01*
X167273816Y-117929565D01*
X167273816Y-117371268D01*
X167340901Y-117291982D01*
X167401514Y-117182566D01*
X167439617Y-117063426D01*
X167450744Y-116961315D01*
X167291994Y-116802565D01*
X167180977Y-116802565D01*
X167166281Y-116775071D01*
X167087902Y-116679565D01*
X167166281Y-116584059D01*
X167180977Y-116556565D01*
X167291994Y-116556565D01*
X167450744Y-116397815D01*
X167439617Y-116295704D01*
X167401514Y-116176564D01*
X167340901Y-116067148D01*
X167273816Y-115987862D01*
X167273816Y-115896899D01*
X167276758Y-115867028D01*
X167276758Y-115867018D01*
X167281039Y-115823552D01*
X167276758Y-115780085D01*
X167276758Y-108643971D01*
X167279830Y-108612779D01*
X167279830Y-108054482D01*
X167346915Y-107975196D01*
X167407528Y-107865780D01*
X167445631Y-107746640D01*
X167456758Y-107644529D01*
X167298008Y-107485779D01*
X167186991Y-107485779D01*
X167172295Y-107458285D01*
X167093916Y-107362779D01*
X167172295Y-107267273D01*
X167186991Y-107239779D01*
X167298008Y-107239779D01*
X167456758Y-107081029D01*
X167445631Y-106978918D01*
X167407528Y-106859778D01*
X167346915Y-106750362D01*
X167279830Y-106671076D01*
X167279830Y-106525053D01*
X167281039Y-106512778D01*
X167279830Y-106500503D01*
X167279830Y-106112779D01*
X167275097Y-106064722D01*
X167275097Y-100685321D01*
X170650744Y-100685321D01*
X170695395Y-100832530D01*
X170820579Y-101095351D01*
X170994632Y-101328700D01*
X171210865Y-101523609D01*
X171460968Y-101672588D01*
X171735329Y-101769912D01*
X171965220Y-101649245D01*
X171965220Y-100455431D01*
X172219220Y-100455431D01*
X172219220Y-101649245D01*
X172449111Y-101769912D01*
X172723472Y-101672588D01*
X172973575Y-101523609D01*
X173189808Y-101328700D01*
X173363861Y-101095351D01*
X173489045Y-100832530D01*
X173533696Y-100685321D01*
X173412375Y-100455431D01*
X172219220Y-100455431D01*
X171965220Y-100455431D01*
X170772065Y-100455431D01*
X170650744Y-100685321D01*
X167275097Y-100685321D01*
X167275097Y-91858431D01*
X170604148Y-91858431D01*
X170604148Y-93558431D01*
X170616408Y-93682913D01*
X170652718Y-93802611D01*
X170711683Y-93912925D01*
X170791035Y-94009616D01*
X170887726Y-94088968D01*
X170998040Y-94147933D01*
X171070600Y-94169944D01*
X170938745Y-94301799D01*
X170776230Y-94545020D01*
X170664288Y-94815273D01*
X170607220Y-95102171D01*
X170607220Y-95394691D01*
X170664288Y-95681589D01*
X170776230Y-95951842D01*
X170938745Y-96195063D01*
X171145588Y-96401906D01*
X171319980Y-96518431D01*
X171145588Y-96634956D01*
X170938745Y-96841799D01*
X170776230Y-97085020D01*
X170664288Y-97355273D01*
X170607220Y-97642171D01*
X170607220Y-97934691D01*
X170664288Y-98221589D01*
X170776230Y-98491842D01*
X170938745Y-98735063D01*
X171145588Y-98941906D01*
X171327754Y-99063626D01*
X171210865Y-99133253D01*
X170994632Y-99328162D01*
X170820579Y-99561511D01*
X170695395Y-99824332D01*
X170650744Y-99971541D01*
X170772065Y-100201431D01*
X171965220Y-100201431D01*
X171965220Y-100181431D01*
X172219220Y-100181431D01*
X172219220Y-100201431D01*
X173412375Y-100201431D01*
X173533696Y-99971541D01*
X173489045Y-99824332D01*
X173363861Y-99561511D01*
X173189808Y-99328162D01*
X172973575Y-99133253D01*
X172856686Y-99063626D01*
X173038852Y-98941906D01*
X173245695Y-98735063D01*
X173408210Y-98491842D01*
X173520152Y-98221589D01*
X173577220Y-97934691D01*
X173577220Y-97642171D01*
X173520152Y-97355273D01*
X173408210Y-97085020D01*
X173245695Y-96841799D01*
X173038852Y-96634956D01*
X172864460Y-96518431D01*
X173038852Y-96401906D01*
X173245695Y-96195063D01*
X173408210Y-95951842D01*
X173520152Y-95681589D01*
X173577220Y-95394691D01*
X173577220Y-95102171D01*
X173520152Y-94815273D01*
X173408210Y-94545020D01*
X173245695Y-94301799D01*
X173113840Y-94169944D01*
X173186400Y-94147933D01*
X173296714Y-94088968D01*
X173393405Y-94009616D01*
X173472757Y-93912925D01*
X173531722Y-93802611D01*
X173568032Y-93682913D01*
X173580292Y-93558431D01*
X173580292Y-91858431D01*
X173568032Y-91733949D01*
X173531722Y-91614251D01*
X173472757Y-91503937D01*
X173393405Y-91407246D01*
X173296714Y-91327894D01*
X173186400Y-91268929D01*
X173066702Y-91232619D01*
X172942220Y-91220359D01*
X171242220Y-91220359D01*
X171117738Y-91232619D01*
X170998040Y-91268929D01*
X170887726Y-91327894D01*
X170791035Y-91407246D01*
X170711683Y-91503937D01*
X170652718Y-91614251D01*
X170616408Y-91733949D01*
X170604148Y-91858431D01*
X167275097Y-91858431D01*
X167275097Y-86985151D01*
X167278169Y-86953959D01*
X167278169Y-86395662D01*
X167345254Y-86316376D01*
X167405867Y-86206960D01*
X167443970Y-86087820D01*
X167455097Y-85985709D01*
X167296347Y-85826959D01*
X167185330Y-85826959D01*
X167170634Y-85799465D01*
X167092255Y-85703959D01*
X167170634Y-85608453D01*
X167185330Y-85580959D01*
X167296347Y-85580959D01*
X167455097Y-85422209D01*
X167443970Y-85320098D01*
X167405867Y-85200958D01*
X167345254Y-85091542D01*
X167278169Y-85012256D01*
X167278169Y-84866235D01*
X167279378Y-84853959D01*
X167278169Y-84841683D01*
X167278169Y-84453959D01*
X167273649Y-84408065D01*
X167273649Y-77652197D01*
X167276721Y-77621005D01*
X167276721Y-77062708D01*
X167343806Y-76983422D01*
X167404419Y-76874006D01*
X167442522Y-76754866D01*
X167453649Y-76652755D01*
X167294899Y-76494005D01*
X167183882Y-76494005D01*
X167169186Y-76466511D01*
X167090807Y-76371005D01*
X167169186Y-76275499D01*
X167183882Y-76248005D01*
X167294899Y-76248005D01*
X167453649Y-76089255D01*
X167442522Y-75987144D01*
X167404419Y-75868004D01*
X167343806Y-75758588D01*
X167276721Y-75679302D01*
X167276721Y-75645492D01*
X167285907Y-75552224D01*
X167285907Y-75552214D01*
X167290188Y-75508748D01*
X167285907Y-75465282D01*
X167285907Y-68306439D01*
X167288979Y-68275247D01*
X167288979Y-67716950D01*
X167356064Y-67637664D01*
X167416677Y-67528248D01*
X167454780Y-67409108D01*
X167465907Y-67306997D01*
X167307157Y-67148247D01*
X167196140Y-67148247D01*
X167181444Y-67120753D01*
X167103065Y-67025247D01*
X167181444Y-66929741D01*
X167196140Y-66902247D01*
X167307157Y-66902247D01*
X167465907Y-66743497D01*
X167454780Y-66641386D01*
X167416677Y-66522246D01*
X167356064Y-66412830D01*
X167288979Y-66333544D01*
X167288979Y-65775247D01*
X167285907Y-65744055D01*
X167285907Y-65228753D01*
X167290188Y-65185284D01*
X167285907Y-65141815D01*
X167285907Y-65141807D01*
X167273102Y-65011794D01*
X167222496Y-64844971D01*
X167140318Y-64691225D01*
X167083357Y-64621818D01*
X167057439Y-64590237D01*
X167057437Y-64590235D01*
X167029724Y-64556467D01*
X166995958Y-64528756D01*
X157194172Y-54726971D01*
X157166457Y-54693200D01*
X157031699Y-54582606D01*
X156877953Y-54500428D01*
X156711130Y-54449822D01*
X156581117Y-54437017D01*
X156581109Y-54437017D01*
X156537640Y-54432736D01*
X156494171Y-54437017D01*
X155952611Y-54437017D01*
X155921419Y-54433945D01*
X155363122Y-54433945D01*
X155283836Y-54366860D01*
X155174420Y-54306247D01*
X155055280Y-54268144D01*
X154953169Y-54257017D01*
X154794419Y-54415767D01*
X154794419Y-54526784D01*
X154766925Y-54541480D01*
X154671419Y-54619859D01*
X154575913Y-54541480D01*
X154548419Y-54526784D01*
X154548419Y-54415767D01*
X154389669Y-54257017D01*
X154287558Y-54268144D01*
X154168418Y-54306247D01*
X154059002Y-54366860D01*
X153979716Y-54433945D01*
X153834034Y-54433945D01*
X153821382Y-54432699D01*
X153808730Y-54433945D01*
X153421419Y-54433945D01*
X153390603Y-54436980D01*
X146619310Y-54436980D01*
X146588118Y-54433908D01*
X146029821Y-54433908D01*
X145950535Y-54366823D01*
X145841119Y-54306210D01*
X145721979Y-54268107D01*
X145619868Y-54256980D01*
X145461118Y-54415730D01*
X145461118Y-54526747D01*
X145433624Y-54541443D01*
X145338118Y-54619822D01*
X145242612Y-54541443D01*
X145215118Y-54526747D01*
X145215118Y-54415730D01*
X145056368Y-54256980D01*
X144954257Y-54268107D01*
X144835117Y-54306210D01*
X144725701Y-54366823D01*
X144651758Y-54429386D01*
X144636616Y-54424793D01*
X144506603Y-54411988D01*
X144506595Y-54411988D01*
X144463126Y-54407707D01*
X144419657Y-54411988D01*
X137285133Y-54411988D01*
X137253941Y-54408916D01*
X136695644Y-54408916D01*
X136616358Y-54341831D01*
X136506942Y-54281218D01*
X136387802Y-54243115D01*
X136285691Y-54231988D01*
X136126941Y-54390738D01*
X136126941Y-54501755D01*
X136099447Y-54516451D01*
X136003941Y-54594830D01*
X135908435Y-54516451D01*
X135880941Y-54501755D01*
X135880941Y-54390738D01*
X135722191Y-54231988D01*
X135620080Y-54243115D01*
X135500940Y-54281218D01*
X135391524Y-54341831D01*
X135312238Y-54408916D01*
X134753941Y-54408916D01*
X134722749Y-54411988D01*
X127626481Y-54411988D01*
X127583012Y-54407707D01*
X127539543Y-54411988D01*
X127539535Y-54411988D01*
X127409522Y-54424793D01*
X127242698Y-54475399D01*
X127088953Y-54557577D01*
X126987965Y-54640456D01*
X126987963Y-54640458D01*
X126954195Y-54668171D01*
X126926482Y-54701939D01*
X120054956Y-61573466D01*
X120021183Y-61601183D01*
X119910589Y-61735942D01*
X119828411Y-61889688D01*
X119777805Y-62056511D01*
X119765000Y-62186524D01*
X119765000Y-62186531D01*
X119760719Y-62230000D01*
X119765000Y-62273469D01*
X119765001Y-91977570D01*
X119636235Y-91784858D01*
X119429392Y-91578015D01*
X119186171Y-91415500D01*
X118915918Y-91303558D01*
X118629020Y-91246490D01*
X118336500Y-91246490D01*
X118049602Y-91303558D01*
X117779349Y-91415500D01*
X117536128Y-91578015D01*
X117329285Y-91784858D01*
X117166770Y-92028079D01*
X117054828Y-92298332D01*
X116997760Y-92585230D01*
X116997760Y-92877750D01*
X117054828Y-93164648D01*
X117166770Y-93434901D01*
X117329285Y-93678122D01*
X117536128Y-93884965D01*
X117710520Y-94001490D01*
X117536128Y-94118015D01*
X117329285Y-94324858D01*
X117166770Y-94568079D01*
X117054828Y-94838332D01*
X116997760Y-95125230D01*
X116997760Y-95417750D01*
X117054828Y-95704648D01*
X117166770Y-95974901D01*
X117329285Y-96218122D01*
X117536128Y-96424965D01*
X117710520Y-96541490D01*
X117536128Y-96658015D01*
X117329285Y-96864858D01*
X117166770Y-97108079D01*
X117054828Y-97378332D01*
X116997760Y-97665230D01*
X116997760Y-97957750D01*
X117054828Y-98244648D01*
X117166770Y-98514901D01*
X117329285Y-98758122D01*
X117461140Y-98889977D01*
X117388580Y-98911988D01*
X117278266Y-98970953D01*
X117181575Y-99050305D01*
X117102223Y-99146996D01*
X117043258Y-99257310D01*
X117006948Y-99377008D01*
X116994688Y-99501490D01*
X116407220Y-99501490D01*
X116407220Y-51865520D01*
X116430702Y-51597110D01*
X117374647Y-51597110D01*
X117374647Y-52263896D01*
X117504730Y-52917871D01*
X117759899Y-53533902D01*
X118130345Y-54088315D01*
X118601835Y-54559805D01*
X119156248Y-54930251D01*
X119772279Y-55185420D01*
X120426254Y-55315503D01*
X121093040Y-55315503D01*
X121747015Y-55185420D01*
X122363046Y-54930251D01*
X122917459Y-54559805D01*
X123388949Y-54088315D01*
X123759395Y-53533902D01*
X124014564Y-52917871D01*
X124144647Y-52263896D01*
X124144647Y-51597110D01*
X124117022Y-51458227D01*
X166395779Y-51458227D01*
X166395779Y-52125013D01*
X166525862Y-52778988D01*
X166781031Y-53395019D01*
X167151477Y-53949432D01*
X167622967Y-54420922D01*
X168177380Y-54791368D01*
X168793411Y-55046537D01*
X169447386Y-55176620D01*
X170114172Y-55176620D01*
X170768147Y-55046537D01*
X171384178Y-54791368D01*
X171938591Y-54420922D01*
X172410081Y-53949432D01*
X172780527Y-53395019D01*
X173035696Y-52778988D01*
X173165779Y-52125013D01*
X173165779Y-51458227D01*
X173035696Y-50804252D01*
X172780527Y-50188221D01*
X172410081Y-49633808D01*
X171938591Y-49162318D01*
X171384178Y-48791872D01*
X170768147Y-48536703D01*
X170114172Y-48406620D01*
X169447386Y-48406620D01*
X168793411Y-48536703D01*
X168177380Y-48791872D01*
X167622967Y-49162318D01*
X167151477Y-49633808D01*
X166781031Y-50188221D01*
X166525862Y-50804252D01*
X166395779Y-51458227D01*
X124117022Y-51458227D01*
X124014564Y-50943135D01*
X123759395Y-50327104D01*
X123388949Y-49772691D01*
X122917459Y-49301201D01*
X122363046Y-48930755D01*
X121747015Y-48675586D01*
X121093040Y-48545503D01*
X120426254Y-48545503D01*
X119772279Y-48675586D01*
X119156248Y-48930755D01*
X118601835Y-49301201D01*
X118130345Y-49772691D01*
X117759899Y-50327104D01*
X117504730Y-50943135D01*
X117374647Y-51597110D01*
X116430702Y-51597110D01*
X116476679Y-51071601D01*
X116674606Y-50332926D01*
X116997799Y-49639836D01*
X117079745Y-49522804D01*
X120103564Y-47506926D01*
X120829309Y-47443431D01*
X169835119Y-47443429D01*
X170629049Y-47512889D01*
G37*
X170629049Y-47512889D02*
X171367724Y-47710816D01*
X172060814Y-48034009D01*
X172682760Y-48469500D01*
X173863000Y-50829980D01*
X173863000Y-142210020D01*
X172669789Y-144596442D01*
X172060814Y-145022851D01*
X171367724Y-145346044D01*
X170629049Y-145543971D01*
X169835130Y-145613430D01*
X158449585Y-145613430D01*
X118189417Y-144654855D01*
X116966578Y-142209176D01*
X116947425Y-140849276D01*
X117314951Y-140849276D01*
X117314951Y-141516062D01*
X117445034Y-142170037D01*
X117700203Y-142786068D01*
X118070649Y-143340481D01*
X118542139Y-143811971D01*
X119096552Y-144182417D01*
X119712583Y-144437586D01*
X120366558Y-144567669D01*
X121033344Y-144567669D01*
X121687319Y-144437586D01*
X122303350Y-144182417D01*
X122857763Y-143811971D01*
X123329253Y-143340481D01*
X123699699Y-142786068D01*
X123954868Y-142170037D01*
X124084951Y-141516062D01*
X124084951Y-140849276D01*
X124074048Y-140794459D01*
X166523037Y-140794459D01*
X166523037Y-141461245D01*
X166653120Y-142115220D01*
X166908289Y-142731251D01*
X167278735Y-143285664D01*
X167750225Y-143757154D01*
X168304638Y-144127600D01*
X168920669Y-144382769D01*
X169574644Y-144512852D01*
X170241430Y-144512852D01*
X170895405Y-144382769D01*
X171511436Y-144127600D01*
X172065849Y-143757154D01*
X172537339Y-143285664D01*
X172907785Y-142731251D01*
X173162954Y-142115220D01*
X173293037Y-141461245D01*
X173293037Y-140794459D01*
X173162954Y-140140484D01*
X172907785Y-139524453D01*
X172537339Y-138970040D01*
X172065849Y-138498550D01*
X171511436Y-138128104D01*
X170895405Y-137872935D01*
X170241430Y-137742852D01*
X169574644Y-137742852D01*
X168920669Y-137872935D01*
X168304638Y-138128104D01*
X167750225Y-138498550D01*
X167278735Y-138970040D01*
X166908289Y-139524453D01*
X166653120Y-140140484D01*
X166523037Y-140794459D01*
X124074048Y-140794459D01*
X123954868Y-140195301D01*
X123699699Y-139579270D01*
X123329253Y-139024857D01*
X122857763Y-138553367D01*
X122303350Y-138182921D01*
X121687319Y-137927752D01*
X121033344Y-137797669D01*
X120366558Y-137797669D01*
X119712583Y-137927752D01*
X119096552Y-138182921D01*
X118542139Y-138553367D01*
X118070649Y-139024857D01*
X117700203Y-139579270D01*
X117445034Y-140195301D01*
X117314951Y-140849276D01*
X116947425Y-140849276D01*
X116407220Y-102494742D01*
X116407220Y-101201490D01*
X116994688Y-101201490D01*
X117006948Y-101325972D01*
X117043258Y-101445670D01*
X117102223Y-101555984D01*
X117181575Y-101652675D01*
X117278266Y-101732027D01*
X117388580Y-101790992D01*
X117508278Y-101827302D01*
X117632760Y-101839562D01*
X118197010Y-101836490D01*
X118355760Y-101677740D01*
X118355760Y-100478490D01*
X118609760Y-100478490D01*
X118609760Y-101677740D01*
X118768510Y-101836490D01*
X119332760Y-101839562D01*
X119457242Y-101827302D01*
X119576940Y-101790992D01*
X119687254Y-101732027D01*
X119783945Y-101652675D01*
X119863297Y-101555984D01*
X119922262Y-101445670D01*
X119958572Y-101325972D01*
X119970832Y-101201490D01*
X119967760Y-100637240D01*
X119809010Y-100478490D01*
X118609760Y-100478490D01*
X118355760Y-100478490D01*
X117156510Y-100478490D01*
X116997760Y-100637240D01*
X116994688Y-101201490D01*
X116407220Y-101201490D01*
X116407220Y-99501490D01*
X116994688Y-99501490D01*
X116997760Y-100065740D01*
X117156510Y-100224490D01*
X118355760Y-100224490D01*
X118355760Y-100204490D01*
X118609760Y-100204490D01*
X118609760Y-100224490D01*
X119809010Y-100224490D01*
X119967760Y-100065740D01*
X119970832Y-99501490D01*
X119958572Y-99377008D01*
X119922262Y-99257310D01*
X119863297Y-99146996D01*
X119783945Y-99050305D01*
X119687254Y-98970953D01*
X119576940Y-98911988D01*
X119504380Y-98889977D01*
X119636235Y-98758122D01*
X119798750Y-98514901D01*
X119910692Y-98244648D01*
X119967760Y-97957750D01*
X119967760Y-97665230D01*
X119953299Y-97592529D01*
X122515049Y-95030780D01*
X122548817Y-95003067D01*
X122581134Y-94963690D01*
X122659410Y-94868310D01*
X122659411Y-94868309D01*
X122741589Y-94714563D01*
X122792195Y-94547740D01*
X122805000Y-94417727D01*
X122805000Y-94417717D01*
X122809281Y-94374251D01*
X122805000Y-94330785D01*
X122805000Y-62596578D01*
X128319591Y-57081988D01*
X135115869Y-57081988D01*
X135115869Y-57243988D01*
X135026941Y-57243988D01*
X135026941Y-57219988D01*
X134277691Y-57219988D01*
X134118941Y-57378738D01*
X134131036Y-57485282D01*
X134169985Y-57604148D01*
X134231375Y-57713131D01*
X134312847Y-57808043D01*
X134411269Y-57885237D01*
X134522861Y-57941747D01*
X134643333Y-57975400D01*
X134768055Y-57984904D01*
X134868191Y-57981988D01*
X135026939Y-57823240D01*
X135026939Y-57981988D01*
X135118941Y-57981988D01*
X135118942Y-60124506D01*
X135083551Y-60153551D01*
X134941716Y-60326377D01*
X134836324Y-60523553D01*
X134771423Y-60737501D01*
X134749509Y-60960000D01*
X134771423Y-61182499D01*
X134836324Y-61396447D01*
X134941716Y-61593623D01*
X135083551Y-61766449D01*
X135256377Y-61908284D01*
X135453553Y-62013676D01*
X135667501Y-62078577D01*
X135834248Y-62095000D01*
X135834249Y-62095000D01*
X135890000Y-62100491D01*
X135945751Y-62095000D01*
X155739869Y-62095000D01*
X158885001Y-65240134D01*
X158885000Y-67365751D01*
X158885001Y-67365761D01*
X158885000Y-76255751D01*
X158885001Y-76255761D01*
X158885000Y-86415751D01*
X158885001Y-86415761D01*
X158885000Y-89931312D01*
X158818382Y-89975825D01*
X158555825Y-90238382D01*
X158349534Y-90547118D01*
X158207439Y-90890166D01*
X158135000Y-91254344D01*
X158135000Y-91625656D01*
X158207439Y-91989834D01*
X158349534Y-92332882D01*
X158555825Y-92641618D01*
X158818382Y-92904175D01*
X159127118Y-93110466D01*
X159470166Y-93252561D01*
X159834344Y-93325000D01*
X160205656Y-93325000D01*
X160569834Y-93252561D01*
X160912882Y-93110466D01*
X161221618Y-92904175D01*
X161484175Y-92641618D01*
X161690466Y-92332882D01*
X161832561Y-91989834D01*
X161905000Y-91625656D01*
X161905000Y-91254344D01*
X161832561Y-90890166D01*
X161690466Y-90547118D01*
X161484175Y-90238382D01*
X161221618Y-89975825D01*
X161155000Y-89931312D01*
X161155000Y-87245000D01*
X163280587Y-87245000D01*
X163324056Y-87249281D01*
X163367525Y-87245000D01*
X163367533Y-87245000D01*
X163497546Y-87232195D01*
X163664369Y-87181589D01*
X163734245Y-87144240D01*
X163750595Y-87198139D01*
X163809560Y-87308453D01*
X163888912Y-87405144D01*
X163985603Y-87484496D01*
X164095917Y-87543461D01*
X164215615Y-87579771D01*
X164340097Y-87592031D01*
X164606758Y-87592031D01*
X164606759Y-105569293D01*
X164606758Y-105569303D01*
X164606758Y-106474707D01*
X164161758Y-106474707D01*
X164130551Y-106477780D01*
X164025230Y-106477781D01*
X163981756Y-106473499D01*
X163938279Y-106477781D01*
X163845011Y-106486967D01*
X163808266Y-106490586D01*
X163641443Y-106541192D01*
X163487697Y-106623370D01*
X163386713Y-106706247D01*
X163352940Y-106733964D01*
X163325229Y-106767730D01*
X163027959Y-107065000D01*
X161155000Y-107065000D01*
X161155000Y-106126893D01*
X163703842Y-106126893D01*
X163706758Y-106227029D01*
X163865508Y-106385779D01*
X164468758Y-106385779D01*
X164468758Y-105636529D01*
X164310008Y-105477779D01*
X164203464Y-105489874D01*
X164084598Y-105528823D01*
X163975615Y-105590213D01*
X163880703Y-105671685D01*
X163803509Y-105770107D01*
X163746999Y-105881699D01*
X163713346Y-106002171D01*
X163703842Y-106126893D01*
X161155000Y-106126893D01*
X161155000Y-102925743D01*
X161160490Y-102869999D01*
X161155000Y-102814255D01*
X161155000Y-102814248D01*
X161138577Y-102647501D01*
X161073676Y-102433553D01*
X160968284Y-102236377D01*
X160826449Y-102063551D01*
X160783140Y-102028008D01*
X159591996Y-100836865D01*
X159556449Y-100793551D01*
X159383623Y-100651716D01*
X159186447Y-100546324D01*
X158972499Y-100481423D01*
X158805752Y-100465000D01*
X158805751Y-100465000D01*
X158750000Y-100459509D01*
X158694249Y-100465000D01*
X155556419Y-100465000D01*
X155556419Y-98317399D01*
X155921419Y-98317399D01*
X156045901Y-98305139D01*
X156165599Y-98268829D01*
X156275913Y-98209864D01*
X156372604Y-98130512D01*
X156451956Y-98033821D01*
X156510921Y-97923507D01*
X156547231Y-97803809D01*
X156559491Y-97679327D01*
X156559491Y-97414327D01*
X159315509Y-97414327D01*
X159482376Y-97525824D01*
X159688933Y-97611383D01*
X159908212Y-97655000D01*
X160131788Y-97655000D01*
X160351067Y-97611383D01*
X160557624Y-97525824D01*
X160743520Y-97401612D01*
X160901612Y-97243520D01*
X161025824Y-97057624D01*
X161111383Y-96851067D01*
X161155000Y-96631788D01*
X161155000Y-96408212D01*
X161111383Y-96188933D01*
X161025824Y-95982376D01*
X160901612Y-95796480D01*
X160743520Y-95638388D01*
X160557624Y-95514176D01*
X160351067Y-95428617D01*
X160131788Y-95385000D01*
X159908212Y-95385000D01*
X159879236Y-95390764D01*
X159885000Y-95361788D01*
X159885000Y-95138212D01*
X159841383Y-94918933D01*
X159755824Y-94712376D01*
X159631612Y-94526480D01*
X159473520Y-94368388D01*
X159287624Y-94244176D01*
X159081067Y-94158617D01*
X158861788Y-94115000D01*
X158638212Y-94115000D01*
X158418933Y-94158617D01*
X158212376Y-94244176D01*
X158026480Y-94368388D01*
X157868388Y-94526480D01*
X157744176Y-94712376D01*
X157730941Y-94744327D01*
X155952611Y-94744327D01*
X155921419Y-94741255D01*
X155363122Y-94741255D01*
X155283836Y-94674170D01*
X155174420Y-94613557D01*
X155055280Y-94575454D01*
X154953169Y-94564327D01*
X154794419Y-94723077D01*
X154794419Y-94834094D01*
X154766925Y-94848790D01*
X154671419Y-94927169D01*
X154575913Y-94848790D01*
X154548419Y-94834094D01*
X154548419Y-94723077D01*
X154389669Y-94564327D01*
X154287558Y-94575454D01*
X154168418Y-94613557D01*
X154059002Y-94674170D01*
X153979716Y-94741255D01*
X153833695Y-94741255D01*
X153821419Y-94740046D01*
X153809143Y-94741255D01*
X153421419Y-94741255D01*
X153296937Y-94753515D01*
X153271877Y-94761117D01*
X146603640Y-94761117D01*
X146572448Y-94758045D01*
X146014151Y-94758045D01*
X145934865Y-94690960D01*
X145825449Y-94630347D01*
X145706309Y-94592244D01*
X145604198Y-94581117D01*
X145445448Y-94739867D01*
X145445448Y-94850884D01*
X145417954Y-94865580D01*
X145322448Y-94943959D01*
X145226942Y-94865580D01*
X145199448Y-94850884D01*
X145199448Y-94739867D01*
X145040698Y-94581117D01*
X144938587Y-94592244D01*
X144819447Y-94630347D01*
X144710031Y-94690960D01*
X144631118Y-94757729D01*
X144629148Y-94757132D01*
X144499135Y-94744327D01*
X144499127Y-94744327D01*
X144455658Y-94740046D01*
X144412189Y-94744327D01*
X137271875Y-94744327D01*
X137240683Y-94741255D01*
X136682386Y-94741255D01*
X136603100Y-94674170D01*
X136493684Y-94613557D01*
X136374544Y-94575454D01*
X136272433Y-94564327D01*
X136113683Y-94723077D01*
X136113683Y-94834094D01*
X136086189Y-94848790D01*
X135990683Y-94927169D01*
X135895177Y-94848790D01*
X135867683Y-94834094D01*
X135867683Y-94723077D01*
X135708933Y-94564327D01*
X135606822Y-94575454D01*
X135487682Y-94613557D01*
X135378266Y-94674170D01*
X135333568Y-94711989D01*
X134235000Y-93613422D01*
X134235000Y-66083469D01*
X134239281Y-66040000D01*
X134235000Y-65996531D01*
X134235000Y-65996523D01*
X134222195Y-65866510D01*
X134197349Y-65784604D01*
X134171589Y-65699686D01*
X134089411Y-65545941D01*
X134006532Y-65444953D01*
X134006530Y-65444951D01*
X133978817Y-65411183D01*
X133945050Y-65383471D01*
X130196532Y-61634954D01*
X130168817Y-61601183D01*
X130034059Y-61490589D01*
X129880313Y-61408411D01*
X129713490Y-61357805D01*
X129583477Y-61345000D01*
X129583469Y-61345000D01*
X129540000Y-61340719D01*
X129496531Y-61345000D01*
X126053506Y-61345000D01*
X126010037Y-61340719D01*
X125966568Y-61345000D01*
X125966560Y-61345000D01*
X125851343Y-61356348D01*
X125836546Y-61357805D01*
X125785940Y-61373157D01*
X125669724Y-61408411D01*
X125515978Y-61490589D01*
X125515976Y-61490590D01*
X125515977Y-61490590D01*
X125414990Y-61573468D01*
X125414988Y-61573470D01*
X125381220Y-61601183D01*
X125353507Y-61634951D01*
X123679702Y-63308757D01*
X123645935Y-63336469D01*
X123618222Y-63370237D01*
X123618219Y-63370240D01*
X123535341Y-63471227D01*
X123453163Y-63624973D01*
X123402556Y-63791796D01*
X123385470Y-63965286D01*
X123389752Y-64008765D01*
X123389751Y-65759351D01*
X123386679Y-65790545D01*
X123386679Y-66348842D01*
X123319594Y-66428128D01*
X123258981Y-66537544D01*
X123220878Y-66656684D01*
X123209751Y-66758795D01*
X123368501Y-66917545D01*
X123479518Y-66917545D01*
X123494214Y-66945039D01*
X123572593Y-67040545D01*
X123494214Y-67136051D01*
X123479518Y-67163545D01*
X123368501Y-67163545D01*
X123209751Y-67322295D01*
X123220878Y-67424406D01*
X123258981Y-67543546D01*
X123319594Y-67652962D01*
X123386679Y-67732248D01*
X123386679Y-68290545D01*
X123389751Y-68321737D01*
X123389752Y-75044694D01*
X123382704Y-75116255D01*
X123382704Y-75503979D01*
X123381495Y-75516255D01*
X123382704Y-75528531D01*
X123382704Y-75674552D01*
X123315619Y-75753838D01*
X123255006Y-75863254D01*
X123216903Y-75982394D01*
X123205776Y-76084505D01*
X123364526Y-76243255D01*
X123475543Y-76243255D01*
X123490239Y-76270749D01*
X123568618Y-76366255D01*
X123490239Y-76461761D01*
X123475543Y-76489255D01*
X123364526Y-76489255D01*
X123205776Y-76648005D01*
X123216903Y-76750116D01*
X123255006Y-76869256D01*
X123315619Y-76978672D01*
X123382704Y-77057958D01*
X123382704Y-77616255D01*
X123385776Y-77647447D01*
X123385777Y-84808842D01*
X123381495Y-84852321D01*
X123386003Y-84898095D01*
X123386003Y-85013917D01*
X123318918Y-85093203D01*
X123258305Y-85202619D01*
X123220202Y-85321759D01*
X123209075Y-85423870D01*
X123367825Y-85582620D01*
X123478842Y-85582620D01*
X123493538Y-85610114D01*
X123571917Y-85705620D01*
X123493538Y-85801126D01*
X123478842Y-85828620D01*
X123367825Y-85828620D01*
X123209075Y-85987370D01*
X123220202Y-86089481D01*
X123258305Y-86208621D01*
X123318918Y-86318037D01*
X123386003Y-86397323D01*
X123386003Y-86955620D01*
X123389075Y-86986812D01*
X123389076Y-106007260D01*
X123378541Y-106114227D01*
X123378541Y-106501951D01*
X123377332Y-106514227D01*
X123378541Y-106526503D01*
X123378541Y-106672524D01*
X123311456Y-106751810D01*
X123250843Y-106861226D01*
X123212740Y-106980366D01*
X123201613Y-107082477D01*
X123360363Y-107241227D01*
X123471380Y-107241227D01*
X123486076Y-107268721D01*
X123564455Y-107364227D01*
X123486076Y-107459733D01*
X123471380Y-107487227D01*
X123360363Y-107487227D01*
X123201613Y-107645977D01*
X123212740Y-107748088D01*
X123250843Y-107867228D01*
X123311456Y-107976644D01*
X123378541Y-108055930D01*
X123378541Y-108614227D01*
X123381613Y-108645419D01*
X123381614Y-115778624D01*
X123377332Y-115822103D01*
X123392017Y-115971213D01*
X123392017Y-115993876D01*
X123324932Y-116073162D01*
X123264319Y-116182578D01*
X123226216Y-116301718D01*
X123215089Y-116403829D01*
X123373839Y-116562579D01*
X123484856Y-116562579D01*
X123499552Y-116590073D01*
X123577931Y-116685579D01*
X123499552Y-116781085D01*
X123484856Y-116808579D01*
X123373839Y-116808579D01*
X123215089Y-116967329D01*
X123226216Y-117069440D01*
X123264319Y-117188580D01*
X123324932Y-117297996D01*
X123392017Y-117377282D01*
X123392017Y-117935579D01*
X123395089Y-117966771D01*
X123395090Y-124644699D01*
X123394532Y-124646538D01*
X123382272Y-124771020D01*
X123382272Y-125158744D01*
X123381063Y-125171020D01*
X123382272Y-125183296D01*
X123382272Y-125329317D01*
X123315187Y-125408603D01*
X123254574Y-125518019D01*
X123216471Y-125637159D01*
X123205344Y-125739270D01*
X123364094Y-125898020D01*
X123475111Y-125898020D01*
X123489807Y-125925514D01*
X123568186Y-126021020D01*
X123489807Y-126116526D01*
X123475111Y-126144020D01*
X123364094Y-126144020D01*
X123205344Y-126302770D01*
X123216471Y-126404881D01*
X123254574Y-126524021D01*
X123315187Y-126633437D01*
X123382272Y-126712723D01*
X123382272Y-127271020D01*
X123385344Y-127302216D01*
X123385345Y-127821232D01*
X123381063Y-127864710D01*
X123398149Y-128038200D01*
X123448756Y-128205023D01*
X123530934Y-128358769D01*
X123613812Y-128459756D01*
X123613815Y-128459759D01*
X123641528Y-128493527D01*
X123675296Y-128521240D01*
X133495622Y-138341567D01*
X133523335Y-138375335D01*
X133557103Y-138403048D01*
X133557105Y-138403050D01*
X133567794Y-138411822D01*
X133658093Y-138485929D01*
X133811839Y-138568107D01*
X133978662Y-138618713D01*
X134108675Y-138631518D01*
X134108683Y-138631518D01*
X134152152Y-138635799D01*
X134195621Y-138631518D01*
X134710923Y-138631518D01*
X134742115Y-138634590D01*
X135300412Y-138634590D01*
X135379698Y-138701675D01*
X135489114Y-138762288D01*
X135608254Y-138800391D01*
X135710365Y-138811518D01*
X135869115Y-138652768D01*
X135869115Y-138541751D01*
X135896609Y-138527055D01*
X135992115Y-138448676D01*
X136087621Y-138527055D01*
X136115115Y-138541751D01*
X136115115Y-138652768D01*
X136273865Y-138811518D01*
X136375976Y-138800391D01*
X136495116Y-138762288D01*
X136604532Y-138701675D01*
X136683818Y-138634590D01*
X136764136Y-138634590D01*
X136805815Y-138638695D01*
X136805823Y-138638695D01*
X136849292Y-138642976D01*
X136892761Y-138638695D01*
X144044365Y-138638695D01*
X144075557Y-138641767D01*
X144633854Y-138641767D01*
X144713140Y-138708852D01*
X144822556Y-138769465D01*
X144941696Y-138807568D01*
X145043807Y-138818695D01*
X145202557Y-138659945D01*
X145202557Y-138548928D01*
X145230051Y-138534232D01*
X145325557Y-138455853D01*
X145421063Y-138534232D01*
X145448557Y-138548928D01*
X145448557Y-138659945D01*
X145607307Y-138818695D01*
X145709418Y-138807568D01*
X145828558Y-138769465D01*
X145937974Y-138708852D01*
X146017260Y-138641767D01*
X146163281Y-138641767D01*
X146175557Y-138642976D01*
X146187833Y-138641767D01*
X146575557Y-138641767D01*
X146700039Y-138629507D01*
X146711712Y-138625966D01*
X153384800Y-138625966D01*
X153415992Y-138629038D01*
X153974289Y-138629038D01*
X154053575Y-138696123D01*
X154162991Y-138756736D01*
X154282131Y-138794839D01*
X154384242Y-138805966D01*
X154542992Y-138647216D01*
X154542992Y-138536199D01*
X154570486Y-138521503D01*
X154665992Y-138443124D01*
X154761498Y-138521503D01*
X154788992Y-138536199D01*
X154788992Y-138647216D01*
X154947742Y-138805966D01*
X155049853Y-138794839D01*
X155168993Y-138756736D01*
X155278409Y-138696123D01*
X155357695Y-138629038D01*
X155915992Y-138629038D01*
X155947184Y-138625966D01*
X156469610Y-138625966D01*
X156513079Y-138630247D01*
X156556548Y-138625966D01*
X156556556Y-138625966D01*
X156686569Y-138613161D01*
X156853392Y-138562555D01*
X157007138Y-138480377D01*
X157141896Y-138369783D01*
X157169613Y-138336010D01*
X166983708Y-128521916D01*
X167017476Y-128494203D01*
X167045747Y-128459756D01*
X167119022Y-128370470D01*
X167128070Y-128359445D01*
X167210248Y-128205699D01*
X167260854Y-128038876D01*
X167273659Y-127908863D01*
X167273659Y-127908853D01*
X167277940Y-127865387D01*
X167273659Y-127821921D01*
X167273659Y-127306615D01*
X167276731Y-127275423D01*
X167276731Y-126717126D01*
X167343816Y-126637840D01*
X167404429Y-126528424D01*
X167442532Y-126409284D01*
X167453659Y-126307173D01*
X167294909Y-126148423D01*
X167183892Y-126148423D01*
X167169196Y-126120929D01*
X167090817Y-126025423D01*
X167169196Y-125929917D01*
X167183892Y-125902423D01*
X167294909Y-125902423D01*
X167453659Y-125743673D01*
X167442532Y-125641562D01*
X167404429Y-125522422D01*
X167343816Y-125413006D01*
X167276731Y-125333720D01*
X167276731Y-125187697D01*
X167277940Y-125175422D01*
X167276731Y-125163147D01*
X167276731Y-124775423D01*
X167270744Y-124714634D01*
X167270744Y-117960757D01*
X167273816Y-117929565D01*
X167273816Y-117371268D01*
X167340901Y-117291982D01*
X167401514Y-117182566D01*
X167439617Y-117063426D01*
X167450744Y-116961315D01*
X167291994Y-116802565D01*
X167180977Y-116802565D01*
X167166281Y-116775071D01*
X167087902Y-116679565D01*
X167166281Y-116584059D01*
X167180977Y-116556565D01*
X167291994Y-116556565D01*
X167450744Y-116397815D01*
X167439617Y-116295704D01*
X167401514Y-116176564D01*
X167340901Y-116067148D01*
X167273816Y-115987862D01*
X167273816Y-115896899D01*
X167276758Y-115867028D01*
X167276758Y-115867018D01*
X167281039Y-115823552D01*
X167276758Y-115780085D01*
X167276758Y-108643971D01*
X167279830Y-108612779D01*
X167279830Y-108054482D01*
X167346915Y-107975196D01*
X167407528Y-107865780D01*
X167445631Y-107746640D01*
X167456758Y-107644529D01*
X167298008Y-107485779D01*
X167186991Y-107485779D01*
X167172295Y-107458285D01*
X167093916Y-107362779D01*
X167172295Y-107267273D01*
X167186991Y-107239779D01*
X167298008Y-107239779D01*
X167456758Y-107081029D01*
X167445631Y-106978918D01*
X167407528Y-106859778D01*
X167346915Y-106750362D01*
X167279830Y-106671076D01*
X167279830Y-106525053D01*
X167281039Y-106512778D01*
X167279830Y-106500503D01*
X167279830Y-106112779D01*
X167275097Y-106064722D01*
X167275097Y-100685321D01*
X170650744Y-100685321D01*
X170695395Y-100832530D01*
X170820579Y-101095351D01*
X170994632Y-101328700D01*
X171210865Y-101523609D01*
X171460968Y-101672588D01*
X171735329Y-101769912D01*
X171965220Y-101649245D01*
X171965220Y-100455431D01*
X172219220Y-100455431D01*
X172219220Y-101649245D01*
X172449111Y-101769912D01*
X172723472Y-101672588D01*
X172973575Y-101523609D01*
X173189808Y-101328700D01*
X173363861Y-101095351D01*
X173489045Y-100832530D01*
X173533696Y-100685321D01*
X173412375Y-100455431D01*
X172219220Y-100455431D01*
X171965220Y-100455431D01*
X170772065Y-100455431D01*
X170650744Y-100685321D01*
X167275097Y-100685321D01*
X167275097Y-91858431D01*
X170604148Y-91858431D01*
X170604148Y-93558431D01*
X170616408Y-93682913D01*
X170652718Y-93802611D01*
X170711683Y-93912925D01*
X170791035Y-94009616D01*
X170887726Y-94088968D01*
X170998040Y-94147933D01*
X171070600Y-94169944D01*
X170938745Y-94301799D01*
X170776230Y-94545020D01*
X170664288Y-94815273D01*
X170607220Y-95102171D01*
X170607220Y-95394691D01*
X170664288Y-95681589D01*
X170776230Y-95951842D01*
X170938745Y-96195063D01*
X171145588Y-96401906D01*
X171319980Y-96518431D01*
X171145588Y-96634956D01*
X170938745Y-96841799D01*
X170776230Y-97085020D01*
X170664288Y-97355273D01*
X170607220Y-97642171D01*
X170607220Y-97934691D01*
X170664288Y-98221589D01*
X170776230Y-98491842D01*
X170938745Y-98735063D01*
X171145588Y-98941906D01*
X171327754Y-99063626D01*
X171210865Y-99133253D01*
X170994632Y-99328162D01*
X170820579Y-99561511D01*
X170695395Y-99824332D01*
X170650744Y-99971541D01*
X170772065Y-100201431D01*
X171965220Y-100201431D01*
X171965220Y-100181431D01*
X172219220Y-100181431D01*
X172219220Y-100201431D01*
X173412375Y-100201431D01*
X173533696Y-99971541D01*
X173489045Y-99824332D01*
X173363861Y-99561511D01*
X173189808Y-99328162D01*
X172973575Y-99133253D01*
X172856686Y-99063626D01*
X173038852Y-98941906D01*
X173245695Y-98735063D01*
X173408210Y-98491842D01*
X173520152Y-98221589D01*
X173577220Y-97934691D01*
X173577220Y-97642171D01*
X173520152Y-97355273D01*
X173408210Y-97085020D01*
X173245695Y-96841799D01*
X173038852Y-96634956D01*
X172864460Y-96518431D01*
X173038852Y-96401906D01*
X173245695Y-96195063D01*
X173408210Y-95951842D01*
X173520152Y-95681589D01*
X173577220Y-95394691D01*
X173577220Y-95102171D01*
X173520152Y-94815273D01*
X173408210Y-94545020D01*
X173245695Y-94301799D01*
X173113840Y-94169944D01*
X173186400Y-94147933D01*
X173296714Y-94088968D01*
X173393405Y-94009616D01*
X173472757Y-93912925D01*
X173531722Y-93802611D01*
X173568032Y-93682913D01*
X173580292Y-93558431D01*
X173580292Y-91858431D01*
X173568032Y-91733949D01*
X173531722Y-91614251D01*
X173472757Y-91503937D01*
X173393405Y-91407246D01*
X173296714Y-91327894D01*
X173186400Y-91268929D01*
X173066702Y-91232619D01*
X172942220Y-91220359D01*
X171242220Y-91220359D01*
X171117738Y-91232619D01*
X170998040Y-91268929D01*
X170887726Y-91327894D01*
X170791035Y-91407246D01*
X170711683Y-91503937D01*
X170652718Y-91614251D01*
X170616408Y-91733949D01*
X170604148Y-91858431D01*
X167275097Y-91858431D01*
X167275097Y-86985151D01*
X167278169Y-86953959D01*
X167278169Y-86395662D01*
X167345254Y-86316376D01*
X167405867Y-86206960D01*
X167443970Y-86087820D01*
X167455097Y-85985709D01*
X167296347Y-85826959D01*
X167185330Y-85826959D01*
X167170634Y-85799465D01*
X167092255Y-85703959D01*
X167170634Y-85608453D01*
X167185330Y-85580959D01*
X167296347Y-85580959D01*
X167455097Y-85422209D01*
X167443970Y-85320098D01*
X167405867Y-85200958D01*
X167345254Y-85091542D01*
X167278169Y-85012256D01*
X167278169Y-84866235D01*
X167279378Y-84853959D01*
X167278169Y-84841683D01*
X167278169Y-84453959D01*
X167273649Y-84408065D01*
X167273649Y-77652197D01*
X167276721Y-77621005D01*
X167276721Y-77062708D01*
X167343806Y-76983422D01*
X167404419Y-76874006D01*
X167442522Y-76754866D01*
X167453649Y-76652755D01*
X167294899Y-76494005D01*
X167183882Y-76494005D01*
X167169186Y-76466511D01*
X167090807Y-76371005D01*
X167169186Y-76275499D01*
X167183882Y-76248005D01*
X167294899Y-76248005D01*
X167453649Y-76089255D01*
X167442522Y-75987144D01*
X167404419Y-75868004D01*
X167343806Y-75758588D01*
X167276721Y-75679302D01*
X167276721Y-75645492D01*
X167285907Y-75552224D01*
X167285907Y-75552214D01*
X167290188Y-75508748D01*
X167285907Y-75465282D01*
X167285907Y-68306439D01*
X167288979Y-68275247D01*
X167288979Y-67716950D01*
X167356064Y-67637664D01*
X167416677Y-67528248D01*
X167454780Y-67409108D01*
X167465907Y-67306997D01*
X167307157Y-67148247D01*
X167196140Y-67148247D01*
X167181444Y-67120753D01*
X167103065Y-67025247D01*
X167181444Y-66929741D01*
X167196140Y-66902247D01*
X167307157Y-66902247D01*
X167465907Y-66743497D01*
X167454780Y-66641386D01*
X167416677Y-66522246D01*
X167356064Y-66412830D01*
X167288979Y-66333544D01*
X167288979Y-65775247D01*
X167285907Y-65744055D01*
X167285907Y-65228753D01*
X167290188Y-65185284D01*
X167285907Y-65141815D01*
X167285907Y-65141807D01*
X167273102Y-65011794D01*
X167222496Y-64844971D01*
X167140318Y-64691225D01*
X167083357Y-64621818D01*
X167057439Y-64590237D01*
X167057437Y-64590235D01*
X167029724Y-64556467D01*
X166995958Y-64528756D01*
X157194172Y-54726971D01*
X157166457Y-54693200D01*
X157031699Y-54582606D01*
X156877953Y-54500428D01*
X156711130Y-54449822D01*
X156581117Y-54437017D01*
X156581109Y-54437017D01*
X156537640Y-54432736D01*
X156494171Y-54437017D01*
X155952611Y-54437017D01*
X155921419Y-54433945D01*
X155363122Y-54433945D01*
X155283836Y-54366860D01*
X155174420Y-54306247D01*
X155055280Y-54268144D01*
X154953169Y-54257017D01*
X154794419Y-54415767D01*
X154794419Y-54526784D01*
X154766925Y-54541480D01*
X154671419Y-54619859D01*
X154575913Y-54541480D01*
X154548419Y-54526784D01*
X154548419Y-54415767D01*
X154389669Y-54257017D01*
X154287558Y-54268144D01*
X154168418Y-54306247D01*
X154059002Y-54366860D01*
X153979716Y-54433945D01*
X153834034Y-54433945D01*
X153821382Y-54432699D01*
X153808730Y-54433945D01*
X153421419Y-54433945D01*
X153390603Y-54436980D01*
X146619310Y-54436980D01*
X146588118Y-54433908D01*
X146029821Y-54433908D01*
X145950535Y-54366823D01*
X145841119Y-54306210D01*
X145721979Y-54268107D01*
X145619868Y-54256980D01*
X145461118Y-54415730D01*
X145461118Y-54526747D01*
X145433624Y-54541443D01*
X145338118Y-54619822D01*
X145242612Y-54541443D01*
X145215118Y-54526747D01*
X145215118Y-54415730D01*
X145056368Y-54256980D01*
X144954257Y-54268107D01*
X144835117Y-54306210D01*
X144725701Y-54366823D01*
X144651758Y-54429386D01*
X144636616Y-54424793D01*
X144506603Y-54411988D01*
X144506595Y-54411988D01*
X144463126Y-54407707D01*
X144419657Y-54411988D01*
X137285133Y-54411988D01*
X137253941Y-54408916D01*
X136695644Y-54408916D01*
X136616358Y-54341831D01*
X136506942Y-54281218D01*
X136387802Y-54243115D01*
X136285691Y-54231988D01*
X136126941Y-54390738D01*
X136126941Y-54501755D01*
X136099447Y-54516451D01*
X136003941Y-54594830D01*
X135908435Y-54516451D01*
X135880941Y-54501755D01*
X135880941Y-54390738D01*
X135722191Y-54231988D01*
X135620080Y-54243115D01*
X135500940Y-54281218D01*
X135391524Y-54341831D01*
X135312238Y-54408916D01*
X134753941Y-54408916D01*
X134722749Y-54411988D01*
X127626481Y-54411988D01*
X127583012Y-54407707D01*
X127539543Y-54411988D01*
X127539535Y-54411988D01*
X127409522Y-54424793D01*
X127242698Y-54475399D01*
X127088953Y-54557577D01*
X126987965Y-54640456D01*
X126987963Y-54640458D01*
X126954195Y-54668171D01*
X126926482Y-54701939D01*
X120054956Y-61573466D01*
X120021183Y-61601183D01*
X119910589Y-61735942D01*
X119828411Y-61889688D01*
X119777805Y-62056511D01*
X119765000Y-62186524D01*
X119765000Y-62186531D01*
X119760719Y-62230000D01*
X119765000Y-62273469D01*
X119765001Y-91977570D01*
X119636235Y-91784858D01*
X119429392Y-91578015D01*
X119186171Y-91415500D01*
X118915918Y-91303558D01*
X118629020Y-91246490D01*
X118336500Y-91246490D01*
X118049602Y-91303558D01*
X117779349Y-91415500D01*
X117536128Y-91578015D01*
X117329285Y-91784858D01*
X117166770Y-92028079D01*
X117054828Y-92298332D01*
X116997760Y-92585230D01*
X116997760Y-92877750D01*
X117054828Y-93164648D01*
X117166770Y-93434901D01*
X117329285Y-93678122D01*
X117536128Y-93884965D01*
X117710520Y-94001490D01*
X117536128Y-94118015D01*
X117329285Y-94324858D01*
X117166770Y-94568079D01*
X117054828Y-94838332D01*
X116997760Y-95125230D01*
X116997760Y-95417750D01*
X117054828Y-95704648D01*
X117166770Y-95974901D01*
X117329285Y-96218122D01*
X117536128Y-96424965D01*
X117710520Y-96541490D01*
X117536128Y-96658015D01*
X117329285Y-96864858D01*
X117166770Y-97108079D01*
X117054828Y-97378332D01*
X116997760Y-97665230D01*
X116997760Y-97957750D01*
X117054828Y-98244648D01*
X117166770Y-98514901D01*
X117329285Y-98758122D01*
X117461140Y-98889977D01*
X117388580Y-98911988D01*
X117278266Y-98970953D01*
X117181575Y-99050305D01*
X117102223Y-99146996D01*
X117043258Y-99257310D01*
X117006948Y-99377008D01*
X116994688Y-99501490D01*
X116407220Y-99501490D01*
X116407220Y-51865520D01*
X116430702Y-51597110D01*
X117374647Y-51597110D01*
X117374647Y-52263896D01*
X117504730Y-52917871D01*
X117759899Y-53533902D01*
X118130345Y-54088315D01*
X118601835Y-54559805D01*
X119156248Y-54930251D01*
X119772279Y-55185420D01*
X120426254Y-55315503D01*
X121093040Y-55315503D01*
X121747015Y-55185420D01*
X122363046Y-54930251D01*
X122917459Y-54559805D01*
X123388949Y-54088315D01*
X123759395Y-53533902D01*
X124014564Y-52917871D01*
X124144647Y-52263896D01*
X124144647Y-51597110D01*
X124117022Y-51458227D01*
X166395779Y-51458227D01*
X166395779Y-52125013D01*
X166525862Y-52778988D01*
X166781031Y-53395019D01*
X167151477Y-53949432D01*
X167622967Y-54420922D01*
X168177380Y-54791368D01*
X168793411Y-55046537D01*
X169447386Y-55176620D01*
X170114172Y-55176620D01*
X170768147Y-55046537D01*
X171384178Y-54791368D01*
X171938591Y-54420922D01*
X172410081Y-53949432D01*
X172780527Y-53395019D01*
X173035696Y-52778988D01*
X173165779Y-52125013D01*
X173165779Y-51458227D01*
X173035696Y-50804252D01*
X172780527Y-50188221D01*
X172410081Y-49633808D01*
X171938591Y-49162318D01*
X171384178Y-48791872D01*
X170768147Y-48536703D01*
X170114172Y-48406620D01*
X169447386Y-48406620D01*
X168793411Y-48536703D01*
X168177380Y-48791872D01*
X167622967Y-49162318D01*
X167151477Y-49633808D01*
X166781031Y-50188221D01*
X166525862Y-50804252D01*
X166395779Y-51458227D01*
X124117022Y-51458227D01*
X124014564Y-50943135D01*
X123759395Y-50327104D01*
X123388949Y-49772691D01*
X122917459Y-49301201D01*
X122363046Y-48930755D01*
X121747015Y-48675586D01*
X121093040Y-48545503D01*
X120426254Y-48545503D01*
X119772279Y-48675586D01*
X119156248Y-48930755D01*
X118601835Y-49301201D01*
X118130345Y-49772691D01*
X117759899Y-50327104D01*
X117504730Y-50943135D01*
X117374647Y-51597110D01*
X116430702Y-51597110D01*
X116476679Y-51071601D01*
X116674606Y-50332926D01*
X116997799Y-49639836D01*
X117079745Y-49522804D01*
X120103564Y-47506926D01*
X120829309Y-47443431D01*
X169835119Y-47443429D01*
X170629049Y-47512889D01*
G36*
X143895000Y-134434669D02*
G01*
X143890719Y-134478138D01*
X143895000Y-134521607D01*
X143895000Y-134521614D01*
X143907805Y-134651627D01*
X143958411Y-134818450D01*
X144040589Y-134972196D01*
X144117263Y-135065623D01*
X144075557Y-135065623D01*
X143951075Y-135077883D01*
X143831377Y-135114193D01*
X143721063Y-135173158D01*
X143624372Y-135252510D01*
X143545020Y-135349201D01*
X143486055Y-135459515D01*
X143449745Y-135579213D01*
X143437485Y-135703695D01*
X143437485Y-135968695D01*
X136958459Y-135968695D01*
X136880187Y-135960986D01*
X136880187Y-135799518D01*
X136969115Y-135799518D01*
X136969115Y-135823518D01*
X137718365Y-135823518D01*
X137877115Y-135664768D01*
X137865020Y-135558224D01*
X137826071Y-135439358D01*
X137764681Y-135330375D01*
X137683209Y-135235463D01*
X137584787Y-135158269D01*
X137473195Y-135101759D01*
X137352723Y-135068106D01*
X137228001Y-135058602D01*
X137127865Y-135061518D01*
X136969117Y-135220266D01*
X136969117Y-135061518D01*
X136877115Y-135061518D01*
X136877115Y-132225584D01*
X136881396Y-132182115D01*
X136877115Y-132138646D01*
X136877115Y-132138638D01*
X136864310Y-132008625D01*
X136845009Y-131945000D01*
X143895001Y-131945000D01*
X143895000Y-134434669D01*
G37*
X143895000Y-134434669D02*
X143890719Y-134478138D01*
X143895000Y-134521607D01*
X143895000Y-134521614D01*
X143907805Y-134651627D01*
X143958411Y-134818450D01*
X144040589Y-134972196D01*
X144117263Y-135065623D01*
X144075557Y-135065623D01*
X143951075Y-135077883D01*
X143831377Y-135114193D01*
X143721063Y-135173158D01*
X143624372Y-135252510D01*
X143545020Y-135349201D01*
X143486055Y-135459515D01*
X143449745Y-135579213D01*
X143437485Y-135703695D01*
X143437485Y-135968695D01*
X136958459Y-135968695D01*
X136880187Y-135960986D01*
X136880187Y-135799518D01*
X136969115Y-135799518D01*
X136969115Y-135823518D01*
X137718365Y-135823518D01*
X137877115Y-135664768D01*
X137865020Y-135558224D01*
X137826071Y-135439358D01*
X137764681Y-135330375D01*
X137683209Y-135235463D01*
X137584787Y-135158269D01*
X137473195Y-135101759D01*
X137352723Y-135068106D01*
X137228001Y-135058602D01*
X137127865Y-135061518D01*
X136969117Y-135220266D01*
X136969117Y-135061518D01*
X136877115Y-135061518D01*
X136877115Y-132225584D01*
X136881396Y-132182115D01*
X136877115Y-132138646D01*
X136877115Y-132138638D01*
X136864310Y-132008625D01*
X136845009Y-131945000D01*
X143895001Y-131945000D01*
X143895000Y-134434669D01*
G36*
X155642992Y-135817966D02*
G01*
X155662992Y-135817966D01*
X155662992Y-135955966D01*
X155554064Y-135955966D01*
X155554064Y-135793966D01*
X155642992Y-135793966D01*
X155642992Y-135817966D01*
G37*
X155642992Y-135817966D02*
X155662992Y-135817966D01*
X155662992Y-135955966D01*
X155554064Y-135955966D01*
X155554064Y-135793966D01*
X155642992Y-135793966D01*
X155642992Y-135817966D01*
G36*
X153844404Y-132013695D02*
G01*
X153793797Y-132180518D01*
X153776711Y-132354008D01*
X153780993Y-132397487D01*
X153780992Y-135052894D01*
X153415992Y-135052894D01*
X153291510Y-135065154D01*
X153171812Y-135101464D01*
X153061498Y-135160429D01*
X152964807Y-135239781D01*
X152885455Y-135336472D01*
X152826490Y-135446786D01*
X152790180Y-135566484D01*
X152777920Y-135690966D01*
X152777920Y-135955966D01*
X146231755Y-135955966D01*
X146213629Y-135954181D01*
X146213629Y-135806695D01*
X146302557Y-135806695D01*
X146302557Y-135830695D01*
X147051807Y-135830695D01*
X147210557Y-135671945D01*
X147198462Y-135565401D01*
X147159513Y-135446535D01*
X147098123Y-135337552D01*
X147016651Y-135242640D01*
X146918229Y-135165446D01*
X146806637Y-135108936D01*
X146686165Y-135075283D01*
X146561443Y-135065779D01*
X146461307Y-135068695D01*
X146302559Y-135227443D01*
X146302559Y-135068695D01*
X146210557Y-135068695D01*
X146210557Y-135067160D01*
X146214838Y-135023694D01*
X146210557Y-134980228D01*
X146210557Y-134980218D01*
X146197752Y-134850205D01*
X146147146Y-134683382D01*
X146064968Y-134529636D01*
X145954374Y-134394878D01*
X145920601Y-134367161D01*
X145665000Y-134111560D01*
X145665000Y-131945000D01*
X153881122Y-131945000D01*
X153844404Y-132013695D01*
G37*
X153844404Y-132013695D02*
X153793797Y-132180518D01*
X153776711Y-132354008D01*
X153780993Y-132397487D01*
X153780992Y-135052894D01*
X153415992Y-135052894D01*
X153291510Y-135065154D01*
X153171812Y-135101464D01*
X153061498Y-135160429D01*
X152964807Y-135239781D01*
X152885455Y-135336472D01*
X152826490Y-135446786D01*
X152790180Y-135566484D01*
X152777920Y-135690966D01*
X152777920Y-135955966D01*
X146231755Y-135955966D01*
X146213629Y-135954181D01*
X146213629Y-135806695D01*
X146302557Y-135806695D01*
X146302557Y-135830695D01*
X147051807Y-135830695D01*
X147210557Y-135671945D01*
X147198462Y-135565401D01*
X147159513Y-135446535D01*
X147098123Y-135337552D01*
X147016651Y-135242640D01*
X146918229Y-135165446D01*
X146806637Y-135108936D01*
X146686165Y-135075283D01*
X146561443Y-135065779D01*
X146461307Y-135068695D01*
X146302559Y-135227443D01*
X146302559Y-135068695D01*
X146210557Y-135068695D01*
X146210557Y-135067160D01*
X146214838Y-135023694D01*
X146210557Y-134980228D01*
X146210557Y-134980218D01*
X146197752Y-134850205D01*
X146147146Y-134683382D01*
X146064968Y-134529636D01*
X145954374Y-134394878D01*
X145920601Y-134367161D01*
X145665000Y-134111560D01*
X145665000Y-131945000D01*
X153881122Y-131945000D01*
X153844404Y-132013695D01*
G36*
X164094479Y-127864925D02*
G01*
X164135220Y-127877284D01*
X156519384Y-135493120D01*
X156499948Y-135433806D01*
X156438558Y-135324823D01*
X156357086Y-135229911D01*
X156258664Y-135152717D01*
X156147072Y-135096207D01*
X156026600Y-135062554D01*
X155901878Y-135053050D01*
X155801742Y-135055966D01*
X155642994Y-135214714D01*
X155642994Y-135055966D01*
X155550992Y-135055966D01*
X155550992Y-132720586D01*
X156333224Y-131938355D01*
X156432499Y-131928577D01*
X156646447Y-131863676D01*
X156843623Y-131758284D01*
X157016449Y-131616449D01*
X157051996Y-131573135D01*
X160740133Y-127885000D01*
X163670613Y-127885000D01*
X163714082Y-127889281D01*
X163757551Y-127885000D01*
X163757559Y-127885000D01*
X163887572Y-127872195D01*
X164028245Y-127829522D01*
X164094479Y-127864925D01*
G37*
X164094479Y-127864925D02*
X164135220Y-127877284D01*
X156519384Y-135493120D01*
X156499948Y-135433806D01*
X156438558Y-135324823D01*
X156357086Y-135229911D01*
X156258664Y-135152717D01*
X156147072Y-135096207D01*
X156026600Y-135062554D01*
X155901878Y-135053050D01*
X155801742Y-135055966D01*
X155642994Y-135214714D01*
X155642994Y-135055966D01*
X155550992Y-135055966D01*
X155550992Y-132720586D01*
X156333224Y-131938355D01*
X156432499Y-131928577D01*
X156646447Y-131863676D01*
X156843623Y-131758284D01*
X157016449Y-131616449D01*
X157051996Y-131573135D01*
X160740133Y-127885000D01*
X163670613Y-127885000D01*
X163714082Y-127889281D01*
X163757551Y-127885000D01*
X163757559Y-127885000D01*
X163887572Y-127872195D01*
X164028245Y-127829522D01*
X164094479Y-127864925D01*
G36*
X130951645Y-128393224D02*
G01*
X130961423Y-128492498D01*
X131026324Y-128706446D01*
X131026325Y-128706447D01*
X131131717Y-128903623D01*
X131273552Y-129076449D01*
X131316860Y-129111991D01*
X133778009Y-131573141D01*
X133813551Y-131616449D01*
X133986377Y-131758284D01*
X134183553Y-131863676D01*
X134397501Y-131928577D01*
X134496776Y-131938355D01*
X135107116Y-132548695D01*
X135107115Y-135058446D01*
X134742115Y-135058446D01*
X134617633Y-135070706D01*
X134497935Y-135107016D01*
X134387621Y-135165981D01*
X134290930Y-135245333D01*
X134211578Y-135342024D01*
X134152613Y-135452338D01*
X134140254Y-135493079D01*
X126520748Y-127873573D01*
X126577504Y-127854976D01*
X126686487Y-127793586D01*
X126781399Y-127712114D01*
X126858593Y-127613692D01*
X126915103Y-127502100D01*
X126948756Y-127381628D01*
X126958260Y-127256906D01*
X126955344Y-127156770D01*
X126796596Y-126998022D01*
X126955344Y-126998022D01*
X126955344Y-126906020D01*
X129464442Y-126906020D01*
X130951645Y-128393224D01*
G37*
X130951645Y-128393224D02*
X130961423Y-128492498D01*
X131026324Y-128706446D01*
X131026325Y-128706447D01*
X131131717Y-128903623D01*
X131273552Y-129076449D01*
X131316860Y-129111991D01*
X133778009Y-131573141D01*
X133813551Y-131616449D01*
X133986377Y-131758284D01*
X134183553Y-131863676D01*
X134397501Y-131928577D01*
X134496776Y-131938355D01*
X135107116Y-132548695D01*
X135107115Y-135058446D01*
X134742115Y-135058446D01*
X134617633Y-135070706D01*
X134497935Y-135107016D01*
X134387621Y-135165981D01*
X134290930Y-135245333D01*
X134211578Y-135342024D01*
X134152613Y-135452338D01*
X134140254Y-135493079D01*
X126520748Y-127873573D01*
X126577504Y-127854976D01*
X126686487Y-127793586D01*
X126781399Y-127712114D01*
X126858593Y-127613692D01*
X126915103Y-127502100D01*
X126948756Y-127381628D01*
X126958260Y-127256906D01*
X126955344Y-127156770D01*
X126796596Y-126998022D01*
X126955344Y-126998022D01*
X126955344Y-126906020D01*
X129464442Y-126906020D01*
X130951645Y-128393224D01*
G36*
X126217344Y-126998020D02*
G01*
X126193344Y-126998020D01*
X126193344Y-127018020D01*
X126055344Y-127018020D01*
X126055344Y-126909092D01*
X126217344Y-126909092D01*
X126217344Y-126998020D01*
G37*
X126217344Y-126998020D02*
X126193344Y-126998020D01*
X126193344Y-127018020D01*
X126055344Y-127018020D01*
X126055344Y-126909092D01*
X126217344Y-126909092D01*
X126217344Y-126998020D01*
G36*
X163697672Y-117929565D02*
G01*
X163709932Y-118054047D01*
X163746242Y-118173745D01*
X163805207Y-118284059D01*
X163884559Y-118380750D01*
X163981250Y-118460102D01*
X164091564Y-118519067D01*
X164211262Y-118555377D01*
X164335744Y-118567637D01*
X164600744Y-118567637D01*
X164600745Y-125129029D01*
X164599925Y-125137351D01*
X164158659Y-125137351D01*
X164034177Y-125149611D01*
X163914479Y-125185921D01*
X163804165Y-125244886D01*
X163707474Y-125324238D01*
X163628122Y-125420929D01*
X163569157Y-125531243D01*
X163532847Y-125650941D01*
X163520587Y-125775423D01*
X163520587Y-126047087D01*
X163498346Y-126053834D01*
X163383911Y-126115000D01*
X161155000Y-126115000D01*
X161155000Y-124789537D01*
X163700743Y-124789537D01*
X163703659Y-124889673D01*
X163862409Y-125048423D01*
X164465659Y-125048423D01*
X164465659Y-124299173D01*
X164306909Y-124140423D01*
X164200365Y-124152518D01*
X164081499Y-124191467D01*
X163972516Y-124252857D01*
X163877604Y-124334329D01*
X163800410Y-124432751D01*
X163743900Y-124544343D01*
X163710247Y-124664815D01*
X163700743Y-124789537D01*
X161155000Y-124789537D01*
X161155000Y-117564565D01*
X163697672Y-117564565D01*
X163697672Y-117929565D01*
G37*
X163697672Y-117929565D02*
X163709932Y-118054047D01*
X163746242Y-118173745D01*
X163805207Y-118284059D01*
X163884559Y-118380750D01*
X163981250Y-118460102D01*
X164091564Y-118519067D01*
X164211262Y-118555377D01*
X164335744Y-118567637D01*
X164600744Y-118567637D01*
X164600745Y-125129029D01*
X164599925Y-125137351D01*
X164158659Y-125137351D01*
X164034177Y-125149611D01*
X163914479Y-125185921D01*
X163804165Y-125244886D01*
X163707474Y-125324238D01*
X163628122Y-125420929D01*
X163569157Y-125531243D01*
X163532847Y-125650941D01*
X163520587Y-125775423D01*
X163520587Y-126047087D01*
X163498346Y-126053834D01*
X163383911Y-126115000D01*
X161155000Y-126115000D01*
X161155000Y-124789537D01*
X163700743Y-124789537D01*
X163703659Y-124889673D01*
X163862409Y-125048423D01*
X164465659Y-125048423D01*
X164465659Y-124299173D01*
X164306909Y-124140423D01*
X164200365Y-124152518D01*
X164081499Y-124191467D01*
X163972516Y-124252857D01*
X163877604Y-124334329D01*
X163800410Y-124432751D01*
X163743900Y-124544343D01*
X163710247Y-124664815D01*
X163700743Y-124789537D01*
X161155000Y-124789537D01*
X161155000Y-117564565D01*
X163697672Y-117564565D01*
X163697672Y-117929565D01*
G36*
X127177980Y-117435049D02*
G01*
X127205693Y-117468817D01*
X127239461Y-117496530D01*
X127239463Y-117496532D01*
X127314086Y-117557774D01*
X127340451Y-117579411D01*
X127494197Y-117661589D01*
X127661020Y-117712195D01*
X127791033Y-117725000D01*
X127791041Y-117725000D01*
X127834510Y-117729281D01*
X127877979Y-117725000D01*
X130945000Y-117725000D01*
X130945001Y-125674239D01*
X130945000Y-125674249D01*
X130945000Y-125883422D01*
X130487552Y-125425974D01*
X130459837Y-125392203D01*
X130325079Y-125281609D01*
X130171333Y-125199431D01*
X130004510Y-125148825D01*
X129874497Y-125136020D01*
X129874489Y-125136020D01*
X129831020Y-125131739D01*
X129787551Y-125136020D01*
X126958416Y-125136020D01*
X126958416Y-124771020D01*
X126946156Y-124646538D01*
X126909846Y-124526840D01*
X126850881Y-124416526D01*
X126771529Y-124319835D01*
X126674838Y-124240483D01*
X126564524Y-124181518D01*
X126444826Y-124145208D01*
X126320344Y-124132948D01*
X126055344Y-124132948D01*
X126055344Y-117677997D01*
X126056862Y-117662579D01*
X126203089Y-117662579D01*
X126203089Y-118411829D01*
X126361839Y-118570579D01*
X126468383Y-118558484D01*
X126587249Y-118519535D01*
X126696232Y-118458145D01*
X126791144Y-118376673D01*
X126868338Y-118278251D01*
X126924848Y-118166659D01*
X126958501Y-118046187D01*
X126968005Y-117921465D01*
X126965089Y-117821329D01*
X126806339Y-117662579D01*
X126203089Y-117662579D01*
X126056862Y-117662579D01*
X126065620Y-117573651D01*
X126510089Y-117573651D01*
X126634571Y-117561391D01*
X126754269Y-117525081D01*
X126864583Y-117466116D01*
X126961274Y-117386764D01*
X127037190Y-117294259D01*
X127177980Y-117435049D01*
G37*
X127177980Y-117435049D02*
X127205693Y-117468817D01*
X127239461Y-117496530D01*
X127239463Y-117496532D01*
X127314086Y-117557774D01*
X127340451Y-117579411D01*
X127494197Y-117661589D01*
X127661020Y-117712195D01*
X127791033Y-117725000D01*
X127791041Y-117725000D01*
X127834510Y-117729281D01*
X127877979Y-117725000D01*
X130945000Y-117725000D01*
X130945001Y-125674239D01*
X130945000Y-125674249D01*
X130945000Y-125883422D01*
X130487552Y-125425974D01*
X130459837Y-125392203D01*
X130325079Y-125281609D01*
X130171333Y-125199431D01*
X130004510Y-125148825D01*
X129874497Y-125136020D01*
X129874489Y-125136020D01*
X129831020Y-125131739D01*
X129787551Y-125136020D01*
X126958416Y-125136020D01*
X126958416Y-124771020D01*
X126946156Y-124646538D01*
X126909846Y-124526840D01*
X126850881Y-124416526D01*
X126771529Y-124319835D01*
X126674838Y-124240483D01*
X126564524Y-124181518D01*
X126444826Y-124145208D01*
X126320344Y-124132948D01*
X126055344Y-124132948D01*
X126055344Y-117677997D01*
X126056862Y-117662579D01*
X126203089Y-117662579D01*
X126203089Y-118411829D01*
X126361839Y-118570579D01*
X126468383Y-118558484D01*
X126587249Y-118519535D01*
X126696232Y-118458145D01*
X126791144Y-118376673D01*
X126868338Y-118278251D01*
X126924848Y-118166659D01*
X126958501Y-118046187D01*
X126968005Y-117921465D01*
X126965089Y-117821329D01*
X126806339Y-117662579D01*
X126203089Y-117662579D01*
X126056862Y-117662579D01*
X126065620Y-117573651D01*
X126510089Y-117573651D01*
X126634571Y-117561391D01*
X126754269Y-117525081D01*
X126864583Y-117466116D01*
X126961274Y-117386764D01*
X127037190Y-117294259D01*
X127177980Y-117435049D01*
G36*
X126213613Y-108341227D02*
G01*
X126189613Y-108341227D01*
X126189613Y-109090477D01*
X126348363Y-109249227D01*
X126454907Y-109237132D01*
X126573773Y-109198183D01*
X126682756Y-109136793D01*
X126777668Y-109055321D01*
X126854862Y-108956899D01*
X126911372Y-108845307D01*
X126945025Y-108724835D01*
X126954529Y-108600113D01*
X126953917Y-108579103D01*
X127088327Y-108689411D01*
X127242073Y-108771589D01*
X127408896Y-108822195D01*
X127538909Y-108835000D01*
X127538919Y-108835000D01*
X127582385Y-108839281D01*
X127625851Y-108835000D01*
X130945000Y-108835000D01*
X130945001Y-115955000D01*
X128201089Y-115955000D01*
X127486621Y-115240533D01*
X127458906Y-115206762D01*
X127324148Y-115096168D01*
X127170402Y-115013990D01*
X127003579Y-114963384D01*
X126873566Y-114950579D01*
X126873558Y-114950579D01*
X126830089Y-114946298D01*
X126786620Y-114950579D01*
X126740070Y-114950579D01*
X126684583Y-114905042D01*
X126574269Y-114846077D01*
X126454571Y-114809767D01*
X126330089Y-114797507D01*
X126051613Y-114797507D01*
X126051613Y-108252299D01*
X126213613Y-108252299D01*
X126213613Y-108341227D01*
G37*
X126213613Y-108341227D02*
X126189613Y-108341227D01*
X126189613Y-109090477D01*
X126348363Y-109249227D01*
X126454907Y-109237132D01*
X126573773Y-109198183D01*
X126682756Y-109136793D01*
X126777668Y-109055321D01*
X126854862Y-108956899D01*
X126911372Y-108845307D01*
X126945025Y-108724835D01*
X126954529Y-108600113D01*
X126953917Y-108579103D01*
X127088327Y-108689411D01*
X127242073Y-108771589D01*
X127408896Y-108822195D01*
X127538909Y-108835000D01*
X127538919Y-108835000D01*
X127582385Y-108839281D01*
X127625851Y-108835000D01*
X130945000Y-108835000D01*
X130945001Y-115955000D01*
X128201089Y-115955000D01*
X127486621Y-115240533D01*
X127458906Y-115206762D01*
X127324148Y-115096168D01*
X127170402Y-115013990D01*
X127003579Y-114963384D01*
X126873566Y-114950579D01*
X126873558Y-114950579D01*
X126830089Y-114946298D01*
X126786620Y-114950579D01*
X126740070Y-114950579D01*
X126684583Y-114905042D01*
X126574269Y-114846077D01*
X126454571Y-114809767D01*
X126330089Y-114797507D01*
X126051613Y-114797507D01*
X126051613Y-108252299D01*
X126213613Y-108252299D01*
X126213613Y-108341227D01*
G36*
X163752256Y-108856959D02*
G01*
X163811221Y-108967273D01*
X163890573Y-109063964D01*
X163987264Y-109143316D01*
X164097578Y-109202281D01*
X164217276Y-109238591D01*
X164341758Y-109250851D01*
X164606758Y-109250851D01*
X164606759Y-115725020D01*
X164600212Y-115791493D01*
X164438744Y-115791493D01*
X164438744Y-115702565D01*
X164462744Y-115702565D01*
X164462744Y-114953315D01*
X164303994Y-114794565D01*
X164197450Y-114806660D01*
X164078584Y-114845609D01*
X163969601Y-114906999D01*
X163874689Y-114988471D01*
X163797495Y-115086893D01*
X163740985Y-115198485D01*
X163707332Y-115318957D01*
X163697828Y-115443679D01*
X163700744Y-115543815D01*
X163859492Y-115702563D01*
X163700744Y-115702563D01*
X163700744Y-115794565D01*
X161155000Y-115794565D01*
X161155000Y-108835000D01*
X163351068Y-108835000D01*
X163394537Y-108839281D01*
X163438006Y-108835000D01*
X163438014Y-108835000D01*
X163568027Y-108822195D01*
X163727075Y-108773948D01*
X163752256Y-108856959D01*
G37*
X163752256Y-108856959D02*
X163811221Y-108967273D01*
X163890573Y-109063964D01*
X163987264Y-109143316D01*
X164097578Y-109202281D01*
X164217276Y-109238591D01*
X164341758Y-109250851D01*
X164606758Y-109250851D01*
X164606759Y-115725020D01*
X164600212Y-115791493D01*
X164438744Y-115791493D01*
X164438744Y-115702565D01*
X164462744Y-115702565D01*
X164462744Y-114953315D01*
X164303994Y-114794565D01*
X164197450Y-114806660D01*
X164078584Y-114845609D01*
X163969601Y-114906999D01*
X163874689Y-114988471D01*
X163797495Y-115086893D01*
X163740985Y-115198485D01*
X163707332Y-115318957D01*
X163697828Y-115443679D01*
X163700744Y-115543815D01*
X163859492Y-115702563D01*
X163700744Y-115702563D01*
X163700744Y-115794565D01*
X161155000Y-115794565D01*
X161155000Y-108835000D01*
X163351068Y-108835000D01*
X163394537Y-108839281D01*
X163438006Y-108835000D01*
X163438014Y-108835000D01*
X163568027Y-108822195D01*
X163727075Y-108773948D01*
X163752256Y-108856959D01*
G36*
X129675000Y-87159868D02*
G01*
X128534238Y-88300631D01*
X128455656Y-88285000D01*
X128084344Y-88285000D01*
X127720166Y-88357439D01*
X127377118Y-88499534D01*
X127068382Y-88705825D01*
X126805825Y-88968382D01*
X126599534Y-89277118D01*
X126457439Y-89620166D01*
X126385000Y-89984344D01*
X126385000Y-90355656D01*
X126457439Y-90719834D01*
X126599534Y-91062882D01*
X126805825Y-91371618D01*
X127068382Y-91634175D01*
X127135000Y-91678688D01*
X127135001Y-96464239D01*
X127129509Y-96520000D01*
X127151423Y-96742498D01*
X127216324Y-96956446D01*
X127249768Y-97019015D01*
X127321717Y-97153623D01*
X127463552Y-97326449D01*
X127506860Y-97361991D01*
X130945000Y-100800133D01*
X130945000Y-101544248D01*
X130939509Y-101600000D01*
X130945000Y-101655752D01*
X130945000Y-101686362D01*
X130918286Y-101708286D01*
X130713969Y-101957248D01*
X130562148Y-102241285D01*
X130468657Y-102549484D01*
X130437089Y-102870000D01*
X130468657Y-103190516D01*
X130562148Y-103498715D01*
X130713969Y-103782752D01*
X130918286Y-104031714D01*
X130945000Y-104053638D01*
X130945001Y-107065000D01*
X127948964Y-107065000D01*
X127653147Y-106769183D01*
X127625430Y-106735410D01*
X127490672Y-106624816D01*
X127336926Y-106542638D01*
X127170103Y-106492032D01*
X127040090Y-106479227D01*
X127040082Y-106479227D01*
X126996613Y-106474946D01*
X126954685Y-106479075D01*
X126954685Y-106114227D01*
X126942425Y-105989745D01*
X126906115Y-105870047D01*
X126847150Y-105759733D01*
X126767798Y-105663042D01*
X126671107Y-105583690D01*
X126560793Y-105524725D01*
X126441095Y-105488415D01*
X126316613Y-105476155D01*
X126059075Y-105476155D01*
X126059075Y-86682620D01*
X126197075Y-86682620D01*
X126197075Y-87431870D01*
X126355825Y-87590620D01*
X126462369Y-87578525D01*
X126581235Y-87539576D01*
X126690218Y-87478186D01*
X126785130Y-87396714D01*
X126862324Y-87298292D01*
X126918834Y-87186700D01*
X126952487Y-87066228D01*
X126961991Y-86941506D01*
X126959075Y-86841370D01*
X126800325Y-86682620D01*
X126197075Y-86682620D01*
X126059075Y-86682620D01*
X126059075Y-86593692D01*
X126504075Y-86593692D01*
X126535282Y-86590619D01*
X126640599Y-86590618D01*
X126684076Y-86594900D01*
X126857566Y-86577814D01*
X126973783Y-86542559D01*
X127024390Y-86527207D01*
X127178136Y-86445029D01*
X127254776Y-86382131D01*
X127279122Y-86362151D01*
X127279124Y-86362149D01*
X127312893Y-86334435D01*
X127340604Y-86300669D01*
X127666274Y-85975000D01*
X129675001Y-85975000D01*
X129675000Y-87159868D01*
G37*
X129675000Y-87159868D02*
X128534238Y-88300631D01*
X128455656Y-88285000D01*
X128084344Y-88285000D01*
X127720166Y-88357439D01*
X127377118Y-88499534D01*
X127068382Y-88705825D01*
X126805825Y-88968382D01*
X126599534Y-89277118D01*
X126457439Y-89620166D01*
X126385000Y-89984344D01*
X126385000Y-90355656D01*
X126457439Y-90719834D01*
X126599534Y-91062882D01*
X126805825Y-91371618D01*
X127068382Y-91634175D01*
X127135000Y-91678688D01*
X127135001Y-96464239D01*
X127129509Y-96520000D01*
X127151423Y-96742498D01*
X127216324Y-96956446D01*
X127249768Y-97019015D01*
X127321717Y-97153623D01*
X127463552Y-97326449D01*
X127506860Y-97361991D01*
X130945000Y-100800133D01*
X130945000Y-101544248D01*
X130939509Y-101600000D01*
X130945000Y-101655752D01*
X130945000Y-101686362D01*
X130918286Y-101708286D01*
X130713969Y-101957248D01*
X130562148Y-102241285D01*
X130468657Y-102549484D01*
X130437089Y-102870000D01*
X130468657Y-103190516D01*
X130562148Y-103498715D01*
X130713969Y-103782752D01*
X130918286Y-104031714D01*
X130945000Y-104053638D01*
X130945001Y-107065000D01*
X127948964Y-107065000D01*
X127653147Y-106769183D01*
X127625430Y-106735410D01*
X127490672Y-106624816D01*
X127336926Y-106542638D01*
X127170103Y-106492032D01*
X127040090Y-106479227D01*
X127040082Y-106479227D01*
X126996613Y-106474946D01*
X126954685Y-106479075D01*
X126954685Y-106114227D01*
X126942425Y-105989745D01*
X126906115Y-105870047D01*
X126847150Y-105759733D01*
X126767798Y-105663042D01*
X126671107Y-105583690D01*
X126560793Y-105524725D01*
X126441095Y-105488415D01*
X126316613Y-105476155D01*
X126059075Y-105476155D01*
X126059075Y-86682620D01*
X126197075Y-86682620D01*
X126197075Y-87431870D01*
X126355825Y-87590620D01*
X126462369Y-87578525D01*
X126581235Y-87539576D01*
X126690218Y-87478186D01*
X126785130Y-87396714D01*
X126862324Y-87298292D01*
X126918834Y-87186700D01*
X126952487Y-87066228D01*
X126961991Y-86941506D01*
X126959075Y-86841370D01*
X126800325Y-86682620D01*
X126197075Y-86682620D01*
X126059075Y-86682620D01*
X126059075Y-86593692D01*
X126504075Y-86593692D01*
X126535282Y-86590619D01*
X126640599Y-86590618D01*
X126684076Y-86594900D01*
X126857566Y-86577814D01*
X126973783Y-86542559D01*
X127024390Y-86527207D01*
X127178136Y-86445029D01*
X127254776Y-86382131D01*
X127279122Y-86362151D01*
X127279124Y-86362149D01*
X127312893Y-86334435D01*
X127340604Y-86300669D01*
X127666274Y-85975000D01*
X129675001Y-85975000D01*
X129675000Y-87159868D01*
G36*
X144434376Y-97593117D02*
G01*
X144345448Y-97593117D01*
X144345448Y-97569117D01*
X143596198Y-97569117D01*
X143437448Y-97727867D01*
X143449543Y-97834411D01*
X143488492Y-97953277D01*
X143549882Y-98062260D01*
X143631354Y-98157172D01*
X143729776Y-98234366D01*
X143841368Y-98290876D01*
X143961840Y-98324529D01*
X144086562Y-98334033D01*
X144186698Y-98331117D01*
X144345446Y-98172369D01*
X144345446Y-98331117D01*
X144437448Y-98331117D01*
X144437449Y-100465000D01*
X137073638Y-100465000D01*
X137051714Y-100438286D01*
X136875683Y-100293822D01*
X136875683Y-98317399D01*
X137240683Y-98317399D01*
X137365165Y-98305139D01*
X137484863Y-98268829D01*
X137595177Y-98209864D01*
X137691868Y-98130512D01*
X137771220Y-98033821D01*
X137830185Y-97923507D01*
X137866495Y-97803809D01*
X137878755Y-97679327D01*
X137878755Y-97431117D01*
X144434376Y-97431117D01*
X144434376Y-97593117D01*
G37*
X144434376Y-97593117D02*
X144345448Y-97593117D01*
X144345448Y-97569117D01*
X143596198Y-97569117D01*
X143437448Y-97727867D01*
X143449543Y-97834411D01*
X143488492Y-97953277D01*
X143549882Y-98062260D01*
X143631354Y-98157172D01*
X143729776Y-98234366D01*
X143841368Y-98290876D01*
X143961840Y-98324529D01*
X144086562Y-98334033D01*
X144186698Y-98331117D01*
X144345446Y-98172369D01*
X144345446Y-98331117D01*
X144437448Y-98331117D01*
X144437449Y-100465000D01*
X137073638Y-100465000D01*
X137051714Y-100438286D01*
X136875683Y-100293822D01*
X136875683Y-98317399D01*
X137240683Y-98317399D01*
X137365165Y-98305139D01*
X137484863Y-98268829D01*
X137595177Y-98209864D01*
X137691868Y-98130512D01*
X137771220Y-98033821D01*
X137830185Y-97923507D01*
X137866495Y-97803809D01*
X137878755Y-97679327D01*
X137878755Y-97431117D01*
X144434376Y-97431117D01*
X144434376Y-97593117D01*
G36*
X152786419Y-97556329D02*
G01*
X152941167Y-97556329D01*
X152786419Y-97711077D01*
X152798514Y-97817621D01*
X152837463Y-97936487D01*
X152898853Y-98045470D01*
X152980325Y-98140382D01*
X153078747Y-98217576D01*
X153190339Y-98274086D01*
X153310811Y-98307739D01*
X153435533Y-98317243D01*
X153535669Y-98314327D01*
X153694417Y-98155579D01*
X153694417Y-98314327D01*
X153786419Y-98314327D01*
X153786420Y-100465000D01*
X146207448Y-100465000D01*
X146207448Y-98334189D01*
X146572448Y-98334189D01*
X146696930Y-98321929D01*
X146816628Y-98285619D01*
X146926942Y-98226654D01*
X147023633Y-98147302D01*
X147102985Y-98050611D01*
X147161950Y-97940297D01*
X147198260Y-97820599D01*
X147210520Y-97696117D01*
X147210520Y-97431117D01*
X152786419Y-97431117D01*
X152786419Y-97556329D01*
G37*
X152786419Y-97556329D02*
X152941167Y-97556329D01*
X152786419Y-97711077D01*
X152798514Y-97817621D01*
X152837463Y-97936487D01*
X152898853Y-98045470D01*
X152980325Y-98140382D01*
X153078747Y-98217576D01*
X153190339Y-98274086D01*
X153310811Y-98307739D01*
X153435533Y-98317243D01*
X153535669Y-98314327D01*
X153694417Y-98155579D01*
X153694417Y-98314327D01*
X153786419Y-98314327D01*
X153786420Y-100465000D01*
X146207448Y-100465000D01*
X146207448Y-98334189D01*
X146572448Y-98334189D01*
X146696930Y-98321929D01*
X146816628Y-98285619D01*
X146926942Y-98226654D01*
X147023633Y-98147302D01*
X147102985Y-98050611D01*
X147161950Y-97940297D01*
X147198260Y-97820599D01*
X147210520Y-97696117D01*
X147210520Y-97431117D01*
X152786419Y-97431117D01*
X152786419Y-97556329D01*
G36*
X131195001Y-94325165D02*
G01*
X131190719Y-94368644D01*
X131207805Y-94542134D01*
X131258412Y-94708957D01*
X131340590Y-94862703D01*
X131423468Y-94963690D01*
X131423471Y-94963693D01*
X131451184Y-94997461D01*
X131484951Y-95025173D01*
X133584153Y-97124376D01*
X133611866Y-97158144D01*
X133645634Y-97185857D01*
X133645636Y-97185859D01*
X133666068Y-97202627D01*
X133746624Y-97268738D01*
X133900370Y-97350916D01*
X134067193Y-97401522D01*
X134197206Y-97414327D01*
X134197216Y-97414327D01*
X134240682Y-97418608D01*
X134284148Y-97414327D01*
X135102611Y-97414327D01*
X135102611Y-97576327D01*
X135013683Y-97576327D01*
X135013683Y-97552327D01*
X134264433Y-97552327D01*
X134105683Y-97711077D01*
X134117778Y-97817621D01*
X134156727Y-97936487D01*
X134218117Y-98045470D01*
X134299589Y-98140382D01*
X134398011Y-98217576D01*
X134509603Y-98274086D01*
X134630075Y-98307739D01*
X134754797Y-98317243D01*
X134854933Y-98314327D01*
X135013681Y-98155579D01*
X135013681Y-98314327D01*
X135105683Y-98314327D01*
X135105684Y-99965000D01*
X133430319Y-99965000D01*
X133350000Y-99957089D01*
X133315608Y-99960476D01*
X132921996Y-99566865D01*
X132886449Y-99523551D01*
X132843145Y-99488012D01*
X129405000Y-96049869D01*
X129405000Y-91678688D01*
X129471618Y-91634175D01*
X129734175Y-91371618D01*
X129940466Y-91062882D01*
X130082561Y-90719834D01*
X130155000Y-90355656D01*
X130155000Y-89984344D01*
X130139369Y-89905762D01*
X131195001Y-88850131D01*
X131195001Y-94325165D01*
G37*
X131195001Y-94325165D02*
X131190719Y-94368644D01*
X131207805Y-94542134D01*
X131258412Y-94708957D01*
X131340590Y-94862703D01*
X131423468Y-94963690D01*
X131423471Y-94963693D01*
X131451184Y-94997461D01*
X131484951Y-95025173D01*
X133584153Y-97124376D01*
X133611866Y-97158144D01*
X133645634Y-97185857D01*
X133645636Y-97185859D01*
X133666068Y-97202627D01*
X133746624Y-97268738D01*
X133900370Y-97350916D01*
X134067193Y-97401522D01*
X134197206Y-97414327D01*
X134197216Y-97414327D01*
X134240682Y-97418608D01*
X134284148Y-97414327D01*
X135102611Y-97414327D01*
X135102611Y-97576327D01*
X135013683Y-97576327D01*
X135013683Y-97552327D01*
X134264433Y-97552327D01*
X134105683Y-97711077D01*
X134117778Y-97817621D01*
X134156727Y-97936487D01*
X134218117Y-98045470D01*
X134299589Y-98140382D01*
X134398011Y-98217576D01*
X134509603Y-98274086D01*
X134630075Y-98307739D01*
X134754797Y-98317243D01*
X134854933Y-98314327D01*
X135013681Y-98155579D01*
X135013681Y-98314327D01*
X135105683Y-98314327D01*
X135105684Y-99965000D01*
X133430319Y-99965000D01*
X133350000Y-99957089D01*
X133315608Y-99960476D01*
X132921996Y-99566865D01*
X132886449Y-99523551D01*
X132843145Y-99488012D01*
X129405000Y-96049869D01*
X129405000Y-91678688D01*
X129471618Y-91634175D01*
X129734175Y-91371618D01*
X129940466Y-91062882D01*
X130082561Y-90719834D01*
X130155000Y-90355656D01*
X130155000Y-89984344D01*
X130139369Y-89905762D01*
X131195001Y-88850131D01*
X131195001Y-94325165D01*
G36*
X153783347Y-97433302D02*
G01*
X153783347Y-97576327D01*
X153694419Y-97576327D01*
X153694419Y-97552327D01*
X153674419Y-97552327D01*
X153674419Y-97431117D01*
X153761160Y-97431117D01*
X153783347Y-97433302D01*
G37*
X153783347Y-97433302D02*
X153783347Y-97576327D01*
X153694419Y-97576327D01*
X153694419Y-97552327D01*
X153674419Y-97552327D01*
X153674419Y-97431117D01*
X153761160Y-97431117D01*
X153783347Y-97433302D01*
G36*
X163700577Y-77621005D02*
G01*
X163712837Y-77745487D01*
X163749147Y-77865185D01*
X163808112Y-77975499D01*
X163887464Y-78072190D01*
X163984155Y-78151542D01*
X164094469Y-78210507D01*
X164214167Y-78246817D01*
X164338649Y-78259077D01*
X164603649Y-78259077D01*
X164603650Y-84809032D01*
X164602975Y-84815887D01*
X164160097Y-84815887D01*
X164128890Y-84818960D01*
X164023573Y-84818961D01*
X163980096Y-84814679D01*
X163806606Y-84831765D01*
X163639782Y-84882371D01*
X163486037Y-84964549D01*
X163385049Y-85047428D01*
X163385042Y-85047435D01*
X163351279Y-85075144D01*
X163323572Y-85108905D01*
X162957478Y-85475000D01*
X161155000Y-85475000D01*
X161155000Y-84468073D01*
X163702181Y-84468073D01*
X163705097Y-84568209D01*
X163863847Y-84726959D01*
X164467097Y-84726959D01*
X164467097Y-83977709D01*
X164308347Y-83818959D01*
X164201803Y-83831054D01*
X164082937Y-83870003D01*
X163973954Y-83931393D01*
X163879042Y-84012865D01*
X163801848Y-84111287D01*
X163745338Y-84222879D01*
X163711685Y-84343351D01*
X163702181Y-84468073D01*
X161155000Y-84468073D01*
X161155000Y-77256005D01*
X163700577Y-77256005D01*
X163700577Y-77621005D01*
G37*
X163700577Y-77621005D02*
X163712837Y-77745487D01*
X163749147Y-77865185D01*
X163808112Y-77975499D01*
X163887464Y-78072190D01*
X163984155Y-78151542D01*
X164094469Y-78210507D01*
X164214167Y-78246817D01*
X164338649Y-78259077D01*
X164603649Y-78259077D01*
X164603650Y-84809032D01*
X164602975Y-84815887D01*
X164160097Y-84815887D01*
X164128890Y-84818960D01*
X164023573Y-84818961D01*
X163980096Y-84814679D01*
X163806606Y-84831765D01*
X163639782Y-84882371D01*
X163486037Y-84964549D01*
X163385049Y-85047428D01*
X163385042Y-85047435D01*
X163351279Y-85075144D01*
X163323572Y-85108905D01*
X162957478Y-85475000D01*
X161155000Y-85475000D01*
X161155000Y-84468073D01*
X163702181Y-84468073D01*
X163705097Y-84568209D01*
X163863847Y-84726959D01*
X164467097Y-84726959D01*
X164467097Y-83977709D01*
X164308347Y-83818959D01*
X164201803Y-83831054D01*
X164082937Y-83870003D01*
X163973954Y-83931393D01*
X163879042Y-84012865D01*
X163801848Y-84111287D01*
X163745338Y-84222879D01*
X163711685Y-84343351D01*
X163702181Y-84468073D01*
X161155000Y-84468073D01*
X161155000Y-77256005D01*
X163700577Y-77256005D01*
X163700577Y-77621005D01*
G36*
X129675000Y-84205000D02*
G01*
X127343164Y-84205000D01*
X127299695Y-84200719D01*
X127256226Y-84205000D01*
X127256218Y-84205000D01*
X127126205Y-84217805D01*
X126959382Y-84268411D01*
X126934838Y-84281530D01*
X126913577Y-84211440D01*
X126854612Y-84101126D01*
X126775260Y-84004435D01*
X126678569Y-83925083D01*
X126568255Y-83866118D01*
X126448557Y-83829808D01*
X126324075Y-83817548D01*
X126055776Y-83817548D01*
X126055776Y-77254327D01*
X126217776Y-77254327D01*
X126217776Y-77343255D01*
X126193776Y-77343255D01*
X126193776Y-78092505D01*
X126352526Y-78251255D01*
X126459070Y-78239160D01*
X126577936Y-78200211D01*
X126686919Y-78138821D01*
X126781831Y-78057349D01*
X126859025Y-77958927D01*
X126915535Y-77847335D01*
X126949188Y-77726863D01*
X126958692Y-77602141D01*
X126955776Y-77502005D01*
X126797028Y-77343257D01*
X126955776Y-77343257D01*
X126955776Y-77251255D01*
X129675001Y-77251255D01*
X129675000Y-84205000D01*
G37*
X129675000Y-84205000D02*
X127343164Y-84205000D01*
X127299695Y-84200719D01*
X127256226Y-84205000D01*
X127256218Y-84205000D01*
X127126205Y-84217805D01*
X126959382Y-84268411D01*
X126934838Y-84281530D01*
X126913577Y-84211440D01*
X126854612Y-84101126D01*
X126775260Y-84004435D01*
X126678569Y-83925083D01*
X126568255Y-83866118D01*
X126448557Y-83829808D01*
X126324075Y-83817548D01*
X126055776Y-83817548D01*
X126055776Y-77254327D01*
X126217776Y-77254327D01*
X126217776Y-77343255D01*
X126193776Y-77343255D01*
X126193776Y-78092505D01*
X126352526Y-78251255D01*
X126459070Y-78239160D01*
X126577936Y-78200211D01*
X126686919Y-78138821D01*
X126781831Y-78057349D01*
X126859025Y-77958927D01*
X126915535Y-77847335D01*
X126949188Y-77726863D01*
X126958692Y-77602141D01*
X126955776Y-77502005D01*
X126797028Y-77343257D01*
X126955776Y-77343257D01*
X126955776Y-77251255D01*
X129675001Y-77251255D01*
X129675000Y-84205000D01*
G36*
X163712835Y-68275247D02*
G01*
X163725095Y-68399729D01*
X163761405Y-68519427D01*
X163820370Y-68629741D01*
X163899722Y-68726432D01*
X163996413Y-68805784D01*
X164106727Y-68864749D01*
X164226425Y-68901059D01*
X164350907Y-68913319D01*
X164615907Y-68913319D01*
X164615908Y-75353059D01*
X164603117Y-75482933D01*
X164441649Y-75482933D01*
X164441649Y-75394005D01*
X164465649Y-75394005D01*
X164465649Y-74644755D01*
X164306899Y-74486005D01*
X164200355Y-74498100D01*
X164081489Y-74537049D01*
X163972506Y-74598439D01*
X163877594Y-74679911D01*
X163800400Y-74778333D01*
X163743890Y-74889925D01*
X163710237Y-75010397D01*
X163700733Y-75135119D01*
X163703649Y-75235255D01*
X163862397Y-75394003D01*
X163703649Y-75394003D01*
X163703649Y-75486005D01*
X161155000Y-75486005D01*
X161155000Y-67910247D01*
X163712835Y-67910247D01*
X163712835Y-68275247D01*
G37*
X163712835Y-68275247D02*
X163725095Y-68399729D01*
X163761405Y-68519427D01*
X163820370Y-68629741D01*
X163899722Y-68726432D01*
X163996413Y-68805784D01*
X164106727Y-68864749D01*
X164226425Y-68901059D01*
X164350907Y-68913319D01*
X164615907Y-68913319D01*
X164615908Y-75353059D01*
X164603117Y-75482933D01*
X164441649Y-75482933D01*
X164441649Y-75394005D01*
X164465649Y-75394005D01*
X164465649Y-74644755D01*
X164306899Y-74486005D01*
X164200355Y-74498100D01*
X164081489Y-74537049D01*
X163972506Y-74598439D01*
X163877594Y-74679911D01*
X163800400Y-74778333D01*
X163743890Y-74889925D01*
X163710237Y-75010397D01*
X163700733Y-75135119D01*
X163703649Y-75235255D01*
X163862397Y-75394003D01*
X163703649Y-75394003D01*
X163703649Y-75486005D01*
X161155000Y-75486005D01*
X161155000Y-67910247D01*
X163712835Y-67910247D01*
X163712835Y-68275247D01*
G36*
X128591717Y-67943622D02*
G01*
X128698012Y-68073143D01*
X129675001Y-69050133D01*
X129675000Y-75481255D01*
X126958848Y-75481255D01*
X126958848Y-75116255D01*
X126946588Y-74991773D01*
X126910278Y-74872075D01*
X126851313Y-74761761D01*
X126771961Y-74665070D01*
X126675270Y-74585718D01*
X126564956Y-74526753D01*
X126445258Y-74490443D01*
X126320776Y-74478183D01*
X126059751Y-74478183D01*
X126059751Y-67928617D01*
X126221751Y-67928617D01*
X126221751Y-68017545D01*
X126197751Y-68017545D01*
X126197751Y-68766795D01*
X126356501Y-68925545D01*
X126463045Y-68913450D01*
X126581911Y-68874501D01*
X126690894Y-68813111D01*
X126785806Y-68731639D01*
X126863000Y-68633217D01*
X126919510Y-68521625D01*
X126953163Y-68401153D01*
X126962667Y-68276431D01*
X126959751Y-68176295D01*
X126801003Y-68017547D01*
X126959751Y-68017547D01*
X126959751Y-67925545D01*
X128582055Y-67925545D01*
X128591717Y-67943622D01*
G37*
X128591717Y-67943622D02*
X128698012Y-68073143D01*
X129675001Y-69050133D01*
X129675000Y-75481255D01*
X126958848Y-75481255D01*
X126958848Y-75116255D01*
X126946588Y-74991773D01*
X126910278Y-74872075D01*
X126851313Y-74761761D01*
X126771961Y-74665070D01*
X126675270Y-74585718D01*
X126564956Y-74526753D01*
X126445258Y-74490443D01*
X126320776Y-74478183D01*
X126059751Y-74478183D01*
X126059751Y-67928617D01*
X126221751Y-67928617D01*
X126221751Y-68017545D01*
X126197751Y-68017545D01*
X126197751Y-68766795D01*
X126356501Y-68925545D01*
X126463045Y-68913450D01*
X126581911Y-68874501D01*
X126690894Y-68813111D01*
X126785806Y-68731639D01*
X126863000Y-68633217D01*
X126919510Y-68521625D01*
X126953163Y-68401153D01*
X126962667Y-68276431D01*
X126959751Y-68176295D01*
X126801003Y-68017547D01*
X126959751Y-68017547D01*
X126959751Y-67925545D01*
X128582055Y-67925545D01*
X128591717Y-67943622D01*
G36*
X164147695Y-65173614D02*
G01*
X164093747Y-65191291D01*
X163984764Y-65252681D01*
X163889852Y-65334153D01*
X163812658Y-65432575D01*
X163756148Y-65544167D01*
X163722495Y-65664639D01*
X163712991Y-65789361D01*
X163715907Y-65889497D01*
X163874655Y-66048245D01*
X163715907Y-66048245D01*
X163715907Y-66140247D01*
X161155000Y-66140247D01*
X161155000Y-64825752D01*
X161160491Y-64770000D01*
X161149466Y-64658055D01*
X161138577Y-64547501D01*
X161073676Y-64333553D01*
X160968284Y-64136377D01*
X160962080Y-64128817D01*
X160861989Y-64006856D01*
X160861987Y-64006854D01*
X160826449Y-63963551D01*
X160783146Y-63928013D01*
X157051996Y-60196865D01*
X157016449Y-60153551D01*
X156843623Y-60011716D01*
X156646447Y-59906324D01*
X156432499Y-59841423D01*
X156333224Y-59831645D01*
X155556419Y-59054841D01*
X155556419Y-58010089D01*
X155921419Y-58010089D01*
X156045901Y-57997829D01*
X156165599Y-57961519D01*
X156275913Y-57902554D01*
X156372604Y-57823202D01*
X156451956Y-57726511D01*
X156510921Y-57616197D01*
X156529391Y-57555309D01*
X164147695Y-65173614D01*
G37*
X164147695Y-65173614D02*
X164093747Y-65191291D01*
X163984764Y-65252681D01*
X163889852Y-65334153D01*
X163812658Y-65432575D01*
X163756148Y-65544167D01*
X163722495Y-65664639D01*
X163712991Y-65789361D01*
X163715907Y-65889497D01*
X163874655Y-66048245D01*
X163715907Y-66048245D01*
X163715907Y-66140247D01*
X161155000Y-66140247D01*
X161155000Y-64825752D01*
X161160491Y-64770000D01*
X161149466Y-64658055D01*
X161138577Y-64547501D01*
X161073676Y-64333553D01*
X160968284Y-64136377D01*
X160962080Y-64128817D01*
X160861989Y-64006856D01*
X160861987Y-64006854D01*
X160826449Y-63963551D01*
X160783146Y-63928013D01*
X157051996Y-60196865D01*
X157016449Y-60153551D01*
X156843623Y-60011716D01*
X156646447Y-59906324D01*
X156432499Y-59841423D01*
X156333224Y-59831645D01*
X155556419Y-59054841D01*
X155556419Y-58010089D01*
X155921419Y-58010089D01*
X156045901Y-57997829D01*
X156165599Y-57961519D01*
X156275913Y-57902554D01*
X156372604Y-57823202D01*
X156451956Y-57726511D01*
X156510921Y-57616197D01*
X156529391Y-57555309D01*
X164147695Y-65173614D01*
G36*
X164615907Y-66137175D02*
G01*
X164453907Y-66137175D01*
X164453907Y-66048247D01*
X164477907Y-66048247D01*
X164477907Y-66028247D01*
X164615907Y-66028247D01*
X164615907Y-66137175D01*
G37*
X164615907Y-66137175D02*
X164453907Y-66137175D01*
X164453907Y-66048247D01*
X164477907Y-66048247D01*
X164477907Y-66028247D01*
X164615907Y-66028247D01*
X164615907Y-66137175D01*
G36*
X144314628Y-57094174D02*
G01*
X144450046Y-57107511D01*
X144450046Y-57268980D01*
X144361118Y-57268980D01*
X144361118Y-57244980D01*
X143611868Y-57244980D01*
X143453118Y-57403730D01*
X143465213Y-57510274D01*
X143504162Y-57629140D01*
X143565552Y-57738123D01*
X143647024Y-57833035D01*
X143745446Y-57910229D01*
X143857038Y-57966739D01*
X143977510Y-58000392D01*
X144102232Y-58009896D01*
X144202368Y-58006980D01*
X144361116Y-57848232D01*
X144361116Y-58006980D01*
X144453119Y-58006980D01*
X144453119Y-58008502D01*
X144448837Y-58051980D01*
X144465923Y-58225470D01*
X144516530Y-58392293D01*
X144598708Y-58546039D01*
X144681586Y-58647026D01*
X144681589Y-58647029D01*
X144709302Y-58680797D01*
X144743069Y-58708509D01*
X145165000Y-59130441D01*
X145165000Y-59825000D01*
X137089436Y-59825000D01*
X137060391Y-59789609D01*
X136888941Y-59648903D01*
X136888941Y-57985060D01*
X137253941Y-57985060D01*
X137378423Y-57972800D01*
X137498121Y-57936490D01*
X137608435Y-57877525D01*
X137705126Y-57798173D01*
X137784478Y-57701482D01*
X137843443Y-57591168D01*
X137879753Y-57471470D01*
X137892013Y-57346988D01*
X137892013Y-57081988D01*
X144274457Y-57081988D01*
X144314628Y-57094174D01*
G37*
X144314628Y-57094174D02*
X144450046Y-57107511D01*
X144450046Y-57268980D01*
X144361118Y-57268980D01*
X144361118Y-57244980D01*
X143611868Y-57244980D01*
X143453118Y-57403730D01*
X143465213Y-57510274D01*
X143504162Y-57629140D01*
X143565552Y-57738123D01*
X143647024Y-57833035D01*
X143745446Y-57910229D01*
X143857038Y-57966739D01*
X143977510Y-58000392D01*
X144102232Y-58009896D01*
X144202368Y-58006980D01*
X144361116Y-57848232D01*
X144361116Y-58006980D01*
X144453119Y-58006980D01*
X144453119Y-58008502D01*
X144448837Y-58051980D01*
X144465923Y-58225470D01*
X144516530Y-58392293D01*
X144598708Y-58546039D01*
X144681586Y-58647026D01*
X144681589Y-58647029D01*
X144709302Y-58680797D01*
X144743069Y-58708509D01*
X145165000Y-59130441D01*
X145165000Y-59825000D01*
X137089436Y-59825000D01*
X137060391Y-59789609D01*
X136888941Y-59648903D01*
X136888941Y-57985060D01*
X137253941Y-57985060D01*
X137378423Y-57972800D01*
X137498121Y-57936490D01*
X137608435Y-57877525D01*
X137705126Y-57798173D01*
X137784478Y-57701482D01*
X137843443Y-57591168D01*
X137879753Y-57471470D01*
X137892013Y-57346988D01*
X137892013Y-57081988D01*
X144274457Y-57081988D01*
X144314628Y-57094174D01*
G36*
X153783347Y-57107548D02*
G01*
X153783347Y-57269017D01*
X153694419Y-57269017D01*
X153694419Y-57245017D01*
X152945169Y-57245017D01*
X152786419Y-57403767D01*
X152798514Y-57510311D01*
X152837463Y-57629177D01*
X152898853Y-57738160D01*
X152980325Y-57833072D01*
X153078747Y-57910266D01*
X153190339Y-57966776D01*
X153310811Y-58000429D01*
X153435533Y-58009933D01*
X153535669Y-58007017D01*
X153694417Y-57848269D01*
X153694417Y-58007017D01*
X153786419Y-58007017D01*
X153786420Y-59377940D01*
X153782138Y-59421419D01*
X153799224Y-59594909D01*
X153849831Y-59761732D01*
X153883648Y-59825000D01*
X146935000Y-59825000D01*
X146935000Y-58807327D01*
X146939281Y-58763861D01*
X146935000Y-58720395D01*
X146935000Y-58720385D01*
X146922195Y-58590372D01*
X146871589Y-58423549D01*
X146789411Y-58269803D01*
X146723991Y-58190089D01*
X146706532Y-58168815D01*
X146706530Y-58168813D01*
X146678817Y-58135045D01*
X146645050Y-58107333D01*
X146547769Y-58010052D01*
X146588118Y-58010052D01*
X146712600Y-57997792D01*
X146832298Y-57961482D01*
X146942612Y-57902517D01*
X147039303Y-57823165D01*
X147118655Y-57726474D01*
X147177620Y-57616160D01*
X147213930Y-57496462D01*
X147226190Y-57371980D01*
X147226190Y-57106980D01*
X153777576Y-57106980D01*
X153783347Y-57107548D01*
G37*
X153783347Y-57107548D02*
X153783347Y-57269017D01*
X153694419Y-57269017D01*
X153694419Y-57245017D01*
X152945169Y-57245017D01*
X152786419Y-57403767D01*
X152798514Y-57510311D01*
X152837463Y-57629177D01*
X152898853Y-57738160D01*
X152980325Y-57833072D01*
X153078747Y-57910266D01*
X153190339Y-57966776D01*
X153310811Y-58000429D01*
X153435533Y-58009933D01*
X153535669Y-58007017D01*
X153694417Y-57848269D01*
X153694417Y-58007017D01*
X153786419Y-58007017D01*
X153786420Y-59377940D01*
X153782138Y-59421419D01*
X153799224Y-59594909D01*
X153849831Y-59761732D01*
X153883648Y-59825000D01*
X146935000Y-59825000D01*
X146935000Y-58807327D01*
X146939281Y-58763861D01*
X146935000Y-58720395D01*
X146935000Y-58720385D01*
X146922195Y-58590372D01*
X146871589Y-58423549D01*
X146789411Y-58269803D01*
X146723991Y-58190089D01*
X146706532Y-58168815D01*
X146706530Y-58168813D01*
X146678817Y-58135045D01*
X146645050Y-58107333D01*
X146547769Y-58010052D01*
X146588118Y-58010052D01*
X146712600Y-57997792D01*
X146832298Y-57961482D01*
X146942612Y-57902517D01*
X147039303Y-57823165D01*
X147118655Y-57726474D01*
X147177620Y-57616160D01*
X147213930Y-57496462D01*
X147226190Y-57371980D01*
X147226190Y-57106980D01*
X153777576Y-57106980D01*
X153783347Y-57107548D01*
M02*
