G04 #@! TF.GenerationSoftware,KiCad,Pcbnew,5.1.5-1.fc31*
G04 #@! TF.CreationDate,2020-02-18T03:07:30-08:00*
G04 #@! TF.ProjectId,apa102_7seg_digit,61706131-3032-45f3-9773-65675f646967,rev?*
G04 #@! TF.SameCoordinates,Original*
G04 #@! TF.FileFunction,Copper,L2,Bot*
G04 #@! TF.FilePolarity,Positive*
%FSLAX46Y46*%
G04 Gerber Fmt 4.6, Leading zero omitted, Abs format (unit mm)*
G04 Created by KiCad (PCBNEW 5.1.5-1.fc31) date 2020-02-18 03:07:30*
%MOMM*%
%LPD*%
G04 APERTURE LIST*
%ADD10C,5.500000*%
%ADD11O,1.700000X1.700000*%
%ADD12R,1.700000X1.700000*%
%ADD13C,2.500000*%
%ADD14C,1.000000*%
%ADD15C,2.000000*%
%ADD16C,0.750000*%
%ADD17C,0.500000*%
%ADD18C,0.254000*%
G04 APERTURE END LIST*
D10*
X169908037Y-141127852D03*
X120699951Y-141182669D03*
X120759647Y-51930503D03*
X169780779Y-51791620D03*
D11*
X118482760Y-92731490D03*
X118482760Y-95271490D03*
X118482760Y-97811490D03*
D12*
X118482760Y-100351490D03*
X172092220Y-92708431D03*
D11*
X172092220Y-95248431D03*
X172092220Y-97788431D03*
X172092220Y-100328431D03*
D13*
X128270000Y-110490000D03*
X128270000Y-119380000D03*
X129540000Y-128270000D03*
X138430000Y-133350000D03*
X147320000Y-133350000D03*
X156365992Y-133350000D03*
X162560000Y-123190000D03*
X162560000Y-114300000D03*
X162560000Y-105410000D03*
X151130000Y-99060000D03*
X140970488Y-99650000D03*
X133458859Y-98951141D03*
X162560000Y-88900000D03*
X152400000Y-59010000D03*
X142240000Y-59010000D03*
X162560000Y-64770000D03*
X162560000Y-73660000D03*
X162560000Y-82550000D03*
X128270000Y-69850000D03*
X128270000Y-80010000D03*
X128351930Y-86790000D03*
X131592082Y-61877918D03*
X160020000Y-91440000D03*
X128270000Y-90170000D03*
D14*
X158750000Y-95250000D03*
X160020000Y-96520000D03*
D15*
X118505819Y-100328431D02*
X118482760Y-100351490D01*
X172092220Y-100328431D02*
X162561569Y-100328431D01*
X162561569Y-126998431D02*
X156210000Y-133350000D01*
X128270000Y-110490000D02*
X128270000Y-102870000D01*
X128270000Y-127000000D02*
X128270000Y-119380000D01*
X128270000Y-119380000D02*
X128270000Y-110490000D01*
X134620000Y-133350000D02*
X129540000Y-128270000D01*
X129540000Y-128270000D02*
X128270000Y-127000000D01*
X138430000Y-133350000D02*
X134620000Y-133350000D01*
X156210000Y-133350000D02*
X147320000Y-133350000D01*
X147320000Y-133350000D02*
X138430000Y-133350000D01*
X162560000Y-123190000D02*
X162561569Y-126998431D01*
X162560000Y-114300000D02*
X162560000Y-123190000D01*
X162561569Y-100328431D02*
X162560000Y-105410000D01*
X162560000Y-105410000D02*
X162560000Y-114300000D01*
D16*
X151130000Y-99060000D02*
X151130000Y-100330000D01*
D15*
X162561569Y-100328431D02*
X151130000Y-100330000D01*
D16*
X134708858Y-100241142D02*
X134620000Y-100330000D01*
X134708858Y-100201140D02*
X134708858Y-100241142D01*
D15*
X151130000Y-100330000D02*
X134620000Y-100330000D01*
D16*
X133458859Y-98951141D02*
X134708858Y-100201140D01*
D15*
X134620000Y-100330000D02*
X128270000Y-100330000D01*
X128270000Y-102870000D02*
X128270000Y-100330000D01*
X128270000Y-100330000D02*
X118505819Y-100328431D01*
X162560000Y-64770000D02*
X157480000Y-59690000D01*
X157480000Y-59690000D02*
X133350000Y-59690000D01*
X133350000Y-59690000D02*
X128270000Y-64770000D01*
X162560000Y-73660000D02*
X162560000Y-64770000D01*
X162560000Y-88900000D02*
X162560000Y-82550000D01*
X162560000Y-82550000D02*
X162560000Y-73660000D01*
X128270000Y-64770000D02*
X128270000Y-69850000D01*
X128270000Y-69850000D02*
X128270000Y-80010000D01*
X128270000Y-80010000D02*
X128270000Y-86360000D01*
X129540000Y-91440000D02*
X128270000Y-90170000D01*
X160020000Y-91440000D02*
X129540000Y-91440000D01*
X121044250Y-90170000D02*
X118482760Y-92731490D01*
X128270000Y-90170000D02*
X121044250Y-90170000D01*
X161288431Y-92708431D02*
X160020000Y-91440000D01*
X172092220Y-92708431D02*
X161288431Y-92708431D01*
D17*
X172090651Y-95250000D02*
X172092220Y-95248431D01*
X158750000Y-95250000D02*
X172090651Y-95250000D01*
X161288431Y-97788431D02*
X172092220Y-97788431D01*
X160020000Y-96520000D02*
X161288431Y-97788431D01*
D18*
G36*
X161214768Y-90274374D02*
G01*
X162470197Y-91529803D01*
X162489443Y-91545597D01*
X162511399Y-91557333D01*
X162535224Y-91564560D01*
X162560000Y-91567000D01*
X162575752Y-91566019D01*
X172727904Y-90297000D01*
X173863000Y-90297000D01*
X173863000Y-93853000D01*
X172603843Y-93853000D01*
X172525378Y-93820499D01*
X172238480Y-93763431D01*
X171945960Y-93763431D01*
X171659062Y-93820499D01*
X171580597Y-93853000D01*
X118938713Y-93853000D01*
X118915918Y-93843558D01*
X118629020Y-93786490D01*
X118336500Y-93786490D01*
X118049602Y-93843558D01*
X118026807Y-93853000D01*
X116967000Y-93853000D01*
X116967000Y-91507968D01*
X120688452Y-89027000D01*
X158720020Y-89027000D01*
X161214768Y-90274374D01*
G37*
X161214768Y-90274374D02*
X162470197Y-91529803D01*
X162489443Y-91545597D01*
X162511399Y-91557333D01*
X162535224Y-91564560D01*
X162560000Y-91567000D01*
X162575752Y-91566019D01*
X172727904Y-90297000D01*
X173863000Y-90297000D01*
X173863000Y-93853000D01*
X172603843Y-93853000D01*
X172525378Y-93820499D01*
X172238480Y-93763431D01*
X171945960Y-93763431D01*
X171659062Y-93820499D01*
X171580597Y-93853000D01*
X118938713Y-93853000D01*
X118915918Y-93843558D01*
X118629020Y-93786490D01*
X118336500Y-93786490D01*
X118049602Y-93843558D01*
X118026807Y-93853000D01*
X116967000Y-93853000D01*
X116967000Y-91507968D01*
X120688452Y-89027000D01*
X158720020Y-89027000D01*
X161214768Y-90274374D01*
G36*
X170629049Y-47512889D02*
G01*
X171367724Y-47710816D01*
X172060814Y-48034009D01*
X172687254Y-48472647D01*
X173228002Y-49013396D01*
X173666640Y-49639836D01*
X173863000Y-50060931D01*
X173863000Y-142210020D01*
X172669789Y-144596442D01*
X172060814Y-145022851D01*
X171367724Y-145346044D01*
X170629049Y-145543971D01*
X169835130Y-145613430D01*
X120829298Y-145613430D01*
X120035390Y-145543972D01*
X119296715Y-145346045D01*
X118603626Y-145022852D01*
X118366235Y-144856629D01*
X118208692Y-144699086D01*
X116528562Y-142178892D01*
X116476679Y-141985261D01*
X116407220Y-141191342D01*
X116407220Y-140849276D01*
X117314951Y-140849276D01*
X117314951Y-141516062D01*
X117445034Y-142170037D01*
X117700203Y-142786068D01*
X118070649Y-143340481D01*
X118542139Y-143811971D01*
X119096552Y-144182417D01*
X119712583Y-144437586D01*
X120366558Y-144567669D01*
X121033344Y-144567669D01*
X121687319Y-144437586D01*
X122303350Y-144182417D01*
X122857763Y-143811971D01*
X123329253Y-143340481D01*
X123699699Y-142786068D01*
X123954868Y-142170037D01*
X124084951Y-141516062D01*
X124084951Y-140849276D01*
X124074048Y-140794459D01*
X166523037Y-140794459D01*
X166523037Y-141461245D01*
X166653120Y-142115220D01*
X166908289Y-142731251D01*
X167278735Y-143285664D01*
X167750225Y-143757154D01*
X168304638Y-144127600D01*
X168920669Y-144382769D01*
X169574644Y-144512852D01*
X170241430Y-144512852D01*
X170895405Y-144382769D01*
X171511436Y-144127600D01*
X172065849Y-143757154D01*
X172537339Y-143285664D01*
X172907785Y-142731251D01*
X173162954Y-142115220D01*
X173293037Y-141461245D01*
X173293037Y-140794459D01*
X173162954Y-140140484D01*
X172907785Y-139524453D01*
X172537339Y-138970040D01*
X172065849Y-138498550D01*
X171511436Y-138128104D01*
X170895405Y-137872935D01*
X170241430Y-137742852D01*
X169574644Y-137742852D01*
X168920669Y-137872935D01*
X168304638Y-138128104D01*
X167750225Y-138498550D01*
X167278735Y-138970040D01*
X166908289Y-139524453D01*
X166653120Y-140140484D01*
X166523037Y-140794459D01*
X124074048Y-140794459D01*
X123954868Y-140195301D01*
X123699699Y-139579270D01*
X123329253Y-139024857D01*
X122857763Y-138553367D01*
X122303350Y-138182921D01*
X121687319Y-137927752D01*
X121033344Y-137797669D01*
X120366558Y-137797669D01*
X119712583Y-137927752D01*
X119096552Y-138182921D01*
X118542139Y-138553367D01*
X118070649Y-139024857D01*
X117700203Y-139579270D01*
X117445034Y-140195301D01*
X117314951Y-140849276D01*
X116407220Y-140849276D01*
X116407220Y-101201490D01*
X116994688Y-101201490D01*
X117006948Y-101325972D01*
X117043258Y-101445670D01*
X117102223Y-101555984D01*
X117181575Y-101652675D01*
X117278266Y-101732027D01*
X117388580Y-101790992D01*
X117508278Y-101827302D01*
X117632760Y-101839562D01*
X118197010Y-101836490D01*
X118355760Y-101677740D01*
X118355760Y-100478490D01*
X118609760Y-100478490D01*
X118609760Y-101677740D01*
X118768510Y-101836490D01*
X119332760Y-101839562D01*
X119457242Y-101827302D01*
X119576940Y-101790992D01*
X119687254Y-101732027D01*
X119783945Y-101652675D01*
X119863297Y-101555984D01*
X119922262Y-101445670D01*
X119958572Y-101325972D01*
X119970832Y-101201490D01*
X119968022Y-100685321D01*
X170650744Y-100685321D01*
X170695395Y-100832530D01*
X170820579Y-101095351D01*
X170994632Y-101328700D01*
X171210865Y-101523609D01*
X171460968Y-101672588D01*
X171735329Y-101769912D01*
X171965220Y-101649245D01*
X171965220Y-100455431D01*
X172219220Y-100455431D01*
X172219220Y-101649245D01*
X172449111Y-101769912D01*
X172723472Y-101672588D01*
X172973575Y-101523609D01*
X173189808Y-101328700D01*
X173363861Y-101095351D01*
X173489045Y-100832530D01*
X173533696Y-100685321D01*
X173412375Y-100455431D01*
X172219220Y-100455431D01*
X171965220Y-100455431D01*
X170772065Y-100455431D01*
X170650744Y-100685321D01*
X119968022Y-100685321D01*
X119967760Y-100637240D01*
X119809010Y-100478490D01*
X118609760Y-100478490D01*
X118355760Y-100478490D01*
X117156510Y-100478490D01*
X116997760Y-100637240D01*
X116994688Y-101201490D01*
X116407220Y-101201490D01*
X116407220Y-92731490D01*
X116839849Y-92731490D01*
X116871418Y-93052006D01*
X116964908Y-93360204D01*
X117116730Y-93644242D01*
X117321047Y-93893203D01*
X117568569Y-94096339D01*
X117536128Y-94118015D01*
X117329285Y-94324858D01*
X117166770Y-94568079D01*
X117054828Y-94838332D01*
X116997760Y-95125230D01*
X116997760Y-95417750D01*
X117054828Y-95704648D01*
X117166770Y-95974901D01*
X117329285Y-96218122D01*
X117536128Y-96424965D01*
X117710520Y-96541490D01*
X117536128Y-96658015D01*
X117329285Y-96864858D01*
X117166770Y-97108079D01*
X117054828Y-97378332D01*
X116997760Y-97665230D01*
X116997760Y-97957750D01*
X117054828Y-98244648D01*
X117166770Y-98514901D01*
X117329285Y-98758122D01*
X117461140Y-98889977D01*
X117388580Y-98911988D01*
X117278266Y-98970953D01*
X117181575Y-99050305D01*
X117102223Y-99146996D01*
X117043258Y-99257310D01*
X117006948Y-99377008D01*
X116994688Y-99501490D01*
X116997760Y-100065740D01*
X117156510Y-100224490D01*
X118355760Y-100224490D01*
X118355760Y-100204490D01*
X118609760Y-100204490D01*
X118609760Y-100224490D01*
X119809010Y-100224490D01*
X119967760Y-100065740D01*
X119970832Y-99501490D01*
X119958572Y-99377008D01*
X119922262Y-99257310D01*
X119863297Y-99146996D01*
X119783945Y-99050305D01*
X119687254Y-98970953D01*
X119576940Y-98911988D01*
X119504380Y-98889977D01*
X119636235Y-98758122D01*
X119798750Y-98514901D01*
X119910692Y-98244648D01*
X119967760Y-97957750D01*
X119967760Y-97665230D01*
X119910692Y-97378332D01*
X119798750Y-97108079D01*
X119636235Y-96864858D01*
X119429392Y-96658015D01*
X119255000Y-96541490D01*
X119429392Y-96424965D01*
X119636235Y-96218122D01*
X119798750Y-95974901D01*
X119910692Y-95704648D01*
X119967760Y-95417750D01*
X119967760Y-95125230D01*
X119910692Y-94838332D01*
X119798750Y-94568079D01*
X119636235Y-94324858D01*
X119429392Y-94118015D01*
X119396951Y-94096339D01*
X119582083Y-93944405D01*
X121721489Y-91805000D01*
X127324039Y-91805000D01*
X127377118Y-91840466D01*
X127720166Y-91982561D01*
X127782776Y-91995015D01*
X128327079Y-92539318D01*
X128378286Y-92601714D01*
X128627248Y-92806031D01*
X128911285Y-92957852D01*
X129219484Y-93051343D01*
X129459678Y-93075000D01*
X129459680Y-93075000D01*
X129539999Y-93082911D01*
X129620319Y-93075000D01*
X159074039Y-93075000D01*
X159127118Y-93110466D01*
X159470166Y-93252561D01*
X159532776Y-93265015D01*
X160075510Y-93807749D01*
X160126717Y-93870145D01*
X160375679Y-94074462D01*
X160659716Y-94226283D01*
X160967915Y-94319774D01*
X161208109Y-94343431D01*
X161208111Y-94343431D01*
X161288430Y-94351342D01*
X161368750Y-94343431D01*
X170910927Y-94343431D01*
X170896515Y-94365000D01*
X159468450Y-94365000D01*
X159287624Y-94244176D01*
X159081067Y-94158617D01*
X158861788Y-94115000D01*
X158638212Y-94115000D01*
X158418933Y-94158617D01*
X158212376Y-94244176D01*
X158026480Y-94368388D01*
X157868388Y-94526480D01*
X157744176Y-94712376D01*
X157658617Y-94918933D01*
X157615000Y-95138212D01*
X157615000Y-95361788D01*
X157658617Y-95581067D01*
X157744176Y-95787624D01*
X157868388Y-95973520D01*
X158026480Y-96131612D01*
X158212376Y-96255824D01*
X158418933Y-96341383D01*
X158638212Y-96385000D01*
X158861788Y-96385000D01*
X158890764Y-96379236D01*
X158885000Y-96408212D01*
X158885000Y-96631788D01*
X158928617Y-96851067D01*
X159014176Y-97057624D01*
X159138388Y-97243520D01*
X159296480Y-97401612D01*
X159482376Y-97525824D01*
X159688933Y-97611383D01*
X159902232Y-97653811D01*
X160631901Y-98383480D01*
X160659614Y-98417248D01*
X160693382Y-98444961D01*
X160693384Y-98444963D01*
X160750506Y-98491842D01*
X160794372Y-98527842D01*
X160948118Y-98610020D01*
X161114941Y-98660626D01*
X161244954Y-98673431D01*
X161244964Y-98673431D01*
X161288430Y-98677712D01*
X161331896Y-98673431D01*
X170897564Y-98673431D01*
X170938745Y-98735063D01*
X171145588Y-98941906D01*
X171327754Y-99063626D01*
X171210865Y-99133253D01*
X170994632Y-99328162D01*
X170820579Y-99561511D01*
X170695395Y-99824332D01*
X170650744Y-99971541D01*
X170772065Y-100201431D01*
X171965220Y-100201431D01*
X171965220Y-100181431D01*
X172219220Y-100181431D01*
X172219220Y-100201431D01*
X173412375Y-100201431D01*
X173533696Y-99971541D01*
X173489045Y-99824332D01*
X173363861Y-99561511D01*
X173189808Y-99328162D01*
X172973575Y-99133253D01*
X172856686Y-99063626D01*
X173038852Y-98941906D01*
X173245695Y-98735063D01*
X173408210Y-98491842D01*
X173520152Y-98221589D01*
X173577220Y-97934691D01*
X173577220Y-97642171D01*
X173520152Y-97355273D01*
X173408210Y-97085020D01*
X173245695Y-96841799D01*
X173038852Y-96634956D01*
X172864460Y-96518431D01*
X173038852Y-96401906D01*
X173245695Y-96195063D01*
X173408210Y-95951842D01*
X173520152Y-95681589D01*
X173577220Y-95394691D01*
X173577220Y-95102171D01*
X173520152Y-94815273D01*
X173408210Y-94545020D01*
X173245695Y-94301799D01*
X173113840Y-94169944D01*
X173186400Y-94147933D01*
X173296714Y-94088968D01*
X173393405Y-94009616D01*
X173472757Y-93912925D01*
X173531722Y-93802611D01*
X173568032Y-93682913D01*
X173580292Y-93558431D01*
X173580292Y-93392860D01*
X173610072Y-93337146D01*
X173703563Y-93028947D01*
X173735131Y-92708431D01*
X173703563Y-92387915D01*
X173610072Y-92079716D01*
X173580292Y-92024002D01*
X173580292Y-91858431D01*
X173568032Y-91733949D01*
X173531722Y-91614251D01*
X173472757Y-91503937D01*
X173393405Y-91407246D01*
X173296714Y-91327894D01*
X173186400Y-91268929D01*
X173066702Y-91232619D01*
X172942220Y-91220359D01*
X172776649Y-91220359D01*
X172720935Y-91190579D01*
X172412736Y-91097088D01*
X172172542Y-91073431D01*
X161965670Y-91073431D01*
X161845015Y-90952776D01*
X161832561Y-90890166D01*
X161690466Y-90547118D01*
X161484175Y-90238382D01*
X161221618Y-89975825D01*
X160912882Y-89769534D01*
X160569834Y-89627439D01*
X160205656Y-89555000D01*
X159834344Y-89555000D01*
X159470166Y-89627439D01*
X159127118Y-89769534D01*
X159074039Y-89805000D01*
X130217239Y-89805000D01*
X130095015Y-89682776D01*
X130082561Y-89620166D01*
X129940466Y-89277118D01*
X129734175Y-88968382D01*
X129471618Y-88705825D01*
X129162882Y-88499534D01*
X128819834Y-88357439D01*
X128455656Y-88285000D01*
X128084344Y-88285000D01*
X127720166Y-88357439D01*
X127377118Y-88499534D01*
X127324039Y-88535000D01*
X121124569Y-88535000D01*
X121044250Y-88527089D01*
X120963930Y-88535000D01*
X120963928Y-88535000D01*
X120723734Y-88558657D01*
X120415535Y-88652148D01*
X120131498Y-88803969D01*
X119882536Y-89008286D01*
X119831330Y-89070681D01*
X117269845Y-91632167D01*
X117116730Y-91818738D01*
X116964908Y-92102776D01*
X116871418Y-92410974D01*
X116839849Y-92731490D01*
X116407220Y-92731490D01*
X116407220Y-92675947D01*
X116966815Y-54623503D01*
X117406604Y-52424556D01*
X117504730Y-52917871D01*
X117759899Y-53533902D01*
X118130345Y-54088315D01*
X118601835Y-54559805D01*
X119156248Y-54930251D01*
X119772279Y-55185420D01*
X120426254Y-55315503D01*
X121093040Y-55315503D01*
X121747015Y-55185420D01*
X122363046Y-54930251D01*
X122917459Y-54559805D01*
X123388949Y-54088315D01*
X123759395Y-53533902D01*
X124014564Y-52917871D01*
X124144647Y-52263896D01*
X124144647Y-51597110D01*
X124117022Y-51458227D01*
X166395779Y-51458227D01*
X166395779Y-52125013D01*
X166525862Y-52778988D01*
X166781031Y-53395019D01*
X167151477Y-53949432D01*
X167622967Y-54420922D01*
X168177380Y-54791368D01*
X168793411Y-55046537D01*
X169447386Y-55176620D01*
X170114172Y-55176620D01*
X170768147Y-55046537D01*
X171384178Y-54791368D01*
X171938591Y-54420922D01*
X172410081Y-53949432D01*
X172780527Y-53395019D01*
X173035696Y-52778988D01*
X173165779Y-52125013D01*
X173165779Y-51458227D01*
X173035696Y-50804252D01*
X172780527Y-50188221D01*
X172410081Y-49633808D01*
X171938591Y-49162318D01*
X171384178Y-48791872D01*
X170768147Y-48536703D01*
X170114172Y-48406620D01*
X169447386Y-48406620D01*
X168793411Y-48536703D01*
X168177380Y-48791872D01*
X167622967Y-49162318D01*
X167151477Y-49633808D01*
X166781031Y-50188221D01*
X166525862Y-50804252D01*
X166395779Y-51458227D01*
X124117022Y-51458227D01*
X124014564Y-50943135D01*
X123759395Y-50327104D01*
X123388949Y-49772691D01*
X122917459Y-49301201D01*
X122363046Y-48930755D01*
X121747015Y-48675586D01*
X121093040Y-48545503D01*
X120426254Y-48545503D01*
X119772279Y-48675586D01*
X119156248Y-48930755D01*
X118601835Y-49301201D01*
X118130345Y-49772691D01*
X117854372Y-50185714D01*
X118214115Y-48387000D01*
X120650000Y-48387000D01*
X120674776Y-48384560D01*
X120698601Y-48377333D01*
X120720557Y-48365597D01*
X120739803Y-48349803D01*
X120755597Y-48330557D01*
X120767333Y-48308601D01*
X120774560Y-48284776D01*
X120777000Y-48260000D01*
X120777000Y-47448007D01*
X120829309Y-47443431D01*
X169835119Y-47443429D01*
X170629049Y-47512889D01*
G37*
X170629049Y-47512889D02*
X171367724Y-47710816D01*
X172060814Y-48034009D01*
X172687254Y-48472647D01*
X173228002Y-49013396D01*
X173666640Y-49639836D01*
X173863000Y-50060931D01*
X173863000Y-142210020D01*
X172669789Y-144596442D01*
X172060814Y-145022851D01*
X171367724Y-145346044D01*
X170629049Y-145543971D01*
X169835130Y-145613430D01*
X120829298Y-145613430D01*
X120035390Y-145543972D01*
X119296715Y-145346045D01*
X118603626Y-145022852D01*
X118366235Y-144856629D01*
X118208692Y-144699086D01*
X116528562Y-142178892D01*
X116476679Y-141985261D01*
X116407220Y-141191342D01*
X116407220Y-140849276D01*
X117314951Y-140849276D01*
X117314951Y-141516062D01*
X117445034Y-142170037D01*
X117700203Y-142786068D01*
X118070649Y-143340481D01*
X118542139Y-143811971D01*
X119096552Y-144182417D01*
X119712583Y-144437586D01*
X120366558Y-144567669D01*
X121033344Y-144567669D01*
X121687319Y-144437586D01*
X122303350Y-144182417D01*
X122857763Y-143811971D01*
X123329253Y-143340481D01*
X123699699Y-142786068D01*
X123954868Y-142170037D01*
X124084951Y-141516062D01*
X124084951Y-140849276D01*
X124074048Y-140794459D01*
X166523037Y-140794459D01*
X166523037Y-141461245D01*
X166653120Y-142115220D01*
X166908289Y-142731251D01*
X167278735Y-143285664D01*
X167750225Y-143757154D01*
X168304638Y-144127600D01*
X168920669Y-144382769D01*
X169574644Y-144512852D01*
X170241430Y-144512852D01*
X170895405Y-144382769D01*
X171511436Y-144127600D01*
X172065849Y-143757154D01*
X172537339Y-143285664D01*
X172907785Y-142731251D01*
X173162954Y-142115220D01*
X173293037Y-141461245D01*
X173293037Y-140794459D01*
X173162954Y-140140484D01*
X172907785Y-139524453D01*
X172537339Y-138970040D01*
X172065849Y-138498550D01*
X171511436Y-138128104D01*
X170895405Y-137872935D01*
X170241430Y-137742852D01*
X169574644Y-137742852D01*
X168920669Y-137872935D01*
X168304638Y-138128104D01*
X167750225Y-138498550D01*
X167278735Y-138970040D01*
X166908289Y-139524453D01*
X166653120Y-140140484D01*
X166523037Y-140794459D01*
X124074048Y-140794459D01*
X123954868Y-140195301D01*
X123699699Y-139579270D01*
X123329253Y-139024857D01*
X122857763Y-138553367D01*
X122303350Y-138182921D01*
X121687319Y-137927752D01*
X121033344Y-137797669D01*
X120366558Y-137797669D01*
X119712583Y-137927752D01*
X119096552Y-138182921D01*
X118542139Y-138553367D01*
X118070649Y-139024857D01*
X117700203Y-139579270D01*
X117445034Y-140195301D01*
X117314951Y-140849276D01*
X116407220Y-140849276D01*
X116407220Y-101201490D01*
X116994688Y-101201490D01*
X117006948Y-101325972D01*
X117043258Y-101445670D01*
X117102223Y-101555984D01*
X117181575Y-101652675D01*
X117278266Y-101732027D01*
X117388580Y-101790992D01*
X117508278Y-101827302D01*
X117632760Y-101839562D01*
X118197010Y-101836490D01*
X118355760Y-101677740D01*
X118355760Y-100478490D01*
X118609760Y-100478490D01*
X118609760Y-101677740D01*
X118768510Y-101836490D01*
X119332760Y-101839562D01*
X119457242Y-101827302D01*
X119576940Y-101790992D01*
X119687254Y-101732027D01*
X119783945Y-101652675D01*
X119863297Y-101555984D01*
X119922262Y-101445670D01*
X119958572Y-101325972D01*
X119970832Y-101201490D01*
X119968022Y-100685321D01*
X170650744Y-100685321D01*
X170695395Y-100832530D01*
X170820579Y-101095351D01*
X170994632Y-101328700D01*
X171210865Y-101523609D01*
X171460968Y-101672588D01*
X171735329Y-101769912D01*
X171965220Y-101649245D01*
X171965220Y-100455431D01*
X172219220Y-100455431D01*
X172219220Y-101649245D01*
X172449111Y-101769912D01*
X172723472Y-101672588D01*
X172973575Y-101523609D01*
X173189808Y-101328700D01*
X173363861Y-101095351D01*
X173489045Y-100832530D01*
X173533696Y-100685321D01*
X173412375Y-100455431D01*
X172219220Y-100455431D01*
X171965220Y-100455431D01*
X170772065Y-100455431D01*
X170650744Y-100685321D01*
X119968022Y-100685321D01*
X119967760Y-100637240D01*
X119809010Y-100478490D01*
X118609760Y-100478490D01*
X118355760Y-100478490D01*
X117156510Y-100478490D01*
X116997760Y-100637240D01*
X116994688Y-101201490D01*
X116407220Y-101201490D01*
X116407220Y-92731490D01*
X116839849Y-92731490D01*
X116871418Y-93052006D01*
X116964908Y-93360204D01*
X117116730Y-93644242D01*
X117321047Y-93893203D01*
X117568569Y-94096339D01*
X117536128Y-94118015D01*
X117329285Y-94324858D01*
X117166770Y-94568079D01*
X117054828Y-94838332D01*
X116997760Y-95125230D01*
X116997760Y-95417750D01*
X117054828Y-95704648D01*
X117166770Y-95974901D01*
X117329285Y-96218122D01*
X117536128Y-96424965D01*
X117710520Y-96541490D01*
X117536128Y-96658015D01*
X117329285Y-96864858D01*
X117166770Y-97108079D01*
X117054828Y-97378332D01*
X116997760Y-97665230D01*
X116997760Y-97957750D01*
X117054828Y-98244648D01*
X117166770Y-98514901D01*
X117329285Y-98758122D01*
X117461140Y-98889977D01*
X117388580Y-98911988D01*
X117278266Y-98970953D01*
X117181575Y-99050305D01*
X117102223Y-99146996D01*
X117043258Y-99257310D01*
X117006948Y-99377008D01*
X116994688Y-99501490D01*
X116997760Y-100065740D01*
X117156510Y-100224490D01*
X118355760Y-100224490D01*
X118355760Y-100204490D01*
X118609760Y-100204490D01*
X118609760Y-100224490D01*
X119809010Y-100224490D01*
X119967760Y-100065740D01*
X119970832Y-99501490D01*
X119958572Y-99377008D01*
X119922262Y-99257310D01*
X119863297Y-99146996D01*
X119783945Y-99050305D01*
X119687254Y-98970953D01*
X119576940Y-98911988D01*
X119504380Y-98889977D01*
X119636235Y-98758122D01*
X119798750Y-98514901D01*
X119910692Y-98244648D01*
X119967760Y-97957750D01*
X119967760Y-97665230D01*
X119910692Y-97378332D01*
X119798750Y-97108079D01*
X119636235Y-96864858D01*
X119429392Y-96658015D01*
X119255000Y-96541490D01*
X119429392Y-96424965D01*
X119636235Y-96218122D01*
X119798750Y-95974901D01*
X119910692Y-95704648D01*
X119967760Y-95417750D01*
X119967760Y-95125230D01*
X119910692Y-94838332D01*
X119798750Y-94568079D01*
X119636235Y-94324858D01*
X119429392Y-94118015D01*
X119396951Y-94096339D01*
X119582083Y-93944405D01*
X121721489Y-91805000D01*
X127324039Y-91805000D01*
X127377118Y-91840466D01*
X127720166Y-91982561D01*
X127782776Y-91995015D01*
X128327079Y-92539318D01*
X128378286Y-92601714D01*
X128627248Y-92806031D01*
X128911285Y-92957852D01*
X129219484Y-93051343D01*
X129459678Y-93075000D01*
X129459680Y-93075000D01*
X129539999Y-93082911D01*
X129620319Y-93075000D01*
X159074039Y-93075000D01*
X159127118Y-93110466D01*
X159470166Y-93252561D01*
X159532776Y-93265015D01*
X160075510Y-93807749D01*
X160126717Y-93870145D01*
X160375679Y-94074462D01*
X160659716Y-94226283D01*
X160967915Y-94319774D01*
X161208109Y-94343431D01*
X161208111Y-94343431D01*
X161288430Y-94351342D01*
X161368750Y-94343431D01*
X170910927Y-94343431D01*
X170896515Y-94365000D01*
X159468450Y-94365000D01*
X159287624Y-94244176D01*
X159081067Y-94158617D01*
X158861788Y-94115000D01*
X158638212Y-94115000D01*
X158418933Y-94158617D01*
X158212376Y-94244176D01*
X158026480Y-94368388D01*
X157868388Y-94526480D01*
X157744176Y-94712376D01*
X157658617Y-94918933D01*
X157615000Y-95138212D01*
X157615000Y-95361788D01*
X157658617Y-95581067D01*
X157744176Y-95787624D01*
X157868388Y-95973520D01*
X158026480Y-96131612D01*
X158212376Y-96255824D01*
X158418933Y-96341383D01*
X158638212Y-96385000D01*
X158861788Y-96385000D01*
X158890764Y-96379236D01*
X158885000Y-96408212D01*
X158885000Y-96631788D01*
X158928617Y-96851067D01*
X159014176Y-97057624D01*
X159138388Y-97243520D01*
X159296480Y-97401612D01*
X159482376Y-97525824D01*
X159688933Y-97611383D01*
X159902232Y-97653811D01*
X160631901Y-98383480D01*
X160659614Y-98417248D01*
X160693382Y-98444961D01*
X160693384Y-98444963D01*
X160750506Y-98491842D01*
X160794372Y-98527842D01*
X160948118Y-98610020D01*
X161114941Y-98660626D01*
X161244954Y-98673431D01*
X161244964Y-98673431D01*
X161288430Y-98677712D01*
X161331896Y-98673431D01*
X170897564Y-98673431D01*
X170938745Y-98735063D01*
X171145588Y-98941906D01*
X171327754Y-99063626D01*
X171210865Y-99133253D01*
X170994632Y-99328162D01*
X170820579Y-99561511D01*
X170695395Y-99824332D01*
X170650744Y-99971541D01*
X170772065Y-100201431D01*
X171965220Y-100201431D01*
X171965220Y-100181431D01*
X172219220Y-100181431D01*
X172219220Y-100201431D01*
X173412375Y-100201431D01*
X173533696Y-99971541D01*
X173489045Y-99824332D01*
X173363861Y-99561511D01*
X173189808Y-99328162D01*
X172973575Y-99133253D01*
X172856686Y-99063626D01*
X173038852Y-98941906D01*
X173245695Y-98735063D01*
X173408210Y-98491842D01*
X173520152Y-98221589D01*
X173577220Y-97934691D01*
X173577220Y-97642171D01*
X173520152Y-97355273D01*
X173408210Y-97085020D01*
X173245695Y-96841799D01*
X173038852Y-96634956D01*
X172864460Y-96518431D01*
X173038852Y-96401906D01*
X173245695Y-96195063D01*
X173408210Y-95951842D01*
X173520152Y-95681589D01*
X173577220Y-95394691D01*
X173577220Y-95102171D01*
X173520152Y-94815273D01*
X173408210Y-94545020D01*
X173245695Y-94301799D01*
X173113840Y-94169944D01*
X173186400Y-94147933D01*
X173296714Y-94088968D01*
X173393405Y-94009616D01*
X173472757Y-93912925D01*
X173531722Y-93802611D01*
X173568032Y-93682913D01*
X173580292Y-93558431D01*
X173580292Y-93392860D01*
X173610072Y-93337146D01*
X173703563Y-93028947D01*
X173735131Y-92708431D01*
X173703563Y-92387915D01*
X173610072Y-92079716D01*
X173580292Y-92024002D01*
X173580292Y-91858431D01*
X173568032Y-91733949D01*
X173531722Y-91614251D01*
X173472757Y-91503937D01*
X173393405Y-91407246D01*
X173296714Y-91327894D01*
X173186400Y-91268929D01*
X173066702Y-91232619D01*
X172942220Y-91220359D01*
X172776649Y-91220359D01*
X172720935Y-91190579D01*
X172412736Y-91097088D01*
X172172542Y-91073431D01*
X161965670Y-91073431D01*
X161845015Y-90952776D01*
X161832561Y-90890166D01*
X161690466Y-90547118D01*
X161484175Y-90238382D01*
X161221618Y-89975825D01*
X160912882Y-89769534D01*
X160569834Y-89627439D01*
X160205656Y-89555000D01*
X159834344Y-89555000D01*
X159470166Y-89627439D01*
X159127118Y-89769534D01*
X159074039Y-89805000D01*
X130217239Y-89805000D01*
X130095015Y-89682776D01*
X130082561Y-89620166D01*
X129940466Y-89277118D01*
X129734175Y-88968382D01*
X129471618Y-88705825D01*
X129162882Y-88499534D01*
X128819834Y-88357439D01*
X128455656Y-88285000D01*
X128084344Y-88285000D01*
X127720166Y-88357439D01*
X127377118Y-88499534D01*
X127324039Y-88535000D01*
X121124569Y-88535000D01*
X121044250Y-88527089D01*
X120963930Y-88535000D01*
X120963928Y-88535000D01*
X120723734Y-88558657D01*
X120415535Y-88652148D01*
X120131498Y-88803969D01*
X119882536Y-89008286D01*
X119831330Y-89070681D01*
X117269845Y-91632167D01*
X117116730Y-91818738D01*
X116964908Y-92102776D01*
X116871418Y-92410974D01*
X116839849Y-92731490D01*
X116407220Y-92731490D01*
X116407220Y-92675947D01*
X116966815Y-54623503D01*
X117406604Y-52424556D01*
X117504730Y-52917871D01*
X117759899Y-53533902D01*
X118130345Y-54088315D01*
X118601835Y-54559805D01*
X119156248Y-54930251D01*
X119772279Y-55185420D01*
X120426254Y-55315503D01*
X121093040Y-55315503D01*
X121747015Y-55185420D01*
X122363046Y-54930251D01*
X122917459Y-54559805D01*
X123388949Y-54088315D01*
X123759395Y-53533902D01*
X124014564Y-52917871D01*
X124144647Y-52263896D01*
X124144647Y-51597110D01*
X124117022Y-51458227D01*
X166395779Y-51458227D01*
X166395779Y-52125013D01*
X166525862Y-52778988D01*
X166781031Y-53395019D01*
X167151477Y-53949432D01*
X167622967Y-54420922D01*
X168177380Y-54791368D01*
X168793411Y-55046537D01*
X169447386Y-55176620D01*
X170114172Y-55176620D01*
X170768147Y-55046537D01*
X171384178Y-54791368D01*
X171938591Y-54420922D01*
X172410081Y-53949432D01*
X172780527Y-53395019D01*
X173035696Y-52778988D01*
X173165779Y-52125013D01*
X173165779Y-51458227D01*
X173035696Y-50804252D01*
X172780527Y-50188221D01*
X172410081Y-49633808D01*
X171938591Y-49162318D01*
X171384178Y-48791872D01*
X170768147Y-48536703D01*
X170114172Y-48406620D01*
X169447386Y-48406620D01*
X168793411Y-48536703D01*
X168177380Y-48791872D01*
X167622967Y-49162318D01*
X167151477Y-49633808D01*
X166781031Y-50188221D01*
X166525862Y-50804252D01*
X166395779Y-51458227D01*
X124117022Y-51458227D01*
X124014564Y-50943135D01*
X123759395Y-50327104D01*
X123388949Y-49772691D01*
X122917459Y-49301201D01*
X122363046Y-48930755D01*
X121747015Y-48675586D01*
X121093040Y-48545503D01*
X120426254Y-48545503D01*
X119772279Y-48675586D01*
X119156248Y-48930755D01*
X118601835Y-49301201D01*
X118130345Y-49772691D01*
X117854372Y-50185714D01*
X118214115Y-48387000D01*
X120650000Y-48387000D01*
X120674776Y-48384560D01*
X120698601Y-48377333D01*
X120720557Y-48365597D01*
X120739803Y-48349803D01*
X120755597Y-48330557D01*
X120767333Y-48308601D01*
X120774560Y-48284776D01*
X120777000Y-48260000D01*
X120777000Y-47448007D01*
X120829309Y-47443431D01*
X169835119Y-47443429D01*
X170629049Y-47512889D01*
M02*
