G04 #@! TF.GenerationSoftware,KiCad,Pcbnew,5.1.5-1.fc31*
G04 #@! TF.CreationDate,2020-04-30T18:23:35-07:00*
G04 #@! TF.ProjectId,apa102_7seg_digit,61706131-3032-45f3-9773-65675f646967,rev?*
G04 #@! TF.SameCoordinates,Original*
G04 #@! TF.FileFunction,Copper,L1,Top*
G04 #@! TF.FilePolarity,Positive*
%FSLAX46Y46*%
G04 Gerber Fmt 4.6, Leading zero omitted, Abs format (unit mm)*
G04 Created by KiCad (PCBNEW 5.1.5-1.fc31) date 2020-04-30 18:23:35*
%MOMM*%
%LPD*%
G04 APERTURE LIST*
%ADD10C,5.500000*%
%ADD11R,1.480000X0.500000*%
%ADD12R,1.000000X0.500000*%
%ADD13R,0.500000X0.800000*%
%ADD14R,0.300000X0.800000*%
%ADD15R,0.800000X0.500000*%
%ADD16R,0.800000X0.300000*%
%ADD17R,0.500000X1.000000*%
%ADD18R,0.500000X1.480000*%
%ADD19O,1.700000X1.700000*%
%ADD20R,1.700000X1.700000*%
%ADD21C,2.500000*%
%ADD22C,0.685800*%
%ADD23C,2.000000*%
%ADD24C,0.500000*%
%ADD25C,0.750000*%
%ADD26C,1.000000*%
%ADD27C,0.254000*%
G04 APERTURE END LIST*
D10*
X169908037Y-141127852D03*
X120699951Y-141182669D03*
X120759647Y-51930503D03*
X169780779Y-51791620D03*
D11*
X166078649Y-76371005D03*
D12*
X164658649Y-76371005D03*
D13*
X164588649Y-75521005D03*
X166388649Y-75521005D03*
D14*
X165488649Y-75521005D03*
D13*
X166388649Y-77221005D03*
D14*
X165488649Y-77221005D03*
D13*
X164588649Y-77221005D03*
D11*
X124584751Y-67040545D03*
D12*
X126004751Y-67040545D03*
D13*
X126074751Y-67890545D03*
X124274751Y-67890545D03*
D14*
X125174751Y-67890545D03*
D13*
X124274751Y-66190545D03*
D14*
X125174751Y-66190545D03*
D13*
X126074751Y-66190545D03*
X126070776Y-75516255D03*
D14*
X125170776Y-75516255D03*
D13*
X124270776Y-75516255D03*
D14*
X125170776Y-77216255D03*
D13*
X124270776Y-77216255D03*
X126070776Y-77216255D03*
D12*
X126000776Y-76366255D03*
D11*
X124580776Y-76366255D03*
X124584075Y-85705620D03*
D12*
X126004075Y-85705620D03*
D13*
X126074075Y-86555620D03*
X124274075Y-86555620D03*
D14*
X125174075Y-86555620D03*
D13*
X124274075Y-84855620D03*
D14*
X125174075Y-84855620D03*
D13*
X126074075Y-84855620D03*
X126066613Y-106514227D03*
D14*
X125166613Y-106514227D03*
D13*
X124266613Y-106514227D03*
D14*
X125166613Y-108214227D03*
D13*
X124266613Y-108214227D03*
X126066613Y-108214227D03*
D12*
X125996613Y-107364227D03*
D11*
X124576613Y-107364227D03*
X124590089Y-116685579D03*
D12*
X126010089Y-116685579D03*
D13*
X126080089Y-117535579D03*
X124280089Y-117535579D03*
D14*
X125180089Y-117535579D03*
D13*
X124280089Y-115835579D03*
D14*
X125180089Y-115835579D03*
D13*
X126080089Y-115835579D03*
X126070344Y-125171020D03*
D14*
X125170344Y-125171020D03*
D13*
X124270344Y-125171020D03*
D14*
X125170344Y-126871020D03*
D13*
X124270344Y-126871020D03*
X126070344Y-126871020D03*
D12*
X126000344Y-126021020D03*
D11*
X124580344Y-126021020D03*
D15*
X136853941Y-57096988D03*
D16*
X136853941Y-56196988D03*
D15*
X136853941Y-55296988D03*
D16*
X135153941Y-56196988D03*
D15*
X135153941Y-55296988D03*
X135153941Y-57096988D03*
D17*
X136003941Y-57026988D03*
D18*
X136003941Y-55606988D03*
X135990683Y-95939327D03*
D17*
X135990683Y-97359327D03*
D15*
X135140683Y-97429327D03*
X135140683Y-95629327D03*
D16*
X135140683Y-96529327D03*
D15*
X136840683Y-95629327D03*
D16*
X136840683Y-96529327D03*
D15*
X136840683Y-97429327D03*
D18*
X135992115Y-137436518D03*
D17*
X135992115Y-136016518D03*
D15*
X136842115Y-135946518D03*
X136842115Y-137746518D03*
D16*
X136842115Y-136846518D03*
D15*
X135142115Y-137746518D03*
D16*
X135142115Y-136846518D03*
D15*
X135142115Y-135946518D03*
X146188118Y-57121980D03*
D16*
X146188118Y-56221980D03*
D15*
X146188118Y-55321980D03*
D16*
X144488118Y-56221980D03*
D15*
X144488118Y-55321980D03*
X144488118Y-57121980D03*
D17*
X145338118Y-57051980D03*
D18*
X145338118Y-55631980D03*
D15*
X146172448Y-97446117D03*
D16*
X146172448Y-96546117D03*
D15*
X146172448Y-95646117D03*
D16*
X144472448Y-96546117D03*
D15*
X144472448Y-95646117D03*
X144472448Y-97446117D03*
D17*
X145322448Y-97376117D03*
D18*
X145322448Y-95956117D03*
D15*
X144475557Y-135953695D03*
D16*
X144475557Y-136853695D03*
D15*
X144475557Y-137753695D03*
D16*
X146175557Y-136853695D03*
D15*
X146175557Y-137753695D03*
X146175557Y-135953695D03*
D17*
X145325557Y-136023695D03*
D18*
X145325557Y-137443695D03*
X154671419Y-55632017D03*
D17*
X154671419Y-57052017D03*
D15*
X153821419Y-57122017D03*
X153821419Y-55322017D03*
D16*
X153821419Y-56222017D03*
D15*
X155521419Y-55322017D03*
D16*
X155521419Y-56222017D03*
D15*
X155521419Y-57122017D03*
D18*
X154671419Y-95939327D03*
D17*
X154671419Y-97359327D03*
D15*
X153821419Y-97429327D03*
X153821419Y-95629327D03*
D16*
X153821419Y-96529327D03*
D15*
X155521419Y-95629327D03*
D16*
X155521419Y-96529327D03*
D15*
X155521419Y-97429327D03*
D18*
X154665992Y-137430966D03*
D17*
X154665992Y-136010966D03*
D15*
X155515992Y-135940966D03*
X155515992Y-137740966D03*
D16*
X155515992Y-136840966D03*
D15*
X153815992Y-137740966D03*
D16*
X153815992Y-136840966D03*
D15*
X153815992Y-135940966D03*
D13*
X164600907Y-67875247D03*
D14*
X165500907Y-67875247D03*
D13*
X166400907Y-67875247D03*
D14*
X165500907Y-66175247D03*
D13*
X166400907Y-66175247D03*
X164600907Y-66175247D03*
D12*
X164670907Y-67025247D03*
D11*
X166090907Y-67025247D03*
D13*
X164590097Y-86553959D03*
D14*
X165490097Y-86553959D03*
D13*
X166390097Y-86553959D03*
D14*
X165490097Y-84853959D03*
D13*
X166390097Y-84853959D03*
X164590097Y-84853959D03*
D12*
X164660097Y-85703959D03*
D11*
X166080097Y-85703959D03*
D13*
X164591758Y-108212779D03*
D14*
X165491758Y-108212779D03*
D13*
X166391758Y-108212779D03*
D14*
X165491758Y-106512779D03*
D13*
X166391758Y-106512779D03*
X164591758Y-106512779D03*
D12*
X164661758Y-107362779D03*
D11*
X166081758Y-107362779D03*
X166075744Y-116679565D03*
D12*
X164655744Y-116679565D03*
D13*
X164585744Y-115829565D03*
X166385744Y-115829565D03*
D14*
X165485744Y-115829565D03*
D13*
X166385744Y-117529565D03*
D14*
X165485744Y-117529565D03*
D13*
X164585744Y-117529565D03*
X164588659Y-126875423D03*
D14*
X165488659Y-126875423D03*
D13*
X166388659Y-126875423D03*
D14*
X165488659Y-125175423D03*
D13*
X166388659Y-125175423D03*
X164588659Y-125175423D03*
D12*
X164658659Y-126025423D03*
D11*
X166078659Y-126025423D03*
D19*
X118482760Y-92731490D03*
X118482760Y-95271490D03*
X118482760Y-97811490D03*
D20*
X118482760Y-100351490D03*
X172092220Y-92708431D03*
D19*
X172092220Y-95248431D03*
X172092220Y-97788431D03*
X172092220Y-100328431D03*
D21*
X168656000Y-89662000D03*
D22*
X135128000Y-58928000D03*
X144272000Y-58928000D03*
X153416000Y-58928000D03*
X162306000Y-65532000D03*
X162306000Y-75184000D03*
X162306000Y-84582000D03*
D21*
X163322000Y-89662000D03*
D22*
X139954000Y-97536000D03*
X149606000Y-97536000D03*
X159512000Y-97790000D03*
X130810000Y-106680000D03*
X130810000Y-116332000D03*
X130810000Y-125984000D03*
X135890000Y-131064000D03*
X144018000Y-131064000D03*
X154432000Y-131064000D03*
X159766000Y-125730000D03*
X159766000Y-116586000D03*
X159766000Y-107442000D03*
X159512000Y-86614000D03*
X159512000Y-76962000D03*
X159512000Y-67818000D03*
X155194000Y-60960000D03*
X146050000Y-60960000D03*
X136906000Y-60960000D03*
X128524000Y-84836000D03*
X128524000Y-75692000D03*
X128524000Y-65024000D03*
X124206000Y-98552000D03*
X124206000Y-102108000D03*
X125222000Y-102108000D03*
X125222000Y-98552000D03*
X133858000Y-94488000D03*
X132588000Y-94488000D03*
X165354000Y-102108000D03*
X165354000Y-94488000D03*
X166624000Y-102108000D03*
X166624000Y-94488000D03*
D23*
X172069161Y-100351490D02*
X172092220Y-100328431D01*
D24*
X135140683Y-97429327D02*
X133710673Y-97429327D01*
X133710673Y-97429327D02*
X133350000Y-97790000D01*
X133350000Y-97790000D02*
X133350000Y-100330000D01*
X143572448Y-97446117D02*
X142240000Y-98778565D01*
X142240000Y-98778565D02*
X142240000Y-100330000D01*
X144472448Y-97446117D02*
X143572448Y-97446117D01*
X153821419Y-97429327D02*
X152760673Y-97429327D01*
X152400000Y-97790000D02*
X152400000Y-100330000D01*
X152760673Y-97429327D02*
X152400000Y-97790000D01*
D23*
X142240000Y-100330000D02*
X152400000Y-100330000D01*
D24*
X126074075Y-100239925D02*
X125984000Y-100330000D01*
D23*
X121678335Y-100342335D02*
X125984000Y-100330000D01*
X118482760Y-100351490D02*
X121678335Y-100342335D01*
X168656000Y-100330000D02*
X172069161Y-100351490D01*
X157480000Y-140208000D02*
X168656000Y-129032000D01*
X121678335Y-128536335D02*
X133350000Y-140208000D01*
D24*
X166080097Y-85703959D02*
X167320097Y-85703959D01*
D23*
X158242000Y-52578000D02*
X169164000Y-63500000D01*
X129819683Y-53846987D02*
X129819683Y-53822317D01*
X129819683Y-53822317D02*
X131064000Y-52578000D01*
D24*
X167426056Y-85598000D02*
X169164000Y-85598000D01*
X167320097Y-85703959D02*
X167426056Y-85598000D01*
D23*
X121678335Y-61988335D02*
X129819683Y-53846987D01*
D24*
X167489654Y-76200000D02*
X169164000Y-76200000D01*
X167318649Y-76371005D02*
X167489654Y-76200000D01*
X166078649Y-76371005D02*
X167318649Y-76371005D01*
D23*
X169164000Y-76200000D02*
X169164000Y-85598000D01*
D24*
X169133247Y-67025247D02*
X169164000Y-67056000D01*
X166090907Y-67025247D02*
X169133247Y-67025247D01*
D23*
X169164000Y-63500000D02*
X169164000Y-67056000D01*
X169164000Y-67056000D02*
X169164000Y-76200000D01*
D24*
X154432000Y-54152598D02*
X154432000Y-52578000D01*
X154671419Y-54392017D02*
X154432000Y-54152598D01*
X154671419Y-55632017D02*
X154671419Y-54392017D01*
D23*
X154432000Y-52578000D02*
X158242000Y-52578000D01*
D24*
X145034000Y-54087862D02*
X145034000Y-52578000D01*
X145338118Y-54391980D02*
X145034000Y-54087862D01*
X145338118Y-55631980D02*
X145338118Y-54391980D01*
D23*
X145034000Y-52578000D02*
X154432000Y-52578000D01*
D24*
X135890000Y-54253047D02*
X135890000Y-52578000D01*
X136003941Y-54366988D02*
X135890000Y-54253047D01*
D23*
X131064000Y-52578000D02*
X135890000Y-52578000D01*
D24*
X136003941Y-55606988D02*
X136003941Y-54366988D01*
D23*
X135890000Y-52578000D02*
X145034000Y-52578000D01*
D24*
X123329296Y-67056000D02*
X121666000Y-67056000D01*
X123344751Y-67040545D02*
X123329296Y-67056000D01*
X124584751Y-67040545D02*
X123344751Y-67040545D01*
D23*
X121666000Y-67056000D02*
X121678335Y-61988335D01*
D24*
X124580776Y-76366255D02*
X121832255Y-76366255D01*
X121832255Y-76366255D02*
X121666000Y-76200000D01*
D23*
X121666000Y-76200000D02*
X121666000Y-67056000D01*
D24*
X121812380Y-85705620D02*
X121666000Y-85852000D01*
X124584075Y-85705620D02*
X121812380Y-85705620D01*
D23*
X121678335Y-100342335D02*
X121666000Y-85852000D01*
X121666000Y-85852000D02*
X121666000Y-76200000D01*
D24*
X121842227Y-107364227D02*
X121666000Y-107188000D01*
X124576613Y-107364227D02*
X121842227Y-107364227D01*
D23*
X121678335Y-100342335D02*
X121666000Y-107188000D01*
D24*
X124590089Y-116685579D02*
X122019579Y-116685579D01*
D23*
X121666000Y-107188000D02*
X121666000Y-116332000D01*
D24*
X122019579Y-116685579D02*
X121666000Y-116332000D01*
D23*
X121666000Y-116332000D02*
X121666000Y-125984000D01*
D24*
X121703020Y-126021020D02*
X121666000Y-125984000D01*
X124580344Y-126021020D02*
X121703020Y-126021020D01*
D23*
X121666000Y-125984000D02*
X121678335Y-128536335D01*
D24*
X136144000Y-138828403D02*
X136144000Y-140208000D01*
X135992115Y-138676518D02*
X136144000Y-138828403D01*
X135992115Y-137436518D02*
X135992115Y-138676518D01*
D23*
X133350000Y-140208000D02*
X136144000Y-140208000D01*
D24*
X145542000Y-138900138D02*
X145542000Y-140208000D01*
X145325557Y-138683695D02*
X145542000Y-138900138D01*
X145325557Y-137443695D02*
X145325557Y-138683695D01*
D23*
X136144000Y-140208000D02*
X145542000Y-140208000D01*
D24*
X154686000Y-138690974D02*
X154686000Y-140208000D01*
X154665992Y-138670966D02*
X154686000Y-138690974D01*
D23*
X145542000Y-140208000D02*
X154686000Y-140208000D01*
D24*
X154665992Y-137430966D02*
X154665992Y-138670966D01*
D23*
X154686000Y-140208000D02*
X157480000Y-140208000D01*
D24*
X166078659Y-126025423D02*
X167318659Y-126025423D01*
D23*
X168656000Y-129032000D02*
X168656000Y-125984000D01*
D24*
X167360082Y-125984000D02*
X168656000Y-125984000D01*
X167318659Y-126025423D02*
X167360082Y-125984000D01*
X167476179Y-116840000D02*
X168656000Y-116840000D01*
X167315744Y-116679565D02*
X167476179Y-116840000D01*
X166075744Y-116679565D02*
X167315744Y-116679565D01*
D23*
X168656000Y-125984000D02*
X168656000Y-116840000D01*
D24*
X168322779Y-107362779D02*
X168656000Y-107696000D01*
D23*
X168656000Y-116840000D02*
X168656000Y-107696000D01*
D24*
X166081758Y-107362779D02*
X168322779Y-107362779D01*
D23*
X168656000Y-107696000D02*
X168656000Y-100330000D01*
D24*
X126074075Y-86555620D02*
X126074075Y-100239925D01*
D23*
X128778000Y-100330000D02*
X133350000Y-100330000D01*
X125984000Y-100330000D02*
X128778000Y-100330000D01*
D25*
X127074751Y-67890545D02*
X126074751Y-67890545D01*
X129441901Y-70257695D02*
X127074751Y-67890545D01*
X128778000Y-93726000D02*
X129441901Y-93062099D01*
X128778000Y-100330000D02*
X128778000Y-93726000D01*
X127070776Y-77216255D02*
X127578521Y-77724000D01*
X127578521Y-77724000D02*
X129540000Y-77724000D01*
X126070776Y-77216255D02*
X127070776Y-77216255D01*
X129441901Y-93062099D02*
X129540000Y-77724000D01*
X129540000Y-77724000D02*
X129441901Y-70257695D01*
D23*
X169164000Y-85598000D02*
X169164000Y-89154000D01*
X169164000Y-89154000D02*
X168656000Y-89662000D01*
D24*
X135153941Y-57096988D02*
X135153941Y-58902059D01*
X135153941Y-58902059D02*
X135128000Y-58928000D01*
X144488118Y-58711882D02*
X144272000Y-58928000D01*
X144488118Y-57121980D02*
X144488118Y-58711882D01*
X153821419Y-58522581D02*
X153416000Y-58928000D01*
X153821419Y-57122017D02*
X153821419Y-58522581D01*
X162949247Y-66175247D02*
X162306000Y-65532000D01*
X164600907Y-66175247D02*
X162949247Y-66175247D01*
X162643005Y-75521005D02*
X162306000Y-75184000D01*
X164588649Y-75521005D02*
X162643005Y-75521005D01*
X162577959Y-84853959D02*
X162306000Y-84582000D01*
X164590097Y-84853959D02*
X162577959Y-84853959D01*
X135990683Y-94699327D02*
X136144000Y-94546010D01*
X135990683Y-95939327D02*
X135990683Y-94699327D01*
X136144000Y-94546010D02*
X136144000Y-93218000D01*
D26*
X159766000Y-93218000D02*
X163322000Y-89662000D01*
D24*
X145322448Y-95956117D02*
X145322448Y-93252448D01*
D26*
X136144000Y-93218000D02*
X145288000Y-93218000D01*
D24*
X145322448Y-93252448D02*
X145288000Y-93218000D01*
X154671419Y-93232581D02*
X154686000Y-93218000D01*
D26*
X145288000Y-93218000D02*
X154686000Y-93218000D01*
D24*
X154671419Y-95939327D02*
X154671419Y-93232581D01*
D26*
X154686000Y-93218000D02*
X159766000Y-93218000D01*
D23*
X134366000Y-100330000D02*
X142240000Y-100330000D01*
X133350000Y-100330000D02*
X134366000Y-100330000D01*
X134366000Y-123444000D02*
X137922000Y-127000000D01*
X153670000Y-127000000D02*
X156210000Y-124460000D01*
X152400000Y-100330000D02*
X156210000Y-100330000D01*
X156210000Y-100330000D02*
X168656000Y-100330000D01*
D24*
X134101773Y-108214227D02*
X134366000Y-107950000D01*
X126066613Y-108214227D02*
X134101773Y-108214227D01*
D23*
X134366000Y-100330000D02*
X134366000Y-107950000D01*
D24*
X126080089Y-117535579D02*
X134178421Y-117535579D01*
D23*
X134366000Y-107950000D02*
X134366000Y-117348000D01*
D24*
X134178421Y-117535579D02*
X134366000Y-117348000D01*
D23*
X134366000Y-117348000D02*
X134366000Y-123444000D01*
D24*
X137793020Y-126871020D02*
X137922000Y-127000000D01*
X126070344Y-126871020D02*
X137793020Y-126871020D01*
X136842115Y-128079885D02*
X137922000Y-127000000D01*
X136842115Y-135946518D02*
X136842115Y-128079885D01*
X146175557Y-127128443D02*
X146304000Y-127000000D01*
X146175557Y-135953695D02*
X146175557Y-127128443D01*
D23*
X137922000Y-127000000D02*
X146304000Y-127000000D01*
X146304000Y-127000000D02*
X153670000Y-127000000D01*
D24*
X155515992Y-128845992D02*
X153670000Y-127000000D01*
X155515992Y-135940966D02*
X155515992Y-128845992D01*
X164588659Y-125175423D02*
X163838659Y-125175423D01*
X162615236Y-123952000D02*
X156210000Y-123952000D01*
X163838659Y-125175423D02*
X162615236Y-123952000D01*
D23*
X156210000Y-124460000D02*
X156210000Y-123952000D01*
D24*
X162814179Y-114808000D02*
X156210000Y-114808000D01*
X163835744Y-115829565D02*
X162814179Y-114808000D01*
X164585744Y-115829565D02*
X163835744Y-115829565D01*
D23*
X156210000Y-123952000D02*
X156210000Y-114808000D01*
D24*
X162230979Y-104902000D02*
X156210000Y-104902000D01*
X164591758Y-106512779D02*
X163841758Y-106512779D01*
D23*
X156210000Y-114808000D02*
X156210000Y-104902000D01*
D24*
X163841758Y-106512779D02*
X162230979Y-104902000D01*
D23*
X156210000Y-104902000D02*
X156210000Y-100330000D01*
D24*
X136947356Y-97536000D02*
X136840683Y-97429327D01*
X139954000Y-97536000D02*
X136947356Y-97536000D01*
X136060683Y-97429327D02*
X135990683Y-97359327D01*
X136840683Y-97429327D02*
X136060683Y-97429327D01*
X146262331Y-97536000D02*
X146172448Y-97446117D01*
X149606000Y-97536000D02*
X146262331Y-97536000D01*
X145392448Y-97446117D02*
X145322448Y-97376117D01*
X146172448Y-97446117D02*
X145392448Y-97446117D01*
X155882092Y-97790000D02*
X155521419Y-97429327D01*
X159512000Y-97790000D02*
X155882092Y-97790000D01*
X154741419Y-97429327D02*
X154671419Y-97359327D01*
X155521419Y-97429327D02*
X154741419Y-97429327D01*
X125996613Y-106584227D02*
X126066613Y-106514227D01*
X125996613Y-107364227D02*
X125996613Y-106584227D01*
X126066613Y-106514227D02*
X130644227Y-106514227D01*
X130644227Y-106514227D02*
X130810000Y-106680000D01*
X126010089Y-115905579D02*
X126080089Y-115835579D01*
X126010089Y-116685579D02*
X126010089Y-115905579D01*
X130313579Y-115835579D02*
X130810000Y-116332000D01*
X126080089Y-115835579D02*
X130313579Y-115835579D01*
X126000344Y-125241020D02*
X126070344Y-125171020D01*
X126000344Y-126021020D02*
X126000344Y-125241020D01*
X126070344Y-125171020D02*
X129997020Y-125171020D01*
X129997020Y-125171020D02*
X130810000Y-125984000D01*
X135212115Y-136016518D02*
X135142115Y-135946518D01*
X135992115Y-136016518D02*
X135212115Y-136016518D01*
X135142115Y-135946518D02*
X135142115Y-131811885D01*
X135142115Y-131811885D02*
X135890000Y-131064000D01*
X144545557Y-136023695D02*
X144475557Y-135953695D01*
X145325557Y-136023695D02*
X144545557Y-136023695D01*
X144475557Y-131521557D02*
X144018000Y-131064000D01*
X144475557Y-135953695D02*
X144475557Y-131521557D01*
X153885992Y-136010966D02*
X153815992Y-135940966D01*
X154665992Y-136010966D02*
X153885992Y-136010966D01*
X153815992Y-135940966D02*
X153815992Y-131680008D01*
X153815992Y-131680008D02*
X154432000Y-131064000D01*
X164588659Y-126095423D02*
X164658659Y-126025423D01*
X164588659Y-126875423D02*
X164588659Y-126095423D01*
X164658659Y-126025423D02*
X160061423Y-126025423D01*
X160061423Y-126025423D02*
X159766000Y-125730000D01*
X164585744Y-116749565D02*
X164655744Y-116679565D01*
X164585744Y-117529565D02*
X164585744Y-116749565D01*
X159859565Y-116679565D02*
X159766000Y-116586000D01*
X164655744Y-116679565D02*
X159859565Y-116679565D01*
X164591758Y-107432779D02*
X164661758Y-107362779D01*
X164591758Y-108212779D02*
X164591758Y-107432779D01*
X159845221Y-107362779D02*
X159766000Y-107442000D01*
X164661758Y-107362779D02*
X159845221Y-107362779D01*
X164660097Y-86483959D02*
X164590097Y-86553959D01*
X164660097Y-85703959D02*
X164660097Y-86483959D01*
X159572041Y-86553959D02*
X159512000Y-86614000D01*
X164590097Y-86553959D02*
X159572041Y-86553959D01*
X164658649Y-77151005D02*
X164588649Y-77221005D01*
X164658649Y-76371005D02*
X164658649Y-77151005D01*
X159771005Y-77221005D02*
X159512000Y-76962000D01*
X164588649Y-77221005D02*
X159771005Y-77221005D01*
X164670907Y-67805247D02*
X164600907Y-67875247D01*
X164670907Y-67025247D02*
X164670907Y-67805247D01*
X164600907Y-67875247D02*
X159569247Y-67875247D01*
X159569247Y-67875247D02*
X159512000Y-67818000D01*
X154741419Y-57122017D02*
X154671419Y-57052017D01*
X155521419Y-57122017D02*
X154741419Y-57122017D01*
X155521419Y-57122017D02*
X155521419Y-60632581D01*
X155521419Y-60632581D02*
X155194000Y-60960000D01*
X146118118Y-57051980D02*
X146188118Y-57121980D01*
X145338118Y-57051980D02*
X146118118Y-57051980D01*
X146188118Y-57121980D02*
X146188118Y-60821882D01*
X146188118Y-60821882D02*
X146050000Y-60960000D01*
X136783941Y-57026988D02*
X136853941Y-57096988D01*
X136003941Y-57026988D02*
X136783941Y-57026988D01*
X136853941Y-60907941D02*
X136906000Y-60960000D01*
X136853941Y-57096988D02*
X136853941Y-60907941D01*
X126004075Y-84925620D02*
X126074075Y-84855620D01*
X126004075Y-85705620D02*
X126004075Y-84925620D01*
X128504380Y-84855620D02*
X128524000Y-84836000D01*
X126074075Y-84855620D02*
X128504380Y-84855620D01*
X126000776Y-75586255D02*
X126070776Y-75516255D01*
X126000776Y-76366255D02*
X126000776Y-75586255D01*
X128348255Y-75516255D02*
X128524000Y-75692000D01*
X126070776Y-75516255D02*
X128348255Y-75516255D01*
X126004751Y-66260545D02*
X126074751Y-66190545D01*
X126004751Y-67040545D02*
X126004751Y-66260545D01*
X126074751Y-66190545D02*
X127357455Y-66190545D01*
X127357455Y-66190545D02*
X128524000Y-65024000D01*
X124274751Y-75512280D02*
X124270776Y-75516255D01*
X124274751Y-67890545D02*
X124274751Y-75512280D01*
X125170776Y-67894520D02*
X125174751Y-67890545D01*
X125170776Y-75516255D02*
X125170776Y-67894520D01*
X135140683Y-95629327D02*
X132459327Y-95629327D01*
X132459327Y-95629327D02*
X131572000Y-94742000D01*
X131572000Y-94742000D02*
X131572000Y-64770000D01*
X131572000Y-64770000D02*
X128524000Y-61722000D01*
X128524000Y-61722000D02*
X125476000Y-61722000D01*
X124274751Y-62923249D02*
X124274751Y-66190545D01*
X125476000Y-61722000D02*
X124274751Y-62923249D01*
X125174751Y-65290545D02*
X125222000Y-65243296D01*
X125174751Y-66190545D02*
X125174751Y-65290545D01*
X125222000Y-65243296D02*
X125222000Y-63500000D01*
X125222000Y-63500000D02*
X125984000Y-62738000D01*
X125984000Y-62738000D02*
X128270000Y-62738000D01*
X128270000Y-62738000D02*
X130556000Y-65024000D01*
X130556000Y-65024000D02*
X130556000Y-95250000D01*
X131835327Y-96529327D02*
X135140683Y-96529327D01*
X130556000Y-95250000D02*
X131835327Y-96529327D01*
X125174075Y-77219554D02*
X125170776Y-77216255D01*
X125174075Y-84855620D02*
X125174075Y-77219554D01*
X124270776Y-84852321D02*
X124274075Y-84855620D01*
X124270776Y-77216255D02*
X124270776Y-84852321D01*
X124274075Y-86555620D02*
X124274075Y-98483925D01*
X124274075Y-98483925D02*
X124206000Y-98552000D01*
X124206000Y-106453614D02*
X124266613Y-106514227D01*
X124206000Y-102108000D02*
X124206000Y-106453614D01*
X125166613Y-106514227D02*
X125166613Y-102163387D01*
X125166613Y-102163387D02*
X125222000Y-102108000D01*
X125222000Y-86603545D02*
X125174075Y-86555620D01*
X125222000Y-98552000D02*
X125222000Y-86603545D01*
X125166613Y-115822103D02*
X125180089Y-115835579D01*
X125166613Y-108214227D02*
X125166613Y-115822103D01*
X124266613Y-115822103D02*
X124280089Y-115835579D01*
X124266613Y-108214227D02*
X124266613Y-115822103D01*
X124280089Y-125161275D02*
X124270344Y-125171020D01*
X124280089Y-117535579D02*
X124280089Y-125161275D01*
X125180089Y-125161275D02*
X125170344Y-125171020D01*
X125180089Y-117535579D02*
X125180089Y-125161275D01*
X125170344Y-126871020D02*
X125170344Y-128218344D01*
X133798518Y-136846518D02*
X135142115Y-136846518D01*
X125170344Y-128218344D02*
X133798518Y-136846518D01*
X124270344Y-126871020D02*
X124270344Y-128588344D01*
X133428518Y-137746518D02*
X135142115Y-137746518D01*
X124270344Y-128588344D02*
X133428518Y-137746518D01*
X136878933Y-56221980D02*
X136853941Y-56196988D01*
X144488118Y-56221980D02*
X136878933Y-56221980D01*
X136878933Y-55321980D02*
X136853941Y-55296988D01*
X144488118Y-55321980D02*
X136878933Y-55321980D01*
X134253941Y-56196988D02*
X133858000Y-56592929D01*
X135153941Y-56196988D02*
X134253941Y-56196988D01*
X133858000Y-56592929D02*
X133858000Y-94488000D01*
X132588000Y-94488000D02*
X132588000Y-56388000D01*
X133679012Y-55296988D02*
X135153941Y-55296988D01*
X132588000Y-56388000D02*
X133679012Y-55296988D01*
X136857473Y-95646117D02*
X136840683Y-95629327D01*
X144472448Y-95646117D02*
X136857473Y-95646117D01*
X136857473Y-96546117D02*
X136840683Y-96529327D01*
X144472448Y-96546117D02*
X136857473Y-96546117D01*
X144468380Y-137746518D02*
X144475557Y-137753695D01*
X136842115Y-137746518D02*
X144468380Y-137746518D01*
X144468380Y-136846518D02*
X144475557Y-136853695D01*
X136842115Y-136846518D02*
X144468380Y-136846518D01*
X146188155Y-56222017D02*
X146188118Y-56221980D01*
X153821419Y-56222017D02*
X146188155Y-56222017D01*
X146188155Y-55322017D02*
X146188118Y-55321980D01*
X153821419Y-55322017D02*
X146188155Y-55322017D01*
X153804629Y-96546117D02*
X153821419Y-96529327D01*
X146172448Y-96546117D02*
X153804629Y-96546117D01*
X146189238Y-95629327D02*
X146172448Y-95646117D01*
X153821419Y-95629327D02*
X146189238Y-95629327D01*
X153803263Y-136853695D02*
X153815992Y-136840966D01*
X146175557Y-136853695D02*
X153803263Y-136853695D01*
X153803263Y-137753695D02*
X153815992Y-137740966D01*
X146175557Y-137753695D02*
X153803263Y-137753695D01*
X166400907Y-66175247D02*
X166400907Y-63530907D01*
X158192017Y-55322017D02*
X155521419Y-55322017D01*
X166400907Y-63530907D02*
X158192017Y-55322017D01*
X165500907Y-66175247D02*
X165500907Y-63900907D01*
X157822017Y-56222017D02*
X155521419Y-56222017D01*
X165500907Y-63900907D02*
X157822017Y-56222017D01*
X171711324Y-95629327D02*
X172092220Y-95248431D01*
X155521419Y-95629327D02*
X171711324Y-95629327D01*
X170833116Y-96529327D02*
X172092220Y-97788431D01*
X155521419Y-96529327D02*
X170833116Y-96529327D01*
X155515992Y-137740966D02*
X157661034Y-137740966D01*
X166388659Y-129013341D02*
X166388659Y-126875423D01*
X157661034Y-137740966D02*
X166388659Y-129013341D01*
X165488659Y-126875423D02*
X165488659Y-128643341D01*
X157291034Y-136840966D02*
X155515992Y-136840966D01*
X165488659Y-128643341D02*
X157291034Y-136840966D01*
X165488649Y-67887505D02*
X165500907Y-67875247D01*
X165488649Y-75521005D02*
X165488649Y-67887505D01*
X166400907Y-75508747D02*
X166388649Y-75521005D01*
X166400907Y-67875247D02*
X166400907Y-75508747D01*
X166390097Y-77222453D02*
X166388649Y-77221005D01*
X166390097Y-84853959D02*
X166390097Y-77222453D01*
X165488649Y-84852511D02*
X165490097Y-84853959D01*
X165488649Y-77221005D02*
X165488649Y-84852511D01*
X165491758Y-106512779D02*
X165491758Y-102245758D01*
X165491758Y-102245758D02*
X165354000Y-102108000D01*
X165354000Y-94488000D02*
X165354000Y-88392000D01*
X165490097Y-88255903D02*
X165490097Y-86553959D01*
X165354000Y-88392000D02*
X165490097Y-88255903D01*
X166391758Y-106512779D02*
X166391758Y-102340242D01*
X166391758Y-102340242D02*
X166624000Y-102108000D01*
X166624000Y-94488000D02*
X166624000Y-88138000D01*
X166390097Y-87904097D02*
X166390097Y-86553959D01*
X166624000Y-88138000D02*
X166390097Y-87904097D01*
X165491758Y-115823551D02*
X165485744Y-115829565D01*
X165491758Y-108212779D02*
X165491758Y-115823551D01*
X166391758Y-115823551D02*
X166385744Y-115829565D01*
X166391758Y-108212779D02*
X166391758Y-115823551D01*
X166385744Y-125172508D02*
X166388659Y-125175423D01*
X166385744Y-117529565D02*
X166385744Y-125172508D01*
X165485744Y-125172508D02*
X165488659Y-125175423D01*
X165485744Y-117529565D02*
X165485744Y-125172508D01*
D27*
G36*
X172133252Y-48614857D02*
G01*
X173116998Y-49598604D01*
X173611541Y-51082234D01*
X173863000Y-53093904D01*
X173863000Y-54610000D01*
X173863012Y-54611728D01*
X174257220Y-83585990D01*
X174257219Y-110640677D01*
X173863152Y-140195714D01*
X173362412Y-142949784D01*
X172631452Y-143924397D01*
X171149524Y-144912350D01*
X169414242Y-145160247D01*
X166380547Y-144907439D01*
X166369294Y-144907002D01*
X120666661Y-145160906D01*
X117933053Y-144415376D01*
X116709004Y-142701708D01*
X116523762Y-140849276D01*
X117314951Y-140849276D01*
X117314951Y-141516062D01*
X117445034Y-142170037D01*
X117700203Y-142786068D01*
X118070649Y-143340481D01*
X118542139Y-143811971D01*
X119096552Y-144182417D01*
X119712583Y-144437586D01*
X120366558Y-144567669D01*
X121033344Y-144567669D01*
X121687319Y-144437586D01*
X122303350Y-144182417D01*
X122857763Y-143811971D01*
X123329253Y-143340481D01*
X123699699Y-142786068D01*
X123954868Y-142170037D01*
X124084951Y-141516062D01*
X124084951Y-140849276D01*
X124074048Y-140794459D01*
X166523037Y-140794459D01*
X166523037Y-141461245D01*
X166653120Y-142115220D01*
X166908289Y-142731251D01*
X167278735Y-143285664D01*
X167750225Y-143757154D01*
X168304638Y-144127600D01*
X168920669Y-144382769D01*
X169574644Y-144512852D01*
X170241430Y-144512852D01*
X170895405Y-144382769D01*
X171511436Y-144127600D01*
X172065849Y-143757154D01*
X172537339Y-143285664D01*
X172907785Y-142731251D01*
X173162954Y-142115220D01*
X173293037Y-141461245D01*
X173293037Y-140794459D01*
X173162954Y-140140484D01*
X172907785Y-139524453D01*
X172537339Y-138970040D01*
X172065849Y-138498550D01*
X171511436Y-138128104D01*
X170895405Y-137872935D01*
X170241430Y-137742852D01*
X169574644Y-137742852D01*
X168920669Y-137872935D01*
X168304638Y-138128104D01*
X167750225Y-138498550D01*
X167278735Y-138970040D01*
X166908289Y-139524453D01*
X166653120Y-140140484D01*
X166523037Y-140794459D01*
X124074048Y-140794459D01*
X123954868Y-140195301D01*
X123699699Y-139579270D01*
X123329253Y-139024857D01*
X122857763Y-138553367D01*
X122303350Y-138182921D01*
X121687319Y-137927752D01*
X121033344Y-137797669D01*
X120366558Y-137797669D01*
X119712583Y-137927752D01*
X119096552Y-138182921D01*
X118542139Y-138553367D01*
X118070649Y-139024857D01*
X117700203Y-139579270D01*
X117445034Y-140195301D01*
X117314951Y-140849276D01*
X116523762Y-140849276D01*
X116458958Y-140201239D01*
X116407220Y-132440552D01*
X116407220Y-107082477D01*
X123201613Y-107082477D01*
X123360363Y-107241227D01*
X123471380Y-107241227D01*
X123486076Y-107268721D01*
X123564455Y-107364227D01*
X123486076Y-107459733D01*
X123471380Y-107487227D01*
X123360363Y-107487227D01*
X123201613Y-107645977D01*
X123212740Y-107748088D01*
X123250843Y-107867228D01*
X123311456Y-107976644D01*
X123378541Y-108055930D01*
X123378541Y-108614227D01*
X123381613Y-108645419D01*
X123381614Y-115778624D01*
X123377332Y-115822103D01*
X123392017Y-115971213D01*
X123392017Y-115993876D01*
X123324932Y-116073162D01*
X123264319Y-116182578D01*
X123226216Y-116301718D01*
X123215089Y-116403829D01*
X123373839Y-116562579D01*
X123484856Y-116562579D01*
X123499552Y-116590073D01*
X123577931Y-116685579D01*
X123499552Y-116781085D01*
X123484856Y-116808579D01*
X123373839Y-116808579D01*
X123215089Y-116967329D01*
X123226216Y-117069440D01*
X123264319Y-117188580D01*
X123324932Y-117297996D01*
X123392017Y-117377282D01*
X123392017Y-117935579D01*
X123395089Y-117966771D01*
X123395090Y-124644699D01*
X123394532Y-124646538D01*
X123382272Y-124771020D01*
X123382272Y-125158744D01*
X123381063Y-125171020D01*
X123382272Y-125183296D01*
X123382272Y-125329317D01*
X123315187Y-125408603D01*
X123254574Y-125518019D01*
X123216471Y-125637159D01*
X123205344Y-125739270D01*
X123364094Y-125898020D01*
X123475111Y-125898020D01*
X123489807Y-125925514D01*
X123568186Y-126021020D01*
X123489807Y-126116526D01*
X123475111Y-126144020D01*
X123364094Y-126144020D01*
X123205344Y-126302770D01*
X123216471Y-126404881D01*
X123254574Y-126524021D01*
X123315187Y-126633437D01*
X123382272Y-126712723D01*
X123382272Y-127271020D01*
X123385344Y-127302214D01*
X123385345Y-128544865D01*
X123381063Y-128588344D01*
X123398149Y-128761834D01*
X123448756Y-128928657D01*
X123530934Y-129082403D01*
X123613812Y-129183390D01*
X123613815Y-129183393D01*
X123641528Y-129217161D01*
X123675296Y-129244874D01*
X132771988Y-138341567D01*
X132799701Y-138375335D01*
X132833469Y-138403048D01*
X132833471Y-138403050D01*
X132844160Y-138411822D01*
X132934459Y-138485929D01*
X133088205Y-138568107D01*
X133255028Y-138618713D01*
X133385041Y-138631518D01*
X133385049Y-138631518D01*
X133428518Y-138635799D01*
X133471987Y-138631518D01*
X134710923Y-138631518D01*
X134742115Y-138634590D01*
X135300412Y-138634590D01*
X135379698Y-138701675D01*
X135489114Y-138762288D01*
X135608254Y-138800391D01*
X135710365Y-138811518D01*
X135869115Y-138652768D01*
X135869115Y-138541751D01*
X135896609Y-138527055D01*
X135992115Y-138448676D01*
X136087621Y-138527055D01*
X136115115Y-138541751D01*
X136115115Y-138652768D01*
X136273865Y-138811518D01*
X136375976Y-138800391D01*
X136495116Y-138762288D01*
X136604532Y-138701675D01*
X136683818Y-138634590D01*
X137242115Y-138634590D01*
X137273307Y-138631518D01*
X143971494Y-138631518D01*
X144075557Y-138641767D01*
X144463281Y-138641767D01*
X144475557Y-138642976D01*
X144487833Y-138641767D01*
X144633854Y-138641767D01*
X144713140Y-138708852D01*
X144822556Y-138769465D01*
X144941696Y-138807568D01*
X145043807Y-138818695D01*
X145202557Y-138659945D01*
X145202557Y-138548928D01*
X145230051Y-138534232D01*
X145325557Y-138455853D01*
X145421063Y-138534232D01*
X145448557Y-138548928D01*
X145448557Y-138659945D01*
X145607307Y-138818695D01*
X145709418Y-138807568D01*
X145828558Y-138769465D01*
X145937974Y-138708852D01*
X146017260Y-138641767D01*
X146575557Y-138641767D01*
X146606749Y-138638695D01*
X153759794Y-138638695D01*
X153803263Y-138642976D01*
X153846732Y-138638695D01*
X153846740Y-138638695D01*
X153944790Y-138629038D01*
X153974289Y-138629038D01*
X154053575Y-138696123D01*
X154162991Y-138756736D01*
X154282131Y-138794839D01*
X154384242Y-138805966D01*
X154542992Y-138647216D01*
X154542992Y-138536199D01*
X154570486Y-138521503D01*
X154665992Y-138443124D01*
X154761498Y-138521503D01*
X154788992Y-138536199D01*
X154788992Y-138647216D01*
X154947742Y-138805966D01*
X155049853Y-138794839D01*
X155168993Y-138756736D01*
X155278409Y-138696123D01*
X155357695Y-138629038D01*
X155915992Y-138629038D01*
X155947184Y-138625966D01*
X157617565Y-138625966D01*
X157661034Y-138630247D01*
X157704503Y-138625966D01*
X157704511Y-138625966D01*
X157834524Y-138613161D01*
X158001347Y-138562555D01*
X158155093Y-138480377D01*
X158289851Y-138369783D01*
X158317568Y-138336010D01*
X166983710Y-129669869D01*
X167017476Y-129642158D01*
X167128070Y-129507400D01*
X167143984Y-129477626D01*
X167210248Y-129353655D01*
X167260854Y-129186831D01*
X167265722Y-129137400D01*
X167273659Y-129056818D01*
X167273659Y-129056810D01*
X167277940Y-129013341D01*
X167273659Y-128969872D01*
X167273659Y-127306615D01*
X167276731Y-127275423D01*
X167276731Y-126717126D01*
X167343816Y-126637840D01*
X167404429Y-126528424D01*
X167442532Y-126409284D01*
X167453659Y-126307173D01*
X167294909Y-126148423D01*
X167183892Y-126148423D01*
X167169196Y-126120929D01*
X167090817Y-126025423D01*
X167169196Y-125929917D01*
X167183892Y-125902423D01*
X167294909Y-125902423D01*
X167453659Y-125743673D01*
X167442532Y-125641562D01*
X167404429Y-125522422D01*
X167343816Y-125413006D01*
X167276731Y-125333720D01*
X167276731Y-125187697D01*
X167277940Y-125175422D01*
X167276731Y-125163147D01*
X167276731Y-124775423D01*
X167270744Y-124714634D01*
X167270744Y-117960757D01*
X167273816Y-117929565D01*
X167273816Y-117371268D01*
X167340901Y-117291982D01*
X167401514Y-117182566D01*
X167439617Y-117063426D01*
X167450744Y-116961315D01*
X167291994Y-116802565D01*
X167180977Y-116802565D01*
X167166281Y-116775071D01*
X167087902Y-116679565D01*
X167166281Y-116584059D01*
X167180977Y-116556565D01*
X167291994Y-116556565D01*
X167450744Y-116397815D01*
X167439617Y-116295704D01*
X167401514Y-116176564D01*
X167340901Y-116067148D01*
X167273816Y-115987862D01*
X167273816Y-115896899D01*
X167276758Y-115867028D01*
X167276758Y-115867018D01*
X167281039Y-115823552D01*
X167276758Y-115780085D01*
X167276758Y-108643971D01*
X167279830Y-108612779D01*
X167279830Y-108054482D01*
X167346915Y-107975196D01*
X167407528Y-107865780D01*
X167445631Y-107746640D01*
X167456758Y-107644529D01*
X167298008Y-107485779D01*
X167186991Y-107485779D01*
X167172295Y-107458285D01*
X167093916Y-107362779D01*
X167172295Y-107267273D01*
X167186991Y-107239779D01*
X167298008Y-107239779D01*
X167456758Y-107081029D01*
X167445631Y-106978918D01*
X167407528Y-106859778D01*
X167346915Y-106750362D01*
X167279830Y-106671076D01*
X167279830Y-106112779D01*
X167276758Y-106081587D01*
X167276758Y-102838202D01*
X167383585Y-102731375D01*
X167490604Y-102571210D01*
X167564320Y-102393243D01*
X167601900Y-102204315D01*
X167601900Y-102011685D01*
X167564320Y-101822757D01*
X167490604Y-101644790D01*
X167383585Y-101484625D01*
X167247375Y-101348415D01*
X167087210Y-101241396D01*
X166909243Y-101167680D01*
X166720315Y-101130100D01*
X166527685Y-101130100D01*
X166338757Y-101167680D01*
X166160790Y-101241396D01*
X166000625Y-101348415D01*
X165989000Y-101360040D01*
X165977375Y-101348415D01*
X165817210Y-101241396D01*
X165639243Y-101167680D01*
X165450315Y-101130100D01*
X165257685Y-101130100D01*
X165068757Y-101167680D01*
X164890790Y-101241396D01*
X164730625Y-101348415D01*
X164594415Y-101484625D01*
X164487396Y-101644790D01*
X164413680Y-101822757D01*
X164376100Y-102011685D01*
X164376100Y-102204315D01*
X164413680Y-102393243D01*
X164487396Y-102571210D01*
X164594415Y-102731375D01*
X164606759Y-102743719D01*
X164606758Y-106474707D01*
X164444758Y-106474707D01*
X164444758Y-106385779D01*
X164468758Y-106385779D01*
X164468758Y-105636529D01*
X164310008Y-105477779D01*
X164203464Y-105489874D01*
X164084598Y-105528823D01*
X163975615Y-105590213D01*
X163880703Y-105671685D01*
X163803509Y-105770107D01*
X163746999Y-105881699D01*
X163713346Y-106002171D01*
X163703842Y-106126893D01*
X163706758Y-106227029D01*
X163865506Y-106385777D01*
X163706758Y-106385777D01*
X163706758Y-106477779D01*
X159931084Y-106477779D01*
X159862315Y-106464100D01*
X159669685Y-106464100D01*
X159480757Y-106501680D01*
X159302790Y-106575396D01*
X159142625Y-106682415D01*
X159006415Y-106818625D01*
X158899396Y-106978790D01*
X158825680Y-107156757D01*
X158788100Y-107345685D01*
X158788100Y-107538315D01*
X158825680Y-107727243D01*
X158899396Y-107905210D01*
X159006415Y-108065375D01*
X159142625Y-108201585D01*
X159302790Y-108308604D01*
X159480757Y-108382320D01*
X159669685Y-108419900D01*
X159862315Y-108419900D01*
X160051243Y-108382320D01*
X160229210Y-108308604D01*
X160320241Y-108247779D01*
X163703686Y-108247779D01*
X163703686Y-108612779D01*
X163715946Y-108737261D01*
X163752256Y-108856959D01*
X163811221Y-108967273D01*
X163890573Y-109063964D01*
X163987264Y-109143316D01*
X164097578Y-109202281D01*
X164217276Y-109238591D01*
X164341758Y-109250851D01*
X164606758Y-109250851D01*
X164606759Y-115725020D01*
X164600212Y-115791493D01*
X164438744Y-115791493D01*
X164438744Y-115702565D01*
X164462744Y-115702565D01*
X164462744Y-114953315D01*
X164303994Y-114794565D01*
X164197450Y-114806660D01*
X164078584Y-114845609D01*
X163969601Y-114906999D01*
X163874689Y-114988471D01*
X163797495Y-115086893D01*
X163740985Y-115198485D01*
X163707332Y-115318957D01*
X163697828Y-115443679D01*
X163700744Y-115543815D01*
X163859492Y-115702563D01*
X163700744Y-115702563D01*
X163700744Y-115794565D01*
X160341708Y-115794565D01*
X160229210Y-115719396D01*
X160051243Y-115645680D01*
X159862315Y-115608100D01*
X159669685Y-115608100D01*
X159480757Y-115645680D01*
X159302790Y-115719396D01*
X159142625Y-115826415D01*
X159006415Y-115962625D01*
X158899396Y-116122790D01*
X158825680Y-116300757D01*
X158788100Y-116489685D01*
X158788100Y-116682315D01*
X158825680Y-116871243D01*
X158899396Y-117049210D01*
X159006415Y-117209375D01*
X159142625Y-117345585D01*
X159302790Y-117452604D01*
X159480757Y-117526320D01*
X159669685Y-117563900D01*
X159809336Y-117563900D01*
X159816088Y-117564565D01*
X159816096Y-117564565D01*
X159859565Y-117568846D01*
X159903034Y-117564565D01*
X163697672Y-117564565D01*
X163697672Y-117929565D01*
X163709932Y-118054047D01*
X163746242Y-118173745D01*
X163805207Y-118284059D01*
X163884559Y-118380750D01*
X163981250Y-118460102D01*
X164091564Y-118519067D01*
X164211262Y-118555377D01*
X164335744Y-118567637D01*
X164600744Y-118567637D01*
X164600745Y-125129029D01*
X164599925Y-125137351D01*
X164441659Y-125137351D01*
X164441659Y-125048423D01*
X164465659Y-125048423D01*
X164465659Y-124299173D01*
X164306909Y-124140423D01*
X164200365Y-124152518D01*
X164081499Y-124191467D01*
X163972516Y-124252857D01*
X163877604Y-124334329D01*
X163800410Y-124432751D01*
X163743900Y-124544343D01*
X163710247Y-124664815D01*
X163700743Y-124789537D01*
X163703659Y-124889673D01*
X163862407Y-125048421D01*
X163703659Y-125048421D01*
X163703659Y-125140423D01*
X160548168Y-125140423D01*
X160525585Y-125106625D01*
X160389375Y-124970415D01*
X160229210Y-124863396D01*
X160051243Y-124789680D01*
X159862315Y-124752100D01*
X159669685Y-124752100D01*
X159480757Y-124789680D01*
X159302790Y-124863396D01*
X159142625Y-124970415D01*
X159006415Y-125106625D01*
X158899396Y-125266790D01*
X158825680Y-125444757D01*
X158788100Y-125633685D01*
X158788100Y-125826315D01*
X158825680Y-126015243D01*
X158899396Y-126193210D01*
X159006415Y-126353375D01*
X159142625Y-126489585D01*
X159302790Y-126596604D01*
X159427801Y-126648385D01*
X159432606Y-126654240D01*
X159567364Y-126764834D01*
X159721110Y-126847012D01*
X159887933Y-126897618D01*
X160017946Y-126910423D01*
X160017956Y-126910423D01*
X160061422Y-126914704D01*
X160104888Y-126910423D01*
X163700587Y-126910423D01*
X163700587Y-127275423D01*
X163712847Y-127399905D01*
X163749157Y-127519603D01*
X163808122Y-127629917D01*
X163887474Y-127726608D01*
X163984165Y-127805960D01*
X164094479Y-127864925D01*
X164214177Y-127901235D01*
X164338659Y-127913495D01*
X164603660Y-127913495D01*
X164603660Y-128276761D01*
X156924456Y-135955966D01*
X155554064Y-135955966D01*
X155554064Y-135510966D01*
X155541804Y-135386484D01*
X155505494Y-135266786D01*
X155477662Y-135214716D01*
X155642992Y-135214716D01*
X155642992Y-135817966D01*
X156392242Y-135817966D01*
X156550992Y-135659216D01*
X156538897Y-135552672D01*
X156499948Y-135433806D01*
X156438558Y-135324823D01*
X156357086Y-135229911D01*
X156258664Y-135152717D01*
X156147072Y-135096207D01*
X156026600Y-135062554D01*
X155901878Y-135053050D01*
X155801742Y-135055966D01*
X155642992Y-135214716D01*
X155477662Y-135214716D01*
X155446529Y-135156472D01*
X155367177Y-135059781D01*
X155270486Y-134980429D01*
X155160172Y-134921464D01*
X155040474Y-134885154D01*
X154915992Y-134872894D01*
X154700992Y-134872894D01*
X154700992Y-132046586D01*
X154761654Y-131985924D01*
X154895210Y-131930604D01*
X155055375Y-131823585D01*
X155191585Y-131687375D01*
X155298604Y-131527210D01*
X155372320Y-131349243D01*
X155409900Y-131160315D01*
X155409900Y-130967685D01*
X155372320Y-130778757D01*
X155298604Y-130600790D01*
X155191585Y-130440625D01*
X155055375Y-130304415D01*
X154895210Y-130197396D01*
X154717243Y-130123680D01*
X154528315Y-130086100D01*
X154335685Y-130086100D01*
X154146757Y-130123680D01*
X153968790Y-130197396D01*
X153808625Y-130304415D01*
X153672415Y-130440625D01*
X153565396Y-130600790D01*
X153510076Y-130734346D01*
X153220943Y-131023479D01*
X153187176Y-131051191D01*
X153159463Y-131084959D01*
X153159460Y-131084962D01*
X153076582Y-131185949D01*
X152994404Y-131339695D01*
X152943797Y-131506518D01*
X152926711Y-131680008D01*
X152930993Y-131723487D01*
X152930992Y-135280985D01*
X152885455Y-135336472D01*
X152826490Y-135446786D01*
X152790180Y-135566484D01*
X152777920Y-135690966D01*
X152777920Y-135968695D01*
X146213629Y-135968695D01*
X146213629Y-135523695D01*
X146201369Y-135399213D01*
X146165059Y-135279515D01*
X146137227Y-135227445D01*
X146302557Y-135227445D01*
X146302557Y-135830695D01*
X147051807Y-135830695D01*
X147210557Y-135671945D01*
X147198462Y-135565401D01*
X147159513Y-135446535D01*
X147098123Y-135337552D01*
X147016651Y-135242640D01*
X146918229Y-135165446D01*
X146806637Y-135108936D01*
X146686165Y-135075283D01*
X146561443Y-135065779D01*
X146461307Y-135068695D01*
X146302557Y-135227445D01*
X146137227Y-135227445D01*
X146106094Y-135169201D01*
X146026742Y-135072510D01*
X145930051Y-134993158D01*
X145819737Y-134934193D01*
X145700039Y-134897883D01*
X145575557Y-134885623D01*
X145360557Y-134885623D01*
X145360557Y-131565022D01*
X145364838Y-131521556D01*
X145360557Y-131478090D01*
X145360557Y-131478080D01*
X145347752Y-131348067D01*
X145297146Y-131181244D01*
X145214968Y-131027498D01*
X145104374Y-130892740D01*
X145070601Y-130865023D01*
X144939925Y-130734347D01*
X144884604Y-130600790D01*
X144777585Y-130440625D01*
X144641375Y-130304415D01*
X144481210Y-130197396D01*
X144303243Y-130123680D01*
X144114315Y-130086100D01*
X143921685Y-130086100D01*
X143732757Y-130123680D01*
X143554790Y-130197396D01*
X143394625Y-130304415D01*
X143258415Y-130440625D01*
X143151396Y-130600790D01*
X143077680Y-130778757D01*
X143040100Y-130967685D01*
X143040100Y-131160315D01*
X143077680Y-131349243D01*
X143151396Y-131527210D01*
X143258415Y-131687375D01*
X143394625Y-131823585D01*
X143554790Y-131930604D01*
X143590558Y-131945419D01*
X143590557Y-135293714D01*
X143545020Y-135349201D01*
X143486055Y-135459515D01*
X143449745Y-135579213D01*
X143437485Y-135703695D01*
X143437485Y-135961518D01*
X136880187Y-135961518D01*
X136880187Y-135516518D01*
X136867927Y-135392036D01*
X136831617Y-135272338D01*
X136803785Y-135220268D01*
X136969115Y-135220268D01*
X136969115Y-135823518D01*
X137718365Y-135823518D01*
X137877115Y-135664768D01*
X137865020Y-135558224D01*
X137826071Y-135439358D01*
X137764681Y-135330375D01*
X137683209Y-135235463D01*
X137584787Y-135158269D01*
X137473195Y-135101759D01*
X137352723Y-135068106D01*
X137228001Y-135058602D01*
X137127865Y-135061518D01*
X136969115Y-135220268D01*
X136803785Y-135220268D01*
X136772652Y-135162024D01*
X136693300Y-135065333D01*
X136596609Y-134985981D01*
X136486295Y-134927016D01*
X136366597Y-134890706D01*
X136242115Y-134878446D01*
X136027115Y-134878446D01*
X136027115Y-132178463D01*
X136219654Y-131985924D01*
X136353210Y-131930604D01*
X136513375Y-131823585D01*
X136649585Y-131687375D01*
X136756604Y-131527210D01*
X136830320Y-131349243D01*
X136867900Y-131160315D01*
X136867900Y-130967685D01*
X136830320Y-130778757D01*
X136756604Y-130600790D01*
X136649585Y-130440625D01*
X136513375Y-130304415D01*
X136353210Y-130197396D01*
X136175243Y-130123680D01*
X135986315Y-130086100D01*
X135793685Y-130086100D01*
X135604757Y-130123680D01*
X135426790Y-130197396D01*
X135266625Y-130304415D01*
X135130415Y-130440625D01*
X135023396Y-130600790D01*
X134968076Y-130734346D01*
X134547066Y-131155356D01*
X134513299Y-131183068D01*
X134485586Y-131216836D01*
X134485583Y-131216839D01*
X134402705Y-131317826D01*
X134320527Y-131471572D01*
X134269920Y-131638395D01*
X134252834Y-131811885D01*
X134257116Y-131855364D01*
X134257115Y-135286537D01*
X134211578Y-135342024D01*
X134152613Y-135452338D01*
X134116303Y-135572036D01*
X134104043Y-135696518D01*
X134104043Y-135900464D01*
X126109598Y-127906020D01*
X126197346Y-127906020D01*
X126197346Y-127751272D01*
X126352094Y-127906020D01*
X126458638Y-127893925D01*
X126577504Y-127854976D01*
X126686487Y-127793586D01*
X126781399Y-127712114D01*
X126858593Y-127613692D01*
X126915103Y-127502100D01*
X126948756Y-127381628D01*
X126958260Y-127256906D01*
X126955344Y-127156770D01*
X126796594Y-126998020D01*
X126193344Y-126998020D01*
X126193344Y-127018020D01*
X126055344Y-127018020D01*
X126055344Y-126909092D01*
X126500344Y-126909092D01*
X126624826Y-126896832D01*
X126744524Y-126860522D01*
X126854838Y-126801557D01*
X126951529Y-126722205D01*
X127030881Y-126625514D01*
X127089846Y-126515200D01*
X127126156Y-126395502D01*
X127138416Y-126271020D01*
X127138416Y-126056020D01*
X129630442Y-126056020D01*
X129888076Y-126313654D01*
X129943396Y-126447210D01*
X130050415Y-126607375D01*
X130186625Y-126743585D01*
X130346790Y-126850604D01*
X130524757Y-126924320D01*
X130713685Y-126961900D01*
X130906315Y-126961900D01*
X131095243Y-126924320D01*
X131273210Y-126850604D01*
X131433375Y-126743585D01*
X131569585Y-126607375D01*
X131676604Y-126447210D01*
X131750320Y-126269243D01*
X131787900Y-126080315D01*
X131787900Y-125887685D01*
X131750320Y-125698757D01*
X131676604Y-125520790D01*
X131569585Y-125360625D01*
X131433375Y-125224415D01*
X131273210Y-125117396D01*
X131139654Y-125062076D01*
X130653552Y-124575974D01*
X130625837Y-124542203D01*
X130491079Y-124431609D01*
X130337333Y-124349431D01*
X130170510Y-124298825D01*
X130040497Y-124286020D01*
X130040489Y-124286020D01*
X129997020Y-124281739D01*
X129953551Y-124286020D01*
X126730325Y-124286020D01*
X126674838Y-124240483D01*
X126564524Y-124181518D01*
X126444826Y-124145208D01*
X126320344Y-124132948D01*
X126065089Y-124132948D01*
X126065089Y-117662579D01*
X126203089Y-117662579D01*
X126203089Y-118411829D01*
X126361839Y-118570579D01*
X126468383Y-118558484D01*
X126587249Y-118519535D01*
X126696232Y-118458145D01*
X126791144Y-118376673D01*
X126868338Y-118278251D01*
X126924848Y-118166659D01*
X126958501Y-118046187D01*
X126968005Y-117921465D01*
X126965089Y-117821329D01*
X126806339Y-117662579D01*
X126203089Y-117662579D01*
X126065089Y-117662579D01*
X126065089Y-117573651D01*
X126510089Y-117573651D01*
X126634571Y-117561391D01*
X126754269Y-117525081D01*
X126864583Y-117466116D01*
X126961274Y-117386764D01*
X127040626Y-117290073D01*
X127099591Y-117179759D01*
X127135901Y-117060061D01*
X127148161Y-116935579D01*
X127148161Y-116720579D01*
X129912483Y-116720579D01*
X129943396Y-116795210D01*
X130050415Y-116955375D01*
X130186625Y-117091585D01*
X130346790Y-117198604D01*
X130524757Y-117272320D01*
X130713685Y-117309900D01*
X130906315Y-117309900D01*
X131095243Y-117272320D01*
X131273210Y-117198604D01*
X131433375Y-117091585D01*
X131569585Y-116955375D01*
X131676604Y-116795210D01*
X131750320Y-116617243D01*
X131787900Y-116428315D01*
X131787900Y-116235685D01*
X131750320Y-116046757D01*
X131676604Y-115868790D01*
X131569585Y-115708625D01*
X131433375Y-115572415D01*
X131273210Y-115465396D01*
X131139653Y-115410075D01*
X130970111Y-115240533D01*
X130942396Y-115206762D01*
X130807638Y-115096168D01*
X130653892Y-115013990D01*
X130487069Y-114963384D01*
X130357056Y-114950579D01*
X130357048Y-114950579D01*
X130313579Y-114946298D01*
X130270110Y-114950579D01*
X126740070Y-114950579D01*
X126684583Y-114905042D01*
X126574269Y-114846077D01*
X126454571Y-114809767D01*
X126330089Y-114797507D01*
X126051613Y-114797507D01*
X126051613Y-108341227D01*
X126189613Y-108341227D01*
X126189613Y-109090477D01*
X126348363Y-109249227D01*
X126454907Y-109237132D01*
X126573773Y-109198183D01*
X126682756Y-109136793D01*
X126777668Y-109055321D01*
X126854862Y-108956899D01*
X126911372Y-108845307D01*
X126945025Y-108724835D01*
X126954529Y-108600113D01*
X126951613Y-108499977D01*
X126792863Y-108341227D01*
X126189613Y-108341227D01*
X126051613Y-108341227D01*
X126051613Y-108252299D01*
X126496613Y-108252299D01*
X126621095Y-108240039D01*
X126740793Y-108203729D01*
X126851107Y-108144764D01*
X126947798Y-108065412D01*
X127027150Y-107968721D01*
X127086115Y-107858407D01*
X127122425Y-107738709D01*
X127134685Y-107614227D01*
X127134685Y-107399227D01*
X130146267Y-107399227D01*
X130186625Y-107439585D01*
X130346790Y-107546604D01*
X130524757Y-107620320D01*
X130713685Y-107657900D01*
X130906315Y-107657900D01*
X131095243Y-107620320D01*
X131273210Y-107546604D01*
X131433375Y-107439585D01*
X131569585Y-107303375D01*
X131676604Y-107143210D01*
X131750320Y-106965243D01*
X131787900Y-106776315D01*
X131787900Y-106583685D01*
X131750320Y-106394757D01*
X131676604Y-106216790D01*
X131569585Y-106056625D01*
X131433375Y-105920415D01*
X131273210Y-105813396D01*
X131095243Y-105739680D01*
X131059100Y-105732491D01*
X130984540Y-105692638D01*
X130817717Y-105642032D01*
X130687704Y-105629227D01*
X130687696Y-105629227D01*
X130644227Y-105624946D01*
X130600758Y-105629227D01*
X126726594Y-105629227D01*
X126671107Y-105583690D01*
X126560793Y-105524725D01*
X126441095Y-105488415D01*
X126316613Y-105476155D01*
X126051613Y-105476155D01*
X126051613Y-102626571D01*
X126088604Y-102571210D01*
X126162320Y-102393243D01*
X126199900Y-102204315D01*
X126199900Y-102011685D01*
X126162320Y-101822757D01*
X126088604Y-101644790D01*
X125981585Y-101484625D01*
X125845375Y-101348415D01*
X125685210Y-101241396D01*
X125507243Y-101167680D01*
X125318315Y-101130100D01*
X125125685Y-101130100D01*
X124936757Y-101167680D01*
X124758790Y-101241396D01*
X124714000Y-101271324D01*
X124669210Y-101241396D01*
X124491243Y-101167680D01*
X124302315Y-101130100D01*
X124109685Y-101130100D01*
X123920757Y-101167680D01*
X123742790Y-101241396D01*
X123582625Y-101348415D01*
X123446415Y-101484625D01*
X123339396Y-101644790D01*
X123265680Y-101822757D01*
X123228100Y-102011685D01*
X123228100Y-102204315D01*
X123265680Y-102393243D01*
X123321000Y-102526798D01*
X123321001Y-106410135D01*
X123316719Y-106453614D01*
X123333805Y-106627104D01*
X123355753Y-106699456D01*
X123311456Y-106751810D01*
X123250843Y-106861226D01*
X123212740Y-106980366D01*
X123201613Y-107082477D01*
X116407220Y-107082477D01*
X116407220Y-101201490D01*
X116994688Y-101201490D01*
X117006948Y-101325972D01*
X117043258Y-101445670D01*
X117102223Y-101555984D01*
X117181575Y-101652675D01*
X117278266Y-101732027D01*
X117388580Y-101790992D01*
X117508278Y-101827302D01*
X117632760Y-101839562D01*
X118197010Y-101836490D01*
X118355760Y-101677740D01*
X118355760Y-100478490D01*
X118609760Y-100478490D01*
X118609760Y-101677740D01*
X118768510Y-101836490D01*
X119332760Y-101839562D01*
X119457242Y-101827302D01*
X119576940Y-101790992D01*
X119687254Y-101732027D01*
X119783945Y-101652675D01*
X119863297Y-101555984D01*
X119922262Y-101445670D01*
X119958572Y-101325972D01*
X119970832Y-101201490D01*
X119968022Y-100685321D01*
X170650744Y-100685321D01*
X170695395Y-100832530D01*
X170820579Y-101095351D01*
X170994632Y-101328700D01*
X171210865Y-101523609D01*
X171460968Y-101672588D01*
X171735329Y-101769912D01*
X171965220Y-101649245D01*
X171965220Y-100455431D01*
X172219220Y-100455431D01*
X172219220Y-101649245D01*
X172449111Y-101769912D01*
X172723472Y-101672588D01*
X172973575Y-101523609D01*
X173189808Y-101328700D01*
X173363861Y-101095351D01*
X173489045Y-100832530D01*
X173533696Y-100685321D01*
X173412375Y-100455431D01*
X172219220Y-100455431D01*
X171965220Y-100455431D01*
X170772065Y-100455431D01*
X170650744Y-100685321D01*
X119968022Y-100685321D01*
X119967760Y-100637240D01*
X119809010Y-100478490D01*
X118609760Y-100478490D01*
X118355760Y-100478490D01*
X117156510Y-100478490D01*
X116997760Y-100637240D01*
X116994688Y-101201490D01*
X116407220Y-101201490D01*
X116407220Y-99501490D01*
X116994688Y-99501490D01*
X116997760Y-100065740D01*
X117156510Y-100224490D01*
X118355760Y-100224490D01*
X118355760Y-100204490D01*
X118609760Y-100204490D01*
X118609760Y-100224490D01*
X119809010Y-100224490D01*
X119967760Y-100065740D01*
X119970832Y-99501490D01*
X119958572Y-99377008D01*
X119922262Y-99257310D01*
X119863297Y-99146996D01*
X119783945Y-99050305D01*
X119687254Y-98970953D01*
X119576940Y-98911988D01*
X119504380Y-98889977D01*
X119636235Y-98758122D01*
X119798750Y-98514901D01*
X119910692Y-98244648D01*
X119967760Y-97957750D01*
X119967760Y-97665230D01*
X119910692Y-97378332D01*
X119798750Y-97108079D01*
X119636235Y-96864858D01*
X119429392Y-96658015D01*
X119255000Y-96541490D01*
X119429392Y-96424965D01*
X119636235Y-96218122D01*
X119798750Y-95974901D01*
X119910692Y-95704648D01*
X119967760Y-95417750D01*
X119967760Y-95125230D01*
X119910692Y-94838332D01*
X119798750Y-94568079D01*
X119636235Y-94324858D01*
X119429392Y-94118015D01*
X119255000Y-94001490D01*
X119429392Y-93884965D01*
X119636235Y-93678122D01*
X119798750Y-93434901D01*
X119910692Y-93164648D01*
X119967760Y-92877750D01*
X119967760Y-92585230D01*
X119910692Y-92298332D01*
X119798750Y-92028079D01*
X119636235Y-91784858D01*
X119429392Y-91578015D01*
X119186171Y-91415500D01*
X118915918Y-91303558D01*
X118629020Y-91246490D01*
X118336500Y-91246490D01*
X118049602Y-91303558D01*
X117779349Y-91415500D01*
X117536128Y-91578015D01*
X117329285Y-91784858D01*
X117166770Y-92028079D01*
X117054828Y-92298332D01*
X116997760Y-92585230D01*
X116997760Y-92877750D01*
X117054828Y-93164648D01*
X117166770Y-93434901D01*
X117329285Y-93678122D01*
X117536128Y-93884965D01*
X117710520Y-94001490D01*
X117536128Y-94118015D01*
X117329285Y-94324858D01*
X117166770Y-94568079D01*
X117054828Y-94838332D01*
X116997760Y-95125230D01*
X116997760Y-95417750D01*
X117054828Y-95704648D01*
X117166770Y-95974901D01*
X117329285Y-96218122D01*
X117536128Y-96424965D01*
X117710520Y-96541490D01*
X117536128Y-96658015D01*
X117329285Y-96864858D01*
X117166770Y-97108079D01*
X117054828Y-97378332D01*
X116997760Y-97665230D01*
X116997760Y-97957750D01*
X117054828Y-98244648D01*
X117166770Y-98514901D01*
X117329285Y-98758122D01*
X117461140Y-98889977D01*
X117388580Y-98911988D01*
X117278266Y-98970953D01*
X117181575Y-99050305D01*
X117102223Y-99146996D01*
X117043258Y-99257310D01*
X117006948Y-99377008D01*
X116994688Y-99501490D01*
X116407220Y-99501490D01*
X116407220Y-80687426D01*
X116498067Y-76084505D01*
X123205776Y-76084505D01*
X123364526Y-76243255D01*
X123475543Y-76243255D01*
X123490239Y-76270749D01*
X123568618Y-76366255D01*
X123490239Y-76461761D01*
X123475543Y-76489255D01*
X123364526Y-76489255D01*
X123205776Y-76648005D01*
X123216903Y-76750116D01*
X123255006Y-76869256D01*
X123315619Y-76978672D01*
X123382704Y-77057958D01*
X123382704Y-77616255D01*
X123385776Y-77647447D01*
X123385777Y-84808842D01*
X123381495Y-84852321D01*
X123386003Y-84898095D01*
X123386003Y-85013917D01*
X123318918Y-85093203D01*
X123258305Y-85202619D01*
X123220202Y-85321759D01*
X123209075Y-85423870D01*
X123367825Y-85582620D01*
X123478842Y-85582620D01*
X123493538Y-85610114D01*
X123571917Y-85705620D01*
X123493538Y-85801126D01*
X123478842Y-85828620D01*
X123367825Y-85828620D01*
X123209075Y-85987370D01*
X123220202Y-86089481D01*
X123258305Y-86208621D01*
X123318918Y-86318037D01*
X123386003Y-86397323D01*
X123386003Y-86955620D01*
X123389075Y-86986812D01*
X123389076Y-98014439D01*
X123339396Y-98088790D01*
X123265680Y-98266757D01*
X123228100Y-98455685D01*
X123228100Y-98648315D01*
X123265680Y-98837243D01*
X123339396Y-99015210D01*
X123446415Y-99175375D01*
X123582625Y-99311585D01*
X123742790Y-99418604D01*
X123920757Y-99492320D01*
X124109685Y-99529900D01*
X124302315Y-99529900D01*
X124491243Y-99492320D01*
X124669210Y-99418604D01*
X124714000Y-99388676D01*
X124758790Y-99418604D01*
X124936757Y-99492320D01*
X125125685Y-99529900D01*
X125318315Y-99529900D01*
X125507243Y-99492320D01*
X125685210Y-99418604D01*
X125845375Y-99311585D01*
X125981585Y-99175375D01*
X126088604Y-99015210D01*
X126162320Y-98837243D01*
X126199900Y-98648315D01*
X126199900Y-98455685D01*
X126162320Y-98266757D01*
X126107000Y-98133202D01*
X126107000Y-97711077D01*
X134105683Y-97711077D01*
X134117778Y-97817621D01*
X134156727Y-97936487D01*
X134218117Y-98045470D01*
X134299589Y-98140382D01*
X134398011Y-98217576D01*
X134509603Y-98274086D01*
X134630075Y-98307739D01*
X134754797Y-98317243D01*
X134854933Y-98314327D01*
X135013683Y-98155577D01*
X135013683Y-97552327D01*
X134264433Y-97552327D01*
X134105683Y-97711077D01*
X126107000Y-97711077D01*
X126107000Y-87590620D01*
X126201077Y-87590620D01*
X126201077Y-87435872D01*
X126355825Y-87590620D01*
X126462369Y-87578525D01*
X126581235Y-87539576D01*
X126690218Y-87478186D01*
X126785130Y-87396714D01*
X126862324Y-87298292D01*
X126918834Y-87186700D01*
X126952487Y-87066228D01*
X126961991Y-86941506D01*
X126959075Y-86841370D01*
X126800325Y-86682620D01*
X126197075Y-86682620D01*
X126197075Y-86702620D01*
X126107000Y-86702620D01*
X126107000Y-86647010D01*
X126111281Y-86603544D01*
X126110311Y-86593692D01*
X126504075Y-86593692D01*
X126628557Y-86581432D01*
X126748255Y-86545122D01*
X126858569Y-86486157D01*
X126955260Y-86406805D01*
X127034612Y-86310114D01*
X127093577Y-86199800D01*
X127129887Y-86080102D01*
X127142147Y-85955620D01*
X127142147Y-85740620D01*
X128152569Y-85740620D01*
X128238757Y-85776320D01*
X128427685Y-85813900D01*
X128620315Y-85813900D01*
X128809243Y-85776320D01*
X128987210Y-85702604D01*
X129147375Y-85595585D01*
X129283585Y-85459375D01*
X129390604Y-85299210D01*
X129464320Y-85121243D01*
X129501900Y-84932315D01*
X129501900Y-84739685D01*
X129464320Y-84550757D01*
X129390604Y-84372790D01*
X129283585Y-84212625D01*
X129147375Y-84076415D01*
X128987210Y-83969396D01*
X128809243Y-83895680D01*
X128620315Y-83858100D01*
X128427685Y-83858100D01*
X128238757Y-83895680D01*
X128060790Y-83969396D01*
X128058958Y-83970620D01*
X126734056Y-83970620D01*
X126678569Y-83925083D01*
X126568255Y-83866118D01*
X126448557Y-83829808D01*
X126324075Y-83817548D01*
X126059075Y-83817548D01*
X126059075Y-77343255D01*
X126193776Y-77343255D01*
X126193776Y-78092505D01*
X126352526Y-78251255D01*
X126459070Y-78239160D01*
X126577936Y-78200211D01*
X126686919Y-78138821D01*
X126781831Y-78057349D01*
X126859025Y-77958927D01*
X126915535Y-77847335D01*
X126949188Y-77726863D01*
X126958692Y-77602141D01*
X126955776Y-77502005D01*
X126797026Y-77343255D01*
X126193776Y-77343255D01*
X126059075Y-77343255D01*
X126059075Y-77263019D01*
X126059931Y-77254327D01*
X126500776Y-77254327D01*
X126625258Y-77242067D01*
X126744956Y-77205757D01*
X126855270Y-77146792D01*
X126951961Y-77067440D01*
X127031313Y-76970749D01*
X127090278Y-76860435D01*
X127126588Y-76740737D01*
X127138848Y-76616255D01*
X127138848Y-76401255D01*
X127850295Y-76401255D01*
X127900625Y-76451585D01*
X128060790Y-76558604D01*
X128238757Y-76632320D01*
X128427685Y-76669900D01*
X128620315Y-76669900D01*
X128809243Y-76632320D01*
X128987210Y-76558604D01*
X129147375Y-76451585D01*
X129283585Y-76315375D01*
X129390604Y-76155210D01*
X129464320Y-75977243D01*
X129501900Y-75788315D01*
X129501900Y-75595685D01*
X129464320Y-75406757D01*
X129390604Y-75228790D01*
X129283585Y-75068625D01*
X129147375Y-74932415D01*
X128987210Y-74825396D01*
X128809243Y-74751680D01*
X128786932Y-74747242D01*
X128688568Y-74694666D01*
X128521745Y-74644060D01*
X128391732Y-74631255D01*
X128391724Y-74631255D01*
X128348255Y-74626974D01*
X128304786Y-74631255D01*
X126730757Y-74631255D01*
X126675270Y-74585718D01*
X126564956Y-74526753D01*
X126445258Y-74490443D01*
X126320776Y-74478183D01*
X126055776Y-74478183D01*
X126055776Y-68017545D01*
X126197751Y-68017545D01*
X126197751Y-68766795D01*
X126356501Y-68925545D01*
X126463045Y-68913450D01*
X126581911Y-68874501D01*
X126690894Y-68813111D01*
X126785806Y-68731639D01*
X126863000Y-68633217D01*
X126919510Y-68521625D01*
X126953163Y-68401153D01*
X126962667Y-68276431D01*
X126959751Y-68176295D01*
X126801001Y-68017545D01*
X126197751Y-68017545D01*
X126055776Y-68017545D01*
X126055776Y-67974371D01*
X126060282Y-67928617D01*
X126504751Y-67928617D01*
X126629233Y-67916357D01*
X126748931Y-67880047D01*
X126859245Y-67821082D01*
X126955936Y-67741730D01*
X127035288Y-67645039D01*
X127094253Y-67534725D01*
X127130563Y-67415027D01*
X127142823Y-67290545D01*
X127142823Y-67075545D01*
X127313986Y-67075545D01*
X127357455Y-67079826D01*
X127400924Y-67075545D01*
X127400932Y-67075545D01*
X127530945Y-67062740D01*
X127697768Y-67012134D01*
X127851514Y-66929956D01*
X127986272Y-66819362D01*
X128013989Y-66785589D01*
X128853654Y-65945924D01*
X128987210Y-65890604D01*
X129147375Y-65783585D01*
X129283585Y-65647375D01*
X129390604Y-65487210D01*
X129464320Y-65309243D01*
X129485116Y-65204695D01*
X129671000Y-65390579D01*
X129671001Y-95206521D01*
X129666719Y-95250000D01*
X129683805Y-95423490D01*
X129734412Y-95590313D01*
X129816590Y-95744059D01*
X129899468Y-95845046D01*
X129899471Y-95845049D01*
X129927184Y-95878817D01*
X129960951Y-95906529D01*
X131178797Y-97124376D01*
X131206510Y-97158144D01*
X131240278Y-97185857D01*
X131240280Y-97185859D01*
X131341268Y-97268738D01*
X131495013Y-97350916D01*
X131550362Y-97367706D01*
X131661837Y-97401522D01*
X131791850Y-97414327D01*
X131791858Y-97414327D01*
X131835327Y-97418608D01*
X131878796Y-97414327D01*
X135102611Y-97414327D01*
X135102611Y-97859327D01*
X135114871Y-97983809D01*
X135151181Y-98103507D01*
X135210146Y-98213821D01*
X135289498Y-98310512D01*
X135386189Y-98389864D01*
X135496503Y-98448829D01*
X135616201Y-98485139D01*
X135740683Y-98497399D01*
X136240683Y-98497399D01*
X136365165Y-98485139D01*
X136484863Y-98448829D01*
X136595177Y-98389864D01*
X136627093Y-98363671D01*
X136773866Y-98408195D01*
X136903879Y-98421000D01*
X136903889Y-98421000D01*
X136947355Y-98425281D01*
X136990821Y-98421000D01*
X139535202Y-98421000D01*
X139668757Y-98476320D01*
X139857685Y-98513900D01*
X140050315Y-98513900D01*
X140239243Y-98476320D01*
X140417210Y-98402604D01*
X140577375Y-98295585D01*
X140713585Y-98159375D01*
X140820604Y-97999210D01*
X140894320Y-97821243D01*
X140912893Y-97727867D01*
X143437448Y-97727867D01*
X143449543Y-97834411D01*
X143488492Y-97953277D01*
X143549882Y-98062260D01*
X143631354Y-98157172D01*
X143729776Y-98234366D01*
X143841368Y-98290876D01*
X143961840Y-98324529D01*
X144086562Y-98334033D01*
X144186698Y-98331117D01*
X144345448Y-98172367D01*
X144345448Y-97569117D01*
X143596198Y-97569117D01*
X143437448Y-97727867D01*
X140912893Y-97727867D01*
X140931900Y-97632315D01*
X140931900Y-97439685D01*
X140930196Y-97431117D01*
X144434376Y-97431117D01*
X144434376Y-97876117D01*
X144446636Y-98000599D01*
X144482946Y-98120297D01*
X144541911Y-98230611D01*
X144621263Y-98327302D01*
X144717954Y-98406654D01*
X144828268Y-98465619D01*
X144947966Y-98501929D01*
X145072448Y-98514189D01*
X145572448Y-98514189D01*
X145696930Y-98501929D01*
X145816628Y-98465619D01*
X145926942Y-98406654D01*
X145969264Y-98371921D01*
X146088841Y-98408195D01*
X146218854Y-98421000D01*
X146218862Y-98421000D01*
X146262331Y-98425281D01*
X146305800Y-98421000D01*
X149187202Y-98421000D01*
X149320757Y-98476320D01*
X149509685Y-98513900D01*
X149702315Y-98513900D01*
X149891243Y-98476320D01*
X150069210Y-98402604D01*
X150229375Y-98295585D01*
X150365585Y-98159375D01*
X150472604Y-97999210D01*
X150546320Y-97821243D01*
X150583900Y-97632315D01*
X150583900Y-97439685D01*
X150582196Y-97431117D01*
X152786419Y-97431117D01*
X152786419Y-97556329D01*
X152941167Y-97556329D01*
X152786419Y-97711077D01*
X152798514Y-97817621D01*
X152837463Y-97936487D01*
X152898853Y-98045470D01*
X152980325Y-98140382D01*
X153078747Y-98217576D01*
X153190339Y-98274086D01*
X153310811Y-98307739D01*
X153435533Y-98317243D01*
X153535669Y-98314327D01*
X153694419Y-98155577D01*
X153694419Y-97552327D01*
X153674419Y-97552327D01*
X153674419Y-97431117D01*
X153761160Y-97431117D01*
X153783347Y-97433302D01*
X153783347Y-97859327D01*
X153795607Y-97983809D01*
X153831917Y-98103507D01*
X153890882Y-98213821D01*
X153970234Y-98310512D01*
X154066925Y-98389864D01*
X154177239Y-98448829D01*
X154296937Y-98485139D01*
X154421419Y-98497399D01*
X154921419Y-98497399D01*
X155045901Y-98485139D01*
X155165599Y-98448829D01*
X155243662Y-98407103D01*
X155253275Y-98418817D01*
X155388033Y-98529411D01*
X155430295Y-98552000D01*
X155541778Y-98611589D01*
X155662846Y-98648315D01*
X155708602Y-98662195D01*
X155838615Y-98675000D01*
X155838623Y-98675000D01*
X155882092Y-98679281D01*
X155925561Y-98675000D01*
X159093202Y-98675000D01*
X159226757Y-98730320D01*
X159415685Y-98767900D01*
X159608315Y-98767900D01*
X159797243Y-98730320D01*
X159975210Y-98656604D01*
X160135375Y-98549585D01*
X160271585Y-98413375D01*
X160378604Y-98253210D01*
X160452320Y-98075243D01*
X160489900Y-97886315D01*
X160489900Y-97693685D01*
X160452320Y-97504757D01*
X160414863Y-97414327D01*
X170466538Y-97414327D01*
X170621681Y-97569470D01*
X170607220Y-97642171D01*
X170607220Y-97934691D01*
X170664288Y-98221589D01*
X170776230Y-98491842D01*
X170938745Y-98735063D01*
X171145588Y-98941906D01*
X171327754Y-99063626D01*
X171210865Y-99133253D01*
X170994632Y-99328162D01*
X170820579Y-99561511D01*
X170695395Y-99824332D01*
X170650744Y-99971541D01*
X170772065Y-100201431D01*
X171965220Y-100201431D01*
X171965220Y-100181431D01*
X172219220Y-100181431D01*
X172219220Y-100201431D01*
X173412375Y-100201431D01*
X173533696Y-99971541D01*
X173489045Y-99824332D01*
X173363861Y-99561511D01*
X173189808Y-99328162D01*
X172973575Y-99133253D01*
X172856686Y-99063626D01*
X173038852Y-98941906D01*
X173245695Y-98735063D01*
X173408210Y-98491842D01*
X173520152Y-98221589D01*
X173577220Y-97934691D01*
X173577220Y-97642171D01*
X173520152Y-97355273D01*
X173408210Y-97085020D01*
X173245695Y-96841799D01*
X173038852Y-96634956D01*
X172864460Y-96518431D01*
X173038852Y-96401906D01*
X173245695Y-96195063D01*
X173408210Y-95951842D01*
X173520152Y-95681589D01*
X173577220Y-95394691D01*
X173577220Y-95102171D01*
X173520152Y-94815273D01*
X173408210Y-94545020D01*
X173245695Y-94301799D01*
X173113840Y-94169944D01*
X173186400Y-94147933D01*
X173296714Y-94088968D01*
X173393405Y-94009616D01*
X173472757Y-93912925D01*
X173531722Y-93802611D01*
X173568032Y-93682913D01*
X173580292Y-93558431D01*
X173580292Y-91858431D01*
X173568032Y-91733949D01*
X173531722Y-91614251D01*
X173472757Y-91503937D01*
X173393405Y-91407246D01*
X173296714Y-91327894D01*
X173186400Y-91268929D01*
X173066702Y-91232619D01*
X172942220Y-91220359D01*
X171242220Y-91220359D01*
X171117738Y-91232619D01*
X170998040Y-91268929D01*
X170887726Y-91327894D01*
X170791035Y-91407246D01*
X170711683Y-91503937D01*
X170652718Y-91614251D01*
X170616408Y-91733949D01*
X170604148Y-91858431D01*
X170604148Y-93558431D01*
X170616408Y-93682913D01*
X170652718Y-93802611D01*
X170711683Y-93912925D01*
X170791035Y-94009616D01*
X170887726Y-94088968D01*
X170998040Y-94147933D01*
X171070600Y-94169944D01*
X170938745Y-94301799D01*
X170776230Y-94545020D01*
X170693675Y-94744327D01*
X167570072Y-94744327D01*
X167601900Y-94584315D01*
X167601900Y-94391685D01*
X167564320Y-94202757D01*
X167509000Y-94069202D01*
X167509000Y-88181469D01*
X167513281Y-88138000D01*
X167509000Y-88094531D01*
X167509000Y-88094523D01*
X167496195Y-87964510D01*
X167445589Y-87797687D01*
X167363411Y-87643941D01*
X167275097Y-87536331D01*
X167275097Y-86985151D01*
X167278169Y-86953959D01*
X167278169Y-86395662D01*
X167345254Y-86316376D01*
X167405867Y-86206960D01*
X167443970Y-86087820D01*
X167455097Y-85985709D01*
X167296347Y-85826959D01*
X167185330Y-85826959D01*
X167170634Y-85799465D01*
X167092255Y-85703959D01*
X167170634Y-85608453D01*
X167185330Y-85580959D01*
X167296347Y-85580959D01*
X167455097Y-85422209D01*
X167443970Y-85320098D01*
X167405867Y-85200958D01*
X167345254Y-85091542D01*
X167278169Y-85012256D01*
X167278169Y-84453959D01*
X167275097Y-84422767D01*
X167275097Y-77637494D01*
X167276721Y-77621005D01*
X167276721Y-77249432D01*
X167279378Y-77222453D01*
X167276721Y-77195474D01*
X167276721Y-77062708D01*
X167343806Y-76983422D01*
X167404419Y-76874006D01*
X167442522Y-76754866D01*
X167453649Y-76652755D01*
X167294899Y-76494005D01*
X167183882Y-76494005D01*
X167169186Y-76466511D01*
X167090807Y-76371005D01*
X167169186Y-76275499D01*
X167183882Y-76248005D01*
X167294899Y-76248005D01*
X167453649Y-76089255D01*
X167442522Y-75987144D01*
X167404419Y-75868004D01*
X167343806Y-75758588D01*
X167276721Y-75679302D01*
X167276721Y-75645492D01*
X167285907Y-75552224D01*
X167285907Y-75552214D01*
X167290188Y-75508748D01*
X167285907Y-75465282D01*
X167285907Y-68306439D01*
X167288979Y-68275247D01*
X167288979Y-67716950D01*
X167356064Y-67637664D01*
X167416677Y-67528248D01*
X167454780Y-67409108D01*
X167465907Y-67306997D01*
X167307157Y-67148247D01*
X167196140Y-67148247D01*
X167181444Y-67120753D01*
X167103065Y-67025247D01*
X167181444Y-66929741D01*
X167196140Y-66902247D01*
X167307157Y-66902247D01*
X167465907Y-66743497D01*
X167454780Y-66641386D01*
X167416677Y-66522246D01*
X167356064Y-66412830D01*
X167288979Y-66333544D01*
X167288979Y-65775247D01*
X167285907Y-65744055D01*
X167285907Y-63574376D01*
X167290188Y-63530907D01*
X167285907Y-63487438D01*
X167285907Y-63487430D01*
X167273102Y-63357417D01*
X167244631Y-63263562D01*
X167222496Y-63190593D01*
X167140318Y-63036848D01*
X167057439Y-62935860D01*
X167057437Y-62935858D01*
X167029724Y-62902090D01*
X166995956Y-62874377D01*
X158848549Y-54726971D01*
X158820834Y-54693200D01*
X158686076Y-54582606D01*
X158532330Y-54500428D01*
X158365507Y-54449822D01*
X158235494Y-54437017D01*
X158235486Y-54437017D01*
X158192017Y-54432736D01*
X158148548Y-54437017D01*
X155952611Y-54437017D01*
X155921419Y-54433945D01*
X155363122Y-54433945D01*
X155283836Y-54366860D01*
X155174420Y-54306247D01*
X155055280Y-54268144D01*
X154953169Y-54257017D01*
X154794419Y-54415767D01*
X154794419Y-54526784D01*
X154766925Y-54541480D01*
X154671419Y-54619859D01*
X154575913Y-54541480D01*
X154548419Y-54526784D01*
X154548419Y-54415767D01*
X154389669Y-54257017D01*
X154287558Y-54268144D01*
X154168418Y-54306247D01*
X154059002Y-54366860D01*
X153979716Y-54433945D01*
X153421419Y-54433945D01*
X153390227Y-54437017D01*
X146619685Y-54437017D01*
X146588118Y-54433908D01*
X146200394Y-54433908D01*
X146188118Y-54432699D01*
X146175842Y-54433908D01*
X146029821Y-54433908D01*
X145950535Y-54366823D01*
X145841119Y-54306210D01*
X145721979Y-54268107D01*
X145619868Y-54256980D01*
X145461118Y-54415730D01*
X145461118Y-54526747D01*
X145433624Y-54541443D01*
X145338118Y-54619822D01*
X145242612Y-54541443D01*
X145215118Y-54526747D01*
X145215118Y-54415730D01*
X145056368Y-54256980D01*
X144954257Y-54268107D01*
X144835117Y-54306210D01*
X144725701Y-54366823D01*
X144646415Y-54433908D01*
X144088118Y-54433908D01*
X144056926Y-54436980D01*
X137430522Y-54436980D01*
X137378423Y-54421176D01*
X137253941Y-54408916D01*
X136866217Y-54408916D01*
X136853941Y-54407707D01*
X136841665Y-54408916D01*
X136695644Y-54408916D01*
X136616358Y-54341831D01*
X136506942Y-54281218D01*
X136387802Y-54243115D01*
X136285691Y-54231988D01*
X136126941Y-54390738D01*
X136126941Y-54501755D01*
X136099447Y-54516451D01*
X136003941Y-54594830D01*
X135908435Y-54516451D01*
X135880941Y-54501755D01*
X135880941Y-54390738D01*
X135722191Y-54231988D01*
X135620080Y-54243115D01*
X135500940Y-54281218D01*
X135391524Y-54341831D01*
X135312238Y-54408916D01*
X134753941Y-54408916D01*
X134722749Y-54411988D01*
X133722481Y-54411988D01*
X133679012Y-54407707D01*
X133635543Y-54411988D01*
X133635535Y-54411988D01*
X133520318Y-54423336D01*
X133505521Y-54424793D01*
X133454915Y-54440145D01*
X133338699Y-54475399D01*
X133184953Y-54557577D01*
X133184951Y-54557578D01*
X133184952Y-54557578D01*
X133083965Y-54640456D01*
X133083963Y-54640458D01*
X133050195Y-54668171D01*
X133022482Y-54701939D01*
X131992951Y-55731471D01*
X131959184Y-55759183D01*
X131931471Y-55792951D01*
X131931468Y-55792954D01*
X131848590Y-55893941D01*
X131766412Y-56047687D01*
X131715805Y-56214510D01*
X131698719Y-56388000D01*
X131703001Y-56431479D01*
X131703001Y-63649422D01*
X129180534Y-61126956D01*
X129152817Y-61093183D01*
X129018059Y-60982589D01*
X128864313Y-60900411D01*
X128697490Y-60849805D01*
X128567477Y-60837000D01*
X128567469Y-60837000D01*
X128524000Y-60832719D01*
X128480531Y-60837000D01*
X125519469Y-60837000D01*
X125476000Y-60832719D01*
X125432531Y-60837000D01*
X125432523Y-60837000D01*
X125302510Y-60849805D01*
X125135686Y-60900411D01*
X124981941Y-60982589D01*
X124880953Y-61065468D01*
X124880951Y-61065470D01*
X124847183Y-61093183D01*
X124819470Y-61126951D01*
X123679707Y-62266715D01*
X123645934Y-62294432D01*
X123535340Y-62429191D01*
X123453162Y-62582937D01*
X123402556Y-62749760D01*
X123389751Y-62879773D01*
X123389751Y-62879780D01*
X123385470Y-62923249D01*
X123389751Y-62966718D01*
X123389752Y-65759345D01*
X123386679Y-65790545D01*
X123386679Y-66348842D01*
X123319594Y-66428128D01*
X123258981Y-66537544D01*
X123220878Y-66656684D01*
X123209751Y-66758795D01*
X123368501Y-66917545D01*
X123479518Y-66917545D01*
X123494214Y-66945039D01*
X123572593Y-67040545D01*
X123494214Y-67136051D01*
X123479518Y-67163545D01*
X123368501Y-67163545D01*
X123209751Y-67322295D01*
X123220878Y-67424406D01*
X123258981Y-67543546D01*
X123319594Y-67652962D01*
X123386679Y-67732248D01*
X123386679Y-68290545D01*
X123389751Y-68321737D01*
X123389752Y-75044694D01*
X123382704Y-75116255D01*
X123382704Y-75503979D01*
X123381495Y-75516255D01*
X123382704Y-75528531D01*
X123382704Y-75674552D01*
X123315619Y-75753838D01*
X123255006Y-75863254D01*
X123216903Y-75982394D01*
X123205776Y-76084505D01*
X116498067Y-76084505D01*
X116966774Y-52336692D01*
X117101243Y-51597110D01*
X117374647Y-51597110D01*
X117374647Y-52263896D01*
X117504730Y-52917871D01*
X117759899Y-53533902D01*
X118130345Y-54088315D01*
X118601835Y-54559805D01*
X119156248Y-54930251D01*
X119772279Y-55185420D01*
X120426254Y-55315503D01*
X121093040Y-55315503D01*
X121747015Y-55185420D01*
X122363046Y-54930251D01*
X122917459Y-54559805D01*
X123388949Y-54088315D01*
X123759395Y-53533902D01*
X124014564Y-52917871D01*
X124144647Y-52263896D01*
X124144647Y-51597110D01*
X124117022Y-51458227D01*
X166395779Y-51458227D01*
X166395779Y-52125013D01*
X166525862Y-52778988D01*
X166781031Y-53395019D01*
X167151477Y-53949432D01*
X167622967Y-54420922D01*
X168177380Y-54791368D01*
X168793411Y-55046537D01*
X169447386Y-55176620D01*
X170114172Y-55176620D01*
X170768147Y-55046537D01*
X171384178Y-54791368D01*
X171938591Y-54420922D01*
X172410081Y-53949432D01*
X172780527Y-53395019D01*
X173035696Y-52778988D01*
X173165779Y-52125013D01*
X173165779Y-51458227D01*
X173035696Y-50804252D01*
X172780527Y-50188221D01*
X172410081Y-49633808D01*
X171938591Y-49162318D01*
X171384178Y-48791872D01*
X170768147Y-48536703D01*
X170114172Y-48406620D01*
X169447386Y-48406620D01*
X168793411Y-48536703D01*
X168177380Y-48791872D01*
X167622967Y-49162318D01*
X167151477Y-49633808D01*
X166781031Y-50188221D01*
X166525862Y-50804252D01*
X166395779Y-51458227D01*
X124117022Y-51458227D01*
X124014564Y-50943135D01*
X123759395Y-50327104D01*
X123388949Y-49772691D01*
X122917459Y-49301201D01*
X122363046Y-48930755D01*
X121747015Y-48675586D01*
X121093040Y-48545503D01*
X120426254Y-48545503D01*
X119772279Y-48675586D01*
X119156248Y-48930755D01*
X118601835Y-49301201D01*
X118130345Y-49772691D01*
X117759899Y-50327104D01*
X117504730Y-50943135D01*
X117374647Y-51597110D01*
X117101243Y-51597110D01*
X117463306Y-49605764D01*
X118925949Y-48630669D01*
X120675477Y-48130803D01*
X122689904Y-47879000D01*
X170906822Y-47879000D01*
X172133252Y-48614857D01*
G37*
X172133252Y-48614857D02*
X173116998Y-49598604D01*
X173611541Y-51082234D01*
X173863000Y-53093904D01*
X173863000Y-54610000D01*
X173863012Y-54611728D01*
X174257220Y-83585990D01*
X174257219Y-110640677D01*
X173863152Y-140195714D01*
X173362412Y-142949784D01*
X172631452Y-143924397D01*
X171149524Y-144912350D01*
X169414242Y-145160247D01*
X166380547Y-144907439D01*
X166369294Y-144907002D01*
X120666661Y-145160906D01*
X117933053Y-144415376D01*
X116709004Y-142701708D01*
X116523762Y-140849276D01*
X117314951Y-140849276D01*
X117314951Y-141516062D01*
X117445034Y-142170037D01*
X117700203Y-142786068D01*
X118070649Y-143340481D01*
X118542139Y-143811971D01*
X119096552Y-144182417D01*
X119712583Y-144437586D01*
X120366558Y-144567669D01*
X121033344Y-144567669D01*
X121687319Y-144437586D01*
X122303350Y-144182417D01*
X122857763Y-143811971D01*
X123329253Y-143340481D01*
X123699699Y-142786068D01*
X123954868Y-142170037D01*
X124084951Y-141516062D01*
X124084951Y-140849276D01*
X124074048Y-140794459D01*
X166523037Y-140794459D01*
X166523037Y-141461245D01*
X166653120Y-142115220D01*
X166908289Y-142731251D01*
X167278735Y-143285664D01*
X167750225Y-143757154D01*
X168304638Y-144127600D01*
X168920669Y-144382769D01*
X169574644Y-144512852D01*
X170241430Y-144512852D01*
X170895405Y-144382769D01*
X171511436Y-144127600D01*
X172065849Y-143757154D01*
X172537339Y-143285664D01*
X172907785Y-142731251D01*
X173162954Y-142115220D01*
X173293037Y-141461245D01*
X173293037Y-140794459D01*
X173162954Y-140140484D01*
X172907785Y-139524453D01*
X172537339Y-138970040D01*
X172065849Y-138498550D01*
X171511436Y-138128104D01*
X170895405Y-137872935D01*
X170241430Y-137742852D01*
X169574644Y-137742852D01*
X168920669Y-137872935D01*
X168304638Y-138128104D01*
X167750225Y-138498550D01*
X167278735Y-138970040D01*
X166908289Y-139524453D01*
X166653120Y-140140484D01*
X166523037Y-140794459D01*
X124074048Y-140794459D01*
X123954868Y-140195301D01*
X123699699Y-139579270D01*
X123329253Y-139024857D01*
X122857763Y-138553367D01*
X122303350Y-138182921D01*
X121687319Y-137927752D01*
X121033344Y-137797669D01*
X120366558Y-137797669D01*
X119712583Y-137927752D01*
X119096552Y-138182921D01*
X118542139Y-138553367D01*
X118070649Y-139024857D01*
X117700203Y-139579270D01*
X117445034Y-140195301D01*
X117314951Y-140849276D01*
X116523762Y-140849276D01*
X116458958Y-140201239D01*
X116407220Y-132440552D01*
X116407220Y-107082477D01*
X123201613Y-107082477D01*
X123360363Y-107241227D01*
X123471380Y-107241227D01*
X123486076Y-107268721D01*
X123564455Y-107364227D01*
X123486076Y-107459733D01*
X123471380Y-107487227D01*
X123360363Y-107487227D01*
X123201613Y-107645977D01*
X123212740Y-107748088D01*
X123250843Y-107867228D01*
X123311456Y-107976644D01*
X123378541Y-108055930D01*
X123378541Y-108614227D01*
X123381613Y-108645419D01*
X123381614Y-115778624D01*
X123377332Y-115822103D01*
X123392017Y-115971213D01*
X123392017Y-115993876D01*
X123324932Y-116073162D01*
X123264319Y-116182578D01*
X123226216Y-116301718D01*
X123215089Y-116403829D01*
X123373839Y-116562579D01*
X123484856Y-116562579D01*
X123499552Y-116590073D01*
X123577931Y-116685579D01*
X123499552Y-116781085D01*
X123484856Y-116808579D01*
X123373839Y-116808579D01*
X123215089Y-116967329D01*
X123226216Y-117069440D01*
X123264319Y-117188580D01*
X123324932Y-117297996D01*
X123392017Y-117377282D01*
X123392017Y-117935579D01*
X123395089Y-117966771D01*
X123395090Y-124644699D01*
X123394532Y-124646538D01*
X123382272Y-124771020D01*
X123382272Y-125158744D01*
X123381063Y-125171020D01*
X123382272Y-125183296D01*
X123382272Y-125329317D01*
X123315187Y-125408603D01*
X123254574Y-125518019D01*
X123216471Y-125637159D01*
X123205344Y-125739270D01*
X123364094Y-125898020D01*
X123475111Y-125898020D01*
X123489807Y-125925514D01*
X123568186Y-126021020D01*
X123489807Y-126116526D01*
X123475111Y-126144020D01*
X123364094Y-126144020D01*
X123205344Y-126302770D01*
X123216471Y-126404881D01*
X123254574Y-126524021D01*
X123315187Y-126633437D01*
X123382272Y-126712723D01*
X123382272Y-127271020D01*
X123385344Y-127302214D01*
X123385345Y-128544865D01*
X123381063Y-128588344D01*
X123398149Y-128761834D01*
X123448756Y-128928657D01*
X123530934Y-129082403D01*
X123613812Y-129183390D01*
X123613815Y-129183393D01*
X123641528Y-129217161D01*
X123675296Y-129244874D01*
X132771988Y-138341567D01*
X132799701Y-138375335D01*
X132833469Y-138403048D01*
X132833471Y-138403050D01*
X132844160Y-138411822D01*
X132934459Y-138485929D01*
X133088205Y-138568107D01*
X133255028Y-138618713D01*
X133385041Y-138631518D01*
X133385049Y-138631518D01*
X133428518Y-138635799D01*
X133471987Y-138631518D01*
X134710923Y-138631518D01*
X134742115Y-138634590D01*
X135300412Y-138634590D01*
X135379698Y-138701675D01*
X135489114Y-138762288D01*
X135608254Y-138800391D01*
X135710365Y-138811518D01*
X135869115Y-138652768D01*
X135869115Y-138541751D01*
X135896609Y-138527055D01*
X135992115Y-138448676D01*
X136087621Y-138527055D01*
X136115115Y-138541751D01*
X136115115Y-138652768D01*
X136273865Y-138811518D01*
X136375976Y-138800391D01*
X136495116Y-138762288D01*
X136604532Y-138701675D01*
X136683818Y-138634590D01*
X137242115Y-138634590D01*
X137273307Y-138631518D01*
X143971494Y-138631518D01*
X144075557Y-138641767D01*
X144463281Y-138641767D01*
X144475557Y-138642976D01*
X144487833Y-138641767D01*
X144633854Y-138641767D01*
X144713140Y-138708852D01*
X144822556Y-138769465D01*
X144941696Y-138807568D01*
X145043807Y-138818695D01*
X145202557Y-138659945D01*
X145202557Y-138548928D01*
X145230051Y-138534232D01*
X145325557Y-138455853D01*
X145421063Y-138534232D01*
X145448557Y-138548928D01*
X145448557Y-138659945D01*
X145607307Y-138818695D01*
X145709418Y-138807568D01*
X145828558Y-138769465D01*
X145937974Y-138708852D01*
X146017260Y-138641767D01*
X146575557Y-138641767D01*
X146606749Y-138638695D01*
X153759794Y-138638695D01*
X153803263Y-138642976D01*
X153846732Y-138638695D01*
X153846740Y-138638695D01*
X153944790Y-138629038D01*
X153974289Y-138629038D01*
X154053575Y-138696123D01*
X154162991Y-138756736D01*
X154282131Y-138794839D01*
X154384242Y-138805966D01*
X154542992Y-138647216D01*
X154542992Y-138536199D01*
X154570486Y-138521503D01*
X154665992Y-138443124D01*
X154761498Y-138521503D01*
X154788992Y-138536199D01*
X154788992Y-138647216D01*
X154947742Y-138805966D01*
X155049853Y-138794839D01*
X155168993Y-138756736D01*
X155278409Y-138696123D01*
X155357695Y-138629038D01*
X155915992Y-138629038D01*
X155947184Y-138625966D01*
X157617565Y-138625966D01*
X157661034Y-138630247D01*
X157704503Y-138625966D01*
X157704511Y-138625966D01*
X157834524Y-138613161D01*
X158001347Y-138562555D01*
X158155093Y-138480377D01*
X158289851Y-138369783D01*
X158317568Y-138336010D01*
X166983710Y-129669869D01*
X167017476Y-129642158D01*
X167128070Y-129507400D01*
X167143984Y-129477626D01*
X167210248Y-129353655D01*
X167260854Y-129186831D01*
X167265722Y-129137400D01*
X167273659Y-129056818D01*
X167273659Y-129056810D01*
X167277940Y-129013341D01*
X167273659Y-128969872D01*
X167273659Y-127306615D01*
X167276731Y-127275423D01*
X167276731Y-126717126D01*
X167343816Y-126637840D01*
X167404429Y-126528424D01*
X167442532Y-126409284D01*
X167453659Y-126307173D01*
X167294909Y-126148423D01*
X167183892Y-126148423D01*
X167169196Y-126120929D01*
X167090817Y-126025423D01*
X167169196Y-125929917D01*
X167183892Y-125902423D01*
X167294909Y-125902423D01*
X167453659Y-125743673D01*
X167442532Y-125641562D01*
X167404429Y-125522422D01*
X167343816Y-125413006D01*
X167276731Y-125333720D01*
X167276731Y-125187697D01*
X167277940Y-125175422D01*
X167276731Y-125163147D01*
X167276731Y-124775423D01*
X167270744Y-124714634D01*
X167270744Y-117960757D01*
X167273816Y-117929565D01*
X167273816Y-117371268D01*
X167340901Y-117291982D01*
X167401514Y-117182566D01*
X167439617Y-117063426D01*
X167450744Y-116961315D01*
X167291994Y-116802565D01*
X167180977Y-116802565D01*
X167166281Y-116775071D01*
X167087902Y-116679565D01*
X167166281Y-116584059D01*
X167180977Y-116556565D01*
X167291994Y-116556565D01*
X167450744Y-116397815D01*
X167439617Y-116295704D01*
X167401514Y-116176564D01*
X167340901Y-116067148D01*
X167273816Y-115987862D01*
X167273816Y-115896899D01*
X167276758Y-115867028D01*
X167276758Y-115867018D01*
X167281039Y-115823552D01*
X167276758Y-115780085D01*
X167276758Y-108643971D01*
X167279830Y-108612779D01*
X167279830Y-108054482D01*
X167346915Y-107975196D01*
X167407528Y-107865780D01*
X167445631Y-107746640D01*
X167456758Y-107644529D01*
X167298008Y-107485779D01*
X167186991Y-107485779D01*
X167172295Y-107458285D01*
X167093916Y-107362779D01*
X167172295Y-107267273D01*
X167186991Y-107239779D01*
X167298008Y-107239779D01*
X167456758Y-107081029D01*
X167445631Y-106978918D01*
X167407528Y-106859778D01*
X167346915Y-106750362D01*
X167279830Y-106671076D01*
X167279830Y-106112779D01*
X167276758Y-106081587D01*
X167276758Y-102838202D01*
X167383585Y-102731375D01*
X167490604Y-102571210D01*
X167564320Y-102393243D01*
X167601900Y-102204315D01*
X167601900Y-102011685D01*
X167564320Y-101822757D01*
X167490604Y-101644790D01*
X167383585Y-101484625D01*
X167247375Y-101348415D01*
X167087210Y-101241396D01*
X166909243Y-101167680D01*
X166720315Y-101130100D01*
X166527685Y-101130100D01*
X166338757Y-101167680D01*
X166160790Y-101241396D01*
X166000625Y-101348415D01*
X165989000Y-101360040D01*
X165977375Y-101348415D01*
X165817210Y-101241396D01*
X165639243Y-101167680D01*
X165450315Y-101130100D01*
X165257685Y-101130100D01*
X165068757Y-101167680D01*
X164890790Y-101241396D01*
X164730625Y-101348415D01*
X164594415Y-101484625D01*
X164487396Y-101644790D01*
X164413680Y-101822757D01*
X164376100Y-102011685D01*
X164376100Y-102204315D01*
X164413680Y-102393243D01*
X164487396Y-102571210D01*
X164594415Y-102731375D01*
X164606759Y-102743719D01*
X164606758Y-106474707D01*
X164444758Y-106474707D01*
X164444758Y-106385779D01*
X164468758Y-106385779D01*
X164468758Y-105636529D01*
X164310008Y-105477779D01*
X164203464Y-105489874D01*
X164084598Y-105528823D01*
X163975615Y-105590213D01*
X163880703Y-105671685D01*
X163803509Y-105770107D01*
X163746999Y-105881699D01*
X163713346Y-106002171D01*
X163703842Y-106126893D01*
X163706758Y-106227029D01*
X163865506Y-106385777D01*
X163706758Y-106385777D01*
X163706758Y-106477779D01*
X159931084Y-106477779D01*
X159862315Y-106464100D01*
X159669685Y-106464100D01*
X159480757Y-106501680D01*
X159302790Y-106575396D01*
X159142625Y-106682415D01*
X159006415Y-106818625D01*
X158899396Y-106978790D01*
X158825680Y-107156757D01*
X158788100Y-107345685D01*
X158788100Y-107538315D01*
X158825680Y-107727243D01*
X158899396Y-107905210D01*
X159006415Y-108065375D01*
X159142625Y-108201585D01*
X159302790Y-108308604D01*
X159480757Y-108382320D01*
X159669685Y-108419900D01*
X159862315Y-108419900D01*
X160051243Y-108382320D01*
X160229210Y-108308604D01*
X160320241Y-108247779D01*
X163703686Y-108247779D01*
X163703686Y-108612779D01*
X163715946Y-108737261D01*
X163752256Y-108856959D01*
X163811221Y-108967273D01*
X163890573Y-109063964D01*
X163987264Y-109143316D01*
X164097578Y-109202281D01*
X164217276Y-109238591D01*
X164341758Y-109250851D01*
X164606758Y-109250851D01*
X164606759Y-115725020D01*
X164600212Y-115791493D01*
X164438744Y-115791493D01*
X164438744Y-115702565D01*
X164462744Y-115702565D01*
X164462744Y-114953315D01*
X164303994Y-114794565D01*
X164197450Y-114806660D01*
X164078584Y-114845609D01*
X163969601Y-114906999D01*
X163874689Y-114988471D01*
X163797495Y-115086893D01*
X163740985Y-115198485D01*
X163707332Y-115318957D01*
X163697828Y-115443679D01*
X163700744Y-115543815D01*
X163859492Y-115702563D01*
X163700744Y-115702563D01*
X163700744Y-115794565D01*
X160341708Y-115794565D01*
X160229210Y-115719396D01*
X160051243Y-115645680D01*
X159862315Y-115608100D01*
X159669685Y-115608100D01*
X159480757Y-115645680D01*
X159302790Y-115719396D01*
X159142625Y-115826415D01*
X159006415Y-115962625D01*
X158899396Y-116122790D01*
X158825680Y-116300757D01*
X158788100Y-116489685D01*
X158788100Y-116682315D01*
X158825680Y-116871243D01*
X158899396Y-117049210D01*
X159006415Y-117209375D01*
X159142625Y-117345585D01*
X159302790Y-117452604D01*
X159480757Y-117526320D01*
X159669685Y-117563900D01*
X159809336Y-117563900D01*
X159816088Y-117564565D01*
X159816096Y-117564565D01*
X159859565Y-117568846D01*
X159903034Y-117564565D01*
X163697672Y-117564565D01*
X163697672Y-117929565D01*
X163709932Y-118054047D01*
X163746242Y-118173745D01*
X163805207Y-118284059D01*
X163884559Y-118380750D01*
X163981250Y-118460102D01*
X164091564Y-118519067D01*
X164211262Y-118555377D01*
X164335744Y-118567637D01*
X164600744Y-118567637D01*
X164600745Y-125129029D01*
X164599925Y-125137351D01*
X164441659Y-125137351D01*
X164441659Y-125048423D01*
X164465659Y-125048423D01*
X164465659Y-124299173D01*
X164306909Y-124140423D01*
X164200365Y-124152518D01*
X164081499Y-124191467D01*
X163972516Y-124252857D01*
X163877604Y-124334329D01*
X163800410Y-124432751D01*
X163743900Y-124544343D01*
X163710247Y-124664815D01*
X163700743Y-124789537D01*
X163703659Y-124889673D01*
X163862407Y-125048421D01*
X163703659Y-125048421D01*
X163703659Y-125140423D01*
X160548168Y-125140423D01*
X160525585Y-125106625D01*
X160389375Y-124970415D01*
X160229210Y-124863396D01*
X160051243Y-124789680D01*
X159862315Y-124752100D01*
X159669685Y-124752100D01*
X159480757Y-124789680D01*
X159302790Y-124863396D01*
X159142625Y-124970415D01*
X159006415Y-125106625D01*
X158899396Y-125266790D01*
X158825680Y-125444757D01*
X158788100Y-125633685D01*
X158788100Y-125826315D01*
X158825680Y-126015243D01*
X158899396Y-126193210D01*
X159006415Y-126353375D01*
X159142625Y-126489585D01*
X159302790Y-126596604D01*
X159427801Y-126648385D01*
X159432606Y-126654240D01*
X159567364Y-126764834D01*
X159721110Y-126847012D01*
X159887933Y-126897618D01*
X160017946Y-126910423D01*
X160017956Y-126910423D01*
X160061422Y-126914704D01*
X160104888Y-126910423D01*
X163700587Y-126910423D01*
X163700587Y-127275423D01*
X163712847Y-127399905D01*
X163749157Y-127519603D01*
X163808122Y-127629917D01*
X163887474Y-127726608D01*
X163984165Y-127805960D01*
X164094479Y-127864925D01*
X164214177Y-127901235D01*
X164338659Y-127913495D01*
X164603660Y-127913495D01*
X164603660Y-128276761D01*
X156924456Y-135955966D01*
X155554064Y-135955966D01*
X155554064Y-135510966D01*
X155541804Y-135386484D01*
X155505494Y-135266786D01*
X155477662Y-135214716D01*
X155642992Y-135214716D01*
X155642992Y-135817966D01*
X156392242Y-135817966D01*
X156550992Y-135659216D01*
X156538897Y-135552672D01*
X156499948Y-135433806D01*
X156438558Y-135324823D01*
X156357086Y-135229911D01*
X156258664Y-135152717D01*
X156147072Y-135096207D01*
X156026600Y-135062554D01*
X155901878Y-135053050D01*
X155801742Y-135055966D01*
X155642992Y-135214716D01*
X155477662Y-135214716D01*
X155446529Y-135156472D01*
X155367177Y-135059781D01*
X155270486Y-134980429D01*
X155160172Y-134921464D01*
X155040474Y-134885154D01*
X154915992Y-134872894D01*
X154700992Y-134872894D01*
X154700992Y-132046586D01*
X154761654Y-131985924D01*
X154895210Y-131930604D01*
X155055375Y-131823585D01*
X155191585Y-131687375D01*
X155298604Y-131527210D01*
X155372320Y-131349243D01*
X155409900Y-131160315D01*
X155409900Y-130967685D01*
X155372320Y-130778757D01*
X155298604Y-130600790D01*
X155191585Y-130440625D01*
X155055375Y-130304415D01*
X154895210Y-130197396D01*
X154717243Y-130123680D01*
X154528315Y-130086100D01*
X154335685Y-130086100D01*
X154146757Y-130123680D01*
X153968790Y-130197396D01*
X153808625Y-130304415D01*
X153672415Y-130440625D01*
X153565396Y-130600790D01*
X153510076Y-130734346D01*
X153220943Y-131023479D01*
X153187176Y-131051191D01*
X153159463Y-131084959D01*
X153159460Y-131084962D01*
X153076582Y-131185949D01*
X152994404Y-131339695D01*
X152943797Y-131506518D01*
X152926711Y-131680008D01*
X152930993Y-131723487D01*
X152930992Y-135280985D01*
X152885455Y-135336472D01*
X152826490Y-135446786D01*
X152790180Y-135566484D01*
X152777920Y-135690966D01*
X152777920Y-135968695D01*
X146213629Y-135968695D01*
X146213629Y-135523695D01*
X146201369Y-135399213D01*
X146165059Y-135279515D01*
X146137227Y-135227445D01*
X146302557Y-135227445D01*
X146302557Y-135830695D01*
X147051807Y-135830695D01*
X147210557Y-135671945D01*
X147198462Y-135565401D01*
X147159513Y-135446535D01*
X147098123Y-135337552D01*
X147016651Y-135242640D01*
X146918229Y-135165446D01*
X146806637Y-135108936D01*
X146686165Y-135075283D01*
X146561443Y-135065779D01*
X146461307Y-135068695D01*
X146302557Y-135227445D01*
X146137227Y-135227445D01*
X146106094Y-135169201D01*
X146026742Y-135072510D01*
X145930051Y-134993158D01*
X145819737Y-134934193D01*
X145700039Y-134897883D01*
X145575557Y-134885623D01*
X145360557Y-134885623D01*
X145360557Y-131565022D01*
X145364838Y-131521556D01*
X145360557Y-131478090D01*
X145360557Y-131478080D01*
X145347752Y-131348067D01*
X145297146Y-131181244D01*
X145214968Y-131027498D01*
X145104374Y-130892740D01*
X145070601Y-130865023D01*
X144939925Y-130734347D01*
X144884604Y-130600790D01*
X144777585Y-130440625D01*
X144641375Y-130304415D01*
X144481210Y-130197396D01*
X144303243Y-130123680D01*
X144114315Y-130086100D01*
X143921685Y-130086100D01*
X143732757Y-130123680D01*
X143554790Y-130197396D01*
X143394625Y-130304415D01*
X143258415Y-130440625D01*
X143151396Y-130600790D01*
X143077680Y-130778757D01*
X143040100Y-130967685D01*
X143040100Y-131160315D01*
X143077680Y-131349243D01*
X143151396Y-131527210D01*
X143258415Y-131687375D01*
X143394625Y-131823585D01*
X143554790Y-131930604D01*
X143590558Y-131945419D01*
X143590557Y-135293714D01*
X143545020Y-135349201D01*
X143486055Y-135459515D01*
X143449745Y-135579213D01*
X143437485Y-135703695D01*
X143437485Y-135961518D01*
X136880187Y-135961518D01*
X136880187Y-135516518D01*
X136867927Y-135392036D01*
X136831617Y-135272338D01*
X136803785Y-135220268D01*
X136969115Y-135220268D01*
X136969115Y-135823518D01*
X137718365Y-135823518D01*
X137877115Y-135664768D01*
X137865020Y-135558224D01*
X137826071Y-135439358D01*
X137764681Y-135330375D01*
X137683209Y-135235463D01*
X137584787Y-135158269D01*
X137473195Y-135101759D01*
X137352723Y-135068106D01*
X137228001Y-135058602D01*
X137127865Y-135061518D01*
X136969115Y-135220268D01*
X136803785Y-135220268D01*
X136772652Y-135162024D01*
X136693300Y-135065333D01*
X136596609Y-134985981D01*
X136486295Y-134927016D01*
X136366597Y-134890706D01*
X136242115Y-134878446D01*
X136027115Y-134878446D01*
X136027115Y-132178463D01*
X136219654Y-131985924D01*
X136353210Y-131930604D01*
X136513375Y-131823585D01*
X136649585Y-131687375D01*
X136756604Y-131527210D01*
X136830320Y-131349243D01*
X136867900Y-131160315D01*
X136867900Y-130967685D01*
X136830320Y-130778757D01*
X136756604Y-130600790D01*
X136649585Y-130440625D01*
X136513375Y-130304415D01*
X136353210Y-130197396D01*
X136175243Y-130123680D01*
X135986315Y-130086100D01*
X135793685Y-130086100D01*
X135604757Y-130123680D01*
X135426790Y-130197396D01*
X135266625Y-130304415D01*
X135130415Y-130440625D01*
X135023396Y-130600790D01*
X134968076Y-130734346D01*
X134547066Y-131155356D01*
X134513299Y-131183068D01*
X134485586Y-131216836D01*
X134485583Y-131216839D01*
X134402705Y-131317826D01*
X134320527Y-131471572D01*
X134269920Y-131638395D01*
X134252834Y-131811885D01*
X134257116Y-131855364D01*
X134257115Y-135286537D01*
X134211578Y-135342024D01*
X134152613Y-135452338D01*
X134116303Y-135572036D01*
X134104043Y-135696518D01*
X134104043Y-135900464D01*
X126109598Y-127906020D01*
X126197346Y-127906020D01*
X126197346Y-127751272D01*
X126352094Y-127906020D01*
X126458638Y-127893925D01*
X126577504Y-127854976D01*
X126686487Y-127793586D01*
X126781399Y-127712114D01*
X126858593Y-127613692D01*
X126915103Y-127502100D01*
X126948756Y-127381628D01*
X126958260Y-127256906D01*
X126955344Y-127156770D01*
X126796594Y-126998020D01*
X126193344Y-126998020D01*
X126193344Y-127018020D01*
X126055344Y-127018020D01*
X126055344Y-126909092D01*
X126500344Y-126909092D01*
X126624826Y-126896832D01*
X126744524Y-126860522D01*
X126854838Y-126801557D01*
X126951529Y-126722205D01*
X127030881Y-126625514D01*
X127089846Y-126515200D01*
X127126156Y-126395502D01*
X127138416Y-126271020D01*
X127138416Y-126056020D01*
X129630442Y-126056020D01*
X129888076Y-126313654D01*
X129943396Y-126447210D01*
X130050415Y-126607375D01*
X130186625Y-126743585D01*
X130346790Y-126850604D01*
X130524757Y-126924320D01*
X130713685Y-126961900D01*
X130906315Y-126961900D01*
X131095243Y-126924320D01*
X131273210Y-126850604D01*
X131433375Y-126743585D01*
X131569585Y-126607375D01*
X131676604Y-126447210D01*
X131750320Y-126269243D01*
X131787900Y-126080315D01*
X131787900Y-125887685D01*
X131750320Y-125698757D01*
X131676604Y-125520790D01*
X131569585Y-125360625D01*
X131433375Y-125224415D01*
X131273210Y-125117396D01*
X131139654Y-125062076D01*
X130653552Y-124575974D01*
X130625837Y-124542203D01*
X130491079Y-124431609D01*
X130337333Y-124349431D01*
X130170510Y-124298825D01*
X130040497Y-124286020D01*
X130040489Y-124286020D01*
X129997020Y-124281739D01*
X129953551Y-124286020D01*
X126730325Y-124286020D01*
X126674838Y-124240483D01*
X126564524Y-124181518D01*
X126444826Y-124145208D01*
X126320344Y-124132948D01*
X126065089Y-124132948D01*
X126065089Y-117662579D01*
X126203089Y-117662579D01*
X126203089Y-118411829D01*
X126361839Y-118570579D01*
X126468383Y-118558484D01*
X126587249Y-118519535D01*
X126696232Y-118458145D01*
X126791144Y-118376673D01*
X126868338Y-118278251D01*
X126924848Y-118166659D01*
X126958501Y-118046187D01*
X126968005Y-117921465D01*
X126965089Y-117821329D01*
X126806339Y-117662579D01*
X126203089Y-117662579D01*
X126065089Y-117662579D01*
X126065089Y-117573651D01*
X126510089Y-117573651D01*
X126634571Y-117561391D01*
X126754269Y-117525081D01*
X126864583Y-117466116D01*
X126961274Y-117386764D01*
X127040626Y-117290073D01*
X127099591Y-117179759D01*
X127135901Y-117060061D01*
X127148161Y-116935579D01*
X127148161Y-116720579D01*
X129912483Y-116720579D01*
X129943396Y-116795210D01*
X130050415Y-116955375D01*
X130186625Y-117091585D01*
X130346790Y-117198604D01*
X130524757Y-117272320D01*
X130713685Y-117309900D01*
X130906315Y-117309900D01*
X131095243Y-117272320D01*
X131273210Y-117198604D01*
X131433375Y-117091585D01*
X131569585Y-116955375D01*
X131676604Y-116795210D01*
X131750320Y-116617243D01*
X131787900Y-116428315D01*
X131787900Y-116235685D01*
X131750320Y-116046757D01*
X131676604Y-115868790D01*
X131569585Y-115708625D01*
X131433375Y-115572415D01*
X131273210Y-115465396D01*
X131139653Y-115410075D01*
X130970111Y-115240533D01*
X130942396Y-115206762D01*
X130807638Y-115096168D01*
X130653892Y-115013990D01*
X130487069Y-114963384D01*
X130357056Y-114950579D01*
X130357048Y-114950579D01*
X130313579Y-114946298D01*
X130270110Y-114950579D01*
X126740070Y-114950579D01*
X126684583Y-114905042D01*
X126574269Y-114846077D01*
X126454571Y-114809767D01*
X126330089Y-114797507D01*
X126051613Y-114797507D01*
X126051613Y-108341227D01*
X126189613Y-108341227D01*
X126189613Y-109090477D01*
X126348363Y-109249227D01*
X126454907Y-109237132D01*
X126573773Y-109198183D01*
X126682756Y-109136793D01*
X126777668Y-109055321D01*
X126854862Y-108956899D01*
X126911372Y-108845307D01*
X126945025Y-108724835D01*
X126954529Y-108600113D01*
X126951613Y-108499977D01*
X126792863Y-108341227D01*
X126189613Y-108341227D01*
X126051613Y-108341227D01*
X126051613Y-108252299D01*
X126496613Y-108252299D01*
X126621095Y-108240039D01*
X126740793Y-108203729D01*
X126851107Y-108144764D01*
X126947798Y-108065412D01*
X127027150Y-107968721D01*
X127086115Y-107858407D01*
X127122425Y-107738709D01*
X127134685Y-107614227D01*
X127134685Y-107399227D01*
X130146267Y-107399227D01*
X130186625Y-107439585D01*
X130346790Y-107546604D01*
X130524757Y-107620320D01*
X130713685Y-107657900D01*
X130906315Y-107657900D01*
X131095243Y-107620320D01*
X131273210Y-107546604D01*
X131433375Y-107439585D01*
X131569585Y-107303375D01*
X131676604Y-107143210D01*
X131750320Y-106965243D01*
X131787900Y-106776315D01*
X131787900Y-106583685D01*
X131750320Y-106394757D01*
X131676604Y-106216790D01*
X131569585Y-106056625D01*
X131433375Y-105920415D01*
X131273210Y-105813396D01*
X131095243Y-105739680D01*
X131059100Y-105732491D01*
X130984540Y-105692638D01*
X130817717Y-105642032D01*
X130687704Y-105629227D01*
X130687696Y-105629227D01*
X130644227Y-105624946D01*
X130600758Y-105629227D01*
X126726594Y-105629227D01*
X126671107Y-105583690D01*
X126560793Y-105524725D01*
X126441095Y-105488415D01*
X126316613Y-105476155D01*
X126051613Y-105476155D01*
X126051613Y-102626571D01*
X126088604Y-102571210D01*
X126162320Y-102393243D01*
X126199900Y-102204315D01*
X126199900Y-102011685D01*
X126162320Y-101822757D01*
X126088604Y-101644790D01*
X125981585Y-101484625D01*
X125845375Y-101348415D01*
X125685210Y-101241396D01*
X125507243Y-101167680D01*
X125318315Y-101130100D01*
X125125685Y-101130100D01*
X124936757Y-101167680D01*
X124758790Y-101241396D01*
X124714000Y-101271324D01*
X124669210Y-101241396D01*
X124491243Y-101167680D01*
X124302315Y-101130100D01*
X124109685Y-101130100D01*
X123920757Y-101167680D01*
X123742790Y-101241396D01*
X123582625Y-101348415D01*
X123446415Y-101484625D01*
X123339396Y-101644790D01*
X123265680Y-101822757D01*
X123228100Y-102011685D01*
X123228100Y-102204315D01*
X123265680Y-102393243D01*
X123321000Y-102526798D01*
X123321001Y-106410135D01*
X123316719Y-106453614D01*
X123333805Y-106627104D01*
X123355753Y-106699456D01*
X123311456Y-106751810D01*
X123250843Y-106861226D01*
X123212740Y-106980366D01*
X123201613Y-107082477D01*
X116407220Y-107082477D01*
X116407220Y-101201490D01*
X116994688Y-101201490D01*
X117006948Y-101325972D01*
X117043258Y-101445670D01*
X117102223Y-101555984D01*
X117181575Y-101652675D01*
X117278266Y-101732027D01*
X117388580Y-101790992D01*
X117508278Y-101827302D01*
X117632760Y-101839562D01*
X118197010Y-101836490D01*
X118355760Y-101677740D01*
X118355760Y-100478490D01*
X118609760Y-100478490D01*
X118609760Y-101677740D01*
X118768510Y-101836490D01*
X119332760Y-101839562D01*
X119457242Y-101827302D01*
X119576940Y-101790992D01*
X119687254Y-101732027D01*
X119783945Y-101652675D01*
X119863297Y-101555984D01*
X119922262Y-101445670D01*
X119958572Y-101325972D01*
X119970832Y-101201490D01*
X119968022Y-100685321D01*
X170650744Y-100685321D01*
X170695395Y-100832530D01*
X170820579Y-101095351D01*
X170994632Y-101328700D01*
X171210865Y-101523609D01*
X171460968Y-101672588D01*
X171735329Y-101769912D01*
X171965220Y-101649245D01*
X171965220Y-100455431D01*
X172219220Y-100455431D01*
X172219220Y-101649245D01*
X172449111Y-101769912D01*
X172723472Y-101672588D01*
X172973575Y-101523609D01*
X173189808Y-101328700D01*
X173363861Y-101095351D01*
X173489045Y-100832530D01*
X173533696Y-100685321D01*
X173412375Y-100455431D01*
X172219220Y-100455431D01*
X171965220Y-100455431D01*
X170772065Y-100455431D01*
X170650744Y-100685321D01*
X119968022Y-100685321D01*
X119967760Y-100637240D01*
X119809010Y-100478490D01*
X118609760Y-100478490D01*
X118355760Y-100478490D01*
X117156510Y-100478490D01*
X116997760Y-100637240D01*
X116994688Y-101201490D01*
X116407220Y-101201490D01*
X116407220Y-99501490D01*
X116994688Y-99501490D01*
X116997760Y-100065740D01*
X117156510Y-100224490D01*
X118355760Y-100224490D01*
X118355760Y-100204490D01*
X118609760Y-100204490D01*
X118609760Y-100224490D01*
X119809010Y-100224490D01*
X119967760Y-100065740D01*
X119970832Y-99501490D01*
X119958572Y-99377008D01*
X119922262Y-99257310D01*
X119863297Y-99146996D01*
X119783945Y-99050305D01*
X119687254Y-98970953D01*
X119576940Y-98911988D01*
X119504380Y-98889977D01*
X119636235Y-98758122D01*
X119798750Y-98514901D01*
X119910692Y-98244648D01*
X119967760Y-97957750D01*
X119967760Y-97665230D01*
X119910692Y-97378332D01*
X119798750Y-97108079D01*
X119636235Y-96864858D01*
X119429392Y-96658015D01*
X119255000Y-96541490D01*
X119429392Y-96424965D01*
X119636235Y-96218122D01*
X119798750Y-95974901D01*
X119910692Y-95704648D01*
X119967760Y-95417750D01*
X119967760Y-95125230D01*
X119910692Y-94838332D01*
X119798750Y-94568079D01*
X119636235Y-94324858D01*
X119429392Y-94118015D01*
X119255000Y-94001490D01*
X119429392Y-93884965D01*
X119636235Y-93678122D01*
X119798750Y-93434901D01*
X119910692Y-93164648D01*
X119967760Y-92877750D01*
X119967760Y-92585230D01*
X119910692Y-92298332D01*
X119798750Y-92028079D01*
X119636235Y-91784858D01*
X119429392Y-91578015D01*
X119186171Y-91415500D01*
X118915918Y-91303558D01*
X118629020Y-91246490D01*
X118336500Y-91246490D01*
X118049602Y-91303558D01*
X117779349Y-91415500D01*
X117536128Y-91578015D01*
X117329285Y-91784858D01*
X117166770Y-92028079D01*
X117054828Y-92298332D01*
X116997760Y-92585230D01*
X116997760Y-92877750D01*
X117054828Y-93164648D01*
X117166770Y-93434901D01*
X117329285Y-93678122D01*
X117536128Y-93884965D01*
X117710520Y-94001490D01*
X117536128Y-94118015D01*
X117329285Y-94324858D01*
X117166770Y-94568079D01*
X117054828Y-94838332D01*
X116997760Y-95125230D01*
X116997760Y-95417750D01*
X117054828Y-95704648D01*
X117166770Y-95974901D01*
X117329285Y-96218122D01*
X117536128Y-96424965D01*
X117710520Y-96541490D01*
X117536128Y-96658015D01*
X117329285Y-96864858D01*
X117166770Y-97108079D01*
X117054828Y-97378332D01*
X116997760Y-97665230D01*
X116997760Y-97957750D01*
X117054828Y-98244648D01*
X117166770Y-98514901D01*
X117329285Y-98758122D01*
X117461140Y-98889977D01*
X117388580Y-98911988D01*
X117278266Y-98970953D01*
X117181575Y-99050305D01*
X117102223Y-99146996D01*
X117043258Y-99257310D01*
X117006948Y-99377008D01*
X116994688Y-99501490D01*
X116407220Y-99501490D01*
X116407220Y-80687426D01*
X116498067Y-76084505D01*
X123205776Y-76084505D01*
X123364526Y-76243255D01*
X123475543Y-76243255D01*
X123490239Y-76270749D01*
X123568618Y-76366255D01*
X123490239Y-76461761D01*
X123475543Y-76489255D01*
X123364526Y-76489255D01*
X123205776Y-76648005D01*
X123216903Y-76750116D01*
X123255006Y-76869256D01*
X123315619Y-76978672D01*
X123382704Y-77057958D01*
X123382704Y-77616255D01*
X123385776Y-77647447D01*
X123385777Y-84808842D01*
X123381495Y-84852321D01*
X123386003Y-84898095D01*
X123386003Y-85013917D01*
X123318918Y-85093203D01*
X123258305Y-85202619D01*
X123220202Y-85321759D01*
X123209075Y-85423870D01*
X123367825Y-85582620D01*
X123478842Y-85582620D01*
X123493538Y-85610114D01*
X123571917Y-85705620D01*
X123493538Y-85801126D01*
X123478842Y-85828620D01*
X123367825Y-85828620D01*
X123209075Y-85987370D01*
X123220202Y-86089481D01*
X123258305Y-86208621D01*
X123318918Y-86318037D01*
X123386003Y-86397323D01*
X123386003Y-86955620D01*
X123389075Y-86986812D01*
X123389076Y-98014439D01*
X123339396Y-98088790D01*
X123265680Y-98266757D01*
X123228100Y-98455685D01*
X123228100Y-98648315D01*
X123265680Y-98837243D01*
X123339396Y-99015210D01*
X123446415Y-99175375D01*
X123582625Y-99311585D01*
X123742790Y-99418604D01*
X123920757Y-99492320D01*
X124109685Y-99529900D01*
X124302315Y-99529900D01*
X124491243Y-99492320D01*
X124669210Y-99418604D01*
X124714000Y-99388676D01*
X124758790Y-99418604D01*
X124936757Y-99492320D01*
X125125685Y-99529900D01*
X125318315Y-99529900D01*
X125507243Y-99492320D01*
X125685210Y-99418604D01*
X125845375Y-99311585D01*
X125981585Y-99175375D01*
X126088604Y-99015210D01*
X126162320Y-98837243D01*
X126199900Y-98648315D01*
X126199900Y-98455685D01*
X126162320Y-98266757D01*
X126107000Y-98133202D01*
X126107000Y-97711077D01*
X134105683Y-97711077D01*
X134117778Y-97817621D01*
X134156727Y-97936487D01*
X134218117Y-98045470D01*
X134299589Y-98140382D01*
X134398011Y-98217576D01*
X134509603Y-98274086D01*
X134630075Y-98307739D01*
X134754797Y-98317243D01*
X134854933Y-98314327D01*
X135013683Y-98155577D01*
X135013683Y-97552327D01*
X134264433Y-97552327D01*
X134105683Y-97711077D01*
X126107000Y-97711077D01*
X126107000Y-87590620D01*
X126201077Y-87590620D01*
X126201077Y-87435872D01*
X126355825Y-87590620D01*
X126462369Y-87578525D01*
X126581235Y-87539576D01*
X126690218Y-87478186D01*
X126785130Y-87396714D01*
X126862324Y-87298292D01*
X126918834Y-87186700D01*
X126952487Y-87066228D01*
X126961991Y-86941506D01*
X126959075Y-86841370D01*
X126800325Y-86682620D01*
X126197075Y-86682620D01*
X126197075Y-86702620D01*
X126107000Y-86702620D01*
X126107000Y-86647010D01*
X126111281Y-86603544D01*
X126110311Y-86593692D01*
X126504075Y-86593692D01*
X126628557Y-86581432D01*
X126748255Y-86545122D01*
X126858569Y-86486157D01*
X126955260Y-86406805D01*
X127034612Y-86310114D01*
X127093577Y-86199800D01*
X127129887Y-86080102D01*
X127142147Y-85955620D01*
X127142147Y-85740620D01*
X128152569Y-85740620D01*
X128238757Y-85776320D01*
X128427685Y-85813900D01*
X128620315Y-85813900D01*
X128809243Y-85776320D01*
X128987210Y-85702604D01*
X129147375Y-85595585D01*
X129283585Y-85459375D01*
X129390604Y-85299210D01*
X129464320Y-85121243D01*
X129501900Y-84932315D01*
X129501900Y-84739685D01*
X129464320Y-84550757D01*
X129390604Y-84372790D01*
X129283585Y-84212625D01*
X129147375Y-84076415D01*
X128987210Y-83969396D01*
X128809243Y-83895680D01*
X128620315Y-83858100D01*
X128427685Y-83858100D01*
X128238757Y-83895680D01*
X128060790Y-83969396D01*
X128058958Y-83970620D01*
X126734056Y-83970620D01*
X126678569Y-83925083D01*
X126568255Y-83866118D01*
X126448557Y-83829808D01*
X126324075Y-83817548D01*
X126059075Y-83817548D01*
X126059075Y-77343255D01*
X126193776Y-77343255D01*
X126193776Y-78092505D01*
X126352526Y-78251255D01*
X126459070Y-78239160D01*
X126577936Y-78200211D01*
X126686919Y-78138821D01*
X126781831Y-78057349D01*
X126859025Y-77958927D01*
X126915535Y-77847335D01*
X126949188Y-77726863D01*
X126958692Y-77602141D01*
X126955776Y-77502005D01*
X126797026Y-77343255D01*
X126193776Y-77343255D01*
X126059075Y-77343255D01*
X126059075Y-77263019D01*
X126059931Y-77254327D01*
X126500776Y-77254327D01*
X126625258Y-77242067D01*
X126744956Y-77205757D01*
X126855270Y-77146792D01*
X126951961Y-77067440D01*
X127031313Y-76970749D01*
X127090278Y-76860435D01*
X127126588Y-76740737D01*
X127138848Y-76616255D01*
X127138848Y-76401255D01*
X127850295Y-76401255D01*
X127900625Y-76451585D01*
X128060790Y-76558604D01*
X128238757Y-76632320D01*
X128427685Y-76669900D01*
X128620315Y-76669900D01*
X128809243Y-76632320D01*
X128987210Y-76558604D01*
X129147375Y-76451585D01*
X129283585Y-76315375D01*
X129390604Y-76155210D01*
X129464320Y-75977243D01*
X129501900Y-75788315D01*
X129501900Y-75595685D01*
X129464320Y-75406757D01*
X129390604Y-75228790D01*
X129283585Y-75068625D01*
X129147375Y-74932415D01*
X128987210Y-74825396D01*
X128809243Y-74751680D01*
X128786932Y-74747242D01*
X128688568Y-74694666D01*
X128521745Y-74644060D01*
X128391732Y-74631255D01*
X128391724Y-74631255D01*
X128348255Y-74626974D01*
X128304786Y-74631255D01*
X126730757Y-74631255D01*
X126675270Y-74585718D01*
X126564956Y-74526753D01*
X126445258Y-74490443D01*
X126320776Y-74478183D01*
X126055776Y-74478183D01*
X126055776Y-68017545D01*
X126197751Y-68017545D01*
X126197751Y-68766795D01*
X126356501Y-68925545D01*
X126463045Y-68913450D01*
X126581911Y-68874501D01*
X126690894Y-68813111D01*
X126785806Y-68731639D01*
X126863000Y-68633217D01*
X126919510Y-68521625D01*
X126953163Y-68401153D01*
X126962667Y-68276431D01*
X126959751Y-68176295D01*
X126801001Y-68017545D01*
X126197751Y-68017545D01*
X126055776Y-68017545D01*
X126055776Y-67974371D01*
X126060282Y-67928617D01*
X126504751Y-67928617D01*
X126629233Y-67916357D01*
X126748931Y-67880047D01*
X126859245Y-67821082D01*
X126955936Y-67741730D01*
X127035288Y-67645039D01*
X127094253Y-67534725D01*
X127130563Y-67415027D01*
X127142823Y-67290545D01*
X127142823Y-67075545D01*
X127313986Y-67075545D01*
X127357455Y-67079826D01*
X127400924Y-67075545D01*
X127400932Y-67075545D01*
X127530945Y-67062740D01*
X127697768Y-67012134D01*
X127851514Y-66929956D01*
X127986272Y-66819362D01*
X128013989Y-66785589D01*
X128853654Y-65945924D01*
X128987210Y-65890604D01*
X129147375Y-65783585D01*
X129283585Y-65647375D01*
X129390604Y-65487210D01*
X129464320Y-65309243D01*
X129485116Y-65204695D01*
X129671000Y-65390579D01*
X129671001Y-95206521D01*
X129666719Y-95250000D01*
X129683805Y-95423490D01*
X129734412Y-95590313D01*
X129816590Y-95744059D01*
X129899468Y-95845046D01*
X129899471Y-95845049D01*
X129927184Y-95878817D01*
X129960951Y-95906529D01*
X131178797Y-97124376D01*
X131206510Y-97158144D01*
X131240278Y-97185857D01*
X131240280Y-97185859D01*
X131341268Y-97268738D01*
X131495013Y-97350916D01*
X131550362Y-97367706D01*
X131661837Y-97401522D01*
X131791850Y-97414327D01*
X131791858Y-97414327D01*
X131835327Y-97418608D01*
X131878796Y-97414327D01*
X135102611Y-97414327D01*
X135102611Y-97859327D01*
X135114871Y-97983809D01*
X135151181Y-98103507D01*
X135210146Y-98213821D01*
X135289498Y-98310512D01*
X135386189Y-98389864D01*
X135496503Y-98448829D01*
X135616201Y-98485139D01*
X135740683Y-98497399D01*
X136240683Y-98497399D01*
X136365165Y-98485139D01*
X136484863Y-98448829D01*
X136595177Y-98389864D01*
X136627093Y-98363671D01*
X136773866Y-98408195D01*
X136903879Y-98421000D01*
X136903889Y-98421000D01*
X136947355Y-98425281D01*
X136990821Y-98421000D01*
X139535202Y-98421000D01*
X139668757Y-98476320D01*
X139857685Y-98513900D01*
X140050315Y-98513900D01*
X140239243Y-98476320D01*
X140417210Y-98402604D01*
X140577375Y-98295585D01*
X140713585Y-98159375D01*
X140820604Y-97999210D01*
X140894320Y-97821243D01*
X140912893Y-97727867D01*
X143437448Y-97727867D01*
X143449543Y-97834411D01*
X143488492Y-97953277D01*
X143549882Y-98062260D01*
X143631354Y-98157172D01*
X143729776Y-98234366D01*
X143841368Y-98290876D01*
X143961840Y-98324529D01*
X144086562Y-98334033D01*
X144186698Y-98331117D01*
X144345448Y-98172367D01*
X144345448Y-97569117D01*
X143596198Y-97569117D01*
X143437448Y-97727867D01*
X140912893Y-97727867D01*
X140931900Y-97632315D01*
X140931900Y-97439685D01*
X140930196Y-97431117D01*
X144434376Y-97431117D01*
X144434376Y-97876117D01*
X144446636Y-98000599D01*
X144482946Y-98120297D01*
X144541911Y-98230611D01*
X144621263Y-98327302D01*
X144717954Y-98406654D01*
X144828268Y-98465619D01*
X144947966Y-98501929D01*
X145072448Y-98514189D01*
X145572448Y-98514189D01*
X145696930Y-98501929D01*
X145816628Y-98465619D01*
X145926942Y-98406654D01*
X145969264Y-98371921D01*
X146088841Y-98408195D01*
X146218854Y-98421000D01*
X146218862Y-98421000D01*
X146262331Y-98425281D01*
X146305800Y-98421000D01*
X149187202Y-98421000D01*
X149320757Y-98476320D01*
X149509685Y-98513900D01*
X149702315Y-98513900D01*
X149891243Y-98476320D01*
X150069210Y-98402604D01*
X150229375Y-98295585D01*
X150365585Y-98159375D01*
X150472604Y-97999210D01*
X150546320Y-97821243D01*
X150583900Y-97632315D01*
X150583900Y-97439685D01*
X150582196Y-97431117D01*
X152786419Y-97431117D01*
X152786419Y-97556329D01*
X152941167Y-97556329D01*
X152786419Y-97711077D01*
X152798514Y-97817621D01*
X152837463Y-97936487D01*
X152898853Y-98045470D01*
X152980325Y-98140382D01*
X153078747Y-98217576D01*
X153190339Y-98274086D01*
X153310811Y-98307739D01*
X153435533Y-98317243D01*
X153535669Y-98314327D01*
X153694419Y-98155577D01*
X153694419Y-97552327D01*
X153674419Y-97552327D01*
X153674419Y-97431117D01*
X153761160Y-97431117D01*
X153783347Y-97433302D01*
X153783347Y-97859327D01*
X153795607Y-97983809D01*
X153831917Y-98103507D01*
X153890882Y-98213821D01*
X153970234Y-98310512D01*
X154066925Y-98389864D01*
X154177239Y-98448829D01*
X154296937Y-98485139D01*
X154421419Y-98497399D01*
X154921419Y-98497399D01*
X155045901Y-98485139D01*
X155165599Y-98448829D01*
X155243662Y-98407103D01*
X155253275Y-98418817D01*
X155388033Y-98529411D01*
X155430295Y-98552000D01*
X155541778Y-98611589D01*
X155662846Y-98648315D01*
X155708602Y-98662195D01*
X155838615Y-98675000D01*
X155838623Y-98675000D01*
X155882092Y-98679281D01*
X155925561Y-98675000D01*
X159093202Y-98675000D01*
X159226757Y-98730320D01*
X159415685Y-98767900D01*
X159608315Y-98767900D01*
X159797243Y-98730320D01*
X159975210Y-98656604D01*
X160135375Y-98549585D01*
X160271585Y-98413375D01*
X160378604Y-98253210D01*
X160452320Y-98075243D01*
X160489900Y-97886315D01*
X160489900Y-97693685D01*
X160452320Y-97504757D01*
X160414863Y-97414327D01*
X170466538Y-97414327D01*
X170621681Y-97569470D01*
X170607220Y-97642171D01*
X170607220Y-97934691D01*
X170664288Y-98221589D01*
X170776230Y-98491842D01*
X170938745Y-98735063D01*
X171145588Y-98941906D01*
X171327754Y-99063626D01*
X171210865Y-99133253D01*
X170994632Y-99328162D01*
X170820579Y-99561511D01*
X170695395Y-99824332D01*
X170650744Y-99971541D01*
X170772065Y-100201431D01*
X171965220Y-100201431D01*
X171965220Y-100181431D01*
X172219220Y-100181431D01*
X172219220Y-100201431D01*
X173412375Y-100201431D01*
X173533696Y-99971541D01*
X173489045Y-99824332D01*
X173363861Y-99561511D01*
X173189808Y-99328162D01*
X172973575Y-99133253D01*
X172856686Y-99063626D01*
X173038852Y-98941906D01*
X173245695Y-98735063D01*
X173408210Y-98491842D01*
X173520152Y-98221589D01*
X173577220Y-97934691D01*
X173577220Y-97642171D01*
X173520152Y-97355273D01*
X173408210Y-97085020D01*
X173245695Y-96841799D01*
X173038852Y-96634956D01*
X172864460Y-96518431D01*
X173038852Y-96401906D01*
X173245695Y-96195063D01*
X173408210Y-95951842D01*
X173520152Y-95681589D01*
X173577220Y-95394691D01*
X173577220Y-95102171D01*
X173520152Y-94815273D01*
X173408210Y-94545020D01*
X173245695Y-94301799D01*
X173113840Y-94169944D01*
X173186400Y-94147933D01*
X173296714Y-94088968D01*
X173393405Y-94009616D01*
X173472757Y-93912925D01*
X173531722Y-93802611D01*
X173568032Y-93682913D01*
X173580292Y-93558431D01*
X173580292Y-91858431D01*
X173568032Y-91733949D01*
X173531722Y-91614251D01*
X173472757Y-91503937D01*
X173393405Y-91407246D01*
X173296714Y-91327894D01*
X173186400Y-91268929D01*
X173066702Y-91232619D01*
X172942220Y-91220359D01*
X171242220Y-91220359D01*
X171117738Y-91232619D01*
X170998040Y-91268929D01*
X170887726Y-91327894D01*
X170791035Y-91407246D01*
X170711683Y-91503937D01*
X170652718Y-91614251D01*
X170616408Y-91733949D01*
X170604148Y-91858431D01*
X170604148Y-93558431D01*
X170616408Y-93682913D01*
X170652718Y-93802611D01*
X170711683Y-93912925D01*
X170791035Y-94009616D01*
X170887726Y-94088968D01*
X170998040Y-94147933D01*
X171070600Y-94169944D01*
X170938745Y-94301799D01*
X170776230Y-94545020D01*
X170693675Y-94744327D01*
X167570072Y-94744327D01*
X167601900Y-94584315D01*
X167601900Y-94391685D01*
X167564320Y-94202757D01*
X167509000Y-94069202D01*
X167509000Y-88181469D01*
X167513281Y-88138000D01*
X167509000Y-88094531D01*
X167509000Y-88094523D01*
X167496195Y-87964510D01*
X167445589Y-87797687D01*
X167363411Y-87643941D01*
X167275097Y-87536331D01*
X167275097Y-86985151D01*
X167278169Y-86953959D01*
X167278169Y-86395662D01*
X167345254Y-86316376D01*
X167405867Y-86206960D01*
X167443970Y-86087820D01*
X167455097Y-85985709D01*
X167296347Y-85826959D01*
X167185330Y-85826959D01*
X167170634Y-85799465D01*
X167092255Y-85703959D01*
X167170634Y-85608453D01*
X167185330Y-85580959D01*
X167296347Y-85580959D01*
X167455097Y-85422209D01*
X167443970Y-85320098D01*
X167405867Y-85200958D01*
X167345254Y-85091542D01*
X167278169Y-85012256D01*
X167278169Y-84453959D01*
X167275097Y-84422767D01*
X167275097Y-77637494D01*
X167276721Y-77621005D01*
X167276721Y-77249432D01*
X167279378Y-77222453D01*
X167276721Y-77195474D01*
X167276721Y-77062708D01*
X167343806Y-76983422D01*
X167404419Y-76874006D01*
X167442522Y-76754866D01*
X167453649Y-76652755D01*
X167294899Y-76494005D01*
X167183882Y-76494005D01*
X167169186Y-76466511D01*
X167090807Y-76371005D01*
X167169186Y-76275499D01*
X167183882Y-76248005D01*
X167294899Y-76248005D01*
X167453649Y-76089255D01*
X167442522Y-75987144D01*
X167404419Y-75868004D01*
X167343806Y-75758588D01*
X167276721Y-75679302D01*
X167276721Y-75645492D01*
X167285907Y-75552224D01*
X167285907Y-75552214D01*
X167290188Y-75508748D01*
X167285907Y-75465282D01*
X167285907Y-68306439D01*
X167288979Y-68275247D01*
X167288979Y-67716950D01*
X167356064Y-67637664D01*
X167416677Y-67528248D01*
X167454780Y-67409108D01*
X167465907Y-67306997D01*
X167307157Y-67148247D01*
X167196140Y-67148247D01*
X167181444Y-67120753D01*
X167103065Y-67025247D01*
X167181444Y-66929741D01*
X167196140Y-66902247D01*
X167307157Y-66902247D01*
X167465907Y-66743497D01*
X167454780Y-66641386D01*
X167416677Y-66522246D01*
X167356064Y-66412830D01*
X167288979Y-66333544D01*
X167288979Y-65775247D01*
X167285907Y-65744055D01*
X167285907Y-63574376D01*
X167290188Y-63530907D01*
X167285907Y-63487438D01*
X167285907Y-63487430D01*
X167273102Y-63357417D01*
X167244631Y-63263562D01*
X167222496Y-63190593D01*
X167140318Y-63036848D01*
X167057439Y-62935860D01*
X167057437Y-62935858D01*
X167029724Y-62902090D01*
X166995956Y-62874377D01*
X158848549Y-54726971D01*
X158820834Y-54693200D01*
X158686076Y-54582606D01*
X158532330Y-54500428D01*
X158365507Y-54449822D01*
X158235494Y-54437017D01*
X158235486Y-54437017D01*
X158192017Y-54432736D01*
X158148548Y-54437017D01*
X155952611Y-54437017D01*
X155921419Y-54433945D01*
X155363122Y-54433945D01*
X155283836Y-54366860D01*
X155174420Y-54306247D01*
X155055280Y-54268144D01*
X154953169Y-54257017D01*
X154794419Y-54415767D01*
X154794419Y-54526784D01*
X154766925Y-54541480D01*
X154671419Y-54619859D01*
X154575913Y-54541480D01*
X154548419Y-54526784D01*
X154548419Y-54415767D01*
X154389669Y-54257017D01*
X154287558Y-54268144D01*
X154168418Y-54306247D01*
X154059002Y-54366860D01*
X153979716Y-54433945D01*
X153421419Y-54433945D01*
X153390227Y-54437017D01*
X146619685Y-54437017D01*
X146588118Y-54433908D01*
X146200394Y-54433908D01*
X146188118Y-54432699D01*
X146175842Y-54433908D01*
X146029821Y-54433908D01*
X145950535Y-54366823D01*
X145841119Y-54306210D01*
X145721979Y-54268107D01*
X145619868Y-54256980D01*
X145461118Y-54415730D01*
X145461118Y-54526747D01*
X145433624Y-54541443D01*
X145338118Y-54619822D01*
X145242612Y-54541443D01*
X145215118Y-54526747D01*
X145215118Y-54415730D01*
X145056368Y-54256980D01*
X144954257Y-54268107D01*
X144835117Y-54306210D01*
X144725701Y-54366823D01*
X144646415Y-54433908D01*
X144088118Y-54433908D01*
X144056926Y-54436980D01*
X137430522Y-54436980D01*
X137378423Y-54421176D01*
X137253941Y-54408916D01*
X136866217Y-54408916D01*
X136853941Y-54407707D01*
X136841665Y-54408916D01*
X136695644Y-54408916D01*
X136616358Y-54341831D01*
X136506942Y-54281218D01*
X136387802Y-54243115D01*
X136285691Y-54231988D01*
X136126941Y-54390738D01*
X136126941Y-54501755D01*
X136099447Y-54516451D01*
X136003941Y-54594830D01*
X135908435Y-54516451D01*
X135880941Y-54501755D01*
X135880941Y-54390738D01*
X135722191Y-54231988D01*
X135620080Y-54243115D01*
X135500940Y-54281218D01*
X135391524Y-54341831D01*
X135312238Y-54408916D01*
X134753941Y-54408916D01*
X134722749Y-54411988D01*
X133722481Y-54411988D01*
X133679012Y-54407707D01*
X133635543Y-54411988D01*
X133635535Y-54411988D01*
X133520318Y-54423336D01*
X133505521Y-54424793D01*
X133454915Y-54440145D01*
X133338699Y-54475399D01*
X133184953Y-54557577D01*
X133184951Y-54557578D01*
X133184952Y-54557578D01*
X133083965Y-54640456D01*
X133083963Y-54640458D01*
X133050195Y-54668171D01*
X133022482Y-54701939D01*
X131992951Y-55731471D01*
X131959184Y-55759183D01*
X131931471Y-55792951D01*
X131931468Y-55792954D01*
X131848590Y-55893941D01*
X131766412Y-56047687D01*
X131715805Y-56214510D01*
X131698719Y-56388000D01*
X131703001Y-56431479D01*
X131703001Y-63649422D01*
X129180534Y-61126956D01*
X129152817Y-61093183D01*
X129018059Y-60982589D01*
X128864313Y-60900411D01*
X128697490Y-60849805D01*
X128567477Y-60837000D01*
X128567469Y-60837000D01*
X128524000Y-60832719D01*
X128480531Y-60837000D01*
X125519469Y-60837000D01*
X125476000Y-60832719D01*
X125432531Y-60837000D01*
X125432523Y-60837000D01*
X125302510Y-60849805D01*
X125135686Y-60900411D01*
X124981941Y-60982589D01*
X124880953Y-61065468D01*
X124880951Y-61065470D01*
X124847183Y-61093183D01*
X124819470Y-61126951D01*
X123679707Y-62266715D01*
X123645934Y-62294432D01*
X123535340Y-62429191D01*
X123453162Y-62582937D01*
X123402556Y-62749760D01*
X123389751Y-62879773D01*
X123389751Y-62879780D01*
X123385470Y-62923249D01*
X123389751Y-62966718D01*
X123389752Y-65759345D01*
X123386679Y-65790545D01*
X123386679Y-66348842D01*
X123319594Y-66428128D01*
X123258981Y-66537544D01*
X123220878Y-66656684D01*
X123209751Y-66758795D01*
X123368501Y-66917545D01*
X123479518Y-66917545D01*
X123494214Y-66945039D01*
X123572593Y-67040545D01*
X123494214Y-67136051D01*
X123479518Y-67163545D01*
X123368501Y-67163545D01*
X123209751Y-67322295D01*
X123220878Y-67424406D01*
X123258981Y-67543546D01*
X123319594Y-67652962D01*
X123386679Y-67732248D01*
X123386679Y-68290545D01*
X123389751Y-68321737D01*
X123389752Y-75044694D01*
X123382704Y-75116255D01*
X123382704Y-75503979D01*
X123381495Y-75516255D01*
X123382704Y-75528531D01*
X123382704Y-75674552D01*
X123315619Y-75753838D01*
X123255006Y-75863254D01*
X123216903Y-75982394D01*
X123205776Y-76084505D01*
X116498067Y-76084505D01*
X116966774Y-52336692D01*
X117101243Y-51597110D01*
X117374647Y-51597110D01*
X117374647Y-52263896D01*
X117504730Y-52917871D01*
X117759899Y-53533902D01*
X118130345Y-54088315D01*
X118601835Y-54559805D01*
X119156248Y-54930251D01*
X119772279Y-55185420D01*
X120426254Y-55315503D01*
X121093040Y-55315503D01*
X121747015Y-55185420D01*
X122363046Y-54930251D01*
X122917459Y-54559805D01*
X123388949Y-54088315D01*
X123759395Y-53533902D01*
X124014564Y-52917871D01*
X124144647Y-52263896D01*
X124144647Y-51597110D01*
X124117022Y-51458227D01*
X166395779Y-51458227D01*
X166395779Y-52125013D01*
X166525862Y-52778988D01*
X166781031Y-53395019D01*
X167151477Y-53949432D01*
X167622967Y-54420922D01*
X168177380Y-54791368D01*
X168793411Y-55046537D01*
X169447386Y-55176620D01*
X170114172Y-55176620D01*
X170768147Y-55046537D01*
X171384178Y-54791368D01*
X171938591Y-54420922D01*
X172410081Y-53949432D01*
X172780527Y-53395019D01*
X173035696Y-52778988D01*
X173165779Y-52125013D01*
X173165779Y-51458227D01*
X173035696Y-50804252D01*
X172780527Y-50188221D01*
X172410081Y-49633808D01*
X171938591Y-49162318D01*
X171384178Y-48791872D01*
X170768147Y-48536703D01*
X170114172Y-48406620D01*
X169447386Y-48406620D01*
X168793411Y-48536703D01*
X168177380Y-48791872D01*
X167622967Y-49162318D01*
X167151477Y-49633808D01*
X166781031Y-50188221D01*
X166525862Y-50804252D01*
X166395779Y-51458227D01*
X124117022Y-51458227D01*
X124014564Y-50943135D01*
X123759395Y-50327104D01*
X123388949Y-49772691D01*
X122917459Y-49301201D01*
X122363046Y-48930755D01*
X121747015Y-48675586D01*
X121093040Y-48545503D01*
X120426254Y-48545503D01*
X119772279Y-48675586D01*
X119156248Y-48930755D01*
X118601835Y-49301201D01*
X118130345Y-49772691D01*
X117759899Y-50327104D01*
X117504730Y-50943135D01*
X117374647Y-51597110D01*
X117101243Y-51597110D01*
X117463306Y-49605764D01*
X118925949Y-48630669D01*
X120675477Y-48130803D01*
X122689904Y-47879000D01*
X170906822Y-47879000D01*
X172133252Y-48614857D01*
G36*
X135115869Y-57526988D02*
G01*
X135128129Y-57651470D01*
X135164439Y-57771168D01*
X135223404Y-57881482D01*
X135302756Y-57978173D01*
X135399447Y-58057525D01*
X135509761Y-58116490D01*
X135629459Y-58152800D01*
X135753941Y-58165060D01*
X135968941Y-58165060D01*
X135968942Y-60666882D01*
X135965680Y-60674757D01*
X135928100Y-60863685D01*
X135928100Y-61056315D01*
X135965680Y-61245243D01*
X136039396Y-61423210D01*
X136146415Y-61583375D01*
X136282625Y-61719585D01*
X136442790Y-61826604D01*
X136620757Y-61900320D01*
X136809685Y-61937900D01*
X137002315Y-61937900D01*
X137191243Y-61900320D01*
X137369210Y-61826604D01*
X137529375Y-61719585D01*
X137665585Y-61583375D01*
X137772604Y-61423210D01*
X137846320Y-61245243D01*
X137883900Y-61056315D01*
X137883900Y-60863685D01*
X137846320Y-60674757D01*
X137772604Y-60496790D01*
X137738941Y-60446410D01*
X137738941Y-57756969D01*
X137784478Y-57701482D01*
X137843443Y-57591168D01*
X137879753Y-57471470D01*
X137886424Y-57403730D01*
X143453118Y-57403730D01*
X143465213Y-57510274D01*
X143504162Y-57629140D01*
X143565552Y-57738123D01*
X143647024Y-57833035D01*
X143745446Y-57910229D01*
X143857038Y-57966739D01*
X143977510Y-58000392D01*
X144102232Y-58009896D01*
X144202368Y-58006980D01*
X144361118Y-57848230D01*
X144361118Y-57244980D01*
X143611868Y-57244980D01*
X143453118Y-57403730D01*
X137886424Y-57403730D01*
X137892013Y-57346988D01*
X137892013Y-57106980D01*
X144450046Y-57106980D01*
X144450046Y-57551980D01*
X144462306Y-57676462D01*
X144498616Y-57796160D01*
X144557581Y-57906474D01*
X144636933Y-58003165D01*
X144733624Y-58082517D01*
X144843938Y-58141482D01*
X144963636Y-58177792D01*
X145088118Y-58190052D01*
X145303118Y-58190052D01*
X145303119Y-60323921D01*
X145290415Y-60336625D01*
X145183396Y-60496790D01*
X145109680Y-60674757D01*
X145072100Y-60863685D01*
X145072100Y-61056315D01*
X145109680Y-61245243D01*
X145183396Y-61423210D01*
X145290415Y-61583375D01*
X145426625Y-61719585D01*
X145586790Y-61826604D01*
X145764757Y-61900320D01*
X145953685Y-61937900D01*
X146146315Y-61937900D01*
X146335243Y-61900320D01*
X146513210Y-61826604D01*
X146673375Y-61719585D01*
X146809585Y-61583375D01*
X146916604Y-61423210D01*
X146990320Y-61245243D01*
X147005139Y-61170740D01*
X147009707Y-61162195D01*
X147060313Y-60995372D01*
X147073118Y-60865359D01*
X147073118Y-60865349D01*
X147077399Y-60821883D01*
X147073118Y-60778417D01*
X147073118Y-57781961D01*
X147118655Y-57726474D01*
X147177620Y-57616160D01*
X147213930Y-57496462D01*
X147223059Y-57403767D01*
X152786419Y-57403767D01*
X152798514Y-57510311D01*
X152837463Y-57629177D01*
X152898853Y-57738160D01*
X152980325Y-57833072D01*
X153078747Y-57910266D01*
X153190339Y-57966776D01*
X153310811Y-58000429D01*
X153435533Y-58009933D01*
X153535669Y-58007017D01*
X153694419Y-57848267D01*
X153694419Y-57245017D01*
X152945169Y-57245017D01*
X152786419Y-57403767D01*
X147223059Y-57403767D01*
X147226190Y-57371980D01*
X147226190Y-57107017D01*
X153783347Y-57107017D01*
X153783347Y-57552017D01*
X153795607Y-57676499D01*
X153831917Y-57796197D01*
X153890882Y-57906511D01*
X153970234Y-58003202D01*
X154066925Y-58082554D01*
X154177239Y-58141519D01*
X154296937Y-58177829D01*
X154421419Y-58190089D01*
X154636419Y-58190089D01*
X154636420Y-60156452D01*
X154570625Y-60200415D01*
X154434415Y-60336625D01*
X154327396Y-60496790D01*
X154253680Y-60674757D01*
X154216100Y-60863685D01*
X154216100Y-61056315D01*
X154253680Y-61245243D01*
X154327396Y-61423210D01*
X154434415Y-61583375D01*
X154570625Y-61719585D01*
X154730790Y-61826604D01*
X154908757Y-61900320D01*
X155097685Y-61937900D01*
X155290315Y-61937900D01*
X155479243Y-61900320D01*
X155657210Y-61826604D01*
X155817375Y-61719585D01*
X155953585Y-61583375D01*
X156060604Y-61423210D01*
X156115925Y-61289653D01*
X156116463Y-61289115D01*
X156150236Y-61261398D01*
X156260830Y-61126640D01*
X156343008Y-60972894D01*
X156393614Y-60806071D01*
X156406419Y-60676058D01*
X156406419Y-60676048D01*
X156410700Y-60632582D01*
X156406419Y-60589116D01*
X156406419Y-57781998D01*
X156451956Y-57726511D01*
X156510921Y-57616197D01*
X156547231Y-57496499D01*
X156559491Y-57372017D01*
X156559491Y-57107017D01*
X157455439Y-57107017D01*
X164615908Y-64267487D01*
X164615907Y-66137175D01*
X164170907Y-66137175D01*
X164046425Y-66149435D01*
X163926727Y-66185745D01*
X163816413Y-66244710D01*
X163719722Y-66324062D01*
X163640370Y-66420753D01*
X163581405Y-66531067D01*
X163545095Y-66650765D01*
X163532835Y-66775247D01*
X163532835Y-66990247D01*
X160033355Y-66990247D01*
X159975210Y-66951396D01*
X159797243Y-66877680D01*
X159608315Y-66840100D01*
X159415685Y-66840100D01*
X159226757Y-66877680D01*
X159048790Y-66951396D01*
X158888625Y-67058415D01*
X158752415Y-67194625D01*
X158645396Y-67354790D01*
X158571680Y-67532757D01*
X158534100Y-67721685D01*
X158534100Y-67914315D01*
X158571680Y-68103243D01*
X158645396Y-68281210D01*
X158752415Y-68441375D01*
X158888625Y-68577585D01*
X159048790Y-68684604D01*
X159226757Y-68758320D01*
X159415685Y-68795900D01*
X159608315Y-68795900D01*
X159787555Y-68760247D01*
X163940926Y-68760247D01*
X163996413Y-68805784D01*
X164106727Y-68864749D01*
X164226425Y-68901059D01*
X164350907Y-68913319D01*
X164603650Y-68913319D01*
X164603649Y-75482933D01*
X164158649Y-75482933D01*
X164034167Y-75495193D01*
X163914469Y-75531503D01*
X163804155Y-75590468D01*
X163707464Y-75669820D01*
X163628112Y-75766511D01*
X163569147Y-75876825D01*
X163532837Y-75996523D01*
X163520577Y-76121005D01*
X163520577Y-76336005D01*
X160268965Y-76336005D01*
X160135375Y-76202415D01*
X159975210Y-76095396D01*
X159797243Y-76021680D01*
X159608315Y-75984100D01*
X159415685Y-75984100D01*
X159226757Y-76021680D01*
X159048790Y-76095396D01*
X158888625Y-76202415D01*
X158752415Y-76338625D01*
X158645396Y-76498790D01*
X158571680Y-76676757D01*
X158534100Y-76865685D01*
X158534100Y-77058315D01*
X158571680Y-77247243D01*
X158645396Y-77425210D01*
X158752415Y-77585375D01*
X158888625Y-77721585D01*
X159048790Y-77828604D01*
X159185164Y-77885092D01*
X159276946Y-77960416D01*
X159430692Y-78042594D01*
X159597515Y-78093200D01*
X159727528Y-78106005D01*
X159727538Y-78106005D01*
X159771004Y-78110286D01*
X159814470Y-78106005D01*
X163928668Y-78106005D01*
X163984155Y-78151542D01*
X164094469Y-78210507D01*
X164214167Y-78246817D01*
X164338649Y-78259077D01*
X164603649Y-78259077D01*
X164603650Y-84809032D01*
X164602975Y-84815887D01*
X164160097Y-84815887D01*
X164035615Y-84828147D01*
X163915917Y-84864457D01*
X163805603Y-84923422D01*
X163708912Y-85002774D01*
X163629560Y-85099465D01*
X163570595Y-85209779D01*
X163534285Y-85329477D01*
X163522025Y-85453959D01*
X163522025Y-85668959D01*
X159773509Y-85668959D01*
X159608315Y-85636100D01*
X159415685Y-85636100D01*
X159226757Y-85673680D01*
X159048790Y-85747396D01*
X158888625Y-85854415D01*
X158752415Y-85990625D01*
X158645396Y-86150790D01*
X158571680Y-86328757D01*
X158534100Y-86517685D01*
X158534100Y-86710315D01*
X158571680Y-86899243D01*
X158645396Y-87077210D01*
X158752415Y-87237375D01*
X158888625Y-87373585D01*
X159048790Y-87480604D01*
X159226757Y-87554320D01*
X159415685Y-87591900D01*
X159608315Y-87591900D01*
X159797243Y-87554320D01*
X159975210Y-87480604D01*
X160037536Y-87438959D01*
X163930116Y-87438959D01*
X163985603Y-87484496D01*
X164095917Y-87543461D01*
X164215615Y-87579771D01*
X164340097Y-87592031D01*
X164605097Y-87592031D01*
X164605097Y-87915701D01*
X164532412Y-88051687D01*
X164481805Y-88218510D01*
X164464719Y-88392000D01*
X164469001Y-88435479D01*
X164469000Y-94069202D01*
X164413680Y-94202757D01*
X164376100Y-94391685D01*
X164376100Y-94584315D01*
X164407928Y-94744327D01*
X155952611Y-94744327D01*
X155921419Y-94741255D01*
X155363122Y-94741255D01*
X155283836Y-94674170D01*
X155174420Y-94613557D01*
X155055280Y-94575454D01*
X154953169Y-94564327D01*
X154794419Y-94723077D01*
X154794419Y-94834094D01*
X154766925Y-94848790D01*
X154671419Y-94927169D01*
X154575913Y-94848790D01*
X154548419Y-94834094D01*
X154548419Y-94723077D01*
X154389669Y-94564327D01*
X154287558Y-94575454D01*
X154168418Y-94613557D01*
X154059002Y-94674170D01*
X153979716Y-94741255D01*
X153421419Y-94741255D01*
X153390227Y-94744327D01*
X146232707Y-94744327D01*
X146189238Y-94740046D01*
X146145769Y-94744327D01*
X146145761Y-94744327D01*
X146015748Y-94757132D01*
X146013778Y-94757729D01*
X145934865Y-94690960D01*
X145825449Y-94630347D01*
X145706309Y-94592244D01*
X145604198Y-94581117D01*
X145445448Y-94739867D01*
X145445448Y-94850884D01*
X145417954Y-94865580D01*
X145322448Y-94943959D01*
X145226942Y-94865580D01*
X145199448Y-94850884D01*
X145199448Y-94739867D01*
X145040698Y-94581117D01*
X144938587Y-94592244D01*
X144819447Y-94630347D01*
X144710031Y-94690960D01*
X144630745Y-94758045D01*
X144072448Y-94758045D01*
X144041256Y-94761117D01*
X137390225Y-94761117D01*
X137365165Y-94753515D01*
X137240683Y-94741255D01*
X136852959Y-94741255D01*
X136840683Y-94740046D01*
X136828407Y-94741255D01*
X136682386Y-94741255D01*
X136603100Y-94674170D01*
X136493684Y-94613557D01*
X136374544Y-94575454D01*
X136272433Y-94564327D01*
X136113683Y-94723077D01*
X136113683Y-94834094D01*
X136086189Y-94848790D01*
X135990683Y-94927169D01*
X135895177Y-94848790D01*
X135867683Y-94834094D01*
X135867683Y-94723077D01*
X135708933Y-94564327D01*
X135606822Y-94575454D01*
X135487682Y-94613557D01*
X135378266Y-94674170D01*
X135298980Y-94741255D01*
X134804683Y-94741255D01*
X134835900Y-94584315D01*
X134835900Y-94391685D01*
X134798320Y-94202757D01*
X134743000Y-94069202D01*
X134743000Y-84468073D01*
X163702181Y-84468073D01*
X163705097Y-84568209D01*
X163863847Y-84726959D01*
X164467097Y-84726959D01*
X164467097Y-83977709D01*
X164308347Y-83818959D01*
X164201803Y-83831054D01*
X164082937Y-83870003D01*
X163973954Y-83931393D01*
X163879042Y-84012865D01*
X163801848Y-84111287D01*
X163745338Y-84222879D01*
X163711685Y-84343351D01*
X163702181Y-84468073D01*
X134743000Y-84468073D01*
X134743000Y-75135119D01*
X163700733Y-75135119D01*
X163703649Y-75235255D01*
X163862399Y-75394005D01*
X164465649Y-75394005D01*
X164465649Y-74644755D01*
X164306899Y-74486005D01*
X164200355Y-74498100D01*
X164081489Y-74537049D01*
X163972506Y-74598439D01*
X163877594Y-74679911D01*
X163800400Y-74778333D01*
X163743890Y-74889925D01*
X163710237Y-75010397D01*
X163700733Y-75135119D01*
X134743000Y-75135119D01*
X134743000Y-65789361D01*
X163712991Y-65789361D01*
X163715907Y-65889497D01*
X163874657Y-66048247D01*
X164477907Y-66048247D01*
X164477907Y-65298997D01*
X164319157Y-65140247D01*
X164212613Y-65152342D01*
X164093747Y-65191291D01*
X163984764Y-65252681D01*
X163889852Y-65334153D01*
X163812658Y-65432575D01*
X163756148Y-65544167D01*
X163722495Y-65664639D01*
X163712991Y-65789361D01*
X134743000Y-65789361D01*
X134743000Y-57982995D01*
X134768055Y-57984904D01*
X134868191Y-57981988D01*
X135026941Y-57823238D01*
X135026941Y-57219988D01*
X135006941Y-57219988D01*
X135006941Y-57081988D01*
X135115869Y-57081988D01*
X135115869Y-57526988D01*
G37*
X135115869Y-57526988D02*
X135128129Y-57651470D01*
X135164439Y-57771168D01*
X135223404Y-57881482D01*
X135302756Y-57978173D01*
X135399447Y-58057525D01*
X135509761Y-58116490D01*
X135629459Y-58152800D01*
X135753941Y-58165060D01*
X135968941Y-58165060D01*
X135968942Y-60666882D01*
X135965680Y-60674757D01*
X135928100Y-60863685D01*
X135928100Y-61056315D01*
X135965680Y-61245243D01*
X136039396Y-61423210D01*
X136146415Y-61583375D01*
X136282625Y-61719585D01*
X136442790Y-61826604D01*
X136620757Y-61900320D01*
X136809685Y-61937900D01*
X137002315Y-61937900D01*
X137191243Y-61900320D01*
X137369210Y-61826604D01*
X137529375Y-61719585D01*
X137665585Y-61583375D01*
X137772604Y-61423210D01*
X137846320Y-61245243D01*
X137883900Y-61056315D01*
X137883900Y-60863685D01*
X137846320Y-60674757D01*
X137772604Y-60496790D01*
X137738941Y-60446410D01*
X137738941Y-57756969D01*
X137784478Y-57701482D01*
X137843443Y-57591168D01*
X137879753Y-57471470D01*
X137886424Y-57403730D01*
X143453118Y-57403730D01*
X143465213Y-57510274D01*
X143504162Y-57629140D01*
X143565552Y-57738123D01*
X143647024Y-57833035D01*
X143745446Y-57910229D01*
X143857038Y-57966739D01*
X143977510Y-58000392D01*
X144102232Y-58009896D01*
X144202368Y-58006980D01*
X144361118Y-57848230D01*
X144361118Y-57244980D01*
X143611868Y-57244980D01*
X143453118Y-57403730D01*
X137886424Y-57403730D01*
X137892013Y-57346988D01*
X137892013Y-57106980D01*
X144450046Y-57106980D01*
X144450046Y-57551980D01*
X144462306Y-57676462D01*
X144498616Y-57796160D01*
X144557581Y-57906474D01*
X144636933Y-58003165D01*
X144733624Y-58082517D01*
X144843938Y-58141482D01*
X144963636Y-58177792D01*
X145088118Y-58190052D01*
X145303118Y-58190052D01*
X145303119Y-60323921D01*
X145290415Y-60336625D01*
X145183396Y-60496790D01*
X145109680Y-60674757D01*
X145072100Y-60863685D01*
X145072100Y-61056315D01*
X145109680Y-61245243D01*
X145183396Y-61423210D01*
X145290415Y-61583375D01*
X145426625Y-61719585D01*
X145586790Y-61826604D01*
X145764757Y-61900320D01*
X145953685Y-61937900D01*
X146146315Y-61937900D01*
X146335243Y-61900320D01*
X146513210Y-61826604D01*
X146673375Y-61719585D01*
X146809585Y-61583375D01*
X146916604Y-61423210D01*
X146990320Y-61245243D01*
X147005139Y-61170740D01*
X147009707Y-61162195D01*
X147060313Y-60995372D01*
X147073118Y-60865359D01*
X147073118Y-60865349D01*
X147077399Y-60821883D01*
X147073118Y-60778417D01*
X147073118Y-57781961D01*
X147118655Y-57726474D01*
X147177620Y-57616160D01*
X147213930Y-57496462D01*
X147223059Y-57403767D01*
X152786419Y-57403767D01*
X152798514Y-57510311D01*
X152837463Y-57629177D01*
X152898853Y-57738160D01*
X152980325Y-57833072D01*
X153078747Y-57910266D01*
X153190339Y-57966776D01*
X153310811Y-58000429D01*
X153435533Y-58009933D01*
X153535669Y-58007017D01*
X153694419Y-57848267D01*
X153694419Y-57245017D01*
X152945169Y-57245017D01*
X152786419Y-57403767D01*
X147223059Y-57403767D01*
X147226190Y-57371980D01*
X147226190Y-57107017D01*
X153783347Y-57107017D01*
X153783347Y-57552017D01*
X153795607Y-57676499D01*
X153831917Y-57796197D01*
X153890882Y-57906511D01*
X153970234Y-58003202D01*
X154066925Y-58082554D01*
X154177239Y-58141519D01*
X154296937Y-58177829D01*
X154421419Y-58190089D01*
X154636419Y-58190089D01*
X154636420Y-60156452D01*
X154570625Y-60200415D01*
X154434415Y-60336625D01*
X154327396Y-60496790D01*
X154253680Y-60674757D01*
X154216100Y-60863685D01*
X154216100Y-61056315D01*
X154253680Y-61245243D01*
X154327396Y-61423210D01*
X154434415Y-61583375D01*
X154570625Y-61719585D01*
X154730790Y-61826604D01*
X154908757Y-61900320D01*
X155097685Y-61937900D01*
X155290315Y-61937900D01*
X155479243Y-61900320D01*
X155657210Y-61826604D01*
X155817375Y-61719585D01*
X155953585Y-61583375D01*
X156060604Y-61423210D01*
X156115925Y-61289653D01*
X156116463Y-61289115D01*
X156150236Y-61261398D01*
X156260830Y-61126640D01*
X156343008Y-60972894D01*
X156393614Y-60806071D01*
X156406419Y-60676058D01*
X156406419Y-60676048D01*
X156410700Y-60632582D01*
X156406419Y-60589116D01*
X156406419Y-57781998D01*
X156451956Y-57726511D01*
X156510921Y-57616197D01*
X156547231Y-57496499D01*
X156559491Y-57372017D01*
X156559491Y-57107017D01*
X157455439Y-57107017D01*
X164615908Y-64267487D01*
X164615907Y-66137175D01*
X164170907Y-66137175D01*
X164046425Y-66149435D01*
X163926727Y-66185745D01*
X163816413Y-66244710D01*
X163719722Y-66324062D01*
X163640370Y-66420753D01*
X163581405Y-66531067D01*
X163545095Y-66650765D01*
X163532835Y-66775247D01*
X163532835Y-66990247D01*
X160033355Y-66990247D01*
X159975210Y-66951396D01*
X159797243Y-66877680D01*
X159608315Y-66840100D01*
X159415685Y-66840100D01*
X159226757Y-66877680D01*
X159048790Y-66951396D01*
X158888625Y-67058415D01*
X158752415Y-67194625D01*
X158645396Y-67354790D01*
X158571680Y-67532757D01*
X158534100Y-67721685D01*
X158534100Y-67914315D01*
X158571680Y-68103243D01*
X158645396Y-68281210D01*
X158752415Y-68441375D01*
X158888625Y-68577585D01*
X159048790Y-68684604D01*
X159226757Y-68758320D01*
X159415685Y-68795900D01*
X159608315Y-68795900D01*
X159787555Y-68760247D01*
X163940926Y-68760247D01*
X163996413Y-68805784D01*
X164106727Y-68864749D01*
X164226425Y-68901059D01*
X164350907Y-68913319D01*
X164603650Y-68913319D01*
X164603649Y-75482933D01*
X164158649Y-75482933D01*
X164034167Y-75495193D01*
X163914469Y-75531503D01*
X163804155Y-75590468D01*
X163707464Y-75669820D01*
X163628112Y-75766511D01*
X163569147Y-75876825D01*
X163532837Y-75996523D01*
X163520577Y-76121005D01*
X163520577Y-76336005D01*
X160268965Y-76336005D01*
X160135375Y-76202415D01*
X159975210Y-76095396D01*
X159797243Y-76021680D01*
X159608315Y-75984100D01*
X159415685Y-75984100D01*
X159226757Y-76021680D01*
X159048790Y-76095396D01*
X158888625Y-76202415D01*
X158752415Y-76338625D01*
X158645396Y-76498790D01*
X158571680Y-76676757D01*
X158534100Y-76865685D01*
X158534100Y-77058315D01*
X158571680Y-77247243D01*
X158645396Y-77425210D01*
X158752415Y-77585375D01*
X158888625Y-77721585D01*
X159048790Y-77828604D01*
X159185164Y-77885092D01*
X159276946Y-77960416D01*
X159430692Y-78042594D01*
X159597515Y-78093200D01*
X159727528Y-78106005D01*
X159727538Y-78106005D01*
X159771004Y-78110286D01*
X159814470Y-78106005D01*
X163928668Y-78106005D01*
X163984155Y-78151542D01*
X164094469Y-78210507D01*
X164214167Y-78246817D01*
X164338649Y-78259077D01*
X164603649Y-78259077D01*
X164603650Y-84809032D01*
X164602975Y-84815887D01*
X164160097Y-84815887D01*
X164035615Y-84828147D01*
X163915917Y-84864457D01*
X163805603Y-84923422D01*
X163708912Y-85002774D01*
X163629560Y-85099465D01*
X163570595Y-85209779D01*
X163534285Y-85329477D01*
X163522025Y-85453959D01*
X163522025Y-85668959D01*
X159773509Y-85668959D01*
X159608315Y-85636100D01*
X159415685Y-85636100D01*
X159226757Y-85673680D01*
X159048790Y-85747396D01*
X158888625Y-85854415D01*
X158752415Y-85990625D01*
X158645396Y-86150790D01*
X158571680Y-86328757D01*
X158534100Y-86517685D01*
X158534100Y-86710315D01*
X158571680Y-86899243D01*
X158645396Y-87077210D01*
X158752415Y-87237375D01*
X158888625Y-87373585D01*
X159048790Y-87480604D01*
X159226757Y-87554320D01*
X159415685Y-87591900D01*
X159608315Y-87591900D01*
X159797243Y-87554320D01*
X159975210Y-87480604D01*
X160037536Y-87438959D01*
X163930116Y-87438959D01*
X163985603Y-87484496D01*
X164095917Y-87543461D01*
X164215615Y-87579771D01*
X164340097Y-87592031D01*
X164605097Y-87592031D01*
X164605097Y-87915701D01*
X164532412Y-88051687D01*
X164481805Y-88218510D01*
X164464719Y-88392000D01*
X164469001Y-88435479D01*
X164469000Y-94069202D01*
X164413680Y-94202757D01*
X164376100Y-94391685D01*
X164376100Y-94584315D01*
X164407928Y-94744327D01*
X155952611Y-94744327D01*
X155921419Y-94741255D01*
X155363122Y-94741255D01*
X155283836Y-94674170D01*
X155174420Y-94613557D01*
X155055280Y-94575454D01*
X154953169Y-94564327D01*
X154794419Y-94723077D01*
X154794419Y-94834094D01*
X154766925Y-94848790D01*
X154671419Y-94927169D01*
X154575913Y-94848790D01*
X154548419Y-94834094D01*
X154548419Y-94723077D01*
X154389669Y-94564327D01*
X154287558Y-94575454D01*
X154168418Y-94613557D01*
X154059002Y-94674170D01*
X153979716Y-94741255D01*
X153421419Y-94741255D01*
X153390227Y-94744327D01*
X146232707Y-94744327D01*
X146189238Y-94740046D01*
X146145769Y-94744327D01*
X146145761Y-94744327D01*
X146015748Y-94757132D01*
X146013778Y-94757729D01*
X145934865Y-94690960D01*
X145825449Y-94630347D01*
X145706309Y-94592244D01*
X145604198Y-94581117D01*
X145445448Y-94739867D01*
X145445448Y-94850884D01*
X145417954Y-94865580D01*
X145322448Y-94943959D01*
X145226942Y-94865580D01*
X145199448Y-94850884D01*
X145199448Y-94739867D01*
X145040698Y-94581117D01*
X144938587Y-94592244D01*
X144819447Y-94630347D01*
X144710031Y-94690960D01*
X144630745Y-94758045D01*
X144072448Y-94758045D01*
X144041256Y-94761117D01*
X137390225Y-94761117D01*
X137365165Y-94753515D01*
X137240683Y-94741255D01*
X136852959Y-94741255D01*
X136840683Y-94740046D01*
X136828407Y-94741255D01*
X136682386Y-94741255D01*
X136603100Y-94674170D01*
X136493684Y-94613557D01*
X136374544Y-94575454D01*
X136272433Y-94564327D01*
X136113683Y-94723077D01*
X136113683Y-94834094D01*
X136086189Y-94848790D01*
X135990683Y-94927169D01*
X135895177Y-94848790D01*
X135867683Y-94834094D01*
X135867683Y-94723077D01*
X135708933Y-94564327D01*
X135606822Y-94575454D01*
X135487682Y-94613557D01*
X135378266Y-94674170D01*
X135298980Y-94741255D01*
X134804683Y-94741255D01*
X134835900Y-94584315D01*
X134835900Y-94391685D01*
X134798320Y-94202757D01*
X134743000Y-94069202D01*
X134743000Y-84468073D01*
X163702181Y-84468073D01*
X163705097Y-84568209D01*
X163863847Y-84726959D01*
X164467097Y-84726959D01*
X164467097Y-83977709D01*
X164308347Y-83818959D01*
X164201803Y-83831054D01*
X164082937Y-83870003D01*
X163973954Y-83931393D01*
X163879042Y-84012865D01*
X163801848Y-84111287D01*
X163745338Y-84222879D01*
X163711685Y-84343351D01*
X163702181Y-84468073D01*
X134743000Y-84468073D01*
X134743000Y-75135119D01*
X163700733Y-75135119D01*
X163703649Y-75235255D01*
X163862399Y-75394005D01*
X164465649Y-75394005D01*
X164465649Y-74644755D01*
X164306899Y-74486005D01*
X164200355Y-74498100D01*
X164081489Y-74537049D01*
X163972506Y-74598439D01*
X163877594Y-74679911D01*
X163800400Y-74778333D01*
X163743890Y-74889925D01*
X163710237Y-75010397D01*
X163700733Y-75135119D01*
X134743000Y-75135119D01*
X134743000Y-65789361D01*
X163712991Y-65789361D01*
X163715907Y-65889497D01*
X163874657Y-66048247D01*
X164477907Y-66048247D01*
X164477907Y-65298997D01*
X164319157Y-65140247D01*
X164212613Y-65152342D01*
X164093747Y-65191291D01*
X163984764Y-65252681D01*
X163889852Y-65334153D01*
X163812658Y-65432575D01*
X163756148Y-65544167D01*
X163722495Y-65664639D01*
X163712991Y-65789361D01*
X134743000Y-65789361D01*
X134743000Y-57982995D01*
X134768055Y-57984904D01*
X134868191Y-57981988D01*
X135026941Y-57823238D01*
X135026941Y-57219988D01*
X135006941Y-57219988D01*
X135006941Y-57081988D01*
X135115869Y-57081988D01*
X135115869Y-57526988D01*
M02*
