M48
; DRILL file {KiCad 5.1.5-1.fc31} date Thu 30 Apr 2020 06:23:41 PM PDT
; FORMAT={-:-/ absolute / inch / decimal}
; #@! TF.CreationDate,2020-04-30T18:23:41-07:00
; #@! TF.GenerationSoftware,Kicad,Pcbnew,5.1.5-1.fc31
; #@! TF.FileFunction,Plated,1,2,PTH
FMAT,2
INCH
T1C0.0157
T2C0.0394
T3C0.0500
T4C0.1260
%
G90
G05
T1
X4.89Y-3.88
X4.89Y-4.02
X4.93Y-3.88
X4.93Y-4.02
X5.06Y-2.56
X5.06Y-2.98
X5.06Y-3.34
X5.15Y-4.2
X5.15Y-4.58
X5.15Y-4.96
X5.22Y-3.72
X5.27Y-3.72
X5.32Y-2.32
X5.35Y-5.16
X5.39Y-2.4
X5.51Y-3.84
X5.67Y-5.16
X5.68Y-2.32
X5.75Y-2.4
X5.89Y-3.84
X6.04Y-2.32
X6.08Y-5.16
X6.11Y-2.4
X6.28Y-2.67
X6.28Y-3.03
X6.28Y-3.41
X6.28Y-3.85
X6.29Y-4.23
X6.29Y-4.59
X6.29Y-4.95
X6.39Y-2.58
X6.39Y-2.96
X6.39Y-3.33
X6.51Y-3.72
X6.51Y-4.02
X6.56Y-3.72
X6.56Y-4.02
T2
X4.6647Y-3.6508
X4.6647Y-3.7508
X4.6647Y-3.8508
X4.6647Y-3.9508
X6.7753Y-3.6499
X6.7753Y-3.7499
X6.7753Y-3.8499
X6.7753Y-3.9499
T3
X6.43Y-3.53
X6.64Y-3.53
T4
X6.6893Y-5.5562
X4.7543Y-2.0445
X4.752Y-5.5584
X6.6843Y-2.039
T0
M30
