G04 #@! TF.GenerationSoftware,KiCad,Pcbnew,5.1.5-1.fc31*
G04 #@! TF.CreationDate,2020-04-30T18:23:35-07:00*
G04 #@! TF.ProjectId,apa102_7seg_digit,61706131-3032-45f3-9773-65675f646967,rev?*
G04 #@! TF.SameCoordinates,Original*
G04 #@! TF.FileFunction,Copper,L2,Bot*
G04 #@! TF.FilePolarity,Positive*
%FSLAX46Y46*%
G04 Gerber Fmt 4.6, Leading zero omitted, Abs format (unit mm)*
G04 Created by KiCad (PCBNEW 5.1.5-1.fc31) date 2020-04-30 18:23:35*
%MOMM*%
%LPD*%
G04 APERTURE LIST*
%ADD10C,5.500000*%
%ADD11O,1.700000X1.700000*%
%ADD12R,1.700000X1.700000*%
%ADD13C,2.500000*%
%ADD14C,0.685800*%
%ADD15C,2.000000*%
%ADD16C,1.000000*%
%ADD17C,0.500000*%
%ADD18C,0.254000*%
G04 APERTURE END LIST*
D10*
X169908037Y-141127852D03*
X120699951Y-141182669D03*
X120759647Y-51930503D03*
X169780779Y-51791620D03*
D11*
X118482760Y-92731490D03*
X118482760Y-95271490D03*
X118482760Y-97811490D03*
D12*
X118482760Y-100351490D03*
X172092220Y-92708431D03*
D11*
X172092220Y-95248431D03*
X172092220Y-97788431D03*
X172092220Y-100328431D03*
D13*
X168656000Y-89662000D03*
D14*
X135128000Y-58928000D03*
X144272000Y-58928000D03*
X153416000Y-58928000D03*
X162306000Y-65532000D03*
X162306000Y-75184000D03*
X162306000Y-84582000D03*
D13*
X163322000Y-89662000D03*
D14*
X139954000Y-97536000D03*
X149606000Y-97536000D03*
X159512000Y-97790000D03*
X130810000Y-106680000D03*
X130810000Y-116332000D03*
X130810000Y-125984000D03*
X135890000Y-131064000D03*
X144018000Y-131064000D03*
X154432000Y-131064000D03*
X159766000Y-125730000D03*
X159766000Y-116586000D03*
X159766000Y-107442000D03*
X159512000Y-86614000D03*
X159512000Y-76962000D03*
X159512000Y-67818000D03*
X155194000Y-60960000D03*
X146050000Y-60960000D03*
X136906000Y-60960000D03*
X128524000Y-84836000D03*
X128524000Y-75692000D03*
X128524000Y-65024000D03*
X124206000Y-98552000D03*
X124206000Y-102108000D03*
X125222000Y-102108000D03*
X125222000Y-98552000D03*
X133858000Y-94488000D03*
X132588000Y-94488000D03*
X165354000Y-102108000D03*
X165354000Y-94488000D03*
X166624000Y-102108000D03*
X166624000Y-94488000D03*
D15*
X168656000Y-89662000D02*
X163322000Y-89662000D01*
X163322000Y-89662000D02*
X162306000Y-88646000D01*
X162306000Y-64262000D02*
X157480000Y-59436000D01*
X157480000Y-59436000D02*
X157734000Y-59690000D01*
D16*
X157480000Y-59436000D02*
X156972000Y-58928000D01*
X138938000Y-58928000D02*
X135128000Y-58928000D01*
X144272000Y-58928000D02*
X138938000Y-58928000D01*
X156972000Y-58928000D02*
X153416000Y-58928000D01*
X153416000Y-58928000D02*
X144272000Y-58928000D01*
D15*
X162306000Y-65532000D02*
X162306000Y-64262000D01*
X162306000Y-75184000D02*
X162306000Y-65532000D01*
X162306000Y-88646000D02*
X162306000Y-84582000D01*
X162306000Y-84582000D02*
X162306000Y-75184000D01*
X172069161Y-92731490D02*
X172092220Y-92708431D01*
D17*
X139932510Y-97514510D02*
X139954000Y-97536000D01*
X139932510Y-92731490D02*
X139932510Y-97514510D01*
X149627490Y-97514510D02*
X149606000Y-97536000D01*
X149627490Y-92731490D02*
X149627490Y-97514510D01*
D15*
X139932510Y-92731490D02*
X149627490Y-92731490D01*
D17*
X159533490Y-97768510D02*
X159512000Y-97790000D01*
X159533490Y-92731490D02*
X159533490Y-97768510D01*
D15*
X149627490Y-92731490D02*
X159533490Y-92731490D01*
X130788510Y-92731490D02*
X139932510Y-92731490D01*
X155194000Y-60960000D02*
X159533490Y-65299490D01*
X161565490Y-92731490D02*
X161565490Y-100562510D01*
X161565490Y-92731490D02*
X172069161Y-92731490D01*
X159533490Y-92731490D02*
X161565490Y-92731490D01*
X161565490Y-100562510D02*
X159766000Y-102362000D01*
X159766000Y-125730000D02*
X154432000Y-131064000D01*
X135890000Y-131064000D02*
X130810000Y-125984000D01*
X130810000Y-125984000D02*
X130810000Y-116332000D01*
X130810000Y-116332000D02*
X130810000Y-106680000D01*
X154432000Y-131064000D02*
X144018000Y-131064000D01*
X144018000Y-131064000D02*
X135890000Y-131064000D01*
X159766000Y-116586000D02*
X159766000Y-125730000D01*
X159766000Y-102362000D02*
X159766000Y-107442000D01*
X159766000Y-107442000D02*
X159766000Y-116586000D01*
X159512000Y-86614000D02*
X159533490Y-92731490D01*
X159512000Y-76962000D02*
X159512000Y-86614000D01*
X159533490Y-65299490D02*
X159512000Y-67818000D01*
X159512000Y-67818000D02*
X159512000Y-76962000D01*
X146050000Y-60960000D02*
X155194000Y-60960000D01*
X136906000Y-60960000D02*
X146050000Y-60960000D01*
X136906000Y-60960000D02*
X132588000Y-60960000D01*
X132588000Y-60960000D02*
X128524000Y-65024000D01*
X118482760Y-92731490D02*
X128524000Y-92710000D01*
X128524000Y-92710000D02*
X130788510Y-92731490D01*
X128524000Y-84836000D02*
X128524000Y-92710000D01*
X128524000Y-65024000D02*
X128524000Y-75692000D01*
X128524000Y-75692000D02*
X128524000Y-84836000D01*
D17*
X124206000Y-98552000D02*
X124206000Y-102108000D01*
X125222000Y-102108000D02*
X125222000Y-98552000D01*
X133858000Y-94488000D02*
X133858000Y-95504000D01*
X123773016Y-97811490D02*
X118482760Y-97811490D01*
X123825407Y-97759099D02*
X123773016Y-97811490D01*
X133858000Y-95504000D02*
X131602901Y-97759099D01*
X131602901Y-97759099D02*
X123825407Y-97759099D01*
X118482760Y-95271490D02*
X131804510Y-95271490D01*
X131804510Y-95271490D02*
X132588000Y-94488000D01*
X165354000Y-102108000D02*
X165354000Y-94488000D01*
X166624000Y-102108000D02*
X166624000Y-94488000D01*
D18*
G36*
X170892974Y-47624738D02*
G01*
X173365728Y-49850216D01*
X173863164Y-52337399D01*
X174257220Y-82482630D01*
X174257219Y-110951593D01*
X173863207Y-140699539D01*
X173113324Y-143699070D01*
X171552523Y-145259871D01*
X171367724Y-145346044D01*
X171110376Y-145415000D01*
X120924610Y-145415000D01*
X117939490Y-144419960D01*
X116709737Y-142452356D01*
X116564003Y-140849276D01*
X117314951Y-140849276D01*
X117314951Y-141516062D01*
X117445034Y-142170037D01*
X117700203Y-142786068D01*
X118070649Y-143340481D01*
X118542139Y-143811971D01*
X119096552Y-144182417D01*
X119712583Y-144437586D01*
X120366558Y-144567669D01*
X121033344Y-144567669D01*
X121687319Y-144437586D01*
X122303350Y-144182417D01*
X122857763Y-143811971D01*
X123329253Y-143340481D01*
X123699699Y-142786068D01*
X123954868Y-142170037D01*
X124084951Y-141516062D01*
X124084951Y-140849276D01*
X124074048Y-140794459D01*
X166523037Y-140794459D01*
X166523037Y-141461245D01*
X166653120Y-142115220D01*
X166908289Y-142731251D01*
X167278735Y-143285664D01*
X167750225Y-143757154D01*
X168304638Y-144127600D01*
X168920669Y-144382769D01*
X169574644Y-144512852D01*
X170241430Y-144512852D01*
X170895405Y-144382769D01*
X171511436Y-144127600D01*
X172065849Y-143757154D01*
X172537339Y-143285664D01*
X172907785Y-142731251D01*
X173162954Y-142115220D01*
X173293037Y-141461245D01*
X173293037Y-140794459D01*
X173162954Y-140140484D01*
X172907785Y-139524453D01*
X172537339Y-138970040D01*
X172065849Y-138498550D01*
X171511436Y-138128104D01*
X170895405Y-137872935D01*
X170241430Y-137742852D01*
X169574644Y-137742852D01*
X168920669Y-137872935D01*
X168304638Y-138128104D01*
X167750225Y-138498550D01*
X167278735Y-138970040D01*
X166908289Y-139524453D01*
X166653120Y-140140484D01*
X166523037Y-140794459D01*
X124074048Y-140794459D01*
X123954868Y-140195301D01*
X123699699Y-139579270D01*
X123329253Y-139024857D01*
X122857763Y-138553367D01*
X122303350Y-138182921D01*
X121687319Y-137927752D01*
X121033344Y-137797669D01*
X120366558Y-137797669D01*
X119712583Y-137927752D01*
X119096552Y-138182921D01*
X118542139Y-138553367D01*
X118070649Y-139024857D01*
X117700203Y-139579270D01*
X117445034Y-140195301D01*
X117314951Y-140849276D01*
X116564003Y-140849276D01*
X116458961Y-139693815D01*
X116407220Y-132036147D01*
X116407220Y-101201490D01*
X116994688Y-101201490D01*
X117006948Y-101325972D01*
X117043258Y-101445670D01*
X117102223Y-101555984D01*
X117181575Y-101652675D01*
X117278266Y-101732027D01*
X117388580Y-101790992D01*
X117508278Y-101827302D01*
X117632760Y-101839562D01*
X118197010Y-101836490D01*
X118355760Y-101677740D01*
X118355760Y-100478490D01*
X118609760Y-100478490D01*
X118609760Y-101677740D01*
X118768510Y-101836490D01*
X119332760Y-101839562D01*
X119457242Y-101827302D01*
X119576940Y-101790992D01*
X119687254Y-101732027D01*
X119783945Y-101652675D01*
X119863297Y-101555984D01*
X119922262Y-101445670D01*
X119958572Y-101325972D01*
X119970832Y-101201490D01*
X119967760Y-100637240D01*
X119809010Y-100478490D01*
X118609760Y-100478490D01*
X118355760Y-100478490D01*
X117156510Y-100478490D01*
X116997760Y-100637240D01*
X116994688Y-101201490D01*
X116407220Y-101201490D01*
X116407220Y-92735006D01*
X116839853Y-92735006D01*
X116872107Y-93055453D01*
X116966258Y-93363452D01*
X117118686Y-93647163D01*
X117323535Y-93895687D01*
X117568861Y-94096143D01*
X117536128Y-94118015D01*
X117329285Y-94324858D01*
X117166770Y-94568079D01*
X117054828Y-94838332D01*
X116997760Y-95125230D01*
X116997760Y-95417750D01*
X117054828Y-95704648D01*
X117166770Y-95974901D01*
X117329285Y-96218122D01*
X117536128Y-96424965D01*
X117710520Y-96541490D01*
X117536128Y-96658015D01*
X117329285Y-96864858D01*
X117166770Y-97108079D01*
X117054828Y-97378332D01*
X116997760Y-97665230D01*
X116997760Y-97957750D01*
X117054828Y-98244648D01*
X117166770Y-98514901D01*
X117329285Y-98758122D01*
X117461140Y-98889977D01*
X117388580Y-98911988D01*
X117278266Y-98970953D01*
X117181575Y-99050305D01*
X117102223Y-99146996D01*
X117043258Y-99257310D01*
X117006948Y-99377008D01*
X116994688Y-99501490D01*
X116997760Y-100065740D01*
X117156510Y-100224490D01*
X118355760Y-100224490D01*
X118355760Y-100204490D01*
X118609760Y-100204490D01*
X118609760Y-100224490D01*
X119809010Y-100224490D01*
X119967760Y-100065740D01*
X119970832Y-99501490D01*
X119958572Y-99377008D01*
X119922262Y-99257310D01*
X119863297Y-99146996D01*
X119783945Y-99050305D01*
X119687254Y-98970953D01*
X119576940Y-98911988D01*
X119504380Y-98889977D01*
X119636235Y-98758122D01*
X119677416Y-98696490D01*
X123237683Y-98696490D01*
X123265680Y-98837243D01*
X123321000Y-98970798D01*
X123321001Y-101689200D01*
X123265680Y-101822757D01*
X123228100Y-102011685D01*
X123228100Y-102204315D01*
X123265680Y-102393243D01*
X123339396Y-102571210D01*
X123446415Y-102731375D01*
X123582625Y-102867585D01*
X123742790Y-102974604D01*
X123920757Y-103048320D01*
X124109685Y-103085900D01*
X124302315Y-103085900D01*
X124491243Y-103048320D01*
X124669210Y-102974604D01*
X124714000Y-102944676D01*
X124758790Y-102974604D01*
X124936757Y-103048320D01*
X125125685Y-103085900D01*
X125318315Y-103085900D01*
X125507243Y-103048320D01*
X125685210Y-102974604D01*
X125845375Y-102867585D01*
X125981585Y-102731375D01*
X126088604Y-102571210D01*
X126162320Y-102393243D01*
X126199900Y-102204315D01*
X126199900Y-102011685D01*
X126162320Y-101822757D01*
X126107000Y-101689202D01*
X126107000Y-98970798D01*
X126162320Y-98837243D01*
X126199900Y-98648315D01*
X126199900Y-98644099D01*
X131559432Y-98644099D01*
X131602901Y-98648380D01*
X131646370Y-98644099D01*
X131646378Y-98644099D01*
X131776391Y-98631294D01*
X131943214Y-98580688D01*
X132096960Y-98498510D01*
X132231718Y-98387916D01*
X132259435Y-98354143D01*
X134453049Y-96160530D01*
X134486817Y-96132817D01*
X134519430Y-96093079D01*
X134597411Y-95998059D01*
X134679589Y-95844314D01*
X134730195Y-95677490D01*
X134743000Y-95547477D01*
X134743000Y-95547469D01*
X134747281Y-95504000D01*
X134743000Y-95460531D01*
X134743000Y-94906798D01*
X134798320Y-94773243D01*
X134835900Y-94584315D01*
X134835900Y-94391685D01*
X134830888Y-94366490D01*
X139047510Y-94366490D01*
X139047511Y-97169082D01*
X139013680Y-97250757D01*
X138976100Y-97439685D01*
X138976100Y-97632315D01*
X139013680Y-97821243D01*
X139087396Y-97999210D01*
X139194415Y-98159375D01*
X139330625Y-98295585D01*
X139490790Y-98402604D01*
X139668757Y-98476320D01*
X139857685Y-98513900D01*
X140050315Y-98513900D01*
X140239243Y-98476320D01*
X140417210Y-98402604D01*
X140577375Y-98295585D01*
X140713585Y-98159375D01*
X140820604Y-97999210D01*
X140894320Y-97821243D01*
X140931900Y-97632315D01*
X140931900Y-97439685D01*
X140894320Y-97250757D01*
X140820604Y-97072790D01*
X140817510Y-97068160D01*
X140817510Y-94366490D01*
X148742490Y-94366490D01*
X148742491Y-97068158D01*
X148739396Y-97072790D01*
X148665680Y-97250757D01*
X148628100Y-97439685D01*
X148628100Y-97632315D01*
X148665680Y-97821243D01*
X148739396Y-97999210D01*
X148846415Y-98159375D01*
X148982625Y-98295585D01*
X149142790Y-98402604D01*
X149320757Y-98476320D01*
X149509685Y-98513900D01*
X149702315Y-98513900D01*
X149891243Y-98476320D01*
X150069210Y-98402604D01*
X150229375Y-98295585D01*
X150365585Y-98159375D01*
X150472604Y-97999210D01*
X150546320Y-97821243D01*
X150583900Y-97632315D01*
X150583900Y-97439685D01*
X150546320Y-97250757D01*
X150512490Y-97169084D01*
X150512490Y-94366490D01*
X158648490Y-94366490D01*
X158648491Y-97322158D01*
X158645396Y-97326790D01*
X158571680Y-97504757D01*
X158534100Y-97693685D01*
X158534100Y-97886315D01*
X158571680Y-98075243D01*
X158645396Y-98253210D01*
X158752415Y-98413375D01*
X158888625Y-98549585D01*
X159048790Y-98656604D01*
X159226757Y-98730320D01*
X159415685Y-98767900D01*
X159608315Y-98767900D01*
X159797243Y-98730320D01*
X159930491Y-98675127D01*
X159930491Y-99885270D01*
X158666686Y-101149075D01*
X158604286Y-101200286D01*
X158399969Y-101449249D01*
X158248148Y-101733286D01*
X158154657Y-102041485D01*
X158143824Y-102151476D01*
X158123089Y-102362000D01*
X158131000Y-102442320D01*
X158131001Y-107361669D01*
X158131000Y-107361679D01*
X158131001Y-116505669D01*
X158131000Y-116505679D01*
X158131001Y-125052760D01*
X153754762Y-129429000D01*
X136567239Y-129429000D01*
X132445000Y-125306762D01*
X132445000Y-106599678D01*
X132421343Y-106359484D01*
X132327852Y-106051285D01*
X132176031Y-105767248D01*
X131971714Y-105518286D01*
X131722752Y-105313969D01*
X131438715Y-105162148D01*
X131130516Y-105068657D01*
X130810000Y-105037089D01*
X130489485Y-105068657D01*
X130181286Y-105162148D01*
X129897249Y-105313969D01*
X129648287Y-105518286D01*
X129443970Y-105767248D01*
X129292149Y-106051285D01*
X129198658Y-106359484D01*
X129175001Y-106599678D01*
X129175000Y-116412321D01*
X129175001Y-116412331D01*
X129175000Y-125903680D01*
X129167089Y-125984000D01*
X129175000Y-126064319D01*
X129175000Y-126064321D01*
X129198657Y-126304515D01*
X129292148Y-126612714D01*
X129443969Y-126896751D01*
X129648286Y-127145714D01*
X129710687Y-127196925D01*
X134677080Y-132163319D01*
X134728286Y-132225714D01*
X134977248Y-132430031D01*
X135261285Y-132581852D01*
X135569484Y-132675343D01*
X135809678Y-132699000D01*
X135809680Y-132699000D01*
X135890000Y-132706911D01*
X135970319Y-132699000D01*
X154351681Y-132699000D01*
X154432000Y-132706911D01*
X154512319Y-132699000D01*
X154512322Y-132699000D01*
X154752516Y-132675343D01*
X155060715Y-132581852D01*
X155344752Y-132430031D01*
X155593714Y-132225714D01*
X155644925Y-132163313D01*
X160865319Y-126942920D01*
X160927714Y-126891714D01*
X161132031Y-126642752D01*
X161283852Y-126358715D01*
X161377343Y-126050516D01*
X161401000Y-125810322D01*
X161401000Y-125810320D01*
X161408911Y-125730001D01*
X161401000Y-125649681D01*
X161401000Y-103039238D01*
X162664808Y-101775431D01*
X162727204Y-101724224D01*
X162931521Y-101475262D01*
X163083342Y-101191225D01*
X163176833Y-100883026D01*
X163200490Y-100642832D01*
X163200490Y-100642830D01*
X163208401Y-100562511D01*
X163200490Y-100482191D01*
X163200490Y-94366490D01*
X164381112Y-94366490D01*
X164376100Y-94391685D01*
X164376100Y-94584315D01*
X164413680Y-94773243D01*
X164469001Y-94906800D01*
X164469000Y-101689202D01*
X164413680Y-101822757D01*
X164376100Y-102011685D01*
X164376100Y-102204315D01*
X164413680Y-102393243D01*
X164487396Y-102571210D01*
X164594415Y-102731375D01*
X164730625Y-102867585D01*
X164890790Y-102974604D01*
X165068757Y-103048320D01*
X165257685Y-103085900D01*
X165450315Y-103085900D01*
X165639243Y-103048320D01*
X165817210Y-102974604D01*
X165977375Y-102867585D01*
X165989000Y-102855960D01*
X166000625Y-102867585D01*
X166160790Y-102974604D01*
X166338757Y-103048320D01*
X166527685Y-103085900D01*
X166720315Y-103085900D01*
X166909243Y-103048320D01*
X167087210Y-102974604D01*
X167247375Y-102867585D01*
X167383585Y-102731375D01*
X167490604Y-102571210D01*
X167564320Y-102393243D01*
X167601900Y-102204315D01*
X167601900Y-102011685D01*
X167564320Y-101822757D01*
X167509000Y-101689202D01*
X167509000Y-100685321D01*
X170650744Y-100685321D01*
X170695395Y-100832530D01*
X170820579Y-101095351D01*
X170994632Y-101328700D01*
X171210865Y-101523609D01*
X171460968Y-101672588D01*
X171735329Y-101769912D01*
X171965220Y-101649245D01*
X171965220Y-100455431D01*
X172219220Y-100455431D01*
X172219220Y-101649245D01*
X172449111Y-101769912D01*
X172723472Y-101672588D01*
X172973575Y-101523609D01*
X173189808Y-101328700D01*
X173363861Y-101095351D01*
X173489045Y-100832530D01*
X173533696Y-100685321D01*
X173412375Y-100455431D01*
X172219220Y-100455431D01*
X171965220Y-100455431D01*
X170772065Y-100455431D01*
X170650744Y-100685321D01*
X167509000Y-100685321D01*
X167509000Y-94906798D01*
X167564320Y-94773243D01*
X167601900Y-94584315D01*
X167601900Y-94391685D01*
X167596888Y-94366490D01*
X170895520Y-94366490D01*
X170776230Y-94545020D01*
X170664288Y-94815273D01*
X170607220Y-95102171D01*
X170607220Y-95394691D01*
X170664288Y-95681589D01*
X170776230Y-95951842D01*
X170938745Y-96195063D01*
X171145588Y-96401906D01*
X171319980Y-96518431D01*
X171145588Y-96634956D01*
X170938745Y-96841799D01*
X170776230Y-97085020D01*
X170664288Y-97355273D01*
X170607220Y-97642171D01*
X170607220Y-97934691D01*
X170664288Y-98221589D01*
X170776230Y-98491842D01*
X170938745Y-98735063D01*
X171145588Y-98941906D01*
X171327754Y-99063626D01*
X171210865Y-99133253D01*
X170994632Y-99328162D01*
X170820579Y-99561511D01*
X170695395Y-99824332D01*
X170650744Y-99971541D01*
X170772065Y-100201431D01*
X171965220Y-100201431D01*
X171965220Y-100181431D01*
X172219220Y-100181431D01*
X172219220Y-100201431D01*
X173412375Y-100201431D01*
X173533696Y-99971541D01*
X173489045Y-99824332D01*
X173363861Y-99561511D01*
X173189808Y-99328162D01*
X172973575Y-99133253D01*
X172856686Y-99063626D01*
X173038852Y-98941906D01*
X173245695Y-98735063D01*
X173408210Y-98491842D01*
X173520152Y-98221589D01*
X173577220Y-97934691D01*
X173577220Y-97642171D01*
X173520152Y-97355273D01*
X173408210Y-97085020D01*
X173245695Y-96841799D01*
X173038852Y-96634956D01*
X172864460Y-96518431D01*
X173038852Y-96401906D01*
X173245695Y-96195063D01*
X173408210Y-95951842D01*
X173520152Y-95681589D01*
X173577220Y-95394691D01*
X173577220Y-95102171D01*
X173520152Y-94815273D01*
X173408210Y-94545020D01*
X173245695Y-94301799D01*
X173113840Y-94169944D01*
X173186400Y-94147933D01*
X173296714Y-94088968D01*
X173393405Y-94009616D01*
X173472757Y-93912925D01*
X173531722Y-93802611D01*
X173568032Y-93682913D01*
X173580292Y-93558431D01*
X173580292Y-93392859D01*
X173610071Y-93337146D01*
X173703562Y-93028947D01*
X173735131Y-92708432D01*
X173703562Y-92387915D01*
X173610071Y-92079717D01*
X173580292Y-92024004D01*
X173580292Y-91858431D01*
X173568032Y-91733949D01*
X173531722Y-91614251D01*
X173472757Y-91503937D01*
X173393405Y-91407246D01*
X173296714Y-91327894D01*
X173186400Y-91268929D01*
X173066702Y-91232619D01*
X172942220Y-91220359D01*
X172776647Y-91220359D01*
X172720934Y-91190580D01*
X172412736Y-91097089D01*
X172092219Y-91065520D01*
X171777786Y-91096490D01*
X161645812Y-91096490D01*
X161565490Y-91088579D01*
X161485168Y-91096490D01*
X161162756Y-91096490D01*
X161147000Y-86611340D01*
X161147000Y-67824956D01*
X161167804Y-65386778D01*
X161176401Y-65299490D01*
X161161293Y-65146097D01*
X161147509Y-64992735D01*
X161145523Y-64985982D01*
X161144833Y-64978973D01*
X161100098Y-64831502D01*
X161056651Y-64683749D01*
X161053386Y-64677513D01*
X161051342Y-64670775D01*
X160978714Y-64534897D01*
X160907259Y-64398427D01*
X160902839Y-64392947D01*
X160899520Y-64386737D01*
X160801769Y-64267626D01*
X160705074Y-64147731D01*
X160637760Y-64091520D01*
X156406925Y-59860687D01*
X156355714Y-59798286D01*
X156106752Y-59593969D01*
X155822715Y-59442148D01*
X155514516Y-59348657D01*
X155274322Y-59325000D01*
X155274319Y-59325000D01*
X155194000Y-59317089D01*
X155113681Y-59325000D01*
X132668319Y-59325000D01*
X132588000Y-59317089D01*
X132507680Y-59325000D01*
X132507678Y-59325000D01*
X132267484Y-59348657D01*
X131959285Y-59442148D01*
X131675248Y-59593969D01*
X131426286Y-59798286D01*
X131375080Y-59860681D01*
X127424687Y-63811075D01*
X127362286Y-63862286D01*
X127157969Y-64111249D01*
X127006148Y-64395286D01*
X126912657Y-64703485D01*
X126890575Y-64927685D01*
X126881089Y-65024000D01*
X126889000Y-65104320D01*
X126889001Y-75611669D01*
X126889000Y-75611679D01*
X126889001Y-84755669D01*
X126889000Y-84755679D01*
X126889001Y-91078496D01*
X118398940Y-91096666D01*
X118158797Y-91120837D01*
X117850798Y-91214988D01*
X117567087Y-91367416D01*
X117318563Y-91572265D01*
X117114779Y-91821664D01*
X116963566Y-92106025D01*
X116870735Y-92414424D01*
X116839853Y-92735006D01*
X116407220Y-92735006D01*
X116407220Y-60801587D01*
X116458957Y-53092764D01*
X116608522Y-51597110D01*
X117374647Y-51597110D01*
X117374647Y-52263896D01*
X117504730Y-52917871D01*
X117759899Y-53533902D01*
X118130345Y-54088315D01*
X118601835Y-54559805D01*
X119156248Y-54930251D01*
X119772279Y-55185420D01*
X120426254Y-55315503D01*
X121093040Y-55315503D01*
X121747015Y-55185420D01*
X122363046Y-54930251D01*
X122917459Y-54559805D01*
X123388949Y-54088315D01*
X123759395Y-53533902D01*
X124014564Y-52917871D01*
X124144647Y-52263896D01*
X124144647Y-51597110D01*
X124117022Y-51458227D01*
X166395779Y-51458227D01*
X166395779Y-52125013D01*
X166525862Y-52778988D01*
X166781031Y-53395019D01*
X167151477Y-53949432D01*
X167622967Y-54420922D01*
X168177380Y-54791368D01*
X168793411Y-55046537D01*
X169447386Y-55176620D01*
X170114172Y-55176620D01*
X170768147Y-55046537D01*
X171384178Y-54791368D01*
X171938591Y-54420922D01*
X172410081Y-53949432D01*
X172780527Y-53395019D01*
X173035696Y-52778988D01*
X173165779Y-52125013D01*
X173165779Y-51458227D01*
X173035696Y-50804252D01*
X172780527Y-50188221D01*
X172410081Y-49633808D01*
X171938591Y-49162318D01*
X171384178Y-48791872D01*
X170768147Y-48536703D01*
X170114172Y-48406620D01*
X169447386Y-48406620D01*
X168793411Y-48536703D01*
X168177380Y-48791872D01*
X167622967Y-49162318D01*
X167151477Y-49633808D01*
X166781031Y-50188221D01*
X166525862Y-50804252D01*
X166395779Y-51458227D01*
X124117022Y-51458227D01*
X124014564Y-50943135D01*
X123759395Y-50327104D01*
X123388949Y-49772691D01*
X122917459Y-49301201D01*
X122363046Y-48930755D01*
X121747015Y-48675586D01*
X121093040Y-48545503D01*
X120426254Y-48545503D01*
X119772279Y-48675586D01*
X119156248Y-48930755D01*
X118601835Y-49301201D01*
X118130345Y-49772691D01*
X117759899Y-50327104D01*
X117504730Y-50943135D01*
X117374647Y-51597110D01*
X116608522Y-51597110D01*
X116709539Y-50586946D01*
X117441477Y-49367049D01*
X120183086Y-47622389D01*
X122688493Y-47443431D01*
X137169760Y-47443430D01*
X170892974Y-47624738D01*
G37*
X170892974Y-47624738D02*
X173365728Y-49850216D01*
X173863164Y-52337399D01*
X174257220Y-82482630D01*
X174257219Y-110951593D01*
X173863207Y-140699539D01*
X173113324Y-143699070D01*
X171552523Y-145259871D01*
X171367724Y-145346044D01*
X171110376Y-145415000D01*
X120924610Y-145415000D01*
X117939490Y-144419960D01*
X116709737Y-142452356D01*
X116564003Y-140849276D01*
X117314951Y-140849276D01*
X117314951Y-141516062D01*
X117445034Y-142170037D01*
X117700203Y-142786068D01*
X118070649Y-143340481D01*
X118542139Y-143811971D01*
X119096552Y-144182417D01*
X119712583Y-144437586D01*
X120366558Y-144567669D01*
X121033344Y-144567669D01*
X121687319Y-144437586D01*
X122303350Y-144182417D01*
X122857763Y-143811971D01*
X123329253Y-143340481D01*
X123699699Y-142786068D01*
X123954868Y-142170037D01*
X124084951Y-141516062D01*
X124084951Y-140849276D01*
X124074048Y-140794459D01*
X166523037Y-140794459D01*
X166523037Y-141461245D01*
X166653120Y-142115220D01*
X166908289Y-142731251D01*
X167278735Y-143285664D01*
X167750225Y-143757154D01*
X168304638Y-144127600D01*
X168920669Y-144382769D01*
X169574644Y-144512852D01*
X170241430Y-144512852D01*
X170895405Y-144382769D01*
X171511436Y-144127600D01*
X172065849Y-143757154D01*
X172537339Y-143285664D01*
X172907785Y-142731251D01*
X173162954Y-142115220D01*
X173293037Y-141461245D01*
X173293037Y-140794459D01*
X173162954Y-140140484D01*
X172907785Y-139524453D01*
X172537339Y-138970040D01*
X172065849Y-138498550D01*
X171511436Y-138128104D01*
X170895405Y-137872935D01*
X170241430Y-137742852D01*
X169574644Y-137742852D01*
X168920669Y-137872935D01*
X168304638Y-138128104D01*
X167750225Y-138498550D01*
X167278735Y-138970040D01*
X166908289Y-139524453D01*
X166653120Y-140140484D01*
X166523037Y-140794459D01*
X124074048Y-140794459D01*
X123954868Y-140195301D01*
X123699699Y-139579270D01*
X123329253Y-139024857D01*
X122857763Y-138553367D01*
X122303350Y-138182921D01*
X121687319Y-137927752D01*
X121033344Y-137797669D01*
X120366558Y-137797669D01*
X119712583Y-137927752D01*
X119096552Y-138182921D01*
X118542139Y-138553367D01*
X118070649Y-139024857D01*
X117700203Y-139579270D01*
X117445034Y-140195301D01*
X117314951Y-140849276D01*
X116564003Y-140849276D01*
X116458961Y-139693815D01*
X116407220Y-132036147D01*
X116407220Y-101201490D01*
X116994688Y-101201490D01*
X117006948Y-101325972D01*
X117043258Y-101445670D01*
X117102223Y-101555984D01*
X117181575Y-101652675D01*
X117278266Y-101732027D01*
X117388580Y-101790992D01*
X117508278Y-101827302D01*
X117632760Y-101839562D01*
X118197010Y-101836490D01*
X118355760Y-101677740D01*
X118355760Y-100478490D01*
X118609760Y-100478490D01*
X118609760Y-101677740D01*
X118768510Y-101836490D01*
X119332760Y-101839562D01*
X119457242Y-101827302D01*
X119576940Y-101790992D01*
X119687254Y-101732027D01*
X119783945Y-101652675D01*
X119863297Y-101555984D01*
X119922262Y-101445670D01*
X119958572Y-101325972D01*
X119970832Y-101201490D01*
X119967760Y-100637240D01*
X119809010Y-100478490D01*
X118609760Y-100478490D01*
X118355760Y-100478490D01*
X117156510Y-100478490D01*
X116997760Y-100637240D01*
X116994688Y-101201490D01*
X116407220Y-101201490D01*
X116407220Y-92735006D01*
X116839853Y-92735006D01*
X116872107Y-93055453D01*
X116966258Y-93363452D01*
X117118686Y-93647163D01*
X117323535Y-93895687D01*
X117568861Y-94096143D01*
X117536128Y-94118015D01*
X117329285Y-94324858D01*
X117166770Y-94568079D01*
X117054828Y-94838332D01*
X116997760Y-95125230D01*
X116997760Y-95417750D01*
X117054828Y-95704648D01*
X117166770Y-95974901D01*
X117329285Y-96218122D01*
X117536128Y-96424965D01*
X117710520Y-96541490D01*
X117536128Y-96658015D01*
X117329285Y-96864858D01*
X117166770Y-97108079D01*
X117054828Y-97378332D01*
X116997760Y-97665230D01*
X116997760Y-97957750D01*
X117054828Y-98244648D01*
X117166770Y-98514901D01*
X117329285Y-98758122D01*
X117461140Y-98889977D01*
X117388580Y-98911988D01*
X117278266Y-98970953D01*
X117181575Y-99050305D01*
X117102223Y-99146996D01*
X117043258Y-99257310D01*
X117006948Y-99377008D01*
X116994688Y-99501490D01*
X116997760Y-100065740D01*
X117156510Y-100224490D01*
X118355760Y-100224490D01*
X118355760Y-100204490D01*
X118609760Y-100204490D01*
X118609760Y-100224490D01*
X119809010Y-100224490D01*
X119967760Y-100065740D01*
X119970832Y-99501490D01*
X119958572Y-99377008D01*
X119922262Y-99257310D01*
X119863297Y-99146996D01*
X119783945Y-99050305D01*
X119687254Y-98970953D01*
X119576940Y-98911988D01*
X119504380Y-98889977D01*
X119636235Y-98758122D01*
X119677416Y-98696490D01*
X123237683Y-98696490D01*
X123265680Y-98837243D01*
X123321000Y-98970798D01*
X123321001Y-101689200D01*
X123265680Y-101822757D01*
X123228100Y-102011685D01*
X123228100Y-102204315D01*
X123265680Y-102393243D01*
X123339396Y-102571210D01*
X123446415Y-102731375D01*
X123582625Y-102867585D01*
X123742790Y-102974604D01*
X123920757Y-103048320D01*
X124109685Y-103085900D01*
X124302315Y-103085900D01*
X124491243Y-103048320D01*
X124669210Y-102974604D01*
X124714000Y-102944676D01*
X124758790Y-102974604D01*
X124936757Y-103048320D01*
X125125685Y-103085900D01*
X125318315Y-103085900D01*
X125507243Y-103048320D01*
X125685210Y-102974604D01*
X125845375Y-102867585D01*
X125981585Y-102731375D01*
X126088604Y-102571210D01*
X126162320Y-102393243D01*
X126199900Y-102204315D01*
X126199900Y-102011685D01*
X126162320Y-101822757D01*
X126107000Y-101689202D01*
X126107000Y-98970798D01*
X126162320Y-98837243D01*
X126199900Y-98648315D01*
X126199900Y-98644099D01*
X131559432Y-98644099D01*
X131602901Y-98648380D01*
X131646370Y-98644099D01*
X131646378Y-98644099D01*
X131776391Y-98631294D01*
X131943214Y-98580688D01*
X132096960Y-98498510D01*
X132231718Y-98387916D01*
X132259435Y-98354143D01*
X134453049Y-96160530D01*
X134486817Y-96132817D01*
X134519430Y-96093079D01*
X134597411Y-95998059D01*
X134679589Y-95844314D01*
X134730195Y-95677490D01*
X134743000Y-95547477D01*
X134743000Y-95547469D01*
X134747281Y-95504000D01*
X134743000Y-95460531D01*
X134743000Y-94906798D01*
X134798320Y-94773243D01*
X134835900Y-94584315D01*
X134835900Y-94391685D01*
X134830888Y-94366490D01*
X139047510Y-94366490D01*
X139047511Y-97169082D01*
X139013680Y-97250757D01*
X138976100Y-97439685D01*
X138976100Y-97632315D01*
X139013680Y-97821243D01*
X139087396Y-97999210D01*
X139194415Y-98159375D01*
X139330625Y-98295585D01*
X139490790Y-98402604D01*
X139668757Y-98476320D01*
X139857685Y-98513900D01*
X140050315Y-98513900D01*
X140239243Y-98476320D01*
X140417210Y-98402604D01*
X140577375Y-98295585D01*
X140713585Y-98159375D01*
X140820604Y-97999210D01*
X140894320Y-97821243D01*
X140931900Y-97632315D01*
X140931900Y-97439685D01*
X140894320Y-97250757D01*
X140820604Y-97072790D01*
X140817510Y-97068160D01*
X140817510Y-94366490D01*
X148742490Y-94366490D01*
X148742491Y-97068158D01*
X148739396Y-97072790D01*
X148665680Y-97250757D01*
X148628100Y-97439685D01*
X148628100Y-97632315D01*
X148665680Y-97821243D01*
X148739396Y-97999210D01*
X148846415Y-98159375D01*
X148982625Y-98295585D01*
X149142790Y-98402604D01*
X149320757Y-98476320D01*
X149509685Y-98513900D01*
X149702315Y-98513900D01*
X149891243Y-98476320D01*
X150069210Y-98402604D01*
X150229375Y-98295585D01*
X150365585Y-98159375D01*
X150472604Y-97999210D01*
X150546320Y-97821243D01*
X150583900Y-97632315D01*
X150583900Y-97439685D01*
X150546320Y-97250757D01*
X150512490Y-97169084D01*
X150512490Y-94366490D01*
X158648490Y-94366490D01*
X158648491Y-97322158D01*
X158645396Y-97326790D01*
X158571680Y-97504757D01*
X158534100Y-97693685D01*
X158534100Y-97886315D01*
X158571680Y-98075243D01*
X158645396Y-98253210D01*
X158752415Y-98413375D01*
X158888625Y-98549585D01*
X159048790Y-98656604D01*
X159226757Y-98730320D01*
X159415685Y-98767900D01*
X159608315Y-98767900D01*
X159797243Y-98730320D01*
X159930491Y-98675127D01*
X159930491Y-99885270D01*
X158666686Y-101149075D01*
X158604286Y-101200286D01*
X158399969Y-101449249D01*
X158248148Y-101733286D01*
X158154657Y-102041485D01*
X158143824Y-102151476D01*
X158123089Y-102362000D01*
X158131000Y-102442320D01*
X158131001Y-107361669D01*
X158131000Y-107361679D01*
X158131001Y-116505669D01*
X158131000Y-116505679D01*
X158131001Y-125052760D01*
X153754762Y-129429000D01*
X136567239Y-129429000D01*
X132445000Y-125306762D01*
X132445000Y-106599678D01*
X132421343Y-106359484D01*
X132327852Y-106051285D01*
X132176031Y-105767248D01*
X131971714Y-105518286D01*
X131722752Y-105313969D01*
X131438715Y-105162148D01*
X131130516Y-105068657D01*
X130810000Y-105037089D01*
X130489485Y-105068657D01*
X130181286Y-105162148D01*
X129897249Y-105313969D01*
X129648287Y-105518286D01*
X129443970Y-105767248D01*
X129292149Y-106051285D01*
X129198658Y-106359484D01*
X129175001Y-106599678D01*
X129175000Y-116412321D01*
X129175001Y-116412331D01*
X129175000Y-125903680D01*
X129167089Y-125984000D01*
X129175000Y-126064319D01*
X129175000Y-126064321D01*
X129198657Y-126304515D01*
X129292148Y-126612714D01*
X129443969Y-126896751D01*
X129648286Y-127145714D01*
X129710687Y-127196925D01*
X134677080Y-132163319D01*
X134728286Y-132225714D01*
X134977248Y-132430031D01*
X135261285Y-132581852D01*
X135569484Y-132675343D01*
X135809678Y-132699000D01*
X135809680Y-132699000D01*
X135890000Y-132706911D01*
X135970319Y-132699000D01*
X154351681Y-132699000D01*
X154432000Y-132706911D01*
X154512319Y-132699000D01*
X154512322Y-132699000D01*
X154752516Y-132675343D01*
X155060715Y-132581852D01*
X155344752Y-132430031D01*
X155593714Y-132225714D01*
X155644925Y-132163313D01*
X160865319Y-126942920D01*
X160927714Y-126891714D01*
X161132031Y-126642752D01*
X161283852Y-126358715D01*
X161377343Y-126050516D01*
X161401000Y-125810322D01*
X161401000Y-125810320D01*
X161408911Y-125730001D01*
X161401000Y-125649681D01*
X161401000Y-103039238D01*
X162664808Y-101775431D01*
X162727204Y-101724224D01*
X162931521Y-101475262D01*
X163083342Y-101191225D01*
X163176833Y-100883026D01*
X163200490Y-100642832D01*
X163200490Y-100642830D01*
X163208401Y-100562511D01*
X163200490Y-100482191D01*
X163200490Y-94366490D01*
X164381112Y-94366490D01*
X164376100Y-94391685D01*
X164376100Y-94584315D01*
X164413680Y-94773243D01*
X164469001Y-94906800D01*
X164469000Y-101689202D01*
X164413680Y-101822757D01*
X164376100Y-102011685D01*
X164376100Y-102204315D01*
X164413680Y-102393243D01*
X164487396Y-102571210D01*
X164594415Y-102731375D01*
X164730625Y-102867585D01*
X164890790Y-102974604D01*
X165068757Y-103048320D01*
X165257685Y-103085900D01*
X165450315Y-103085900D01*
X165639243Y-103048320D01*
X165817210Y-102974604D01*
X165977375Y-102867585D01*
X165989000Y-102855960D01*
X166000625Y-102867585D01*
X166160790Y-102974604D01*
X166338757Y-103048320D01*
X166527685Y-103085900D01*
X166720315Y-103085900D01*
X166909243Y-103048320D01*
X167087210Y-102974604D01*
X167247375Y-102867585D01*
X167383585Y-102731375D01*
X167490604Y-102571210D01*
X167564320Y-102393243D01*
X167601900Y-102204315D01*
X167601900Y-102011685D01*
X167564320Y-101822757D01*
X167509000Y-101689202D01*
X167509000Y-100685321D01*
X170650744Y-100685321D01*
X170695395Y-100832530D01*
X170820579Y-101095351D01*
X170994632Y-101328700D01*
X171210865Y-101523609D01*
X171460968Y-101672588D01*
X171735329Y-101769912D01*
X171965220Y-101649245D01*
X171965220Y-100455431D01*
X172219220Y-100455431D01*
X172219220Y-101649245D01*
X172449111Y-101769912D01*
X172723472Y-101672588D01*
X172973575Y-101523609D01*
X173189808Y-101328700D01*
X173363861Y-101095351D01*
X173489045Y-100832530D01*
X173533696Y-100685321D01*
X173412375Y-100455431D01*
X172219220Y-100455431D01*
X171965220Y-100455431D01*
X170772065Y-100455431D01*
X170650744Y-100685321D01*
X167509000Y-100685321D01*
X167509000Y-94906798D01*
X167564320Y-94773243D01*
X167601900Y-94584315D01*
X167601900Y-94391685D01*
X167596888Y-94366490D01*
X170895520Y-94366490D01*
X170776230Y-94545020D01*
X170664288Y-94815273D01*
X170607220Y-95102171D01*
X170607220Y-95394691D01*
X170664288Y-95681589D01*
X170776230Y-95951842D01*
X170938745Y-96195063D01*
X171145588Y-96401906D01*
X171319980Y-96518431D01*
X171145588Y-96634956D01*
X170938745Y-96841799D01*
X170776230Y-97085020D01*
X170664288Y-97355273D01*
X170607220Y-97642171D01*
X170607220Y-97934691D01*
X170664288Y-98221589D01*
X170776230Y-98491842D01*
X170938745Y-98735063D01*
X171145588Y-98941906D01*
X171327754Y-99063626D01*
X171210865Y-99133253D01*
X170994632Y-99328162D01*
X170820579Y-99561511D01*
X170695395Y-99824332D01*
X170650744Y-99971541D01*
X170772065Y-100201431D01*
X171965220Y-100201431D01*
X171965220Y-100181431D01*
X172219220Y-100181431D01*
X172219220Y-100201431D01*
X173412375Y-100201431D01*
X173533696Y-99971541D01*
X173489045Y-99824332D01*
X173363861Y-99561511D01*
X173189808Y-99328162D01*
X172973575Y-99133253D01*
X172856686Y-99063626D01*
X173038852Y-98941906D01*
X173245695Y-98735063D01*
X173408210Y-98491842D01*
X173520152Y-98221589D01*
X173577220Y-97934691D01*
X173577220Y-97642171D01*
X173520152Y-97355273D01*
X173408210Y-97085020D01*
X173245695Y-96841799D01*
X173038852Y-96634956D01*
X172864460Y-96518431D01*
X173038852Y-96401906D01*
X173245695Y-96195063D01*
X173408210Y-95951842D01*
X173520152Y-95681589D01*
X173577220Y-95394691D01*
X173577220Y-95102171D01*
X173520152Y-94815273D01*
X173408210Y-94545020D01*
X173245695Y-94301799D01*
X173113840Y-94169944D01*
X173186400Y-94147933D01*
X173296714Y-94088968D01*
X173393405Y-94009616D01*
X173472757Y-93912925D01*
X173531722Y-93802611D01*
X173568032Y-93682913D01*
X173580292Y-93558431D01*
X173580292Y-93392859D01*
X173610071Y-93337146D01*
X173703562Y-93028947D01*
X173735131Y-92708432D01*
X173703562Y-92387915D01*
X173610071Y-92079717D01*
X173580292Y-92024004D01*
X173580292Y-91858431D01*
X173568032Y-91733949D01*
X173531722Y-91614251D01*
X173472757Y-91503937D01*
X173393405Y-91407246D01*
X173296714Y-91327894D01*
X173186400Y-91268929D01*
X173066702Y-91232619D01*
X172942220Y-91220359D01*
X172776647Y-91220359D01*
X172720934Y-91190580D01*
X172412736Y-91097089D01*
X172092219Y-91065520D01*
X171777786Y-91096490D01*
X161645812Y-91096490D01*
X161565490Y-91088579D01*
X161485168Y-91096490D01*
X161162756Y-91096490D01*
X161147000Y-86611340D01*
X161147000Y-67824956D01*
X161167804Y-65386778D01*
X161176401Y-65299490D01*
X161161293Y-65146097D01*
X161147509Y-64992735D01*
X161145523Y-64985982D01*
X161144833Y-64978973D01*
X161100098Y-64831502D01*
X161056651Y-64683749D01*
X161053386Y-64677513D01*
X161051342Y-64670775D01*
X160978714Y-64534897D01*
X160907259Y-64398427D01*
X160902839Y-64392947D01*
X160899520Y-64386737D01*
X160801769Y-64267626D01*
X160705074Y-64147731D01*
X160637760Y-64091520D01*
X156406925Y-59860687D01*
X156355714Y-59798286D01*
X156106752Y-59593969D01*
X155822715Y-59442148D01*
X155514516Y-59348657D01*
X155274322Y-59325000D01*
X155274319Y-59325000D01*
X155194000Y-59317089D01*
X155113681Y-59325000D01*
X132668319Y-59325000D01*
X132588000Y-59317089D01*
X132507680Y-59325000D01*
X132507678Y-59325000D01*
X132267484Y-59348657D01*
X131959285Y-59442148D01*
X131675248Y-59593969D01*
X131426286Y-59798286D01*
X131375080Y-59860681D01*
X127424687Y-63811075D01*
X127362286Y-63862286D01*
X127157969Y-64111249D01*
X127006148Y-64395286D01*
X126912657Y-64703485D01*
X126890575Y-64927685D01*
X126881089Y-65024000D01*
X126889000Y-65104320D01*
X126889001Y-75611669D01*
X126889000Y-75611679D01*
X126889001Y-84755669D01*
X126889000Y-84755679D01*
X126889001Y-91078496D01*
X118398940Y-91096666D01*
X118158797Y-91120837D01*
X117850798Y-91214988D01*
X117567087Y-91367416D01*
X117318563Y-91572265D01*
X117114779Y-91821664D01*
X116963566Y-92106025D01*
X116870735Y-92414424D01*
X116839853Y-92735006D01*
X116407220Y-92735006D01*
X116407220Y-60801587D01*
X116458957Y-53092764D01*
X116608522Y-51597110D01*
X117374647Y-51597110D01*
X117374647Y-52263896D01*
X117504730Y-52917871D01*
X117759899Y-53533902D01*
X118130345Y-54088315D01*
X118601835Y-54559805D01*
X119156248Y-54930251D01*
X119772279Y-55185420D01*
X120426254Y-55315503D01*
X121093040Y-55315503D01*
X121747015Y-55185420D01*
X122363046Y-54930251D01*
X122917459Y-54559805D01*
X123388949Y-54088315D01*
X123759395Y-53533902D01*
X124014564Y-52917871D01*
X124144647Y-52263896D01*
X124144647Y-51597110D01*
X124117022Y-51458227D01*
X166395779Y-51458227D01*
X166395779Y-52125013D01*
X166525862Y-52778988D01*
X166781031Y-53395019D01*
X167151477Y-53949432D01*
X167622967Y-54420922D01*
X168177380Y-54791368D01*
X168793411Y-55046537D01*
X169447386Y-55176620D01*
X170114172Y-55176620D01*
X170768147Y-55046537D01*
X171384178Y-54791368D01*
X171938591Y-54420922D01*
X172410081Y-53949432D01*
X172780527Y-53395019D01*
X173035696Y-52778988D01*
X173165779Y-52125013D01*
X173165779Y-51458227D01*
X173035696Y-50804252D01*
X172780527Y-50188221D01*
X172410081Y-49633808D01*
X171938591Y-49162318D01*
X171384178Y-48791872D01*
X170768147Y-48536703D01*
X170114172Y-48406620D01*
X169447386Y-48406620D01*
X168793411Y-48536703D01*
X168177380Y-48791872D01*
X167622967Y-49162318D01*
X167151477Y-49633808D01*
X166781031Y-50188221D01*
X166525862Y-50804252D01*
X166395779Y-51458227D01*
X124117022Y-51458227D01*
X124014564Y-50943135D01*
X123759395Y-50327104D01*
X123388949Y-49772691D01*
X122917459Y-49301201D01*
X122363046Y-48930755D01*
X121747015Y-48675586D01*
X121093040Y-48545503D01*
X120426254Y-48545503D01*
X119772279Y-48675586D01*
X119156248Y-48930755D01*
X118601835Y-49301201D01*
X118130345Y-49772691D01*
X117759899Y-50327104D01*
X117504730Y-50943135D01*
X117374647Y-51597110D01*
X116608522Y-51597110D01*
X116709539Y-50586946D01*
X117441477Y-49367049D01*
X120183086Y-47622389D01*
X122688493Y-47443431D01*
X137169760Y-47443430D01*
X170892974Y-47624738D01*
M02*
