%TF.GenerationSoftware,KiCad,Pcbnew,5.1.6-1.fc31*%
%TF.CreationDate,2020-06-27T23:06:53-07:00*%
%TF.ProjectId,rpi_7seg_alarm_clock,7270695f-3773-4656-975f-616c61726d5f,rev?*%
%TF.SameCoordinates,Original*%
%TF.FileFunction,Copper,L2,Bot*%
%TF.FilePolarity,Positive*%
%FSLAX46Y46*%
G04 Gerber Fmt 4.6, Leading zero omitted, Abs format (unit mm)*
G04 Created by KiCad (PCBNEW 5.1.6-1.fc31) date 2020-06-27 23:06:53*
%MOMM*%
%LPD*%
G01*
G04 APERTURE LIST*
%TA.AperFunction,ComponentPad*%
%ADD10R,2.400000X2.400000*%
%TD*%
%TA.AperFunction,ComponentPad*%
%ADD11C,2.400000*%
%TD*%
%TA.AperFunction,ComponentPad*%
%ADD12C,3.000000*%
%TD*%
%TA.AperFunction,ComponentPad*%
%ADD13R,1.600000X1.500000*%
%TD*%
%TA.AperFunction,ComponentPad*%
%ADD14C,1.600000*%
%TD*%
%TA.AperFunction,ComponentPad*%
%ADD15O,1.700000X1.700000*%
%TD*%
%TA.AperFunction,ComponentPad*%
%ADD16R,1.700000X1.700000*%
%TD*%
%TA.AperFunction,ComponentPad*%
%ADD17C,1.950000*%
%TD*%
%TA.AperFunction,ViaPad*%
%ADD18C,0.800000*%
%TD*%
%TA.AperFunction,ViaPad*%
%ADD19C,1.000000*%
%TD*%
%TA.AperFunction,ViaPad*%
%ADD20C,2.000000*%
%TD*%
%TA.AperFunction,Conductor*%
%ADD21C,0.400000*%
%TD*%
%TA.AperFunction,Conductor*%
%ADD22C,2.000000*%
%TD*%
%TA.AperFunction,Conductor*%
%ADD23C,0.600000*%
%TD*%
%TA.AperFunction,Conductor*%
%ADD24C,1.000000*%
%TD*%
%TA.AperFunction,Conductor*%
%ADD25C,0.250000*%
%TD*%
%TA.AperFunction,Conductor*%
%ADD26C,0.254000*%
%TD*%
G04 APERTURE END LIST*
D10*
%TO.P,J7,1*%
%TO.N,SW0_B*%
X90070000Y-69320000D03*
D11*
%TO.P,J7,2*%
X93570000Y-69320000D03*
%TO.P,J7,3*%
X97070000Y-69320000D03*
%TO.P,J7,4*%
X100570000Y-69320000D03*
%TO.P,J7,5*%
X104070000Y-69320000D03*
%TO.P,J7,6*%
X107570000Y-69320000D03*
%TO.P,J7,7*%
X111070000Y-69320000D03*
%TO.P,J7,8*%
X114570000Y-69320000D03*
%TD*%
D10*
%TO.P,J4,1*%
%TO.N,DISP_CLK_OUT*%
X119285000Y-80680000D03*
D11*
%TO.P,J4,2*%
%TO.N,DISP_SER_OUT*%
X122785000Y-80680000D03*
%TO.P,J4,3*%
%TO.N,Net-(J4-Pad3)*%
X126285000Y-80680000D03*
%TO.P,J4,4*%
%TO.N,Net-(J4-Pad4)*%
X129785000Y-80680000D03*
%TO.P,J4,5*%
%TO.N,SW0_B*%
X133285000Y-80680000D03*
%TO.P,J4,6*%
%TO.N,SW5_A*%
X136785000Y-80680000D03*
%TO.P,J4,7*%
%TO.N,SW0_B*%
X140285000Y-80680000D03*
%TO.P,J4,8*%
%TO.N,SW4_A*%
X143785000Y-80680000D03*
%TD*%
D10*
%TO.P,J5,1*%
%TO.N,+5V*%
X90075000Y-80670000D03*
D11*
%TO.P,J5,2*%
X93575000Y-80670000D03*
%TO.P,J5,3*%
X97075000Y-80670000D03*
%TO.P,J5,4*%
X100575000Y-80670000D03*
%TO.P,J5,5*%
X104075000Y-80670000D03*
%TO.P,J5,6*%
X107575000Y-80670000D03*
%TO.P,J5,7*%
X111075000Y-80670000D03*
%TO.P,J5,8*%
X114575000Y-80670000D03*
%TD*%
D10*
%TO.P,J6,1*%
%TO.N,SW0_A*%
X119300000Y-69320000D03*
D11*
%TO.P,J6,2*%
%TO.N,SW0_B*%
X122800000Y-69320000D03*
%TO.P,J6,3*%
%TO.N,SW1_A*%
X126300000Y-69320000D03*
%TO.P,J6,4*%
%TO.N,SW0_B*%
X129800000Y-69320000D03*
%TO.P,J6,5*%
%TO.N,SW2_A*%
X133300000Y-69320000D03*
%TO.P,J6,6*%
%TO.N,SW0_B*%
X136800000Y-69320000D03*
%TO.P,J6,7*%
%TO.N,SW3_A*%
X140300000Y-69320000D03*
%TO.P,J6,8*%
%TO.N,SW0_B*%
X143800000Y-69320000D03*
%TD*%
D12*
%TO.P,BT1,1*%
%TO.N,Net-(BT1-Pad1)*%
X88646000Y-88040000D03*
X88646000Y-101240000D03*
%TD*%
%TO.P,J1,5*%
%TO.N,SW0_B*%
X125840000Y-102680000D03*
X138980000Y-102680000D03*
D13*
%TO.P,J1,1*%
%TO.N,Net-(J1-Pad1)*%
X128910000Y-99970000D03*
D14*
%TO.P,J1,2*%
%TO.N,Net-(J1-Pad2)*%
X131410000Y-99970000D03*
%TO.P,J1,3*%
X133410000Y-99970000D03*
%TO.P,J1,4*%
%TO.N,SW0_B*%
X135910000Y-99970000D03*
%TD*%
D15*
%TO.P,J2,40*%
%TO.N,GPIO21*%
X137880000Y-59460000D03*
%TO.P,J2,39*%
%TO.N,SW0_B*%
X137880000Y-62000000D03*
%TO.P,J2,38*%
%TO.N,GPIO20*%
X135340000Y-59460000D03*
%TO.P,J2,37*%
%TO.N,GPIO26*%
X135340000Y-62000000D03*
%TO.P,J2,36*%
%TO.N,GPIO16*%
X132800000Y-59460000D03*
%TO.P,J2,35*%
%TO.N,GPIO19*%
X132800000Y-62000000D03*
%TO.P,J2,34*%
%TO.N,SW0_B*%
X130260000Y-59460000D03*
%TO.P,J2,33*%
%TO.N,GPIO13*%
X130260000Y-62000000D03*
%TO.P,J2,32*%
%TO.N,GPIO12*%
X127720000Y-59460000D03*
%TO.P,J2,31*%
%TO.N,GPIO6*%
X127720000Y-62000000D03*
%TO.P,J2,30*%
%TO.N,SW0_B*%
X125180000Y-59460000D03*
%TO.P,J2,29*%
%TO.N,GPIO5*%
X125180000Y-62000000D03*
%TO.P,J2,28*%
%TO.N,GPIO1*%
X122640000Y-59460000D03*
%TO.P,J2,27*%
%TO.N,GPIO0*%
X122640000Y-62000000D03*
%TO.P,J2,26*%
%TO.N,GPIO7*%
X120100000Y-59460000D03*
%TO.P,J2,25*%
%TO.N,SW0_B*%
X120100000Y-62000000D03*
%TO.P,J2,24*%
%TO.N,GPIO8*%
X117560000Y-59460000D03*
%TO.P,J2,23*%
%TO.N,GPIO11*%
X117560000Y-62000000D03*
%TO.P,J2,22*%
%TO.N,BTNS_SHLD*%
X115020000Y-59460000D03*
%TO.P,J2,21*%
%TO.N,BTNS_SER*%
X115020000Y-62000000D03*
%TO.P,J2,20*%
%TO.N,SW0_B*%
X112480000Y-59460000D03*
%TO.P,J2,19*%
%TO.N,DISP_SER*%
X112480000Y-62000000D03*
%TO.P,J2,18*%
%TO.N,GPIO24*%
X109940000Y-59460000D03*
%TO.P,J2,17*%
%TO.N,+3V3*%
X109940000Y-62000000D03*
%TO.P,J2,16*%
%TO.N,GPIO23*%
X107400000Y-59460000D03*
%TO.P,J2,15*%
%TO.N,GPIO22*%
X107400000Y-62000000D03*
%TO.P,J2,14*%
%TO.N,SW0_B*%
X104860000Y-59460000D03*
%TO.P,J2,13*%
%TO.N,GPIO27*%
X104860000Y-62000000D03*
%TO.P,J2,12*%
%TO.N,GPIO18*%
X102320000Y-59460000D03*
%TO.P,J2,11*%
%TO.N,GPIO17*%
X102320000Y-62000000D03*
%TO.P,J2,10*%
%TO.N,GPIO15*%
X99780000Y-59460000D03*
%TO.P,J2,9*%
%TO.N,SW0_B*%
X99780000Y-62000000D03*
%TO.P,J2,8*%
%TO.N,GPIO14*%
X97240000Y-59460000D03*
%TO.P,J2,7*%
%TO.N,BTN_INT*%
X97240000Y-62000000D03*
%TO.P,J2,6*%
%TO.N,SW0_B*%
X94700000Y-59460000D03*
%TO.P,J2,5*%
%TO.N,GPIO3*%
X94700000Y-62000000D03*
%TO.P,J2,4*%
%TO.N,+5V*%
X92160000Y-59460000D03*
%TO.P,J2,3*%
%TO.N,GPIO2*%
X92160000Y-62000000D03*
%TO.P,J2,2*%
%TO.N,+5V*%
X89620000Y-59460000D03*
D16*
%TO.P,J2,1*%
%TO.N,+3V3*%
X89620000Y-62000000D03*
%TD*%
%TO.P,J3,1*%
%TO.N,+5V*%
X85025000Y-75840000D03*
D15*
%TO.P,J3,2*%
%TO.N,SW0_B*%
X85025000Y-73300000D03*
%TD*%
D17*
%TO.P,K1,12*%
%TO.N,Net-(K1-Pad12)*%
X111910000Y-110230000D03*
%TO.P,K1,2*%
X111910000Y-102730000D03*
%TO.P,K1,1*%
%TO.N,+5V*%
X116950000Y-102730000D03*
%TO.P,K1,11*%
X116950000Y-110230000D03*
%TO.P,K1,14*%
%TO.N,Net-(J1-Pad1)*%
X121990000Y-110230000D03*
%TO.P,K1,4*%
X121990000Y-102730000D03*
%TO.P,K1,A2*%
%TO.N,Net-(K1-PadA2)*%
X96650000Y-102730000D03*
%TO.P,K1,A1*%
%TO.N,Net-(K1-PadA1)*%
X96650000Y-110230000D03*
%TO.P,K1,A3*%
%TO.N,+3V3*%
X96650000Y-106540000D03*
%TD*%
D18*
%TO.N,SW0_B*%
X108204000Y-87884000D03*
X118110000Y-86614000D03*
X87800000Y-105540001D03*
D19*
X119380000Y-64770000D03*
X115062000Y-64516000D03*
D18*
X125950000Y-97000000D03*
%TO.N,Net-(C1-Pad1)*%
X134150000Y-85125000D03*
X121350000Y-88150000D03*
%TO.N,+3V3*%
X104505000Y-90821000D03*
X117856000Y-75184000D03*
X117856000Y-65786000D03*
X138600000Y-91225000D03*
X138550000Y-98075000D03*
%TO.N,Net-(C3-Pad1)*%
X141175000Y-84325000D03*
X124911269Y-84363425D03*
%TO.N,Net-(C4-Pad1)*%
X137950000Y-77546851D03*
X138425000Y-79146851D03*
X137600000Y-83000000D03*
X132485000Y-83000000D03*
%TO.N,Net-(C5-Pad1)*%
X133500000Y-77546851D03*
X131976463Y-78473537D03*
%TO.N,GPIO7*%
X109475000Y-84650000D03*
%TO.N,GPIO8*%
X141827835Y-91477835D03*
%TO.N,GPIO11*%
X124783719Y-100629653D03*
X116225000Y-100529990D03*
X142275000Y-100950000D03*
X120425000Y-57150000D03*
X118800000Y-58100000D03*
%TO.N,BTNS_SHLD*%
X137875000Y-96875000D03*
X131975000Y-85875000D03*
X131275000Y-83325000D03*
X114000000Y-73225000D03*
X111525000Y-73200000D03*
%TO.N,BTNS_SER*%
X144650000Y-91625000D03*
%TO.N,DISP_SER*%
X112475000Y-96125000D03*
X114175000Y-94400001D03*
X110675000Y-84350000D03*
X111875001Y-85750000D03*
X105923652Y-85651348D03*
X104561152Y-84288848D03*
X95475000Y-84270000D03*
X113375000Y-64050001D03*
X104862653Y-65562653D03*
X96275000Y-64575000D03*
X94819999Y-64525000D03*
%TO.N,GPIO23*%
X100225000Y-88075000D03*
X106275486Y-102129990D03*
X105650000Y-84270000D03*
X105950000Y-58025000D03*
%TO.N,GPIO22*%
X105600000Y-102875000D03*
X99150000Y-86850000D03*
X99200000Y-84900000D03*
X98825000Y-74750000D03*
X100450000Y-72975000D03*
X102750000Y-65500000D03*
%TO.N,BTN_INT*%
X137225000Y-94974990D03*
%TO.N,GPIO3*%
X94878612Y-97692533D03*
X93450263Y-86752000D03*
X93275000Y-84350000D03*
X89042347Y-64092347D03*
%TO.N,+5V*%
X82974999Y-64902920D03*
D20*
X105249501Y-108110499D03*
D18*
%TO.N,GPIO2*%
X95600000Y-97000000D03*
X94450000Y-86775000D03*
X94350000Y-84300000D03*
%TO.N,DISP_CLK_OUT*%
X142875000Y-66275000D03*
X141750000Y-71975000D03*
X140250000Y-72770369D03*
X130600000Y-71621116D03*
X130600000Y-74000000D03*
X123825000Y-76425000D03*
X121625000Y-78825000D03*
%TO.N,DISP_SER_OUT*%
X98125000Y-65675000D03*
X102801998Y-76400000D03*
X115575000Y-77350000D03*
%TO.N,Net-(Q1-Pad2)*%
X85600000Y-66125000D03*
X90400000Y-76150000D03*
X115700000Y-76250000D03*
X110475000Y-89925000D03*
%TO.N,Net-(Q2-Pad2)*%
X115050000Y-102129990D03*
X113900000Y-100500000D03*
%TO.N,Net-(U1-Pad2)*%
X121075000Y-92575000D03*
X137225000Y-93950000D03*
%TO.N,Net-(U1-Pad4)*%
X123550000Y-92950000D03*
X134060858Y-94335858D03*
%TO.N,Net-(U1-Pad6)*%
X125050000Y-96350000D03*
X132200000Y-97050000D03*
%TO.N,Net-(U1-Pad10)*%
X124287347Y-91300000D03*
X126407795Y-91300000D03*
X131675000Y-91350000D03*
X134775000Y-96150000D03*
%TO.N,Net-(U1-Pad12)*%
X121880010Y-91425000D03*
X125675000Y-92025000D03*
X133000000Y-95475000D03*
X132575000Y-93675000D03*
%TD*%
D21*
%TO.N,SW0_B*%
X108204000Y-87884000D02*
X109474000Y-86614000D01*
D22*
X87800000Y-105200000D02*
X83367761Y-105200000D01*
X86345002Y-73300000D02*
X85175009Y-73300000D01*
X83367761Y-105200000D02*
X82575000Y-104407239D01*
X97694001Y-100554999D02*
X95520001Y-100554999D01*
X82575000Y-82150002D02*
X87225010Y-77499992D01*
X87225010Y-74180008D02*
X86345002Y-73300000D01*
X87225010Y-77499992D02*
X87225010Y-74180008D01*
X82575000Y-104407239D02*
X82575000Y-82150002D01*
X90875000Y-105200000D02*
X87800000Y-105200000D01*
X95520001Y-100554999D02*
X90875000Y-105200000D01*
X123584501Y-104935499D02*
X125840000Y-102680000D01*
X102074501Y-104935499D02*
X123584501Y-104935499D01*
X102074501Y-104935499D02*
X97694001Y-100554999D01*
X135910000Y-102342000D02*
X135572000Y-102680000D01*
X135910000Y-99970000D02*
X135910000Y-102342000D01*
X125840000Y-102680000D02*
X135572000Y-102680000D01*
X135572000Y-102680000D02*
X138980000Y-102680000D01*
D23*
X112775001Y-86613001D02*
X112776000Y-86614000D01*
X112775001Y-71114999D02*
X112775001Y-86613001D01*
X114570000Y-69320000D02*
X112775001Y-71114999D01*
D21*
X109474000Y-86614000D02*
X112776000Y-86614000D01*
X112776000Y-86614000D02*
X118110000Y-86614000D01*
D24*
X119380000Y-64770000D02*
X119126000Y-64516000D01*
X119126000Y-64516000D02*
X115062000Y-64516000D01*
D23*
X119380000Y-65900000D02*
X122800000Y-69320000D01*
X119380000Y-64770000D02*
X119380000Y-65900000D01*
D25*
X125950000Y-102570000D02*
X125840000Y-102680000D01*
X125950000Y-97000000D02*
X125950000Y-102570000D01*
%TO.N,Net-(C1-Pad1)*%
X134150000Y-85125000D02*
X121700000Y-85125000D01*
X121350000Y-85475000D02*
X121700000Y-85125000D01*
X121350000Y-88150000D02*
X121350000Y-85475000D01*
D23*
%TO.N,+3V3*%
X116270001Y-68330001D02*
X116270001Y-73344001D01*
X116270001Y-73344001D02*
X117856000Y-74930000D01*
X117856000Y-74930000D02*
X117856000Y-75184000D01*
X113792000Y-65786000D02*
X113759000Y-65819000D01*
X117856000Y-65786000D02*
X113792000Y-65786000D01*
X109940000Y-62000000D02*
X113759000Y-65819000D01*
X113759000Y-65819000D02*
X116270001Y-68330001D01*
D25*
X138600000Y-91225000D02*
X138600000Y-98025000D01*
X138600000Y-98025000D02*
X138550000Y-98075000D01*
D23*
X99536000Y-85852000D02*
X104505000Y-90821000D01*
X91956998Y-85852000D02*
X99536000Y-85852000D01*
X91127499Y-85022501D02*
X91956998Y-85852000D01*
X86375000Y-80471336D02*
X86375000Y-82750000D01*
X86375000Y-82750000D02*
X88647501Y-85022501D01*
X84475000Y-71300000D02*
X84775000Y-71600000D01*
X84475000Y-65524253D02*
X84475000Y-71300000D01*
X84775000Y-71600000D02*
X86766336Y-71600000D01*
X88725019Y-78121317D02*
X86375000Y-80471336D01*
X87999253Y-62000000D02*
X84475000Y-65524253D01*
X89620000Y-62000000D02*
X87999253Y-62000000D01*
X86766336Y-71600000D02*
X88725020Y-73558684D01*
X88725020Y-73558684D02*
X88725019Y-78121317D01*
X88647501Y-85022501D02*
X91127499Y-85022501D01*
D25*
%TO.N,Net-(C3-Pad1)*%
X141175000Y-84325000D02*
X124949694Y-84325000D01*
X124949694Y-84325000D02*
X124911269Y-84363425D01*
%TO.N,Net-(C4-Pad1)*%
X137950000Y-77546851D02*
X137950000Y-78671851D01*
X137950000Y-78671851D02*
X138425000Y-79146851D01*
X137600000Y-83000000D02*
X132485000Y-83000000D01*
%TO.N,Net-(C5-Pad1)*%
X133500000Y-77546851D02*
X132903149Y-77546851D01*
X132903149Y-77546851D02*
X131976463Y-78473537D01*
%TO.N,GPIO7*%
X106224999Y-58895999D02*
X106835999Y-58284999D01*
X106224999Y-62564001D02*
X106224999Y-58895999D01*
X109475000Y-65814002D02*
X106224999Y-62564001D01*
X109475000Y-84650000D02*
X109475000Y-65814002D01*
X106835999Y-58284999D02*
X106840001Y-58284999D01*
X106840001Y-58284999D02*
X107900000Y-57225000D01*
X107900000Y-57225000D02*
X119375000Y-57225000D01*
X120100000Y-57950000D02*
X120100000Y-59460000D01*
X119375000Y-57225000D02*
X120100000Y-57950000D01*
%TO.N,GPIO8*%
X116384999Y-60635001D02*
X117560000Y-59460000D01*
X113844999Y-62564001D02*
X113844999Y-61435999D01*
X114906009Y-63625011D02*
X113844999Y-62564001D01*
X122862013Y-63625011D02*
X114906009Y-63625011D01*
X127825001Y-70050001D02*
X127825001Y-68587999D01*
X134810001Y-77035001D02*
X127825001Y-70050001D01*
X134810001Y-80962003D02*
X134810001Y-77035001D01*
X127825001Y-68587999D02*
X122862013Y-63625011D01*
X136052999Y-82205001D02*
X134810001Y-80962003D01*
X114645997Y-60635001D02*
X116384999Y-60635001D01*
X140128003Y-82205001D02*
X136052999Y-82205001D01*
X142227834Y-84304832D02*
X140128003Y-82205001D01*
X113844999Y-61435999D02*
X114645997Y-60635001D01*
X142227834Y-91077836D02*
X142227834Y-84304832D01*
X141827835Y-91477835D02*
X142227834Y-91077836D01*
%TO.N,GPIO11*%
X124783719Y-100629653D02*
X116324663Y-100629653D01*
X116324663Y-100629653D02*
X116225000Y-100529990D01*
X142275000Y-100950000D02*
X145550000Y-100950000D01*
X145650010Y-100849990D02*
X145650010Y-59375010D01*
X145550000Y-100950000D02*
X145650010Y-100849990D01*
X145650010Y-59375010D02*
X143425000Y-57150000D01*
X143425000Y-57150000D02*
X120425000Y-57150000D01*
X118800000Y-60760000D02*
X117560000Y-62000000D01*
X118800000Y-58100000D02*
X118800000Y-60760000D01*
%TO.N,BTNS_SHLD*%
X137950001Y-91850001D02*
X131975000Y-85875000D01*
X137875000Y-96875000D02*
X137950001Y-96799999D01*
X137950001Y-96799999D02*
X137950001Y-91850001D01*
X131674999Y-80312997D02*
X128812002Y-77450000D01*
X131275000Y-83325000D02*
X131674999Y-82925001D01*
X131674999Y-82925001D02*
X131674999Y-80312997D01*
X128812002Y-77450000D02*
X118225000Y-77450000D01*
X118225000Y-77450000D02*
X114000000Y-73225000D01*
X109565997Y-60635001D02*
X113844999Y-60635001D01*
X108764999Y-61435999D02*
X109565997Y-60635001D01*
X108764999Y-62564001D02*
X108764999Y-61435999D01*
X112595001Y-66394003D02*
X108764999Y-62564001D01*
X113844999Y-60635001D02*
X115020000Y-59460000D01*
X111525000Y-71481104D02*
X112595001Y-70411103D01*
X112595001Y-70411103D02*
X112595001Y-66394003D01*
X111525000Y-73200000D02*
X111525000Y-71481104D01*
%TO.N,BTNS_SER*%
X138325001Y-69800001D02*
X138325001Y-66650001D01*
X141810001Y-81412001D02*
X141810001Y-73285001D01*
X141810001Y-73285001D02*
X138325001Y-69800001D01*
X145200000Y-84802000D02*
X141810001Y-81412001D01*
X116195001Y-63175001D02*
X115020000Y-62000000D01*
X134850001Y-63175001D02*
X116195001Y-63175001D01*
X138325001Y-66650001D02*
X134850001Y-63175001D01*
X144650000Y-91625000D02*
X144650000Y-90550000D01*
X145200000Y-90000000D02*
X145200000Y-89950000D01*
X144650000Y-90550000D02*
X145200000Y-90000000D01*
X145200000Y-89950000D02*
X145200000Y-84802000D01*
%TO.N,DISP_SER*%
X112475000Y-96125000D02*
X112475000Y-96100001D01*
X112475000Y-96100001D02*
X114175000Y-94400001D01*
X111875001Y-85750000D02*
X106022304Y-85750000D01*
X106022304Y-85750000D02*
X105923652Y-85651348D01*
X105923652Y-85651348D02*
X104561152Y-84288848D01*
X112480000Y-62000000D02*
X112480000Y-63155001D01*
X112480000Y-63155001D02*
X113375000Y-64050001D01*
X104862653Y-65562653D02*
X103875000Y-64575000D01*
X103875000Y-64575000D02*
X96275000Y-64575000D01*
X92200000Y-64525000D02*
X94819999Y-64525000D01*
X92044999Y-64680001D02*
X92200000Y-64525000D01*
X92044999Y-74794999D02*
X92044999Y-64680001D01*
X95475000Y-84270000D02*
X95475000Y-78225000D01*
X95475000Y-78225000D02*
X92044999Y-74794999D01*
%TO.N,GPIO23*%
X102025000Y-97879504D02*
X102025000Y-89875000D01*
X102025000Y-89875000D02*
X100225000Y-88075000D01*
X106275486Y-102129990D02*
X102025000Y-97879504D01*
X105650000Y-64529002D02*
X103684999Y-62564001D01*
X105650000Y-84270000D02*
X105650000Y-64529002D01*
X103684999Y-62564001D02*
X103684999Y-58895999D01*
X103684999Y-58895999D02*
X104555998Y-58025000D01*
X104555998Y-58025000D02*
X105950000Y-58025000D01*
%TO.N,GPIO22*%
X99200000Y-84900000D02*
X98825000Y-84525000D01*
X98825000Y-84525000D02*
X98825000Y-74750000D01*
X102544999Y-65705001D02*
X102750000Y-65500000D01*
X100450000Y-72975000D02*
X102544999Y-70880001D01*
X102544999Y-70880001D02*
X102544999Y-65705001D01*
X100850000Y-98125000D02*
X105600000Y-102875000D01*
X100850000Y-90200000D02*
X100850000Y-98125000D01*
X99150000Y-88500000D02*
X100850000Y-90200000D01*
X99150000Y-86850000D02*
X99150000Y-88500000D01*
%TO.N,BTN_INT*%
X137225000Y-94974990D02*
X137149999Y-95049991D01*
X137149999Y-95049991D02*
X137149999Y-96525001D01*
X95544999Y-63695001D02*
X97240000Y-62000000D01*
X102100001Y-76607003D02*
X95544999Y-70052001D01*
X102100001Y-82853003D02*
X102100001Y-76607003D01*
X112921999Y-93675001D02*
X102100001Y-82853003D01*
X129898003Y-93675001D02*
X112921999Y-93675001D01*
X95544999Y-70052001D02*
X95544999Y-63695001D01*
X133098003Y-96875001D02*
X129898003Y-93675001D01*
X136799999Y-96875001D02*
X133098003Y-96875001D01*
X137149999Y-96525001D02*
X136799999Y-96875001D01*
%TO.N,GPIO3*%
X94878612Y-97692533D02*
X93450263Y-96264184D01*
X93450263Y-96264184D02*
X93450263Y-86752000D01*
X88549999Y-79180233D02*
X91144980Y-76585252D01*
X88549999Y-82130001D02*
X88549999Y-79180233D01*
X93275000Y-84350000D02*
X90769998Y-84350000D01*
X90769998Y-84350000D02*
X88549999Y-82130001D01*
X88094989Y-65039705D02*
X89042347Y-64092347D01*
X88094989Y-71056399D02*
X88094989Y-65039705D01*
X91144980Y-76585252D02*
X91144980Y-74106390D01*
X91144980Y-74106390D02*
X88094989Y-71056399D01*
D22*
%TO.N,+5V*%
X92160000Y-59460000D02*
X89620000Y-59460000D01*
X84530998Y-75840000D02*
X85025000Y-75840000D01*
X82974999Y-74284001D02*
X84530998Y-75840000D01*
X82974999Y-64902920D02*
X82974999Y-74284001D01*
X88417919Y-59460000D02*
X82974999Y-64902920D01*
X89620000Y-59460000D02*
X88417919Y-59460000D01*
X116950000Y-110230000D02*
X114774999Y-108054999D01*
X105305001Y-108054999D02*
X105249501Y-108110499D01*
X114774999Y-108054999D02*
X105305001Y-108054999D01*
D25*
%TO.N,GPIO2*%
X95600000Y-97000000D02*
X94450000Y-95850000D01*
X94450000Y-95850000D02*
X94450000Y-86775000D01*
X92049999Y-75436409D02*
X91594990Y-74981400D01*
X94350000Y-84300000D02*
X92049999Y-81999999D01*
X92049999Y-81999999D02*
X92049999Y-75436409D01*
X91594990Y-74981400D02*
X91594990Y-73919990D01*
X88544999Y-65615001D02*
X92160000Y-62000000D01*
X88544999Y-70869999D02*
X88544999Y-65615001D01*
X91594990Y-73919990D02*
X88544999Y-70869999D01*
%TO.N,DISP_CLK_OUT*%
X142875000Y-66275000D02*
X141825001Y-67324999D01*
X141825001Y-71899999D02*
X141750000Y-71975000D01*
X141825001Y-67324999D02*
X141825001Y-71899999D01*
X140250000Y-72770369D02*
X139100747Y-71621116D01*
X139100747Y-71621116D02*
X130600000Y-71621116D01*
X130600000Y-74000000D02*
X126250000Y-74000000D01*
X126250000Y-74000000D02*
X123825000Y-76425000D01*
X119770000Y-80680000D02*
X119285000Y-80680000D01*
X121625000Y-78825000D02*
X119770000Y-80680000D01*
%TO.N,DISP_SER_OUT*%
X98125000Y-65675000D02*
X98595001Y-66145001D01*
X98595001Y-66145001D02*
X98595001Y-72065001D01*
X98595001Y-72193003D02*
X102801998Y-76400000D01*
X98595001Y-72065001D02*
X98595001Y-72193003D01*
X102801998Y-76400000D02*
X102950000Y-76400000D01*
X115575000Y-77350000D02*
X116200000Y-77975000D01*
X116200000Y-77975000D02*
X116200000Y-81325000D01*
X116200000Y-81325000D02*
X117950000Y-83075000D01*
X117950000Y-83075000D02*
X122275000Y-83075000D01*
X122785000Y-82565000D02*
X122785000Y-80680000D01*
X122275000Y-83075000D02*
X122785000Y-82565000D01*
%TO.N,Net-(Q1-Pad2)*%
X85600000Y-69549768D02*
X90250000Y-74199768D01*
X85600000Y-66125000D02*
X85600000Y-69549768D01*
X90250000Y-74199768D02*
X90250000Y-75675000D01*
X90250000Y-75675000D02*
X90250000Y-76000000D01*
X90250000Y-76000000D02*
X90400000Y-76150000D01*
X117425000Y-77975000D02*
X118400000Y-77975000D01*
X115700000Y-76250000D02*
X117425000Y-77975000D01*
X122337002Y-77975000D02*
X124310001Y-79947999D01*
X118400000Y-77975000D02*
X122337002Y-77975000D01*
X124310001Y-79947999D02*
X124310001Y-81676409D01*
X124310001Y-81676409D02*
X116061410Y-89925000D01*
X116061410Y-89925000D02*
X110475000Y-89925000D01*
%TO.N,Net-(Q2-Pad2)*%
X115050000Y-102129990D02*
X115050000Y-101650000D01*
X115050000Y-101650000D02*
X113900000Y-100500000D01*
%TO.N,Net-(U1-Pad2)*%
X137175000Y-93950000D02*
X137225000Y-93950000D01*
X121075000Y-92575000D02*
X121155009Y-92494991D01*
X131150000Y-87600000D02*
X131350000Y-87800000D01*
X131350000Y-87825000D02*
X137175000Y-93650000D01*
X121155009Y-92494991D02*
X121155009Y-89394991D01*
X121155009Y-89394991D02*
X122950000Y-87600000D01*
X131350000Y-87800000D02*
X131350000Y-87825000D01*
X137175000Y-93650000D02*
X137175000Y-93950000D01*
X122950000Y-87600000D02*
X131150000Y-87600000D01*
%TO.N,Net-(U1-Pad4)*%
X123550000Y-92950000D02*
X133300000Y-92950000D01*
X133300000Y-92950000D02*
X134060858Y-93710858D01*
X134060858Y-93710858D02*
X134060858Y-94335858D01*
%TO.N,Net-(U1-Pad6)*%
X125601999Y-96274999D02*
X127224999Y-96274999D01*
X125476998Y-96400000D02*
X125601999Y-96274999D01*
X125050000Y-96350000D02*
X125100000Y-96400000D01*
X125100000Y-96400000D02*
X125476998Y-96400000D01*
X127224999Y-96274999D02*
X128000000Y-97050000D01*
X128000000Y-97050000D02*
X132200000Y-97050000D01*
%TO.N,Net-(U1-Pad10)*%
X124287347Y-91300000D02*
X126407795Y-91300000D01*
X134785859Y-93799449D02*
X132336410Y-91350000D01*
X134785859Y-94854826D02*
X134785859Y-93799449D01*
X132336410Y-91350000D02*
X131675000Y-91350000D01*
X134785859Y-96139141D02*
X134775000Y-96150000D01*
X134785859Y-94854826D02*
X134785859Y-96139141D01*
%TO.N,Net-(U1-Pad12)*%
X121880010Y-91425000D02*
X122480010Y-92025000D01*
X122480010Y-92025000D02*
X125675000Y-92025000D01*
X133000000Y-95475000D02*
X133000000Y-94100000D01*
X133000000Y-94100000D02*
X132575000Y-93675000D01*
%TD*%
D26*
%TO.N,SW0_B*%
G36*
X87790021Y-73945975D02*
G01*
X87790019Y-77734028D01*
X85746341Y-79777706D01*
X85710656Y-79806992D01*
X85593814Y-79949365D01*
X85506993Y-80111797D01*
X85463111Y-80256457D01*
X85453529Y-80288045D01*
X85435476Y-80471336D01*
X85440000Y-80517268D01*
X85440001Y-82704058D01*
X85435476Y-82750000D01*
X85453529Y-82933291D01*
X85480773Y-83023102D01*
X85506994Y-83109540D01*
X85593815Y-83271972D01*
X85710657Y-83414344D01*
X85746336Y-83443625D01*
X87953871Y-85651160D01*
X87983157Y-85686845D01*
X88125529Y-85803687D01*
X88287961Y-85890508D01*
X88360329Y-85912460D01*
X88375333Y-85917012D01*
X88023244Y-85987047D01*
X87634698Y-86147988D01*
X87285017Y-86381637D01*
X86987637Y-86679017D01*
X86753988Y-87028698D01*
X86593047Y-87417244D01*
X86511000Y-87829721D01*
X86511000Y-88250279D01*
X86593047Y-88662756D01*
X86753988Y-89051302D01*
X86987637Y-89400983D01*
X87285017Y-89698363D01*
X87634698Y-89932012D01*
X88023244Y-90092953D01*
X88435721Y-90175000D01*
X88856279Y-90175000D01*
X89268756Y-90092953D01*
X89657302Y-89932012D01*
X90006983Y-89698363D01*
X90304363Y-89400983D01*
X90538012Y-89051302D01*
X90698953Y-88662756D01*
X90781000Y-88250279D01*
X90781000Y-87829721D01*
X90698953Y-87417244D01*
X90538012Y-87028698D01*
X90304363Y-86679017D01*
X90006983Y-86381637D01*
X89657302Y-86147988D01*
X89268756Y-85987047D01*
X89120219Y-85957501D01*
X90740210Y-85957501D01*
X91263368Y-86480659D01*
X91292654Y-86516344D01*
X91435026Y-86633186D01*
X91597458Y-86720007D01*
X91669826Y-86741959D01*
X91773706Y-86773472D01*
X91956998Y-86791524D01*
X92002933Y-86787000D01*
X92415263Y-86787000D01*
X92415263Y-86853939D01*
X92455037Y-87053898D01*
X92533058Y-87242256D01*
X92646326Y-87411774D01*
X92690264Y-87455712D01*
X92690263Y-96226862D01*
X92686587Y-96264184D01*
X92690263Y-96301506D01*
X92690263Y-96301516D01*
X92701260Y-96413169D01*
X92739429Y-96538997D01*
X92744717Y-96556430D01*
X92815289Y-96688460D01*
X92846109Y-96726014D01*
X92910262Y-96804185D01*
X92939266Y-96827988D01*
X93843612Y-97732335D01*
X93843612Y-97794472D01*
X93883386Y-97994431D01*
X93961407Y-98182789D01*
X94074675Y-98352307D01*
X94218838Y-98496470D01*
X94388356Y-98609738D01*
X94576714Y-98687759D01*
X94776673Y-98727533D01*
X94980551Y-98727533D01*
X95180510Y-98687759D01*
X95368868Y-98609738D01*
X95538386Y-98496470D01*
X95682549Y-98352307D01*
X95795817Y-98182789D01*
X95870960Y-98001380D01*
X95901898Y-97995226D01*
X96090256Y-97917205D01*
X96259774Y-97803937D01*
X96403937Y-97659774D01*
X96517205Y-97490256D01*
X96595226Y-97301898D01*
X96635000Y-97101939D01*
X96635000Y-96898061D01*
X96595226Y-96698102D01*
X96517205Y-96509744D01*
X96403937Y-96340226D01*
X96259774Y-96196063D01*
X96090256Y-96082795D01*
X95901898Y-96004774D01*
X95701939Y-95965000D01*
X95639802Y-95965000D01*
X95210000Y-95535199D01*
X95210000Y-87478711D01*
X95253937Y-87434774D01*
X95367205Y-87265256D01*
X95445226Y-87076898D01*
X95485000Y-86876939D01*
X95485000Y-86787000D01*
X98115000Y-86787000D01*
X98115000Y-86951939D01*
X98154774Y-87151898D01*
X98232795Y-87340256D01*
X98346063Y-87509774D01*
X98390000Y-87553711D01*
X98390001Y-88462668D01*
X98386324Y-88500000D01*
X98390001Y-88537333D01*
X98399258Y-88631314D01*
X98400998Y-88648985D01*
X98444454Y-88792246D01*
X98515026Y-88924276D01*
X98553138Y-88970715D01*
X98610000Y-89040001D01*
X98638998Y-89063799D01*
X100090000Y-90514802D01*
X100090001Y-98087668D01*
X100086324Y-98125000D01*
X100090001Y-98162333D01*
X100100998Y-98273986D01*
X100110036Y-98303780D01*
X100144454Y-98417246D01*
X100215026Y-98549276D01*
X100266855Y-98612429D01*
X100310000Y-98665001D01*
X100338998Y-98688799D01*
X104565000Y-102914803D01*
X104565000Y-102976939D01*
X104604774Y-103176898D01*
X104682795Y-103365256D01*
X104796063Y-103534774D01*
X104940226Y-103678937D01*
X105109744Y-103792205D01*
X105298102Y-103870226D01*
X105498061Y-103910000D01*
X105701939Y-103910000D01*
X105901898Y-103870226D01*
X106090256Y-103792205D01*
X106259774Y-103678937D01*
X106403937Y-103534774D01*
X106517205Y-103365256D01*
X106595226Y-103176898D01*
X106608031Y-103112521D01*
X106765742Y-103047195D01*
X106935260Y-102933927D01*
X107079423Y-102789764D01*
X107192691Y-102620246D01*
X107212911Y-102571429D01*
X110300000Y-102571429D01*
X110300000Y-102888571D01*
X110361871Y-103199620D01*
X110483237Y-103492621D01*
X110659431Y-103756315D01*
X110883685Y-103980569D01*
X111147379Y-104156763D01*
X111440380Y-104278129D01*
X111751429Y-104340000D01*
X112068571Y-104340000D01*
X112379620Y-104278129D01*
X112672621Y-104156763D01*
X112936315Y-103980569D01*
X113160569Y-103756315D01*
X113336763Y-103492621D01*
X113458129Y-103199620D01*
X113520000Y-102888571D01*
X113520000Y-102571429D01*
X113458129Y-102260380D01*
X113336763Y-101967379D01*
X113160569Y-101703685D01*
X112936315Y-101479431D01*
X112672621Y-101303237D01*
X112379620Y-101181871D01*
X112068571Y-101120000D01*
X111751429Y-101120000D01*
X111440380Y-101181871D01*
X111147379Y-101303237D01*
X110883685Y-101479431D01*
X110659431Y-101703685D01*
X110483237Y-101967379D01*
X110361871Y-102260380D01*
X110300000Y-102571429D01*
X107212911Y-102571429D01*
X107270712Y-102431888D01*
X107310486Y-102231929D01*
X107310486Y-102028051D01*
X107270712Y-101828092D01*
X107192691Y-101639734D01*
X107079423Y-101470216D01*
X106935260Y-101326053D01*
X106765742Y-101212785D01*
X106577384Y-101134764D01*
X106377425Y-101094990D01*
X106315288Y-101094990D01*
X105618359Y-100398061D01*
X112865000Y-100398061D01*
X112865000Y-100601939D01*
X112904774Y-100801898D01*
X112982795Y-100990256D01*
X113096063Y-101159774D01*
X113240226Y-101303937D01*
X113409744Y-101417205D01*
X113598102Y-101495226D01*
X113798061Y-101535000D01*
X113860199Y-101535000D01*
X114083629Y-101758431D01*
X114054774Y-101828092D01*
X114015000Y-102028051D01*
X114015000Y-102231929D01*
X114054774Y-102431888D01*
X114132795Y-102620246D01*
X114246063Y-102789764D01*
X114390226Y-102933927D01*
X114559744Y-103047195D01*
X114748102Y-103125216D01*
X114948061Y-103164990D01*
X115151939Y-103164990D01*
X115351898Y-103125216D01*
X115384394Y-103111756D01*
X115401871Y-103199620D01*
X115523237Y-103492621D01*
X115699431Y-103756315D01*
X115923685Y-103980569D01*
X116187379Y-104156763D01*
X116480380Y-104278129D01*
X116791429Y-104340000D01*
X117108571Y-104340000D01*
X117419620Y-104278129D01*
X117712621Y-104156763D01*
X117976315Y-103980569D01*
X118200569Y-103756315D01*
X118376763Y-103492621D01*
X118498129Y-103199620D01*
X118560000Y-102888571D01*
X118560000Y-102571429D01*
X118498129Y-102260380D01*
X118376763Y-101967379D01*
X118200569Y-101703685D01*
X117976315Y-101479431D01*
X117841952Y-101389653D01*
X121098048Y-101389653D01*
X120963685Y-101479431D01*
X120739431Y-101703685D01*
X120563237Y-101967379D01*
X120441871Y-102260380D01*
X120380000Y-102571429D01*
X120380000Y-102888571D01*
X120441871Y-103199620D01*
X120563237Y-103492621D01*
X120739431Y-103756315D01*
X120963685Y-103980569D01*
X121227379Y-104156763D01*
X121520380Y-104278129D01*
X121831429Y-104340000D01*
X122148571Y-104340000D01*
X122459620Y-104278129D01*
X122716673Y-104171653D01*
X124527952Y-104171653D01*
X124683962Y-104487214D01*
X125058745Y-104678020D01*
X125463551Y-104792044D01*
X125882824Y-104824902D01*
X126300451Y-104775334D01*
X126700383Y-104645243D01*
X126996038Y-104487214D01*
X127152048Y-104171653D01*
X137667952Y-104171653D01*
X137823962Y-104487214D01*
X138198745Y-104678020D01*
X138603551Y-104792044D01*
X139022824Y-104824902D01*
X139440451Y-104775334D01*
X139840383Y-104645243D01*
X140136038Y-104487214D01*
X140292048Y-104171653D01*
X138980000Y-102859605D01*
X137667952Y-104171653D01*
X127152048Y-104171653D01*
X125840000Y-102859605D01*
X124527952Y-104171653D01*
X122716673Y-104171653D01*
X122752621Y-104156763D01*
X123016315Y-103980569D01*
X123240569Y-103756315D01*
X123416763Y-103492621D01*
X123538129Y-103199620D01*
X123600000Y-102888571D01*
X123600000Y-102571429D01*
X123538129Y-102260380D01*
X123416763Y-101967379D01*
X123240569Y-101703685D01*
X123016315Y-101479431D01*
X122881952Y-101389653D01*
X124080008Y-101389653D01*
X124123945Y-101433590D01*
X124162914Y-101459628D01*
X124032786Y-101523962D01*
X123841980Y-101898745D01*
X123727956Y-102303551D01*
X123695098Y-102722824D01*
X123744666Y-103140451D01*
X123874757Y-103540383D01*
X124032786Y-103836038D01*
X124348347Y-103992048D01*
X125660395Y-102680000D01*
X126019605Y-102680000D01*
X127331653Y-103992048D01*
X127647214Y-103836038D01*
X127838020Y-103461255D01*
X127952044Y-103056449D01*
X127978189Y-102722824D01*
X136835098Y-102722824D01*
X136884666Y-103140451D01*
X137014757Y-103540383D01*
X137172786Y-103836038D01*
X137488347Y-103992048D01*
X138800395Y-102680000D01*
X139159605Y-102680000D01*
X140471653Y-103992048D01*
X140787214Y-103836038D01*
X140978020Y-103461255D01*
X141092044Y-103056449D01*
X141124902Y-102637176D01*
X141075334Y-102219549D01*
X140945243Y-101819617D01*
X140787214Y-101523962D01*
X140471653Y-101367952D01*
X139159605Y-102680000D01*
X138800395Y-102680000D01*
X137488347Y-101367952D01*
X137172786Y-101523962D01*
X136981980Y-101898745D01*
X136867956Y-102303551D01*
X136835098Y-102722824D01*
X127978189Y-102722824D01*
X127984902Y-102637176D01*
X127935334Y-102219549D01*
X127805243Y-101819617D01*
X127647214Y-101523962D01*
X127331653Y-101367952D01*
X126019605Y-102680000D01*
X125660395Y-102680000D01*
X125646253Y-102665858D01*
X125825858Y-102486253D01*
X125840000Y-102500395D01*
X127152048Y-101188347D01*
X126996038Y-100872786D01*
X126621255Y-100681980D01*
X126216449Y-100567956D01*
X125818719Y-100536786D01*
X125818719Y-100527714D01*
X125778945Y-100327755D01*
X125700924Y-100139397D01*
X125587656Y-99969879D01*
X125443493Y-99825716D01*
X125273975Y-99712448D01*
X125085617Y-99634427D01*
X124885658Y-99594653D01*
X124681780Y-99594653D01*
X124481821Y-99634427D01*
X124293463Y-99712448D01*
X124123945Y-99825716D01*
X124080008Y-99869653D01*
X117028374Y-99869653D01*
X116884774Y-99726053D01*
X116715256Y-99612785D01*
X116526898Y-99534764D01*
X116326939Y-99494990D01*
X116123061Y-99494990D01*
X115923102Y-99534764D01*
X115734744Y-99612785D01*
X115565226Y-99726053D01*
X115421063Y-99870216D01*
X115307795Y-100039734D01*
X115229774Y-100228092D01*
X115190000Y-100428051D01*
X115190000Y-100631929D01*
X115210676Y-100735874D01*
X114935000Y-100460199D01*
X114935000Y-100398061D01*
X114895226Y-100198102D01*
X114817205Y-100009744D01*
X114703937Y-99840226D01*
X114559774Y-99696063D01*
X114390256Y-99582795D01*
X114201898Y-99504774D01*
X114001939Y-99465000D01*
X113798061Y-99465000D01*
X113598102Y-99504774D01*
X113409744Y-99582795D01*
X113240226Y-99696063D01*
X113096063Y-99840226D01*
X112982795Y-100009744D01*
X112904774Y-100198102D01*
X112865000Y-100398061D01*
X105618359Y-100398061D01*
X104440298Y-99220000D01*
X127471928Y-99220000D01*
X127471928Y-100720000D01*
X127484188Y-100844482D01*
X127520498Y-100964180D01*
X127579463Y-101074494D01*
X127658815Y-101171185D01*
X127755506Y-101250537D01*
X127865820Y-101309502D01*
X127985518Y-101345812D01*
X128110000Y-101358072D01*
X129710000Y-101358072D01*
X129834482Y-101345812D01*
X129954180Y-101309502D01*
X130064494Y-101250537D01*
X130161185Y-101171185D01*
X130240537Y-101074494D01*
X130299502Y-100964180D01*
X130317023Y-100906419D01*
X130495241Y-101084637D01*
X130730273Y-101241680D01*
X130991426Y-101349853D01*
X131268665Y-101405000D01*
X131551335Y-101405000D01*
X131828574Y-101349853D01*
X132089727Y-101241680D01*
X132324759Y-101084637D01*
X132410000Y-100999396D01*
X132495241Y-101084637D01*
X132730273Y-101241680D01*
X132991426Y-101349853D01*
X133268665Y-101405000D01*
X133551335Y-101405000D01*
X133828574Y-101349853D01*
X134089727Y-101241680D01*
X134324759Y-101084637D01*
X134446694Y-100962702D01*
X135096903Y-100962702D01*
X135168486Y-101206671D01*
X135423996Y-101327571D01*
X135698184Y-101396300D01*
X135980512Y-101410217D01*
X136260130Y-101368787D01*
X136526292Y-101273603D01*
X136651514Y-101206671D01*
X136656890Y-101188347D01*
X137667952Y-101188347D01*
X138980000Y-102500395D01*
X140292048Y-101188347D01*
X140136038Y-100872786D01*
X139761255Y-100681980D01*
X139356449Y-100567956D01*
X138937176Y-100535098D01*
X138519549Y-100584666D01*
X138119617Y-100714757D01*
X137823962Y-100872786D01*
X137667952Y-101188347D01*
X136656890Y-101188347D01*
X136723097Y-100962702D01*
X135910000Y-100149605D01*
X135096903Y-100962702D01*
X134446694Y-100962702D01*
X134524637Y-100884759D01*
X134658692Y-100684131D01*
X134673329Y-100711514D01*
X134917298Y-100783097D01*
X135730395Y-99970000D01*
X136089605Y-99970000D01*
X136902702Y-100783097D01*
X137146671Y-100711514D01*
X137267571Y-100456004D01*
X137336300Y-100181816D01*
X137350217Y-99899488D01*
X137308787Y-99619870D01*
X137213603Y-99353708D01*
X137146671Y-99228486D01*
X136902702Y-99156903D01*
X136089605Y-99970000D01*
X135730395Y-99970000D01*
X134917298Y-99156903D01*
X134673329Y-99228486D01*
X134659676Y-99257341D01*
X134524637Y-99055241D01*
X134446694Y-98977298D01*
X135096903Y-98977298D01*
X135910000Y-99790395D01*
X136723097Y-98977298D01*
X136651514Y-98733329D01*
X136396004Y-98612429D01*
X136121816Y-98543700D01*
X135839488Y-98529783D01*
X135559870Y-98571213D01*
X135293708Y-98666397D01*
X135168486Y-98733329D01*
X135096903Y-98977298D01*
X134446694Y-98977298D01*
X134324759Y-98855363D01*
X134089727Y-98698320D01*
X133828574Y-98590147D01*
X133551335Y-98535000D01*
X133268665Y-98535000D01*
X132991426Y-98590147D01*
X132730273Y-98698320D01*
X132495241Y-98855363D01*
X132410000Y-98940604D01*
X132324759Y-98855363D01*
X132089727Y-98698320D01*
X131828574Y-98590147D01*
X131551335Y-98535000D01*
X131268665Y-98535000D01*
X130991426Y-98590147D01*
X130730273Y-98698320D01*
X130495241Y-98855363D01*
X130317023Y-99033581D01*
X130299502Y-98975820D01*
X130240537Y-98865506D01*
X130161185Y-98768815D01*
X130064494Y-98689463D01*
X129954180Y-98630498D01*
X129834482Y-98594188D01*
X129710000Y-98581928D01*
X128110000Y-98581928D01*
X127985518Y-98594188D01*
X127865820Y-98630498D01*
X127755506Y-98689463D01*
X127658815Y-98768815D01*
X127579463Y-98865506D01*
X127520498Y-98975820D01*
X127484188Y-99095518D01*
X127471928Y-99220000D01*
X104440298Y-99220000D01*
X102785000Y-97564703D01*
X102785000Y-90423290D01*
X103527569Y-91165859D01*
X103587795Y-91311256D01*
X103701063Y-91480774D01*
X103845226Y-91624937D01*
X104014744Y-91738205D01*
X104203102Y-91816226D01*
X104403061Y-91856000D01*
X104606939Y-91856000D01*
X104806898Y-91816226D01*
X104995256Y-91738205D01*
X105164774Y-91624937D01*
X105308937Y-91480774D01*
X105422205Y-91311256D01*
X105500226Y-91122898D01*
X105540000Y-90922939D01*
X105540000Y-90719061D01*
X105500226Y-90519102D01*
X105422205Y-90330744D01*
X105308937Y-90161226D01*
X105164774Y-90017063D01*
X104995256Y-89903795D01*
X104849859Y-89843569D01*
X100229630Y-85223341D01*
X100200344Y-85187656D01*
X100198380Y-85186044D01*
X100235000Y-85001939D01*
X100235000Y-84798061D01*
X100195226Y-84598102D01*
X100117205Y-84409744D01*
X100003937Y-84240226D01*
X99859774Y-84096063D01*
X99690256Y-83982795D01*
X99585000Y-83939196D01*
X99585000Y-82215439D01*
X99705801Y-82296156D01*
X100039750Y-82434482D01*
X100394268Y-82505000D01*
X100755732Y-82505000D01*
X101110250Y-82434482D01*
X101340001Y-82339316D01*
X101340001Y-82815680D01*
X101336325Y-82853003D01*
X101340001Y-82890325D01*
X101340001Y-82890335D01*
X101350998Y-83001988D01*
X101382246Y-83105001D01*
X101394455Y-83145249D01*
X101465027Y-83277279D01*
X101478440Y-83293622D01*
X101560000Y-83393004D01*
X101589004Y-83416807D01*
X112358198Y-94186002D01*
X112381998Y-94215002D01*
X112497723Y-94309975D01*
X112629752Y-94380547D01*
X112773013Y-94424004D01*
X112884666Y-94435001D01*
X112884675Y-94435001D01*
X112921998Y-94438677D01*
X112959321Y-94435001D01*
X113065198Y-94435001D01*
X112410200Y-95090000D01*
X112373061Y-95090000D01*
X112173102Y-95129774D01*
X111984744Y-95207795D01*
X111815226Y-95321063D01*
X111671063Y-95465226D01*
X111557795Y-95634744D01*
X111479774Y-95823102D01*
X111440000Y-96023061D01*
X111440000Y-96226939D01*
X111479774Y-96426898D01*
X111557795Y-96615256D01*
X111671063Y-96784774D01*
X111815226Y-96928937D01*
X111984744Y-97042205D01*
X112173102Y-97120226D01*
X112373061Y-97160000D01*
X112576939Y-97160000D01*
X112776898Y-97120226D01*
X112965256Y-97042205D01*
X113134774Y-96928937D01*
X113278937Y-96784774D01*
X113392205Y-96615256D01*
X113470226Y-96426898D01*
X113510000Y-96226939D01*
X113510000Y-96139802D01*
X114214802Y-95435001D01*
X114276939Y-95435001D01*
X114476898Y-95395227D01*
X114665256Y-95317206D01*
X114834774Y-95203938D01*
X114978937Y-95059775D01*
X115092205Y-94890257D01*
X115170226Y-94701899D01*
X115210000Y-94501940D01*
X115210000Y-94435001D01*
X129583202Y-94435001D01*
X131438200Y-96290000D01*
X128314802Y-96290000D01*
X127788802Y-95764001D01*
X127765000Y-95734998D01*
X127649275Y-95640025D01*
X127517246Y-95569453D01*
X127373985Y-95525996D01*
X127262332Y-95514999D01*
X127262321Y-95514999D01*
X127224999Y-95511323D01*
X127187677Y-95514999D01*
X125663283Y-95514999D01*
X125540256Y-95432795D01*
X125351898Y-95354774D01*
X125151939Y-95315000D01*
X124948061Y-95315000D01*
X124748102Y-95354774D01*
X124559744Y-95432795D01*
X124390226Y-95546063D01*
X124246063Y-95690226D01*
X124132795Y-95859744D01*
X124054774Y-96048102D01*
X124015000Y-96248061D01*
X124015000Y-96451939D01*
X124054774Y-96651898D01*
X124132795Y-96840256D01*
X124246063Y-97009774D01*
X124390226Y-97153937D01*
X124559744Y-97267205D01*
X124748102Y-97345226D01*
X124948061Y-97385000D01*
X125151939Y-97385000D01*
X125351898Y-97345226D01*
X125540256Y-97267205D01*
X125709774Y-97153937D01*
X125753341Y-97110370D01*
X125769245Y-97105546D01*
X125901227Y-97034999D01*
X126910198Y-97034999D01*
X127436201Y-97561002D01*
X127459999Y-97590001D01*
X127488997Y-97613799D01*
X127575723Y-97684974D01*
X127695512Y-97749003D01*
X127707753Y-97755546D01*
X127851014Y-97799003D01*
X127962667Y-97810000D01*
X127962677Y-97810000D01*
X128000000Y-97813676D01*
X128037323Y-97810000D01*
X131496289Y-97810000D01*
X131540226Y-97853937D01*
X131709744Y-97967205D01*
X131898102Y-98045226D01*
X132098061Y-98085000D01*
X132301939Y-98085000D01*
X132501898Y-98045226D01*
X132690256Y-97967205D01*
X132859774Y-97853937D01*
X133003937Y-97709774D01*
X133054317Y-97634375D01*
X133060670Y-97635001D01*
X133060679Y-97635001D01*
X133098002Y-97638677D01*
X133135325Y-97635001D01*
X136762677Y-97635001D01*
X136799999Y-97638677D01*
X136837321Y-97635001D01*
X136837332Y-97635001D01*
X136948985Y-97624004D01*
X137092246Y-97580547D01*
X137108271Y-97571982D01*
X137215226Y-97678937D01*
X137384744Y-97792205D01*
X137538321Y-97855819D01*
X137515000Y-97973061D01*
X137515000Y-98176939D01*
X137554774Y-98376898D01*
X137632795Y-98565256D01*
X137746063Y-98734774D01*
X137890226Y-98878937D01*
X138059744Y-98992205D01*
X138248102Y-99070226D01*
X138448061Y-99110000D01*
X138651939Y-99110000D01*
X138851898Y-99070226D01*
X139040256Y-98992205D01*
X139209774Y-98878937D01*
X139353937Y-98734774D01*
X139467205Y-98565256D01*
X139545226Y-98376898D01*
X139585000Y-98176939D01*
X139585000Y-97973061D01*
X139545226Y-97773102D01*
X139467205Y-97584744D01*
X139360000Y-97424300D01*
X139360000Y-91928711D01*
X139403937Y-91884774D01*
X139517205Y-91715256D01*
X139595226Y-91526898D01*
X139635000Y-91326939D01*
X139635000Y-91123061D01*
X139595226Y-90923102D01*
X139517205Y-90734744D01*
X139403937Y-90565226D01*
X139259774Y-90421063D01*
X139090256Y-90307795D01*
X138901898Y-90229774D01*
X138701939Y-90190000D01*
X138498061Y-90190000D01*
X138298102Y-90229774D01*
X138109744Y-90307795D01*
X137940226Y-90421063D01*
X137796063Y-90565226D01*
X137773619Y-90598816D01*
X133059801Y-85885000D01*
X133446289Y-85885000D01*
X133490226Y-85928937D01*
X133659744Y-86042205D01*
X133848102Y-86120226D01*
X134048061Y-86160000D01*
X134251939Y-86160000D01*
X134451898Y-86120226D01*
X134640256Y-86042205D01*
X134809774Y-85928937D01*
X134953937Y-85784774D01*
X135067205Y-85615256D01*
X135145226Y-85426898D01*
X135185000Y-85226939D01*
X135185000Y-85085000D01*
X140471289Y-85085000D01*
X140515226Y-85128937D01*
X140684744Y-85242205D01*
X140873102Y-85320226D01*
X141073061Y-85360000D01*
X141276939Y-85360000D01*
X141467835Y-85322029D01*
X141467834Y-90506676D01*
X141337579Y-90560630D01*
X141168061Y-90673898D01*
X141023898Y-90818061D01*
X140910630Y-90987579D01*
X140832609Y-91175937D01*
X140792835Y-91375896D01*
X140792835Y-91579774D01*
X140832609Y-91779733D01*
X140910630Y-91968091D01*
X141023898Y-92137609D01*
X141168061Y-92281772D01*
X141337579Y-92395040D01*
X141525937Y-92473061D01*
X141725896Y-92512835D01*
X141929774Y-92512835D01*
X142129733Y-92473061D01*
X142318091Y-92395040D01*
X142487609Y-92281772D01*
X142631772Y-92137609D01*
X142745040Y-91968091D01*
X142823061Y-91779733D01*
X142862835Y-91579774D01*
X142862835Y-91502061D01*
X142933380Y-91370083D01*
X142976837Y-91226822D01*
X142987834Y-91115169D01*
X142987834Y-91115159D01*
X142991510Y-91077837D01*
X142987834Y-91040514D01*
X142987834Y-84342154D01*
X142991510Y-84304831D01*
X142987834Y-84267508D01*
X142987834Y-84267499D01*
X142976837Y-84155846D01*
X142933380Y-84012585D01*
X142862808Y-83880556D01*
X142839720Y-83852423D01*
X142791633Y-83793828D01*
X142791629Y-83793824D01*
X142767835Y-83764831D01*
X142738842Y-83741037D01*
X141248598Y-82250794D01*
X141263486Y-82242836D01*
X141353103Y-82029904D01*
X144440001Y-85116803D01*
X144440000Y-89685198D01*
X144138997Y-89986202D01*
X144110000Y-90009999D01*
X144086202Y-90038997D01*
X144086201Y-90038998D01*
X144015026Y-90125724D01*
X143944454Y-90257754D01*
X143914180Y-90357558D01*
X143900998Y-90401014D01*
X143892352Y-90488799D01*
X143886324Y-90550000D01*
X143890001Y-90587332D01*
X143890001Y-90921288D01*
X143846063Y-90965226D01*
X143732795Y-91134744D01*
X143654774Y-91323102D01*
X143615000Y-91523061D01*
X143615000Y-91726939D01*
X143654774Y-91926898D01*
X143732795Y-92115256D01*
X143846063Y-92284774D01*
X143990226Y-92428937D01*
X144159744Y-92542205D01*
X144348102Y-92620226D01*
X144548061Y-92660000D01*
X144751939Y-92660000D01*
X144890010Y-92632536D01*
X144890010Y-100190000D01*
X142978711Y-100190000D01*
X142934774Y-100146063D01*
X142765256Y-100032795D01*
X142576898Y-99954774D01*
X142376939Y-99915000D01*
X142173061Y-99915000D01*
X141973102Y-99954774D01*
X141784744Y-100032795D01*
X141615226Y-100146063D01*
X141471063Y-100290226D01*
X141357795Y-100459744D01*
X141279774Y-100648102D01*
X141240000Y-100848061D01*
X141240000Y-101051939D01*
X141279774Y-101251898D01*
X141357795Y-101440256D01*
X141471063Y-101609774D01*
X141615226Y-101753937D01*
X141784744Y-101867205D01*
X141973102Y-101945226D01*
X142173061Y-101985000D01*
X142376939Y-101985000D01*
X142576898Y-101945226D01*
X142765256Y-101867205D01*
X142934774Y-101753937D01*
X142978711Y-101710000D01*
X145512678Y-101710000D01*
X145521000Y-101710820D01*
X145521000Y-110200053D01*
X145474406Y-110675255D01*
X145346838Y-111097781D01*
X145139631Y-111487482D01*
X144860676Y-111829513D01*
X144520601Y-112110849D01*
X144132356Y-112320771D01*
X143710737Y-112451285D01*
X143237726Y-112501000D01*
X84291947Y-112501000D01*
X83816745Y-112454406D01*
X83394219Y-112326838D01*
X83004518Y-112119631D01*
X82662487Y-111840676D01*
X82381151Y-111500601D01*
X82171229Y-111112356D01*
X82040715Y-110690737D01*
X81991000Y-110217726D01*
X81991000Y-109504872D01*
X82515000Y-109504872D01*
X82515000Y-109945128D01*
X82600890Y-110376925D01*
X82769369Y-110783669D01*
X83013962Y-111149729D01*
X83325271Y-111461038D01*
X83691331Y-111705631D01*
X84098075Y-111874110D01*
X84529872Y-111960000D01*
X84970128Y-111960000D01*
X85401925Y-111874110D01*
X85808669Y-111705631D01*
X86174729Y-111461038D01*
X86486038Y-111149729D01*
X86730631Y-110783669D01*
X86899110Y-110376925D01*
X86959877Y-110071429D01*
X95040000Y-110071429D01*
X95040000Y-110388571D01*
X95101871Y-110699620D01*
X95223237Y-110992621D01*
X95399431Y-111256315D01*
X95623685Y-111480569D01*
X95887379Y-111656763D01*
X96180380Y-111778129D01*
X96491429Y-111840000D01*
X96808571Y-111840000D01*
X97119620Y-111778129D01*
X97412621Y-111656763D01*
X97676315Y-111480569D01*
X97900569Y-111256315D01*
X98076763Y-110992621D01*
X98198129Y-110699620D01*
X98260000Y-110388571D01*
X98260000Y-110071429D01*
X98198129Y-109760380D01*
X98076763Y-109467379D01*
X97900569Y-109203685D01*
X97676315Y-108979431D01*
X97412621Y-108803237D01*
X97119620Y-108681871D01*
X96808571Y-108620000D01*
X96491429Y-108620000D01*
X96180380Y-108681871D01*
X95887379Y-108803237D01*
X95623685Y-108979431D01*
X95399431Y-109203685D01*
X95223237Y-109467379D01*
X95101871Y-109760380D01*
X95040000Y-110071429D01*
X86959877Y-110071429D01*
X86985000Y-109945128D01*
X86985000Y-109504872D01*
X86899110Y-109073075D01*
X86730631Y-108666331D01*
X86486038Y-108300271D01*
X86174729Y-107988962D01*
X85808669Y-107744369D01*
X85401925Y-107575890D01*
X84970128Y-107490000D01*
X84529872Y-107490000D01*
X84098075Y-107575890D01*
X83691331Y-107744369D01*
X83325271Y-107988962D01*
X83013962Y-108300271D01*
X82769369Y-108666331D01*
X82600890Y-109073075D01*
X82515000Y-109504872D01*
X81991000Y-109504872D01*
X81991000Y-106381429D01*
X95040000Y-106381429D01*
X95040000Y-106698571D01*
X95101871Y-107009620D01*
X95223237Y-107302621D01*
X95399431Y-107566315D01*
X95623685Y-107790569D01*
X95887379Y-107966763D01*
X96180380Y-108088129D01*
X96491429Y-108150000D01*
X96808571Y-108150000D01*
X97007157Y-108110499D01*
X103606590Y-108110499D01*
X103614501Y-108190818D01*
X103614501Y-108271532D01*
X103630248Y-108350700D01*
X103638159Y-108431015D01*
X103661585Y-108508242D01*
X103677333Y-108587411D01*
X103708222Y-108661982D01*
X103731649Y-108739213D01*
X103769695Y-108810391D01*
X103800583Y-108884962D01*
X103845427Y-108952075D01*
X103883471Y-109023251D01*
X103934670Y-109085637D01*
X103979514Y-109152751D01*
X104036590Y-109209827D01*
X104087788Y-109272212D01*
X104150173Y-109323410D01*
X104207249Y-109380486D01*
X104274363Y-109425330D01*
X104336749Y-109476529D01*
X104407925Y-109514573D01*
X104475038Y-109559417D01*
X104549609Y-109590305D01*
X104620787Y-109628351D01*
X104698018Y-109651778D01*
X104772589Y-109682667D01*
X104851758Y-109698415D01*
X104928985Y-109721841D01*
X105009300Y-109729752D01*
X105088468Y-109745499D01*
X105169182Y-109745499D01*
X105249501Y-109753410D01*
X105329820Y-109745499D01*
X105410534Y-109745499D01*
X105489702Y-109729752D01*
X105570017Y-109721841D01*
X105647244Y-109698415D01*
X105689552Y-109689999D01*
X110391024Y-109689999D01*
X110361871Y-109760380D01*
X110300000Y-110071429D01*
X110300000Y-110388571D01*
X110361871Y-110699620D01*
X110483237Y-110992621D01*
X110659431Y-111256315D01*
X110883685Y-111480569D01*
X111147379Y-111656763D01*
X111440380Y-111778129D01*
X111751429Y-111840000D01*
X112068571Y-111840000D01*
X112379620Y-111778129D01*
X112672621Y-111656763D01*
X112936315Y-111480569D01*
X113160569Y-111256315D01*
X113336763Y-110992621D01*
X113458129Y-110699620D01*
X113520000Y-110388571D01*
X113520000Y-110071429D01*
X113458129Y-109760380D01*
X113428976Y-109689999D01*
X114097761Y-109689999D01*
X115850676Y-111442915D01*
X116037247Y-111596030D01*
X116321285Y-111747852D01*
X116629483Y-111841342D01*
X116950000Y-111872911D01*
X117270516Y-111841342D01*
X117578714Y-111747852D01*
X117862752Y-111596030D01*
X118111713Y-111391713D01*
X118316030Y-111142752D01*
X118467852Y-110858714D01*
X118561342Y-110550516D01*
X118592911Y-110230000D01*
X118577293Y-110071429D01*
X120380000Y-110071429D01*
X120380000Y-110388571D01*
X120441871Y-110699620D01*
X120563237Y-110992621D01*
X120739431Y-111256315D01*
X120963685Y-111480569D01*
X121227379Y-111656763D01*
X121520380Y-111778129D01*
X121831429Y-111840000D01*
X122148571Y-111840000D01*
X122459620Y-111778129D01*
X122752621Y-111656763D01*
X123016315Y-111480569D01*
X123240569Y-111256315D01*
X123416763Y-110992621D01*
X123538129Y-110699620D01*
X123600000Y-110388571D01*
X123600000Y-110071429D01*
X123538129Y-109760380D01*
X123442649Y-109529872D01*
X140540000Y-109529872D01*
X140540000Y-109970128D01*
X140625890Y-110401925D01*
X140794369Y-110808669D01*
X141038962Y-111174729D01*
X141350271Y-111486038D01*
X141716331Y-111730631D01*
X142123075Y-111899110D01*
X142554872Y-111985000D01*
X142995128Y-111985000D01*
X143426925Y-111899110D01*
X143833669Y-111730631D01*
X144199729Y-111486038D01*
X144511038Y-111174729D01*
X144755631Y-110808669D01*
X144924110Y-110401925D01*
X145010000Y-109970128D01*
X145010000Y-109529872D01*
X144924110Y-109098075D01*
X144755631Y-108691331D01*
X144511038Y-108325271D01*
X144199729Y-108013962D01*
X143833669Y-107769369D01*
X143426925Y-107600890D01*
X142995128Y-107515000D01*
X142554872Y-107515000D01*
X142123075Y-107600890D01*
X141716331Y-107769369D01*
X141350271Y-108013962D01*
X141038962Y-108325271D01*
X140794369Y-108691331D01*
X140625890Y-109098075D01*
X140540000Y-109529872D01*
X123442649Y-109529872D01*
X123416763Y-109467379D01*
X123240569Y-109203685D01*
X123016315Y-108979431D01*
X122752621Y-108803237D01*
X122459620Y-108681871D01*
X122148571Y-108620000D01*
X121831429Y-108620000D01*
X121520380Y-108681871D01*
X121227379Y-108803237D01*
X120963685Y-108979431D01*
X120739431Y-109203685D01*
X120563237Y-109467379D01*
X120441871Y-109760380D01*
X120380000Y-110071429D01*
X118577293Y-110071429D01*
X118561342Y-109909483D01*
X118467852Y-109601285D01*
X118316030Y-109317247D01*
X118162915Y-109130676D01*
X115987924Y-106955686D01*
X115936713Y-106893285D01*
X115687751Y-106688968D01*
X115403714Y-106537147D01*
X115095515Y-106443656D01*
X114855321Y-106419999D01*
X114855318Y-106419999D01*
X114774999Y-106412088D01*
X114694680Y-106419999D01*
X105385323Y-106419999D01*
X105305001Y-106412088D01*
X105224679Y-106419999D01*
X104984485Y-106443656D01*
X104676286Y-106537147D01*
X104392249Y-106688968D01*
X104209091Y-106839281D01*
X104207249Y-106840512D01*
X104205682Y-106842079D01*
X104143287Y-106893285D01*
X104092081Y-106955680D01*
X103979514Y-107068247D01*
X103934669Y-107135362D01*
X103883471Y-107197747D01*
X103845427Y-107268923D01*
X103800583Y-107336036D01*
X103769695Y-107410607D01*
X103731649Y-107481785D01*
X103708222Y-107559016D01*
X103677333Y-107633587D01*
X103661585Y-107712756D01*
X103638159Y-107789983D01*
X103630248Y-107870298D01*
X103614501Y-107949466D01*
X103614501Y-108030180D01*
X103606590Y-108110499D01*
X97007157Y-108110499D01*
X97119620Y-108088129D01*
X97412621Y-107966763D01*
X97676315Y-107790569D01*
X97900569Y-107566315D01*
X98076763Y-107302621D01*
X98198129Y-107009620D01*
X98260000Y-106698571D01*
X98260000Y-106381429D01*
X98198129Y-106070380D01*
X98076763Y-105777379D01*
X97900569Y-105513685D01*
X97676315Y-105289431D01*
X97412621Y-105113237D01*
X97119620Y-104991871D01*
X96808571Y-104930000D01*
X96491429Y-104930000D01*
X96180380Y-104991871D01*
X95887379Y-105113237D01*
X95623685Y-105289431D01*
X95399431Y-105513685D01*
X95223237Y-105777379D01*
X95101871Y-106070380D01*
X95040000Y-106381429D01*
X81991000Y-106381429D01*
X81991000Y-101029721D01*
X86511000Y-101029721D01*
X86511000Y-101450279D01*
X86593047Y-101862756D01*
X86753988Y-102251302D01*
X86987637Y-102600983D01*
X87285017Y-102898363D01*
X87634698Y-103132012D01*
X88023244Y-103292953D01*
X88435721Y-103375000D01*
X88856279Y-103375000D01*
X89268756Y-103292953D01*
X89657302Y-103132012D01*
X90006983Y-102898363D01*
X90304363Y-102600983D01*
X90324110Y-102571429D01*
X95040000Y-102571429D01*
X95040000Y-102888571D01*
X95101871Y-103199620D01*
X95223237Y-103492621D01*
X95399431Y-103756315D01*
X95623685Y-103980569D01*
X95887379Y-104156763D01*
X96180380Y-104278129D01*
X96491429Y-104340000D01*
X96808571Y-104340000D01*
X97119620Y-104278129D01*
X97412621Y-104156763D01*
X97676315Y-103980569D01*
X97900569Y-103756315D01*
X98076763Y-103492621D01*
X98198129Y-103199620D01*
X98260000Y-102888571D01*
X98260000Y-102571429D01*
X98198129Y-102260380D01*
X98076763Y-101967379D01*
X97900569Y-101703685D01*
X97676315Y-101479431D01*
X97412621Y-101303237D01*
X97119620Y-101181871D01*
X96808571Y-101120000D01*
X96491429Y-101120000D01*
X96180380Y-101181871D01*
X95887379Y-101303237D01*
X95623685Y-101479431D01*
X95399431Y-101703685D01*
X95223237Y-101967379D01*
X95101871Y-102260380D01*
X95040000Y-102571429D01*
X90324110Y-102571429D01*
X90538012Y-102251302D01*
X90698953Y-101862756D01*
X90781000Y-101450279D01*
X90781000Y-101029721D01*
X90698953Y-100617244D01*
X90538012Y-100228698D01*
X90304363Y-99879017D01*
X90006983Y-99581637D01*
X89657302Y-99347988D01*
X89268756Y-99187047D01*
X88856279Y-99105000D01*
X88435721Y-99105000D01*
X88023244Y-99187047D01*
X87634698Y-99347988D01*
X87285017Y-99581637D01*
X86987637Y-99879017D01*
X86753988Y-100228698D01*
X86593047Y-100617244D01*
X86511000Y-101029721D01*
X81991000Y-101029721D01*
X81991000Y-75612240D01*
X83318077Y-76939318D01*
X83369284Y-77001714D01*
X83618246Y-77206031D01*
X83902283Y-77357852D01*
X84210482Y-77451343D01*
X84450676Y-77475000D01*
X84450678Y-77475000D01*
X84530998Y-77482911D01*
X84611317Y-77475000D01*
X85105322Y-77475000D01*
X85345516Y-77451343D01*
X85653715Y-77357852D01*
X85709429Y-77328072D01*
X85875000Y-77328072D01*
X85999482Y-77315812D01*
X86119180Y-77279502D01*
X86229494Y-77220537D01*
X86326185Y-77141185D01*
X86405537Y-77044494D01*
X86464502Y-76934180D01*
X86500812Y-76814482D01*
X86513072Y-76690000D01*
X86513072Y-76524429D01*
X86542852Y-76468715D01*
X86636343Y-76160516D01*
X86667911Y-75840000D01*
X86636343Y-75519484D01*
X86542852Y-75211285D01*
X86513072Y-75155571D01*
X86513072Y-74990000D01*
X86500812Y-74865518D01*
X86464502Y-74745820D01*
X86405537Y-74635506D01*
X86326185Y-74538815D01*
X86229494Y-74459463D01*
X86119180Y-74400498D01*
X86038534Y-74376034D01*
X86122588Y-74300269D01*
X86296641Y-74066920D01*
X86421825Y-73804099D01*
X86466476Y-73656890D01*
X86345155Y-73427000D01*
X85152000Y-73427000D01*
X85152000Y-73447000D01*
X84898000Y-73447000D01*
X84898000Y-73427000D01*
X84878000Y-73427000D01*
X84878000Y-73173000D01*
X84898000Y-73173000D01*
X84898000Y-73153000D01*
X85152000Y-73153000D01*
X85152000Y-73173000D01*
X86345155Y-73173000D01*
X86466476Y-72943110D01*
X86421825Y-72795901D01*
X86297556Y-72535000D01*
X86379047Y-72535000D01*
X87790021Y-73945975D01*
G37*
X87790021Y-73945975D02*
X87790019Y-77734028D01*
X85746341Y-79777706D01*
X85710656Y-79806992D01*
X85593814Y-79949365D01*
X85506993Y-80111797D01*
X85463111Y-80256457D01*
X85453529Y-80288045D01*
X85435476Y-80471336D01*
X85440000Y-80517268D01*
X85440001Y-82704058D01*
X85435476Y-82750000D01*
X85453529Y-82933291D01*
X85480773Y-83023102D01*
X85506994Y-83109540D01*
X85593815Y-83271972D01*
X85710657Y-83414344D01*
X85746336Y-83443625D01*
X87953871Y-85651160D01*
X87983157Y-85686845D01*
X88125529Y-85803687D01*
X88287961Y-85890508D01*
X88360329Y-85912460D01*
X88375333Y-85917012D01*
X88023244Y-85987047D01*
X87634698Y-86147988D01*
X87285017Y-86381637D01*
X86987637Y-86679017D01*
X86753988Y-87028698D01*
X86593047Y-87417244D01*
X86511000Y-87829721D01*
X86511000Y-88250279D01*
X86593047Y-88662756D01*
X86753988Y-89051302D01*
X86987637Y-89400983D01*
X87285017Y-89698363D01*
X87634698Y-89932012D01*
X88023244Y-90092953D01*
X88435721Y-90175000D01*
X88856279Y-90175000D01*
X89268756Y-90092953D01*
X89657302Y-89932012D01*
X90006983Y-89698363D01*
X90304363Y-89400983D01*
X90538012Y-89051302D01*
X90698953Y-88662756D01*
X90781000Y-88250279D01*
X90781000Y-87829721D01*
X90698953Y-87417244D01*
X90538012Y-87028698D01*
X90304363Y-86679017D01*
X90006983Y-86381637D01*
X89657302Y-86147988D01*
X89268756Y-85987047D01*
X89120219Y-85957501D01*
X90740210Y-85957501D01*
X91263368Y-86480659D01*
X91292654Y-86516344D01*
X91435026Y-86633186D01*
X91597458Y-86720007D01*
X91669826Y-86741959D01*
X91773706Y-86773472D01*
X91956998Y-86791524D01*
X92002933Y-86787000D01*
X92415263Y-86787000D01*
X92415263Y-86853939D01*
X92455037Y-87053898D01*
X92533058Y-87242256D01*
X92646326Y-87411774D01*
X92690264Y-87455712D01*
X92690263Y-96226862D01*
X92686587Y-96264184D01*
X92690263Y-96301506D01*
X92690263Y-96301516D01*
X92701260Y-96413169D01*
X92739429Y-96538997D01*
X92744717Y-96556430D01*
X92815289Y-96688460D01*
X92846109Y-96726014D01*
X92910262Y-96804185D01*
X92939266Y-96827988D01*
X93843612Y-97732335D01*
X93843612Y-97794472D01*
X93883386Y-97994431D01*
X93961407Y-98182789D01*
X94074675Y-98352307D01*
X94218838Y-98496470D01*
X94388356Y-98609738D01*
X94576714Y-98687759D01*
X94776673Y-98727533D01*
X94980551Y-98727533D01*
X95180510Y-98687759D01*
X95368868Y-98609738D01*
X95538386Y-98496470D01*
X95682549Y-98352307D01*
X95795817Y-98182789D01*
X95870960Y-98001380D01*
X95901898Y-97995226D01*
X96090256Y-97917205D01*
X96259774Y-97803937D01*
X96403937Y-97659774D01*
X96517205Y-97490256D01*
X96595226Y-97301898D01*
X96635000Y-97101939D01*
X96635000Y-96898061D01*
X96595226Y-96698102D01*
X96517205Y-96509744D01*
X96403937Y-96340226D01*
X96259774Y-96196063D01*
X96090256Y-96082795D01*
X95901898Y-96004774D01*
X95701939Y-95965000D01*
X95639802Y-95965000D01*
X95210000Y-95535199D01*
X95210000Y-87478711D01*
X95253937Y-87434774D01*
X95367205Y-87265256D01*
X95445226Y-87076898D01*
X95485000Y-86876939D01*
X95485000Y-86787000D01*
X98115000Y-86787000D01*
X98115000Y-86951939D01*
X98154774Y-87151898D01*
X98232795Y-87340256D01*
X98346063Y-87509774D01*
X98390000Y-87553711D01*
X98390001Y-88462668D01*
X98386324Y-88500000D01*
X98390001Y-88537333D01*
X98399258Y-88631314D01*
X98400998Y-88648985D01*
X98444454Y-88792246D01*
X98515026Y-88924276D01*
X98553138Y-88970715D01*
X98610000Y-89040001D01*
X98638998Y-89063799D01*
X100090000Y-90514802D01*
X100090001Y-98087668D01*
X100086324Y-98125000D01*
X100090001Y-98162333D01*
X100100998Y-98273986D01*
X100110036Y-98303780D01*
X100144454Y-98417246D01*
X100215026Y-98549276D01*
X100266855Y-98612429D01*
X100310000Y-98665001D01*
X100338998Y-98688799D01*
X104565000Y-102914803D01*
X104565000Y-102976939D01*
X104604774Y-103176898D01*
X104682795Y-103365256D01*
X104796063Y-103534774D01*
X104940226Y-103678937D01*
X105109744Y-103792205D01*
X105298102Y-103870226D01*
X105498061Y-103910000D01*
X105701939Y-103910000D01*
X105901898Y-103870226D01*
X106090256Y-103792205D01*
X106259774Y-103678937D01*
X106403937Y-103534774D01*
X106517205Y-103365256D01*
X106595226Y-103176898D01*
X106608031Y-103112521D01*
X106765742Y-103047195D01*
X106935260Y-102933927D01*
X107079423Y-102789764D01*
X107192691Y-102620246D01*
X107212911Y-102571429D01*
X110300000Y-102571429D01*
X110300000Y-102888571D01*
X110361871Y-103199620D01*
X110483237Y-103492621D01*
X110659431Y-103756315D01*
X110883685Y-103980569D01*
X111147379Y-104156763D01*
X111440380Y-104278129D01*
X111751429Y-104340000D01*
X112068571Y-104340000D01*
X112379620Y-104278129D01*
X112672621Y-104156763D01*
X112936315Y-103980569D01*
X113160569Y-103756315D01*
X113336763Y-103492621D01*
X113458129Y-103199620D01*
X113520000Y-102888571D01*
X113520000Y-102571429D01*
X113458129Y-102260380D01*
X113336763Y-101967379D01*
X113160569Y-101703685D01*
X112936315Y-101479431D01*
X112672621Y-101303237D01*
X112379620Y-101181871D01*
X112068571Y-101120000D01*
X111751429Y-101120000D01*
X111440380Y-101181871D01*
X111147379Y-101303237D01*
X110883685Y-101479431D01*
X110659431Y-101703685D01*
X110483237Y-101967379D01*
X110361871Y-102260380D01*
X110300000Y-102571429D01*
X107212911Y-102571429D01*
X107270712Y-102431888D01*
X107310486Y-102231929D01*
X107310486Y-102028051D01*
X107270712Y-101828092D01*
X107192691Y-101639734D01*
X107079423Y-101470216D01*
X106935260Y-101326053D01*
X106765742Y-101212785D01*
X106577384Y-101134764D01*
X106377425Y-101094990D01*
X106315288Y-101094990D01*
X105618359Y-100398061D01*
X112865000Y-100398061D01*
X112865000Y-100601939D01*
X112904774Y-100801898D01*
X112982795Y-100990256D01*
X113096063Y-101159774D01*
X113240226Y-101303937D01*
X113409744Y-101417205D01*
X113598102Y-101495226D01*
X113798061Y-101535000D01*
X113860199Y-101535000D01*
X114083629Y-101758431D01*
X114054774Y-101828092D01*
X114015000Y-102028051D01*
X114015000Y-102231929D01*
X114054774Y-102431888D01*
X114132795Y-102620246D01*
X114246063Y-102789764D01*
X114390226Y-102933927D01*
X114559744Y-103047195D01*
X114748102Y-103125216D01*
X114948061Y-103164990D01*
X115151939Y-103164990D01*
X115351898Y-103125216D01*
X115384394Y-103111756D01*
X115401871Y-103199620D01*
X115523237Y-103492621D01*
X115699431Y-103756315D01*
X115923685Y-103980569D01*
X116187379Y-104156763D01*
X116480380Y-104278129D01*
X116791429Y-104340000D01*
X117108571Y-104340000D01*
X117419620Y-104278129D01*
X117712621Y-104156763D01*
X117976315Y-103980569D01*
X118200569Y-103756315D01*
X118376763Y-103492621D01*
X118498129Y-103199620D01*
X118560000Y-102888571D01*
X118560000Y-102571429D01*
X118498129Y-102260380D01*
X118376763Y-101967379D01*
X118200569Y-101703685D01*
X117976315Y-101479431D01*
X117841952Y-101389653D01*
X121098048Y-101389653D01*
X120963685Y-101479431D01*
X120739431Y-101703685D01*
X120563237Y-101967379D01*
X120441871Y-102260380D01*
X120380000Y-102571429D01*
X120380000Y-102888571D01*
X120441871Y-103199620D01*
X120563237Y-103492621D01*
X120739431Y-103756315D01*
X120963685Y-103980569D01*
X121227379Y-104156763D01*
X121520380Y-104278129D01*
X121831429Y-104340000D01*
X122148571Y-104340000D01*
X122459620Y-104278129D01*
X122716673Y-104171653D01*
X124527952Y-104171653D01*
X124683962Y-104487214D01*
X125058745Y-104678020D01*
X125463551Y-104792044D01*
X125882824Y-104824902D01*
X126300451Y-104775334D01*
X126700383Y-104645243D01*
X126996038Y-104487214D01*
X127152048Y-104171653D01*
X137667952Y-104171653D01*
X137823962Y-104487214D01*
X138198745Y-104678020D01*
X138603551Y-104792044D01*
X139022824Y-104824902D01*
X139440451Y-104775334D01*
X139840383Y-104645243D01*
X140136038Y-104487214D01*
X140292048Y-104171653D01*
X138980000Y-102859605D01*
X137667952Y-104171653D01*
X127152048Y-104171653D01*
X125840000Y-102859605D01*
X124527952Y-104171653D01*
X122716673Y-104171653D01*
X122752621Y-104156763D01*
X123016315Y-103980569D01*
X123240569Y-103756315D01*
X123416763Y-103492621D01*
X123538129Y-103199620D01*
X123600000Y-102888571D01*
X123600000Y-102571429D01*
X123538129Y-102260380D01*
X123416763Y-101967379D01*
X123240569Y-101703685D01*
X123016315Y-101479431D01*
X122881952Y-101389653D01*
X124080008Y-101389653D01*
X124123945Y-101433590D01*
X124162914Y-101459628D01*
X124032786Y-101523962D01*
X123841980Y-101898745D01*
X123727956Y-102303551D01*
X123695098Y-102722824D01*
X123744666Y-103140451D01*
X123874757Y-103540383D01*
X124032786Y-103836038D01*
X124348347Y-103992048D01*
X125660395Y-102680000D01*
X126019605Y-102680000D01*
X127331653Y-103992048D01*
X127647214Y-103836038D01*
X127838020Y-103461255D01*
X127952044Y-103056449D01*
X127978189Y-102722824D01*
X136835098Y-102722824D01*
X136884666Y-103140451D01*
X137014757Y-103540383D01*
X137172786Y-103836038D01*
X137488347Y-103992048D01*
X138800395Y-102680000D01*
X139159605Y-102680000D01*
X140471653Y-103992048D01*
X140787214Y-103836038D01*
X140978020Y-103461255D01*
X141092044Y-103056449D01*
X141124902Y-102637176D01*
X141075334Y-102219549D01*
X140945243Y-101819617D01*
X140787214Y-101523962D01*
X140471653Y-101367952D01*
X139159605Y-102680000D01*
X138800395Y-102680000D01*
X137488347Y-101367952D01*
X137172786Y-101523962D01*
X136981980Y-101898745D01*
X136867956Y-102303551D01*
X136835098Y-102722824D01*
X127978189Y-102722824D01*
X127984902Y-102637176D01*
X127935334Y-102219549D01*
X127805243Y-101819617D01*
X127647214Y-101523962D01*
X127331653Y-101367952D01*
X126019605Y-102680000D01*
X125660395Y-102680000D01*
X125646253Y-102665858D01*
X125825858Y-102486253D01*
X125840000Y-102500395D01*
X127152048Y-101188347D01*
X126996038Y-100872786D01*
X126621255Y-100681980D01*
X126216449Y-100567956D01*
X125818719Y-100536786D01*
X125818719Y-100527714D01*
X125778945Y-100327755D01*
X125700924Y-100139397D01*
X125587656Y-99969879D01*
X125443493Y-99825716D01*
X125273975Y-99712448D01*
X125085617Y-99634427D01*
X124885658Y-99594653D01*
X124681780Y-99594653D01*
X124481821Y-99634427D01*
X124293463Y-99712448D01*
X124123945Y-99825716D01*
X124080008Y-99869653D01*
X117028374Y-99869653D01*
X116884774Y-99726053D01*
X116715256Y-99612785D01*
X116526898Y-99534764D01*
X116326939Y-99494990D01*
X116123061Y-99494990D01*
X115923102Y-99534764D01*
X115734744Y-99612785D01*
X115565226Y-99726053D01*
X115421063Y-99870216D01*
X115307795Y-100039734D01*
X115229774Y-100228092D01*
X115190000Y-100428051D01*
X115190000Y-100631929D01*
X115210676Y-100735874D01*
X114935000Y-100460199D01*
X114935000Y-100398061D01*
X114895226Y-100198102D01*
X114817205Y-100009744D01*
X114703937Y-99840226D01*
X114559774Y-99696063D01*
X114390256Y-99582795D01*
X114201898Y-99504774D01*
X114001939Y-99465000D01*
X113798061Y-99465000D01*
X113598102Y-99504774D01*
X113409744Y-99582795D01*
X113240226Y-99696063D01*
X113096063Y-99840226D01*
X112982795Y-100009744D01*
X112904774Y-100198102D01*
X112865000Y-100398061D01*
X105618359Y-100398061D01*
X104440298Y-99220000D01*
X127471928Y-99220000D01*
X127471928Y-100720000D01*
X127484188Y-100844482D01*
X127520498Y-100964180D01*
X127579463Y-101074494D01*
X127658815Y-101171185D01*
X127755506Y-101250537D01*
X127865820Y-101309502D01*
X127985518Y-101345812D01*
X128110000Y-101358072D01*
X129710000Y-101358072D01*
X129834482Y-101345812D01*
X129954180Y-101309502D01*
X130064494Y-101250537D01*
X130161185Y-101171185D01*
X130240537Y-101074494D01*
X130299502Y-100964180D01*
X130317023Y-100906419D01*
X130495241Y-101084637D01*
X130730273Y-101241680D01*
X130991426Y-101349853D01*
X131268665Y-101405000D01*
X131551335Y-101405000D01*
X131828574Y-101349853D01*
X132089727Y-101241680D01*
X132324759Y-101084637D01*
X132410000Y-100999396D01*
X132495241Y-101084637D01*
X132730273Y-101241680D01*
X132991426Y-101349853D01*
X133268665Y-101405000D01*
X133551335Y-101405000D01*
X133828574Y-101349853D01*
X134089727Y-101241680D01*
X134324759Y-101084637D01*
X134446694Y-100962702D01*
X135096903Y-100962702D01*
X135168486Y-101206671D01*
X135423996Y-101327571D01*
X135698184Y-101396300D01*
X135980512Y-101410217D01*
X136260130Y-101368787D01*
X136526292Y-101273603D01*
X136651514Y-101206671D01*
X136656890Y-101188347D01*
X137667952Y-101188347D01*
X138980000Y-102500395D01*
X140292048Y-101188347D01*
X140136038Y-100872786D01*
X139761255Y-100681980D01*
X139356449Y-100567956D01*
X138937176Y-100535098D01*
X138519549Y-100584666D01*
X138119617Y-100714757D01*
X137823962Y-100872786D01*
X137667952Y-101188347D01*
X136656890Y-101188347D01*
X136723097Y-100962702D01*
X135910000Y-100149605D01*
X135096903Y-100962702D01*
X134446694Y-100962702D01*
X134524637Y-100884759D01*
X134658692Y-100684131D01*
X134673329Y-100711514D01*
X134917298Y-100783097D01*
X135730395Y-99970000D01*
X136089605Y-99970000D01*
X136902702Y-100783097D01*
X137146671Y-100711514D01*
X137267571Y-100456004D01*
X137336300Y-100181816D01*
X137350217Y-99899488D01*
X137308787Y-99619870D01*
X137213603Y-99353708D01*
X137146671Y-99228486D01*
X136902702Y-99156903D01*
X136089605Y-99970000D01*
X135730395Y-99970000D01*
X134917298Y-99156903D01*
X134673329Y-99228486D01*
X134659676Y-99257341D01*
X134524637Y-99055241D01*
X134446694Y-98977298D01*
X135096903Y-98977298D01*
X135910000Y-99790395D01*
X136723097Y-98977298D01*
X136651514Y-98733329D01*
X136396004Y-98612429D01*
X136121816Y-98543700D01*
X135839488Y-98529783D01*
X135559870Y-98571213D01*
X135293708Y-98666397D01*
X135168486Y-98733329D01*
X135096903Y-98977298D01*
X134446694Y-98977298D01*
X134324759Y-98855363D01*
X134089727Y-98698320D01*
X133828574Y-98590147D01*
X133551335Y-98535000D01*
X133268665Y-98535000D01*
X132991426Y-98590147D01*
X132730273Y-98698320D01*
X132495241Y-98855363D01*
X132410000Y-98940604D01*
X132324759Y-98855363D01*
X132089727Y-98698320D01*
X131828574Y-98590147D01*
X131551335Y-98535000D01*
X131268665Y-98535000D01*
X130991426Y-98590147D01*
X130730273Y-98698320D01*
X130495241Y-98855363D01*
X130317023Y-99033581D01*
X130299502Y-98975820D01*
X130240537Y-98865506D01*
X130161185Y-98768815D01*
X130064494Y-98689463D01*
X129954180Y-98630498D01*
X129834482Y-98594188D01*
X129710000Y-98581928D01*
X128110000Y-98581928D01*
X127985518Y-98594188D01*
X127865820Y-98630498D01*
X127755506Y-98689463D01*
X127658815Y-98768815D01*
X127579463Y-98865506D01*
X127520498Y-98975820D01*
X127484188Y-99095518D01*
X127471928Y-99220000D01*
X104440298Y-99220000D01*
X102785000Y-97564703D01*
X102785000Y-90423290D01*
X103527569Y-91165859D01*
X103587795Y-91311256D01*
X103701063Y-91480774D01*
X103845226Y-91624937D01*
X104014744Y-91738205D01*
X104203102Y-91816226D01*
X104403061Y-91856000D01*
X104606939Y-91856000D01*
X104806898Y-91816226D01*
X104995256Y-91738205D01*
X105164774Y-91624937D01*
X105308937Y-91480774D01*
X105422205Y-91311256D01*
X105500226Y-91122898D01*
X105540000Y-90922939D01*
X105540000Y-90719061D01*
X105500226Y-90519102D01*
X105422205Y-90330744D01*
X105308937Y-90161226D01*
X105164774Y-90017063D01*
X104995256Y-89903795D01*
X104849859Y-89843569D01*
X100229630Y-85223341D01*
X100200344Y-85187656D01*
X100198380Y-85186044D01*
X100235000Y-85001939D01*
X100235000Y-84798061D01*
X100195226Y-84598102D01*
X100117205Y-84409744D01*
X100003937Y-84240226D01*
X99859774Y-84096063D01*
X99690256Y-83982795D01*
X99585000Y-83939196D01*
X99585000Y-82215439D01*
X99705801Y-82296156D01*
X100039750Y-82434482D01*
X100394268Y-82505000D01*
X100755732Y-82505000D01*
X101110250Y-82434482D01*
X101340001Y-82339316D01*
X101340001Y-82815680D01*
X101336325Y-82853003D01*
X101340001Y-82890325D01*
X101340001Y-82890335D01*
X101350998Y-83001988D01*
X101382246Y-83105001D01*
X101394455Y-83145249D01*
X101465027Y-83277279D01*
X101478440Y-83293622D01*
X101560000Y-83393004D01*
X101589004Y-83416807D01*
X112358198Y-94186002D01*
X112381998Y-94215002D01*
X112497723Y-94309975D01*
X112629752Y-94380547D01*
X112773013Y-94424004D01*
X112884666Y-94435001D01*
X112884675Y-94435001D01*
X112921998Y-94438677D01*
X112959321Y-94435001D01*
X113065198Y-94435001D01*
X112410200Y-95090000D01*
X112373061Y-95090000D01*
X112173102Y-95129774D01*
X111984744Y-95207795D01*
X111815226Y-95321063D01*
X111671063Y-95465226D01*
X111557795Y-95634744D01*
X111479774Y-95823102D01*
X111440000Y-96023061D01*
X111440000Y-96226939D01*
X111479774Y-96426898D01*
X111557795Y-96615256D01*
X111671063Y-96784774D01*
X111815226Y-96928937D01*
X111984744Y-97042205D01*
X112173102Y-97120226D01*
X112373061Y-97160000D01*
X112576939Y-97160000D01*
X112776898Y-97120226D01*
X112965256Y-97042205D01*
X113134774Y-96928937D01*
X113278937Y-96784774D01*
X113392205Y-96615256D01*
X113470226Y-96426898D01*
X113510000Y-96226939D01*
X113510000Y-96139802D01*
X114214802Y-95435001D01*
X114276939Y-95435001D01*
X114476898Y-95395227D01*
X114665256Y-95317206D01*
X114834774Y-95203938D01*
X114978937Y-95059775D01*
X115092205Y-94890257D01*
X115170226Y-94701899D01*
X115210000Y-94501940D01*
X115210000Y-94435001D01*
X129583202Y-94435001D01*
X131438200Y-96290000D01*
X128314802Y-96290000D01*
X127788802Y-95764001D01*
X127765000Y-95734998D01*
X127649275Y-95640025D01*
X127517246Y-95569453D01*
X127373985Y-95525996D01*
X127262332Y-95514999D01*
X127262321Y-95514999D01*
X127224999Y-95511323D01*
X127187677Y-95514999D01*
X125663283Y-95514999D01*
X125540256Y-95432795D01*
X125351898Y-95354774D01*
X125151939Y-95315000D01*
X124948061Y-95315000D01*
X124748102Y-95354774D01*
X124559744Y-95432795D01*
X124390226Y-95546063D01*
X124246063Y-95690226D01*
X124132795Y-95859744D01*
X124054774Y-96048102D01*
X124015000Y-96248061D01*
X124015000Y-96451939D01*
X124054774Y-96651898D01*
X124132795Y-96840256D01*
X124246063Y-97009774D01*
X124390226Y-97153937D01*
X124559744Y-97267205D01*
X124748102Y-97345226D01*
X124948061Y-97385000D01*
X125151939Y-97385000D01*
X125351898Y-97345226D01*
X125540256Y-97267205D01*
X125709774Y-97153937D01*
X125753341Y-97110370D01*
X125769245Y-97105546D01*
X125901227Y-97034999D01*
X126910198Y-97034999D01*
X127436201Y-97561002D01*
X127459999Y-97590001D01*
X127488997Y-97613799D01*
X127575723Y-97684974D01*
X127695512Y-97749003D01*
X127707753Y-97755546D01*
X127851014Y-97799003D01*
X127962667Y-97810000D01*
X127962677Y-97810000D01*
X128000000Y-97813676D01*
X128037323Y-97810000D01*
X131496289Y-97810000D01*
X131540226Y-97853937D01*
X131709744Y-97967205D01*
X131898102Y-98045226D01*
X132098061Y-98085000D01*
X132301939Y-98085000D01*
X132501898Y-98045226D01*
X132690256Y-97967205D01*
X132859774Y-97853937D01*
X133003937Y-97709774D01*
X133054317Y-97634375D01*
X133060670Y-97635001D01*
X133060679Y-97635001D01*
X133098002Y-97638677D01*
X133135325Y-97635001D01*
X136762677Y-97635001D01*
X136799999Y-97638677D01*
X136837321Y-97635001D01*
X136837332Y-97635001D01*
X136948985Y-97624004D01*
X137092246Y-97580547D01*
X137108271Y-97571982D01*
X137215226Y-97678937D01*
X137384744Y-97792205D01*
X137538321Y-97855819D01*
X137515000Y-97973061D01*
X137515000Y-98176939D01*
X137554774Y-98376898D01*
X137632795Y-98565256D01*
X137746063Y-98734774D01*
X137890226Y-98878937D01*
X138059744Y-98992205D01*
X138248102Y-99070226D01*
X138448061Y-99110000D01*
X138651939Y-99110000D01*
X138851898Y-99070226D01*
X139040256Y-98992205D01*
X139209774Y-98878937D01*
X139353937Y-98734774D01*
X139467205Y-98565256D01*
X139545226Y-98376898D01*
X139585000Y-98176939D01*
X139585000Y-97973061D01*
X139545226Y-97773102D01*
X139467205Y-97584744D01*
X139360000Y-97424300D01*
X139360000Y-91928711D01*
X139403937Y-91884774D01*
X139517205Y-91715256D01*
X139595226Y-91526898D01*
X139635000Y-91326939D01*
X139635000Y-91123061D01*
X139595226Y-90923102D01*
X139517205Y-90734744D01*
X139403937Y-90565226D01*
X139259774Y-90421063D01*
X139090256Y-90307795D01*
X138901898Y-90229774D01*
X138701939Y-90190000D01*
X138498061Y-90190000D01*
X138298102Y-90229774D01*
X138109744Y-90307795D01*
X137940226Y-90421063D01*
X137796063Y-90565226D01*
X137773619Y-90598816D01*
X133059801Y-85885000D01*
X133446289Y-85885000D01*
X133490226Y-85928937D01*
X133659744Y-86042205D01*
X133848102Y-86120226D01*
X134048061Y-86160000D01*
X134251939Y-86160000D01*
X134451898Y-86120226D01*
X134640256Y-86042205D01*
X134809774Y-85928937D01*
X134953937Y-85784774D01*
X135067205Y-85615256D01*
X135145226Y-85426898D01*
X135185000Y-85226939D01*
X135185000Y-85085000D01*
X140471289Y-85085000D01*
X140515226Y-85128937D01*
X140684744Y-85242205D01*
X140873102Y-85320226D01*
X141073061Y-85360000D01*
X141276939Y-85360000D01*
X141467835Y-85322029D01*
X141467834Y-90506676D01*
X141337579Y-90560630D01*
X141168061Y-90673898D01*
X141023898Y-90818061D01*
X140910630Y-90987579D01*
X140832609Y-91175937D01*
X140792835Y-91375896D01*
X140792835Y-91579774D01*
X140832609Y-91779733D01*
X140910630Y-91968091D01*
X141023898Y-92137609D01*
X141168061Y-92281772D01*
X141337579Y-92395040D01*
X141525937Y-92473061D01*
X141725896Y-92512835D01*
X141929774Y-92512835D01*
X142129733Y-92473061D01*
X142318091Y-92395040D01*
X142487609Y-92281772D01*
X142631772Y-92137609D01*
X142745040Y-91968091D01*
X142823061Y-91779733D01*
X142862835Y-91579774D01*
X142862835Y-91502061D01*
X142933380Y-91370083D01*
X142976837Y-91226822D01*
X142987834Y-91115169D01*
X142987834Y-91115159D01*
X142991510Y-91077837D01*
X142987834Y-91040514D01*
X142987834Y-84342154D01*
X142991510Y-84304831D01*
X142987834Y-84267508D01*
X142987834Y-84267499D01*
X142976837Y-84155846D01*
X142933380Y-84012585D01*
X142862808Y-83880556D01*
X142839720Y-83852423D01*
X142791633Y-83793828D01*
X142791629Y-83793824D01*
X142767835Y-83764831D01*
X142738842Y-83741037D01*
X141248598Y-82250794D01*
X141263486Y-82242836D01*
X141353103Y-82029904D01*
X144440001Y-85116803D01*
X144440000Y-89685198D01*
X144138997Y-89986202D01*
X144110000Y-90009999D01*
X144086202Y-90038997D01*
X144086201Y-90038998D01*
X144015026Y-90125724D01*
X143944454Y-90257754D01*
X143914180Y-90357558D01*
X143900998Y-90401014D01*
X143892352Y-90488799D01*
X143886324Y-90550000D01*
X143890001Y-90587332D01*
X143890001Y-90921288D01*
X143846063Y-90965226D01*
X143732795Y-91134744D01*
X143654774Y-91323102D01*
X143615000Y-91523061D01*
X143615000Y-91726939D01*
X143654774Y-91926898D01*
X143732795Y-92115256D01*
X143846063Y-92284774D01*
X143990226Y-92428937D01*
X144159744Y-92542205D01*
X144348102Y-92620226D01*
X144548061Y-92660000D01*
X144751939Y-92660000D01*
X144890010Y-92632536D01*
X144890010Y-100190000D01*
X142978711Y-100190000D01*
X142934774Y-100146063D01*
X142765256Y-100032795D01*
X142576898Y-99954774D01*
X142376939Y-99915000D01*
X142173061Y-99915000D01*
X141973102Y-99954774D01*
X141784744Y-100032795D01*
X141615226Y-100146063D01*
X141471063Y-100290226D01*
X141357795Y-100459744D01*
X141279774Y-100648102D01*
X141240000Y-100848061D01*
X141240000Y-101051939D01*
X141279774Y-101251898D01*
X141357795Y-101440256D01*
X141471063Y-101609774D01*
X141615226Y-101753937D01*
X141784744Y-101867205D01*
X141973102Y-101945226D01*
X142173061Y-101985000D01*
X142376939Y-101985000D01*
X142576898Y-101945226D01*
X142765256Y-101867205D01*
X142934774Y-101753937D01*
X142978711Y-101710000D01*
X145512678Y-101710000D01*
X145521000Y-101710820D01*
X145521000Y-110200053D01*
X145474406Y-110675255D01*
X145346838Y-111097781D01*
X145139631Y-111487482D01*
X144860676Y-111829513D01*
X144520601Y-112110849D01*
X144132356Y-112320771D01*
X143710737Y-112451285D01*
X143237726Y-112501000D01*
X84291947Y-112501000D01*
X83816745Y-112454406D01*
X83394219Y-112326838D01*
X83004518Y-112119631D01*
X82662487Y-111840676D01*
X82381151Y-111500601D01*
X82171229Y-111112356D01*
X82040715Y-110690737D01*
X81991000Y-110217726D01*
X81991000Y-109504872D01*
X82515000Y-109504872D01*
X82515000Y-109945128D01*
X82600890Y-110376925D01*
X82769369Y-110783669D01*
X83013962Y-111149729D01*
X83325271Y-111461038D01*
X83691331Y-111705631D01*
X84098075Y-111874110D01*
X84529872Y-111960000D01*
X84970128Y-111960000D01*
X85401925Y-111874110D01*
X85808669Y-111705631D01*
X86174729Y-111461038D01*
X86486038Y-111149729D01*
X86730631Y-110783669D01*
X86899110Y-110376925D01*
X86959877Y-110071429D01*
X95040000Y-110071429D01*
X95040000Y-110388571D01*
X95101871Y-110699620D01*
X95223237Y-110992621D01*
X95399431Y-111256315D01*
X95623685Y-111480569D01*
X95887379Y-111656763D01*
X96180380Y-111778129D01*
X96491429Y-111840000D01*
X96808571Y-111840000D01*
X97119620Y-111778129D01*
X97412621Y-111656763D01*
X97676315Y-111480569D01*
X97900569Y-111256315D01*
X98076763Y-110992621D01*
X98198129Y-110699620D01*
X98260000Y-110388571D01*
X98260000Y-110071429D01*
X98198129Y-109760380D01*
X98076763Y-109467379D01*
X97900569Y-109203685D01*
X97676315Y-108979431D01*
X97412621Y-108803237D01*
X97119620Y-108681871D01*
X96808571Y-108620000D01*
X96491429Y-108620000D01*
X96180380Y-108681871D01*
X95887379Y-108803237D01*
X95623685Y-108979431D01*
X95399431Y-109203685D01*
X95223237Y-109467379D01*
X95101871Y-109760380D01*
X95040000Y-110071429D01*
X86959877Y-110071429D01*
X86985000Y-109945128D01*
X86985000Y-109504872D01*
X86899110Y-109073075D01*
X86730631Y-108666331D01*
X86486038Y-108300271D01*
X86174729Y-107988962D01*
X85808669Y-107744369D01*
X85401925Y-107575890D01*
X84970128Y-107490000D01*
X84529872Y-107490000D01*
X84098075Y-107575890D01*
X83691331Y-107744369D01*
X83325271Y-107988962D01*
X83013962Y-108300271D01*
X82769369Y-108666331D01*
X82600890Y-109073075D01*
X82515000Y-109504872D01*
X81991000Y-109504872D01*
X81991000Y-106381429D01*
X95040000Y-106381429D01*
X95040000Y-106698571D01*
X95101871Y-107009620D01*
X95223237Y-107302621D01*
X95399431Y-107566315D01*
X95623685Y-107790569D01*
X95887379Y-107966763D01*
X96180380Y-108088129D01*
X96491429Y-108150000D01*
X96808571Y-108150000D01*
X97007157Y-108110499D01*
X103606590Y-108110499D01*
X103614501Y-108190818D01*
X103614501Y-108271532D01*
X103630248Y-108350700D01*
X103638159Y-108431015D01*
X103661585Y-108508242D01*
X103677333Y-108587411D01*
X103708222Y-108661982D01*
X103731649Y-108739213D01*
X103769695Y-108810391D01*
X103800583Y-108884962D01*
X103845427Y-108952075D01*
X103883471Y-109023251D01*
X103934670Y-109085637D01*
X103979514Y-109152751D01*
X104036590Y-109209827D01*
X104087788Y-109272212D01*
X104150173Y-109323410D01*
X104207249Y-109380486D01*
X104274363Y-109425330D01*
X104336749Y-109476529D01*
X104407925Y-109514573D01*
X104475038Y-109559417D01*
X104549609Y-109590305D01*
X104620787Y-109628351D01*
X104698018Y-109651778D01*
X104772589Y-109682667D01*
X104851758Y-109698415D01*
X104928985Y-109721841D01*
X105009300Y-109729752D01*
X105088468Y-109745499D01*
X105169182Y-109745499D01*
X105249501Y-109753410D01*
X105329820Y-109745499D01*
X105410534Y-109745499D01*
X105489702Y-109729752D01*
X105570017Y-109721841D01*
X105647244Y-109698415D01*
X105689552Y-109689999D01*
X110391024Y-109689999D01*
X110361871Y-109760380D01*
X110300000Y-110071429D01*
X110300000Y-110388571D01*
X110361871Y-110699620D01*
X110483237Y-110992621D01*
X110659431Y-111256315D01*
X110883685Y-111480569D01*
X111147379Y-111656763D01*
X111440380Y-111778129D01*
X111751429Y-111840000D01*
X112068571Y-111840000D01*
X112379620Y-111778129D01*
X112672621Y-111656763D01*
X112936315Y-111480569D01*
X113160569Y-111256315D01*
X113336763Y-110992621D01*
X113458129Y-110699620D01*
X113520000Y-110388571D01*
X113520000Y-110071429D01*
X113458129Y-109760380D01*
X113428976Y-109689999D01*
X114097761Y-109689999D01*
X115850676Y-111442915D01*
X116037247Y-111596030D01*
X116321285Y-111747852D01*
X116629483Y-111841342D01*
X116950000Y-111872911D01*
X117270516Y-111841342D01*
X117578714Y-111747852D01*
X117862752Y-111596030D01*
X118111713Y-111391713D01*
X118316030Y-111142752D01*
X118467852Y-110858714D01*
X118561342Y-110550516D01*
X118592911Y-110230000D01*
X118577293Y-110071429D01*
X120380000Y-110071429D01*
X120380000Y-110388571D01*
X120441871Y-110699620D01*
X120563237Y-110992621D01*
X120739431Y-111256315D01*
X120963685Y-111480569D01*
X121227379Y-111656763D01*
X121520380Y-111778129D01*
X121831429Y-111840000D01*
X122148571Y-111840000D01*
X122459620Y-111778129D01*
X122752621Y-111656763D01*
X123016315Y-111480569D01*
X123240569Y-111256315D01*
X123416763Y-110992621D01*
X123538129Y-110699620D01*
X123600000Y-110388571D01*
X123600000Y-110071429D01*
X123538129Y-109760380D01*
X123442649Y-109529872D01*
X140540000Y-109529872D01*
X140540000Y-109970128D01*
X140625890Y-110401925D01*
X140794369Y-110808669D01*
X141038962Y-111174729D01*
X141350271Y-111486038D01*
X141716331Y-111730631D01*
X142123075Y-111899110D01*
X142554872Y-111985000D01*
X142995128Y-111985000D01*
X143426925Y-111899110D01*
X143833669Y-111730631D01*
X144199729Y-111486038D01*
X144511038Y-111174729D01*
X144755631Y-110808669D01*
X144924110Y-110401925D01*
X145010000Y-109970128D01*
X145010000Y-109529872D01*
X144924110Y-109098075D01*
X144755631Y-108691331D01*
X144511038Y-108325271D01*
X144199729Y-108013962D01*
X143833669Y-107769369D01*
X143426925Y-107600890D01*
X142995128Y-107515000D01*
X142554872Y-107515000D01*
X142123075Y-107600890D01*
X141716331Y-107769369D01*
X141350271Y-108013962D01*
X141038962Y-108325271D01*
X140794369Y-108691331D01*
X140625890Y-109098075D01*
X140540000Y-109529872D01*
X123442649Y-109529872D01*
X123416763Y-109467379D01*
X123240569Y-109203685D01*
X123016315Y-108979431D01*
X122752621Y-108803237D01*
X122459620Y-108681871D01*
X122148571Y-108620000D01*
X121831429Y-108620000D01*
X121520380Y-108681871D01*
X121227379Y-108803237D01*
X120963685Y-108979431D01*
X120739431Y-109203685D01*
X120563237Y-109467379D01*
X120441871Y-109760380D01*
X120380000Y-110071429D01*
X118577293Y-110071429D01*
X118561342Y-109909483D01*
X118467852Y-109601285D01*
X118316030Y-109317247D01*
X118162915Y-109130676D01*
X115987924Y-106955686D01*
X115936713Y-106893285D01*
X115687751Y-106688968D01*
X115403714Y-106537147D01*
X115095515Y-106443656D01*
X114855321Y-106419999D01*
X114855318Y-106419999D01*
X114774999Y-106412088D01*
X114694680Y-106419999D01*
X105385323Y-106419999D01*
X105305001Y-106412088D01*
X105224679Y-106419999D01*
X104984485Y-106443656D01*
X104676286Y-106537147D01*
X104392249Y-106688968D01*
X104209091Y-106839281D01*
X104207249Y-106840512D01*
X104205682Y-106842079D01*
X104143287Y-106893285D01*
X104092081Y-106955680D01*
X103979514Y-107068247D01*
X103934669Y-107135362D01*
X103883471Y-107197747D01*
X103845427Y-107268923D01*
X103800583Y-107336036D01*
X103769695Y-107410607D01*
X103731649Y-107481785D01*
X103708222Y-107559016D01*
X103677333Y-107633587D01*
X103661585Y-107712756D01*
X103638159Y-107789983D01*
X103630248Y-107870298D01*
X103614501Y-107949466D01*
X103614501Y-108030180D01*
X103606590Y-108110499D01*
X97007157Y-108110499D01*
X97119620Y-108088129D01*
X97412621Y-107966763D01*
X97676315Y-107790569D01*
X97900569Y-107566315D01*
X98076763Y-107302621D01*
X98198129Y-107009620D01*
X98260000Y-106698571D01*
X98260000Y-106381429D01*
X98198129Y-106070380D01*
X98076763Y-105777379D01*
X97900569Y-105513685D01*
X97676315Y-105289431D01*
X97412621Y-105113237D01*
X97119620Y-104991871D01*
X96808571Y-104930000D01*
X96491429Y-104930000D01*
X96180380Y-104991871D01*
X95887379Y-105113237D01*
X95623685Y-105289431D01*
X95399431Y-105513685D01*
X95223237Y-105777379D01*
X95101871Y-106070380D01*
X95040000Y-106381429D01*
X81991000Y-106381429D01*
X81991000Y-101029721D01*
X86511000Y-101029721D01*
X86511000Y-101450279D01*
X86593047Y-101862756D01*
X86753988Y-102251302D01*
X86987637Y-102600983D01*
X87285017Y-102898363D01*
X87634698Y-103132012D01*
X88023244Y-103292953D01*
X88435721Y-103375000D01*
X88856279Y-103375000D01*
X89268756Y-103292953D01*
X89657302Y-103132012D01*
X90006983Y-102898363D01*
X90304363Y-102600983D01*
X90324110Y-102571429D01*
X95040000Y-102571429D01*
X95040000Y-102888571D01*
X95101871Y-103199620D01*
X95223237Y-103492621D01*
X95399431Y-103756315D01*
X95623685Y-103980569D01*
X95887379Y-104156763D01*
X96180380Y-104278129D01*
X96491429Y-104340000D01*
X96808571Y-104340000D01*
X97119620Y-104278129D01*
X97412621Y-104156763D01*
X97676315Y-103980569D01*
X97900569Y-103756315D01*
X98076763Y-103492621D01*
X98198129Y-103199620D01*
X98260000Y-102888571D01*
X98260000Y-102571429D01*
X98198129Y-102260380D01*
X98076763Y-101967379D01*
X97900569Y-101703685D01*
X97676315Y-101479431D01*
X97412621Y-101303237D01*
X97119620Y-101181871D01*
X96808571Y-101120000D01*
X96491429Y-101120000D01*
X96180380Y-101181871D01*
X95887379Y-101303237D01*
X95623685Y-101479431D01*
X95399431Y-101703685D01*
X95223237Y-101967379D01*
X95101871Y-102260380D01*
X95040000Y-102571429D01*
X90324110Y-102571429D01*
X90538012Y-102251302D01*
X90698953Y-101862756D01*
X90781000Y-101450279D01*
X90781000Y-101029721D01*
X90698953Y-100617244D01*
X90538012Y-100228698D01*
X90304363Y-99879017D01*
X90006983Y-99581637D01*
X89657302Y-99347988D01*
X89268756Y-99187047D01*
X88856279Y-99105000D01*
X88435721Y-99105000D01*
X88023244Y-99187047D01*
X87634698Y-99347988D01*
X87285017Y-99581637D01*
X86987637Y-99879017D01*
X86753988Y-100228698D01*
X86593047Y-100617244D01*
X86511000Y-101029721D01*
X81991000Y-101029721D01*
X81991000Y-75612240D01*
X83318077Y-76939318D01*
X83369284Y-77001714D01*
X83618246Y-77206031D01*
X83902283Y-77357852D01*
X84210482Y-77451343D01*
X84450676Y-77475000D01*
X84450678Y-77475000D01*
X84530998Y-77482911D01*
X84611317Y-77475000D01*
X85105322Y-77475000D01*
X85345516Y-77451343D01*
X85653715Y-77357852D01*
X85709429Y-77328072D01*
X85875000Y-77328072D01*
X85999482Y-77315812D01*
X86119180Y-77279502D01*
X86229494Y-77220537D01*
X86326185Y-77141185D01*
X86405537Y-77044494D01*
X86464502Y-76934180D01*
X86500812Y-76814482D01*
X86513072Y-76690000D01*
X86513072Y-76524429D01*
X86542852Y-76468715D01*
X86636343Y-76160516D01*
X86667911Y-75840000D01*
X86636343Y-75519484D01*
X86542852Y-75211285D01*
X86513072Y-75155571D01*
X86513072Y-74990000D01*
X86500812Y-74865518D01*
X86464502Y-74745820D01*
X86405537Y-74635506D01*
X86326185Y-74538815D01*
X86229494Y-74459463D01*
X86119180Y-74400498D01*
X86038534Y-74376034D01*
X86122588Y-74300269D01*
X86296641Y-74066920D01*
X86421825Y-73804099D01*
X86466476Y-73656890D01*
X86345155Y-73427000D01*
X85152000Y-73427000D01*
X85152000Y-73447000D01*
X84898000Y-73447000D01*
X84898000Y-73427000D01*
X84878000Y-73427000D01*
X84878000Y-73173000D01*
X84898000Y-73173000D01*
X84898000Y-73153000D01*
X85152000Y-73153000D01*
X85152000Y-73173000D01*
X86345155Y-73173000D01*
X86466476Y-72943110D01*
X86421825Y-72795901D01*
X86297556Y-72535000D01*
X86379047Y-72535000D01*
X87790021Y-73945975D01*
G36*
X112948844Y-81539199D02*
G01*
X113149662Y-81839744D01*
X113405256Y-82095338D01*
X113705801Y-82296156D01*
X114039750Y-82434482D01*
X114394268Y-82505000D01*
X114755732Y-82505000D01*
X115110250Y-82434482D01*
X115444199Y-82296156D01*
X115744744Y-82095338D01*
X115820140Y-82019942D01*
X117386201Y-83586003D01*
X117409999Y-83615001D01*
X117525724Y-83709974D01*
X117657753Y-83780546D01*
X117801014Y-83824003D01*
X117912667Y-83835000D01*
X117912675Y-83835000D01*
X117950000Y-83838676D01*
X117987325Y-83835000D01*
X121076608Y-83835000D01*
X115746609Y-89165000D01*
X111178711Y-89165000D01*
X111134774Y-89121063D01*
X110965256Y-89007795D01*
X110776898Y-88929774D01*
X110576939Y-88890000D01*
X110373061Y-88890000D01*
X110173102Y-88929774D01*
X109984744Y-89007795D01*
X109815226Y-89121063D01*
X109671063Y-89265226D01*
X109637402Y-89315603D01*
X106831799Y-86510000D01*
X111171290Y-86510000D01*
X111215227Y-86553937D01*
X111384745Y-86667205D01*
X111573103Y-86745226D01*
X111773062Y-86785000D01*
X111976940Y-86785000D01*
X112176899Y-86745226D01*
X112365257Y-86667205D01*
X112534775Y-86553937D01*
X112678938Y-86409774D01*
X112792206Y-86240256D01*
X112870227Y-86051898D01*
X112910001Y-85851939D01*
X112910001Y-85648061D01*
X112870227Y-85448102D01*
X112792206Y-85259744D01*
X112678938Y-85090226D01*
X112534775Y-84946063D01*
X112365257Y-84832795D01*
X112176899Y-84754774D01*
X111976940Y-84715000D01*
X111773062Y-84715000D01*
X111632508Y-84742958D01*
X111670226Y-84651898D01*
X111710000Y-84451939D01*
X111710000Y-84248061D01*
X111670226Y-84048102D01*
X111592205Y-83859744D01*
X111478937Y-83690226D01*
X111334774Y-83546063D01*
X111165256Y-83432795D01*
X110976898Y-83354774D01*
X110776939Y-83315000D01*
X110573061Y-83315000D01*
X110373102Y-83354774D01*
X110235000Y-83411978D01*
X110235000Y-82308251D01*
X110539750Y-82434482D01*
X110894268Y-82505000D01*
X111255732Y-82505000D01*
X111610250Y-82434482D01*
X111944199Y-82296156D01*
X112244744Y-82095338D01*
X112500338Y-81839744D01*
X112701156Y-81539199D01*
X112825000Y-81240213D01*
X112948844Y-81539199D01*
G37*
X112948844Y-81539199D02*
X113149662Y-81839744D01*
X113405256Y-82095338D01*
X113705801Y-82296156D01*
X114039750Y-82434482D01*
X114394268Y-82505000D01*
X114755732Y-82505000D01*
X115110250Y-82434482D01*
X115444199Y-82296156D01*
X115744744Y-82095338D01*
X115820140Y-82019942D01*
X117386201Y-83586003D01*
X117409999Y-83615001D01*
X117525724Y-83709974D01*
X117657753Y-83780546D01*
X117801014Y-83824003D01*
X117912667Y-83835000D01*
X117912675Y-83835000D01*
X117950000Y-83838676D01*
X117987325Y-83835000D01*
X121076608Y-83835000D01*
X115746609Y-89165000D01*
X111178711Y-89165000D01*
X111134774Y-89121063D01*
X110965256Y-89007795D01*
X110776898Y-88929774D01*
X110576939Y-88890000D01*
X110373061Y-88890000D01*
X110173102Y-88929774D01*
X109984744Y-89007795D01*
X109815226Y-89121063D01*
X109671063Y-89265226D01*
X109637402Y-89315603D01*
X106831799Y-86510000D01*
X111171290Y-86510000D01*
X111215227Y-86553937D01*
X111384745Y-86667205D01*
X111573103Y-86745226D01*
X111773062Y-86785000D01*
X111976940Y-86785000D01*
X112176899Y-86745226D01*
X112365257Y-86667205D01*
X112534775Y-86553937D01*
X112678938Y-86409774D01*
X112792206Y-86240256D01*
X112870227Y-86051898D01*
X112910001Y-85851939D01*
X112910001Y-85648061D01*
X112870227Y-85448102D01*
X112792206Y-85259744D01*
X112678938Y-85090226D01*
X112534775Y-84946063D01*
X112365257Y-84832795D01*
X112176899Y-84754774D01*
X111976940Y-84715000D01*
X111773062Y-84715000D01*
X111632508Y-84742958D01*
X111670226Y-84651898D01*
X111710000Y-84451939D01*
X111710000Y-84248061D01*
X111670226Y-84048102D01*
X111592205Y-83859744D01*
X111478937Y-83690226D01*
X111334774Y-83546063D01*
X111165256Y-83432795D01*
X110976898Y-83354774D01*
X110776939Y-83315000D01*
X110573061Y-83315000D01*
X110373102Y-83354774D01*
X110235000Y-83411978D01*
X110235000Y-82308251D01*
X110539750Y-82434482D01*
X110894268Y-82505000D01*
X111255732Y-82505000D01*
X111610250Y-82434482D01*
X111944199Y-82296156D01*
X112244744Y-82095338D01*
X112500338Y-81839744D01*
X112701156Y-81539199D01*
X112825000Y-81240213D01*
X112948844Y-81539199D01*
G36*
X133478748Y-80665858D02*
G01*
X133464605Y-80680000D01*
X134193986Y-81409380D01*
X134196137Y-81412001D01*
X134270000Y-81502004D01*
X134299004Y-81525807D01*
X135013196Y-82240000D01*
X134264680Y-82240000D01*
X134383374Y-81957980D01*
X133285000Y-80859605D01*
X133270858Y-80873748D01*
X133091252Y-80694142D01*
X133105395Y-80680000D01*
X133091253Y-80665858D01*
X133270858Y-80486252D01*
X133285000Y-80500395D01*
X133299142Y-80486252D01*
X133478748Y-80665858D01*
G37*
X133478748Y-80665858D02*
X133464605Y-80680000D01*
X134193986Y-81409380D01*
X134196137Y-81412001D01*
X134270000Y-81502004D01*
X134299004Y-81525807D01*
X135013196Y-82240000D01*
X134264680Y-82240000D01*
X134383374Y-81957980D01*
X133285000Y-80859605D01*
X133270858Y-80873748D01*
X133091252Y-80694142D01*
X133105395Y-80680000D01*
X133091253Y-80665858D01*
X133270858Y-80486252D01*
X133285000Y-80500395D01*
X133299142Y-80486252D01*
X133478748Y-80665858D01*
G36*
X140478748Y-80665858D02*
G01*
X140464605Y-80680000D01*
X140478748Y-80694142D01*
X140299143Y-80873748D01*
X140285000Y-80859605D01*
X140270858Y-80873748D01*
X140091252Y-80694142D01*
X140105395Y-80680000D01*
X140091253Y-80665858D01*
X140270858Y-80486253D01*
X140285000Y-80500395D01*
X140299142Y-80486252D01*
X140478748Y-80665858D01*
G37*
X140478748Y-80665858D02*
X140464605Y-80680000D01*
X140478748Y-80694142D01*
X140299143Y-80873748D01*
X140285000Y-80859605D01*
X140270858Y-80873748D01*
X140091252Y-80694142D01*
X140105395Y-80680000D01*
X140091253Y-80665858D01*
X140270858Y-80486253D01*
X140285000Y-80500395D01*
X140299142Y-80486252D01*
X140478748Y-80665858D01*
G36*
X93763748Y-69305858D02*
G01*
X93749605Y-69320000D01*
X94847980Y-70418374D01*
X94873364Y-70407690D01*
X94910025Y-70476277D01*
X94945908Y-70520000D01*
X95004998Y-70592002D01*
X95034002Y-70615805D01*
X98284538Y-73866341D01*
X98165226Y-73946063D01*
X98021063Y-74090226D01*
X97907795Y-74259744D01*
X97829774Y-74448102D01*
X97790000Y-74648061D01*
X97790000Y-74851939D01*
X97829774Y-75051898D01*
X97907795Y-75240256D01*
X98021063Y-75409774D01*
X98065001Y-75453712D01*
X98065001Y-79124561D01*
X97944199Y-79043844D01*
X97610250Y-78905518D01*
X97255732Y-78835000D01*
X96894268Y-78835000D01*
X96539750Y-78905518D01*
X96235000Y-79031749D01*
X96235000Y-78262323D01*
X96238676Y-78225000D01*
X96235000Y-78187677D01*
X96235000Y-78187667D01*
X96224003Y-78076014D01*
X96180546Y-77932753D01*
X96167409Y-77908175D01*
X96109974Y-77800723D01*
X96038799Y-77713997D01*
X96015001Y-77684999D01*
X95986003Y-77661201D01*
X92804999Y-74480198D01*
X92804999Y-70988929D01*
X92915210Y-71043699D01*
X93264069Y-71138322D01*
X93624684Y-71163067D01*
X93983198Y-71116985D01*
X94325833Y-71001846D01*
X94548486Y-70882836D01*
X94668374Y-70597980D01*
X93570000Y-69499605D01*
X93555858Y-69513748D01*
X93376252Y-69334142D01*
X93390395Y-69320000D01*
X93376252Y-69305858D01*
X93555858Y-69126252D01*
X93570000Y-69140395D01*
X93584142Y-69126252D01*
X93763748Y-69305858D01*
G37*
X93763748Y-69305858D02*
X93749605Y-69320000D01*
X94847980Y-70418374D01*
X94873364Y-70407690D01*
X94910025Y-70476277D01*
X94945908Y-70520000D01*
X95004998Y-70592002D01*
X95034002Y-70615805D01*
X98284538Y-73866341D01*
X98165226Y-73946063D01*
X98021063Y-74090226D01*
X97907795Y-74259744D01*
X97829774Y-74448102D01*
X97790000Y-74648061D01*
X97790000Y-74851939D01*
X97829774Y-75051898D01*
X97907795Y-75240256D01*
X98021063Y-75409774D01*
X98065001Y-75453712D01*
X98065001Y-79124561D01*
X97944199Y-79043844D01*
X97610250Y-78905518D01*
X97255732Y-78835000D01*
X96894268Y-78835000D01*
X96539750Y-78905518D01*
X96235000Y-79031749D01*
X96235000Y-78262323D01*
X96238676Y-78225000D01*
X96235000Y-78187677D01*
X96235000Y-78187667D01*
X96224003Y-78076014D01*
X96180546Y-77932753D01*
X96167409Y-77908175D01*
X96109974Y-77800723D01*
X96038799Y-77713997D01*
X96015001Y-77684999D01*
X95986003Y-77661201D01*
X92804999Y-74480198D01*
X92804999Y-70988929D01*
X92915210Y-71043699D01*
X93264069Y-71138322D01*
X93624684Y-71163067D01*
X93983198Y-71116985D01*
X94325833Y-71001846D01*
X94548486Y-70882836D01*
X94668374Y-70597980D01*
X93570000Y-69499605D01*
X93555858Y-69513748D01*
X93376252Y-69334142D01*
X93390395Y-69320000D01*
X93376252Y-69305858D01*
X93555858Y-69126252D01*
X93570000Y-69140395D01*
X93584142Y-69126252D01*
X93763748Y-69305858D01*
G36*
X114481733Y-64259985D02*
G01*
X114613762Y-64330557D01*
X114757023Y-64374014D01*
X114868676Y-64385011D01*
X114868684Y-64385011D01*
X114906009Y-64388687D01*
X114943334Y-64385011D01*
X122547212Y-64385011D01*
X125731494Y-67569293D01*
X125430801Y-67693844D01*
X125130256Y-67894662D01*
X124874662Y-68150256D01*
X124673844Y-68450801D01*
X124546810Y-68757489D01*
X124481846Y-68564167D01*
X124362836Y-68341514D01*
X124077980Y-68221626D01*
X122979605Y-69320000D01*
X124077980Y-70418374D01*
X124362836Y-70298486D01*
X124523699Y-69974790D01*
X124547969Y-69885310D01*
X124673844Y-70189199D01*
X124874662Y-70489744D01*
X125130256Y-70745338D01*
X125430801Y-70946156D01*
X125764750Y-71084482D01*
X126119268Y-71155000D01*
X126480732Y-71155000D01*
X126835250Y-71084482D01*
X127169199Y-70946156D01*
X127455233Y-70755034D01*
X129918244Y-73218045D01*
X129896289Y-73240000D01*
X126287323Y-73240000D01*
X126250000Y-73236324D01*
X126212677Y-73240000D01*
X126212667Y-73240000D01*
X126101014Y-73250997D01*
X125957753Y-73294454D01*
X125825723Y-73365026D01*
X125772157Y-73408987D01*
X125709999Y-73459999D01*
X125686201Y-73488997D01*
X123785199Y-75390000D01*
X123723061Y-75390000D01*
X123523102Y-75429774D01*
X123334744Y-75507795D01*
X123165226Y-75621063D01*
X123021063Y-75765226D01*
X122907795Y-75934744D01*
X122829774Y-76123102D01*
X122790000Y-76323061D01*
X122790000Y-76526939D01*
X122822435Y-76690000D01*
X118539802Y-76690000D01*
X118050409Y-76200607D01*
X118157898Y-76179226D01*
X118346256Y-76101205D01*
X118515774Y-75987937D01*
X118659937Y-75843774D01*
X118773205Y-75674256D01*
X118851226Y-75485898D01*
X118891000Y-75285939D01*
X118891000Y-75082061D01*
X118851226Y-74882102D01*
X118773205Y-74693744D01*
X118751593Y-74661399D01*
X118724007Y-74570460D01*
X118637186Y-74408028D01*
X118520344Y-74265656D01*
X118484665Y-74236376D01*
X117205001Y-72956712D01*
X117205001Y-68375936D01*
X117209525Y-68330001D01*
X117191473Y-68146709D01*
X117183371Y-68120000D01*
X117461928Y-68120000D01*
X117461928Y-70520000D01*
X117474188Y-70644482D01*
X117510498Y-70764180D01*
X117569463Y-70874494D01*
X117648815Y-70971185D01*
X117745506Y-71050537D01*
X117855820Y-71109502D01*
X117975518Y-71145812D01*
X118100000Y-71158072D01*
X120500000Y-71158072D01*
X120624482Y-71145812D01*
X120744180Y-71109502D01*
X120854494Y-71050537D01*
X120951185Y-70971185D01*
X121030537Y-70874494D01*
X121089502Y-70764180D01*
X121125812Y-70644482D01*
X121130391Y-70597980D01*
X121701626Y-70597980D01*
X121821514Y-70882836D01*
X122145210Y-71043699D01*
X122494069Y-71138322D01*
X122854684Y-71163067D01*
X123213198Y-71116985D01*
X123555833Y-71001846D01*
X123778486Y-70882836D01*
X123898374Y-70597980D01*
X122800000Y-69499605D01*
X121701626Y-70597980D01*
X121130391Y-70597980D01*
X121138072Y-70520000D01*
X121138072Y-70113097D01*
X121237164Y-70298486D01*
X121522020Y-70418374D01*
X122620395Y-69320000D01*
X121522020Y-68221626D01*
X121237164Y-68341514D01*
X121138072Y-68540912D01*
X121138072Y-68120000D01*
X121130392Y-68042020D01*
X121701626Y-68042020D01*
X122800000Y-69140395D01*
X123898374Y-68042020D01*
X123778486Y-67757164D01*
X123454790Y-67596301D01*
X123105931Y-67501678D01*
X122745316Y-67476933D01*
X122386802Y-67523015D01*
X122044167Y-67638154D01*
X121821514Y-67757164D01*
X121701626Y-68042020D01*
X121130392Y-68042020D01*
X121125812Y-67995518D01*
X121089502Y-67875820D01*
X121030537Y-67765506D01*
X120951185Y-67668815D01*
X120854494Y-67589463D01*
X120744180Y-67530498D01*
X120624482Y-67494188D01*
X120500000Y-67481928D01*
X118100000Y-67481928D01*
X117975518Y-67494188D01*
X117855820Y-67530498D01*
X117745506Y-67589463D01*
X117648815Y-67668815D01*
X117569463Y-67765506D01*
X117510498Y-67875820D01*
X117474188Y-67995518D01*
X117461928Y-68120000D01*
X117183371Y-68120000D01*
X117138008Y-67970460D01*
X117097493Y-67894662D01*
X117051187Y-67808029D01*
X116934345Y-67665657D01*
X116898661Y-67636372D01*
X115983289Y-66721000D01*
X117408705Y-66721000D01*
X117554102Y-66781226D01*
X117754061Y-66821000D01*
X117957939Y-66821000D01*
X118157898Y-66781226D01*
X118346256Y-66703205D01*
X118515774Y-66589937D01*
X118659937Y-66445774D01*
X118773205Y-66276256D01*
X118851226Y-66087898D01*
X118891000Y-65887939D01*
X118891000Y-65684061D01*
X118851226Y-65484102D01*
X118773205Y-65295744D01*
X118659937Y-65126226D01*
X118515774Y-64982063D01*
X118346256Y-64868795D01*
X118157898Y-64790774D01*
X117957939Y-64751000D01*
X117754061Y-64751000D01*
X117554102Y-64790774D01*
X117408705Y-64851000D01*
X114113289Y-64851000D01*
X114075501Y-64813212D01*
X114178937Y-64709775D01*
X114292205Y-64540257D01*
X114370226Y-64351899D01*
X114401591Y-64194214D01*
X114481733Y-64259985D01*
G37*
X114481733Y-64259985D02*
X114613762Y-64330557D01*
X114757023Y-64374014D01*
X114868676Y-64385011D01*
X114868684Y-64385011D01*
X114906009Y-64388687D01*
X114943334Y-64385011D01*
X122547212Y-64385011D01*
X125731494Y-67569293D01*
X125430801Y-67693844D01*
X125130256Y-67894662D01*
X124874662Y-68150256D01*
X124673844Y-68450801D01*
X124546810Y-68757489D01*
X124481846Y-68564167D01*
X124362836Y-68341514D01*
X124077980Y-68221626D01*
X122979605Y-69320000D01*
X124077980Y-70418374D01*
X124362836Y-70298486D01*
X124523699Y-69974790D01*
X124547969Y-69885310D01*
X124673844Y-70189199D01*
X124874662Y-70489744D01*
X125130256Y-70745338D01*
X125430801Y-70946156D01*
X125764750Y-71084482D01*
X126119268Y-71155000D01*
X126480732Y-71155000D01*
X126835250Y-71084482D01*
X127169199Y-70946156D01*
X127455233Y-70755034D01*
X129918244Y-73218045D01*
X129896289Y-73240000D01*
X126287323Y-73240000D01*
X126250000Y-73236324D01*
X126212677Y-73240000D01*
X126212667Y-73240000D01*
X126101014Y-73250997D01*
X125957753Y-73294454D01*
X125825723Y-73365026D01*
X125772157Y-73408987D01*
X125709999Y-73459999D01*
X125686201Y-73488997D01*
X123785199Y-75390000D01*
X123723061Y-75390000D01*
X123523102Y-75429774D01*
X123334744Y-75507795D01*
X123165226Y-75621063D01*
X123021063Y-75765226D01*
X122907795Y-75934744D01*
X122829774Y-76123102D01*
X122790000Y-76323061D01*
X122790000Y-76526939D01*
X122822435Y-76690000D01*
X118539802Y-76690000D01*
X118050409Y-76200607D01*
X118157898Y-76179226D01*
X118346256Y-76101205D01*
X118515774Y-75987937D01*
X118659937Y-75843774D01*
X118773205Y-75674256D01*
X118851226Y-75485898D01*
X118891000Y-75285939D01*
X118891000Y-75082061D01*
X118851226Y-74882102D01*
X118773205Y-74693744D01*
X118751593Y-74661399D01*
X118724007Y-74570460D01*
X118637186Y-74408028D01*
X118520344Y-74265656D01*
X118484665Y-74236376D01*
X117205001Y-72956712D01*
X117205001Y-68375936D01*
X117209525Y-68330001D01*
X117191473Y-68146709D01*
X117183371Y-68120000D01*
X117461928Y-68120000D01*
X117461928Y-70520000D01*
X117474188Y-70644482D01*
X117510498Y-70764180D01*
X117569463Y-70874494D01*
X117648815Y-70971185D01*
X117745506Y-71050537D01*
X117855820Y-71109502D01*
X117975518Y-71145812D01*
X118100000Y-71158072D01*
X120500000Y-71158072D01*
X120624482Y-71145812D01*
X120744180Y-71109502D01*
X120854494Y-71050537D01*
X120951185Y-70971185D01*
X121030537Y-70874494D01*
X121089502Y-70764180D01*
X121125812Y-70644482D01*
X121130391Y-70597980D01*
X121701626Y-70597980D01*
X121821514Y-70882836D01*
X122145210Y-71043699D01*
X122494069Y-71138322D01*
X122854684Y-71163067D01*
X123213198Y-71116985D01*
X123555833Y-71001846D01*
X123778486Y-70882836D01*
X123898374Y-70597980D01*
X122800000Y-69499605D01*
X121701626Y-70597980D01*
X121130391Y-70597980D01*
X121138072Y-70520000D01*
X121138072Y-70113097D01*
X121237164Y-70298486D01*
X121522020Y-70418374D01*
X122620395Y-69320000D01*
X121522020Y-68221626D01*
X121237164Y-68341514D01*
X121138072Y-68540912D01*
X121138072Y-68120000D01*
X121130392Y-68042020D01*
X121701626Y-68042020D01*
X122800000Y-69140395D01*
X123898374Y-68042020D01*
X123778486Y-67757164D01*
X123454790Y-67596301D01*
X123105931Y-67501678D01*
X122745316Y-67476933D01*
X122386802Y-67523015D01*
X122044167Y-67638154D01*
X121821514Y-67757164D01*
X121701626Y-68042020D01*
X121130392Y-68042020D01*
X121125812Y-67995518D01*
X121089502Y-67875820D01*
X121030537Y-67765506D01*
X120951185Y-67668815D01*
X120854494Y-67589463D01*
X120744180Y-67530498D01*
X120624482Y-67494188D01*
X120500000Y-67481928D01*
X118100000Y-67481928D01*
X117975518Y-67494188D01*
X117855820Y-67530498D01*
X117745506Y-67589463D01*
X117648815Y-67668815D01*
X117569463Y-67765506D01*
X117510498Y-67875820D01*
X117474188Y-67995518D01*
X117461928Y-68120000D01*
X117183371Y-68120000D01*
X117138008Y-67970460D01*
X117097493Y-67894662D01*
X117051187Y-67808029D01*
X116934345Y-67665657D01*
X116898661Y-67636372D01*
X115983289Y-66721000D01*
X117408705Y-66721000D01*
X117554102Y-66781226D01*
X117754061Y-66821000D01*
X117957939Y-66821000D01*
X118157898Y-66781226D01*
X118346256Y-66703205D01*
X118515774Y-66589937D01*
X118659937Y-66445774D01*
X118773205Y-66276256D01*
X118851226Y-66087898D01*
X118891000Y-65887939D01*
X118891000Y-65684061D01*
X118851226Y-65484102D01*
X118773205Y-65295744D01*
X118659937Y-65126226D01*
X118515774Y-64982063D01*
X118346256Y-64868795D01*
X118157898Y-64790774D01*
X117957939Y-64751000D01*
X117754061Y-64751000D01*
X117554102Y-64790774D01*
X117408705Y-64851000D01*
X114113289Y-64851000D01*
X114075501Y-64813212D01*
X114178937Y-64709775D01*
X114292205Y-64540257D01*
X114370226Y-64351899D01*
X114401591Y-64194214D01*
X114481733Y-64259985D01*
G36*
X93546525Y-62946632D02*
G01*
X93753368Y-63153475D01*
X93996589Y-63315990D01*
X94266842Y-63427932D01*
X94553740Y-63485000D01*
X94814505Y-63485000D01*
X94812989Y-63490000D01*
X94718060Y-63490000D01*
X94518101Y-63529774D01*
X94329743Y-63607795D01*
X94160225Y-63721063D01*
X94116288Y-63765000D01*
X92237333Y-63765000D01*
X92200000Y-63761323D01*
X92162667Y-63765000D01*
X92051014Y-63775997D01*
X91907753Y-63819454D01*
X91775724Y-63890026D01*
X91659999Y-63984999D01*
X91636196Y-64014003D01*
X91533997Y-64116202D01*
X91504999Y-64140000D01*
X91481201Y-64168998D01*
X91481200Y-64168999D01*
X91410025Y-64255725D01*
X91339453Y-64387755D01*
X91322391Y-64444003D01*
X91295997Y-64531015D01*
X91288873Y-64603350D01*
X91281323Y-64680001D01*
X91285000Y-64717333D01*
X91285000Y-67483405D01*
X91270000Y-67481928D01*
X90355750Y-67485000D01*
X90197000Y-67643750D01*
X90197000Y-69193000D01*
X90217000Y-69193000D01*
X90217000Y-69447000D01*
X90197000Y-69447000D01*
X90197000Y-70996250D01*
X90355750Y-71155000D01*
X91270000Y-71158072D01*
X91284999Y-71156595D01*
X91284999Y-72535198D01*
X89844526Y-71094724D01*
X89943000Y-70996250D01*
X89943000Y-69447000D01*
X89923000Y-69447000D01*
X89923000Y-69193000D01*
X89943000Y-69193000D01*
X89943000Y-67643750D01*
X89784250Y-67485000D01*
X89304999Y-67483390D01*
X89304999Y-65929802D01*
X91793593Y-63441210D01*
X92013740Y-63485000D01*
X92306260Y-63485000D01*
X92593158Y-63427932D01*
X92863411Y-63315990D01*
X93106632Y-63153475D01*
X93313475Y-62946632D01*
X93430000Y-62772240D01*
X93546525Y-62946632D01*
G37*
X93546525Y-62946632D02*
X93753368Y-63153475D01*
X93996589Y-63315990D01*
X94266842Y-63427932D01*
X94553740Y-63485000D01*
X94814505Y-63485000D01*
X94812989Y-63490000D01*
X94718060Y-63490000D01*
X94518101Y-63529774D01*
X94329743Y-63607795D01*
X94160225Y-63721063D01*
X94116288Y-63765000D01*
X92237333Y-63765000D01*
X92200000Y-63761323D01*
X92162667Y-63765000D01*
X92051014Y-63775997D01*
X91907753Y-63819454D01*
X91775724Y-63890026D01*
X91659999Y-63984999D01*
X91636196Y-64014003D01*
X91533997Y-64116202D01*
X91504999Y-64140000D01*
X91481201Y-64168998D01*
X91481200Y-64168999D01*
X91410025Y-64255725D01*
X91339453Y-64387755D01*
X91322391Y-64444003D01*
X91295997Y-64531015D01*
X91288873Y-64603350D01*
X91281323Y-64680001D01*
X91285000Y-64717333D01*
X91285000Y-67483405D01*
X91270000Y-67481928D01*
X90355750Y-67485000D01*
X90197000Y-67643750D01*
X90197000Y-69193000D01*
X90217000Y-69193000D01*
X90217000Y-69447000D01*
X90197000Y-69447000D01*
X90197000Y-70996250D01*
X90355750Y-71155000D01*
X91270000Y-71158072D01*
X91284999Y-71156595D01*
X91284999Y-72535198D01*
X89844526Y-71094724D01*
X89943000Y-70996250D01*
X89943000Y-69447000D01*
X89923000Y-69447000D01*
X89923000Y-69193000D01*
X89943000Y-69193000D01*
X89943000Y-67643750D01*
X89784250Y-67485000D01*
X89304999Y-67483390D01*
X89304999Y-65929802D01*
X91793593Y-63441210D01*
X92013740Y-63485000D01*
X92306260Y-63485000D01*
X92593158Y-63427932D01*
X92863411Y-63315990D01*
X93106632Y-63153475D01*
X93313475Y-62946632D01*
X93430000Y-62772240D01*
X93546525Y-62946632D01*
G36*
X137565002Y-66964804D02*
G01*
X137565002Y-67651071D01*
X137454790Y-67596301D01*
X137105931Y-67501678D01*
X136745316Y-67476933D01*
X136386802Y-67523015D01*
X136044167Y-67638154D01*
X135821514Y-67757164D01*
X135701626Y-68042020D01*
X136800000Y-69140395D01*
X136814142Y-69126252D01*
X136993748Y-69305858D01*
X136979605Y-69320000D01*
X136993748Y-69334143D01*
X136814142Y-69513748D01*
X136800000Y-69499605D01*
X135701626Y-70597980D01*
X135812373Y-70861116D01*
X134296470Y-70861116D01*
X134469744Y-70745338D01*
X134725338Y-70489744D01*
X134926156Y-70189199D01*
X135053190Y-69882511D01*
X135118154Y-70075833D01*
X135237164Y-70298486D01*
X135522020Y-70418374D01*
X136620395Y-69320000D01*
X135522020Y-68221626D01*
X135237164Y-68341514D01*
X135076301Y-68665210D01*
X135052031Y-68754690D01*
X134926156Y-68450801D01*
X134725338Y-68150256D01*
X134469744Y-67894662D01*
X134169199Y-67693844D01*
X133835250Y-67555518D01*
X133480732Y-67485000D01*
X133119268Y-67485000D01*
X132764750Y-67555518D01*
X132430801Y-67693844D01*
X132130256Y-67894662D01*
X131874662Y-68150256D01*
X131673844Y-68450801D01*
X131546810Y-68757489D01*
X131481846Y-68564167D01*
X131362836Y-68341514D01*
X131077980Y-68221626D01*
X129979605Y-69320000D01*
X131077980Y-70418374D01*
X131362836Y-70298486D01*
X131523699Y-69974790D01*
X131547969Y-69885310D01*
X131673844Y-70189199D01*
X131874662Y-70489744D01*
X132130256Y-70745338D01*
X132303530Y-70861116D01*
X131303711Y-70861116D01*
X131259774Y-70817179D01*
X131090256Y-70703911D01*
X130901898Y-70625890D01*
X130887807Y-70623087D01*
X130898374Y-70597980D01*
X129800000Y-69499605D01*
X129785858Y-69513748D01*
X129606253Y-69334143D01*
X129620395Y-69320000D01*
X128522020Y-68221626D01*
X128496636Y-68232309D01*
X128459975Y-68163722D01*
X128388800Y-68076996D01*
X128365002Y-68047998D01*
X128357718Y-68042020D01*
X128701626Y-68042020D01*
X129800000Y-69140395D01*
X130898374Y-68042020D01*
X130778486Y-67757164D01*
X130454790Y-67596301D01*
X130105931Y-67501678D01*
X129745316Y-67476933D01*
X129386802Y-67523015D01*
X129044167Y-67638154D01*
X128821514Y-67757164D01*
X128701626Y-68042020D01*
X128357718Y-68042020D01*
X128336004Y-68024200D01*
X124246804Y-63935001D01*
X134535200Y-63935001D01*
X137565002Y-66964804D01*
G37*
X137565002Y-66964804D02*
X137565002Y-67651071D01*
X137454790Y-67596301D01*
X137105931Y-67501678D01*
X136745316Y-67476933D01*
X136386802Y-67523015D01*
X136044167Y-67638154D01*
X135821514Y-67757164D01*
X135701626Y-68042020D01*
X136800000Y-69140395D01*
X136814142Y-69126252D01*
X136993748Y-69305858D01*
X136979605Y-69320000D01*
X136993748Y-69334143D01*
X136814142Y-69513748D01*
X136800000Y-69499605D01*
X135701626Y-70597980D01*
X135812373Y-70861116D01*
X134296470Y-70861116D01*
X134469744Y-70745338D01*
X134725338Y-70489744D01*
X134926156Y-70189199D01*
X135053190Y-69882511D01*
X135118154Y-70075833D01*
X135237164Y-70298486D01*
X135522020Y-70418374D01*
X136620395Y-69320000D01*
X135522020Y-68221626D01*
X135237164Y-68341514D01*
X135076301Y-68665210D01*
X135052031Y-68754690D01*
X134926156Y-68450801D01*
X134725338Y-68150256D01*
X134469744Y-67894662D01*
X134169199Y-67693844D01*
X133835250Y-67555518D01*
X133480732Y-67485000D01*
X133119268Y-67485000D01*
X132764750Y-67555518D01*
X132430801Y-67693844D01*
X132130256Y-67894662D01*
X131874662Y-68150256D01*
X131673844Y-68450801D01*
X131546810Y-68757489D01*
X131481846Y-68564167D01*
X131362836Y-68341514D01*
X131077980Y-68221626D01*
X129979605Y-69320000D01*
X131077980Y-70418374D01*
X131362836Y-70298486D01*
X131523699Y-69974790D01*
X131547969Y-69885310D01*
X131673844Y-70189199D01*
X131874662Y-70489744D01*
X132130256Y-70745338D01*
X132303530Y-70861116D01*
X131303711Y-70861116D01*
X131259774Y-70817179D01*
X131090256Y-70703911D01*
X130901898Y-70625890D01*
X130887807Y-70623087D01*
X130898374Y-70597980D01*
X129800000Y-69499605D01*
X129785858Y-69513748D01*
X129606253Y-69334143D01*
X129620395Y-69320000D01*
X128522020Y-68221626D01*
X128496636Y-68232309D01*
X128459975Y-68163722D01*
X128388800Y-68076996D01*
X128365002Y-68047998D01*
X128357718Y-68042020D01*
X128701626Y-68042020D01*
X129800000Y-69140395D01*
X130898374Y-68042020D01*
X130778486Y-67757164D01*
X130454790Y-67596301D01*
X130105931Y-67501678D01*
X129745316Y-67476933D01*
X129386802Y-67523015D01*
X129044167Y-67638154D01*
X128821514Y-67757164D01*
X128701626Y-68042020D01*
X128357718Y-68042020D01*
X128336004Y-68024200D01*
X124246804Y-63935001D01*
X134535200Y-63935001D01*
X137565002Y-66964804D01*
G36*
X114570000Y-69140395D02*
G01*
X114584143Y-69126253D01*
X114763748Y-69305858D01*
X114749605Y-69320000D01*
X114763748Y-69334143D01*
X114584142Y-69513748D01*
X114570000Y-69499605D01*
X114555858Y-69513748D01*
X114376252Y-69334142D01*
X114390395Y-69320000D01*
X114376252Y-69305858D01*
X114555858Y-69126252D01*
X114570000Y-69140395D01*
G37*
X114570000Y-69140395D02*
X114584143Y-69126253D01*
X114763748Y-69305858D01*
X114749605Y-69320000D01*
X114763748Y-69334143D01*
X114584142Y-69513748D01*
X114570000Y-69499605D01*
X114555858Y-69513748D01*
X114376252Y-69334142D01*
X114390395Y-69320000D01*
X114376252Y-69305858D01*
X114555858Y-69126252D01*
X114570000Y-69140395D01*
G36*
X143993748Y-69305858D02*
G01*
X143979605Y-69320000D01*
X143993748Y-69334142D01*
X143814142Y-69513748D01*
X143800000Y-69499605D01*
X143785858Y-69513748D01*
X143606252Y-69334142D01*
X143620395Y-69320000D01*
X143606252Y-69305858D01*
X143785858Y-69126252D01*
X143800000Y-69140395D01*
X143814142Y-69126252D01*
X143993748Y-69305858D01*
G37*
X143993748Y-69305858D02*
X143979605Y-69320000D01*
X143993748Y-69334142D01*
X143814142Y-69513748D01*
X143800000Y-69499605D01*
X143785858Y-69513748D01*
X143606252Y-69334142D01*
X143620395Y-69320000D01*
X143606252Y-69305858D01*
X143785858Y-69126252D01*
X143800000Y-69140395D01*
X143814142Y-69126252D01*
X143993748Y-69305858D01*
G36*
X107763748Y-69305858D02*
G01*
X107749605Y-69320000D01*
X107763748Y-69334142D01*
X107584142Y-69513748D01*
X107570000Y-69499605D01*
X107555858Y-69513748D01*
X107376252Y-69334142D01*
X107390395Y-69320000D01*
X107376252Y-69305858D01*
X107555858Y-69126252D01*
X107570000Y-69140395D01*
X107584142Y-69126252D01*
X107763748Y-69305858D01*
G37*
X107763748Y-69305858D02*
X107749605Y-69320000D01*
X107763748Y-69334142D01*
X107584142Y-69513748D01*
X107570000Y-69499605D01*
X107555858Y-69513748D01*
X107376252Y-69334142D01*
X107390395Y-69320000D01*
X107376252Y-69305858D01*
X107555858Y-69126252D01*
X107570000Y-69140395D01*
X107584142Y-69126252D01*
X107763748Y-69305858D01*
G36*
X111070000Y-69140395D02*
G01*
X111084143Y-69126253D01*
X111263748Y-69305858D01*
X111249605Y-69320000D01*
X111263748Y-69334143D01*
X111084142Y-69513748D01*
X111070000Y-69499605D01*
X111055858Y-69513748D01*
X110876252Y-69334142D01*
X110890395Y-69320000D01*
X110876252Y-69305858D01*
X111055858Y-69126252D01*
X111070000Y-69140395D01*
G37*
X111070000Y-69140395D02*
X111084143Y-69126253D01*
X111263748Y-69305858D01*
X111249605Y-69320000D01*
X111263748Y-69334143D01*
X111084142Y-69513748D01*
X111070000Y-69499605D01*
X111055858Y-69513748D01*
X110876252Y-69334142D01*
X110890395Y-69320000D01*
X110876252Y-69305858D01*
X111055858Y-69126252D01*
X111070000Y-69140395D01*
G36*
X104263748Y-69305858D02*
G01*
X104249605Y-69320000D01*
X104263748Y-69334142D01*
X104084143Y-69513748D01*
X104070000Y-69499605D01*
X104055858Y-69513748D01*
X103876252Y-69334142D01*
X103890395Y-69320000D01*
X103876252Y-69305858D01*
X104055858Y-69126252D01*
X104070000Y-69140395D01*
X104084142Y-69126252D01*
X104263748Y-69305858D01*
G37*
X104263748Y-69305858D02*
X104249605Y-69320000D01*
X104263748Y-69334142D01*
X104084143Y-69513748D01*
X104070000Y-69499605D01*
X104055858Y-69513748D01*
X103876252Y-69334142D01*
X103890395Y-69320000D01*
X103876252Y-69305858D01*
X104055858Y-69126252D01*
X104070000Y-69140395D01*
X104084142Y-69126252D01*
X104263748Y-69305858D01*
G36*
X100763748Y-69305858D02*
G01*
X100749605Y-69320000D01*
X100763748Y-69334142D01*
X100584142Y-69513748D01*
X100570000Y-69499605D01*
X100555858Y-69513748D01*
X100376252Y-69334142D01*
X100390395Y-69320000D01*
X100376252Y-69305858D01*
X100555858Y-69126252D01*
X100570000Y-69140395D01*
X100584142Y-69126252D01*
X100763748Y-69305858D01*
G37*
X100763748Y-69305858D02*
X100749605Y-69320000D01*
X100763748Y-69334142D01*
X100584142Y-69513748D01*
X100570000Y-69499605D01*
X100555858Y-69513748D01*
X100376252Y-69334142D01*
X100390395Y-69320000D01*
X100376252Y-69305858D01*
X100555858Y-69126252D01*
X100570000Y-69140395D01*
X100584142Y-69126252D01*
X100763748Y-69305858D01*
G36*
X97263748Y-69305858D02*
G01*
X97249605Y-69320000D01*
X97263748Y-69334142D01*
X97084143Y-69513748D01*
X97070000Y-69499605D01*
X97055858Y-69513748D01*
X96876253Y-69334143D01*
X96890395Y-69320000D01*
X96876252Y-69305858D01*
X97055858Y-69126252D01*
X97070000Y-69140395D01*
X97084142Y-69126252D01*
X97263748Y-69305858D01*
G37*
X97263748Y-69305858D02*
X97249605Y-69320000D01*
X97263748Y-69334142D01*
X97084143Y-69513748D01*
X97070000Y-69499605D01*
X97055858Y-69513748D01*
X96876253Y-69334143D01*
X96890395Y-69320000D01*
X96876252Y-69305858D01*
X97055858Y-69126252D01*
X97070000Y-69140395D01*
X97084142Y-69126252D01*
X97263748Y-69305858D01*
G36*
X144890011Y-59689813D02*
G01*
X144890011Y-68022149D01*
X144778486Y-67757164D01*
X144454790Y-67596301D01*
X144105931Y-67501678D01*
X143745316Y-67476933D01*
X143386802Y-67523015D01*
X143044167Y-67638154D01*
X142821514Y-67757164D01*
X142701627Y-68042019D01*
X142586420Y-67926812D01*
X142585001Y-67928231D01*
X142585001Y-67639800D01*
X142914802Y-67310000D01*
X142976939Y-67310000D01*
X143176898Y-67270226D01*
X143365256Y-67192205D01*
X143534774Y-67078937D01*
X143678937Y-66934774D01*
X143792205Y-66765256D01*
X143870226Y-66576898D01*
X143910000Y-66376939D01*
X143910000Y-66173061D01*
X143870226Y-65973102D01*
X143792205Y-65784744D01*
X143678937Y-65615226D01*
X143534774Y-65471063D01*
X143365256Y-65357795D01*
X143176898Y-65279774D01*
X142976939Y-65240000D01*
X142773061Y-65240000D01*
X142573102Y-65279774D01*
X142384744Y-65357795D01*
X142215226Y-65471063D01*
X142071063Y-65615226D01*
X141957795Y-65784744D01*
X141879774Y-65973102D01*
X141840000Y-66173061D01*
X141840000Y-66235198D01*
X141314003Y-66761195D01*
X141285000Y-66784998D01*
X141231206Y-66850547D01*
X141190027Y-66900723D01*
X141121473Y-67028977D01*
X141119455Y-67032753D01*
X141075998Y-67176014D01*
X141065001Y-67287667D01*
X141065001Y-67287677D01*
X141061325Y-67324999D01*
X141065001Y-67362322D01*
X141065001Y-67650684D01*
X140835250Y-67555518D01*
X140480732Y-67485000D01*
X140119268Y-67485000D01*
X139764750Y-67555518D01*
X139430801Y-67693844D01*
X139130256Y-67894662D01*
X139085001Y-67939917D01*
X139085001Y-66687323D01*
X139088677Y-66650000D01*
X139085001Y-66612677D01*
X139085001Y-66612668D01*
X139074004Y-66501015D01*
X139030547Y-66357754D01*
X139029968Y-66356670D01*
X138959975Y-66225724D01*
X138888800Y-66138998D01*
X138865002Y-66110000D01*
X138836004Y-66086202D01*
X136056827Y-63307026D01*
X136286632Y-63153475D01*
X136493475Y-62946632D01*
X136615195Y-62764466D01*
X136684822Y-62881355D01*
X136879731Y-63097588D01*
X137113080Y-63271641D01*
X137375901Y-63396825D01*
X137523110Y-63441476D01*
X137753000Y-63320155D01*
X137753000Y-62127000D01*
X138007000Y-62127000D01*
X138007000Y-63320155D01*
X138236890Y-63441476D01*
X138384099Y-63396825D01*
X138646920Y-63271641D01*
X138880269Y-63097588D01*
X139075178Y-62881355D01*
X139224157Y-62631252D01*
X139321481Y-62356891D01*
X139200814Y-62127000D01*
X138007000Y-62127000D01*
X137753000Y-62127000D01*
X137733000Y-62127000D01*
X137733000Y-61873000D01*
X137753000Y-61873000D01*
X137753000Y-61853000D01*
X138007000Y-61853000D01*
X138007000Y-61873000D01*
X139200814Y-61873000D01*
X139321481Y-61643109D01*
X139224157Y-61368748D01*
X139075178Y-61118645D01*
X138880269Y-60902412D01*
X138650594Y-60731100D01*
X138826632Y-60613475D01*
X139033475Y-60406632D01*
X139195990Y-60163411D01*
X139307932Y-59893158D01*
X139365000Y-59606260D01*
X139365000Y-59313740D01*
X139307932Y-59026842D01*
X139195990Y-58756589D01*
X139033475Y-58513368D01*
X138826632Y-58306525D01*
X138583411Y-58144010D01*
X138313158Y-58032068D01*
X138026260Y-57975000D01*
X137733740Y-57975000D01*
X137446842Y-58032068D01*
X137176589Y-58144010D01*
X136933368Y-58306525D01*
X136726525Y-58513368D01*
X136610000Y-58687760D01*
X136493475Y-58513368D01*
X136286632Y-58306525D01*
X136043411Y-58144010D01*
X135773158Y-58032068D01*
X135486260Y-57975000D01*
X135193740Y-57975000D01*
X134906842Y-58032068D01*
X134636589Y-58144010D01*
X134393368Y-58306525D01*
X134186525Y-58513368D01*
X134070000Y-58687760D01*
X133953475Y-58513368D01*
X133746632Y-58306525D01*
X133503411Y-58144010D01*
X133233158Y-58032068D01*
X132946260Y-57975000D01*
X132653740Y-57975000D01*
X132366842Y-58032068D01*
X132096589Y-58144010D01*
X131853368Y-58306525D01*
X131646525Y-58513368D01*
X131524805Y-58695534D01*
X131455178Y-58578645D01*
X131260269Y-58362412D01*
X131026920Y-58188359D01*
X130764099Y-58063175D01*
X130616890Y-58018524D01*
X130387000Y-58139845D01*
X130387000Y-59333000D01*
X130407000Y-59333000D01*
X130407000Y-59587000D01*
X130387000Y-59587000D01*
X130387000Y-59607000D01*
X130133000Y-59607000D01*
X130133000Y-59587000D01*
X130113000Y-59587000D01*
X130113000Y-59333000D01*
X130133000Y-59333000D01*
X130133000Y-58139845D01*
X129903110Y-58018524D01*
X129755901Y-58063175D01*
X129493080Y-58188359D01*
X129259731Y-58362412D01*
X129064822Y-58578645D01*
X128995195Y-58695534D01*
X128873475Y-58513368D01*
X128666632Y-58306525D01*
X128423411Y-58144010D01*
X128153158Y-58032068D01*
X127866260Y-57975000D01*
X127573740Y-57975000D01*
X127286842Y-58032068D01*
X127016589Y-58144010D01*
X126773368Y-58306525D01*
X126566525Y-58513368D01*
X126444805Y-58695534D01*
X126375178Y-58578645D01*
X126180269Y-58362412D01*
X125946920Y-58188359D01*
X125684099Y-58063175D01*
X125536890Y-58018524D01*
X125307000Y-58139845D01*
X125307000Y-59333000D01*
X125327000Y-59333000D01*
X125327000Y-59587000D01*
X125307000Y-59587000D01*
X125307000Y-59607000D01*
X125053000Y-59607000D01*
X125053000Y-59587000D01*
X125033000Y-59587000D01*
X125033000Y-59333000D01*
X125053000Y-59333000D01*
X125053000Y-58139845D01*
X124823110Y-58018524D01*
X124675901Y-58063175D01*
X124413080Y-58188359D01*
X124179731Y-58362412D01*
X123984822Y-58578645D01*
X123915195Y-58695534D01*
X123793475Y-58513368D01*
X123586632Y-58306525D01*
X123343411Y-58144010D01*
X123073158Y-58032068D01*
X122786260Y-57975000D01*
X122493740Y-57975000D01*
X122206842Y-58032068D01*
X121936589Y-58144010D01*
X121693368Y-58306525D01*
X121486525Y-58513368D01*
X121370000Y-58687760D01*
X121253475Y-58513368D01*
X121046632Y-58306525D01*
X120860000Y-58181822D01*
X120860000Y-58090093D01*
X120915256Y-58067205D01*
X121084774Y-57953937D01*
X121128711Y-57910000D01*
X143110199Y-57910000D01*
X144890011Y-59689813D01*
G37*
X144890011Y-59689813D02*
X144890011Y-68022149D01*
X144778486Y-67757164D01*
X144454790Y-67596301D01*
X144105931Y-67501678D01*
X143745316Y-67476933D01*
X143386802Y-67523015D01*
X143044167Y-67638154D01*
X142821514Y-67757164D01*
X142701627Y-68042019D01*
X142586420Y-67926812D01*
X142585001Y-67928231D01*
X142585001Y-67639800D01*
X142914802Y-67310000D01*
X142976939Y-67310000D01*
X143176898Y-67270226D01*
X143365256Y-67192205D01*
X143534774Y-67078937D01*
X143678937Y-66934774D01*
X143792205Y-66765256D01*
X143870226Y-66576898D01*
X143910000Y-66376939D01*
X143910000Y-66173061D01*
X143870226Y-65973102D01*
X143792205Y-65784744D01*
X143678937Y-65615226D01*
X143534774Y-65471063D01*
X143365256Y-65357795D01*
X143176898Y-65279774D01*
X142976939Y-65240000D01*
X142773061Y-65240000D01*
X142573102Y-65279774D01*
X142384744Y-65357795D01*
X142215226Y-65471063D01*
X142071063Y-65615226D01*
X141957795Y-65784744D01*
X141879774Y-65973102D01*
X141840000Y-66173061D01*
X141840000Y-66235198D01*
X141314003Y-66761195D01*
X141285000Y-66784998D01*
X141231206Y-66850547D01*
X141190027Y-66900723D01*
X141121473Y-67028977D01*
X141119455Y-67032753D01*
X141075998Y-67176014D01*
X141065001Y-67287667D01*
X141065001Y-67287677D01*
X141061325Y-67324999D01*
X141065001Y-67362322D01*
X141065001Y-67650684D01*
X140835250Y-67555518D01*
X140480732Y-67485000D01*
X140119268Y-67485000D01*
X139764750Y-67555518D01*
X139430801Y-67693844D01*
X139130256Y-67894662D01*
X139085001Y-67939917D01*
X139085001Y-66687323D01*
X139088677Y-66650000D01*
X139085001Y-66612677D01*
X139085001Y-66612668D01*
X139074004Y-66501015D01*
X139030547Y-66357754D01*
X139029968Y-66356670D01*
X138959975Y-66225724D01*
X138888800Y-66138998D01*
X138865002Y-66110000D01*
X138836004Y-66086202D01*
X136056827Y-63307026D01*
X136286632Y-63153475D01*
X136493475Y-62946632D01*
X136615195Y-62764466D01*
X136684822Y-62881355D01*
X136879731Y-63097588D01*
X137113080Y-63271641D01*
X137375901Y-63396825D01*
X137523110Y-63441476D01*
X137753000Y-63320155D01*
X137753000Y-62127000D01*
X138007000Y-62127000D01*
X138007000Y-63320155D01*
X138236890Y-63441476D01*
X138384099Y-63396825D01*
X138646920Y-63271641D01*
X138880269Y-63097588D01*
X139075178Y-62881355D01*
X139224157Y-62631252D01*
X139321481Y-62356891D01*
X139200814Y-62127000D01*
X138007000Y-62127000D01*
X137753000Y-62127000D01*
X137733000Y-62127000D01*
X137733000Y-61873000D01*
X137753000Y-61873000D01*
X137753000Y-61853000D01*
X138007000Y-61853000D01*
X138007000Y-61873000D01*
X139200814Y-61873000D01*
X139321481Y-61643109D01*
X139224157Y-61368748D01*
X139075178Y-61118645D01*
X138880269Y-60902412D01*
X138650594Y-60731100D01*
X138826632Y-60613475D01*
X139033475Y-60406632D01*
X139195990Y-60163411D01*
X139307932Y-59893158D01*
X139365000Y-59606260D01*
X139365000Y-59313740D01*
X139307932Y-59026842D01*
X139195990Y-58756589D01*
X139033475Y-58513368D01*
X138826632Y-58306525D01*
X138583411Y-58144010D01*
X138313158Y-58032068D01*
X138026260Y-57975000D01*
X137733740Y-57975000D01*
X137446842Y-58032068D01*
X137176589Y-58144010D01*
X136933368Y-58306525D01*
X136726525Y-58513368D01*
X136610000Y-58687760D01*
X136493475Y-58513368D01*
X136286632Y-58306525D01*
X136043411Y-58144010D01*
X135773158Y-58032068D01*
X135486260Y-57975000D01*
X135193740Y-57975000D01*
X134906842Y-58032068D01*
X134636589Y-58144010D01*
X134393368Y-58306525D01*
X134186525Y-58513368D01*
X134070000Y-58687760D01*
X133953475Y-58513368D01*
X133746632Y-58306525D01*
X133503411Y-58144010D01*
X133233158Y-58032068D01*
X132946260Y-57975000D01*
X132653740Y-57975000D01*
X132366842Y-58032068D01*
X132096589Y-58144010D01*
X131853368Y-58306525D01*
X131646525Y-58513368D01*
X131524805Y-58695534D01*
X131455178Y-58578645D01*
X131260269Y-58362412D01*
X131026920Y-58188359D01*
X130764099Y-58063175D01*
X130616890Y-58018524D01*
X130387000Y-58139845D01*
X130387000Y-59333000D01*
X130407000Y-59333000D01*
X130407000Y-59587000D01*
X130387000Y-59587000D01*
X130387000Y-59607000D01*
X130133000Y-59607000D01*
X130133000Y-59587000D01*
X130113000Y-59587000D01*
X130113000Y-59333000D01*
X130133000Y-59333000D01*
X130133000Y-58139845D01*
X129903110Y-58018524D01*
X129755901Y-58063175D01*
X129493080Y-58188359D01*
X129259731Y-58362412D01*
X129064822Y-58578645D01*
X128995195Y-58695534D01*
X128873475Y-58513368D01*
X128666632Y-58306525D01*
X128423411Y-58144010D01*
X128153158Y-58032068D01*
X127866260Y-57975000D01*
X127573740Y-57975000D01*
X127286842Y-58032068D01*
X127016589Y-58144010D01*
X126773368Y-58306525D01*
X126566525Y-58513368D01*
X126444805Y-58695534D01*
X126375178Y-58578645D01*
X126180269Y-58362412D01*
X125946920Y-58188359D01*
X125684099Y-58063175D01*
X125536890Y-58018524D01*
X125307000Y-58139845D01*
X125307000Y-59333000D01*
X125327000Y-59333000D01*
X125327000Y-59587000D01*
X125307000Y-59587000D01*
X125307000Y-59607000D01*
X125053000Y-59607000D01*
X125053000Y-59587000D01*
X125033000Y-59587000D01*
X125033000Y-59333000D01*
X125053000Y-59333000D01*
X125053000Y-58139845D01*
X124823110Y-58018524D01*
X124675901Y-58063175D01*
X124413080Y-58188359D01*
X124179731Y-58362412D01*
X123984822Y-58578645D01*
X123915195Y-58695534D01*
X123793475Y-58513368D01*
X123586632Y-58306525D01*
X123343411Y-58144010D01*
X123073158Y-58032068D01*
X122786260Y-57975000D01*
X122493740Y-57975000D01*
X122206842Y-58032068D01*
X121936589Y-58144010D01*
X121693368Y-58306525D01*
X121486525Y-58513368D01*
X121370000Y-58687760D01*
X121253475Y-58513368D01*
X121046632Y-58306525D01*
X120860000Y-58181822D01*
X120860000Y-58090093D01*
X120915256Y-58067205D01*
X121084774Y-57953937D01*
X121128711Y-57910000D01*
X143110199Y-57910000D01*
X144890011Y-59689813D01*
G36*
X99907000Y-61873000D02*
G01*
X99927000Y-61873000D01*
X99927000Y-62127000D01*
X99907000Y-62127000D01*
X99907000Y-63320155D01*
X100136890Y-63441476D01*
X100284099Y-63396825D01*
X100546920Y-63271641D01*
X100780269Y-63097588D01*
X100975178Y-62881355D01*
X101044805Y-62764466D01*
X101166525Y-62946632D01*
X101373368Y-63153475D01*
X101616589Y-63315990D01*
X101886842Y-63427932D01*
X102173740Y-63485000D01*
X102466260Y-63485000D01*
X102753158Y-63427932D01*
X103023411Y-63315990D01*
X103226492Y-63180295D01*
X103859088Y-63812891D01*
X103837678Y-63815000D01*
X96978711Y-63815000D01*
X96934774Y-63771063D01*
X96765256Y-63657795D01*
X96688712Y-63626089D01*
X96873592Y-63441210D01*
X97093740Y-63485000D01*
X97386260Y-63485000D01*
X97673158Y-63427932D01*
X97943411Y-63315990D01*
X98186632Y-63153475D01*
X98393475Y-62946632D01*
X98515195Y-62764466D01*
X98584822Y-62881355D01*
X98779731Y-63097588D01*
X99013080Y-63271641D01*
X99275901Y-63396825D01*
X99423110Y-63441476D01*
X99653000Y-63320155D01*
X99653000Y-62127000D01*
X99633000Y-62127000D01*
X99633000Y-61873000D01*
X99653000Y-61873000D01*
X99653000Y-61853000D01*
X99907000Y-61853000D01*
X99907000Y-61873000D01*
G37*
X99907000Y-61873000D02*
X99927000Y-61873000D01*
X99927000Y-62127000D01*
X99907000Y-62127000D01*
X99907000Y-63320155D01*
X100136890Y-63441476D01*
X100284099Y-63396825D01*
X100546920Y-63271641D01*
X100780269Y-63097588D01*
X100975178Y-62881355D01*
X101044805Y-62764466D01*
X101166525Y-62946632D01*
X101373368Y-63153475D01*
X101616589Y-63315990D01*
X101886842Y-63427932D01*
X102173740Y-63485000D01*
X102466260Y-63485000D01*
X102753158Y-63427932D01*
X103023411Y-63315990D01*
X103226492Y-63180295D01*
X103859088Y-63812891D01*
X103837678Y-63815000D01*
X96978711Y-63815000D01*
X96934774Y-63771063D01*
X96765256Y-63657795D01*
X96688712Y-63626089D01*
X96873592Y-63441210D01*
X97093740Y-63485000D01*
X97386260Y-63485000D01*
X97673158Y-63427932D01*
X97943411Y-63315990D01*
X98186632Y-63153475D01*
X98393475Y-62946632D01*
X98515195Y-62764466D01*
X98584822Y-62881355D01*
X98779731Y-63097588D01*
X99013080Y-63271641D01*
X99275901Y-63396825D01*
X99423110Y-63441476D01*
X99653000Y-63320155D01*
X99653000Y-62127000D01*
X99633000Y-62127000D01*
X99633000Y-61873000D01*
X99653000Y-61873000D01*
X99653000Y-61853000D01*
X99907000Y-61853000D01*
X99907000Y-61873000D01*
G36*
X106719455Y-57330744D02*
G01*
X106609774Y-57221063D01*
X106440256Y-57107795D01*
X106251898Y-57029774D01*
X106051939Y-56990000D01*
X105848061Y-56990000D01*
X105648102Y-57029774D01*
X105459744Y-57107795D01*
X105290226Y-57221063D01*
X105246289Y-57265000D01*
X104593331Y-57265000D01*
X104555998Y-57261323D01*
X104518665Y-57265000D01*
X104407012Y-57275997D01*
X104263751Y-57319454D01*
X104131722Y-57390026D01*
X104015997Y-57484999D01*
X103992199Y-57513997D01*
X103226492Y-58279705D01*
X103023411Y-58144010D01*
X102753158Y-58032068D01*
X102466260Y-57975000D01*
X102173740Y-57975000D01*
X101886842Y-58032068D01*
X101616589Y-58144010D01*
X101373368Y-58306525D01*
X101166525Y-58513368D01*
X101050000Y-58687760D01*
X100933475Y-58513368D01*
X100726632Y-58306525D01*
X100483411Y-58144010D01*
X100213158Y-58032068D01*
X99926260Y-57975000D01*
X99633740Y-57975000D01*
X99346842Y-58032068D01*
X99076589Y-58144010D01*
X98833368Y-58306525D01*
X98626525Y-58513368D01*
X98510000Y-58687760D01*
X98393475Y-58513368D01*
X98186632Y-58306525D01*
X97943411Y-58144010D01*
X97673158Y-58032068D01*
X97386260Y-57975000D01*
X97093740Y-57975000D01*
X96806842Y-58032068D01*
X96536589Y-58144010D01*
X96293368Y-58306525D01*
X96086525Y-58513368D01*
X95964805Y-58695534D01*
X95895178Y-58578645D01*
X95700269Y-58362412D01*
X95466920Y-58188359D01*
X95204099Y-58063175D01*
X95056890Y-58018524D01*
X94827000Y-58139845D01*
X94827000Y-59333000D01*
X94847000Y-59333000D01*
X94847000Y-59587000D01*
X94827000Y-59587000D01*
X94827000Y-59607000D01*
X94573000Y-59607000D01*
X94573000Y-59587000D01*
X94553000Y-59587000D01*
X94553000Y-59333000D01*
X94573000Y-59333000D01*
X94573000Y-58139845D01*
X94343110Y-58018524D01*
X94195901Y-58063175D01*
X93933080Y-58188359D01*
X93699731Y-58362412D01*
X93528671Y-58552187D01*
X93526031Y-58547248D01*
X93321714Y-58298286D01*
X93072752Y-58093969D01*
X92788715Y-57942148D01*
X92480516Y-57848657D01*
X92240322Y-57825000D01*
X88498238Y-57825000D01*
X88417918Y-57817089D01*
X88337599Y-57825000D01*
X88337597Y-57825000D01*
X88097403Y-57848657D01*
X87789204Y-57942148D01*
X87505167Y-58093969D01*
X87256205Y-58298286D01*
X87204999Y-58360681D01*
X81991000Y-63574681D01*
X81991000Y-59271947D01*
X82037594Y-58796745D01*
X82165162Y-58374219D01*
X82372369Y-57984518D01*
X82651324Y-57642487D01*
X82991399Y-57361151D01*
X83379644Y-57151229D01*
X83801265Y-57020715D01*
X84274274Y-56971000D01*
X107079198Y-56971000D01*
X106719455Y-57330744D01*
G37*
X106719455Y-57330744D02*
X106609774Y-57221063D01*
X106440256Y-57107795D01*
X106251898Y-57029774D01*
X106051939Y-56990000D01*
X105848061Y-56990000D01*
X105648102Y-57029774D01*
X105459744Y-57107795D01*
X105290226Y-57221063D01*
X105246289Y-57265000D01*
X104593331Y-57265000D01*
X104555998Y-57261323D01*
X104518665Y-57265000D01*
X104407012Y-57275997D01*
X104263751Y-57319454D01*
X104131722Y-57390026D01*
X104015997Y-57484999D01*
X103992199Y-57513997D01*
X103226492Y-58279705D01*
X103023411Y-58144010D01*
X102753158Y-58032068D01*
X102466260Y-57975000D01*
X102173740Y-57975000D01*
X101886842Y-58032068D01*
X101616589Y-58144010D01*
X101373368Y-58306525D01*
X101166525Y-58513368D01*
X101050000Y-58687760D01*
X100933475Y-58513368D01*
X100726632Y-58306525D01*
X100483411Y-58144010D01*
X100213158Y-58032068D01*
X99926260Y-57975000D01*
X99633740Y-57975000D01*
X99346842Y-58032068D01*
X99076589Y-58144010D01*
X98833368Y-58306525D01*
X98626525Y-58513368D01*
X98510000Y-58687760D01*
X98393475Y-58513368D01*
X98186632Y-58306525D01*
X97943411Y-58144010D01*
X97673158Y-58032068D01*
X97386260Y-57975000D01*
X97093740Y-57975000D01*
X96806842Y-58032068D01*
X96536589Y-58144010D01*
X96293368Y-58306525D01*
X96086525Y-58513368D01*
X95964805Y-58695534D01*
X95895178Y-58578645D01*
X95700269Y-58362412D01*
X95466920Y-58188359D01*
X95204099Y-58063175D01*
X95056890Y-58018524D01*
X94827000Y-58139845D01*
X94827000Y-59333000D01*
X94847000Y-59333000D01*
X94847000Y-59587000D01*
X94827000Y-59587000D01*
X94827000Y-59607000D01*
X94573000Y-59607000D01*
X94573000Y-59587000D01*
X94553000Y-59587000D01*
X94553000Y-59333000D01*
X94573000Y-59333000D01*
X94573000Y-58139845D01*
X94343110Y-58018524D01*
X94195901Y-58063175D01*
X93933080Y-58188359D01*
X93699731Y-58362412D01*
X93528671Y-58552187D01*
X93526031Y-58547248D01*
X93321714Y-58298286D01*
X93072752Y-58093969D01*
X92788715Y-57942148D01*
X92480516Y-57848657D01*
X92240322Y-57825000D01*
X88498238Y-57825000D01*
X88417918Y-57817089D01*
X88337599Y-57825000D01*
X88337597Y-57825000D01*
X88097403Y-57848657D01*
X87789204Y-57942148D01*
X87505167Y-58093969D01*
X87256205Y-58298286D01*
X87204999Y-58360681D01*
X81991000Y-63574681D01*
X81991000Y-59271947D01*
X82037594Y-58796745D01*
X82165162Y-58374219D01*
X82372369Y-57984518D01*
X82651324Y-57642487D01*
X82991399Y-57361151D01*
X83379644Y-57151229D01*
X83801265Y-57020715D01*
X84274274Y-56971000D01*
X107079198Y-56971000D01*
X106719455Y-57330744D01*
G36*
X120227000Y-61873000D02*
G01*
X120247000Y-61873000D01*
X120247000Y-62127000D01*
X120227000Y-62127000D01*
X120227000Y-62147000D01*
X119973000Y-62147000D01*
X119973000Y-62127000D01*
X119953000Y-62127000D01*
X119953000Y-61873000D01*
X119973000Y-61873000D01*
X119973000Y-61853000D01*
X120227000Y-61853000D01*
X120227000Y-61873000D01*
G37*
X120227000Y-61873000D02*
X120247000Y-61873000D01*
X120247000Y-62127000D01*
X120227000Y-62127000D01*
X120227000Y-62147000D01*
X119973000Y-62147000D01*
X119973000Y-62127000D01*
X119953000Y-62127000D01*
X119953000Y-61873000D01*
X119973000Y-61873000D01*
X119973000Y-61853000D01*
X120227000Y-61853000D01*
X120227000Y-61873000D01*
G36*
X104987000Y-59333000D02*
G01*
X105007000Y-59333000D01*
X105007000Y-59587000D01*
X104987000Y-59587000D01*
X104987000Y-59607000D01*
X104733000Y-59607000D01*
X104733000Y-59587000D01*
X104713000Y-59587000D01*
X104713000Y-59333000D01*
X104733000Y-59333000D01*
X104733000Y-59313000D01*
X104987000Y-59313000D01*
X104987000Y-59333000D01*
G37*
X104987000Y-59333000D02*
X105007000Y-59333000D01*
X105007000Y-59587000D01*
X104987000Y-59587000D01*
X104987000Y-59607000D01*
X104733000Y-59607000D01*
X104733000Y-59587000D01*
X104713000Y-59587000D01*
X104713000Y-59333000D01*
X104733000Y-59333000D01*
X104733000Y-59313000D01*
X104987000Y-59313000D01*
X104987000Y-59333000D01*
G36*
X112607000Y-59333000D02*
G01*
X112627000Y-59333000D01*
X112627000Y-59587000D01*
X112607000Y-59587000D01*
X112607000Y-59607000D01*
X112353000Y-59607000D01*
X112353000Y-59587000D01*
X112333000Y-59587000D01*
X112333000Y-59333000D01*
X112353000Y-59333000D01*
X112353000Y-59313000D01*
X112607000Y-59313000D01*
X112607000Y-59333000D01*
G37*
X112607000Y-59333000D02*
X112627000Y-59333000D01*
X112627000Y-59587000D01*
X112607000Y-59587000D01*
X112607000Y-59607000D01*
X112353000Y-59607000D01*
X112353000Y-59587000D01*
X112333000Y-59587000D01*
X112333000Y-59333000D01*
X112353000Y-59333000D01*
X112353000Y-59313000D01*
X112607000Y-59313000D01*
X112607000Y-59333000D01*
%TD*%
M02*
