%TF.GenerationSoftware,KiCad,Pcbnew,5.1.6-1.fc31*%
%TF.CreationDate,2020-06-27T23:06:53-07:00*%
%TF.ProjectId,rpi_7seg_alarm_clock,7270695f-3773-4656-975f-616c61726d5f,rev?*%
%TF.SameCoordinates,Original*%
%TF.FileFunction,Paste,Top*%
%TF.FilePolarity,Positive*%
%FSLAX46Y46*%
G04 Gerber Fmt 4.6, Leading zero omitted, Abs format (unit mm)*
G04 Created by KiCad (PCBNEW 5.1.6-1.fc31) date 2020-06-27 23:06:53*
%MOMM*%
%LPD*%
G01*
G04 APERTURE LIST*
%ADD10R,0.900000X0.800000*%
%ADD11R,0.700000X0.450000*%
%ADD12R,1.701800X0.533400*%
G04 APERTURE END LIST*
%TO.C,C1*%
G36*
G01*
X133422500Y-86985000D02*
X133077500Y-86985000D01*
G75*
G02*
X132930000Y-86837500I0J147500D01*
G01*
X132930000Y-86542500D01*
G75*
G02*
X133077500Y-86395000I147500J0D01*
G01*
X133422500Y-86395000D01*
G75*
G02*
X133570000Y-86542500I0J-147500D01*
G01*
X133570000Y-86837500D01*
G75*
G02*
X133422500Y-86985000I-147500J0D01*
G01*
G37*
G36*
G01*
X133422500Y-87955000D02*
X133077500Y-87955000D01*
G75*
G02*
X132930000Y-87807500I0J147500D01*
G01*
X132930000Y-87512500D01*
G75*
G02*
X133077500Y-87365000I147500J0D01*
G01*
X133422500Y-87365000D01*
G75*
G02*
X133570000Y-87512500I0J-147500D01*
G01*
X133570000Y-87807500D01*
G75*
G02*
X133422500Y-87955000I-147500J0D01*
G01*
G37*
%TD*%
%TO.C,C2*%
G36*
G01*
X116140000Y-89647500D02*
X116140000Y-89302500D01*
G75*
G02*
X116287500Y-89155000I147500J0D01*
G01*
X116582500Y-89155000D01*
G75*
G02*
X116730000Y-89302500I0J-147500D01*
G01*
X116730000Y-89647500D01*
G75*
G02*
X116582500Y-89795000I-147500J0D01*
G01*
X116287500Y-89795000D01*
G75*
G02*
X116140000Y-89647500I0J147500D01*
G01*
G37*
G36*
G01*
X115170000Y-89647500D02*
X115170000Y-89302500D01*
G75*
G02*
X115317500Y-89155000I147500J0D01*
G01*
X115612500Y-89155000D01*
G75*
G02*
X115760000Y-89302500I0J-147500D01*
G01*
X115760000Y-89647500D01*
G75*
G02*
X115612500Y-89795000I-147500J0D01*
G01*
X115317500Y-89795000D01*
G75*
G02*
X115170000Y-89647500I0J147500D01*
G01*
G37*
%TD*%
%TO.C,C3*%
G36*
G01*
X140472500Y-86985000D02*
X140127500Y-86985000D01*
G75*
G02*
X139980000Y-86837500I0J147500D01*
G01*
X139980000Y-86542500D01*
G75*
G02*
X140127500Y-86395000I147500J0D01*
G01*
X140472500Y-86395000D01*
G75*
G02*
X140620000Y-86542500I0J-147500D01*
G01*
X140620000Y-86837500D01*
G75*
G02*
X140472500Y-86985000I-147500J0D01*
G01*
G37*
G36*
G01*
X140472500Y-87955000D02*
X140127500Y-87955000D01*
G75*
G02*
X139980000Y-87807500I0J147500D01*
G01*
X139980000Y-87512500D01*
G75*
G02*
X140127500Y-87365000I147500J0D01*
G01*
X140472500Y-87365000D01*
G75*
G02*
X140620000Y-87512500I0J-147500D01*
G01*
X140620000Y-87807500D01*
G75*
G02*
X140472500Y-87955000I-147500J0D01*
G01*
G37*
%TD*%
%TO.C,C4*%
G36*
G01*
X143972500Y-75610000D02*
X143627500Y-75610000D01*
G75*
G02*
X143480000Y-75462500I0J147500D01*
G01*
X143480000Y-75167500D01*
G75*
G02*
X143627500Y-75020000I147500J0D01*
G01*
X143972500Y-75020000D01*
G75*
G02*
X144120000Y-75167500I0J-147500D01*
G01*
X144120000Y-75462500D01*
G75*
G02*
X143972500Y-75610000I-147500J0D01*
G01*
G37*
G36*
G01*
X143972500Y-76580000D02*
X143627500Y-76580000D01*
G75*
G02*
X143480000Y-76432500I0J147500D01*
G01*
X143480000Y-76137500D01*
G75*
G02*
X143627500Y-75990000I147500J0D01*
G01*
X143972500Y-75990000D01*
G75*
G02*
X144120000Y-76137500I0J-147500D01*
G01*
X144120000Y-76432500D01*
G75*
G02*
X143972500Y-76580000I-147500J0D01*
G01*
G37*
%TD*%
%TO.C,C5*%
G36*
G01*
X136972500Y-75610000D02*
X136627500Y-75610000D01*
G75*
G02*
X136480000Y-75462500I0J147500D01*
G01*
X136480000Y-75167500D01*
G75*
G02*
X136627500Y-75020000I147500J0D01*
G01*
X136972500Y-75020000D01*
G75*
G02*
X137120000Y-75167500I0J-147500D01*
G01*
X137120000Y-75462500D01*
G75*
G02*
X136972500Y-75610000I-147500J0D01*
G01*
G37*
G36*
G01*
X136972500Y-76580000D02*
X136627500Y-76580000D01*
G75*
G02*
X136480000Y-76432500I0J147500D01*
G01*
X136480000Y-76137500D01*
G75*
G02*
X136627500Y-75990000I147500J0D01*
G01*
X136972500Y-75990000D01*
G75*
G02*
X137120000Y-76137500I0J-147500D01*
G01*
X137120000Y-76432500D01*
G75*
G02*
X136972500Y-76580000I-147500J0D01*
G01*
G37*
%TD*%
%TO.C,C6*%
G36*
G01*
X105180000Y-87997500D02*
X105180000Y-87652500D01*
G75*
G02*
X105327500Y-87505000I147500J0D01*
G01*
X105622500Y-87505000D01*
G75*
G02*
X105770000Y-87652500I0J-147500D01*
G01*
X105770000Y-87997500D01*
G75*
G02*
X105622500Y-88145000I-147500J0D01*
G01*
X105327500Y-88145000D01*
G75*
G02*
X105180000Y-87997500I0J147500D01*
G01*
G37*
G36*
G01*
X104210000Y-87997500D02*
X104210000Y-87652500D01*
G75*
G02*
X104357500Y-87505000I147500J0D01*
G01*
X104652500Y-87505000D01*
G75*
G02*
X104800000Y-87652500I0J-147500D01*
G01*
X104800000Y-87997500D01*
G75*
G02*
X104652500Y-88145000I-147500J0D01*
G01*
X104357500Y-88145000D01*
G75*
G02*
X104210000Y-87997500I0J147500D01*
G01*
G37*
%TD*%
%TO.C,C7*%
G36*
G01*
X129997500Y-75610000D02*
X129652500Y-75610000D01*
G75*
G02*
X129505000Y-75462500I0J147500D01*
G01*
X129505000Y-75167500D01*
G75*
G02*
X129652500Y-75020000I147500J0D01*
G01*
X129997500Y-75020000D01*
G75*
G02*
X130145000Y-75167500I0J-147500D01*
G01*
X130145000Y-75462500D01*
G75*
G02*
X129997500Y-75610000I-147500J0D01*
G01*
G37*
G36*
G01*
X129997500Y-76580000D02*
X129652500Y-76580000D01*
G75*
G02*
X129505000Y-76432500I0J147500D01*
G01*
X129505000Y-76137500D01*
G75*
G02*
X129652500Y-75990000I147500J0D01*
G01*
X129997500Y-75990000D01*
G75*
G02*
X130145000Y-76137500I0J-147500D01*
G01*
X130145000Y-76432500D01*
G75*
G02*
X129997500Y-76580000I-147500J0D01*
G01*
G37*
%TD*%
%TO.C,C8*%
G36*
G01*
X122972500Y-75610000D02*
X122627500Y-75610000D01*
G75*
G02*
X122480000Y-75462500I0J147500D01*
G01*
X122480000Y-75167500D01*
G75*
G02*
X122627500Y-75020000I147500J0D01*
G01*
X122972500Y-75020000D01*
G75*
G02*
X123120000Y-75167500I0J-147500D01*
G01*
X123120000Y-75462500D01*
G75*
G02*
X122972500Y-75610000I-147500J0D01*
G01*
G37*
G36*
G01*
X122972500Y-76580000D02*
X122627500Y-76580000D01*
G75*
G02*
X122480000Y-76432500I0J147500D01*
G01*
X122480000Y-76137500D01*
G75*
G02*
X122627500Y-75990000I147500J0D01*
G01*
X122972500Y-75990000D01*
G75*
G02*
X123120000Y-76137500I0J-147500D01*
G01*
X123120000Y-76432500D01*
G75*
G02*
X122972500Y-76580000I-147500J0D01*
G01*
G37*
%TD*%
%TO.C,C9*%
G36*
G01*
X140452500Y-91130000D02*
X140797500Y-91130000D01*
G75*
G02*
X140945000Y-91277500I0J-147500D01*
G01*
X140945000Y-91572500D01*
G75*
G02*
X140797500Y-91720000I-147500J0D01*
G01*
X140452500Y-91720000D01*
G75*
G02*
X140305000Y-91572500I0J147500D01*
G01*
X140305000Y-91277500D01*
G75*
G02*
X140452500Y-91130000I147500J0D01*
G01*
G37*
G36*
G01*
X140452500Y-90160000D02*
X140797500Y-90160000D01*
G75*
G02*
X140945000Y-90307500I0J-147500D01*
G01*
X140945000Y-90602500D01*
G75*
G02*
X140797500Y-90750000I-147500J0D01*
G01*
X140452500Y-90750000D01*
G75*
G02*
X140305000Y-90602500I0J147500D01*
G01*
X140305000Y-90307500D01*
G75*
G02*
X140452500Y-90160000I147500J0D01*
G01*
G37*
%TD*%
%TO.C,C10*%
G36*
G01*
X130265000Y-96347500D02*
X130265000Y-96002500D01*
G75*
G02*
X130412500Y-95855000I147500J0D01*
G01*
X130707500Y-95855000D01*
G75*
G02*
X130855000Y-96002500I0J-147500D01*
G01*
X130855000Y-96347500D01*
G75*
G02*
X130707500Y-96495000I-147500J0D01*
G01*
X130412500Y-96495000D01*
G75*
G02*
X130265000Y-96347500I0J147500D01*
G01*
G37*
G36*
G01*
X129295000Y-96347500D02*
X129295000Y-96002500D01*
G75*
G02*
X129442500Y-95855000I147500J0D01*
G01*
X129737500Y-95855000D01*
G75*
G02*
X129885000Y-96002500I0J-147500D01*
G01*
X129885000Y-96347500D01*
G75*
G02*
X129737500Y-96495000I-147500J0D01*
G01*
X129442500Y-96495000D01*
G75*
G02*
X129295000Y-96347500I0J147500D01*
G01*
G37*
%TD*%
%TO.C,C11*%
G36*
G01*
X119277500Y-87490000D02*
X119622500Y-87490000D01*
G75*
G02*
X119770000Y-87637500I0J-147500D01*
G01*
X119770000Y-87932500D01*
G75*
G02*
X119622500Y-88080000I-147500J0D01*
G01*
X119277500Y-88080000D01*
G75*
G02*
X119130000Y-87932500I0J147500D01*
G01*
X119130000Y-87637500D01*
G75*
G02*
X119277500Y-87490000I147500J0D01*
G01*
G37*
G36*
G01*
X119277500Y-86520000D02*
X119622500Y-86520000D01*
G75*
G02*
X119770000Y-86667500I0J-147500D01*
G01*
X119770000Y-86962500D01*
G75*
G02*
X119622500Y-87110000I-147500J0D01*
G01*
X119277500Y-87110000D01*
G75*
G02*
X119130000Y-86962500I0J147500D01*
G01*
X119130000Y-86667500D01*
G75*
G02*
X119277500Y-86520000I147500J0D01*
G01*
G37*
%TD*%
%TO.C,R1*%
G36*
G01*
X136972500Y-86985000D02*
X136627500Y-86985000D01*
G75*
G02*
X136480000Y-86837500I0J147500D01*
G01*
X136480000Y-86542500D01*
G75*
G02*
X136627500Y-86395000I147500J0D01*
G01*
X136972500Y-86395000D01*
G75*
G02*
X137120000Y-86542500I0J-147500D01*
G01*
X137120000Y-86837500D01*
G75*
G02*
X136972500Y-86985000I-147500J0D01*
G01*
G37*
G36*
G01*
X136972500Y-87955000D02*
X136627500Y-87955000D01*
G75*
G02*
X136480000Y-87807500I0J147500D01*
G01*
X136480000Y-87512500D01*
G75*
G02*
X136627500Y-87365000I147500J0D01*
G01*
X136972500Y-87365000D01*
G75*
G02*
X137120000Y-87512500I0J-147500D01*
G01*
X137120000Y-87807500D01*
G75*
G02*
X136972500Y-87955000I-147500J0D01*
G01*
G37*
%TD*%
%TO.C,R2*%
G36*
G01*
X135222500Y-86985000D02*
X134877500Y-86985000D01*
G75*
G02*
X134730000Y-86837500I0J147500D01*
G01*
X134730000Y-86542500D01*
G75*
G02*
X134877500Y-86395000I147500J0D01*
G01*
X135222500Y-86395000D01*
G75*
G02*
X135370000Y-86542500I0J-147500D01*
G01*
X135370000Y-86837500D01*
G75*
G02*
X135222500Y-86985000I-147500J0D01*
G01*
G37*
G36*
G01*
X135222500Y-87955000D02*
X134877500Y-87955000D01*
G75*
G02*
X134730000Y-87807500I0J147500D01*
G01*
X134730000Y-87512500D01*
G75*
G02*
X134877500Y-87365000I147500J0D01*
G01*
X135222500Y-87365000D01*
G75*
G02*
X135370000Y-87512500I0J-147500D01*
G01*
X135370000Y-87807500D01*
G75*
G02*
X135222500Y-87955000I-147500J0D01*
G01*
G37*
%TD*%
%TO.C,R3*%
G36*
G01*
X143972500Y-86985000D02*
X143627500Y-86985000D01*
G75*
G02*
X143480000Y-86837500I0J147500D01*
G01*
X143480000Y-86542500D01*
G75*
G02*
X143627500Y-86395000I147500J0D01*
G01*
X143972500Y-86395000D01*
G75*
G02*
X144120000Y-86542500I0J-147500D01*
G01*
X144120000Y-86837500D01*
G75*
G02*
X143972500Y-86985000I-147500J0D01*
G01*
G37*
G36*
G01*
X143972500Y-87955000D02*
X143627500Y-87955000D01*
G75*
G02*
X143480000Y-87807500I0J147500D01*
G01*
X143480000Y-87512500D01*
G75*
G02*
X143627500Y-87365000I147500J0D01*
G01*
X143972500Y-87365000D01*
G75*
G02*
X144120000Y-87512500I0J-147500D01*
G01*
X144120000Y-87807500D01*
G75*
G02*
X143972500Y-87955000I-147500J0D01*
G01*
G37*
%TD*%
%TO.C,R4*%
G36*
G01*
X142297500Y-86985000D02*
X141952500Y-86985000D01*
G75*
G02*
X141805000Y-86837500I0J147500D01*
G01*
X141805000Y-86542500D01*
G75*
G02*
X141952500Y-86395000I147500J0D01*
G01*
X142297500Y-86395000D01*
G75*
G02*
X142445000Y-86542500I0J-147500D01*
G01*
X142445000Y-86837500D01*
G75*
G02*
X142297500Y-86985000I-147500J0D01*
G01*
G37*
G36*
G01*
X142297500Y-87955000D02*
X141952500Y-87955000D01*
G75*
G02*
X141805000Y-87807500I0J147500D01*
G01*
X141805000Y-87512500D01*
G75*
G02*
X141952500Y-87365000I147500J0D01*
G01*
X142297500Y-87365000D01*
G75*
G02*
X142445000Y-87512500I0J-147500D01*
G01*
X142445000Y-87807500D01*
G75*
G02*
X142297500Y-87955000I-147500J0D01*
G01*
G37*
%TD*%
%TO.C,R5*%
G36*
G01*
X140472500Y-75610000D02*
X140127500Y-75610000D01*
G75*
G02*
X139980000Y-75462500I0J147500D01*
G01*
X139980000Y-75167500D01*
G75*
G02*
X140127500Y-75020000I147500J0D01*
G01*
X140472500Y-75020000D01*
G75*
G02*
X140620000Y-75167500I0J-147500D01*
G01*
X140620000Y-75462500D01*
G75*
G02*
X140472500Y-75610000I-147500J0D01*
G01*
G37*
G36*
G01*
X140472500Y-76580000D02*
X140127500Y-76580000D01*
G75*
G02*
X139980000Y-76432500I0J147500D01*
G01*
X139980000Y-76137500D01*
G75*
G02*
X140127500Y-75990000I147500J0D01*
G01*
X140472500Y-75990000D01*
G75*
G02*
X140620000Y-76137500I0J-147500D01*
G01*
X140620000Y-76432500D01*
G75*
G02*
X140472500Y-76580000I-147500J0D01*
G01*
G37*
%TD*%
%TO.C,R6*%
G36*
G01*
X142247500Y-75610000D02*
X141902500Y-75610000D01*
G75*
G02*
X141755000Y-75462500I0J147500D01*
G01*
X141755000Y-75167500D01*
G75*
G02*
X141902500Y-75020000I147500J0D01*
G01*
X142247500Y-75020000D01*
G75*
G02*
X142395000Y-75167500I0J-147500D01*
G01*
X142395000Y-75462500D01*
G75*
G02*
X142247500Y-75610000I-147500J0D01*
G01*
G37*
G36*
G01*
X142247500Y-76580000D02*
X141902500Y-76580000D01*
G75*
G02*
X141755000Y-76432500I0J147500D01*
G01*
X141755000Y-76137500D01*
G75*
G02*
X141902500Y-75990000I147500J0D01*
G01*
X142247500Y-75990000D01*
G75*
G02*
X142395000Y-76137500I0J-147500D01*
G01*
X142395000Y-76432500D01*
G75*
G02*
X142247500Y-76580000I-147500J0D01*
G01*
G37*
%TD*%
%TO.C,R7*%
G36*
G01*
X84065000Y-58447500D02*
X84065000Y-58102500D01*
G75*
G02*
X84212500Y-57955000I147500J0D01*
G01*
X84507500Y-57955000D01*
G75*
G02*
X84655000Y-58102500I0J-147500D01*
G01*
X84655000Y-58447500D01*
G75*
G02*
X84507500Y-58595000I-147500J0D01*
G01*
X84212500Y-58595000D01*
G75*
G02*
X84065000Y-58447500I0J147500D01*
G01*
G37*
G36*
G01*
X83095000Y-58447500D02*
X83095000Y-58102500D01*
G75*
G02*
X83242500Y-57955000I147500J0D01*
G01*
X83537500Y-57955000D01*
G75*
G02*
X83685000Y-58102500I0J-147500D01*
G01*
X83685000Y-58447500D01*
G75*
G02*
X83537500Y-58595000I-147500J0D01*
G01*
X83242500Y-58595000D01*
G75*
G02*
X83095000Y-58447500I0J147500D01*
G01*
G37*
%TD*%
%TO.C,R8*%
G36*
G01*
X142575000Y-58247500D02*
X142575000Y-57902500D01*
G75*
G02*
X142722500Y-57755000I147500J0D01*
G01*
X143017500Y-57755000D01*
G75*
G02*
X143165000Y-57902500I0J-147500D01*
G01*
X143165000Y-58247500D01*
G75*
G02*
X143017500Y-58395000I-147500J0D01*
G01*
X142722500Y-58395000D01*
G75*
G02*
X142575000Y-58247500I0J147500D01*
G01*
G37*
G36*
G01*
X141605000Y-58247500D02*
X141605000Y-57902500D01*
G75*
G02*
X141752500Y-57755000I147500J0D01*
G01*
X142047500Y-57755000D01*
G75*
G02*
X142195000Y-57902500I0J-147500D01*
G01*
X142195000Y-58247500D01*
G75*
G02*
X142047500Y-58395000I-147500J0D01*
G01*
X141752500Y-58395000D01*
G75*
G02*
X141605000Y-58247500I0J147500D01*
G01*
G37*
%TD*%
%TO.C,R9*%
G36*
G01*
X84030000Y-63647500D02*
X84030000Y-63302500D01*
G75*
G02*
X84177500Y-63155000I147500J0D01*
G01*
X84472500Y-63155000D01*
G75*
G02*
X84620000Y-63302500I0J-147500D01*
G01*
X84620000Y-63647500D01*
G75*
G02*
X84472500Y-63795000I-147500J0D01*
G01*
X84177500Y-63795000D01*
G75*
G02*
X84030000Y-63647500I0J147500D01*
G01*
G37*
G36*
G01*
X83060000Y-63647500D02*
X83060000Y-63302500D01*
G75*
G02*
X83207500Y-63155000I147500J0D01*
G01*
X83502500Y-63155000D01*
G75*
G02*
X83650000Y-63302500I0J-147500D01*
G01*
X83650000Y-63647500D01*
G75*
G02*
X83502500Y-63795000I-147500J0D01*
G01*
X83207500Y-63795000D01*
G75*
G02*
X83060000Y-63647500I0J147500D01*
G01*
G37*
%TD*%
%TO.C,R10*%
G36*
G01*
X142575000Y-63272500D02*
X142575000Y-62927500D01*
G75*
G02*
X142722500Y-62780000I147500J0D01*
G01*
X143017500Y-62780000D01*
G75*
G02*
X143165000Y-62927500I0J-147500D01*
G01*
X143165000Y-63272500D01*
G75*
G02*
X143017500Y-63420000I-147500J0D01*
G01*
X142722500Y-63420000D01*
G75*
G02*
X142575000Y-63272500I0J147500D01*
G01*
G37*
G36*
G01*
X141605000Y-63272500D02*
X141605000Y-62927500D01*
G75*
G02*
X141752500Y-62780000I147500J0D01*
G01*
X142047500Y-62780000D01*
G75*
G02*
X142195000Y-62927500I0J-147500D01*
G01*
X142195000Y-63272500D01*
G75*
G02*
X142047500Y-63420000I-147500J0D01*
G01*
X141752500Y-63420000D01*
G75*
G02*
X141605000Y-63272500I0J147500D01*
G01*
G37*
%TD*%
%TO.C,R11*%
G36*
G01*
X133472500Y-75610000D02*
X133127500Y-75610000D01*
G75*
G02*
X132980000Y-75462500I0J147500D01*
G01*
X132980000Y-75167500D01*
G75*
G02*
X133127500Y-75020000I147500J0D01*
G01*
X133472500Y-75020000D01*
G75*
G02*
X133620000Y-75167500I0J-147500D01*
G01*
X133620000Y-75462500D01*
G75*
G02*
X133472500Y-75610000I-147500J0D01*
G01*
G37*
G36*
G01*
X133472500Y-76580000D02*
X133127500Y-76580000D01*
G75*
G02*
X132980000Y-76432500I0J147500D01*
G01*
X132980000Y-76137500D01*
G75*
G02*
X133127500Y-75990000I147500J0D01*
G01*
X133472500Y-75990000D01*
G75*
G02*
X133620000Y-76137500I0J-147500D01*
G01*
X133620000Y-76432500D01*
G75*
G02*
X133472500Y-76580000I-147500J0D01*
G01*
G37*
%TD*%
%TO.C,R12*%
G36*
G01*
X135247500Y-75610000D02*
X134902500Y-75610000D01*
G75*
G02*
X134755000Y-75462500I0J147500D01*
G01*
X134755000Y-75167500D01*
G75*
G02*
X134902500Y-75020000I147500J0D01*
G01*
X135247500Y-75020000D01*
G75*
G02*
X135395000Y-75167500I0J-147500D01*
G01*
X135395000Y-75462500D01*
G75*
G02*
X135247500Y-75610000I-147500J0D01*
G01*
G37*
G36*
G01*
X135247500Y-76580000D02*
X134902500Y-76580000D01*
G75*
G02*
X134755000Y-76432500I0J147500D01*
G01*
X134755000Y-76137500D01*
G75*
G02*
X134902500Y-75990000I147500J0D01*
G01*
X135247500Y-75990000D01*
G75*
G02*
X135395000Y-76137500I0J-147500D01*
G01*
X135395000Y-76432500D01*
G75*
G02*
X135247500Y-76580000I-147500J0D01*
G01*
G37*
%TD*%
%TO.C,R13*%
G36*
G01*
X126472500Y-75610000D02*
X126127500Y-75610000D01*
G75*
G02*
X125980000Y-75462500I0J147500D01*
G01*
X125980000Y-75167500D01*
G75*
G02*
X126127500Y-75020000I147500J0D01*
G01*
X126472500Y-75020000D01*
G75*
G02*
X126620000Y-75167500I0J-147500D01*
G01*
X126620000Y-75462500D01*
G75*
G02*
X126472500Y-75610000I-147500J0D01*
G01*
G37*
G36*
G01*
X126472500Y-76580000D02*
X126127500Y-76580000D01*
G75*
G02*
X125980000Y-76432500I0J147500D01*
G01*
X125980000Y-76137500D01*
G75*
G02*
X126127500Y-75990000I147500J0D01*
G01*
X126472500Y-75990000D01*
G75*
G02*
X126620000Y-76137500I0J-147500D01*
G01*
X126620000Y-76432500D01*
G75*
G02*
X126472500Y-76580000I-147500J0D01*
G01*
G37*
%TD*%
%TO.C,R14*%
G36*
G01*
X128272500Y-75610000D02*
X127927500Y-75610000D01*
G75*
G02*
X127780000Y-75462500I0J147500D01*
G01*
X127780000Y-75167500D01*
G75*
G02*
X127927500Y-75020000I147500J0D01*
G01*
X128272500Y-75020000D01*
G75*
G02*
X128420000Y-75167500I0J-147500D01*
G01*
X128420000Y-75462500D01*
G75*
G02*
X128272500Y-75610000I-147500J0D01*
G01*
G37*
G36*
G01*
X128272500Y-76580000D02*
X127927500Y-76580000D01*
G75*
G02*
X127780000Y-76432500I0J147500D01*
G01*
X127780000Y-76137500D01*
G75*
G02*
X127927500Y-75990000I147500J0D01*
G01*
X128272500Y-75990000D01*
G75*
G02*
X128420000Y-76137500I0J-147500D01*
G01*
X128420000Y-76432500D01*
G75*
G02*
X128272500Y-76580000I-147500J0D01*
G01*
G37*
%TD*%
%TO.C,R15*%
G36*
G01*
X119397500Y-75610000D02*
X119052500Y-75610000D01*
G75*
G02*
X118905000Y-75462500I0J147500D01*
G01*
X118905000Y-75167500D01*
G75*
G02*
X119052500Y-75020000I147500J0D01*
G01*
X119397500Y-75020000D01*
G75*
G02*
X119545000Y-75167500I0J-147500D01*
G01*
X119545000Y-75462500D01*
G75*
G02*
X119397500Y-75610000I-147500J0D01*
G01*
G37*
G36*
G01*
X119397500Y-76580000D02*
X119052500Y-76580000D01*
G75*
G02*
X118905000Y-76432500I0J147500D01*
G01*
X118905000Y-76137500D01*
G75*
G02*
X119052500Y-75990000I147500J0D01*
G01*
X119397500Y-75990000D01*
G75*
G02*
X119545000Y-76137500I0J-147500D01*
G01*
X119545000Y-76432500D01*
G75*
G02*
X119397500Y-76580000I-147500J0D01*
G01*
G37*
%TD*%
%TO.C,R16*%
G36*
G01*
X121197500Y-75610000D02*
X120852500Y-75610000D01*
G75*
G02*
X120705000Y-75462500I0J147500D01*
G01*
X120705000Y-75167500D01*
G75*
G02*
X120852500Y-75020000I147500J0D01*
G01*
X121197500Y-75020000D01*
G75*
G02*
X121345000Y-75167500I0J-147500D01*
G01*
X121345000Y-75462500D01*
G75*
G02*
X121197500Y-75610000I-147500J0D01*
G01*
G37*
G36*
G01*
X121197500Y-76580000D02*
X120852500Y-76580000D01*
G75*
G02*
X120705000Y-76432500I0J147500D01*
G01*
X120705000Y-76137500D01*
G75*
G02*
X120852500Y-75990000I147500J0D01*
G01*
X121197500Y-75990000D01*
G75*
G02*
X121345000Y-76137500I0J-147500D01*
G01*
X121345000Y-76432500D01*
G75*
G02*
X121197500Y-76580000I-147500J0D01*
G01*
G37*
%TD*%
D10*
%TO.C,Q1*%
X85625000Y-60850000D03*
X83625000Y-61800000D03*
X83625000Y-59900000D03*
%TD*%
%TO.C,Q2*%
X142150000Y-59650000D03*
X142150000Y-61550000D03*
X144150000Y-60600000D03*
%TD*%
D11*
%TO.C,Q3*%
X92694000Y-110998000D03*
X90694000Y-111648000D03*
X90694000Y-110348000D03*
%TD*%
%TO.C,Q4*%
X90694000Y-106792000D03*
X90694000Y-108092000D03*
X92694000Y-107442000D03*
%TD*%
%TO.C,U1*%
G36*
G01*
X119590000Y-95700000D02*
X119290000Y-95700000D01*
G75*
G02*
X119140000Y-95550000I0J150000D01*
G01*
X119140000Y-93900000D01*
G75*
G02*
X119290000Y-93750000I150000J0D01*
G01*
X119590000Y-93750000D01*
G75*
G02*
X119740000Y-93900000I0J-150000D01*
G01*
X119740000Y-95550000D01*
G75*
G02*
X119590000Y-95700000I-150000J0D01*
G01*
G37*
G36*
G01*
X120860000Y-95700000D02*
X120560000Y-95700000D01*
G75*
G02*
X120410000Y-95550000I0J150000D01*
G01*
X120410000Y-93900000D01*
G75*
G02*
X120560000Y-93750000I150000J0D01*
G01*
X120860000Y-93750000D01*
G75*
G02*
X121010000Y-93900000I0J-150000D01*
G01*
X121010000Y-95550000D01*
G75*
G02*
X120860000Y-95700000I-150000J0D01*
G01*
G37*
G36*
G01*
X122130000Y-95700000D02*
X121830000Y-95700000D01*
G75*
G02*
X121680000Y-95550000I0J150000D01*
G01*
X121680000Y-93900000D01*
G75*
G02*
X121830000Y-93750000I150000J0D01*
G01*
X122130000Y-93750000D01*
G75*
G02*
X122280000Y-93900000I0J-150000D01*
G01*
X122280000Y-95550000D01*
G75*
G02*
X122130000Y-95700000I-150000J0D01*
G01*
G37*
G36*
G01*
X123400000Y-95700000D02*
X123100000Y-95700000D01*
G75*
G02*
X122950000Y-95550000I0J150000D01*
G01*
X122950000Y-93900000D01*
G75*
G02*
X123100000Y-93750000I150000J0D01*
G01*
X123400000Y-93750000D01*
G75*
G02*
X123550000Y-93900000I0J-150000D01*
G01*
X123550000Y-95550000D01*
G75*
G02*
X123400000Y-95700000I-150000J0D01*
G01*
G37*
G36*
G01*
X124670000Y-95700000D02*
X124370000Y-95700000D01*
G75*
G02*
X124220000Y-95550000I0J150000D01*
G01*
X124220000Y-93900000D01*
G75*
G02*
X124370000Y-93750000I150000J0D01*
G01*
X124670000Y-93750000D01*
G75*
G02*
X124820000Y-93900000I0J-150000D01*
G01*
X124820000Y-95550000D01*
G75*
G02*
X124670000Y-95700000I-150000J0D01*
G01*
G37*
G36*
G01*
X125940000Y-95700000D02*
X125640000Y-95700000D01*
G75*
G02*
X125490000Y-95550000I0J150000D01*
G01*
X125490000Y-93900000D01*
G75*
G02*
X125640000Y-93750000I150000J0D01*
G01*
X125940000Y-93750000D01*
G75*
G02*
X126090000Y-93900000I0J-150000D01*
G01*
X126090000Y-95550000D01*
G75*
G02*
X125940000Y-95700000I-150000J0D01*
G01*
G37*
G36*
G01*
X127210000Y-95700000D02*
X126910000Y-95700000D01*
G75*
G02*
X126760000Y-95550000I0J150000D01*
G01*
X126760000Y-93900000D01*
G75*
G02*
X126910000Y-93750000I150000J0D01*
G01*
X127210000Y-93750000D01*
G75*
G02*
X127360000Y-93900000I0J-150000D01*
G01*
X127360000Y-95550000D01*
G75*
G02*
X127210000Y-95700000I-150000J0D01*
G01*
G37*
G36*
G01*
X127210000Y-90750000D02*
X126910000Y-90750000D01*
G75*
G02*
X126760000Y-90600000I0J150000D01*
G01*
X126760000Y-88950000D01*
G75*
G02*
X126910000Y-88800000I150000J0D01*
G01*
X127210000Y-88800000D01*
G75*
G02*
X127360000Y-88950000I0J-150000D01*
G01*
X127360000Y-90600000D01*
G75*
G02*
X127210000Y-90750000I-150000J0D01*
G01*
G37*
G36*
G01*
X125940000Y-90750000D02*
X125640000Y-90750000D01*
G75*
G02*
X125490000Y-90600000I0J150000D01*
G01*
X125490000Y-88950000D01*
G75*
G02*
X125640000Y-88800000I150000J0D01*
G01*
X125940000Y-88800000D01*
G75*
G02*
X126090000Y-88950000I0J-150000D01*
G01*
X126090000Y-90600000D01*
G75*
G02*
X125940000Y-90750000I-150000J0D01*
G01*
G37*
G36*
G01*
X124670000Y-90750000D02*
X124370000Y-90750000D01*
G75*
G02*
X124220000Y-90600000I0J150000D01*
G01*
X124220000Y-88950000D01*
G75*
G02*
X124370000Y-88800000I150000J0D01*
G01*
X124670000Y-88800000D01*
G75*
G02*
X124820000Y-88950000I0J-150000D01*
G01*
X124820000Y-90600000D01*
G75*
G02*
X124670000Y-90750000I-150000J0D01*
G01*
G37*
G36*
G01*
X123400000Y-90750000D02*
X123100000Y-90750000D01*
G75*
G02*
X122950000Y-90600000I0J150000D01*
G01*
X122950000Y-88950000D01*
G75*
G02*
X123100000Y-88800000I150000J0D01*
G01*
X123400000Y-88800000D01*
G75*
G02*
X123550000Y-88950000I0J-150000D01*
G01*
X123550000Y-90600000D01*
G75*
G02*
X123400000Y-90750000I-150000J0D01*
G01*
G37*
G36*
G01*
X122130000Y-90750000D02*
X121830000Y-90750000D01*
G75*
G02*
X121680000Y-90600000I0J150000D01*
G01*
X121680000Y-88950000D01*
G75*
G02*
X121830000Y-88800000I150000J0D01*
G01*
X122130000Y-88800000D01*
G75*
G02*
X122280000Y-88950000I0J-150000D01*
G01*
X122280000Y-90600000D01*
G75*
G02*
X122130000Y-90750000I-150000J0D01*
G01*
G37*
G36*
G01*
X120860000Y-90750000D02*
X120560000Y-90750000D01*
G75*
G02*
X120410000Y-90600000I0J150000D01*
G01*
X120410000Y-88950000D01*
G75*
G02*
X120560000Y-88800000I150000J0D01*
G01*
X120860000Y-88800000D01*
G75*
G02*
X121010000Y-88950000I0J-150000D01*
G01*
X121010000Y-90600000D01*
G75*
G02*
X120860000Y-90750000I-150000J0D01*
G01*
G37*
G36*
G01*
X119590000Y-90750000D02*
X119290000Y-90750000D01*
G75*
G02*
X119140000Y-90600000I0J150000D01*
G01*
X119140000Y-88950000D01*
G75*
G02*
X119290000Y-88800000I150000J0D01*
G01*
X119590000Y-88800000D01*
G75*
G02*
X119740000Y-88950000I0J-150000D01*
G01*
X119740000Y-90600000D01*
G75*
G02*
X119590000Y-90750000I-150000J0D01*
G01*
G37*
%TD*%
D12*
%TO.C,U2*%
X110809200Y-91040000D03*
X110809200Y-92310000D03*
X110809200Y-93580000D03*
X110809200Y-94850000D03*
X110809200Y-96120000D03*
X110809200Y-97390000D03*
X110809200Y-98660000D03*
X115990800Y-98660000D03*
X115990800Y-97390000D03*
X115990800Y-96120000D03*
X115990800Y-94850000D03*
X115990800Y-93580000D03*
X115990800Y-92310000D03*
X115990800Y-91040000D03*
%TD*%
%TO.C,U3*%
G36*
G01*
X107900000Y-98145000D02*
X107900000Y-98445000D01*
G75*
G02*
X107750000Y-98595000I-150000J0D01*
G01*
X106000000Y-98595000D01*
G75*
G02*
X105850000Y-98445000I0J150000D01*
G01*
X105850000Y-98145000D01*
G75*
G02*
X106000000Y-97995000I150000J0D01*
G01*
X107750000Y-97995000D01*
G75*
G02*
X107900000Y-98145000I0J-150000D01*
G01*
G37*
G36*
G01*
X107900000Y-96875000D02*
X107900000Y-97175000D01*
G75*
G02*
X107750000Y-97325000I-150000J0D01*
G01*
X106000000Y-97325000D01*
G75*
G02*
X105850000Y-97175000I0J150000D01*
G01*
X105850000Y-96875000D01*
G75*
G02*
X106000000Y-96725000I150000J0D01*
G01*
X107750000Y-96725000D01*
G75*
G02*
X107900000Y-96875000I0J-150000D01*
G01*
G37*
G36*
G01*
X107900000Y-95605000D02*
X107900000Y-95905000D01*
G75*
G02*
X107750000Y-96055000I-150000J0D01*
G01*
X106000000Y-96055000D01*
G75*
G02*
X105850000Y-95905000I0J150000D01*
G01*
X105850000Y-95605000D01*
G75*
G02*
X106000000Y-95455000I150000J0D01*
G01*
X107750000Y-95455000D01*
G75*
G02*
X107900000Y-95605000I0J-150000D01*
G01*
G37*
G36*
G01*
X107900000Y-94335000D02*
X107900000Y-94635000D01*
G75*
G02*
X107750000Y-94785000I-150000J0D01*
G01*
X106000000Y-94785000D01*
G75*
G02*
X105850000Y-94635000I0J150000D01*
G01*
X105850000Y-94335000D01*
G75*
G02*
X106000000Y-94185000I150000J0D01*
G01*
X107750000Y-94185000D01*
G75*
G02*
X107900000Y-94335000I0J-150000D01*
G01*
G37*
G36*
G01*
X107900000Y-93065000D02*
X107900000Y-93365000D01*
G75*
G02*
X107750000Y-93515000I-150000J0D01*
G01*
X106000000Y-93515000D01*
G75*
G02*
X105850000Y-93365000I0J150000D01*
G01*
X105850000Y-93065000D01*
G75*
G02*
X106000000Y-92915000I150000J0D01*
G01*
X107750000Y-92915000D01*
G75*
G02*
X107900000Y-93065000I0J-150000D01*
G01*
G37*
G36*
G01*
X107900000Y-91795000D02*
X107900000Y-92095000D01*
G75*
G02*
X107750000Y-92245000I-150000J0D01*
G01*
X106000000Y-92245000D01*
G75*
G02*
X105850000Y-92095000I0J150000D01*
G01*
X105850000Y-91795000D01*
G75*
G02*
X106000000Y-91645000I150000J0D01*
G01*
X107750000Y-91645000D01*
G75*
G02*
X107900000Y-91795000I0J-150000D01*
G01*
G37*
G36*
G01*
X107900000Y-90525000D02*
X107900000Y-90825000D01*
G75*
G02*
X107750000Y-90975000I-150000J0D01*
G01*
X106000000Y-90975000D01*
G75*
G02*
X105850000Y-90825000I0J150000D01*
G01*
X105850000Y-90525000D01*
G75*
G02*
X106000000Y-90375000I150000J0D01*
G01*
X107750000Y-90375000D01*
G75*
G02*
X107900000Y-90525000I0J-150000D01*
G01*
G37*
G36*
G01*
X107900000Y-89255000D02*
X107900000Y-89555000D01*
G75*
G02*
X107750000Y-89705000I-150000J0D01*
G01*
X106000000Y-89705000D01*
G75*
G02*
X105850000Y-89555000I0J150000D01*
G01*
X105850000Y-89255000D01*
G75*
G02*
X106000000Y-89105000I150000J0D01*
G01*
X107750000Y-89105000D01*
G75*
G02*
X107900000Y-89255000I0J-150000D01*
G01*
G37*
G36*
G01*
X98600000Y-89255000D02*
X98600000Y-89555000D01*
G75*
G02*
X98450000Y-89705000I-150000J0D01*
G01*
X96700000Y-89705000D01*
G75*
G02*
X96550000Y-89555000I0J150000D01*
G01*
X96550000Y-89255000D01*
G75*
G02*
X96700000Y-89105000I150000J0D01*
G01*
X98450000Y-89105000D01*
G75*
G02*
X98600000Y-89255000I0J-150000D01*
G01*
G37*
G36*
G01*
X98600000Y-90525000D02*
X98600000Y-90825000D01*
G75*
G02*
X98450000Y-90975000I-150000J0D01*
G01*
X96700000Y-90975000D01*
G75*
G02*
X96550000Y-90825000I0J150000D01*
G01*
X96550000Y-90525000D01*
G75*
G02*
X96700000Y-90375000I150000J0D01*
G01*
X98450000Y-90375000D01*
G75*
G02*
X98600000Y-90525000I0J-150000D01*
G01*
G37*
G36*
G01*
X98600000Y-91795000D02*
X98600000Y-92095000D01*
G75*
G02*
X98450000Y-92245000I-150000J0D01*
G01*
X96700000Y-92245000D01*
G75*
G02*
X96550000Y-92095000I0J150000D01*
G01*
X96550000Y-91795000D01*
G75*
G02*
X96700000Y-91645000I150000J0D01*
G01*
X98450000Y-91645000D01*
G75*
G02*
X98600000Y-91795000I0J-150000D01*
G01*
G37*
G36*
G01*
X98600000Y-93065000D02*
X98600000Y-93365000D01*
G75*
G02*
X98450000Y-93515000I-150000J0D01*
G01*
X96700000Y-93515000D01*
G75*
G02*
X96550000Y-93365000I0J150000D01*
G01*
X96550000Y-93065000D01*
G75*
G02*
X96700000Y-92915000I150000J0D01*
G01*
X98450000Y-92915000D01*
G75*
G02*
X98600000Y-93065000I0J-150000D01*
G01*
G37*
G36*
G01*
X98600000Y-94335000D02*
X98600000Y-94635000D01*
G75*
G02*
X98450000Y-94785000I-150000J0D01*
G01*
X96700000Y-94785000D01*
G75*
G02*
X96550000Y-94635000I0J150000D01*
G01*
X96550000Y-94335000D01*
G75*
G02*
X96700000Y-94185000I150000J0D01*
G01*
X98450000Y-94185000D01*
G75*
G02*
X98600000Y-94335000I0J-150000D01*
G01*
G37*
G36*
G01*
X98600000Y-95605000D02*
X98600000Y-95905000D01*
G75*
G02*
X98450000Y-96055000I-150000J0D01*
G01*
X96700000Y-96055000D01*
G75*
G02*
X96550000Y-95905000I0J150000D01*
G01*
X96550000Y-95605000D01*
G75*
G02*
X96700000Y-95455000I150000J0D01*
G01*
X98450000Y-95455000D01*
G75*
G02*
X98600000Y-95605000I0J-150000D01*
G01*
G37*
G36*
G01*
X98600000Y-96875000D02*
X98600000Y-97175000D01*
G75*
G02*
X98450000Y-97325000I-150000J0D01*
G01*
X96700000Y-97325000D01*
G75*
G02*
X96550000Y-97175000I0J150000D01*
G01*
X96550000Y-96875000D01*
G75*
G02*
X96700000Y-96725000I150000J0D01*
G01*
X98450000Y-96725000D01*
G75*
G02*
X98600000Y-96875000I0J-150000D01*
G01*
G37*
G36*
G01*
X98600000Y-98145000D02*
X98600000Y-98445000D01*
G75*
G02*
X98450000Y-98595000I-150000J0D01*
G01*
X96700000Y-98595000D01*
G75*
G02*
X96550000Y-98445000I0J150000D01*
G01*
X96550000Y-98145000D01*
G75*
G02*
X96700000Y-97995000I150000J0D01*
G01*
X98450000Y-97995000D01*
G75*
G02*
X98600000Y-98145000I0J-150000D01*
G01*
G37*
%TD*%
%TO.C,U4*%
G36*
G01*
X140725000Y-99575000D02*
X140525000Y-99575000D01*
G75*
G02*
X140425000Y-99475000I0J100000D01*
G01*
X140425000Y-98200000D01*
G75*
G02*
X140525000Y-98100000I100000J0D01*
G01*
X140725000Y-98100000D01*
G75*
G02*
X140825000Y-98200000I0J-100000D01*
G01*
X140825000Y-99475000D01*
G75*
G02*
X140725000Y-99575000I-100000J0D01*
G01*
G37*
G36*
G01*
X141375000Y-99575000D02*
X141175000Y-99575000D01*
G75*
G02*
X141075000Y-99475000I0J100000D01*
G01*
X141075000Y-98200000D01*
G75*
G02*
X141175000Y-98100000I100000J0D01*
G01*
X141375000Y-98100000D01*
G75*
G02*
X141475000Y-98200000I0J-100000D01*
G01*
X141475000Y-99475000D01*
G75*
G02*
X141375000Y-99575000I-100000J0D01*
G01*
G37*
G36*
G01*
X142025000Y-99575000D02*
X141825000Y-99575000D01*
G75*
G02*
X141725000Y-99475000I0J100000D01*
G01*
X141725000Y-98200000D01*
G75*
G02*
X141825000Y-98100000I100000J0D01*
G01*
X142025000Y-98100000D01*
G75*
G02*
X142125000Y-98200000I0J-100000D01*
G01*
X142125000Y-99475000D01*
G75*
G02*
X142025000Y-99575000I-100000J0D01*
G01*
G37*
G36*
G01*
X142675000Y-99575000D02*
X142475000Y-99575000D01*
G75*
G02*
X142375000Y-99475000I0J100000D01*
G01*
X142375000Y-98200000D01*
G75*
G02*
X142475000Y-98100000I100000J0D01*
G01*
X142675000Y-98100000D01*
G75*
G02*
X142775000Y-98200000I0J-100000D01*
G01*
X142775000Y-99475000D01*
G75*
G02*
X142675000Y-99575000I-100000J0D01*
G01*
G37*
G36*
G01*
X143325000Y-99575000D02*
X143125000Y-99575000D01*
G75*
G02*
X143025000Y-99475000I0J100000D01*
G01*
X143025000Y-98200000D01*
G75*
G02*
X143125000Y-98100000I100000J0D01*
G01*
X143325000Y-98100000D01*
G75*
G02*
X143425000Y-98200000I0J-100000D01*
G01*
X143425000Y-99475000D01*
G75*
G02*
X143325000Y-99575000I-100000J0D01*
G01*
G37*
G36*
G01*
X143975000Y-99575000D02*
X143775000Y-99575000D01*
G75*
G02*
X143675000Y-99475000I0J100000D01*
G01*
X143675000Y-98200000D01*
G75*
G02*
X143775000Y-98100000I100000J0D01*
G01*
X143975000Y-98100000D01*
G75*
G02*
X144075000Y-98200000I0J-100000D01*
G01*
X144075000Y-99475000D01*
G75*
G02*
X143975000Y-99575000I-100000J0D01*
G01*
G37*
G36*
G01*
X144625000Y-99575000D02*
X144425000Y-99575000D01*
G75*
G02*
X144325000Y-99475000I0J100000D01*
G01*
X144325000Y-98200000D01*
G75*
G02*
X144425000Y-98100000I100000J0D01*
G01*
X144625000Y-98100000D01*
G75*
G02*
X144725000Y-98200000I0J-100000D01*
G01*
X144725000Y-99475000D01*
G75*
G02*
X144625000Y-99575000I-100000J0D01*
G01*
G37*
G36*
G01*
X145275000Y-99575000D02*
X145075000Y-99575000D01*
G75*
G02*
X144975000Y-99475000I0J100000D01*
G01*
X144975000Y-98200000D01*
G75*
G02*
X145075000Y-98100000I100000J0D01*
G01*
X145275000Y-98100000D01*
G75*
G02*
X145375000Y-98200000I0J-100000D01*
G01*
X145375000Y-99475000D01*
G75*
G02*
X145275000Y-99575000I-100000J0D01*
G01*
G37*
G36*
G01*
X145275000Y-93850000D02*
X145075000Y-93850000D01*
G75*
G02*
X144975000Y-93750000I0J100000D01*
G01*
X144975000Y-92475000D01*
G75*
G02*
X145075000Y-92375000I100000J0D01*
G01*
X145275000Y-92375000D01*
G75*
G02*
X145375000Y-92475000I0J-100000D01*
G01*
X145375000Y-93750000D01*
G75*
G02*
X145275000Y-93850000I-100000J0D01*
G01*
G37*
G36*
G01*
X144625000Y-93850000D02*
X144425000Y-93850000D01*
G75*
G02*
X144325000Y-93750000I0J100000D01*
G01*
X144325000Y-92475000D01*
G75*
G02*
X144425000Y-92375000I100000J0D01*
G01*
X144625000Y-92375000D01*
G75*
G02*
X144725000Y-92475000I0J-100000D01*
G01*
X144725000Y-93750000D01*
G75*
G02*
X144625000Y-93850000I-100000J0D01*
G01*
G37*
G36*
G01*
X143975000Y-93850000D02*
X143775000Y-93850000D01*
G75*
G02*
X143675000Y-93750000I0J100000D01*
G01*
X143675000Y-92475000D01*
G75*
G02*
X143775000Y-92375000I100000J0D01*
G01*
X143975000Y-92375000D01*
G75*
G02*
X144075000Y-92475000I0J-100000D01*
G01*
X144075000Y-93750000D01*
G75*
G02*
X143975000Y-93850000I-100000J0D01*
G01*
G37*
G36*
G01*
X143325000Y-93850000D02*
X143125000Y-93850000D01*
G75*
G02*
X143025000Y-93750000I0J100000D01*
G01*
X143025000Y-92475000D01*
G75*
G02*
X143125000Y-92375000I100000J0D01*
G01*
X143325000Y-92375000D01*
G75*
G02*
X143425000Y-92475000I0J-100000D01*
G01*
X143425000Y-93750000D01*
G75*
G02*
X143325000Y-93850000I-100000J0D01*
G01*
G37*
G36*
G01*
X142675000Y-93850000D02*
X142475000Y-93850000D01*
G75*
G02*
X142375000Y-93750000I0J100000D01*
G01*
X142375000Y-92475000D01*
G75*
G02*
X142475000Y-92375000I100000J0D01*
G01*
X142675000Y-92375000D01*
G75*
G02*
X142775000Y-92475000I0J-100000D01*
G01*
X142775000Y-93750000D01*
G75*
G02*
X142675000Y-93850000I-100000J0D01*
G01*
G37*
G36*
G01*
X142025000Y-93850000D02*
X141825000Y-93850000D01*
G75*
G02*
X141725000Y-93750000I0J100000D01*
G01*
X141725000Y-92475000D01*
G75*
G02*
X141825000Y-92375000I100000J0D01*
G01*
X142025000Y-92375000D01*
G75*
G02*
X142125000Y-92475000I0J-100000D01*
G01*
X142125000Y-93750000D01*
G75*
G02*
X142025000Y-93850000I-100000J0D01*
G01*
G37*
G36*
G01*
X141375000Y-93850000D02*
X141175000Y-93850000D01*
G75*
G02*
X141075000Y-93750000I0J100000D01*
G01*
X141075000Y-92475000D01*
G75*
G02*
X141175000Y-92375000I100000J0D01*
G01*
X141375000Y-92375000D01*
G75*
G02*
X141475000Y-92475000I0J-100000D01*
G01*
X141475000Y-93750000D01*
G75*
G02*
X141375000Y-93850000I-100000J0D01*
G01*
G37*
G36*
G01*
X140725000Y-93850000D02*
X140525000Y-93850000D01*
G75*
G02*
X140425000Y-93750000I0J100000D01*
G01*
X140425000Y-92475000D01*
G75*
G02*
X140525000Y-92375000I100000J0D01*
G01*
X140725000Y-92375000D01*
G75*
G02*
X140825000Y-92475000I0J-100000D01*
G01*
X140825000Y-93750000D01*
G75*
G02*
X140725000Y-93850000I-100000J0D01*
G01*
G37*
%TD*%
%TO.C,U5*%
G36*
G01*
X136600000Y-94500000D02*
X136600000Y-94700000D01*
G75*
G02*
X136500000Y-94800000I-100000J0D01*
G01*
X135225000Y-94800000D01*
G75*
G02*
X135125000Y-94700000I0J100000D01*
G01*
X135125000Y-94500000D01*
G75*
G02*
X135225000Y-94400000I100000J0D01*
G01*
X136500000Y-94400000D01*
G75*
G02*
X136600000Y-94500000I0J-100000D01*
G01*
G37*
G36*
G01*
X136600000Y-93850000D02*
X136600000Y-94050000D01*
G75*
G02*
X136500000Y-94150000I-100000J0D01*
G01*
X135225000Y-94150000D01*
G75*
G02*
X135125000Y-94050000I0J100000D01*
G01*
X135125000Y-93850000D01*
G75*
G02*
X135225000Y-93750000I100000J0D01*
G01*
X136500000Y-93750000D01*
G75*
G02*
X136600000Y-93850000I0J-100000D01*
G01*
G37*
G36*
G01*
X136600000Y-93200000D02*
X136600000Y-93400000D01*
G75*
G02*
X136500000Y-93500000I-100000J0D01*
G01*
X135225000Y-93500000D01*
G75*
G02*
X135125000Y-93400000I0J100000D01*
G01*
X135125000Y-93200000D01*
G75*
G02*
X135225000Y-93100000I100000J0D01*
G01*
X136500000Y-93100000D01*
G75*
G02*
X136600000Y-93200000I0J-100000D01*
G01*
G37*
G36*
G01*
X136600000Y-92550000D02*
X136600000Y-92750000D01*
G75*
G02*
X136500000Y-92850000I-100000J0D01*
G01*
X135225000Y-92850000D01*
G75*
G02*
X135125000Y-92750000I0J100000D01*
G01*
X135125000Y-92550000D01*
G75*
G02*
X135225000Y-92450000I100000J0D01*
G01*
X136500000Y-92450000D01*
G75*
G02*
X136600000Y-92550000I0J-100000D01*
G01*
G37*
G36*
G01*
X136600000Y-91900000D02*
X136600000Y-92100000D01*
G75*
G02*
X136500000Y-92200000I-100000J0D01*
G01*
X135225000Y-92200000D01*
G75*
G02*
X135125000Y-92100000I0J100000D01*
G01*
X135125000Y-91900000D01*
G75*
G02*
X135225000Y-91800000I100000J0D01*
G01*
X136500000Y-91800000D01*
G75*
G02*
X136600000Y-91900000I0J-100000D01*
G01*
G37*
G36*
G01*
X136600000Y-91250000D02*
X136600000Y-91450000D01*
G75*
G02*
X136500000Y-91550000I-100000J0D01*
G01*
X135225000Y-91550000D01*
G75*
G02*
X135125000Y-91450000I0J100000D01*
G01*
X135125000Y-91250000D01*
G75*
G02*
X135225000Y-91150000I100000J0D01*
G01*
X136500000Y-91150000D01*
G75*
G02*
X136600000Y-91250000I0J-100000D01*
G01*
G37*
G36*
G01*
X136600000Y-90600000D02*
X136600000Y-90800000D01*
G75*
G02*
X136500000Y-90900000I-100000J0D01*
G01*
X135225000Y-90900000D01*
G75*
G02*
X135125000Y-90800000I0J100000D01*
G01*
X135125000Y-90600000D01*
G75*
G02*
X135225000Y-90500000I100000J0D01*
G01*
X136500000Y-90500000D01*
G75*
G02*
X136600000Y-90600000I0J-100000D01*
G01*
G37*
G36*
G01*
X130875000Y-90600000D02*
X130875000Y-90800000D01*
G75*
G02*
X130775000Y-90900000I-100000J0D01*
G01*
X129500000Y-90900000D01*
G75*
G02*
X129400000Y-90800000I0J100000D01*
G01*
X129400000Y-90600000D01*
G75*
G02*
X129500000Y-90500000I100000J0D01*
G01*
X130775000Y-90500000D01*
G75*
G02*
X130875000Y-90600000I0J-100000D01*
G01*
G37*
G36*
G01*
X130875000Y-91250000D02*
X130875000Y-91450000D01*
G75*
G02*
X130775000Y-91550000I-100000J0D01*
G01*
X129500000Y-91550000D01*
G75*
G02*
X129400000Y-91450000I0J100000D01*
G01*
X129400000Y-91250000D01*
G75*
G02*
X129500000Y-91150000I100000J0D01*
G01*
X130775000Y-91150000D01*
G75*
G02*
X130875000Y-91250000I0J-100000D01*
G01*
G37*
G36*
G01*
X130875000Y-91900000D02*
X130875000Y-92100000D01*
G75*
G02*
X130775000Y-92200000I-100000J0D01*
G01*
X129500000Y-92200000D01*
G75*
G02*
X129400000Y-92100000I0J100000D01*
G01*
X129400000Y-91900000D01*
G75*
G02*
X129500000Y-91800000I100000J0D01*
G01*
X130775000Y-91800000D01*
G75*
G02*
X130875000Y-91900000I0J-100000D01*
G01*
G37*
G36*
G01*
X130875000Y-92550000D02*
X130875000Y-92750000D01*
G75*
G02*
X130775000Y-92850000I-100000J0D01*
G01*
X129500000Y-92850000D01*
G75*
G02*
X129400000Y-92750000I0J100000D01*
G01*
X129400000Y-92550000D01*
G75*
G02*
X129500000Y-92450000I100000J0D01*
G01*
X130775000Y-92450000D01*
G75*
G02*
X130875000Y-92550000I0J-100000D01*
G01*
G37*
G36*
G01*
X130875000Y-93200000D02*
X130875000Y-93400000D01*
G75*
G02*
X130775000Y-93500000I-100000J0D01*
G01*
X129500000Y-93500000D01*
G75*
G02*
X129400000Y-93400000I0J100000D01*
G01*
X129400000Y-93200000D01*
G75*
G02*
X129500000Y-93100000I100000J0D01*
G01*
X130775000Y-93100000D01*
G75*
G02*
X130875000Y-93200000I0J-100000D01*
G01*
G37*
G36*
G01*
X130875000Y-93850000D02*
X130875000Y-94050000D01*
G75*
G02*
X130775000Y-94150000I-100000J0D01*
G01*
X129500000Y-94150000D01*
G75*
G02*
X129400000Y-94050000I0J100000D01*
G01*
X129400000Y-93850000D01*
G75*
G02*
X129500000Y-93750000I100000J0D01*
G01*
X130775000Y-93750000D01*
G75*
G02*
X130875000Y-93850000I0J-100000D01*
G01*
G37*
G36*
G01*
X130875000Y-94500000D02*
X130875000Y-94700000D01*
G75*
G02*
X130775000Y-94800000I-100000J0D01*
G01*
X129500000Y-94800000D01*
G75*
G02*
X129400000Y-94700000I0J100000D01*
G01*
X129400000Y-94500000D01*
G75*
G02*
X129500000Y-94400000I100000J0D01*
G01*
X130775000Y-94400000D01*
G75*
G02*
X130875000Y-94500000I0J-100000D01*
G01*
G37*
%TD*%
M02*
