%TF.GenerationSoftware,KiCad,Pcbnew,5.1.6-1.fc31*%
%TF.CreationDate,2020-06-27T23:06:53-07:00*%
%TF.ProjectId,rpi_7seg_alarm_clock,7270695f-3773-4656-975f-616c61726d5f,rev?*%
%TF.SameCoordinates,Original*%
%TF.FileFunction,Legend,Top*%
%TF.FilePolarity,Positive*%
%FSLAX46Y46*%
G04 Gerber Fmt 4.6, Leading zero omitted, Abs format (unit mm)*
G04 Created by KiCad (PCBNEW 5.1.6-1.fc31) date 2020-06-27 23:06:53*
%MOMM*%
%LPD*%
G01*
G04 APERTURE LIST*
%ADD10C,0.070000*%
%ADD11C,0.150000*%
%ADD12C,0.120000*%
%ADD13C,0.127000*%
%ADD14C,0.152400*%
G04 APERTURE END LIST*
D10*
X121204547Y-64586190D02*
X121204547Y-64252857D01*
X121204547Y-64348095D02*
X121228357Y-64300476D01*
X121252166Y-64276666D01*
X121299785Y-64252857D01*
X121347404Y-64252857D01*
X121514071Y-64252857D02*
X121514071Y-64752857D01*
X121514071Y-64276666D02*
X121561690Y-64252857D01*
X121656928Y-64252857D01*
X121704547Y-64276666D01*
X121728357Y-64300476D01*
X121752166Y-64348095D01*
X121752166Y-64490952D01*
X121728357Y-64538571D01*
X121704547Y-64562380D01*
X121656928Y-64586190D01*
X121561690Y-64586190D01*
X121514071Y-64562380D01*
X121966452Y-64586190D02*
X121966452Y-64252857D01*
X121966452Y-64086190D02*
X121942642Y-64110000D01*
X121966452Y-64133809D01*
X121990261Y-64110000D01*
X121966452Y-64086190D01*
X121966452Y-64133809D01*
X122085500Y-64633809D02*
X122466452Y-64633809D01*
X122537880Y-64086190D02*
X122871214Y-64086190D01*
X122656928Y-64586190D01*
X123037880Y-64562380D02*
X123085500Y-64586190D01*
X123180738Y-64586190D01*
X123228357Y-64562380D01*
X123252166Y-64514761D01*
X123252166Y-64490952D01*
X123228357Y-64443333D01*
X123180738Y-64419523D01*
X123109309Y-64419523D01*
X123061690Y-64395714D01*
X123037880Y-64348095D01*
X123037880Y-64324285D01*
X123061690Y-64276666D01*
X123109309Y-64252857D01*
X123180738Y-64252857D01*
X123228357Y-64276666D01*
X123656928Y-64562380D02*
X123609309Y-64586190D01*
X123514071Y-64586190D01*
X123466452Y-64562380D01*
X123442642Y-64514761D01*
X123442642Y-64324285D01*
X123466452Y-64276666D01*
X123514071Y-64252857D01*
X123609309Y-64252857D01*
X123656928Y-64276666D01*
X123680738Y-64324285D01*
X123680738Y-64371904D01*
X123442642Y-64419523D01*
X124109309Y-64252857D02*
X124109309Y-64657619D01*
X124085500Y-64705238D01*
X124061690Y-64729047D01*
X124014071Y-64752857D01*
X123942642Y-64752857D01*
X123895023Y-64729047D01*
X124109309Y-64562380D02*
X124061690Y-64586190D01*
X123966452Y-64586190D01*
X123918833Y-64562380D01*
X123895023Y-64538571D01*
X123871214Y-64490952D01*
X123871214Y-64348095D01*
X123895023Y-64300476D01*
X123918833Y-64276666D01*
X123966452Y-64252857D01*
X124061690Y-64252857D01*
X124109309Y-64276666D01*
X124228357Y-64633809D02*
X124609309Y-64633809D01*
X124942642Y-64586190D02*
X124942642Y-64324285D01*
X124918833Y-64276666D01*
X124871214Y-64252857D01*
X124775976Y-64252857D01*
X124728357Y-64276666D01*
X124942642Y-64562380D02*
X124895023Y-64586190D01*
X124775976Y-64586190D01*
X124728357Y-64562380D01*
X124704547Y-64514761D01*
X124704547Y-64467142D01*
X124728357Y-64419523D01*
X124775976Y-64395714D01*
X124895023Y-64395714D01*
X124942642Y-64371904D01*
X125252166Y-64586190D02*
X125204547Y-64562380D01*
X125180738Y-64514761D01*
X125180738Y-64086190D01*
X125656928Y-64586190D02*
X125656928Y-64324285D01*
X125633119Y-64276666D01*
X125585500Y-64252857D01*
X125490261Y-64252857D01*
X125442642Y-64276666D01*
X125656928Y-64562380D02*
X125609309Y-64586190D01*
X125490261Y-64586190D01*
X125442642Y-64562380D01*
X125418833Y-64514761D01*
X125418833Y-64467142D01*
X125442642Y-64419523D01*
X125490261Y-64395714D01*
X125609309Y-64395714D01*
X125656928Y-64371904D01*
X125895023Y-64586190D02*
X125895023Y-64252857D01*
X125895023Y-64348095D02*
X125918833Y-64300476D01*
X125942642Y-64276666D01*
X125990261Y-64252857D01*
X126037880Y-64252857D01*
X126204547Y-64586190D02*
X126204547Y-64252857D01*
X126204547Y-64300476D02*
X126228357Y-64276666D01*
X126275976Y-64252857D01*
X126347404Y-64252857D01*
X126395023Y-64276666D01*
X126418833Y-64324285D01*
X126418833Y-64586190D01*
X126418833Y-64324285D02*
X126442642Y-64276666D01*
X126490261Y-64252857D01*
X126561690Y-64252857D01*
X126609309Y-64276666D01*
X126633119Y-64324285D01*
X126633119Y-64586190D01*
X126752166Y-64633809D02*
X127133119Y-64633809D01*
X127466452Y-64562380D02*
X127418833Y-64586190D01*
X127323595Y-64586190D01*
X127275976Y-64562380D01*
X127252166Y-64538571D01*
X127228357Y-64490952D01*
X127228357Y-64348095D01*
X127252166Y-64300476D01*
X127275976Y-64276666D01*
X127323595Y-64252857D01*
X127418833Y-64252857D01*
X127466452Y-64276666D01*
X127752166Y-64586190D02*
X127704547Y-64562380D01*
X127680738Y-64514761D01*
X127680738Y-64086190D01*
X128014071Y-64586190D02*
X127966452Y-64562380D01*
X127942642Y-64538571D01*
X127918833Y-64490952D01*
X127918833Y-64348095D01*
X127942642Y-64300476D01*
X127966452Y-64276666D01*
X128014071Y-64252857D01*
X128085500Y-64252857D01*
X128133119Y-64276666D01*
X128156928Y-64300476D01*
X128180738Y-64348095D01*
X128180738Y-64490952D01*
X128156928Y-64538571D01*
X128133119Y-64562380D01*
X128085500Y-64586190D01*
X128014071Y-64586190D01*
X128609309Y-64562380D02*
X128561690Y-64586190D01*
X128466452Y-64586190D01*
X128418833Y-64562380D01*
X128395023Y-64538571D01*
X128371214Y-64490952D01*
X128371214Y-64348095D01*
X128395023Y-64300476D01*
X128418833Y-64276666D01*
X128466452Y-64252857D01*
X128561690Y-64252857D01*
X128609309Y-64276666D01*
X128823595Y-64586190D02*
X128823595Y-64086190D01*
X128871214Y-64395714D02*
X129014071Y-64586190D01*
X129014071Y-64252857D02*
X128823595Y-64443333D01*
X129109309Y-64633809D02*
X129490261Y-64633809D01*
X129561690Y-64252857D02*
X129680738Y-64586190D01*
X129799785Y-64252857D01*
X130085500Y-64086190D02*
X130133119Y-64086190D01*
X130180738Y-64110000D01*
X130204547Y-64133809D01*
X130228357Y-64181428D01*
X130252166Y-64276666D01*
X130252166Y-64395714D01*
X130228357Y-64490952D01*
X130204547Y-64538571D01*
X130180738Y-64562380D01*
X130133119Y-64586190D01*
X130085500Y-64586190D01*
X130037880Y-64562380D01*
X130014071Y-64538571D01*
X129990261Y-64490952D01*
X129966452Y-64395714D01*
X129966452Y-64276666D01*
X129990261Y-64181428D01*
X130014071Y-64133809D01*
X130037880Y-64110000D01*
X130085500Y-64086190D01*
X130847404Y-64395714D02*
X131228357Y-64395714D01*
X131847404Y-64586190D02*
X131847404Y-64086190D01*
X132133119Y-64586190D01*
X132133119Y-64086190D01*
X132371214Y-64586190D02*
X132371214Y-64252857D01*
X132371214Y-64086190D02*
X132347404Y-64110000D01*
X132371214Y-64133809D01*
X132395023Y-64110000D01*
X132371214Y-64086190D01*
X132371214Y-64133809D01*
X132680738Y-64586190D02*
X132633119Y-64562380D01*
X132609309Y-64514761D01*
X132609309Y-64086190D01*
X133061690Y-64562380D02*
X133014071Y-64586190D01*
X132918833Y-64586190D01*
X132871214Y-64562380D01*
X132847404Y-64514761D01*
X132847404Y-64324285D01*
X132871214Y-64276666D01*
X132918833Y-64252857D01*
X133014071Y-64252857D01*
X133061690Y-64276666D01*
X133085500Y-64324285D01*
X133085500Y-64371904D01*
X132847404Y-64419523D01*
X133680738Y-64586190D02*
X133680738Y-64086190D01*
X133847404Y-64443333D01*
X134014071Y-64086190D01*
X134014071Y-64586190D01*
X134252166Y-64586190D02*
X134252166Y-64252857D01*
X134252166Y-64086190D02*
X134228357Y-64110000D01*
X134252166Y-64133809D01*
X134275976Y-64110000D01*
X134252166Y-64086190D01*
X134252166Y-64133809D01*
X134418833Y-64252857D02*
X134609309Y-64252857D01*
X134490261Y-64086190D02*
X134490261Y-64514761D01*
X134514071Y-64562380D01*
X134561690Y-64586190D01*
X134609309Y-64586190D01*
X134704547Y-64252857D02*
X134895023Y-64252857D01*
X134775976Y-64086190D02*
X134775976Y-64514761D01*
X134799785Y-64562380D01*
X134847404Y-64586190D01*
X134895023Y-64586190D01*
X135133119Y-64586190D02*
X135085500Y-64562380D01*
X135061690Y-64538571D01*
X135037880Y-64490952D01*
X135037880Y-64348095D01*
X135061690Y-64300476D01*
X135085500Y-64276666D01*
X135133119Y-64252857D01*
X135204547Y-64252857D01*
X135252166Y-64276666D01*
X135275976Y-64300476D01*
X135299785Y-64348095D01*
X135299785Y-64490952D01*
X135275976Y-64538571D01*
X135252166Y-64562380D01*
X135204547Y-64586190D01*
X135133119Y-64586190D01*
X135466452Y-64252857D02*
X135561690Y-64586190D01*
X135656928Y-64348095D01*
X135752166Y-64586190D01*
X135847404Y-64252857D01*
X136418833Y-64395714D02*
X136799785Y-64395714D01*
X137418833Y-64586190D02*
X137418833Y-64086190D01*
X137609309Y-64086190D01*
X137656928Y-64110000D01*
X137680738Y-64133809D01*
X137704547Y-64181428D01*
X137704547Y-64252857D01*
X137680738Y-64300476D01*
X137656928Y-64324285D01*
X137609309Y-64348095D01*
X137418833Y-64348095D01*
X137918833Y-64586190D02*
X137918833Y-64252857D01*
X137918833Y-64086190D02*
X137895023Y-64110000D01*
X137918833Y-64133809D01*
X137942642Y-64110000D01*
X137918833Y-64086190D01*
X137918833Y-64133809D01*
X138133119Y-64086190D02*
X138133119Y-64181428D01*
X138323595Y-64086190D02*
X138323595Y-64181428D01*
X138537880Y-64586190D02*
X138537880Y-64086190D01*
X138537880Y-64324285D02*
X138823595Y-64324285D01*
X138823595Y-64586190D02*
X138823595Y-64086190D01*
X139275976Y-64586190D02*
X139275976Y-64324285D01*
X139252166Y-64276666D01*
X139204547Y-64252857D01*
X139109309Y-64252857D01*
X139061690Y-64276666D01*
X139275976Y-64562380D02*
X139228357Y-64586190D01*
X139109309Y-64586190D01*
X139061690Y-64562380D01*
X139037880Y-64514761D01*
X139037880Y-64467142D01*
X139061690Y-64419523D01*
X139109309Y-64395714D01*
X139228357Y-64395714D01*
X139275976Y-64371904D01*
X139442642Y-64252857D02*
X139633119Y-64252857D01*
X139514071Y-64086190D02*
X139514071Y-64514761D01*
X139537880Y-64562380D01*
X139585500Y-64586190D01*
X139633119Y-64586190D01*
X139775976Y-64086190D02*
X139775976Y-64181428D01*
X139966452Y-64086190D02*
X139966452Y-64181428D01*
X140847404Y-64538571D02*
X140823595Y-64562380D01*
X140752166Y-64586190D01*
X140704547Y-64586190D01*
X140633119Y-64562380D01*
X140585500Y-64514761D01*
X140561690Y-64467142D01*
X140537880Y-64371904D01*
X140537880Y-64300476D01*
X140561690Y-64205238D01*
X140585500Y-64157619D01*
X140633119Y-64110000D01*
X140704547Y-64086190D01*
X140752166Y-64086190D01*
X140823595Y-64110000D01*
X140847404Y-64133809D01*
X141133119Y-64586190D02*
X141085500Y-64562380D01*
X141061690Y-64538571D01*
X141037880Y-64490952D01*
X141037880Y-64348095D01*
X141061690Y-64300476D01*
X141085500Y-64276666D01*
X141133119Y-64252857D01*
X141204547Y-64252857D01*
X141252166Y-64276666D01*
X141275976Y-64300476D01*
X141299785Y-64348095D01*
X141299785Y-64490952D01*
X141275976Y-64538571D01*
X141252166Y-64562380D01*
X141204547Y-64586190D01*
X141133119Y-64586190D01*
X141514071Y-64252857D02*
X141514071Y-64586190D01*
X141514071Y-64300476D02*
X141537880Y-64276666D01*
X141585500Y-64252857D01*
X141656928Y-64252857D01*
X141704547Y-64276666D01*
X141728357Y-64324285D01*
X141728357Y-64586190D01*
X141895023Y-64252857D02*
X142085500Y-64252857D01*
X141966452Y-64086190D02*
X141966452Y-64514761D01*
X141990261Y-64562380D01*
X142037880Y-64586190D01*
X142085500Y-64586190D01*
X142252166Y-64586190D02*
X142252166Y-64252857D01*
X142252166Y-64348095D02*
X142275976Y-64300476D01*
X142299785Y-64276666D01*
X142347404Y-64252857D01*
X142395023Y-64252857D01*
X142633119Y-64586190D02*
X142585500Y-64562380D01*
X142561690Y-64538571D01*
X142537880Y-64490952D01*
X142537880Y-64348095D01*
X142561690Y-64300476D01*
X142585500Y-64276666D01*
X142633119Y-64252857D01*
X142704547Y-64252857D01*
X142752166Y-64276666D01*
X142775976Y-64300476D01*
X142799785Y-64348095D01*
X142799785Y-64490952D01*
X142775976Y-64538571D01*
X142752166Y-64562380D01*
X142704547Y-64586190D01*
X142633119Y-64586190D01*
X143085500Y-64586190D02*
X143037880Y-64562380D01*
X143014071Y-64514761D01*
X143014071Y-64086190D01*
X143347404Y-64586190D02*
X143299785Y-64562380D01*
X143275976Y-64514761D01*
X143275976Y-64086190D01*
X143728357Y-64562380D02*
X143680738Y-64586190D01*
X143585500Y-64586190D01*
X143537880Y-64562380D01*
X143514071Y-64514761D01*
X143514071Y-64324285D01*
X143537880Y-64276666D01*
X143585500Y-64252857D01*
X143680738Y-64252857D01*
X143728357Y-64276666D01*
X143752166Y-64324285D01*
X143752166Y-64371904D01*
X143514071Y-64419523D01*
X143966452Y-64586190D02*
X143966452Y-64252857D01*
X143966452Y-64348095D02*
X143990261Y-64300476D01*
X144014071Y-64276666D01*
X144061690Y-64252857D01*
X144109309Y-64252857D01*
X121204547Y-65406190D02*
X121204547Y-64906190D01*
X121418833Y-65406190D02*
X121418833Y-65144285D01*
X121395023Y-65096666D01*
X121347404Y-65072857D01*
X121275976Y-65072857D01*
X121228357Y-65096666D01*
X121204547Y-65120476D01*
X121585500Y-65072857D02*
X121775976Y-65072857D01*
X121656928Y-64906190D02*
X121656928Y-65334761D01*
X121680738Y-65382380D01*
X121728357Y-65406190D01*
X121775976Y-65406190D01*
X121871214Y-65072857D02*
X122061690Y-65072857D01*
X121942642Y-64906190D02*
X121942642Y-65334761D01*
X121966452Y-65382380D01*
X122014071Y-65406190D01*
X122061690Y-65406190D01*
X122228357Y-65072857D02*
X122228357Y-65572857D01*
X122228357Y-65096666D02*
X122275976Y-65072857D01*
X122371214Y-65072857D01*
X122418833Y-65096666D01*
X122442642Y-65120476D01*
X122466452Y-65168095D01*
X122466452Y-65310952D01*
X122442642Y-65358571D01*
X122418833Y-65382380D01*
X122371214Y-65406190D01*
X122275976Y-65406190D01*
X122228357Y-65382380D01*
X122656928Y-65382380D02*
X122704547Y-65406190D01*
X122799785Y-65406190D01*
X122847404Y-65382380D01*
X122871214Y-65334761D01*
X122871214Y-65310952D01*
X122847404Y-65263333D01*
X122799785Y-65239523D01*
X122728357Y-65239523D01*
X122680738Y-65215714D01*
X122656928Y-65168095D01*
X122656928Y-65144285D01*
X122680738Y-65096666D01*
X122728357Y-65072857D01*
X122799785Y-65072857D01*
X122847404Y-65096666D01*
X123085500Y-65358571D02*
X123109309Y-65382380D01*
X123085500Y-65406190D01*
X123061690Y-65382380D01*
X123085500Y-65358571D01*
X123085500Y-65406190D01*
X123085500Y-65096666D02*
X123109309Y-65120476D01*
X123085500Y-65144285D01*
X123061690Y-65120476D01*
X123085500Y-65096666D01*
X123085500Y-65144285D01*
X123680738Y-64882380D02*
X123252166Y-65525238D01*
X124204547Y-64882380D02*
X123775976Y-65525238D01*
X124371214Y-65406190D02*
X124371214Y-64906190D01*
X124371214Y-65096666D02*
X124418833Y-65072857D01*
X124514071Y-65072857D01*
X124561690Y-65096666D01*
X124585500Y-65120476D01*
X124609309Y-65168095D01*
X124609309Y-65310952D01*
X124585500Y-65358571D01*
X124561690Y-65382380D01*
X124514071Y-65406190D01*
X124418833Y-65406190D01*
X124371214Y-65382380D01*
X124823595Y-65406190D02*
X124823595Y-65072857D01*
X124823595Y-64906190D02*
X124799785Y-64930000D01*
X124823595Y-64953809D01*
X124847404Y-64930000D01*
X124823595Y-64906190D01*
X124823595Y-64953809D01*
X124990261Y-65072857D02*
X125180738Y-65072857D01*
X125061690Y-64906190D02*
X125061690Y-65334761D01*
X125085500Y-65382380D01*
X125133119Y-65406190D01*
X125180738Y-65406190D01*
X125347404Y-65406190D02*
X125347404Y-64906190D01*
X125347404Y-65096666D02*
X125395023Y-65072857D01*
X125490261Y-65072857D01*
X125537880Y-65096666D01*
X125561690Y-65120476D01*
X125585500Y-65168095D01*
X125585500Y-65310952D01*
X125561690Y-65358571D01*
X125537880Y-65382380D01*
X125490261Y-65406190D01*
X125395023Y-65406190D01*
X125347404Y-65382380D01*
X126014071Y-65072857D02*
X126014071Y-65406190D01*
X125799785Y-65072857D02*
X125799785Y-65334761D01*
X125823595Y-65382380D01*
X125871214Y-65406190D01*
X125942642Y-65406190D01*
X125990261Y-65382380D01*
X126014071Y-65358571D01*
X126466452Y-65382380D02*
X126418833Y-65406190D01*
X126323595Y-65406190D01*
X126275976Y-65382380D01*
X126252166Y-65358571D01*
X126228357Y-65310952D01*
X126228357Y-65168095D01*
X126252166Y-65120476D01*
X126275976Y-65096666D01*
X126323595Y-65072857D01*
X126418833Y-65072857D01*
X126466452Y-65096666D01*
X126680738Y-65406190D02*
X126680738Y-64906190D01*
X126728357Y-65215714D02*
X126871214Y-65406190D01*
X126871214Y-65072857D02*
X126680738Y-65263333D01*
X127275976Y-65382380D02*
X127228357Y-65406190D01*
X127133119Y-65406190D01*
X127085500Y-65382380D01*
X127061690Y-65334761D01*
X127061690Y-65144285D01*
X127085500Y-65096666D01*
X127133119Y-65072857D01*
X127228357Y-65072857D01*
X127275976Y-65096666D01*
X127299785Y-65144285D01*
X127299785Y-65191904D01*
X127061690Y-65239523D01*
X127442642Y-65072857D02*
X127633119Y-65072857D01*
X127514071Y-64906190D02*
X127514071Y-65334761D01*
X127537880Y-65382380D01*
X127585500Y-65406190D01*
X127633119Y-65406190D01*
X127799785Y-65358571D02*
X127823595Y-65382380D01*
X127799785Y-65406190D01*
X127775976Y-65382380D01*
X127799785Y-65358571D01*
X127799785Y-65406190D01*
X128109309Y-65406190D02*
X128061690Y-65382380D01*
X128037880Y-65358571D01*
X128014071Y-65310952D01*
X128014071Y-65168095D01*
X128037880Y-65120476D01*
X128061690Y-65096666D01*
X128109309Y-65072857D01*
X128180738Y-65072857D01*
X128228357Y-65096666D01*
X128252166Y-65120476D01*
X128275976Y-65168095D01*
X128275976Y-65310952D01*
X128252166Y-65358571D01*
X128228357Y-65382380D01*
X128180738Y-65406190D01*
X128109309Y-65406190D01*
X128490261Y-65406190D02*
X128490261Y-65072857D01*
X128490261Y-65168095D02*
X128514071Y-65120476D01*
X128537880Y-65096666D01*
X128585500Y-65072857D01*
X128633119Y-65072857D01*
X129014071Y-65072857D02*
X129014071Y-65477619D01*
X128990261Y-65525238D01*
X128966452Y-65549047D01*
X128918833Y-65572857D01*
X128847404Y-65572857D01*
X128799785Y-65549047D01*
X129014071Y-65382380D02*
X128966452Y-65406190D01*
X128871214Y-65406190D01*
X128823595Y-65382380D01*
X128799785Y-65358571D01*
X128775976Y-65310952D01*
X128775976Y-65168095D01*
X128799785Y-65120476D01*
X128823595Y-65096666D01*
X128871214Y-65072857D01*
X128966452Y-65072857D01*
X129014071Y-65096666D01*
X129609309Y-64882380D02*
X129180738Y-65525238D01*
X129775976Y-65406190D02*
X129775976Y-64906190D01*
X130061690Y-65406190D01*
X130061690Y-64906190D01*
X130299785Y-65406190D02*
X130299785Y-65072857D01*
X130299785Y-64906190D02*
X130275976Y-64930000D01*
X130299785Y-64953809D01*
X130323595Y-64930000D01*
X130299785Y-64906190D01*
X130299785Y-64953809D01*
X130609309Y-65406190D02*
X130561690Y-65382380D01*
X130537880Y-65334761D01*
X130537880Y-64906190D01*
X130990261Y-65382380D02*
X130942642Y-65406190D01*
X130847404Y-65406190D01*
X130799785Y-65382380D01*
X130775976Y-65334761D01*
X130775976Y-65144285D01*
X130799785Y-65096666D01*
X130847404Y-65072857D01*
X130942642Y-65072857D01*
X130990261Y-65096666D01*
X131014071Y-65144285D01*
X131014071Y-65191904D01*
X130775976Y-65239523D01*
X131228357Y-65406190D02*
X131228357Y-64906190D01*
X131395023Y-65263333D01*
X131561690Y-64906190D01*
X131561690Y-65406190D01*
X131799785Y-65406190D02*
X131799785Y-65072857D01*
X131799785Y-64906190D02*
X131775976Y-64930000D01*
X131799785Y-64953809D01*
X131823595Y-64930000D01*
X131799785Y-64906190D01*
X131799785Y-64953809D01*
X131966452Y-65072857D02*
X132156928Y-65072857D01*
X132037880Y-64906190D02*
X132037880Y-65334761D01*
X132061690Y-65382380D01*
X132109309Y-65406190D01*
X132156928Y-65406190D01*
X132252166Y-65072857D02*
X132442642Y-65072857D01*
X132323595Y-64906190D02*
X132323595Y-65334761D01*
X132347404Y-65382380D01*
X132395023Y-65406190D01*
X132442642Y-65406190D01*
X132680738Y-65406190D02*
X132633119Y-65382380D01*
X132609309Y-65358571D01*
X132585500Y-65310952D01*
X132585500Y-65168095D01*
X132609309Y-65120476D01*
X132633119Y-65096666D01*
X132680738Y-65072857D01*
X132752166Y-65072857D01*
X132799785Y-65096666D01*
X132823595Y-65120476D01*
X132847404Y-65168095D01*
X132847404Y-65310952D01*
X132823595Y-65358571D01*
X132799785Y-65382380D01*
X132752166Y-65406190D01*
X132680738Y-65406190D01*
X133014071Y-65072857D02*
X133109309Y-65406190D01*
X133204547Y-65168095D01*
X133299785Y-65406190D01*
X133395023Y-65072857D01*
X133942642Y-64882380D02*
X133514071Y-65525238D01*
X134109309Y-65406190D02*
X134109309Y-65072857D01*
X134109309Y-65168095D02*
X134133119Y-65120476D01*
X134156928Y-65096666D01*
X134204547Y-65072857D01*
X134252166Y-65072857D01*
X134418833Y-65072857D02*
X134418833Y-65572857D01*
X134418833Y-65096666D02*
X134466452Y-65072857D01*
X134561690Y-65072857D01*
X134609309Y-65096666D01*
X134633119Y-65120476D01*
X134656928Y-65168095D01*
X134656928Y-65310952D01*
X134633119Y-65358571D01*
X134609309Y-65382380D01*
X134561690Y-65406190D01*
X134466452Y-65406190D01*
X134418833Y-65382380D01*
X134871214Y-65406190D02*
X134871214Y-65072857D01*
X134871214Y-64906190D02*
X134847404Y-64930000D01*
X134871214Y-64953809D01*
X134895023Y-64930000D01*
X134871214Y-64906190D01*
X134871214Y-64953809D01*
X134990261Y-65453809D02*
X135371214Y-65453809D01*
X135442642Y-64906190D02*
X135775976Y-64906190D01*
X135561690Y-65406190D01*
X135942642Y-65382380D02*
X135990261Y-65406190D01*
X136085500Y-65406190D01*
X136133119Y-65382380D01*
X136156928Y-65334761D01*
X136156928Y-65310952D01*
X136133119Y-65263333D01*
X136085500Y-65239523D01*
X136014071Y-65239523D01*
X135966452Y-65215714D01*
X135942642Y-65168095D01*
X135942642Y-65144285D01*
X135966452Y-65096666D01*
X136014071Y-65072857D01*
X136085500Y-65072857D01*
X136133119Y-65096666D01*
X136561690Y-65382380D02*
X136514071Y-65406190D01*
X136418833Y-65406190D01*
X136371214Y-65382380D01*
X136347404Y-65334761D01*
X136347404Y-65144285D01*
X136371214Y-65096666D01*
X136418833Y-65072857D01*
X136514071Y-65072857D01*
X136561690Y-65096666D01*
X136585500Y-65144285D01*
X136585500Y-65191904D01*
X136347404Y-65239523D01*
X137014071Y-65072857D02*
X137014071Y-65477619D01*
X136990261Y-65525238D01*
X136966452Y-65549047D01*
X136918833Y-65572857D01*
X136847404Y-65572857D01*
X136799785Y-65549047D01*
X137014071Y-65382380D02*
X136966452Y-65406190D01*
X136871214Y-65406190D01*
X136823595Y-65382380D01*
X136799785Y-65358571D01*
X136775976Y-65310952D01*
X136775976Y-65168095D01*
X136799785Y-65120476D01*
X136823595Y-65096666D01*
X136871214Y-65072857D01*
X136966452Y-65072857D01*
X137014071Y-65096666D01*
X137133119Y-65453809D02*
X137514071Y-65453809D01*
X137847404Y-65406190D02*
X137847404Y-65144285D01*
X137823595Y-65096666D01*
X137775976Y-65072857D01*
X137680738Y-65072857D01*
X137633119Y-65096666D01*
X137847404Y-65382380D02*
X137799785Y-65406190D01*
X137680738Y-65406190D01*
X137633119Y-65382380D01*
X137609309Y-65334761D01*
X137609309Y-65287142D01*
X137633119Y-65239523D01*
X137680738Y-65215714D01*
X137799785Y-65215714D01*
X137847404Y-65191904D01*
X138156928Y-65406190D02*
X138109309Y-65382380D01*
X138085500Y-65334761D01*
X138085500Y-64906190D01*
X138561690Y-65406190D02*
X138561690Y-65144285D01*
X138537880Y-65096666D01*
X138490261Y-65072857D01*
X138395023Y-65072857D01*
X138347404Y-65096666D01*
X138561690Y-65382380D02*
X138514071Y-65406190D01*
X138395023Y-65406190D01*
X138347404Y-65382380D01*
X138323595Y-65334761D01*
X138323595Y-65287142D01*
X138347404Y-65239523D01*
X138395023Y-65215714D01*
X138514071Y-65215714D01*
X138561690Y-65191904D01*
X138799785Y-65406190D02*
X138799785Y-65072857D01*
X138799785Y-65168095D02*
X138823595Y-65120476D01*
X138847404Y-65096666D01*
X138895023Y-65072857D01*
X138942642Y-65072857D01*
X139109309Y-65406190D02*
X139109309Y-65072857D01*
X139109309Y-65120476D02*
X139133119Y-65096666D01*
X139180738Y-65072857D01*
X139252166Y-65072857D01*
X139299785Y-65096666D01*
X139323595Y-65144285D01*
X139323595Y-65406190D01*
X139323595Y-65144285D02*
X139347404Y-65096666D01*
X139395023Y-65072857D01*
X139466452Y-65072857D01*
X139514071Y-65096666D01*
X139537880Y-65144285D01*
X139537880Y-65406190D01*
X139656928Y-65453809D02*
X140037880Y-65453809D01*
X140371214Y-65382380D02*
X140323595Y-65406190D01*
X140228357Y-65406190D01*
X140180738Y-65382380D01*
X140156928Y-65358571D01*
X140133119Y-65310952D01*
X140133119Y-65168095D01*
X140156928Y-65120476D01*
X140180738Y-65096666D01*
X140228357Y-65072857D01*
X140323595Y-65072857D01*
X140371214Y-65096666D01*
X140656928Y-65406190D02*
X140609309Y-65382380D01*
X140585500Y-65334761D01*
X140585500Y-64906190D01*
X140918833Y-65406190D02*
X140871214Y-65382380D01*
X140847404Y-65358571D01*
X140823595Y-65310952D01*
X140823595Y-65168095D01*
X140847404Y-65120476D01*
X140871214Y-65096666D01*
X140918833Y-65072857D01*
X140990261Y-65072857D01*
X141037880Y-65096666D01*
X141061690Y-65120476D01*
X141085500Y-65168095D01*
X141085500Y-65310952D01*
X141061690Y-65358571D01*
X141037880Y-65382380D01*
X140990261Y-65406190D01*
X140918833Y-65406190D01*
X141514071Y-65382380D02*
X141466452Y-65406190D01*
X141371214Y-65406190D01*
X141323595Y-65382380D01*
X141299785Y-65358571D01*
X141275976Y-65310952D01*
X141275976Y-65168095D01*
X141299785Y-65120476D01*
X141323595Y-65096666D01*
X141371214Y-65072857D01*
X141466452Y-65072857D01*
X141514071Y-65096666D01*
X141728357Y-65406190D02*
X141728357Y-64906190D01*
X141775976Y-65215714D02*
X141918833Y-65406190D01*
X141918833Y-65072857D02*
X141728357Y-65263333D01*
D11*
X87400000Y-68763095D02*
X87447619Y-68667857D01*
X87447619Y-68525000D01*
X87400000Y-68382142D01*
X87304761Y-68286904D01*
X87209523Y-68239285D01*
X87019047Y-68191666D01*
X86876190Y-68191666D01*
X86685714Y-68239285D01*
X86590476Y-68286904D01*
X86495238Y-68382142D01*
X86447619Y-68525000D01*
X86447619Y-68620238D01*
X86495238Y-68763095D01*
X86542857Y-68810714D01*
X86876190Y-68810714D01*
X86876190Y-68620238D01*
X86447619Y-69239285D02*
X87447619Y-69239285D01*
X86447619Y-69810714D01*
X87447619Y-69810714D01*
X86447619Y-70286904D02*
X87447619Y-70286904D01*
X87447619Y-70525000D01*
X87400000Y-70667857D01*
X87304761Y-70763095D01*
X87209523Y-70810714D01*
X87019047Y-70858333D01*
X86876190Y-70858333D01*
X86685714Y-70810714D01*
X86590476Y-70763095D01*
X86495238Y-70667857D01*
X86447619Y-70525000D01*
X86447619Y-70286904D01*
X87447619Y-79534523D02*
X87447619Y-79058333D01*
X86971428Y-79010714D01*
X87019047Y-79058333D01*
X87066666Y-79153571D01*
X87066666Y-79391666D01*
X87019047Y-79486904D01*
X86971428Y-79534523D01*
X86876190Y-79582142D01*
X86638095Y-79582142D01*
X86542857Y-79534523D01*
X86495238Y-79486904D01*
X86447619Y-79391666D01*
X86447619Y-79153571D01*
X86495238Y-79058333D01*
X86542857Y-79010714D01*
X87447619Y-79867857D02*
X86447619Y-80201190D01*
X87447619Y-80534523D01*
X86447619Y-80867857D02*
X87447619Y-80867857D01*
X87447619Y-81105952D01*
X87400000Y-81248809D01*
X87304761Y-81344047D01*
X87209523Y-81391666D01*
X87019047Y-81439285D01*
X86876190Y-81439285D01*
X86685714Y-81391666D01*
X86590476Y-81344047D01*
X86495238Y-81248809D01*
X86447619Y-81105952D01*
X86447619Y-80867857D01*
X86542857Y-82439285D02*
X86495238Y-82391666D01*
X86447619Y-82248809D01*
X86447619Y-82153571D01*
X86495238Y-82010714D01*
X86590476Y-81915476D01*
X86685714Y-81867857D01*
X86876190Y-81820238D01*
X87019047Y-81820238D01*
X87209523Y-81867857D01*
X87304761Y-81915476D01*
X87400000Y-82010714D01*
X87447619Y-82153571D01*
X87447619Y-82248809D01*
X87400000Y-82391666D01*
X87352380Y-82439285D01*
X82750000Y-71388095D02*
X82797619Y-71292857D01*
X82797619Y-71150000D01*
X82750000Y-71007142D01*
X82654761Y-70911904D01*
X82559523Y-70864285D01*
X82369047Y-70816666D01*
X82226190Y-70816666D01*
X82035714Y-70864285D01*
X81940476Y-70911904D01*
X81845238Y-71007142D01*
X81797619Y-71150000D01*
X81797619Y-71245238D01*
X81845238Y-71388095D01*
X81892857Y-71435714D01*
X82226190Y-71435714D01*
X82226190Y-71245238D01*
X81797619Y-71864285D02*
X82797619Y-71864285D01*
X81797619Y-72435714D01*
X82797619Y-72435714D01*
X81797619Y-72911904D02*
X82797619Y-72911904D01*
X82797619Y-73150000D01*
X82750000Y-73292857D01*
X82654761Y-73388095D01*
X82559523Y-73435714D01*
X82369047Y-73483333D01*
X82226190Y-73483333D01*
X82035714Y-73435714D01*
X81940476Y-73388095D01*
X81845238Y-73292857D01*
X81797619Y-73150000D01*
X81797619Y-72911904D01*
X82822619Y-76259523D02*
X82822619Y-75783333D01*
X82346428Y-75735714D01*
X82394047Y-75783333D01*
X82441666Y-75878571D01*
X82441666Y-76116666D01*
X82394047Y-76211904D01*
X82346428Y-76259523D01*
X82251190Y-76307142D01*
X82013095Y-76307142D01*
X81917857Y-76259523D01*
X81870238Y-76211904D01*
X81822619Y-76116666D01*
X81822619Y-75878571D01*
X81870238Y-75783333D01*
X81917857Y-75735714D01*
X82822619Y-76592857D02*
X81822619Y-76926190D01*
X82822619Y-77259523D01*
X81822619Y-77592857D02*
X82822619Y-77592857D01*
X82822619Y-77830952D01*
X82775000Y-77973809D01*
X82679761Y-78069047D01*
X82584523Y-78116666D01*
X82394047Y-78164285D01*
X82251190Y-78164285D01*
X82060714Y-78116666D01*
X81965476Y-78069047D01*
X81870238Y-77973809D01*
X81822619Y-77830952D01*
X81822619Y-77592857D01*
X81917857Y-79164285D02*
X81870238Y-79116666D01*
X81822619Y-78973809D01*
X81822619Y-78878571D01*
X81870238Y-78735714D01*
X81965476Y-78640476D01*
X82060714Y-78592857D01*
X82251190Y-78545238D01*
X82394047Y-78545238D01*
X82584523Y-78592857D01*
X82679761Y-78640476D01*
X82775000Y-78735714D01*
X82822619Y-78878571D01*
X82822619Y-78973809D01*
X82775000Y-79116666D01*
X82727380Y-79164285D01*
D12*
%TO.C,J7*%
X88020000Y-74120000D02*
X88420000Y-74120000D01*
X88020000Y-73480000D02*
X88020000Y-74120000D01*
X113425000Y-70261000D02*
X113296000Y-70389000D01*
X115640000Y-68045000D02*
X115546000Y-68139000D01*
X113595000Y-70501000D02*
X113501000Y-70594000D01*
X115845000Y-68251000D02*
X115716000Y-68379000D01*
X109925000Y-70261000D02*
X109796000Y-70389000D01*
X112140000Y-68045000D02*
X112046000Y-68139000D01*
X110095000Y-70501000D02*
X110001000Y-70594000D01*
X112345000Y-68251000D02*
X112216000Y-68379000D01*
X106425000Y-70261000D02*
X106296000Y-70389000D01*
X108640000Y-68045000D02*
X108546000Y-68139000D01*
X106595000Y-70501000D02*
X106501000Y-70594000D01*
X108845000Y-68251000D02*
X108716000Y-68379000D01*
X102925000Y-70261000D02*
X102796000Y-70389000D01*
X105140000Y-68045000D02*
X105046000Y-68139000D01*
X103095000Y-70501000D02*
X103001000Y-70594000D01*
X105345000Y-68251000D02*
X105216000Y-68379000D01*
X99425000Y-70261000D02*
X99296000Y-70389000D01*
X101640000Y-68045000D02*
X101546000Y-68139000D01*
X99595000Y-70501000D02*
X99501000Y-70594000D01*
X101845000Y-68251000D02*
X101716000Y-68379000D01*
X95925000Y-70261000D02*
X95796000Y-70389000D01*
X98140000Y-68045000D02*
X98046000Y-68139000D01*
X96095000Y-70501000D02*
X96001000Y-70594000D01*
X98345000Y-68251000D02*
X98216000Y-68379000D01*
X92425000Y-70261000D02*
X92296000Y-70389000D01*
X94640000Y-68045000D02*
X94546000Y-68139000D01*
X92595000Y-70501000D02*
X92501000Y-70594000D01*
X94845000Y-68251000D02*
X94716000Y-68379000D01*
X116380000Y-66160000D02*
X116380000Y-73880000D01*
X88260000Y-66160000D02*
X88260000Y-73880000D01*
X88260000Y-73880000D02*
X116380000Y-73880000D01*
X88260000Y-66160000D02*
X116380000Y-66160000D01*
X88260000Y-72320000D02*
X116380000Y-72320000D01*
X88260000Y-73420000D02*
X116380000Y-73420000D01*
X116250000Y-69320000D02*
G75*
G03*
X116250000Y-69320000I-1680000J0D01*
G01*
X112750000Y-69320000D02*
G75*
G03*
X112750000Y-69320000I-1680000J0D01*
G01*
X109250000Y-69320000D02*
G75*
G03*
X109250000Y-69320000I-1680000J0D01*
G01*
X105750000Y-69320000D02*
G75*
G03*
X105750000Y-69320000I-1680000J0D01*
G01*
X102250000Y-69320000D02*
G75*
G03*
X102250000Y-69320000I-1680000J0D01*
G01*
X98750000Y-69320000D02*
G75*
G03*
X98750000Y-69320000I-1680000J0D01*
G01*
X95250000Y-69320000D02*
G75*
G03*
X95250000Y-69320000I-1680000J0D01*
G01*
X90960264Y-70744721D02*
G75*
G02*
X90070000Y-71000000I-890264J1424721D01*
G01*
X91495505Y-68429807D02*
G75*
G02*
X91495000Y-70211000I-1425505J-890193D01*
G01*
X89180106Y-67894642D02*
G75*
G02*
X90936000Y-67880000I889894J-1425358D01*
G01*
X88644642Y-70209894D02*
G75*
G02*
X88630000Y-68454000I1425358J889894D01*
G01*
X90098674Y-71000099D02*
G75*
G02*
X89204000Y-70760000I-28674J1680099D01*
G01*
%TO.C,J4*%
X117235000Y-85480000D02*
X117635000Y-85480000D01*
X117235000Y-84840000D02*
X117235000Y-85480000D01*
X142640000Y-81621000D02*
X142511000Y-81749000D01*
X144855000Y-79405000D02*
X144761000Y-79499000D01*
X142810000Y-81861000D02*
X142716000Y-81954000D01*
X145060000Y-79611000D02*
X144931000Y-79739000D01*
X139140000Y-81621000D02*
X139011000Y-81749000D01*
X141355000Y-79405000D02*
X141261000Y-79499000D01*
X139310000Y-81861000D02*
X139216000Y-81954000D01*
X141560000Y-79611000D02*
X141431000Y-79739000D01*
X135640000Y-81621000D02*
X135511000Y-81749000D01*
X137855000Y-79405000D02*
X137761000Y-79499000D01*
X135810000Y-81861000D02*
X135716000Y-81954000D01*
X138060000Y-79611000D02*
X137931000Y-79739000D01*
X132140000Y-81621000D02*
X132011000Y-81749000D01*
X134355000Y-79405000D02*
X134261000Y-79499000D01*
X132310000Y-81861000D02*
X132216000Y-81954000D01*
X134560000Y-79611000D02*
X134431000Y-79739000D01*
X128640000Y-81621000D02*
X128511000Y-81749000D01*
X130855000Y-79405000D02*
X130761000Y-79499000D01*
X128810000Y-81861000D02*
X128716000Y-81954000D01*
X131060000Y-79611000D02*
X130931000Y-79739000D01*
X125140000Y-81621000D02*
X125011000Y-81749000D01*
X127355000Y-79405000D02*
X127261000Y-79499000D01*
X125310000Y-81861000D02*
X125216000Y-81954000D01*
X127560000Y-79611000D02*
X127431000Y-79739000D01*
X121640000Y-81621000D02*
X121511000Y-81749000D01*
X123855000Y-79405000D02*
X123761000Y-79499000D01*
X121810000Y-81861000D02*
X121716000Y-81954000D01*
X124060000Y-79611000D02*
X123931000Y-79739000D01*
X145595000Y-77520000D02*
X145595000Y-85240000D01*
X117475000Y-77520000D02*
X117475000Y-85240000D01*
X117475000Y-85240000D02*
X145595000Y-85240000D01*
X117475000Y-77520000D02*
X145595000Y-77520000D01*
X117475000Y-83680000D02*
X145595000Y-83680000D01*
X117475000Y-84780000D02*
X145595000Y-84780000D01*
X145465000Y-80680000D02*
G75*
G03*
X145465000Y-80680000I-1680000J0D01*
G01*
X141965000Y-80680000D02*
G75*
G03*
X141965000Y-80680000I-1680000J0D01*
G01*
X138465000Y-80680000D02*
G75*
G03*
X138465000Y-80680000I-1680000J0D01*
G01*
X134965000Y-80680000D02*
G75*
G03*
X134965000Y-80680000I-1680000J0D01*
G01*
X131465000Y-80680000D02*
G75*
G03*
X131465000Y-80680000I-1680000J0D01*
G01*
X127965000Y-80680000D02*
G75*
G03*
X127965000Y-80680000I-1680000J0D01*
G01*
X124465000Y-80680000D02*
G75*
G03*
X124465000Y-80680000I-1680000J0D01*
G01*
X120175264Y-82104721D02*
G75*
G02*
X119285000Y-82360000I-890264J1424721D01*
G01*
X120710505Y-79789807D02*
G75*
G02*
X120710000Y-81571000I-1425505J-890193D01*
G01*
X118395106Y-79254642D02*
G75*
G02*
X120151000Y-79240000I889894J-1425358D01*
G01*
X117859642Y-81569894D02*
G75*
G02*
X117845000Y-79814000I1425358J889894D01*
G01*
X119313674Y-82360099D02*
G75*
G02*
X118419000Y-82120000I-28674J1680099D01*
G01*
%TO.C,J5*%
X88025000Y-85470000D02*
X88425000Y-85470000D01*
X88025000Y-84830000D02*
X88025000Y-85470000D01*
X113430000Y-81611000D02*
X113301000Y-81739000D01*
X115645000Y-79395000D02*
X115551000Y-79489000D01*
X113600000Y-81851000D02*
X113506000Y-81944000D01*
X115850000Y-79601000D02*
X115721000Y-79729000D01*
X109930000Y-81611000D02*
X109801000Y-81739000D01*
X112145000Y-79395000D02*
X112051000Y-79489000D01*
X110100000Y-81851000D02*
X110006000Y-81944000D01*
X112350000Y-79601000D02*
X112221000Y-79729000D01*
X106430000Y-81611000D02*
X106301000Y-81739000D01*
X108645000Y-79395000D02*
X108551000Y-79489000D01*
X106600000Y-81851000D02*
X106506000Y-81944000D01*
X108850000Y-79601000D02*
X108721000Y-79729000D01*
X102930000Y-81611000D02*
X102801000Y-81739000D01*
X105145000Y-79395000D02*
X105051000Y-79489000D01*
X103100000Y-81851000D02*
X103006000Y-81944000D01*
X105350000Y-79601000D02*
X105221000Y-79729000D01*
X99430000Y-81611000D02*
X99301000Y-81739000D01*
X101645000Y-79395000D02*
X101551000Y-79489000D01*
X99600000Y-81851000D02*
X99506000Y-81944000D01*
X101850000Y-79601000D02*
X101721000Y-79729000D01*
X95930000Y-81611000D02*
X95801000Y-81739000D01*
X98145000Y-79395000D02*
X98051000Y-79489000D01*
X96100000Y-81851000D02*
X96006000Y-81944000D01*
X98350000Y-79601000D02*
X98221000Y-79729000D01*
X92430000Y-81611000D02*
X92301000Y-81739000D01*
X94645000Y-79395000D02*
X94551000Y-79489000D01*
X92600000Y-81851000D02*
X92506000Y-81944000D01*
X94850000Y-79601000D02*
X94721000Y-79729000D01*
X116385000Y-77510000D02*
X116385000Y-85230000D01*
X88265000Y-77510000D02*
X88265000Y-85230000D01*
X88265000Y-85230000D02*
X116385000Y-85230000D01*
X88265000Y-77510000D02*
X116385000Y-77510000D01*
X88265000Y-83670000D02*
X116385000Y-83670000D01*
X88265000Y-84770000D02*
X116385000Y-84770000D01*
X116255000Y-80670000D02*
G75*
G03*
X116255000Y-80670000I-1680000J0D01*
G01*
X112755000Y-80670000D02*
G75*
G03*
X112755000Y-80670000I-1680000J0D01*
G01*
X109255000Y-80670000D02*
G75*
G03*
X109255000Y-80670000I-1680000J0D01*
G01*
X105755000Y-80670000D02*
G75*
G03*
X105755000Y-80670000I-1680000J0D01*
G01*
X102255000Y-80670000D02*
G75*
G03*
X102255000Y-80670000I-1680000J0D01*
G01*
X98755000Y-80670000D02*
G75*
G03*
X98755000Y-80670000I-1680000J0D01*
G01*
X95255000Y-80670000D02*
G75*
G03*
X95255000Y-80670000I-1680000J0D01*
G01*
X90965264Y-82094721D02*
G75*
G02*
X90075000Y-82350000I-890264J1424721D01*
G01*
X91500505Y-79779807D02*
G75*
G02*
X91500000Y-81561000I-1425505J-890193D01*
G01*
X89185106Y-79244642D02*
G75*
G02*
X90941000Y-79230000I889894J-1425358D01*
G01*
X88649642Y-81559894D02*
G75*
G02*
X88635000Y-79804000I1425358J889894D01*
G01*
X90103674Y-82350099D02*
G75*
G02*
X89209000Y-82110000I-28674J1680099D01*
G01*
%TO.C,J6*%
X117250000Y-74120000D02*
X117650000Y-74120000D01*
X117250000Y-73480000D02*
X117250000Y-74120000D01*
X142655000Y-70261000D02*
X142526000Y-70389000D01*
X144870000Y-68045000D02*
X144776000Y-68139000D01*
X142825000Y-70501000D02*
X142731000Y-70594000D01*
X145075000Y-68251000D02*
X144946000Y-68379000D01*
X139155000Y-70261000D02*
X139026000Y-70389000D01*
X141370000Y-68045000D02*
X141276000Y-68139000D01*
X139325000Y-70501000D02*
X139231000Y-70594000D01*
X141575000Y-68251000D02*
X141446000Y-68379000D01*
X135655000Y-70261000D02*
X135526000Y-70389000D01*
X137870000Y-68045000D02*
X137776000Y-68139000D01*
X135825000Y-70501000D02*
X135731000Y-70594000D01*
X138075000Y-68251000D02*
X137946000Y-68379000D01*
X132155000Y-70261000D02*
X132026000Y-70389000D01*
X134370000Y-68045000D02*
X134276000Y-68139000D01*
X132325000Y-70501000D02*
X132231000Y-70594000D01*
X134575000Y-68251000D02*
X134446000Y-68379000D01*
X128655000Y-70261000D02*
X128526000Y-70389000D01*
X130870000Y-68045000D02*
X130776000Y-68139000D01*
X128825000Y-70501000D02*
X128731000Y-70594000D01*
X131075000Y-68251000D02*
X130946000Y-68379000D01*
X125155000Y-70261000D02*
X125026000Y-70389000D01*
X127370000Y-68045000D02*
X127276000Y-68139000D01*
X125325000Y-70501000D02*
X125231000Y-70594000D01*
X127575000Y-68251000D02*
X127446000Y-68379000D01*
X121655000Y-70261000D02*
X121526000Y-70389000D01*
X123870000Y-68045000D02*
X123776000Y-68139000D01*
X121825000Y-70501000D02*
X121731000Y-70594000D01*
X124075000Y-68251000D02*
X123946000Y-68379000D01*
X145610000Y-66160000D02*
X145610000Y-73880000D01*
X117490000Y-66160000D02*
X117490000Y-73880000D01*
X117490000Y-73880000D02*
X145610000Y-73880000D01*
X117490000Y-66160000D02*
X145610000Y-66160000D01*
X117490000Y-72320000D02*
X145610000Y-72320000D01*
X117490000Y-73420000D02*
X145610000Y-73420000D01*
X145480000Y-69320000D02*
G75*
G03*
X145480000Y-69320000I-1680000J0D01*
G01*
X141980000Y-69320000D02*
G75*
G03*
X141980000Y-69320000I-1680000J0D01*
G01*
X138480000Y-69320000D02*
G75*
G03*
X138480000Y-69320000I-1680000J0D01*
G01*
X134980000Y-69320000D02*
G75*
G03*
X134980000Y-69320000I-1680000J0D01*
G01*
X131480000Y-69320000D02*
G75*
G03*
X131480000Y-69320000I-1680000J0D01*
G01*
X127980000Y-69320000D02*
G75*
G03*
X127980000Y-69320000I-1680000J0D01*
G01*
X124480000Y-69320000D02*
G75*
G03*
X124480000Y-69320000I-1680000J0D01*
G01*
X120190264Y-70744721D02*
G75*
G02*
X119300000Y-71000000I-890264J1424721D01*
G01*
X120725505Y-68429807D02*
G75*
G02*
X120725000Y-70211000I-1425505J-890193D01*
G01*
X118410106Y-67894642D02*
G75*
G02*
X120166000Y-67880000I889894J-1425358D01*
G01*
X117874642Y-70209894D02*
G75*
G02*
X117860000Y-68454000I1425358J889894D01*
G01*
X119328674Y-71000099D02*
G75*
G02*
X118434000Y-70760000I-28674J1680099D01*
G01*
%TO.C,BT1*%
X86846000Y-101390000D02*
X84546000Y-101390000D01*
X86846000Y-87890000D02*
X84546000Y-87890000D01*
X90446000Y-87890000D02*
X92096000Y-87890000D01*
X92096000Y-87890000D02*
X94696000Y-90490000D01*
X94696000Y-90490000D02*
X95496000Y-90490000D01*
X95496000Y-90490000D02*
X95496000Y-98790000D01*
X95496000Y-98790000D02*
X94696000Y-98790000D01*
X94696000Y-98790000D02*
X92096000Y-101390000D01*
X92096000Y-101390000D02*
X90446000Y-101390000D01*
X83061840Y-100054615D02*
G75*
G02*
X83446000Y-99140000I984160J124615D01*
G01*
X83061840Y-89225385D02*
G75*
G03*
X83446000Y-90140000I984160J-124615D01*
G01*
X84596000Y-101390000D02*
G75*
G02*
X83046000Y-99940000I-50000J1500000D01*
G01*
X84596000Y-87890000D02*
G75*
G03*
X83046000Y-89340000I-50000J-1500000D01*
G01*
%TO.C,J1*%
X125750000Y-112550000D02*
X125750000Y-104440000D01*
X125750000Y-112550000D02*
X125100000Y-112550000D01*
X125750000Y-97590000D02*
X139070000Y-97590000D01*
X125750000Y-97590000D02*
X125750000Y-100920000D01*
X139070000Y-97590000D02*
X139070000Y-100920000D01*
X139720000Y-113070000D02*
X139720000Y-112550000D01*
X125100000Y-113070000D02*
X139720000Y-113070000D01*
X139070000Y-104440000D02*
X139070000Y-112550000D01*
X125100000Y-112550000D02*
X125100000Y-113070000D01*
X139720000Y-112550000D02*
X139070000Y-112550000D01*
X128010000Y-97370000D02*
X129810000Y-97370000D01*
%TO.C,J2*%
X88290000Y-63330000D02*
X88290000Y-62000000D01*
X89620000Y-63330000D02*
X88290000Y-63330000D01*
X88290000Y-60730000D02*
X88290000Y-58130000D01*
X90890000Y-60730000D02*
X88290000Y-60730000D01*
X90890000Y-63330000D02*
X90890000Y-60730000D01*
X88290000Y-58130000D02*
X139210000Y-58130000D01*
X90890000Y-63330000D02*
X139210000Y-63330000D01*
X139210000Y-63330000D02*
X139210000Y-58130000D01*
%TO.C,J3*%
X86355000Y-71970000D02*
X83695000Y-71970000D01*
X86355000Y-74570000D02*
X86355000Y-71970000D01*
X83695000Y-74570000D02*
X83695000Y-71970000D01*
X86355000Y-74570000D02*
X83695000Y-74570000D01*
X86355000Y-75840000D02*
X86355000Y-77170000D01*
X86355000Y-77170000D02*
X85025000Y-77170000D01*
D13*
%TO.C,K1*%
X94300000Y-100130000D02*
X123300000Y-100130000D01*
X123300000Y-100130000D02*
X123300000Y-112830000D01*
X123300000Y-112830000D02*
X94300000Y-112830000D01*
X94300000Y-112830000D02*
X94300000Y-100130000D01*
D12*
%TO.C,Q1*%
X85385000Y-62430000D02*
X83925000Y-62430000D01*
X85385000Y-59270000D02*
X83225000Y-59270000D01*
X85385000Y-59270000D02*
X85385000Y-60200000D01*
X85385000Y-62430000D02*
X85385000Y-61500000D01*
%TO.C,Q2*%
X143910000Y-62180000D02*
X143910000Y-61250000D01*
X143910000Y-59020000D02*
X143910000Y-59950000D01*
X143910000Y-59020000D02*
X141750000Y-59020000D01*
X143910000Y-62180000D02*
X142450000Y-62180000D01*
%TO.C,Q3*%
X91014000Y-112158000D02*
X92424000Y-112158000D01*
X92424000Y-109838000D02*
X90394000Y-109838000D01*
X92424000Y-109838000D02*
X92424000Y-110498000D01*
X92424000Y-111498000D02*
X92424000Y-112158000D01*
%TO.C,Q4*%
X92424000Y-107942000D02*
X92424000Y-108602000D01*
X92424000Y-106282000D02*
X92424000Y-106942000D01*
X92424000Y-106282000D02*
X90394000Y-106282000D01*
X91014000Y-108602000D02*
X92424000Y-108602000D01*
%TO.C,U1*%
X127685000Y-92250000D02*
X127685000Y-90300000D01*
X127685000Y-92250000D02*
X127685000Y-94200000D01*
X118815000Y-92250000D02*
X118815000Y-90300000D01*
X118815000Y-92250000D02*
X118815000Y-95700000D01*
D14*
%TO.C,U2*%
X111799800Y-99218800D02*
X115000200Y-99218800D01*
X115000200Y-90481200D02*
X113704800Y-90481200D01*
X113704800Y-90481200D02*
X113095200Y-90481200D01*
X113095200Y-90481200D02*
X111799800Y-90481200D01*
X113704800Y-90481200D02*
G75*
G02*
X113095200Y-90481200I-304800J0D01*
G01*
D12*
%TO.C,U3*%
X102225000Y-88590000D02*
X98365000Y-88590000D01*
X98365000Y-88590000D02*
X98365000Y-88845000D01*
X102225000Y-88590000D02*
X106085000Y-88590000D01*
X106085000Y-88590000D02*
X106085000Y-88845000D01*
X102225000Y-99110000D02*
X98365000Y-99110000D01*
X98365000Y-99110000D02*
X98365000Y-98855000D01*
X102225000Y-99110000D02*
X106085000Y-99110000D01*
X106085000Y-99110000D02*
X106085000Y-98855000D01*
X106085000Y-98855000D02*
X107900000Y-98855000D01*
%TO.C,U4*%
X145635000Y-95975000D02*
X145635000Y-93775000D01*
X145635000Y-95975000D02*
X145635000Y-98175000D01*
X140165000Y-95975000D02*
X140165000Y-93775000D01*
X140165000Y-95975000D02*
X140165000Y-99575000D01*
%TO.C,U5*%
X133000000Y-90040000D02*
X130800000Y-90040000D01*
X133000000Y-90040000D02*
X135200000Y-90040000D01*
X133000000Y-95260000D02*
X130800000Y-95260000D01*
X133000000Y-95260000D02*
X136600000Y-95260000D01*
%TO.C,nilesface*%
D11*
%TO.C,J7*%
X101986666Y-64612380D02*
X101986666Y-65326666D01*
X101939047Y-65469523D01*
X101843809Y-65564761D01*
X101700952Y-65612380D01*
X101605714Y-65612380D01*
X102367619Y-64612380D02*
X103034285Y-64612380D01*
X102605714Y-65612380D01*
%TO.C,C1*%
D10*
X133166666Y-86078571D02*
X133142857Y-86102380D01*
X133071428Y-86126190D01*
X133023809Y-86126190D01*
X132952380Y-86102380D01*
X132904761Y-86054761D01*
X132880952Y-86007142D01*
X132857142Y-85911904D01*
X132857142Y-85840476D01*
X132880952Y-85745238D01*
X132904761Y-85697619D01*
X132952380Y-85650000D01*
X133023809Y-85626190D01*
X133071428Y-85626190D01*
X133142857Y-85650000D01*
X133166666Y-85673809D01*
X133642857Y-86126190D02*
X133357142Y-86126190D01*
X133500000Y-86126190D02*
X133500000Y-85626190D01*
X133452380Y-85697619D01*
X133404761Y-85745238D01*
X133357142Y-85769047D01*
%TO.C,C2*%
X115391666Y-88803571D02*
X115367857Y-88827380D01*
X115296428Y-88851190D01*
X115248809Y-88851190D01*
X115177380Y-88827380D01*
X115129761Y-88779761D01*
X115105952Y-88732142D01*
X115082142Y-88636904D01*
X115082142Y-88565476D01*
X115105952Y-88470238D01*
X115129761Y-88422619D01*
X115177380Y-88375000D01*
X115248809Y-88351190D01*
X115296428Y-88351190D01*
X115367857Y-88375000D01*
X115391666Y-88398809D01*
X115582142Y-88398809D02*
X115605952Y-88375000D01*
X115653571Y-88351190D01*
X115772619Y-88351190D01*
X115820238Y-88375000D01*
X115844047Y-88398809D01*
X115867857Y-88446428D01*
X115867857Y-88494047D01*
X115844047Y-88565476D01*
X115558333Y-88851190D01*
X115867857Y-88851190D01*
%TO.C,C3*%
X140191666Y-86078571D02*
X140167857Y-86102380D01*
X140096428Y-86126190D01*
X140048809Y-86126190D01*
X139977380Y-86102380D01*
X139929761Y-86054761D01*
X139905952Y-86007142D01*
X139882142Y-85911904D01*
X139882142Y-85840476D01*
X139905952Y-85745238D01*
X139929761Y-85697619D01*
X139977380Y-85650000D01*
X140048809Y-85626190D01*
X140096428Y-85626190D01*
X140167857Y-85650000D01*
X140191666Y-85673809D01*
X140358333Y-85626190D02*
X140667857Y-85626190D01*
X140501190Y-85816666D01*
X140572619Y-85816666D01*
X140620238Y-85840476D01*
X140644047Y-85864285D01*
X140667857Y-85911904D01*
X140667857Y-86030952D01*
X140644047Y-86078571D01*
X140620238Y-86102380D01*
X140572619Y-86126190D01*
X140429761Y-86126190D01*
X140382142Y-86102380D01*
X140358333Y-86078571D01*
%TO.C,C4*%
X143691666Y-77318571D02*
X143667857Y-77342380D01*
X143596428Y-77366190D01*
X143548809Y-77366190D01*
X143477380Y-77342380D01*
X143429761Y-77294761D01*
X143405952Y-77247142D01*
X143382142Y-77151904D01*
X143382142Y-77080476D01*
X143405952Y-76985238D01*
X143429761Y-76937619D01*
X143477380Y-76890000D01*
X143548809Y-76866190D01*
X143596428Y-76866190D01*
X143667857Y-76890000D01*
X143691666Y-76913809D01*
X144120238Y-77032857D02*
X144120238Y-77366190D01*
X144001190Y-76842380D02*
X143882142Y-77199523D01*
X144191666Y-77199523D01*
%TO.C,C5*%
X136691666Y-77303571D02*
X136667857Y-77327380D01*
X136596428Y-77351190D01*
X136548809Y-77351190D01*
X136477380Y-77327380D01*
X136429761Y-77279761D01*
X136405952Y-77232142D01*
X136382142Y-77136904D01*
X136382142Y-77065476D01*
X136405952Y-76970238D01*
X136429761Y-76922619D01*
X136477380Y-76875000D01*
X136548809Y-76851190D01*
X136596428Y-76851190D01*
X136667857Y-76875000D01*
X136691666Y-76898809D01*
X137144047Y-76851190D02*
X136905952Y-76851190D01*
X136882142Y-77089285D01*
X136905952Y-77065476D01*
X136953571Y-77041666D01*
X137072619Y-77041666D01*
X137120238Y-77065476D01*
X137144047Y-77089285D01*
X137167857Y-77136904D01*
X137167857Y-77255952D01*
X137144047Y-77303571D01*
X137120238Y-77327380D01*
X137072619Y-77351190D01*
X136953571Y-77351190D01*
X136905952Y-77327380D01*
X136882142Y-77303571D01*
%TO.C,C6*%
X104906666Y-86353571D02*
X104882857Y-86377380D01*
X104811428Y-86401190D01*
X104763809Y-86401190D01*
X104692380Y-86377380D01*
X104644761Y-86329761D01*
X104620952Y-86282142D01*
X104597142Y-86186904D01*
X104597142Y-86115476D01*
X104620952Y-86020238D01*
X104644761Y-85972619D01*
X104692380Y-85925000D01*
X104763809Y-85901190D01*
X104811428Y-85901190D01*
X104882857Y-85925000D01*
X104906666Y-85948809D01*
X105335238Y-85901190D02*
X105240000Y-85901190D01*
X105192380Y-85925000D01*
X105168571Y-85948809D01*
X105120952Y-86020238D01*
X105097142Y-86115476D01*
X105097142Y-86305952D01*
X105120952Y-86353571D01*
X105144761Y-86377380D01*
X105192380Y-86401190D01*
X105287619Y-86401190D01*
X105335238Y-86377380D01*
X105359047Y-86353571D01*
X105382857Y-86305952D01*
X105382857Y-86186904D01*
X105359047Y-86139285D01*
X105335238Y-86115476D01*
X105287619Y-86091666D01*
X105192380Y-86091666D01*
X105144761Y-86115476D01*
X105120952Y-86139285D01*
X105097142Y-86186904D01*
%TO.C,C7*%
X129716666Y-77328571D02*
X129692857Y-77352380D01*
X129621428Y-77376190D01*
X129573809Y-77376190D01*
X129502380Y-77352380D01*
X129454761Y-77304761D01*
X129430952Y-77257142D01*
X129407142Y-77161904D01*
X129407142Y-77090476D01*
X129430952Y-76995238D01*
X129454761Y-76947619D01*
X129502380Y-76900000D01*
X129573809Y-76876190D01*
X129621428Y-76876190D01*
X129692857Y-76900000D01*
X129716666Y-76923809D01*
X129883333Y-76876190D02*
X130216666Y-76876190D01*
X130002380Y-77376190D01*
%TO.C,C8*%
X122741666Y-77303571D02*
X122717857Y-77327380D01*
X122646428Y-77351190D01*
X122598809Y-77351190D01*
X122527380Y-77327380D01*
X122479761Y-77279761D01*
X122455952Y-77232142D01*
X122432142Y-77136904D01*
X122432142Y-77065476D01*
X122455952Y-76970238D01*
X122479761Y-76922619D01*
X122527380Y-76875000D01*
X122598809Y-76851190D01*
X122646428Y-76851190D01*
X122717857Y-76875000D01*
X122741666Y-76898809D01*
X123027380Y-77065476D02*
X122979761Y-77041666D01*
X122955952Y-77017857D01*
X122932142Y-76970238D01*
X122932142Y-76946428D01*
X122955952Y-76898809D01*
X122979761Y-76875000D01*
X123027380Y-76851190D01*
X123122619Y-76851190D01*
X123170238Y-76875000D01*
X123194047Y-76898809D01*
X123217857Y-76946428D01*
X123217857Y-76970238D01*
X123194047Y-77017857D01*
X123170238Y-77041666D01*
X123122619Y-77065476D01*
X123027380Y-77065476D01*
X122979761Y-77089285D01*
X122955952Y-77113095D01*
X122932142Y-77160714D01*
X122932142Y-77255952D01*
X122955952Y-77303571D01*
X122979761Y-77327380D01*
X123027380Y-77351190D01*
X123122619Y-77351190D01*
X123170238Y-77327380D01*
X123194047Y-77303571D01*
X123217857Y-77255952D01*
X123217857Y-77160714D01*
X123194047Y-77113095D01*
X123170238Y-77089285D01*
X123122619Y-77065476D01*
%TO.C,C9*%
X139903571Y-91023333D02*
X139927380Y-91047142D01*
X139951190Y-91118571D01*
X139951190Y-91166190D01*
X139927380Y-91237619D01*
X139879761Y-91285238D01*
X139832142Y-91309047D01*
X139736904Y-91332857D01*
X139665476Y-91332857D01*
X139570238Y-91309047D01*
X139522619Y-91285238D01*
X139475000Y-91237619D01*
X139451190Y-91166190D01*
X139451190Y-91118571D01*
X139475000Y-91047142D01*
X139498809Y-91023333D01*
X139951190Y-90785238D02*
X139951190Y-90690000D01*
X139927380Y-90642380D01*
X139903571Y-90618571D01*
X139832142Y-90570952D01*
X139736904Y-90547142D01*
X139546428Y-90547142D01*
X139498809Y-90570952D01*
X139475000Y-90594761D01*
X139451190Y-90642380D01*
X139451190Y-90737619D01*
X139475000Y-90785238D01*
X139498809Y-90809047D01*
X139546428Y-90832857D01*
X139665476Y-90832857D01*
X139713095Y-90809047D01*
X139736904Y-90785238D01*
X139760714Y-90737619D01*
X139760714Y-90642380D01*
X139736904Y-90594761D01*
X139713095Y-90570952D01*
X139665476Y-90547142D01*
%TO.C,C10*%
X131653571Y-96546428D02*
X131677380Y-96570238D01*
X131701190Y-96641666D01*
X131701190Y-96689285D01*
X131677380Y-96760714D01*
X131629761Y-96808333D01*
X131582142Y-96832142D01*
X131486904Y-96855952D01*
X131415476Y-96855952D01*
X131320238Y-96832142D01*
X131272619Y-96808333D01*
X131225000Y-96760714D01*
X131201190Y-96689285D01*
X131201190Y-96641666D01*
X131225000Y-96570238D01*
X131248809Y-96546428D01*
X131701190Y-96070238D02*
X131701190Y-96355952D01*
X131701190Y-96213095D02*
X131201190Y-96213095D01*
X131272619Y-96260714D01*
X131320238Y-96308333D01*
X131344047Y-96355952D01*
X131201190Y-95760714D02*
X131201190Y-95713095D01*
X131225000Y-95665476D01*
X131248809Y-95641666D01*
X131296428Y-95617857D01*
X131391666Y-95594047D01*
X131510714Y-95594047D01*
X131605952Y-95617857D01*
X131653571Y-95641666D01*
X131677380Y-95665476D01*
X131701190Y-95713095D01*
X131701190Y-95760714D01*
X131677380Y-95808333D01*
X131653571Y-95832142D01*
X131605952Y-95855952D01*
X131510714Y-95879761D01*
X131391666Y-95879761D01*
X131296428Y-95855952D01*
X131248809Y-95832142D01*
X131225000Y-95808333D01*
X131201190Y-95760714D01*
%TO.C,C11*%
X118603571Y-88146428D02*
X118627380Y-88170238D01*
X118651190Y-88241666D01*
X118651190Y-88289285D01*
X118627380Y-88360714D01*
X118579761Y-88408333D01*
X118532142Y-88432142D01*
X118436904Y-88455952D01*
X118365476Y-88455952D01*
X118270238Y-88432142D01*
X118222619Y-88408333D01*
X118175000Y-88360714D01*
X118151190Y-88289285D01*
X118151190Y-88241666D01*
X118175000Y-88170238D01*
X118198809Y-88146428D01*
X118651190Y-87670238D02*
X118651190Y-87955952D01*
X118651190Y-87813095D02*
X118151190Y-87813095D01*
X118222619Y-87860714D01*
X118270238Y-87908333D01*
X118294047Y-87955952D01*
X118651190Y-87194047D02*
X118651190Y-87479761D01*
X118651190Y-87336904D02*
X118151190Y-87336904D01*
X118222619Y-87384523D01*
X118270238Y-87432142D01*
X118294047Y-87479761D01*
%TO.C,R1*%
X136741666Y-86116190D02*
X136575000Y-85878095D01*
X136455952Y-86116190D02*
X136455952Y-85616190D01*
X136646428Y-85616190D01*
X136694047Y-85640000D01*
X136717857Y-85663809D01*
X136741666Y-85711428D01*
X136741666Y-85782857D01*
X136717857Y-85830476D01*
X136694047Y-85854285D01*
X136646428Y-85878095D01*
X136455952Y-85878095D01*
X137217857Y-86116190D02*
X136932142Y-86116190D01*
X137075000Y-86116190D02*
X137075000Y-85616190D01*
X137027380Y-85687619D01*
X136979761Y-85735238D01*
X136932142Y-85759047D01*
%TO.C,R2*%
X134991666Y-86101190D02*
X134825000Y-85863095D01*
X134705952Y-86101190D02*
X134705952Y-85601190D01*
X134896428Y-85601190D01*
X134944047Y-85625000D01*
X134967857Y-85648809D01*
X134991666Y-85696428D01*
X134991666Y-85767857D01*
X134967857Y-85815476D01*
X134944047Y-85839285D01*
X134896428Y-85863095D01*
X134705952Y-85863095D01*
X135182142Y-85648809D02*
X135205952Y-85625000D01*
X135253571Y-85601190D01*
X135372619Y-85601190D01*
X135420238Y-85625000D01*
X135444047Y-85648809D01*
X135467857Y-85696428D01*
X135467857Y-85744047D01*
X135444047Y-85815476D01*
X135158333Y-86101190D01*
X135467857Y-86101190D01*
%TO.C,R3*%
X143741666Y-86126190D02*
X143575000Y-85888095D01*
X143455952Y-86126190D02*
X143455952Y-85626190D01*
X143646428Y-85626190D01*
X143694047Y-85650000D01*
X143717857Y-85673809D01*
X143741666Y-85721428D01*
X143741666Y-85792857D01*
X143717857Y-85840476D01*
X143694047Y-85864285D01*
X143646428Y-85888095D01*
X143455952Y-85888095D01*
X143908333Y-85626190D02*
X144217857Y-85626190D01*
X144051190Y-85816666D01*
X144122619Y-85816666D01*
X144170238Y-85840476D01*
X144194047Y-85864285D01*
X144217857Y-85911904D01*
X144217857Y-86030952D01*
X144194047Y-86078571D01*
X144170238Y-86102380D01*
X144122619Y-86126190D01*
X143979761Y-86126190D01*
X143932142Y-86102380D01*
X143908333Y-86078571D01*
%TO.C,R4*%
X142041666Y-86111190D02*
X141875000Y-85873095D01*
X141755952Y-86111190D02*
X141755952Y-85611190D01*
X141946428Y-85611190D01*
X141994047Y-85635000D01*
X142017857Y-85658809D01*
X142041666Y-85706428D01*
X142041666Y-85777857D01*
X142017857Y-85825476D01*
X141994047Y-85849285D01*
X141946428Y-85873095D01*
X141755952Y-85873095D01*
X142470238Y-85777857D02*
X142470238Y-86111190D01*
X142351190Y-85587380D02*
X142232142Y-85944523D01*
X142541666Y-85944523D01*
%TO.C,R5*%
X140216666Y-77351190D02*
X140050000Y-77113095D01*
X139930952Y-77351190D02*
X139930952Y-76851190D01*
X140121428Y-76851190D01*
X140169047Y-76875000D01*
X140192857Y-76898809D01*
X140216666Y-76946428D01*
X140216666Y-77017857D01*
X140192857Y-77065476D01*
X140169047Y-77089285D01*
X140121428Y-77113095D01*
X139930952Y-77113095D01*
X140669047Y-76851190D02*
X140430952Y-76851190D01*
X140407142Y-77089285D01*
X140430952Y-77065476D01*
X140478571Y-77041666D01*
X140597619Y-77041666D01*
X140645238Y-77065476D01*
X140669047Y-77089285D01*
X140692857Y-77136904D01*
X140692857Y-77255952D01*
X140669047Y-77303571D01*
X140645238Y-77327380D01*
X140597619Y-77351190D01*
X140478571Y-77351190D01*
X140430952Y-77327380D01*
X140407142Y-77303571D01*
%TO.C,R6*%
X141991666Y-77351190D02*
X141825000Y-77113095D01*
X141705952Y-77351190D02*
X141705952Y-76851190D01*
X141896428Y-76851190D01*
X141944047Y-76875000D01*
X141967857Y-76898809D01*
X141991666Y-76946428D01*
X141991666Y-77017857D01*
X141967857Y-77065476D01*
X141944047Y-77089285D01*
X141896428Y-77113095D01*
X141705952Y-77113095D01*
X142420238Y-76851190D02*
X142325000Y-76851190D01*
X142277380Y-76875000D01*
X142253571Y-76898809D01*
X142205952Y-76970238D01*
X142182142Y-77065476D01*
X142182142Y-77255952D01*
X142205952Y-77303571D01*
X142229761Y-77327380D01*
X142277380Y-77351190D01*
X142372619Y-77351190D01*
X142420238Y-77327380D01*
X142444047Y-77303571D01*
X142467857Y-77255952D01*
X142467857Y-77136904D01*
X142444047Y-77089285D01*
X142420238Y-77065476D01*
X142372619Y-77041666D01*
X142277380Y-77041666D01*
X142229761Y-77065476D01*
X142205952Y-77089285D01*
X142182142Y-77136904D01*
%TO.C,R7*%
X82751190Y-58333333D02*
X82513095Y-58500000D01*
X82751190Y-58619047D02*
X82251190Y-58619047D01*
X82251190Y-58428571D01*
X82275000Y-58380952D01*
X82298809Y-58357142D01*
X82346428Y-58333333D01*
X82417857Y-58333333D01*
X82465476Y-58357142D01*
X82489285Y-58380952D01*
X82513095Y-58428571D01*
X82513095Y-58619047D01*
X82251190Y-58166666D02*
X82251190Y-57833333D01*
X82751190Y-58047619D01*
%TO.C,R8*%
X141226190Y-58158333D02*
X140988095Y-58325000D01*
X141226190Y-58444047D02*
X140726190Y-58444047D01*
X140726190Y-58253571D01*
X140750000Y-58205952D01*
X140773809Y-58182142D01*
X140821428Y-58158333D01*
X140892857Y-58158333D01*
X140940476Y-58182142D01*
X140964285Y-58205952D01*
X140988095Y-58253571D01*
X140988095Y-58444047D01*
X140940476Y-57872619D02*
X140916666Y-57920238D01*
X140892857Y-57944047D01*
X140845238Y-57967857D01*
X140821428Y-57967857D01*
X140773809Y-57944047D01*
X140750000Y-57920238D01*
X140726190Y-57872619D01*
X140726190Y-57777380D01*
X140750000Y-57729761D01*
X140773809Y-57705952D01*
X140821428Y-57682142D01*
X140845238Y-57682142D01*
X140892857Y-57705952D01*
X140916666Y-57729761D01*
X140940476Y-57777380D01*
X140940476Y-57872619D01*
X140964285Y-57920238D01*
X140988095Y-57944047D01*
X141035714Y-57967857D01*
X141130952Y-57967857D01*
X141178571Y-57944047D01*
X141202380Y-57920238D01*
X141226190Y-57872619D01*
X141226190Y-57777380D01*
X141202380Y-57729761D01*
X141178571Y-57705952D01*
X141130952Y-57682142D01*
X141035714Y-57682142D01*
X140988095Y-57705952D01*
X140964285Y-57729761D01*
X140940476Y-57777380D01*
%TO.C,R9*%
X82676190Y-63533333D02*
X82438095Y-63700000D01*
X82676190Y-63819047D02*
X82176190Y-63819047D01*
X82176190Y-63628571D01*
X82200000Y-63580952D01*
X82223809Y-63557142D01*
X82271428Y-63533333D01*
X82342857Y-63533333D01*
X82390476Y-63557142D01*
X82414285Y-63580952D01*
X82438095Y-63628571D01*
X82438095Y-63819047D01*
X82676190Y-63295238D02*
X82676190Y-63200000D01*
X82652380Y-63152380D01*
X82628571Y-63128571D01*
X82557142Y-63080952D01*
X82461904Y-63057142D01*
X82271428Y-63057142D01*
X82223809Y-63080952D01*
X82200000Y-63104761D01*
X82176190Y-63152380D01*
X82176190Y-63247619D01*
X82200000Y-63295238D01*
X82223809Y-63319047D01*
X82271428Y-63342857D01*
X82390476Y-63342857D01*
X82438095Y-63319047D01*
X82461904Y-63295238D01*
X82485714Y-63247619D01*
X82485714Y-63152380D01*
X82461904Y-63104761D01*
X82438095Y-63080952D01*
X82390476Y-63057142D01*
%TO.C,R10*%
X141296190Y-63571428D02*
X141058095Y-63738095D01*
X141296190Y-63857142D02*
X140796190Y-63857142D01*
X140796190Y-63666666D01*
X140820000Y-63619047D01*
X140843809Y-63595238D01*
X140891428Y-63571428D01*
X140962857Y-63571428D01*
X141010476Y-63595238D01*
X141034285Y-63619047D01*
X141058095Y-63666666D01*
X141058095Y-63857142D01*
X141296190Y-63095238D02*
X141296190Y-63380952D01*
X141296190Y-63238095D02*
X140796190Y-63238095D01*
X140867619Y-63285714D01*
X140915238Y-63333333D01*
X140939047Y-63380952D01*
X140796190Y-62785714D02*
X140796190Y-62738095D01*
X140820000Y-62690476D01*
X140843809Y-62666666D01*
X140891428Y-62642857D01*
X140986666Y-62619047D01*
X141105714Y-62619047D01*
X141200952Y-62642857D01*
X141248571Y-62666666D01*
X141272380Y-62690476D01*
X141296190Y-62738095D01*
X141296190Y-62785714D01*
X141272380Y-62833333D01*
X141248571Y-62857142D01*
X141200952Y-62880952D01*
X141105714Y-62904761D01*
X140986666Y-62904761D01*
X140891428Y-62880952D01*
X140843809Y-62857142D01*
X140820000Y-62833333D01*
X140796190Y-62785714D01*
%TO.C,R11*%
X132953571Y-77336190D02*
X132786904Y-77098095D01*
X132667857Y-77336190D02*
X132667857Y-76836190D01*
X132858333Y-76836190D01*
X132905952Y-76860000D01*
X132929761Y-76883809D01*
X132953571Y-76931428D01*
X132953571Y-77002857D01*
X132929761Y-77050476D01*
X132905952Y-77074285D01*
X132858333Y-77098095D01*
X132667857Y-77098095D01*
X133429761Y-77336190D02*
X133144047Y-77336190D01*
X133286904Y-77336190D02*
X133286904Y-76836190D01*
X133239285Y-76907619D01*
X133191666Y-76955238D01*
X133144047Y-76979047D01*
X133905952Y-77336190D02*
X133620238Y-77336190D01*
X133763095Y-77336190D02*
X133763095Y-76836190D01*
X133715476Y-76907619D01*
X133667857Y-76955238D01*
X133620238Y-76979047D01*
%TO.C,R12*%
X134753571Y-77341190D02*
X134586904Y-77103095D01*
X134467857Y-77341190D02*
X134467857Y-76841190D01*
X134658333Y-76841190D01*
X134705952Y-76865000D01*
X134729761Y-76888809D01*
X134753571Y-76936428D01*
X134753571Y-77007857D01*
X134729761Y-77055476D01*
X134705952Y-77079285D01*
X134658333Y-77103095D01*
X134467857Y-77103095D01*
X135229761Y-77341190D02*
X134944047Y-77341190D01*
X135086904Y-77341190D02*
X135086904Y-76841190D01*
X135039285Y-76912619D01*
X134991666Y-76960238D01*
X134944047Y-76984047D01*
X135420238Y-76888809D02*
X135444047Y-76865000D01*
X135491666Y-76841190D01*
X135610714Y-76841190D01*
X135658333Y-76865000D01*
X135682142Y-76888809D01*
X135705952Y-76936428D01*
X135705952Y-76984047D01*
X135682142Y-77055476D01*
X135396428Y-77341190D01*
X135705952Y-77341190D01*
%TO.C,R13*%
X125953571Y-77376190D02*
X125786904Y-77138095D01*
X125667857Y-77376190D02*
X125667857Y-76876190D01*
X125858333Y-76876190D01*
X125905952Y-76900000D01*
X125929761Y-76923809D01*
X125953571Y-76971428D01*
X125953571Y-77042857D01*
X125929761Y-77090476D01*
X125905952Y-77114285D01*
X125858333Y-77138095D01*
X125667857Y-77138095D01*
X126429761Y-77376190D02*
X126144047Y-77376190D01*
X126286904Y-77376190D02*
X126286904Y-76876190D01*
X126239285Y-76947619D01*
X126191666Y-76995238D01*
X126144047Y-77019047D01*
X126596428Y-76876190D02*
X126905952Y-76876190D01*
X126739285Y-77066666D01*
X126810714Y-77066666D01*
X126858333Y-77090476D01*
X126882142Y-77114285D01*
X126905952Y-77161904D01*
X126905952Y-77280952D01*
X126882142Y-77328571D01*
X126858333Y-77352380D01*
X126810714Y-77376190D01*
X126667857Y-77376190D01*
X126620238Y-77352380D01*
X126596428Y-77328571D01*
%TO.C,R14*%
X127753571Y-77351190D02*
X127586904Y-77113095D01*
X127467857Y-77351190D02*
X127467857Y-76851190D01*
X127658333Y-76851190D01*
X127705952Y-76875000D01*
X127729761Y-76898809D01*
X127753571Y-76946428D01*
X127753571Y-77017857D01*
X127729761Y-77065476D01*
X127705952Y-77089285D01*
X127658333Y-77113095D01*
X127467857Y-77113095D01*
X128229761Y-77351190D02*
X127944047Y-77351190D01*
X128086904Y-77351190D02*
X128086904Y-76851190D01*
X128039285Y-76922619D01*
X127991666Y-76970238D01*
X127944047Y-76994047D01*
X128658333Y-77017857D02*
X128658333Y-77351190D01*
X128539285Y-76827380D02*
X128420238Y-77184523D01*
X128729761Y-77184523D01*
%TO.C,R15*%
X118928571Y-77376190D02*
X118761904Y-77138095D01*
X118642857Y-77376190D02*
X118642857Y-76876190D01*
X118833333Y-76876190D01*
X118880952Y-76900000D01*
X118904761Y-76923809D01*
X118928571Y-76971428D01*
X118928571Y-77042857D01*
X118904761Y-77090476D01*
X118880952Y-77114285D01*
X118833333Y-77138095D01*
X118642857Y-77138095D01*
X119404761Y-77376190D02*
X119119047Y-77376190D01*
X119261904Y-77376190D02*
X119261904Y-76876190D01*
X119214285Y-76947619D01*
X119166666Y-76995238D01*
X119119047Y-77019047D01*
X119857142Y-76876190D02*
X119619047Y-76876190D01*
X119595238Y-77114285D01*
X119619047Y-77090476D01*
X119666666Y-77066666D01*
X119785714Y-77066666D01*
X119833333Y-77090476D01*
X119857142Y-77114285D01*
X119880952Y-77161904D01*
X119880952Y-77280952D01*
X119857142Y-77328571D01*
X119833333Y-77352380D01*
X119785714Y-77376190D01*
X119666666Y-77376190D01*
X119619047Y-77352380D01*
X119595238Y-77328571D01*
%TO.C,R16*%
X120753571Y-77376190D02*
X120586904Y-77138095D01*
X120467857Y-77376190D02*
X120467857Y-76876190D01*
X120658333Y-76876190D01*
X120705952Y-76900000D01*
X120729761Y-76923809D01*
X120753571Y-76971428D01*
X120753571Y-77042857D01*
X120729761Y-77090476D01*
X120705952Y-77114285D01*
X120658333Y-77138095D01*
X120467857Y-77138095D01*
X121229761Y-77376190D02*
X120944047Y-77376190D01*
X121086904Y-77376190D02*
X121086904Y-76876190D01*
X121039285Y-76947619D01*
X120991666Y-76995238D01*
X120944047Y-77019047D01*
X121658333Y-76876190D02*
X121563095Y-76876190D01*
X121515476Y-76900000D01*
X121491666Y-76923809D01*
X121444047Y-76995238D01*
X121420238Y-77090476D01*
X121420238Y-77280952D01*
X121444047Y-77328571D01*
X121467857Y-77352380D01*
X121515476Y-77376190D01*
X121610714Y-77376190D01*
X121658333Y-77352380D01*
X121682142Y-77328571D01*
X121705952Y-77280952D01*
X121705952Y-77161904D01*
X121682142Y-77114285D01*
X121658333Y-77090476D01*
X121610714Y-77066666D01*
X121515476Y-77066666D01*
X121467857Y-77090476D01*
X121444047Y-77114285D01*
X121420238Y-77161904D01*
%TO.C,J4*%
D11*
X131141666Y-82452380D02*
X131141666Y-83166666D01*
X131094047Y-83309523D01*
X130998809Y-83404761D01*
X130855952Y-83452380D01*
X130760714Y-83452380D01*
X132046428Y-82785714D02*
X132046428Y-83452380D01*
X131808333Y-82404761D02*
X131570238Y-83119047D01*
X132189285Y-83119047D01*
%TO.C,J5*%
X101991666Y-75962380D02*
X101991666Y-76676666D01*
X101944047Y-76819523D01*
X101848809Y-76914761D01*
X101705952Y-76962380D01*
X101610714Y-76962380D01*
X102944047Y-75962380D02*
X102467857Y-75962380D01*
X102420238Y-76438571D01*
X102467857Y-76390952D01*
X102563095Y-76343333D01*
X102801190Y-76343333D01*
X102896428Y-76390952D01*
X102944047Y-76438571D01*
X102991666Y-76533809D01*
X102991666Y-76771904D01*
X102944047Y-76867142D01*
X102896428Y-76914761D01*
X102801190Y-76962380D01*
X102563095Y-76962380D01*
X102467857Y-76914761D01*
X102420238Y-76867142D01*
%TO.C,J6*%
X144116666Y-64782380D02*
X144116666Y-65496666D01*
X144069047Y-65639523D01*
X143973809Y-65734761D01*
X143830952Y-65782380D01*
X143735714Y-65782380D01*
X145021428Y-64782380D02*
X144830952Y-64782380D01*
X144735714Y-64830000D01*
X144688095Y-64877619D01*
X144592857Y-65020476D01*
X144545238Y-65210952D01*
X144545238Y-65591904D01*
X144592857Y-65687142D01*
X144640476Y-65734761D01*
X144735714Y-65782380D01*
X144926190Y-65782380D01*
X145021428Y-65734761D01*
X145069047Y-65687142D01*
X145116666Y-65591904D01*
X145116666Y-65353809D01*
X145069047Y-65258571D01*
X145021428Y-65210952D01*
X144926190Y-65163333D01*
X144735714Y-65163333D01*
X144640476Y-65210952D01*
X144592857Y-65258571D01*
X144545238Y-65353809D01*
%TO.C,BT1*%
X83470285Y-86378571D02*
X83613142Y-86426190D01*
X83660761Y-86473809D01*
X83708380Y-86569047D01*
X83708380Y-86711904D01*
X83660761Y-86807142D01*
X83613142Y-86854761D01*
X83517904Y-86902380D01*
X83136952Y-86902380D01*
X83136952Y-85902380D01*
X83470285Y-85902380D01*
X83565523Y-85950000D01*
X83613142Y-85997619D01*
X83660761Y-86092857D01*
X83660761Y-86188095D01*
X83613142Y-86283333D01*
X83565523Y-86330952D01*
X83470285Y-86378571D01*
X83136952Y-86378571D01*
X83994095Y-85902380D02*
X84565523Y-85902380D01*
X84279809Y-86902380D02*
X84279809Y-85902380D01*
X85422666Y-86902380D02*
X84851238Y-86902380D01*
X85136952Y-86902380D02*
X85136952Y-85902380D01*
X85041714Y-86045238D01*
X84946476Y-86140476D01*
X84851238Y-86188095D01*
%TO.C,J1*%
X132041666Y-106227380D02*
X132041666Y-106941666D01*
X131994047Y-107084523D01*
X131898809Y-107179761D01*
X131755952Y-107227380D01*
X131660714Y-107227380D01*
X133041666Y-107227380D02*
X132470238Y-107227380D01*
X132755952Y-107227380D02*
X132755952Y-106227380D01*
X132660714Y-106370238D01*
X132565476Y-106465476D01*
X132470238Y-106513095D01*
%TO.C,J2*%
X88972380Y-65013333D02*
X89686666Y-65013333D01*
X89829523Y-65060952D01*
X89924761Y-65156190D01*
X89972380Y-65299047D01*
X89972380Y-65394285D01*
X89067619Y-64584761D02*
X89020000Y-64537142D01*
X88972380Y-64441904D01*
X88972380Y-64203809D01*
X89020000Y-64108571D01*
X89067619Y-64060952D01*
X89162857Y-64013333D01*
X89258095Y-64013333D01*
X89400952Y-64060952D01*
X89972380Y-64632380D01*
X89972380Y-64013333D01*
%TO.C,K1*%
X106101904Y-107102380D02*
X106101904Y-106102380D01*
X106673333Y-107102380D02*
X106244761Y-106530952D01*
X106673333Y-106102380D02*
X106101904Y-106673809D01*
X107625714Y-107102380D02*
X107054285Y-107102380D01*
X107340000Y-107102380D02*
X107340000Y-106102380D01*
X107244761Y-106245238D01*
X107149523Y-106340476D01*
X107054285Y-106388095D01*
%TO.C,Q1*%
X82797619Y-61120238D02*
X82750000Y-61215476D01*
X82654761Y-61310714D01*
X82511904Y-61453571D01*
X82464285Y-61548809D01*
X82464285Y-61644047D01*
X82702380Y-61596428D02*
X82654761Y-61691666D01*
X82559523Y-61786904D01*
X82369047Y-61834523D01*
X82035714Y-61834523D01*
X81845238Y-61786904D01*
X81750000Y-61691666D01*
X81702380Y-61596428D01*
X81702380Y-61405952D01*
X81750000Y-61310714D01*
X81845238Y-61215476D01*
X82035714Y-61167857D01*
X82369047Y-61167857D01*
X82559523Y-61215476D01*
X82654761Y-61310714D01*
X82702380Y-61405952D01*
X82702380Y-61596428D01*
X82702380Y-60215476D02*
X82702380Y-60786904D01*
X82702380Y-60501190D02*
X81702380Y-60501190D01*
X81845238Y-60596428D01*
X81940476Y-60691666D01*
X81988095Y-60786904D01*
%TO.C,Q2*%
X141172619Y-60720238D02*
X141125000Y-60815476D01*
X141029761Y-60910714D01*
X140886904Y-61053571D01*
X140839285Y-61148809D01*
X140839285Y-61244047D01*
X141077380Y-61196428D02*
X141029761Y-61291666D01*
X140934523Y-61386904D01*
X140744047Y-61434523D01*
X140410714Y-61434523D01*
X140220238Y-61386904D01*
X140125000Y-61291666D01*
X140077380Y-61196428D01*
X140077380Y-61005952D01*
X140125000Y-60910714D01*
X140220238Y-60815476D01*
X140410714Y-60767857D01*
X140744047Y-60767857D01*
X140934523Y-60815476D01*
X141029761Y-60910714D01*
X141077380Y-61005952D01*
X141077380Y-61196428D01*
X140172619Y-60386904D02*
X140125000Y-60339285D01*
X140077380Y-60244047D01*
X140077380Y-60005952D01*
X140125000Y-59910714D01*
X140172619Y-59863095D01*
X140267857Y-59815476D01*
X140363095Y-59815476D01*
X140505952Y-59863095D01*
X141077380Y-60434523D01*
X141077380Y-59815476D01*
%TO.C,Q3*%
X88769761Y-112930619D02*
X88674523Y-112883000D01*
X88579285Y-112787761D01*
X88436428Y-112644904D01*
X88341190Y-112597285D01*
X88245952Y-112597285D01*
X88293571Y-112835380D02*
X88198333Y-112787761D01*
X88103095Y-112692523D01*
X88055476Y-112502047D01*
X88055476Y-112168714D01*
X88103095Y-111978238D01*
X88198333Y-111883000D01*
X88293571Y-111835380D01*
X88484047Y-111835380D01*
X88579285Y-111883000D01*
X88674523Y-111978238D01*
X88722142Y-112168714D01*
X88722142Y-112502047D01*
X88674523Y-112692523D01*
X88579285Y-112787761D01*
X88484047Y-112835380D01*
X88293571Y-112835380D01*
X89055476Y-111835380D02*
X89674523Y-111835380D01*
X89341190Y-112216333D01*
X89484047Y-112216333D01*
X89579285Y-112263952D01*
X89626904Y-112311571D01*
X89674523Y-112406809D01*
X89674523Y-112644904D01*
X89626904Y-112740142D01*
X89579285Y-112787761D01*
X89484047Y-112835380D01*
X89198333Y-112835380D01*
X89103095Y-112787761D01*
X89055476Y-112740142D01*
%TO.C,Q4*%
X88769761Y-109252619D02*
X88674523Y-109205000D01*
X88579285Y-109109761D01*
X88436428Y-108966904D01*
X88341190Y-108919285D01*
X88245952Y-108919285D01*
X88293571Y-109157380D02*
X88198333Y-109109761D01*
X88103095Y-109014523D01*
X88055476Y-108824047D01*
X88055476Y-108490714D01*
X88103095Y-108300238D01*
X88198333Y-108205000D01*
X88293571Y-108157380D01*
X88484047Y-108157380D01*
X88579285Y-108205000D01*
X88674523Y-108300238D01*
X88722142Y-108490714D01*
X88722142Y-108824047D01*
X88674523Y-109014523D01*
X88579285Y-109109761D01*
X88484047Y-109157380D01*
X88293571Y-109157380D01*
X89579285Y-108490714D02*
X89579285Y-109157380D01*
X89341190Y-108109761D02*
X89103095Y-108824047D01*
X89722142Y-108824047D01*
%TO.C,U1*%
X122677380Y-92986904D02*
X123486904Y-92986904D01*
X123582142Y-92939285D01*
X123629761Y-92891666D01*
X123677380Y-92796428D01*
X123677380Y-92605952D01*
X123629761Y-92510714D01*
X123582142Y-92463095D01*
X123486904Y-92415476D01*
X122677380Y-92415476D01*
X123677380Y-91415476D02*
X123677380Y-91986904D01*
X123677380Y-91701190D02*
X122677380Y-91701190D01*
X122820238Y-91796428D01*
X122915476Y-91891666D01*
X122963095Y-91986904D01*
%TO.C,U2*%
X112638095Y-94227380D02*
X112638095Y-95036904D01*
X112685714Y-95132142D01*
X112733333Y-95179761D01*
X112828571Y-95227380D01*
X113019047Y-95227380D01*
X113114285Y-95179761D01*
X113161904Y-95132142D01*
X113209523Y-95036904D01*
X113209523Y-94227380D01*
X113638095Y-94322619D02*
X113685714Y-94275000D01*
X113780952Y-94227380D01*
X114019047Y-94227380D01*
X114114285Y-94275000D01*
X114161904Y-94322619D01*
X114209523Y-94417857D01*
X114209523Y-94513095D01*
X114161904Y-94655952D01*
X113590476Y-95227380D01*
X114209523Y-95227380D01*
%TO.C,U3*%
X101388095Y-93127380D02*
X101388095Y-93936904D01*
X101435714Y-94032142D01*
X101483333Y-94079761D01*
X101578571Y-94127380D01*
X101769047Y-94127380D01*
X101864285Y-94079761D01*
X101911904Y-94032142D01*
X101959523Y-93936904D01*
X101959523Y-93127380D01*
X102340476Y-93127380D02*
X102959523Y-93127380D01*
X102626190Y-93508333D01*
X102769047Y-93508333D01*
X102864285Y-93555952D01*
X102911904Y-93603571D01*
X102959523Y-93698809D01*
X102959523Y-93936904D01*
X102911904Y-94032142D01*
X102864285Y-94079761D01*
X102769047Y-94127380D01*
X102483333Y-94127380D01*
X102388095Y-94079761D01*
X102340476Y-94032142D01*
%TO.C,U4*%
X142377380Y-96761904D02*
X143186904Y-96761904D01*
X143282142Y-96714285D01*
X143329761Y-96666666D01*
X143377380Y-96571428D01*
X143377380Y-96380952D01*
X143329761Y-96285714D01*
X143282142Y-96238095D01*
X143186904Y-96190476D01*
X142377380Y-96190476D01*
X142710714Y-95285714D02*
X143377380Y-95285714D01*
X142329761Y-95523809D02*
X143044047Y-95761904D01*
X143044047Y-95142857D01*
%TO.C,U5*%
X132263095Y-92052380D02*
X132263095Y-92861904D01*
X132310714Y-92957142D01*
X132358333Y-93004761D01*
X132453571Y-93052380D01*
X132644047Y-93052380D01*
X132739285Y-93004761D01*
X132786904Y-92957142D01*
X132834523Y-92861904D01*
X132834523Y-92052380D01*
X133786904Y-92052380D02*
X133310714Y-92052380D01*
X133263095Y-92528571D01*
X133310714Y-92480952D01*
X133405952Y-92433333D01*
X133644047Y-92433333D01*
X133739285Y-92480952D01*
X133786904Y-92528571D01*
X133834523Y-92623809D01*
X133834523Y-92861904D01*
X133786904Y-92957142D01*
X133739285Y-93004761D01*
X133644047Y-93052380D01*
X133405952Y-93052380D01*
X133310714Y-93004761D01*
X133263095Y-92957142D01*
%TD*%
M02*
