M48
; DRILL file {KiCad 5.1.6-1.fc31} date Sat Jun 27 23:07:00 2020
; FORMAT={-:-/ absolute / inch / decimal}
; #@! TF.CreationDate,2020-06-27T23:07:00-07:00
; #@! TF.GenerationSoftware,Kicad,Pcbnew,5.1.6-1.fc31
FMAT,2
INCH
T1C0.0157
T2C0.0197
T3C0.0374
T4C0.0394
T5C0.0472
T6C0.0512
T7C0.0748
T8C0.0906
T9C0.1260
%
G90
G05
T1
X3.2667Y-2.5552
X3.3701Y-2.6033
X3.4567Y-4.1551
X3.5056Y-2.5233
X3.5591Y-2.998
X3.6722Y-3.3209
X3.6791Y-3.4154
X3.7146Y-3.3189
X3.7185Y-3.4163
X3.7331Y-2.5404
X3.7354Y-3.8462
X3.7589Y-3.3177
X3.7638Y-3.8189
X3.7904Y-2.5423
X3.8632Y-2.5856
X3.8907Y-2.9429
X3.9035Y-3.4193
X3.9055Y-3.3425
X3.9459Y-3.4675
X3.9547Y-2.873
X4.0453Y-2.5787
X4.0473Y-3.0079
X4.1144Y-3.5756
X4.1166Y-3.3185
X4.1285Y-2.5812
X4.1575Y-4.0502
X4.1594Y-3.3177
X4.1702Y-3.3721
X4.1713Y-2.2844
X4.1841Y-4.0209
X4.26Y-3.46
X4.31Y-3.3327
X4.3494Y-3.5404
X4.3573Y-3.3209
X4.3907Y-2.8819
X4.4045Y-3.376
X4.4281Y-3.7844
X4.4636Y-2.5217
X4.4843Y-3.9567
X4.4882Y-2.8829
X4.4951Y-3.7165
X4.5295Y-4.0209
X4.5502Y-3.0453
X4.5551Y-3.002
X4.5758Y-3.9579
X4.64Y-2.59
X4.64Y-2.96
X4.65Y-3.41
X4.6772Y-2.2874
X4.7411Y-2.25
X4.7667Y-3.6447
X4.7776Y-3.4705
X4.7884Y-3.1033
X4.7984Y-3.5994
X4.8642Y-3.6594
X4.875Y-3.0089
X4.8932Y-3.5945
X4.9127Y-3.9618
X4.9178Y-3.3214
X4.9232Y-3.7933
X4.9478Y-3.623
X4.9587Y-3.8189
X4.9767Y-3.5945
X5.1417Y-2.8197
X5.1417Y-2.9134
X5.1683Y-3.2805
X5.1841Y-3.5965
X5.1959Y-3.3809
X5.1959Y-3.0895
X5.2047Y-3.8209
X5.2159Y-3.2677
X5.2195Y-3.688
X5.2362Y-3.7589
X5.2559Y-3.053
X5.278Y-3.714
X5.2815Y-3.3514
X5.3061Y-3.7854
X5.4026Y-3.6988
X5.4026Y-3.7392
X5.4173Y-3.2677
X5.4281Y-3.814
X5.4311Y-3.053
X5.4498Y-3.116
X5.4547Y-3.8612
X5.4567Y-3.5915
X5.5217Y-2.865
X5.5581Y-3.3199
X5.5807Y-2.8337
X5.5838Y-3.6015
X5.6014Y-3.9744
X5.625Y-2.6093
X5.6949Y-3.6073
T2
X4.53Y-2.54
X4.7Y-2.55
T3
X5.0752Y-3.9358
X5.1736Y-3.9358
X5.2524Y-3.9358
X5.3508Y-3.9358
T4
X4.1437Y-4.2563
X3.5283Y-2.3409
X3.5283Y-2.4409
X3.6283Y-2.3409
X3.6283Y-2.4409
X3.7283Y-2.3409
X3.7283Y-2.4409
X3.8283Y-2.3409
X3.8283Y-2.4409
X3.9283Y-2.3409
X3.9283Y-2.4409
X4.0283Y-2.3409
X4.0283Y-2.4409
X4.1283Y-2.3409
X4.1283Y-2.4409
X4.2283Y-2.3409
X4.2283Y-2.4409
X4.3283Y-2.3409
X4.3283Y-2.4409
X4.4283Y-2.3409
X4.4283Y-2.4409
X4.5283Y-2.3409
X4.5283Y-2.4409
X4.6283Y-2.3409
X4.6283Y-2.4409
X4.7283Y-2.3409
X4.7283Y-2.4409
X4.8283Y-2.3409
X4.8283Y-2.4409
X4.9283Y-2.3409
X4.9283Y-2.4409
X5.0283Y-2.3409
X5.0283Y-2.4409
X5.1283Y-2.3409
X5.1283Y-2.4409
X5.2283Y-2.3409
X5.2283Y-2.4409
X5.3283Y-2.3409
X5.3283Y-2.4409
X5.4283Y-2.3409
X5.4283Y-2.4409
X3.3474Y-2.8858
X3.3474Y-2.9858
T5
X3.5463Y-3.176
X3.6841Y-3.176
X3.8219Y-3.176
X3.9596Y-3.176
X4.0974Y-3.176
X4.2352Y-3.176
X4.373Y-3.176
X4.5108Y-3.176
X4.6969Y-2.7291
X4.8346Y-2.7291
X4.9724Y-2.7291
X5.1102Y-2.7291
X5.248Y-2.7291
X5.3858Y-2.7291
X5.5236Y-2.7291
X5.6614Y-2.7291
X3.5461Y-2.7291
X3.6839Y-2.7291
X3.8217Y-2.7291
X3.9594Y-2.7291
X4.0972Y-2.7291
X4.235Y-2.7291
X4.3728Y-2.7291
X4.5106Y-2.7291
X4.6963Y-3.1764
X4.8341Y-3.1764
X4.9719Y-3.1764
X5.1096Y-3.1764
X5.2474Y-3.1764
X5.3852Y-3.1764
X5.523Y-3.1764
X5.6608Y-3.1764
T6
X3.8051Y-4.0445
X3.8051Y-4.1945
X3.8051Y-4.3398
X4.4059Y-4.0445
X4.4059Y-4.3398
X4.6043Y-4.0445
X4.6043Y-4.3398
X4.8028Y-4.0445
X4.8028Y-4.3398
T7
X3.49Y-3.4661
X3.49Y-3.9858
T8
X4.9543Y-4.0425
X5.4717Y-4.0425
T9
X3.3366Y-4.3199
X5.6211Y-4.3209
T0
M30
