%TF.GenerationSoftware,KiCad,Pcbnew,5.1.6-1.fc31*%
%TF.CreationDate,2020-06-27T23:06:53-07:00*%
%TF.ProjectId,rpi_7seg_alarm_clock,7270695f-3773-4656-975f-616c61726d5f,rev?*%
%TF.SameCoordinates,Original*%
%TF.FileFunction,Soldermask,Top*%
%TF.FilePolarity,Negative*%
%FSLAX46Y46*%
G04 Gerber Fmt 4.6, Leading zero omitted, Abs format (unit mm)*
G04 Created by KiCad (PCBNEW 5.1.6-1.fc31) date 2020-06-27 23:06:53*
%MOMM*%
%LPD*%
G01*
G04 APERTURE LIST*
%ADD10C,3.301600*%
%ADD11R,2.501600X2.501600*%
%ADD12C,2.501600*%
%ADD13C,3.101600*%
%ADD14C,9.101600*%
%ADD15R,1.701600X1.601600*%
%ADD16C,1.701600*%
%ADD17O,1.801600X1.801600*%
%ADD18R,1.801600X1.801600*%
%ADD19C,2.051600*%
%ADD20R,1.001600X0.901600*%
%ADD21R,0.801600X0.551600*%
%ADD22R,1.803400X0.635000*%
G04 APERTURE END LIST*
D10*
%TO.C,REF\u002A\u002A*%
X84750000Y-109725000D03*
%TD*%
%TO.C,REF\u002A\u002A*%
X142775000Y-109750000D03*
%TD*%
D11*
%TO.C,J7*%
X90070000Y-69320000D03*
D12*
X93570000Y-69320000D03*
X97070000Y-69320000D03*
X100570000Y-69320000D03*
X104070000Y-69320000D03*
X107570000Y-69320000D03*
X111070000Y-69320000D03*
X114570000Y-69320000D03*
%TD*%
%TO.C,C1*%
G36*
G01*
X133447900Y-87035800D02*
X133052100Y-87035800D01*
G75*
G02*
X132879200Y-86862900I0J172900D01*
G01*
X132879200Y-86517100D01*
G75*
G02*
X133052100Y-86344200I172900J0D01*
G01*
X133447900Y-86344200D01*
G75*
G02*
X133620800Y-86517100I0J-172900D01*
G01*
X133620800Y-86862900D01*
G75*
G02*
X133447900Y-87035800I-172900J0D01*
G01*
G37*
G36*
G01*
X133447900Y-88005800D02*
X133052100Y-88005800D01*
G75*
G02*
X132879200Y-87832900I0J172900D01*
G01*
X132879200Y-87487100D01*
G75*
G02*
X133052100Y-87314200I172900J0D01*
G01*
X133447900Y-87314200D01*
G75*
G02*
X133620800Y-87487100I0J-172900D01*
G01*
X133620800Y-87832900D01*
G75*
G02*
X133447900Y-88005800I-172900J0D01*
G01*
G37*
%TD*%
%TO.C,C2*%
G36*
G01*
X116089200Y-89672900D02*
X116089200Y-89277100D01*
G75*
G02*
X116262100Y-89104200I172900J0D01*
G01*
X116607900Y-89104200D01*
G75*
G02*
X116780800Y-89277100I0J-172900D01*
G01*
X116780800Y-89672900D01*
G75*
G02*
X116607900Y-89845800I-172900J0D01*
G01*
X116262100Y-89845800D01*
G75*
G02*
X116089200Y-89672900I0J172900D01*
G01*
G37*
G36*
G01*
X115119200Y-89672900D02*
X115119200Y-89277100D01*
G75*
G02*
X115292100Y-89104200I172900J0D01*
G01*
X115637900Y-89104200D01*
G75*
G02*
X115810800Y-89277100I0J-172900D01*
G01*
X115810800Y-89672900D01*
G75*
G02*
X115637900Y-89845800I-172900J0D01*
G01*
X115292100Y-89845800D01*
G75*
G02*
X115119200Y-89672900I0J172900D01*
G01*
G37*
%TD*%
%TO.C,C3*%
G36*
G01*
X140497900Y-87035800D02*
X140102100Y-87035800D01*
G75*
G02*
X139929200Y-86862900I0J172900D01*
G01*
X139929200Y-86517100D01*
G75*
G02*
X140102100Y-86344200I172900J0D01*
G01*
X140497900Y-86344200D01*
G75*
G02*
X140670800Y-86517100I0J-172900D01*
G01*
X140670800Y-86862900D01*
G75*
G02*
X140497900Y-87035800I-172900J0D01*
G01*
G37*
G36*
G01*
X140497900Y-88005800D02*
X140102100Y-88005800D01*
G75*
G02*
X139929200Y-87832900I0J172900D01*
G01*
X139929200Y-87487100D01*
G75*
G02*
X140102100Y-87314200I172900J0D01*
G01*
X140497900Y-87314200D01*
G75*
G02*
X140670800Y-87487100I0J-172900D01*
G01*
X140670800Y-87832900D01*
G75*
G02*
X140497900Y-88005800I-172900J0D01*
G01*
G37*
%TD*%
%TO.C,C4*%
G36*
G01*
X143997900Y-75660800D02*
X143602100Y-75660800D01*
G75*
G02*
X143429200Y-75487900I0J172900D01*
G01*
X143429200Y-75142100D01*
G75*
G02*
X143602100Y-74969200I172900J0D01*
G01*
X143997900Y-74969200D01*
G75*
G02*
X144170800Y-75142100I0J-172900D01*
G01*
X144170800Y-75487900D01*
G75*
G02*
X143997900Y-75660800I-172900J0D01*
G01*
G37*
G36*
G01*
X143997900Y-76630800D02*
X143602100Y-76630800D01*
G75*
G02*
X143429200Y-76457900I0J172900D01*
G01*
X143429200Y-76112100D01*
G75*
G02*
X143602100Y-75939200I172900J0D01*
G01*
X143997900Y-75939200D01*
G75*
G02*
X144170800Y-76112100I0J-172900D01*
G01*
X144170800Y-76457900D01*
G75*
G02*
X143997900Y-76630800I-172900J0D01*
G01*
G37*
%TD*%
%TO.C,C5*%
G36*
G01*
X136997900Y-75660800D02*
X136602100Y-75660800D01*
G75*
G02*
X136429200Y-75487900I0J172900D01*
G01*
X136429200Y-75142100D01*
G75*
G02*
X136602100Y-74969200I172900J0D01*
G01*
X136997900Y-74969200D01*
G75*
G02*
X137170800Y-75142100I0J-172900D01*
G01*
X137170800Y-75487900D01*
G75*
G02*
X136997900Y-75660800I-172900J0D01*
G01*
G37*
G36*
G01*
X136997900Y-76630800D02*
X136602100Y-76630800D01*
G75*
G02*
X136429200Y-76457900I0J172900D01*
G01*
X136429200Y-76112100D01*
G75*
G02*
X136602100Y-75939200I172900J0D01*
G01*
X136997900Y-75939200D01*
G75*
G02*
X137170800Y-76112100I0J-172900D01*
G01*
X137170800Y-76457900D01*
G75*
G02*
X136997900Y-76630800I-172900J0D01*
G01*
G37*
%TD*%
%TO.C,C6*%
G36*
G01*
X105129200Y-88022900D02*
X105129200Y-87627100D01*
G75*
G02*
X105302100Y-87454200I172900J0D01*
G01*
X105647900Y-87454200D01*
G75*
G02*
X105820800Y-87627100I0J-172900D01*
G01*
X105820800Y-88022900D01*
G75*
G02*
X105647900Y-88195800I-172900J0D01*
G01*
X105302100Y-88195800D01*
G75*
G02*
X105129200Y-88022900I0J172900D01*
G01*
G37*
G36*
G01*
X104159200Y-88022900D02*
X104159200Y-87627100D01*
G75*
G02*
X104332100Y-87454200I172900J0D01*
G01*
X104677900Y-87454200D01*
G75*
G02*
X104850800Y-87627100I0J-172900D01*
G01*
X104850800Y-88022900D01*
G75*
G02*
X104677900Y-88195800I-172900J0D01*
G01*
X104332100Y-88195800D01*
G75*
G02*
X104159200Y-88022900I0J172900D01*
G01*
G37*
%TD*%
%TO.C,C7*%
G36*
G01*
X130022900Y-75660800D02*
X129627100Y-75660800D01*
G75*
G02*
X129454200Y-75487900I0J172900D01*
G01*
X129454200Y-75142100D01*
G75*
G02*
X129627100Y-74969200I172900J0D01*
G01*
X130022900Y-74969200D01*
G75*
G02*
X130195800Y-75142100I0J-172900D01*
G01*
X130195800Y-75487900D01*
G75*
G02*
X130022900Y-75660800I-172900J0D01*
G01*
G37*
G36*
G01*
X130022900Y-76630800D02*
X129627100Y-76630800D01*
G75*
G02*
X129454200Y-76457900I0J172900D01*
G01*
X129454200Y-76112100D01*
G75*
G02*
X129627100Y-75939200I172900J0D01*
G01*
X130022900Y-75939200D01*
G75*
G02*
X130195800Y-76112100I0J-172900D01*
G01*
X130195800Y-76457900D01*
G75*
G02*
X130022900Y-76630800I-172900J0D01*
G01*
G37*
%TD*%
%TO.C,C8*%
G36*
G01*
X122997900Y-75660800D02*
X122602100Y-75660800D01*
G75*
G02*
X122429200Y-75487900I0J172900D01*
G01*
X122429200Y-75142100D01*
G75*
G02*
X122602100Y-74969200I172900J0D01*
G01*
X122997900Y-74969200D01*
G75*
G02*
X123170800Y-75142100I0J-172900D01*
G01*
X123170800Y-75487900D01*
G75*
G02*
X122997900Y-75660800I-172900J0D01*
G01*
G37*
G36*
G01*
X122997900Y-76630800D02*
X122602100Y-76630800D01*
G75*
G02*
X122429200Y-76457900I0J172900D01*
G01*
X122429200Y-76112100D01*
G75*
G02*
X122602100Y-75939200I172900J0D01*
G01*
X122997900Y-75939200D01*
G75*
G02*
X123170800Y-76112100I0J-172900D01*
G01*
X123170800Y-76457900D01*
G75*
G02*
X122997900Y-76630800I-172900J0D01*
G01*
G37*
%TD*%
%TO.C,C9*%
G36*
G01*
X140427100Y-91079200D02*
X140822900Y-91079200D01*
G75*
G02*
X140995800Y-91252100I0J-172900D01*
G01*
X140995800Y-91597900D01*
G75*
G02*
X140822900Y-91770800I-172900J0D01*
G01*
X140427100Y-91770800D01*
G75*
G02*
X140254200Y-91597900I0J172900D01*
G01*
X140254200Y-91252100D01*
G75*
G02*
X140427100Y-91079200I172900J0D01*
G01*
G37*
G36*
G01*
X140427100Y-90109200D02*
X140822900Y-90109200D01*
G75*
G02*
X140995800Y-90282100I0J-172900D01*
G01*
X140995800Y-90627900D01*
G75*
G02*
X140822900Y-90800800I-172900J0D01*
G01*
X140427100Y-90800800D01*
G75*
G02*
X140254200Y-90627900I0J172900D01*
G01*
X140254200Y-90282100D01*
G75*
G02*
X140427100Y-90109200I172900J0D01*
G01*
G37*
%TD*%
%TO.C,C10*%
G36*
G01*
X130214200Y-96372900D02*
X130214200Y-95977100D01*
G75*
G02*
X130387100Y-95804200I172900J0D01*
G01*
X130732900Y-95804200D01*
G75*
G02*
X130905800Y-95977100I0J-172900D01*
G01*
X130905800Y-96372900D01*
G75*
G02*
X130732900Y-96545800I-172900J0D01*
G01*
X130387100Y-96545800D01*
G75*
G02*
X130214200Y-96372900I0J172900D01*
G01*
G37*
G36*
G01*
X129244200Y-96372900D02*
X129244200Y-95977100D01*
G75*
G02*
X129417100Y-95804200I172900J0D01*
G01*
X129762900Y-95804200D01*
G75*
G02*
X129935800Y-95977100I0J-172900D01*
G01*
X129935800Y-96372900D01*
G75*
G02*
X129762900Y-96545800I-172900J0D01*
G01*
X129417100Y-96545800D01*
G75*
G02*
X129244200Y-96372900I0J172900D01*
G01*
G37*
%TD*%
%TO.C,C11*%
G36*
G01*
X119252100Y-87439200D02*
X119647900Y-87439200D01*
G75*
G02*
X119820800Y-87612100I0J-172900D01*
G01*
X119820800Y-87957900D01*
G75*
G02*
X119647900Y-88130800I-172900J0D01*
G01*
X119252100Y-88130800D01*
G75*
G02*
X119079200Y-87957900I0J172900D01*
G01*
X119079200Y-87612100D01*
G75*
G02*
X119252100Y-87439200I172900J0D01*
G01*
G37*
G36*
G01*
X119252100Y-86469200D02*
X119647900Y-86469200D01*
G75*
G02*
X119820800Y-86642100I0J-172900D01*
G01*
X119820800Y-86987900D01*
G75*
G02*
X119647900Y-87160800I-172900J0D01*
G01*
X119252100Y-87160800D01*
G75*
G02*
X119079200Y-86987900I0J172900D01*
G01*
X119079200Y-86642100D01*
G75*
G02*
X119252100Y-86469200I172900J0D01*
G01*
G37*
%TD*%
%TO.C,R1*%
G36*
G01*
X136997900Y-87035800D02*
X136602100Y-87035800D01*
G75*
G02*
X136429200Y-86862900I0J172900D01*
G01*
X136429200Y-86517100D01*
G75*
G02*
X136602100Y-86344200I172900J0D01*
G01*
X136997900Y-86344200D01*
G75*
G02*
X137170800Y-86517100I0J-172900D01*
G01*
X137170800Y-86862900D01*
G75*
G02*
X136997900Y-87035800I-172900J0D01*
G01*
G37*
G36*
G01*
X136997900Y-88005800D02*
X136602100Y-88005800D01*
G75*
G02*
X136429200Y-87832900I0J172900D01*
G01*
X136429200Y-87487100D01*
G75*
G02*
X136602100Y-87314200I172900J0D01*
G01*
X136997900Y-87314200D01*
G75*
G02*
X137170800Y-87487100I0J-172900D01*
G01*
X137170800Y-87832900D01*
G75*
G02*
X136997900Y-88005800I-172900J0D01*
G01*
G37*
%TD*%
%TO.C,R2*%
G36*
G01*
X135247900Y-87035800D02*
X134852100Y-87035800D01*
G75*
G02*
X134679200Y-86862900I0J172900D01*
G01*
X134679200Y-86517100D01*
G75*
G02*
X134852100Y-86344200I172900J0D01*
G01*
X135247900Y-86344200D01*
G75*
G02*
X135420800Y-86517100I0J-172900D01*
G01*
X135420800Y-86862900D01*
G75*
G02*
X135247900Y-87035800I-172900J0D01*
G01*
G37*
G36*
G01*
X135247900Y-88005800D02*
X134852100Y-88005800D01*
G75*
G02*
X134679200Y-87832900I0J172900D01*
G01*
X134679200Y-87487100D01*
G75*
G02*
X134852100Y-87314200I172900J0D01*
G01*
X135247900Y-87314200D01*
G75*
G02*
X135420800Y-87487100I0J-172900D01*
G01*
X135420800Y-87832900D01*
G75*
G02*
X135247900Y-88005800I-172900J0D01*
G01*
G37*
%TD*%
%TO.C,R3*%
G36*
G01*
X143997900Y-87035800D02*
X143602100Y-87035800D01*
G75*
G02*
X143429200Y-86862900I0J172900D01*
G01*
X143429200Y-86517100D01*
G75*
G02*
X143602100Y-86344200I172900J0D01*
G01*
X143997900Y-86344200D01*
G75*
G02*
X144170800Y-86517100I0J-172900D01*
G01*
X144170800Y-86862900D01*
G75*
G02*
X143997900Y-87035800I-172900J0D01*
G01*
G37*
G36*
G01*
X143997900Y-88005800D02*
X143602100Y-88005800D01*
G75*
G02*
X143429200Y-87832900I0J172900D01*
G01*
X143429200Y-87487100D01*
G75*
G02*
X143602100Y-87314200I172900J0D01*
G01*
X143997900Y-87314200D01*
G75*
G02*
X144170800Y-87487100I0J-172900D01*
G01*
X144170800Y-87832900D01*
G75*
G02*
X143997900Y-88005800I-172900J0D01*
G01*
G37*
%TD*%
%TO.C,R4*%
G36*
G01*
X142322900Y-87035800D02*
X141927100Y-87035800D01*
G75*
G02*
X141754200Y-86862900I0J172900D01*
G01*
X141754200Y-86517100D01*
G75*
G02*
X141927100Y-86344200I172900J0D01*
G01*
X142322900Y-86344200D01*
G75*
G02*
X142495800Y-86517100I0J-172900D01*
G01*
X142495800Y-86862900D01*
G75*
G02*
X142322900Y-87035800I-172900J0D01*
G01*
G37*
G36*
G01*
X142322900Y-88005800D02*
X141927100Y-88005800D01*
G75*
G02*
X141754200Y-87832900I0J172900D01*
G01*
X141754200Y-87487100D01*
G75*
G02*
X141927100Y-87314200I172900J0D01*
G01*
X142322900Y-87314200D01*
G75*
G02*
X142495800Y-87487100I0J-172900D01*
G01*
X142495800Y-87832900D01*
G75*
G02*
X142322900Y-88005800I-172900J0D01*
G01*
G37*
%TD*%
%TO.C,R5*%
G36*
G01*
X140497900Y-75660800D02*
X140102100Y-75660800D01*
G75*
G02*
X139929200Y-75487900I0J172900D01*
G01*
X139929200Y-75142100D01*
G75*
G02*
X140102100Y-74969200I172900J0D01*
G01*
X140497900Y-74969200D01*
G75*
G02*
X140670800Y-75142100I0J-172900D01*
G01*
X140670800Y-75487900D01*
G75*
G02*
X140497900Y-75660800I-172900J0D01*
G01*
G37*
G36*
G01*
X140497900Y-76630800D02*
X140102100Y-76630800D01*
G75*
G02*
X139929200Y-76457900I0J172900D01*
G01*
X139929200Y-76112100D01*
G75*
G02*
X140102100Y-75939200I172900J0D01*
G01*
X140497900Y-75939200D01*
G75*
G02*
X140670800Y-76112100I0J-172900D01*
G01*
X140670800Y-76457900D01*
G75*
G02*
X140497900Y-76630800I-172900J0D01*
G01*
G37*
%TD*%
%TO.C,R6*%
G36*
G01*
X142272900Y-75660800D02*
X141877100Y-75660800D01*
G75*
G02*
X141704200Y-75487900I0J172900D01*
G01*
X141704200Y-75142100D01*
G75*
G02*
X141877100Y-74969200I172900J0D01*
G01*
X142272900Y-74969200D01*
G75*
G02*
X142445800Y-75142100I0J-172900D01*
G01*
X142445800Y-75487900D01*
G75*
G02*
X142272900Y-75660800I-172900J0D01*
G01*
G37*
G36*
G01*
X142272900Y-76630800D02*
X141877100Y-76630800D01*
G75*
G02*
X141704200Y-76457900I0J172900D01*
G01*
X141704200Y-76112100D01*
G75*
G02*
X141877100Y-75939200I172900J0D01*
G01*
X142272900Y-75939200D01*
G75*
G02*
X142445800Y-76112100I0J-172900D01*
G01*
X142445800Y-76457900D01*
G75*
G02*
X142272900Y-76630800I-172900J0D01*
G01*
G37*
%TD*%
%TO.C,R7*%
G36*
G01*
X84014200Y-58472900D02*
X84014200Y-58077100D01*
G75*
G02*
X84187100Y-57904200I172900J0D01*
G01*
X84532900Y-57904200D01*
G75*
G02*
X84705800Y-58077100I0J-172900D01*
G01*
X84705800Y-58472900D01*
G75*
G02*
X84532900Y-58645800I-172900J0D01*
G01*
X84187100Y-58645800D01*
G75*
G02*
X84014200Y-58472900I0J172900D01*
G01*
G37*
G36*
G01*
X83044200Y-58472900D02*
X83044200Y-58077100D01*
G75*
G02*
X83217100Y-57904200I172900J0D01*
G01*
X83562900Y-57904200D01*
G75*
G02*
X83735800Y-58077100I0J-172900D01*
G01*
X83735800Y-58472900D01*
G75*
G02*
X83562900Y-58645800I-172900J0D01*
G01*
X83217100Y-58645800D01*
G75*
G02*
X83044200Y-58472900I0J172900D01*
G01*
G37*
%TD*%
%TO.C,R8*%
G36*
G01*
X142524200Y-58272900D02*
X142524200Y-57877100D01*
G75*
G02*
X142697100Y-57704200I172900J0D01*
G01*
X143042900Y-57704200D01*
G75*
G02*
X143215800Y-57877100I0J-172900D01*
G01*
X143215800Y-58272900D01*
G75*
G02*
X143042900Y-58445800I-172900J0D01*
G01*
X142697100Y-58445800D01*
G75*
G02*
X142524200Y-58272900I0J172900D01*
G01*
G37*
G36*
G01*
X141554200Y-58272900D02*
X141554200Y-57877100D01*
G75*
G02*
X141727100Y-57704200I172900J0D01*
G01*
X142072900Y-57704200D01*
G75*
G02*
X142245800Y-57877100I0J-172900D01*
G01*
X142245800Y-58272900D01*
G75*
G02*
X142072900Y-58445800I-172900J0D01*
G01*
X141727100Y-58445800D01*
G75*
G02*
X141554200Y-58272900I0J172900D01*
G01*
G37*
%TD*%
%TO.C,R9*%
G36*
G01*
X83979200Y-63672900D02*
X83979200Y-63277100D01*
G75*
G02*
X84152100Y-63104200I172900J0D01*
G01*
X84497900Y-63104200D01*
G75*
G02*
X84670800Y-63277100I0J-172900D01*
G01*
X84670800Y-63672900D01*
G75*
G02*
X84497900Y-63845800I-172900J0D01*
G01*
X84152100Y-63845800D01*
G75*
G02*
X83979200Y-63672900I0J172900D01*
G01*
G37*
G36*
G01*
X83009200Y-63672900D02*
X83009200Y-63277100D01*
G75*
G02*
X83182100Y-63104200I172900J0D01*
G01*
X83527900Y-63104200D01*
G75*
G02*
X83700800Y-63277100I0J-172900D01*
G01*
X83700800Y-63672900D01*
G75*
G02*
X83527900Y-63845800I-172900J0D01*
G01*
X83182100Y-63845800D01*
G75*
G02*
X83009200Y-63672900I0J172900D01*
G01*
G37*
%TD*%
%TO.C,R10*%
G36*
G01*
X142524200Y-63297900D02*
X142524200Y-62902100D01*
G75*
G02*
X142697100Y-62729200I172900J0D01*
G01*
X143042900Y-62729200D01*
G75*
G02*
X143215800Y-62902100I0J-172900D01*
G01*
X143215800Y-63297900D01*
G75*
G02*
X143042900Y-63470800I-172900J0D01*
G01*
X142697100Y-63470800D01*
G75*
G02*
X142524200Y-63297900I0J172900D01*
G01*
G37*
G36*
G01*
X141554200Y-63297900D02*
X141554200Y-62902100D01*
G75*
G02*
X141727100Y-62729200I172900J0D01*
G01*
X142072900Y-62729200D01*
G75*
G02*
X142245800Y-62902100I0J-172900D01*
G01*
X142245800Y-63297900D01*
G75*
G02*
X142072900Y-63470800I-172900J0D01*
G01*
X141727100Y-63470800D01*
G75*
G02*
X141554200Y-63297900I0J172900D01*
G01*
G37*
%TD*%
%TO.C,R11*%
G36*
G01*
X133497900Y-75660800D02*
X133102100Y-75660800D01*
G75*
G02*
X132929200Y-75487900I0J172900D01*
G01*
X132929200Y-75142100D01*
G75*
G02*
X133102100Y-74969200I172900J0D01*
G01*
X133497900Y-74969200D01*
G75*
G02*
X133670800Y-75142100I0J-172900D01*
G01*
X133670800Y-75487900D01*
G75*
G02*
X133497900Y-75660800I-172900J0D01*
G01*
G37*
G36*
G01*
X133497900Y-76630800D02*
X133102100Y-76630800D01*
G75*
G02*
X132929200Y-76457900I0J172900D01*
G01*
X132929200Y-76112100D01*
G75*
G02*
X133102100Y-75939200I172900J0D01*
G01*
X133497900Y-75939200D01*
G75*
G02*
X133670800Y-76112100I0J-172900D01*
G01*
X133670800Y-76457900D01*
G75*
G02*
X133497900Y-76630800I-172900J0D01*
G01*
G37*
%TD*%
%TO.C,R12*%
G36*
G01*
X135272900Y-75660800D02*
X134877100Y-75660800D01*
G75*
G02*
X134704200Y-75487900I0J172900D01*
G01*
X134704200Y-75142100D01*
G75*
G02*
X134877100Y-74969200I172900J0D01*
G01*
X135272900Y-74969200D01*
G75*
G02*
X135445800Y-75142100I0J-172900D01*
G01*
X135445800Y-75487900D01*
G75*
G02*
X135272900Y-75660800I-172900J0D01*
G01*
G37*
G36*
G01*
X135272900Y-76630800D02*
X134877100Y-76630800D01*
G75*
G02*
X134704200Y-76457900I0J172900D01*
G01*
X134704200Y-76112100D01*
G75*
G02*
X134877100Y-75939200I172900J0D01*
G01*
X135272900Y-75939200D01*
G75*
G02*
X135445800Y-76112100I0J-172900D01*
G01*
X135445800Y-76457900D01*
G75*
G02*
X135272900Y-76630800I-172900J0D01*
G01*
G37*
%TD*%
%TO.C,R13*%
G36*
G01*
X126497900Y-75660800D02*
X126102100Y-75660800D01*
G75*
G02*
X125929200Y-75487900I0J172900D01*
G01*
X125929200Y-75142100D01*
G75*
G02*
X126102100Y-74969200I172900J0D01*
G01*
X126497900Y-74969200D01*
G75*
G02*
X126670800Y-75142100I0J-172900D01*
G01*
X126670800Y-75487900D01*
G75*
G02*
X126497900Y-75660800I-172900J0D01*
G01*
G37*
G36*
G01*
X126497900Y-76630800D02*
X126102100Y-76630800D01*
G75*
G02*
X125929200Y-76457900I0J172900D01*
G01*
X125929200Y-76112100D01*
G75*
G02*
X126102100Y-75939200I172900J0D01*
G01*
X126497900Y-75939200D01*
G75*
G02*
X126670800Y-76112100I0J-172900D01*
G01*
X126670800Y-76457900D01*
G75*
G02*
X126497900Y-76630800I-172900J0D01*
G01*
G37*
%TD*%
%TO.C,R14*%
G36*
G01*
X128297900Y-75660800D02*
X127902100Y-75660800D01*
G75*
G02*
X127729200Y-75487900I0J172900D01*
G01*
X127729200Y-75142100D01*
G75*
G02*
X127902100Y-74969200I172900J0D01*
G01*
X128297900Y-74969200D01*
G75*
G02*
X128470800Y-75142100I0J-172900D01*
G01*
X128470800Y-75487900D01*
G75*
G02*
X128297900Y-75660800I-172900J0D01*
G01*
G37*
G36*
G01*
X128297900Y-76630800D02*
X127902100Y-76630800D01*
G75*
G02*
X127729200Y-76457900I0J172900D01*
G01*
X127729200Y-76112100D01*
G75*
G02*
X127902100Y-75939200I172900J0D01*
G01*
X128297900Y-75939200D01*
G75*
G02*
X128470800Y-76112100I0J-172900D01*
G01*
X128470800Y-76457900D01*
G75*
G02*
X128297900Y-76630800I-172900J0D01*
G01*
G37*
%TD*%
%TO.C,R15*%
G36*
G01*
X119422900Y-75660800D02*
X119027100Y-75660800D01*
G75*
G02*
X118854200Y-75487900I0J172900D01*
G01*
X118854200Y-75142100D01*
G75*
G02*
X119027100Y-74969200I172900J0D01*
G01*
X119422900Y-74969200D01*
G75*
G02*
X119595800Y-75142100I0J-172900D01*
G01*
X119595800Y-75487900D01*
G75*
G02*
X119422900Y-75660800I-172900J0D01*
G01*
G37*
G36*
G01*
X119422900Y-76630800D02*
X119027100Y-76630800D01*
G75*
G02*
X118854200Y-76457900I0J172900D01*
G01*
X118854200Y-76112100D01*
G75*
G02*
X119027100Y-75939200I172900J0D01*
G01*
X119422900Y-75939200D01*
G75*
G02*
X119595800Y-76112100I0J-172900D01*
G01*
X119595800Y-76457900D01*
G75*
G02*
X119422900Y-76630800I-172900J0D01*
G01*
G37*
%TD*%
%TO.C,R16*%
G36*
G01*
X121222900Y-75660800D02*
X120827100Y-75660800D01*
G75*
G02*
X120654200Y-75487900I0J172900D01*
G01*
X120654200Y-75142100D01*
G75*
G02*
X120827100Y-74969200I172900J0D01*
G01*
X121222900Y-74969200D01*
G75*
G02*
X121395800Y-75142100I0J-172900D01*
G01*
X121395800Y-75487900D01*
G75*
G02*
X121222900Y-75660800I-172900J0D01*
G01*
G37*
G36*
G01*
X121222900Y-76630800D02*
X120827100Y-76630800D01*
G75*
G02*
X120654200Y-76457900I0J172900D01*
G01*
X120654200Y-76112100D01*
G75*
G02*
X120827100Y-75939200I172900J0D01*
G01*
X121222900Y-75939200D01*
G75*
G02*
X121395800Y-76112100I0J-172900D01*
G01*
X121395800Y-76457900D01*
G75*
G02*
X121222900Y-76630800I-172900J0D01*
G01*
G37*
%TD*%
D11*
%TO.C,J4*%
X119285000Y-80680000D03*
D12*
X122785000Y-80680000D03*
X126285000Y-80680000D03*
X129785000Y-80680000D03*
X133285000Y-80680000D03*
X136785000Y-80680000D03*
X140285000Y-80680000D03*
X143785000Y-80680000D03*
%TD*%
D11*
%TO.C,J5*%
X90075000Y-80670000D03*
D12*
X93575000Y-80670000D03*
X97075000Y-80670000D03*
X100575000Y-80670000D03*
X104075000Y-80670000D03*
X107575000Y-80670000D03*
X111075000Y-80670000D03*
X114575000Y-80670000D03*
%TD*%
D11*
%TO.C,J6*%
X119300000Y-69320000D03*
D12*
X122800000Y-69320000D03*
X126300000Y-69320000D03*
X129800000Y-69320000D03*
X133300000Y-69320000D03*
X136800000Y-69320000D03*
X140300000Y-69320000D03*
X143800000Y-69320000D03*
%TD*%
D13*
%TO.C,BT1*%
X88646000Y-88040000D03*
X88646000Y-101240000D03*
D14*
X88646000Y-94640000D03*
%TD*%
D13*
%TO.C,J1*%
X125840000Y-102680000D03*
X138980000Y-102680000D03*
D15*
X128910000Y-99970000D03*
D16*
X131410000Y-99970000D03*
X133410000Y-99970000D03*
X135910000Y-99970000D03*
%TD*%
D17*
%TO.C,J2*%
X137880000Y-59460000D03*
X137880000Y-62000000D03*
X135340000Y-59460000D03*
X135340000Y-62000000D03*
X132800000Y-59460000D03*
X132800000Y-62000000D03*
X130260000Y-59460000D03*
X130260000Y-62000000D03*
X127720000Y-59460000D03*
X127720000Y-62000000D03*
X125180000Y-59460000D03*
X125180000Y-62000000D03*
X122640000Y-59460000D03*
X122640000Y-62000000D03*
X120100000Y-59460000D03*
X120100000Y-62000000D03*
X117560000Y-59460000D03*
X117560000Y-62000000D03*
X115020000Y-59460000D03*
X115020000Y-62000000D03*
X112480000Y-59460000D03*
X112480000Y-62000000D03*
X109940000Y-59460000D03*
X109940000Y-62000000D03*
X107400000Y-59460000D03*
X107400000Y-62000000D03*
X104860000Y-59460000D03*
X104860000Y-62000000D03*
X102320000Y-59460000D03*
X102320000Y-62000000D03*
X99780000Y-59460000D03*
X99780000Y-62000000D03*
X97240000Y-59460000D03*
X97240000Y-62000000D03*
X94700000Y-59460000D03*
X94700000Y-62000000D03*
X92160000Y-59460000D03*
X92160000Y-62000000D03*
X89620000Y-59460000D03*
D18*
X89620000Y-62000000D03*
%TD*%
%TO.C,J3*%
X85025000Y-75840000D03*
D17*
X85025000Y-73300000D03*
%TD*%
D19*
%TO.C,K1*%
X111910000Y-110230000D03*
X111910000Y-102730000D03*
X116950000Y-102730000D03*
X116950000Y-110230000D03*
X121990000Y-110230000D03*
X121990000Y-102730000D03*
X96650000Y-102730000D03*
X96650000Y-110230000D03*
X96650000Y-106540000D03*
%TD*%
D20*
%TO.C,Q1*%
X85625000Y-60850000D03*
X83625000Y-61800000D03*
X83625000Y-59900000D03*
%TD*%
%TO.C,Q2*%
X142150000Y-59650000D03*
X142150000Y-61550000D03*
X144150000Y-60600000D03*
%TD*%
D21*
%TO.C,Q3*%
X92694000Y-110998000D03*
X90694000Y-111648000D03*
X90694000Y-110348000D03*
%TD*%
%TO.C,Q4*%
X90694000Y-106792000D03*
X90694000Y-108092000D03*
X92694000Y-107442000D03*
%TD*%
%TO.C,U1*%
G36*
G01*
X119615400Y-95750800D02*
X119264600Y-95750800D01*
G75*
G02*
X119089200Y-95575400I0J175400D01*
G01*
X119089200Y-93874600D01*
G75*
G02*
X119264600Y-93699200I175400J0D01*
G01*
X119615400Y-93699200D01*
G75*
G02*
X119790800Y-93874600I0J-175400D01*
G01*
X119790800Y-95575400D01*
G75*
G02*
X119615400Y-95750800I-175400J0D01*
G01*
G37*
G36*
G01*
X120885400Y-95750800D02*
X120534600Y-95750800D01*
G75*
G02*
X120359200Y-95575400I0J175400D01*
G01*
X120359200Y-93874600D01*
G75*
G02*
X120534600Y-93699200I175400J0D01*
G01*
X120885400Y-93699200D01*
G75*
G02*
X121060800Y-93874600I0J-175400D01*
G01*
X121060800Y-95575400D01*
G75*
G02*
X120885400Y-95750800I-175400J0D01*
G01*
G37*
G36*
G01*
X122155400Y-95750800D02*
X121804600Y-95750800D01*
G75*
G02*
X121629200Y-95575400I0J175400D01*
G01*
X121629200Y-93874600D01*
G75*
G02*
X121804600Y-93699200I175400J0D01*
G01*
X122155400Y-93699200D01*
G75*
G02*
X122330800Y-93874600I0J-175400D01*
G01*
X122330800Y-95575400D01*
G75*
G02*
X122155400Y-95750800I-175400J0D01*
G01*
G37*
G36*
G01*
X123425400Y-95750800D02*
X123074600Y-95750800D01*
G75*
G02*
X122899200Y-95575400I0J175400D01*
G01*
X122899200Y-93874600D01*
G75*
G02*
X123074600Y-93699200I175400J0D01*
G01*
X123425400Y-93699200D01*
G75*
G02*
X123600800Y-93874600I0J-175400D01*
G01*
X123600800Y-95575400D01*
G75*
G02*
X123425400Y-95750800I-175400J0D01*
G01*
G37*
G36*
G01*
X124695400Y-95750800D02*
X124344600Y-95750800D01*
G75*
G02*
X124169200Y-95575400I0J175400D01*
G01*
X124169200Y-93874600D01*
G75*
G02*
X124344600Y-93699200I175400J0D01*
G01*
X124695400Y-93699200D01*
G75*
G02*
X124870800Y-93874600I0J-175400D01*
G01*
X124870800Y-95575400D01*
G75*
G02*
X124695400Y-95750800I-175400J0D01*
G01*
G37*
G36*
G01*
X125965400Y-95750800D02*
X125614600Y-95750800D01*
G75*
G02*
X125439200Y-95575400I0J175400D01*
G01*
X125439200Y-93874600D01*
G75*
G02*
X125614600Y-93699200I175400J0D01*
G01*
X125965400Y-93699200D01*
G75*
G02*
X126140800Y-93874600I0J-175400D01*
G01*
X126140800Y-95575400D01*
G75*
G02*
X125965400Y-95750800I-175400J0D01*
G01*
G37*
G36*
G01*
X127235400Y-95750800D02*
X126884600Y-95750800D01*
G75*
G02*
X126709200Y-95575400I0J175400D01*
G01*
X126709200Y-93874600D01*
G75*
G02*
X126884600Y-93699200I175400J0D01*
G01*
X127235400Y-93699200D01*
G75*
G02*
X127410800Y-93874600I0J-175400D01*
G01*
X127410800Y-95575400D01*
G75*
G02*
X127235400Y-95750800I-175400J0D01*
G01*
G37*
G36*
G01*
X127235400Y-90800800D02*
X126884600Y-90800800D01*
G75*
G02*
X126709200Y-90625400I0J175400D01*
G01*
X126709200Y-88924600D01*
G75*
G02*
X126884600Y-88749200I175400J0D01*
G01*
X127235400Y-88749200D01*
G75*
G02*
X127410800Y-88924600I0J-175400D01*
G01*
X127410800Y-90625400D01*
G75*
G02*
X127235400Y-90800800I-175400J0D01*
G01*
G37*
G36*
G01*
X125965400Y-90800800D02*
X125614600Y-90800800D01*
G75*
G02*
X125439200Y-90625400I0J175400D01*
G01*
X125439200Y-88924600D01*
G75*
G02*
X125614600Y-88749200I175400J0D01*
G01*
X125965400Y-88749200D01*
G75*
G02*
X126140800Y-88924600I0J-175400D01*
G01*
X126140800Y-90625400D01*
G75*
G02*
X125965400Y-90800800I-175400J0D01*
G01*
G37*
G36*
G01*
X124695400Y-90800800D02*
X124344600Y-90800800D01*
G75*
G02*
X124169200Y-90625400I0J175400D01*
G01*
X124169200Y-88924600D01*
G75*
G02*
X124344600Y-88749200I175400J0D01*
G01*
X124695400Y-88749200D01*
G75*
G02*
X124870800Y-88924600I0J-175400D01*
G01*
X124870800Y-90625400D01*
G75*
G02*
X124695400Y-90800800I-175400J0D01*
G01*
G37*
G36*
G01*
X123425400Y-90800800D02*
X123074600Y-90800800D01*
G75*
G02*
X122899200Y-90625400I0J175400D01*
G01*
X122899200Y-88924600D01*
G75*
G02*
X123074600Y-88749200I175400J0D01*
G01*
X123425400Y-88749200D01*
G75*
G02*
X123600800Y-88924600I0J-175400D01*
G01*
X123600800Y-90625400D01*
G75*
G02*
X123425400Y-90800800I-175400J0D01*
G01*
G37*
G36*
G01*
X122155400Y-90800800D02*
X121804600Y-90800800D01*
G75*
G02*
X121629200Y-90625400I0J175400D01*
G01*
X121629200Y-88924600D01*
G75*
G02*
X121804600Y-88749200I175400J0D01*
G01*
X122155400Y-88749200D01*
G75*
G02*
X122330800Y-88924600I0J-175400D01*
G01*
X122330800Y-90625400D01*
G75*
G02*
X122155400Y-90800800I-175400J0D01*
G01*
G37*
G36*
G01*
X120885400Y-90800800D02*
X120534600Y-90800800D01*
G75*
G02*
X120359200Y-90625400I0J175400D01*
G01*
X120359200Y-88924600D01*
G75*
G02*
X120534600Y-88749200I175400J0D01*
G01*
X120885400Y-88749200D01*
G75*
G02*
X121060800Y-88924600I0J-175400D01*
G01*
X121060800Y-90625400D01*
G75*
G02*
X120885400Y-90800800I-175400J0D01*
G01*
G37*
G36*
G01*
X119615400Y-90800800D02*
X119264600Y-90800800D01*
G75*
G02*
X119089200Y-90625400I0J175400D01*
G01*
X119089200Y-88924600D01*
G75*
G02*
X119264600Y-88749200I175400J0D01*
G01*
X119615400Y-88749200D01*
G75*
G02*
X119790800Y-88924600I0J-175400D01*
G01*
X119790800Y-90625400D01*
G75*
G02*
X119615400Y-90800800I-175400J0D01*
G01*
G37*
%TD*%
D22*
%TO.C,U2*%
X110809200Y-91040000D03*
X110809200Y-92310000D03*
X110809200Y-93580000D03*
X110809200Y-94850000D03*
X110809200Y-96120000D03*
X110809200Y-97390000D03*
X110809200Y-98660000D03*
X115990800Y-98660000D03*
X115990800Y-97390000D03*
X115990800Y-96120000D03*
X115990800Y-94850000D03*
X115990800Y-93580000D03*
X115990800Y-92310000D03*
X115990800Y-91040000D03*
%TD*%
%TO.C,U3*%
G36*
G01*
X107950800Y-98119600D02*
X107950800Y-98470400D01*
G75*
G02*
X107775400Y-98645800I-175400J0D01*
G01*
X105974600Y-98645800D01*
G75*
G02*
X105799200Y-98470400I0J175400D01*
G01*
X105799200Y-98119600D01*
G75*
G02*
X105974600Y-97944200I175400J0D01*
G01*
X107775400Y-97944200D01*
G75*
G02*
X107950800Y-98119600I0J-175400D01*
G01*
G37*
G36*
G01*
X107950800Y-96849600D02*
X107950800Y-97200400D01*
G75*
G02*
X107775400Y-97375800I-175400J0D01*
G01*
X105974600Y-97375800D01*
G75*
G02*
X105799200Y-97200400I0J175400D01*
G01*
X105799200Y-96849600D01*
G75*
G02*
X105974600Y-96674200I175400J0D01*
G01*
X107775400Y-96674200D01*
G75*
G02*
X107950800Y-96849600I0J-175400D01*
G01*
G37*
G36*
G01*
X107950800Y-95579600D02*
X107950800Y-95930400D01*
G75*
G02*
X107775400Y-96105800I-175400J0D01*
G01*
X105974600Y-96105800D01*
G75*
G02*
X105799200Y-95930400I0J175400D01*
G01*
X105799200Y-95579600D01*
G75*
G02*
X105974600Y-95404200I175400J0D01*
G01*
X107775400Y-95404200D01*
G75*
G02*
X107950800Y-95579600I0J-175400D01*
G01*
G37*
G36*
G01*
X107950800Y-94309600D02*
X107950800Y-94660400D01*
G75*
G02*
X107775400Y-94835800I-175400J0D01*
G01*
X105974600Y-94835800D01*
G75*
G02*
X105799200Y-94660400I0J175400D01*
G01*
X105799200Y-94309600D01*
G75*
G02*
X105974600Y-94134200I175400J0D01*
G01*
X107775400Y-94134200D01*
G75*
G02*
X107950800Y-94309600I0J-175400D01*
G01*
G37*
G36*
G01*
X107950800Y-93039600D02*
X107950800Y-93390400D01*
G75*
G02*
X107775400Y-93565800I-175400J0D01*
G01*
X105974600Y-93565800D01*
G75*
G02*
X105799200Y-93390400I0J175400D01*
G01*
X105799200Y-93039600D01*
G75*
G02*
X105974600Y-92864200I175400J0D01*
G01*
X107775400Y-92864200D01*
G75*
G02*
X107950800Y-93039600I0J-175400D01*
G01*
G37*
G36*
G01*
X107950800Y-91769600D02*
X107950800Y-92120400D01*
G75*
G02*
X107775400Y-92295800I-175400J0D01*
G01*
X105974600Y-92295800D01*
G75*
G02*
X105799200Y-92120400I0J175400D01*
G01*
X105799200Y-91769600D01*
G75*
G02*
X105974600Y-91594200I175400J0D01*
G01*
X107775400Y-91594200D01*
G75*
G02*
X107950800Y-91769600I0J-175400D01*
G01*
G37*
G36*
G01*
X107950800Y-90499600D02*
X107950800Y-90850400D01*
G75*
G02*
X107775400Y-91025800I-175400J0D01*
G01*
X105974600Y-91025800D01*
G75*
G02*
X105799200Y-90850400I0J175400D01*
G01*
X105799200Y-90499600D01*
G75*
G02*
X105974600Y-90324200I175400J0D01*
G01*
X107775400Y-90324200D01*
G75*
G02*
X107950800Y-90499600I0J-175400D01*
G01*
G37*
G36*
G01*
X107950800Y-89229600D02*
X107950800Y-89580400D01*
G75*
G02*
X107775400Y-89755800I-175400J0D01*
G01*
X105974600Y-89755800D01*
G75*
G02*
X105799200Y-89580400I0J175400D01*
G01*
X105799200Y-89229600D01*
G75*
G02*
X105974600Y-89054200I175400J0D01*
G01*
X107775400Y-89054200D01*
G75*
G02*
X107950800Y-89229600I0J-175400D01*
G01*
G37*
G36*
G01*
X98650800Y-89229600D02*
X98650800Y-89580400D01*
G75*
G02*
X98475400Y-89755800I-175400J0D01*
G01*
X96674600Y-89755800D01*
G75*
G02*
X96499200Y-89580400I0J175400D01*
G01*
X96499200Y-89229600D01*
G75*
G02*
X96674600Y-89054200I175400J0D01*
G01*
X98475400Y-89054200D01*
G75*
G02*
X98650800Y-89229600I0J-175400D01*
G01*
G37*
G36*
G01*
X98650800Y-90499600D02*
X98650800Y-90850400D01*
G75*
G02*
X98475400Y-91025800I-175400J0D01*
G01*
X96674600Y-91025800D01*
G75*
G02*
X96499200Y-90850400I0J175400D01*
G01*
X96499200Y-90499600D01*
G75*
G02*
X96674600Y-90324200I175400J0D01*
G01*
X98475400Y-90324200D01*
G75*
G02*
X98650800Y-90499600I0J-175400D01*
G01*
G37*
G36*
G01*
X98650800Y-91769600D02*
X98650800Y-92120400D01*
G75*
G02*
X98475400Y-92295800I-175400J0D01*
G01*
X96674600Y-92295800D01*
G75*
G02*
X96499200Y-92120400I0J175400D01*
G01*
X96499200Y-91769600D01*
G75*
G02*
X96674600Y-91594200I175400J0D01*
G01*
X98475400Y-91594200D01*
G75*
G02*
X98650800Y-91769600I0J-175400D01*
G01*
G37*
G36*
G01*
X98650800Y-93039600D02*
X98650800Y-93390400D01*
G75*
G02*
X98475400Y-93565800I-175400J0D01*
G01*
X96674600Y-93565800D01*
G75*
G02*
X96499200Y-93390400I0J175400D01*
G01*
X96499200Y-93039600D01*
G75*
G02*
X96674600Y-92864200I175400J0D01*
G01*
X98475400Y-92864200D01*
G75*
G02*
X98650800Y-93039600I0J-175400D01*
G01*
G37*
G36*
G01*
X98650800Y-94309600D02*
X98650800Y-94660400D01*
G75*
G02*
X98475400Y-94835800I-175400J0D01*
G01*
X96674600Y-94835800D01*
G75*
G02*
X96499200Y-94660400I0J175400D01*
G01*
X96499200Y-94309600D01*
G75*
G02*
X96674600Y-94134200I175400J0D01*
G01*
X98475400Y-94134200D01*
G75*
G02*
X98650800Y-94309600I0J-175400D01*
G01*
G37*
G36*
G01*
X98650800Y-95579600D02*
X98650800Y-95930400D01*
G75*
G02*
X98475400Y-96105800I-175400J0D01*
G01*
X96674600Y-96105800D01*
G75*
G02*
X96499200Y-95930400I0J175400D01*
G01*
X96499200Y-95579600D01*
G75*
G02*
X96674600Y-95404200I175400J0D01*
G01*
X98475400Y-95404200D01*
G75*
G02*
X98650800Y-95579600I0J-175400D01*
G01*
G37*
G36*
G01*
X98650800Y-96849600D02*
X98650800Y-97200400D01*
G75*
G02*
X98475400Y-97375800I-175400J0D01*
G01*
X96674600Y-97375800D01*
G75*
G02*
X96499200Y-97200400I0J175400D01*
G01*
X96499200Y-96849600D01*
G75*
G02*
X96674600Y-96674200I175400J0D01*
G01*
X98475400Y-96674200D01*
G75*
G02*
X98650800Y-96849600I0J-175400D01*
G01*
G37*
G36*
G01*
X98650800Y-98119600D02*
X98650800Y-98470400D01*
G75*
G02*
X98475400Y-98645800I-175400J0D01*
G01*
X96674600Y-98645800D01*
G75*
G02*
X96499200Y-98470400I0J175400D01*
G01*
X96499200Y-98119600D01*
G75*
G02*
X96674600Y-97944200I175400J0D01*
G01*
X98475400Y-97944200D01*
G75*
G02*
X98650800Y-98119600I0J-175400D01*
G01*
G37*
%TD*%
%TO.C,U4*%
G36*
G01*
X140750400Y-99625800D02*
X140499600Y-99625800D01*
G75*
G02*
X140374200Y-99500400I0J125400D01*
G01*
X140374200Y-98174600D01*
G75*
G02*
X140499600Y-98049200I125400J0D01*
G01*
X140750400Y-98049200D01*
G75*
G02*
X140875800Y-98174600I0J-125400D01*
G01*
X140875800Y-99500400D01*
G75*
G02*
X140750400Y-99625800I-125400J0D01*
G01*
G37*
G36*
G01*
X141400400Y-99625800D02*
X141149600Y-99625800D01*
G75*
G02*
X141024200Y-99500400I0J125400D01*
G01*
X141024200Y-98174600D01*
G75*
G02*
X141149600Y-98049200I125400J0D01*
G01*
X141400400Y-98049200D01*
G75*
G02*
X141525800Y-98174600I0J-125400D01*
G01*
X141525800Y-99500400D01*
G75*
G02*
X141400400Y-99625800I-125400J0D01*
G01*
G37*
G36*
G01*
X142050400Y-99625800D02*
X141799600Y-99625800D01*
G75*
G02*
X141674200Y-99500400I0J125400D01*
G01*
X141674200Y-98174600D01*
G75*
G02*
X141799600Y-98049200I125400J0D01*
G01*
X142050400Y-98049200D01*
G75*
G02*
X142175800Y-98174600I0J-125400D01*
G01*
X142175800Y-99500400D01*
G75*
G02*
X142050400Y-99625800I-125400J0D01*
G01*
G37*
G36*
G01*
X142700400Y-99625800D02*
X142449600Y-99625800D01*
G75*
G02*
X142324200Y-99500400I0J125400D01*
G01*
X142324200Y-98174600D01*
G75*
G02*
X142449600Y-98049200I125400J0D01*
G01*
X142700400Y-98049200D01*
G75*
G02*
X142825800Y-98174600I0J-125400D01*
G01*
X142825800Y-99500400D01*
G75*
G02*
X142700400Y-99625800I-125400J0D01*
G01*
G37*
G36*
G01*
X143350400Y-99625800D02*
X143099600Y-99625800D01*
G75*
G02*
X142974200Y-99500400I0J125400D01*
G01*
X142974200Y-98174600D01*
G75*
G02*
X143099600Y-98049200I125400J0D01*
G01*
X143350400Y-98049200D01*
G75*
G02*
X143475800Y-98174600I0J-125400D01*
G01*
X143475800Y-99500400D01*
G75*
G02*
X143350400Y-99625800I-125400J0D01*
G01*
G37*
G36*
G01*
X144000400Y-99625800D02*
X143749600Y-99625800D01*
G75*
G02*
X143624200Y-99500400I0J125400D01*
G01*
X143624200Y-98174600D01*
G75*
G02*
X143749600Y-98049200I125400J0D01*
G01*
X144000400Y-98049200D01*
G75*
G02*
X144125800Y-98174600I0J-125400D01*
G01*
X144125800Y-99500400D01*
G75*
G02*
X144000400Y-99625800I-125400J0D01*
G01*
G37*
G36*
G01*
X144650400Y-99625800D02*
X144399600Y-99625800D01*
G75*
G02*
X144274200Y-99500400I0J125400D01*
G01*
X144274200Y-98174600D01*
G75*
G02*
X144399600Y-98049200I125400J0D01*
G01*
X144650400Y-98049200D01*
G75*
G02*
X144775800Y-98174600I0J-125400D01*
G01*
X144775800Y-99500400D01*
G75*
G02*
X144650400Y-99625800I-125400J0D01*
G01*
G37*
G36*
G01*
X145300400Y-99625800D02*
X145049600Y-99625800D01*
G75*
G02*
X144924200Y-99500400I0J125400D01*
G01*
X144924200Y-98174600D01*
G75*
G02*
X145049600Y-98049200I125400J0D01*
G01*
X145300400Y-98049200D01*
G75*
G02*
X145425800Y-98174600I0J-125400D01*
G01*
X145425800Y-99500400D01*
G75*
G02*
X145300400Y-99625800I-125400J0D01*
G01*
G37*
G36*
G01*
X145300400Y-93900800D02*
X145049600Y-93900800D01*
G75*
G02*
X144924200Y-93775400I0J125400D01*
G01*
X144924200Y-92449600D01*
G75*
G02*
X145049600Y-92324200I125400J0D01*
G01*
X145300400Y-92324200D01*
G75*
G02*
X145425800Y-92449600I0J-125400D01*
G01*
X145425800Y-93775400D01*
G75*
G02*
X145300400Y-93900800I-125400J0D01*
G01*
G37*
G36*
G01*
X144650400Y-93900800D02*
X144399600Y-93900800D01*
G75*
G02*
X144274200Y-93775400I0J125400D01*
G01*
X144274200Y-92449600D01*
G75*
G02*
X144399600Y-92324200I125400J0D01*
G01*
X144650400Y-92324200D01*
G75*
G02*
X144775800Y-92449600I0J-125400D01*
G01*
X144775800Y-93775400D01*
G75*
G02*
X144650400Y-93900800I-125400J0D01*
G01*
G37*
G36*
G01*
X144000400Y-93900800D02*
X143749600Y-93900800D01*
G75*
G02*
X143624200Y-93775400I0J125400D01*
G01*
X143624200Y-92449600D01*
G75*
G02*
X143749600Y-92324200I125400J0D01*
G01*
X144000400Y-92324200D01*
G75*
G02*
X144125800Y-92449600I0J-125400D01*
G01*
X144125800Y-93775400D01*
G75*
G02*
X144000400Y-93900800I-125400J0D01*
G01*
G37*
G36*
G01*
X143350400Y-93900800D02*
X143099600Y-93900800D01*
G75*
G02*
X142974200Y-93775400I0J125400D01*
G01*
X142974200Y-92449600D01*
G75*
G02*
X143099600Y-92324200I125400J0D01*
G01*
X143350400Y-92324200D01*
G75*
G02*
X143475800Y-92449600I0J-125400D01*
G01*
X143475800Y-93775400D01*
G75*
G02*
X143350400Y-93900800I-125400J0D01*
G01*
G37*
G36*
G01*
X142700400Y-93900800D02*
X142449600Y-93900800D01*
G75*
G02*
X142324200Y-93775400I0J125400D01*
G01*
X142324200Y-92449600D01*
G75*
G02*
X142449600Y-92324200I125400J0D01*
G01*
X142700400Y-92324200D01*
G75*
G02*
X142825800Y-92449600I0J-125400D01*
G01*
X142825800Y-93775400D01*
G75*
G02*
X142700400Y-93900800I-125400J0D01*
G01*
G37*
G36*
G01*
X142050400Y-93900800D02*
X141799600Y-93900800D01*
G75*
G02*
X141674200Y-93775400I0J125400D01*
G01*
X141674200Y-92449600D01*
G75*
G02*
X141799600Y-92324200I125400J0D01*
G01*
X142050400Y-92324200D01*
G75*
G02*
X142175800Y-92449600I0J-125400D01*
G01*
X142175800Y-93775400D01*
G75*
G02*
X142050400Y-93900800I-125400J0D01*
G01*
G37*
G36*
G01*
X141400400Y-93900800D02*
X141149600Y-93900800D01*
G75*
G02*
X141024200Y-93775400I0J125400D01*
G01*
X141024200Y-92449600D01*
G75*
G02*
X141149600Y-92324200I125400J0D01*
G01*
X141400400Y-92324200D01*
G75*
G02*
X141525800Y-92449600I0J-125400D01*
G01*
X141525800Y-93775400D01*
G75*
G02*
X141400400Y-93900800I-125400J0D01*
G01*
G37*
G36*
G01*
X140750400Y-93900800D02*
X140499600Y-93900800D01*
G75*
G02*
X140374200Y-93775400I0J125400D01*
G01*
X140374200Y-92449600D01*
G75*
G02*
X140499600Y-92324200I125400J0D01*
G01*
X140750400Y-92324200D01*
G75*
G02*
X140875800Y-92449600I0J-125400D01*
G01*
X140875800Y-93775400D01*
G75*
G02*
X140750400Y-93900800I-125400J0D01*
G01*
G37*
%TD*%
%TO.C,U5*%
G36*
G01*
X136650800Y-94474600D02*
X136650800Y-94725400D01*
G75*
G02*
X136525400Y-94850800I-125400J0D01*
G01*
X135199600Y-94850800D01*
G75*
G02*
X135074200Y-94725400I0J125400D01*
G01*
X135074200Y-94474600D01*
G75*
G02*
X135199600Y-94349200I125400J0D01*
G01*
X136525400Y-94349200D01*
G75*
G02*
X136650800Y-94474600I0J-125400D01*
G01*
G37*
G36*
G01*
X136650800Y-93824600D02*
X136650800Y-94075400D01*
G75*
G02*
X136525400Y-94200800I-125400J0D01*
G01*
X135199600Y-94200800D01*
G75*
G02*
X135074200Y-94075400I0J125400D01*
G01*
X135074200Y-93824600D01*
G75*
G02*
X135199600Y-93699200I125400J0D01*
G01*
X136525400Y-93699200D01*
G75*
G02*
X136650800Y-93824600I0J-125400D01*
G01*
G37*
G36*
G01*
X136650800Y-93174600D02*
X136650800Y-93425400D01*
G75*
G02*
X136525400Y-93550800I-125400J0D01*
G01*
X135199600Y-93550800D01*
G75*
G02*
X135074200Y-93425400I0J125400D01*
G01*
X135074200Y-93174600D01*
G75*
G02*
X135199600Y-93049200I125400J0D01*
G01*
X136525400Y-93049200D01*
G75*
G02*
X136650800Y-93174600I0J-125400D01*
G01*
G37*
G36*
G01*
X136650800Y-92524600D02*
X136650800Y-92775400D01*
G75*
G02*
X136525400Y-92900800I-125400J0D01*
G01*
X135199600Y-92900800D01*
G75*
G02*
X135074200Y-92775400I0J125400D01*
G01*
X135074200Y-92524600D01*
G75*
G02*
X135199600Y-92399200I125400J0D01*
G01*
X136525400Y-92399200D01*
G75*
G02*
X136650800Y-92524600I0J-125400D01*
G01*
G37*
G36*
G01*
X136650800Y-91874600D02*
X136650800Y-92125400D01*
G75*
G02*
X136525400Y-92250800I-125400J0D01*
G01*
X135199600Y-92250800D01*
G75*
G02*
X135074200Y-92125400I0J125400D01*
G01*
X135074200Y-91874600D01*
G75*
G02*
X135199600Y-91749200I125400J0D01*
G01*
X136525400Y-91749200D01*
G75*
G02*
X136650800Y-91874600I0J-125400D01*
G01*
G37*
G36*
G01*
X136650800Y-91224600D02*
X136650800Y-91475400D01*
G75*
G02*
X136525400Y-91600800I-125400J0D01*
G01*
X135199600Y-91600800D01*
G75*
G02*
X135074200Y-91475400I0J125400D01*
G01*
X135074200Y-91224600D01*
G75*
G02*
X135199600Y-91099200I125400J0D01*
G01*
X136525400Y-91099200D01*
G75*
G02*
X136650800Y-91224600I0J-125400D01*
G01*
G37*
G36*
G01*
X136650800Y-90574600D02*
X136650800Y-90825400D01*
G75*
G02*
X136525400Y-90950800I-125400J0D01*
G01*
X135199600Y-90950800D01*
G75*
G02*
X135074200Y-90825400I0J125400D01*
G01*
X135074200Y-90574600D01*
G75*
G02*
X135199600Y-90449200I125400J0D01*
G01*
X136525400Y-90449200D01*
G75*
G02*
X136650800Y-90574600I0J-125400D01*
G01*
G37*
G36*
G01*
X130925800Y-90574600D02*
X130925800Y-90825400D01*
G75*
G02*
X130800400Y-90950800I-125400J0D01*
G01*
X129474600Y-90950800D01*
G75*
G02*
X129349200Y-90825400I0J125400D01*
G01*
X129349200Y-90574600D01*
G75*
G02*
X129474600Y-90449200I125400J0D01*
G01*
X130800400Y-90449200D01*
G75*
G02*
X130925800Y-90574600I0J-125400D01*
G01*
G37*
G36*
G01*
X130925800Y-91224600D02*
X130925800Y-91475400D01*
G75*
G02*
X130800400Y-91600800I-125400J0D01*
G01*
X129474600Y-91600800D01*
G75*
G02*
X129349200Y-91475400I0J125400D01*
G01*
X129349200Y-91224600D01*
G75*
G02*
X129474600Y-91099200I125400J0D01*
G01*
X130800400Y-91099200D01*
G75*
G02*
X130925800Y-91224600I0J-125400D01*
G01*
G37*
G36*
G01*
X130925800Y-91874600D02*
X130925800Y-92125400D01*
G75*
G02*
X130800400Y-92250800I-125400J0D01*
G01*
X129474600Y-92250800D01*
G75*
G02*
X129349200Y-92125400I0J125400D01*
G01*
X129349200Y-91874600D01*
G75*
G02*
X129474600Y-91749200I125400J0D01*
G01*
X130800400Y-91749200D01*
G75*
G02*
X130925800Y-91874600I0J-125400D01*
G01*
G37*
G36*
G01*
X130925800Y-92524600D02*
X130925800Y-92775400D01*
G75*
G02*
X130800400Y-92900800I-125400J0D01*
G01*
X129474600Y-92900800D01*
G75*
G02*
X129349200Y-92775400I0J125400D01*
G01*
X129349200Y-92524600D01*
G75*
G02*
X129474600Y-92399200I125400J0D01*
G01*
X130800400Y-92399200D01*
G75*
G02*
X130925800Y-92524600I0J-125400D01*
G01*
G37*
G36*
G01*
X130925800Y-93174600D02*
X130925800Y-93425400D01*
G75*
G02*
X130800400Y-93550800I-125400J0D01*
G01*
X129474600Y-93550800D01*
G75*
G02*
X129349200Y-93425400I0J125400D01*
G01*
X129349200Y-93174600D01*
G75*
G02*
X129474600Y-93049200I125400J0D01*
G01*
X130800400Y-93049200D01*
G75*
G02*
X130925800Y-93174600I0J-125400D01*
G01*
G37*
G36*
G01*
X130925800Y-93824600D02*
X130925800Y-94075400D01*
G75*
G02*
X130800400Y-94200800I-125400J0D01*
G01*
X129474600Y-94200800D01*
G75*
G02*
X129349200Y-94075400I0J125400D01*
G01*
X129349200Y-93824600D01*
G75*
G02*
X129474600Y-93699200I125400J0D01*
G01*
X130800400Y-93699200D01*
G75*
G02*
X130925800Y-93824600I0J-125400D01*
G01*
G37*
G36*
G01*
X130925800Y-94474600D02*
X130925800Y-94725400D01*
G75*
G02*
X130800400Y-94850800I-125400J0D01*
G01*
X129474600Y-94850800D01*
G75*
G02*
X129349200Y-94725400I0J125400D01*
G01*
X129349200Y-94474600D01*
G75*
G02*
X129474600Y-94349200I125400J0D01*
G01*
X130800400Y-94349200D01*
G75*
G02*
X130925800Y-94474600I0J-125400D01*
G01*
G37*
%TD*%
M02*
